<svg width="196" height="150" viewBox="0 0 196 150" fill="none" xmlns="http://www.w3.org/2000/svg">
<path d="M7.00305 106.972L8.19869 105.606C8.3695 105.948 8.62571 106.289 8.88192 106.46C9.22353 106.631 9.56514 106.801 9.99216 106.801C10.5046 106.801 10.8462 106.716 11.1878 106.46C11.444 106.204 11.6148 105.948 11.6148 105.521C11.6148 105.008 11.1024 104.582 10.163 104.155C9.82135 103.984 9.56514 103.899 9.39434 103.813C8.54031 103.386 7.94249 102.96 7.60087 102.447C7.25926 101.935 7.08846 101.508 7.08846 100.911C7.08846 100.057 7.43007 99.4592 8.02789 98.8616C8.62571 98.264 9.47974 98.0933 10.59 98.0933C11.1878 98.0933 11.7002 98.1786 12.1272 98.4348C12.5542 98.6909 12.9813 98.947 13.3229 99.4592L12.0418 100.654C11.871 100.398 11.7002 100.142 11.444 99.9715C11.1878 99.8007 10.9316 99.7153 10.59 99.7153C10.163 99.7153 9.82135 99.8007 9.56514 100.057C9.30893 100.228 9.13813 100.569 9.13813 100.911C9.13813 101.423 9.65055 101.935 10.6754 102.362C10.8462 102.447 11.017 102.533 11.1024 102.533C11.9564 102.96 12.5542 103.386 12.9813 103.813C13.4083 104.24 13.5791 104.838 13.5791 105.435C13.5791 106.374 13.2375 107.143 12.6397 107.655C12.0418 108.167 11.1878 108.509 10.0776 108.509C9.30893 108.509 8.62571 108.338 8.11329 108.082C7.60087 107.826 7.25926 107.484 7.00305 106.972Z" fill="#EEEEEE"/>
<path d="M14.2623 108.253L18.0201 98.3494H20.4968L24.3399 108.253H21.9486L21.18 106.118H17.3368L16.6536 108.253H14.2623ZM20.5822 104.411L19.4719 101.167C19.4719 101.081 19.3865 100.911 19.3865 100.654C19.3011 100.398 19.3011 100.142 19.2157 99.8007C19.1303 100.142 19.1303 100.398 19.0449 100.654C18.9595 100.911 18.9595 101.081 18.9595 101.167L17.8493 104.325H20.5822V104.411Z" fill="#EEEEEE"/>
<path d="M25.3647 108.253V98.3494H31.2575V100.142H27.4998V102.191H31.2575V103.984H27.4998V106.46H31.2575V108.253H25.3647Z" fill="#EEEEEE"/>
<path d="M33.3072 108.253V98.3494H39.2V100.142H35.4423V102.191H39.2V103.984H35.4423V106.46H39.2V108.253H33.3072Z" fill="#EEEEEE"/>
<path d="M45.5198 108.253V98.3494H47.3987C48.3381 98.3494 49.1068 98.3494 49.5338 98.4347C49.9608 98.5201 50.3878 98.6055 50.7294 98.7762C51.1564 99.0323 51.4126 99.2885 51.5835 99.63C51.7543 99.9714 51.9251 100.398 51.9251 100.825C51.9251 101.423 51.7543 101.85 51.4126 102.277C51.071 102.618 50.5586 102.874 49.8754 102.959C50.644 103.045 51.2418 103.301 51.6689 103.728C52.0959 104.155 52.2667 104.667 52.2667 105.35C52.2667 105.862 52.1813 106.289 51.9251 106.716C51.6689 107.143 51.3272 107.399 50.9856 107.655C50.644 107.826 50.217 107.996 49.7046 108.082C49.1922 108.167 48.4235 108.253 47.2279 108.253H46.9717H45.5198ZM47.6549 102.277H48.1673C48.8506 102.277 49.2776 102.191 49.5338 102.02C49.79 101.85 49.9608 101.508 49.9608 101.081C49.9608 100.654 49.8754 100.398 49.6192 100.228C49.363 100.057 48.936 99.9714 48.2527 99.9714H47.7403V102.277H47.6549ZM47.6549 106.545H48.5089C49.0214 106.545 49.4484 106.46 49.7046 106.204C49.9608 105.948 50.1316 105.606 50.1316 105.179C50.1316 104.752 49.9608 104.411 49.7046 104.24C49.4484 103.984 49.0214 103.899 48.5089 103.899H47.6549V106.545Z" fill="#EEEEEE"/>
<path d="M62.3442 98.2639V104.411C62.3442 105.777 62.0026 106.801 61.3194 107.399C60.6361 108.082 59.5259 108.423 58.074 108.423C56.6222 108.423 55.512 108.082 54.8287 107.399C54.1455 106.716 53.8039 105.691 53.8039 104.411V98.2639H55.939V104.155C55.939 105.008 56.1098 105.606 56.4514 106.033C56.793 106.46 57.3908 106.63 58.074 106.63C58.7573 106.63 59.3551 106.46 59.6967 106.033C60.0383 105.606 60.2945 105.008 60.2945 104.155V98.2639H62.3442Z" fill="#EEEEEE"/>
<path d="M63.9669 106.972L65.1626 105.606C65.3334 105.948 65.5896 106.289 65.8458 106.46C66.102 106.631 66.529 106.801 66.956 106.801C67.4684 106.801 67.8101 106.716 68.1517 106.46C68.4933 106.204 68.5787 105.948 68.5787 105.521C68.5787 105.008 68.0663 104.582 67.1268 104.155C66.7852 103.984 66.529 103.899 66.3582 103.813C65.5042 103.386 64.9063 102.96 64.5647 102.447C64.2231 102.02 64.0523 101.508 64.0523 100.911C64.0523 100.057 64.3939 99.4592 64.9918 98.8616C65.5896 98.264 66.4436 98.0933 67.5538 98.0933C68.1517 98.0933 68.6641 98.1786 69.0911 98.4348C69.5181 98.6909 69.9451 98.947 70.2867 99.4592L69.0057 100.654C68.8349 100.398 68.6641 100.142 68.4079 99.9715C68.1517 99.8007 67.8955 99.7153 67.5538 99.7153C67.1268 99.7153 66.7852 99.8007 66.529 100.057C66.2728 100.228 66.102 100.569 66.102 100.911C66.102 101.423 66.6144 101.935 67.6392 102.362C67.8101 102.447 67.9809 102.533 68.0663 102.533C68.9203 102.96 69.5181 103.386 69.9451 103.813C70.3721 104.24 70.543 104.838 70.543 105.435C70.543 106.374 70.2013 107.143 69.6035 107.655C69.0057 108.167 68.1517 108.509 67.0414 108.509C66.2728 108.509 65.5896 108.338 65.0772 108.082C64.5647 107.826 64.2231 107.484 63.9669 106.972Z" fill="#EEEEEE"/>
<path d="M72.4218 108.253V98.3494H74.5569V108.253H72.4218Z" fill="#EEEEEE"/>
<path d="M76.7773 108.253V98.3494H78.9978L83.4388 104.155C83.5242 104.325 83.695 104.582 83.8658 104.838C84.0366 105.094 84.2074 105.521 84.3782 105.862C84.2928 105.606 84.2928 105.265 84.2928 105.008C84.2928 104.752 84.2928 104.325 84.2928 103.899V98.3494H86.3425V108.253H84.2928L79.7665 102.362C79.681 102.191 79.5102 101.935 79.3394 101.679C79.1686 101.423 78.9978 100.996 78.827 100.654C78.9124 100.911 78.9124 101.252 78.9124 101.508C78.9124 101.764 78.9124 102.191 78.9124 102.618V108.253H76.7773Z" fill="#EEEEEE"/>
<path d="M88.3922 108.253V98.3494H94.285V100.142H90.5273V102.191H94.285V103.984H90.5273V106.46H94.285V108.253H88.3922Z" fill="#EEEEEE"/>
<path d="M95.7368 106.972L96.9325 105.606C97.1033 105.948 97.3595 106.289 97.6157 106.46C97.9573 106.631 98.2989 106.801 98.7259 106.801C99.2383 106.801 99.58 106.716 99.9216 106.46C100.178 106.204 100.349 105.948 100.349 105.521C100.349 105.008 99.8362 104.582 98.8967 104.155C98.5551 103.984 98.2989 103.899 98.1281 103.813C97.2741 103.386 96.6763 102.96 96.3346 102.447C95.993 101.935 95.8222 101.508 95.8222 100.911C95.8222 100.057 96.1638 99.4592 96.7617 98.8616C97.3595 98.264 98.2135 98.0933 99.3237 98.0933C99.9216 98.0933 100.434 98.1786 100.861 98.4348C101.288 98.6909 101.715 98.947 102.057 99.4592L100.776 100.654C100.605 100.398 100.434 100.142 100.178 99.9715C99.9216 99.8007 99.6654 99.7153 99.3237 99.7153C98.8967 99.7153 98.5551 99.8007 98.2989 100.057C98.0427 100.228 97.8719 100.569 97.8719 100.911C97.8719 101.423 98.3843 101.935 99.4092 102.362C99.58 102.447 99.7508 102.533 99.8362 102.533C100.69 102.96 101.288 103.386 101.715 103.813C102.142 104.24 102.313 104.838 102.313 105.435C102.313 106.374 101.971 107.143 101.373 107.655C100.776 108.167 99.9216 108.509 98.8113 108.509C98.0427 108.509 97.3595 108.338 96.8471 108.082C96.3346 107.826 95.993 107.484 95.7368 106.972Z" fill="#EEEEEE"/>
<path d="M103.509 106.972L104.704 105.606C104.875 105.948 105.131 106.289 105.387 106.46C105.729 106.631 106.071 106.801 106.498 106.801C107.01 106.801 107.352 106.716 107.693 106.46C107.95 106.204 108.12 105.948 108.12 105.521C108.12 105.008 107.608 104.582 106.668 104.155C106.327 103.984 106.071 103.899 105.9 103.813C105.046 103.386 104.448 102.96 104.106 102.447C103.765 101.935 103.594 101.508 103.594 100.911C103.594 100.057 103.936 99.4592 104.533 98.8616C105.131 98.264 105.985 98.0933 107.095 98.0933C107.693 98.0933 108.206 98.1786 108.633 98.4348C109.06 98.6909 109.487 98.947 109.828 99.4592L108.547 100.654C108.377 100.398 108.206 100.142 107.95 99.9715C107.693 99.8007 107.437 99.7153 107.095 99.7153C106.668 99.7153 106.327 99.8007 106.071 100.057C105.814 100.228 105.644 100.569 105.644 100.911C105.644 101.423 106.156 101.935 107.181 102.362C107.352 102.447 107.522 102.533 107.608 102.533C108.462 102.96 109.06 103.386 109.487 103.813C109.914 104.325 110.085 104.838 110.085 105.435C110.085 106.374 109.743 107.143 109.145 107.655C108.547 108.167 107.693 108.509 106.583 108.509C105.814 108.509 105.131 108.338 104.619 108.082C104.192 107.826 103.765 107.484 103.509 106.972Z" fill="#EEEEEE"/>
<path d="M115.55 106.972L116.746 105.606C116.917 105.948 117.173 106.289 117.429 106.46C117.685 106.631 118.112 106.801 118.539 106.801C119.052 106.801 119.393 106.716 119.735 106.46C119.991 106.204 120.162 105.948 120.162 105.521C120.162 105.008 119.65 104.582 118.71 104.155C118.369 103.984 118.112 103.899 117.942 103.813C117.088 103.386 116.49 102.96 116.148 102.447C115.806 101.935 115.636 101.508 115.636 100.911C115.636 100.057 115.977 99.4592 116.575 98.8616C117.173 98.264 118.027 98.0933 119.137 98.0933C119.735 98.0933 120.247 98.1786 120.674 98.4348C121.101 98.6909 121.529 98.947 121.87 99.4592L120.589 100.654C120.418 100.398 120.247 100.142 119.991 99.9715C119.735 99.8007 119.479 99.7153 119.137 99.7153C118.71 99.7153 118.369 99.8007 118.112 100.057C117.856 100.228 117.685 100.569 117.685 100.911C117.685 101.423 118.198 101.935 119.223 102.362C119.393 102.447 119.564 102.533 119.65 102.533C120.504 102.96 121.101 103.386 121.529 103.813C121.956 104.325 122.126 104.838 122.126 105.435C122.126 106.374 121.785 107.143 121.187 107.655C120.589 108.167 119.735 108.509 118.625 108.509C117.856 108.509 117.173 108.338 116.661 108.082C116.148 107.826 115.807 107.484 115.55 106.972Z" fill="#EEEEEE"/>
<path d="M134.168 103.301C134.168 103.984 133.997 104.667 133.741 105.35C133.485 105.948 133.058 106.545 132.631 107.057C132.119 107.57 131.521 107.911 130.923 108.167C130.325 108.423 129.642 108.594 128.873 108.594C128.275 108.594 127.678 108.509 127.08 108.253C126.482 108.082 125.969 107.74 125.457 107.399C124.859 106.887 124.347 106.289 124.005 105.606C123.664 104.923 123.493 104.155 123.493 103.386C123.493 102.703 123.664 102.02 123.92 101.337C124.176 100.74 124.603 100.142 125.115 99.63C125.628 99.1177 126.226 98.7762 126.824 98.5201C127.507 98.264 128.19 98.0933 128.873 98.0933C129.556 98.0933 130.24 98.264 130.923 98.5201C131.606 98.7762 132.119 99.2031 132.631 99.63C133.143 100.142 133.485 100.654 133.741 101.337C133.997 101.935 134.168 102.533 134.168 103.301ZM128.873 106.631C129.813 106.631 130.496 106.289 131.094 105.691C131.691 105.094 131.948 104.24 131.948 103.301C131.948 102.362 131.691 101.594 131.094 100.911C130.496 100.228 129.727 99.9715 128.873 99.9715C127.934 99.9715 127.251 100.313 126.653 100.911C126.055 101.594 125.799 102.362 125.799 103.301C125.799 104.24 126.055 105.094 126.653 105.691C127.165 106.289 127.934 106.631 128.873 106.631Z" fill="#EEEEEE"/>
<path d="M135.962 108.253V98.3494H138.097V106.46H141.513V108.253H135.962Z" fill="#EEEEEE"/>
<path d="M151.163 98.2639V104.411C151.163 105.777 150.822 106.801 150.139 107.399C149.455 108.082 148.345 108.423 146.893 108.423C145.441 108.423 144.331 108.082 143.648 107.399C142.965 106.716 142.623 105.691 142.623 104.411V98.2639H144.758V104.155C144.758 105.008 144.929 105.606 145.271 106.033C145.612 106.46 146.21 106.63 146.893 106.63C147.576 106.63 148.174 106.46 148.516 106.033C148.857 105.606 149.114 105.008 149.114 104.155V98.2639H151.163Z" fill="#EEEEEE"/>
<path d="M157.056 100.142V108.253H154.921V100.142H152.53V98.3494H159.533V100.142H157.056Z" fill="#EEEEEE"/>
<path d="M160.899 108.253V98.3494H163.034V108.253H160.899Z" fill="#EEEEEE"/>
<path d="M175.503 103.301C175.503 103.984 175.332 104.667 175.076 105.35C174.82 105.948 174.393 106.545 173.966 107.057C173.454 107.57 172.856 107.911 172.258 108.167C171.575 108.423 170.977 108.594 170.208 108.594C169.61 108.594 169.013 108.509 168.415 108.253C167.817 108.082 167.305 107.74 166.792 107.399C166.194 106.887 165.682 106.289 165.34 105.606C164.999 104.923 164.828 104.155 164.828 103.386C164.828 102.703 164.999 102.02 165.255 101.337C165.511 100.74 165.938 100.142 166.451 99.63C166.963 99.1177 167.561 98.7762 168.159 98.5201C168.842 98.264 169.525 98.0933 170.208 98.0933C170.892 98.0933 171.575 98.264 172.258 98.5201C172.941 98.7762 173.454 99.2031 173.966 99.63C174.478 100.142 174.82 100.654 175.076 101.337C175.332 101.935 175.503 102.533 175.503 103.301ZM170.208 106.631C171.148 106.631 171.831 106.289 172.429 105.691C173.027 105.094 173.283 104.24 173.283 103.301C173.283 102.362 173.027 101.594 172.429 100.911C171.831 100.228 171.062 99.9715 170.208 99.9715C169.269 99.9715 168.586 100.313 167.988 100.911C167.39 101.594 167.134 102.362 167.134 103.301C167.134 104.24 167.39 105.094 167.988 105.691C168.5 106.289 169.269 106.631 170.208 106.631Z" fill="#EEEEEE"/>
<path d="M177.297 108.253V98.3494H179.517L183.958 104.155C184.044 104.325 184.214 104.582 184.385 104.838C184.556 105.094 184.727 105.521 184.898 105.862C184.812 105.606 184.812 105.265 184.812 105.008C184.812 104.752 184.812 104.325 184.812 103.899V98.3494H186.862V108.253H184.812L180.286 102.362C180.2 102.191 180.03 101.935 179.859 101.679C179.688 101.423 179.517 100.996 179.346 100.654C179.432 100.911 179.432 101.252 179.432 101.508C179.432 101.764 179.432 102.191 179.432 102.618V108.253H177.297Z" fill="#EEEEEE"/>
<path d="M188.228 106.972L189.424 105.606C189.595 105.948 189.851 106.289 190.107 106.46C190.363 106.631 190.79 106.801 191.217 106.801C191.73 106.801 192.071 106.716 192.413 106.46C192.755 106.204 192.84 105.948 192.84 105.521C192.84 105.008 192.328 104.582 191.388 104.155C191.047 103.984 190.79 103.899 190.62 103.813C189.766 103.386 189.168 102.96 188.826 102.447C188.484 102.02 188.314 101.508 188.314 100.911C188.314 100.057 188.655 99.4592 189.253 98.8616C189.936 98.3494 190.705 98.0933 191.815 98.0933C192.413 98.0933 192.925 98.1786 193.352 98.4348C193.779 98.6909 194.206 98.947 194.548 99.4592L193.267 100.654C193.096 100.398 192.925 100.142 192.669 99.9715C192.413 99.8007 192.157 99.7153 191.815 99.7153C191.388 99.7153 191.047 99.8007 190.79 100.057C190.534 100.228 190.363 100.569 190.363 100.911C190.363 101.423 190.876 101.935 191.901 102.362C192.071 102.447 192.242 102.533 192.328 102.533C193.182 102.96 193.779 103.386 194.206 103.813C194.634 104.325 194.804 104.838 194.804 105.435C194.804 106.374 194.463 107.143 193.865 107.655C193.267 108.167 192.413 108.509 191.303 108.509C190.534 108.509 189.851 108.338 189.339 108.082C188.911 107.826 188.484 107.484 188.228 106.972Z" fill="#EEEEEE"/>
<path d="M7.08844 139.328V133.182H10.3338V133.865H7.77166V135.657H10.3338V136.34H7.77166V138.731H10.3338V139.414H7.08844V139.328Z" fill="#EEEEEE"/>
<path d="M18.7887 139.499L16.8244 135.06L16.0558 139.243H15.3726L16.6536 132.84L18.7887 137.962L20.9238 132.84L22.2048 139.243H21.5216L20.753 135.06L18.7887 139.499Z" fill="#EEEEEE"/>
<path d="M28.183 136.511V139.328H27.4998V133.182H28.7808C29.2078 133.182 29.5494 133.182 29.8056 133.267C30.0618 133.352 30.2327 133.352 30.4035 133.523C30.5743 133.694 30.7451 133.865 30.8305 134.121C30.9159 134.377 31.0013 134.633 31.0013 134.974C31.0013 135.231 30.9159 135.572 30.8305 135.828C30.7451 136.084 30.5743 136.255 30.4035 136.426C30.2327 136.511 30.0618 136.597 29.8056 136.682C29.6348 136.767 29.2932 136.767 28.7808 136.767H28.61H28.183V136.511ZM28.183 135.828H28.5246C29.1224 135.828 29.5494 135.743 29.8056 135.572C30.0618 135.401 30.1472 135.145 30.1472 134.804C30.1472 134.377 30.0618 134.121 29.8056 133.95C29.5494 133.779 29.1224 133.694 28.5246 133.694H28.183V135.828Z" fill="#EEEEEE"/>
<path d="M42.5307 136.255C42.5307 136.682 42.4453 137.109 42.2745 137.536C42.1037 137.962 41.8475 138.304 41.5913 138.56C41.2497 138.901 40.908 139.072 40.481 139.243C40.054 139.414 39.627 139.499 39.2 139.499C38.773 139.499 38.346 139.414 37.9189 139.243C37.4919 139.072 37.1503 138.816 36.8087 138.56C36.4671 138.218 36.2109 137.877 36.1255 137.536C35.9547 137.109 35.8693 136.767 35.8693 136.255C35.8693 135.828 35.9547 135.401 36.1255 134.974C36.2963 134.547 36.5525 134.206 36.8087 133.95C37.1503 133.608 37.4919 133.438 37.9189 133.267C38.346 133.096 38.773 133.011 39.2 133.011C39.627 133.011 40.054 133.096 40.481 133.267C40.908 133.438 41.2497 133.694 41.5913 133.95C41.9329 134.291 42.1037 134.633 42.2745 134.974C42.4453 135.316 42.5307 135.743 42.5307 136.255ZM39.2 138.731C39.5416 138.731 39.8832 138.645 40.1394 138.56C40.481 138.475 40.7372 138.218 40.9934 137.962C41.2497 137.706 41.4205 137.45 41.5059 137.109C41.5913 136.767 41.6767 136.511 41.6767 136.17C41.6767 135.828 41.5913 135.487 41.5059 135.145C41.4205 134.804 41.1643 134.547 40.9934 134.291C40.7372 134.035 40.481 133.864 40.1394 133.779C39.7978 133.694 39.5416 133.608 39.2 133.608C38.8584 133.608 38.5168 133.694 38.2605 133.779C37.9189 133.864 37.6627 134.121 37.4065 134.291C37.1503 134.547 36.9795 134.804 36.8941 135.145C36.8087 135.487 36.7233 135.743 36.7233 136.17C36.7233 136.511 36.8087 136.853 36.8941 137.109C36.9795 137.45 37.2357 137.706 37.4919 137.962C37.7481 138.218 38.0043 138.389 38.346 138.56C38.6022 138.731 38.8584 138.731 39.2 138.731Z" fill="#EEEEEE"/>
<path d="M47.2279 133.096H47.9965L49.5338 137.621L51.1564 132.84L52.7791 137.621L54.3164 133.096H55.085L52.6937 139.499L51.071 134.718L49.4484 139.499L47.2279 133.096Z" fill="#EEEEEE"/>
<path d="M60.2946 139.328V133.182H63.5399V133.865H60.9778V135.657H63.5399V136.34H60.9778V138.731H63.5399V139.414H60.2946V139.328Z" fill="#EEEEEE"/>
<path d="M69.0911 139.328V133.182H70.5429C70.9699 133.182 71.2261 133.182 71.4823 133.267C71.6532 133.352 71.824 133.352 71.9948 133.523C72.1656 133.694 72.3364 133.865 72.4218 134.121C72.5072 134.377 72.5926 134.633 72.5926 134.889C72.5926 135.401 72.4218 135.743 72.1656 136.084C71.9094 136.34 71.4823 136.511 70.8845 136.511H70.7137L73.105 139.499H72.1656L69.9451 136.511H69.8597V139.499H69.0911V139.328ZM69.8597 133.694V135.743H70.4575C71.0553 135.743 71.3969 135.657 71.6532 135.487C71.824 135.316 71.9094 135.06 71.9094 134.718C71.9094 134.291 71.824 134.035 71.5678 133.865C71.3969 133.694 70.9699 133.609 70.4575 133.609H69.8597V133.694Z" fill="#EEEEEE"/>
<path d="M78.0583 139.328V133.182H78.827V139.328H78.0583Z" fill="#EEEEEE"/>
<path d="M84.6344 139.328V132.926L89.1608 137.877V133.182H89.844V139.585L85.3176 134.718V139.328H84.6344Z" fill="#EEEEEE"/>
<path d="M99.0675 136.084H101.63V136.255C101.63 137.194 101.373 137.963 100.776 138.56C100.263 139.158 99.4946 139.414 98.5551 139.414C98.2989 139.414 97.9573 139.414 97.7011 139.328C97.4449 139.243 97.1887 139.158 96.9325 139.072C96.4201 138.816 95.993 138.389 95.7368 137.877C95.4806 137.365 95.3098 136.853 95.3098 136.17C95.3098 135.657 95.3952 135.231 95.566 134.804C95.7368 134.377 95.993 134.035 96.3347 133.694C96.5909 133.438 96.9325 133.267 97.2741 133.096C97.6157 132.926 98.0427 132.926 98.4697 132.926C99.0676 132.926 99.58 133.011 100.007 133.267C100.434 133.523 100.776 133.779 101.117 134.206L100.519 134.718C100.263 134.377 100.007 134.035 99.6654 133.865C99.3238 133.694 98.9821 133.609 98.4697 133.609C97.7865 133.609 97.1887 133.865 96.7617 134.377C96.3347 134.889 96.0784 135.487 96.0784 136.255C96.0784 137.023 96.3347 137.621 96.7617 138.048C97.1887 138.56 97.7865 138.731 98.4697 138.731C99.0676 138.731 99.58 138.56 100.007 138.133C100.434 137.792 100.69 137.28 100.69 136.682H99.0675V136.084Z" fill="#EEEEEE"/>
<path d="M116.148 135.828C116.575 135.999 116.831 136.255 117.088 136.511C117.258 136.767 117.429 137.109 117.429 137.536C117.429 138.133 117.258 138.56 116.917 138.902C116.575 139.243 116.063 139.414 115.465 139.414C114.953 139.414 114.611 139.328 114.269 139.072C113.928 138.816 113.757 138.475 113.586 138.048L114.269 137.706C114.355 138.048 114.525 138.389 114.696 138.56C114.867 138.731 115.123 138.816 115.465 138.816C115.807 138.816 116.148 138.731 116.319 138.475C116.575 138.304 116.661 137.963 116.661 137.621C116.661 137.365 116.575 137.109 116.404 136.938C116.234 136.767 115.977 136.597 115.721 136.426L114.953 136.084C114.525 135.914 114.269 135.657 114.013 135.401C113.842 135.145 113.671 134.804 113.671 134.462C113.671 134.035 113.842 133.694 114.184 133.352C114.525 133.011 114.953 132.926 115.465 132.926C115.807 132.926 116.148 133.011 116.404 133.182C116.661 133.352 116.917 133.609 117.002 133.865L116.404 134.292C116.234 134.035 116.148 133.865 115.977 133.779C115.807 133.694 115.636 133.609 115.38 133.609C115.123 133.609 114.867 133.694 114.696 133.865C114.525 134.035 114.44 134.292 114.44 134.548C114.44 134.804 114.525 134.974 114.611 135.145C114.696 135.316 114.953 135.487 115.209 135.572L116.148 135.828Z" fill="#EEEEEE"/>
<path d="M129.044 136.255C129.044 136.682 128.959 137.109 128.788 137.536C128.617 137.962 128.361 138.304 128.105 138.56C127.763 138.901 127.421 139.072 126.994 139.243C126.567 139.414 126.14 139.499 125.713 139.499C125.286 139.499 124.859 139.414 124.432 139.243C124.005 139.072 123.664 138.816 123.322 138.56C122.98 138.218 122.724 137.877 122.639 137.536C122.468 137.109 122.383 136.767 122.383 136.255C122.383 135.828 122.468 135.401 122.639 134.974C122.81 134.547 123.066 134.206 123.322 133.95C123.664 133.608 124.005 133.438 124.432 133.267C124.859 133.096 125.286 133.011 125.713 133.011C126.14 133.011 126.567 133.096 126.994 133.267C127.421 133.438 127.763 133.694 128.105 133.95C128.446 134.291 128.617 134.633 128.788 134.974C128.959 135.316 129.044 135.743 129.044 136.255ZM125.713 138.731C126.055 138.731 126.397 138.645 126.653 138.56C126.994 138.475 127.251 138.218 127.507 137.962C127.763 137.706 127.934 137.45 128.019 137.109C128.105 136.767 128.19 136.511 128.19 136.17C128.19 135.828 128.105 135.487 128.019 135.145C127.934 134.804 127.678 134.547 127.507 134.291C127.251 134.035 126.994 133.864 126.653 133.779C126.311 133.694 126.055 133.608 125.713 133.608C125.372 133.608 125.03 133.694 124.774 133.779C124.432 133.864 124.176 134.121 123.92 134.291C123.664 134.547 123.493 134.804 123.407 135.145C123.322 135.487 123.237 135.743 123.237 136.17C123.237 136.511 123.322 136.853 123.407 137.109C123.493 137.45 123.749 137.706 124.005 137.962C124.261 138.218 124.518 138.389 124.859 138.56C125.03 138.731 125.372 138.731 125.713 138.731Z" fill="#EEEEEE"/>
<path d="M134.595 139.328V133.182H135.364V138.645H137.67V139.328H134.595Z" fill="#EEEEEE"/>
<path d="M142.623 133.096H143.392V136.938C143.392 137.536 143.562 138.048 143.819 138.304C144.075 138.56 144.502 138.731 145.1 138.731C145.698 138.731 146.125 138.56 146.381 138.304C146.637 138.048 146.808 137.536 146.808 136.938V133.096H147.576V136.938C147.576 137.792 147.406 138.389 146.979 138.816C146.552 139.243 145.954 139.414 145.185 139.414C144.417 139.414 143.819 139.243 143.392 138.816C142.965 138.389 142.794 137.792 142.794 136.938V133.096H142.623Z" fill="#EEEEEE"/>
<path d="M154.323 139.328V133.865H152.615V133.182H156.885V133.865H155.177V139.328H154.323Z" fill="#EEEEEE"/>
<path d="M161.924 139.328V133.182H162.693V139.328H161.924Z" fill="#EEEEEE"/>
<path d="M174.82 136.255C174.82 136.682 174.735 137.109 174.564 137.536C174.393 137.962 174.137 138.304 173.881 138.56C173.539 138.901 173.197 139.072 172.77 139.243C172.343 139.414 171.916 139.499 171.489 139.499C171.062 139.499 170.635 139.414 170.208 139.243C169.781 139.072 169.44 138.816 169.098 138.56C168.756 138.218 168.5 137.877 168.415 137.536C168.244 137.109 168.159 136.767 168.159 136.255C168.159 135.828 168.244 135.401 168.415 134.974C168.586 134.547 168.842 134.206 169.098 133.95C169.44 133.608 169.781 133.438 170.208 133.267C170.635 133.096 171.062 133.011 171.489 133.011C171.916 133.011 172.343 133.096 172.77 133.267C173.197 133.438 173.539 133.694 173.881 133.95C174.222 134.291 174.393 134.633 174.564 134.974C174.735 135.316 174.82 135.743 174.82 136.255ZM171.575 138.731C171.916 138.731 172.258 138.645 172.514 138.56C172.856 138.475 173.112 138.218 173.368 137.962C173.624 137.706 173.795 137.45 173.881 137.109C173.966 136.767 174.051 136.511 174.051 136.17C174.051 135.828 173.966 135.487 173.881 135.145C173.795 134.804 173.539 134.547 173.368 134.291C173.112 134.035 172.856 133.864 172.514 133.779C172.173 133.694 171.916 133.608 171.575 133.608C171.233 133.608 170.891 133.694 170.635 133.779C170.294 133.864 170.037 134.121 169.781 134.291C169.525 134.547 169.354 134.804 169.269 135.145C169.183 135.487 169.098 135.743 169.098 136.17C169.098 136.511 169.183 136.853 169.269 137.109C169.354 137.45 169.61 137.706 169.867 137.962C170.123 138.218 170.379 138.389 170.721 138.56C170.891 138.731 171.233 138.731 171.575 138.731Z" fill="#EEEEEE"/>
<path d="M180.371 139.328V132.926L184.898 137.877V133.182H185.581V139.585L181.054 134.718V139.328H180.371Z" fill="#EEEEEE"/>
<path d="M193.694 135.828C194.121 135.999 194.377 136.255 194.634 136.511C194.804 136.767 194.975 137.109 194.975 137.536C194.975 138.133 194.804 138.56 194.463 138.902C194.121 139.243 193.609 139.414 193.011 139.414C192.499 139.414 192.157 139.328 191.815 139.072C191.474 138.816 191.303 138.475 191.132 138.048L191.815 137.706C191.901 138.048 192.072 138.389 192.242 138.56C192.413 138.731 192.669 138.816 193.011 138.816C193.353 138.816 193.694 138.731 193.865 138.475C194.121 138.304 194.207 137.963 194.207 137.621C194.207 137.365 194.121 137.109 193.95 136.938C193.78 136.767 193.523 136.597 193.267 136.426L192.499 136.084C192.072 135.914 191.815 135.657 191.559 135.401C191.388 135.145 191.217 134.804 191.217 134.462C191.217 134.035 191.388 133.694 191.73 133.352C192.072 133.096 192.499 132.926 193.011 132.926C193.353 132.926 193.694 133.011 193.95 133.182C194.207 133.352 194.463 133.609 194.548 133.865L193.95 134.292C193.78 134.035 193.694 133.865 193.523 133.779C193.353 133.694 193.182 133.609 192.926 133.609C192.669 133.609 192.413 133.694 192.242 133.865C192.072 134.035 191.986 134.292 191.986 134.548C191.986 134.804 192.072 134.974 192.157 135.145C192.242 135.316 192.499 135.487 192.755 135.572L193.694 135.828Z" fill="#EEEEEE"/>
<path d="M11.444 126.693C10.59 126.693 9.82135 126.522 9.13813 126.266C8.4549 125.925 7.94249 125.498 7.60087 124.986C7.25926 124.473 7.00305 123.79 7.00305 123.107C7.00305 122.937 7.00305 122.681 7.08846 122.339C7.08846 121.998 7.17386 121.656 7.17386 121.229C7.25926 120.802 7.25926 120.461 7.34466 120.034C7.43007 119.607 7.43007 119.18 7.51547 118.839L9.47974 119.095C9.39434 119.778 9.30893 120.376 9.22353 120.888C9.13813 121.4 9.05273 121.912 9.05273 122.254C9.05273 122.595 8.96732 122.937 8.96732 123.107C8.96732 123.534 9.05273 123.79 9.22353 124.132C9.39434 124.388 9.73595 124.644 10.0776 124.815C10.4192 124.986 10.8462 125.071 11.3586 125.071C11.871 125.071 12.298 124.986 12.6397 124.815C12.9813 124.644 13.2375 124.473 13.3229 124.132C13.4083 123.79 13.5791 123.534 13.5791 123.193V112.777H15.5434V123.193C15.5434 123.876 15.3726 124.473 15.0309 124.986C14.6893 125.498 14.1769 125.925 13.5791 126.181C12.9813 126.608 12.298 126.693 11.444 126.693Z" fill="#EEEEEE"/>
<path d="M52.0104 121.4V119.522C52.0104 118.583 51.8396 117.9 51.5834 117.302C51.3272 116.79 50.9002 116.363 50.3024 116.107C49.7046 115.851 49.0213 115.765 48.0819 115.765C47.4841 115.765 46.9717 115.851 46.4593 115.936C45.9468 116.022 45.6052 116.107 45.349 116.192C45.2636 116.448 45.2636 116.704 45.1782 117.046C45.0928 117.387 45.0928 117.814 45.0074 118.241C44.922 118.668 44.922 119.18 44.922 119.607C44.922 120.119 44.922 120.546 45.0074 120.973C45.0074 121.144 45.0074 121.229 45.0928 121.4H19.8989V112.777H17.9346V123.107H60.7216V121.4H52.0104ZM50.0462 121.4H46.9717C46.9717 121.229 46.8863 120.973 46.8863 120.717C46.8863 120.376 46.8009 120.034 46.8009 119.693C46.8009 119.351 46.8009 118.924 46.8863 118.583C46.8863 118.241 46.9717 117.9 46.9717 117.558C47.3133 117.473 47.6549 117.473 47.9965 117.473C48.5089 117.473 48.9359 117.558 49.1921 117.644C49.4484 117.729 49.7046 117.985 49.79 118.241C49.8754 118.497 49.9608 118.924 49.9608 119.436V121.4H50.0462Z" fill="#EEEEEE"/>
<path d="M59.7821 115.851C59.4405 115.765 59.1843 115.765 58.8427 115.765C58.3303 115.765 57.8178 115.851 57.3054 116.021C56.793 116.192 56.366 116.448 56.0244 116.875C55.6828 117.217 55.3412 117.644 55.1703 118.156C54.9141 118.668 54.8287 119.18 54.8287 119.778C54.8287 120.376 54.9141 120.888 55.1703 121.485H57.3908C57.22 121.315 57.0492 121.058 56.9638 120.802C56.793 120.461 56.7076 120.119 56.7076 119.693C56.7076 119.266 56.793 118.924 56.9638 118.583C57.1346 118.241 57.3908 117.985 57.7324 117.814C58.0741 117.644 58.4157 117.558 58.8427 117.558C59.0135 117.558 59.1843 117.558 59.4405 117.644C59.6113 117.644 59.8675 117.729 60.0383 117.814L60.6361 116.107C60.3799 116.021 60.0383 115.936 59.7821 115.851Z" fill="#EEEEEE"/>
<path d="M67.2976 112.692V113.716H63.7961V112.692H64.1377C64.1377 112.607 64.0523 112.436 64.0523 112.351C64.0523 112.009 64.1377 111.753 64.3085 111.497C64.4793 111.241 64.7355 110.985 64.9917 110.899C65.2479 110.728 65.5895 110.643 65.9312 110.643C66.102 110.643 66.2728 110.643 66.529 110.728C66.6998 110.814 66.8706 110.814 67.0414 110.985L66.529 111.838C66.4436 111.753 66.3582 111.753 66.2728 111.753C66.1874 111.753 66.102 111.753 66.0166 111.753C65.7604 111.753 65.5895 111.838 65.5041 111.924C65.4187 112.009 65.3333 112.18 65.3333 112.436C65.3333 112.521 65.3333 112.692 65.4187 112.777H67.2976V112.692Z" fill="#EEEEEE"/>
<path d="M75.3255 112.777H73.3612V123.107H75.3255V112.777Z" fill="#EEEEEE"/>
<path d="M69.0057 112.777H70.9699V123.107H62.515V121.4H64.5647V114.826H66.529V121.4H69.0057V112.777Z" fill="#EEEEEE"/>
<path d="M84.7198 126.693C83.8657 126.693 83.0971 126.522 82.4139 126.266C81.7307 125.925 81.2182 125.498 80.8766 124.986C80.535 124.473 80.2788 123.79 80.2788 123.107C80.2788 122.937 80.2788 122.681 80.3642 122.339C80.3642 121.998 80.4496 121.656 80.4496 121.229C80.4496 120.802 80.535 120.461 80.6204 120.034C80.7058 119.607 80.7058 119.18 80.7912 118.839L82.7555 119.095C82.6701 119.778 82.5847 120.376 82.4993 120.888C82.4139 121.4 82.3285 121.912 82.3285 122.254C82.3285 122.595 82.2431 122.937 82.2431 123.107C82.2431 123.534 82.3285 123.79 82.4993 124.132C82.6701 124.388 83.0117 124.644 83.3533 124.815C83.6949 124.986 84.1219 125.071 84.6344 125.071C85.1468 125.071 85.5738 124.986 85.9154 124.815C86.257 124.644 86.5132 124.473 86.5986 124.132C86.7694 123.876 86.8548 123.534 86.8548 123.193V112.777H88.8191V123.193C88.8191 123.876 88.6483 124.473 88.3067 124.986C87.9651 125.498 87.4527 125.925 86.8548 126.181C86.257 126.608 85.5738 126.693 84.7198 126.693Z" fill="#EEEEEE"/>
<path d="M132.973 117.387C132.631 116.875 132.119 116.448 131.521 116.192C130.923 115.936 130.24 115.765 129.471 115.765C129.044 115.765 128.617 115.765 128.19 115.851C127.763 115.936 127.336 116.021 126.909 116.107L127.08 117.644C127.507 117.558 127.934 117.558 128.361 117.473C128.788 117.473 129.044 117.387 129.3 117.387C130.069 117.387 130.667 117.558 131.008 117.814C131.35 118.156 131.521 118.583 131.521 119.18V121.315H124.432V112.692H122.468V121.315H97.4449V115.68H94.1141C93.2601 115.68 92.5769 115.851 92.0645 116.107C91.5521 116.363 91.125 116.79 90.8688 117.302C90.6126 117.814 90.5272 118.497 90.5272 119.351C90.5272 120.205 90.6126 120.802 90.8688 121.4C91.125 121.912 91.5521 122.339 92.0645 122.595C92.5769 122.851 93.2601 123.022 94.1141 123.022H95.4806V123.449C95.4806 123.961 95.3098 124.303 95.0536 124.559C94.712 124.815 94.1996 124.9 93.5163 124.9C93.2601 124.9 93.0039 124.9 92.6623 124.9C92.3207 124.9 91.8937 124.815 91.3813 124.729L91.125 126.266C91.5521 126.352 91.9791 126.437 92.4061 126.437C92.8331 126.522 93.1747 126.522 93.5163 126.522C94.285 126.522 94.9682 126.437 95.566 126.181C96.1638 125.925 96.5908 125.583 96.9325 125.071C97.2741 124.559 97.4449 124.046 97.4449 123.363V122.937H133.485V119.095C133.485 118.497 133.314 117.9 132.973 117.387ZM95.4806 121.4H94.1141C93.6871 121.4 93.3455 121.315 93.0893 121.229C92.8331 121.144 92.6623 120.973 92.5769 120.717C92.4915 120.461 92.4061 120.034 92.4061 119.436C92.4061 118.839 92.4915 118.412 92.5769 118.156C92.6623 117.9 92.8331 117.644 93.0893 117.558C93.3455 117.473 93.6871 117.387 94.0287 117.387H95.3952V121.4H95.4806Z" fill="#EEEEEE"/>
<path d="M144.673 128.059V129.681H146.552V128.059H144.673ZM142.025 128.059V129.681H143.904V128.059H142.025Z" fill="#EEEEEE"/>
<path d="M194.804 118.156C194.719 117.814 194.719 117.387 194.634 116.961C194.548 116.534 194.463 116.107 194.463 115.765L192.498 116.021C192.584 116.448 192.669 116.875 192.755 117.217C192.84 117.644 192.84 117.985 192.925 118.327C192.925 118.668 193.011 118.839 193.011 119.01V121.315H191.303C191.132 121.315 190.961 121.315 190.79 121.229C190.705 121.229 190.62 121.144 190.449 121.058C190.62 120.546 190.62 120.034 190.62 119.351V116.448H188.655V119.351C188.655 119.949 188.655 120.376 188.57 120.632C188.485 120.888 188.399 121.144 188.228 121.229C188.058 121.315 187.801 121.4 187.545 121.4H186.349V117.302H184.385V121.4H157.996C158.337 121.058 158.679 120.802 158.935 120.461C159.277 119.949 159.618 119.522 159.789 119.01C159.96 118.497 160.131 118.07 160.131 117.729V116.875C159.704 116.619 159.277 116.448 158.764 116.278C158.337 116.107 157.825 116.021 157.398 115.936C156.971 115.851 156.458 115.851 156.117 115.851C155.69 115.851 155.263 115.851 154.836 115.936C154.409 116.021 153.896 116.107 153.469 116.278C152.957 116.448 152.53 116.619 152.103 116.875V117.729C152.103 118.156 152.188 118.583 152.444 119.01C152.615 119.522 152.957 119.949 153.298 120.461C153.555 120.802 153.896 121.144 154.238 121.4H148.003C147.833 121.4 147.662 121.4 147.491 121.4C147.32 121.4 147.235 121.315 147.064 121.315C146.979 121.229 146.808 121.144 146.637 121.058L145.527 122.424C145.868 122.681 146.295 122.851 146.722 122.937C147.149 123.022 147.576 123.107 148.003 123.107H148.601V123.193C148.601 123.79 148.43 124.303 148.174 124.559C147.833 124.9 147.406 125.071 146.722 125.071H142.623C142.111 125.071 141.684 124.986 141.342 124.815C141 124.644 140.659 124.473 140.488 124.132C140.317 123.876 140.146 123.534 140.146 123.193C140.146 123.022 140.146 122.681 140.232 122.168C140.317 121.656 140.403 121.144 140.488 120.546L138.524 120.29C138.438 120.717 138.438 121.144 138.353 121.485C138.268 121.827 138.268 122.168 138.268 122.51C138.268 122.766 138.182 123.022 138.182 123.193C138.182 123.705 138.268 124.132 138.524 124.559C138.78 124.986 139.036 125.327 139.463 125.669C139.89 126.01 140.317 126.266 140.83 126.437C141.342 126.608 141.94 126.693 142.538 126.693H146.637C147.406 126.693 148.089 126.522 148.687 126.266C149.285 125.925 149.712 125.583 149.968 124.986C150.309 124.473 150.395 123.79 150.395 123.107V123.022H153.469C154.238 123.022 154.921 122.937 155.604 122.681C155.69 122.681 155.775 122.595 155.946 122.595C156.031 122.681 156.117 122.681 156.288 122.681C156.971 122.937 157.654 123.022 158.423 123.022H187.46C188.143 123.022 188.741 122.937 189.253 122.681C189.339 122.681 189.424 122.595 189.509 122.51C189.68 122.595 189.851 122.766 190.107 122.766C190.534 122.937 190.876 123.022 191.303 123.022H194.975V119.01C194.89 118.924 194.804 118.583 194.804 118.156ZM155.519 120.546C155.177 120.29 154.921 119.949 154.665 119.693C154.409 119.351 154.238 119.01 154.067 118.668C153.982 118.412 153.896 118.156 153.896 117.9C154.067 117.814 154.323 117.729 154.494 117.729C155.007 117.558 155.519 117.558 155.946 117.558C156.458 117.558 156.885 117.644 157.483 117.729C157.654 117.814 157.91 117.814 158.081 117.9C158.081 118.156 157.996 118.412 157.91 118.668C157.739 119.01 157.569 119.351 157.312 119.693C157.056 120.034 156.8 120.29 156.458 120.546C156.288 120.632 156.202 120.802 156.031 120.888C155.861 120.802 155.69 120.632 155.519 120.546Z" fill="#EEEEEE"/>
<path d="M100.946 39.6983C105.131 35.9419 110.682 33.7222 116.746 33.7222C119.735 33.7222 122.553 34.2345 125.201 35.2589C125.201 34.9174 125.201 34.4906 125.201 34.1491C125.201 21.0017 114.526 10.3301 101.373 10.3301C88.2214 10.3301 77.546 21.0017 77.546 34.1491C77.546 34.4052 77.546 34.6613 77.546 34.9174C79.9373 34.1491 82.4994 33.7222 85.1469 33.7222C91.2105 33.7222 96.7617 36.0273 100.946 39.6983Z" fill="#9A9A9A"/>
<path d="M125.201 35.259C124.774 45.2477 118.112 53.6996 108.974 56.773C108.974 57.0291 108.974 57.2852 108.974 57.5413C108.974 64.6273 105.9 70.9449 100.946 75.2989C105.131 79.0553 110.682 81.275 116.746 81.275C129.898 81.275 140.573 70.6034 140.573 57.456C140.573 47.382 134.168 38.6739 125.201 35.259Z" fill="#3D3D3D"/>
<path d="M93.0039 57.5413C93.0039 57.1998 93.0039 56.7729 93.0039 56.4314C84.2074 53.1019 77.973 44.8207 77.6314 34.9175C68.1516 38.0763 61.4048 46.955 61.4048 57.4559C61.4048 70.6033 72.0802 81.2749 85.2322 81.2749C91.2959 81.2749 96.8471 78.9698 101.032 75.2988C96.0784 70.9448 93.0039 64.6272 93.0039 57.5413Z" fill="#AAAAAA"/>
<path d="M116.746 33.7222C119.735 33.7222 122.553 34.2344 125.201 35.2589C124.774 45.2475 118.112 53.6994 108.974 56.7728C108.718 50.0284 105.729 43.9669 100.946 39.7836C105.217 36.0272 110.682 33.7222 116.746 33.7222ZM93.004 56.4313C93.3456 49.7723 96.3347 43.8815 100.946 39.6983C96.7617 35.9419 91.2105 33.7222 85.1469 33.7222C82.4994 33.7222 79.9373 34.149 77.546 34.9174C77.973 44.8206 84.2075 53.1018 93.004 56.4313ZM108.974 57.5412C108.974 57.2851 108.974 57.0289 108.974 56.7728C106.583 57.5412 104.021 57.968 101.373 57.968C98.3844 57.968 95.5661 57.4558 92.9186 56.4313C92.9186 56.7728 92.9186 57.1997 92.9186 57.5412C92.9186 64.6271 95.9931 70.9447 100.946 75.2987C105.9 70.9447 108.974 64.6271 108.974 57.5412Z" fill="#EEEEEE"/>
<path d="M100.946 39.6982C96.2492 43.7961 93.2601 49.7722 93.0039 56.4313C95.6514 57.4558 98.4697 57.968 101.459 57.968C104.106 57.968 106.668 57.5412 109.06 56.7728C108.718 49.943 105.729 43.9669 100.946 39.6982Z" fill="white"/>
</svg>
