<svg width="245" height="80" viewBox="0 0 245 80" fill="none" xmlns="http://www.w3.org/2000/svg">
<path d="M27.1463 36.2891C29.697 34.0125 33.0219 32.6466 36.7113 32.6466C38.4876 32.6466 40.2184 32.9653 41.8126 33.5572C41.8126 33.3295 41.8126 33.1019 41.8126 32.8742C41.8126 24.9061 35.3449 18.4861 27.4196 18.4861C19.4488 18.4861 13.0266 24.9516 13.0266 32.8742C13.0266 33.0563 13.0266 33.1929 13.0266 33.3751C14.4841 32.8742 15.9872 32.6466 17.5813 32.6466C21.2707 32.6921 24.6412 34.0581 27.1463 36.2891Z" fill="#764895"/>
<path d="M41.8126 33.6027C41.5393 39.6585 37.5311 44.7581 32.0199 46.5794C32.0199 46.7615 32.0199 46.8981 32.0199 47.0802C32.0199 51.3603 30.1525 55.185 27.1919 57.8258C29.7425 60.1024 33.0675 61.4684 36.7568 61.4684C44.7276 61.4684 51.1498 55.0484 51.1498 47.0802C51.1043 40.8879 47.2328 35.6517 41.8126 33.6027Z" fill="#280659"/>
<path d="M22.3183 47.0802C22.3183 46.8526 22.3183 46.6249 22.3183 46.3973C17.0348 44.3938 13.2088 39.3853 13.0266 33.4206C7.33315 35.3329 3.18832 40.7057 3.18832 47.0802C3.18832 55.0484 9.65607 61.4684 17.5813 61.4684C21.2251 61.4684 24.5956 60.1024 27.1463 57.8258C24.1857 55.185 22.3183 51.3603 22.3183 47.0802Z" fill="url(#paint0_linear_122_707)"/>
<path d="M36.7113 32.6921C38.4876 32.6921 40.2184 33.0108 41.8126 33.6027C41.5393 39.6585 37.5311 44.7581 32.0199 46.5794C31.8832 42.4815 30.0613 38.8389 27.1919 36.2891C29.697 34.058 33.0675 32.6921 36.7113 32.6921ZM22.3183 46.3973C22.5005 42.3904 24.3224 38.7934 27.1463 36.2891C24.5956 34.0125 21.2707 32.6465 17.5813 32.6465C15.9872 32.6465 14.4386 32.9197 13.0266 33.3751C13.2543 39.3853 17.0348 44.3938 22.3183 46.3973ZM32.0199 47.0802C32.0199 46.8981 32.0199 46.7615 32.0199 46.5794C30.5624 47.0802 29.0593 47.3079 27.4651 47.3079C25.6888 47.3079 23.958 46.9892 22.3638 46.3973C22.3638 46.6249 22.3638 46.8526 22.3638 47.0802C22.3638 51.3603 24.2313 55.185 27.1919 57.8258C30.1524 55.185 32.0199 51.3603 32.0199 47.0802Z" fill="url(#paint1_linear_122_707)"/>
<path d="M27.1463 36.2891C24.3224 38.7934 22.5005 42.3904 22.3183 46.3973C23.9124 46.9892 25.5977 47.3079 27.4196 47.3079C29.0138 47.3079 30.5624 47.0347 31.9743 46.5794C31.8377 42.4815 30.0158 38.8389 27.1463 36.2891Z" fill="white"/>
<path d="M61.7169 28.6853L62.8555 27.4104C62.9922 27.7746 63.2199 28.0478 63.5388 28.2299C63.8576 28.4121 64.222 28.5487 64.5864 28.5487C65.0418 28.5487 65.4518 28.4576 65.725 28.2299C65.9983 28.0023 66.135 27.6836 66.135 27.3193C66.135 26.864 65.6795 26.4087 64.7685 25.9533C64.4497 25.8167 64.222 25.6801 64.0398 25.5891C63.2199 25.1338 62.6278 24.724 62.309 24.3142C61.9901 23.9044 61.808 23.4035 61.808 22.8116C61.808 22.0376 62.1268 21.4001 62.7645 20.8537C63.4021 20.3529 64.1764 20.0797 65.1785 20.0797C65.7706 20.0797 66.2716 20.1707 66.6815 20.3984C67.0915 20.5805 67.4558 20.8993 67.7747 21.3546L66.5904 22.4929C66.4538 22.2197 66.2716 21.992 65.9983 21.8554C65.725 21.7188 65.4973 21.6278 65.1329 21.6278C64.723 21.6278 64.4042 21.7188 64.1764 21.9465C63.9487 22.1286 63.812 22.4018 63.812 22.7205C63.812 23.2214 64.3131 23.6767 65.2696 24.0865C65.4518 24.1776 65.6339 24.2231 65.725 24.2686C66.5449 24.6329 67.137 25.0427 67.5014 25.498C67.9113 25.9533 68.0935 26.4997 68.0935 27.0916C68.0935 28.0023 67.7747 28.6853 67.1826 29.2316C66.5904 29.778 65.7706 30.0512 64.723 30.0512C63.9942 30.0512 63.3566 29.9146 62.8555 29.687C62.3545 29.5048 61.9901 29.1406 61.7169 28.6853Z" fill="black"/>
<path d="M68.6856 29.8691L72.3294 20.3529H74.6524L78.3417 29.8691H76.0188L75.2445 27.8657H71.5096L70.8264 29.8691H68.6856ZM74.7435 26.2721L73.6959 23.1759C73.6503 23.0848 73.6048 22.9482 73.5592 22.7205C73.5137 22.4929 73.4681 22.2197 73.4226 21.901C73.377 22.2197 73.3315 22.4929 73.2404 22.7205C73.1948 22.9482 73.1493 23.1303 73.1037 23.2214L72.0562 26.2721H74.7435Z" fill="black"/>
<path d="M79.2982 29.8691V20.3529H84.9005V22.0831H81.3478V24.041H84.9005V25.7712H81.3478V28.1389H84.9005V29.8691H79.2982Z" fill="black"/>
<path d="M86.9046 29.8691V20.3529H92.507V22.0831H88.9543V24.041H92.507V25.7712H88.9543V28.1389H92.507V29.8691H86.9046Z" fill="black"/>
<path d="M98.6103 29.8691V20.3529H100.387C101.298 20.3529 101.981 20.3984 102.436 20.4439C102.892 20.4895 103.256 20.6261 103.529 20.8082C103.894 21.0359 104.167 21.309 104.395 21.6278C104.623 21.9465 104.714 22.3563 104.714 22.8116C104.714 23.358 104.531 23.8133 104.213 24.1776C103.894 24.4963 103.393 24.724 102.71 24.8606C103.484 24.9516 104.076 25.2248 104.44 25.5891C104.805 25.9533 105.033 26.4997 105.033 27.1372C105.033 27.5925 104.941 28.0478 104.714 28.4121C104.486 28.8219 104.167 29.095 103.803 29.3227C103.438 29.5048 103.028 29.6414 102.573 29.7325C102.117 29.8236 101.298 29.8691 100.204 29.8691H99.9767H98.6103ZM100.66 24.1776H101.115C101.753 24.1776 102.163 24.0865 102.436 23.9044C102.71 23.7223 102.801 23.4491 102.801 23.0393C102.801 22.6295 102.664 22.3563 102.436 22.1742C102.209 21.992 101.753 21.901 101.161 21.901H100.66V24.1776ZM100.66 28.2755H101.48C101.981 28.2755 102.391 28.1844 102.664 27.9567C102.937 27.7291 103.074 27.4104 103.074 26.955C103.074 26.5452 102.937 26.2265 102.664 26.0444C102.391 25.8167 102.026 25.7257 101.525 25.7257H100.66V28.2755Z" fill="black"/>
<path d="M114.78 20.3529V26.2721C114.78 27.547 114.461 28.5487 113.778 29.1861C113.094 29.8236 112.092 30.1423 110.68 30.1423C109.268 30.1423 108.266 29.8236 107.583 29.1861C106.9 28.5487 106.581 27.5925 106.581 26.2721V20.3529H108.585V25.9533C108.585 26.7274 108.767 27.3193 109.086 27.7291C109.405 28.1389 109.952 28.321 110.635 28.321C111.318 28.321 111.865 28.1389 112.229 27.7291C112.593 27.3193 112.776 26.7274 112.776 25.9533V20.3529H114.78Z" fill="black"/>
<path d="M116.283 28.6853L117.421 27.4104C117.558 27.7746 117.786 28.0478 118.105 28.2299C118.424 28.4121 118.788 28.5487 119.152 28.5487C119.608 28.5487 120.018 28.4576 120.291 28.2299C120.564 28.0023 120.701 27.6836 120.701 27.3193C120.701 26.864 120.245 26.4087 119.334 25.9533C119.016 25.8167 118.788 25.6801 118.606 25.5891C117.786 25.1338 117.194 24.724 116.875 24.3142C116.556 23.9044 116.374 23.4035 116.374 22.8116C116.374 22.0376 116.693 21.4001 117.33 20.8537C117.968 20.3529 118.742 20.0797 119.744 20.0797C120.336 20.0797 120.838 20.1707 121.247 20.3984C121.657 20.6261 122.022 20.8993 122.341 21.3546L121.156 22.4929C121.02 22.2197 120.838 21.992 120.564 21.8554C120.337 21.7188 120.063 21.6278 119.699 21.6278C119.289 21.6278 118.97 21.7188 118.742 21.9465C118.515 22.1286 118.378 22.4018 118.378 22.7205C118.378 23.2214 118.879 23.6767 119.835 24.0865C120.018 24.1776 120.2 24.2231 120.291 24.2686C121.111 24.6329 121.703 25.0427 122.067 25.498C122.477 25.9533 122.659 26.4997 122.659 27.0916C122.659 28.0023 122.341 28.6853 121.748 29.2316C121.156 29.778 120.336 30.0512 119.289 30.0512C118.56 30.0512 117.922 29.9146 117.421 29.687C116.92 29.5048 116.511 29.1406 116.283 28.6853Z" fill="black"/>
<path d="M124.39 29.8691V20.3529H126.44V29.8691H124.39Z" fill="black"/>
<path d="M128.581 29.8691V20.3529H130.676L134.912 25.9078C135.048 26.0444 135.185 26.2721 135.322 26.5908C135.458 26.864 135.64 27.2282 135.777 27.5925C135.732 27.3193 135.686 27.0461 135.686 26.7729C135.686 26.4997 135.64 26.1355 135.64 25.7257V20.3529H137.599V29.8691H135.595L131.268 24.2231C131.131 24.0865 130.995 23.8589 130.858 23.5401C130.721 23.2669 130.585 22.9027 130.402 22.5384C130.448 22.8116 130.494 23.0848 130.494 23.358C130.494 23.6312 130.539 23.9954 130.539 24.4052V29.8236H128.581V29.8691Z" fill="black"/>
<path d="M139.694 29.8691V20.3529H145.296V22.0831H141.744V24.041H145.296V25.7712H141.744V28.1389H145.296V29.8691H139.694Z" fill="black"/>
<path d="M146.708 28.6853L147.847 27.4104C147.984 27.7746 148.212 28.0478 148.53 28.2299C148.849 28.4121 149.214 28.5487 149.578 28.5487C150.033 28.5487 150.443 28.4576 150.717 28.2299C150.99 28.0023 151.127 27.6836 151.127 27.3193C151.127 26.864 150.671 26.4087 149.76 25.9533C149.441 25.8167 149.214 25.6801 149.031 25.5891C148.212 25.1338 147.619 24.724 147.301 24.3142C146.982 23.9044 146.8 23.4035 146.8 22.8116C146.8 22.0376 147.118 21.4001 147.756 20.8537C148.394 20.3529 149.168 20.0797 150.17 20.0797C150.762 20.0797 151.263 20.1707 151.673 20.3984C152.083 20.5805 152.447 20.8993 152.766 21.3546L151.582 22.4929C151.445 22.2197 151.263 21.992 150.99 21.8554C150.762 21.7188 150.489 21.6278 150.125 21.6278C149.715 21.6278 149.396 21.7188 149.168 21.9465C148.94 22.1286 148.804 22.4018 148.804 22.7205C148.804 23.2214 149.305 23.6767 150.261 24.0865C150.443 24.1776 150.626 24.2231 150.717 24.2686C151.537 24.6329 152.129 25.0427 152.493 25.498C152.903 25.9533 153.085 26.4997 153.085 27.0916C153.085 28.0023 152.766 28.6853 152.174 29.2316C151.582 29.778 150.762 30.0512 149.715 30.0512C148.986 30.0512 148.348 29.9146 147.847 29.687C147.346 29.5048 146.936 29.1406 146.708 28.6853Z" fill="black"/>
<path d="M154.178 28.6853L155.317 27.4104C155.454 27.7746 155.681 28.0478 156 28.2299C156.319 28.4121 156.683 28.5487 157.048 28.5487C157.503 28.5487 157.913 28.4576 158.186 28.2299C158.46 28.0023 158.596 27.6836 158.596 27.3193C158.596 26.864 158.141 26.4087 157.23 25.9533C156.911 25.8167 156.683 25.6801 156.501 25.5891C155.681 25.1338 155.089 24.724 154.77 24.3142C154.452 23.9044 154.269 23.4035 154.269 22.8116C154.269 22.0376 154.588 21.4001 155.226 20.8537C155.864 20.3529 156.638 20.0797 157.64 20.0797C158.232 20.0797 158.733 20.1707 159.143 20.3984C159.553 20.6261 159.917 20.8993 160.236 21.3546L159.052 22.4929C158.915 22.2197 158.733 21.992 158.46 21.8554C158.186 21.7188 157.959 21.6278 157.594 21.6278C157.184 21.6278 156.866 21.7188 156.638 21.9465C156.41 22.1286 156.273 22.4018 156.273 22.7205C156.273 23.2214 156.774 23.6767 157.731 24.0865C157.913 24.1776 158.095 24.2231 158.186 24.2686C159.006 24.6329 159.598 25.0427 159.963 25.498C160.373 25.9533 160.555 26.4997 160.555 27.0916C160.555 28.0023 160.236 28.6853 159.644 29.2316C159.052 29.778 158.232 30.0512 157.184 30.0512C156.456 30.0512 155.818 29.9146 155.317 29.687C154.816 29.5048 154.406 29.1406 154.178 28.6853Z" fill="black"/>
<path d="M165.747 28.6853L166.886 27.4104C167.023 27.7746 167.25 28.0478 167.569 28.2299C167.888 28.4121 168.252 28.5487 168.617 28.5487C169.072 28.5487 169.482 28.4576 169.756 28.2299C170.029 28.0023 170.165 27.6836 170.165 27.3193C170.165 26.864 169.71 26.4087 168.799 25.9533C168.48 25.8167 168.252 25.6801 168.07 25.5891C167.25 25.1338 166.658 24.724 166.339 24.3142C166.021 23.9044 165.838 23.4035 165.838 22.8116C165.838 22.0376 166.157 21.4001 166.795 20.8537C167.433 20.3529 168.207 20.0797 169.209 20.0797C169.801 20.0797 170.302 20.1707 170.712 20.3984C171.122 20.5805 171.486 20.8993 171.805 21.3546L170.621 22.4929C170.484 22.2197 170.302 21.992 170.029 21.8554C169.801 21.7188 169.528 21.6278 169.163 21.6278C168.753 21.6278 168.435 21.7188 168.207 21.9465C167.979 22.1286 167.843 22.4018 167.843 22.7205C167.843 23.2214 168.344 23.6767 169.3 24.0865C169.482 24.1776 169.664 24.2231 169.756 24.2686C170.575 24.6329 171.167 25.0427 171.532 25.498C171.942 25.9533 172.124 26.4997 172.124 27.0916C172.124 28.0023 171.805 28.6853 171.213 29.2316C170.621 29.778 169.801 30.0512 168.753 30.0512C168.025 30.0512 167.387 29.9146 166.886 29.687C166.385 29.5048 165.975 29.1406 165.747 28.6853Z" fill="black"/>
<path d="M183.556 25.1338C183.556 25.8167 183.42 26.4542 183.192 27.0461C182.919 27.638 182.554 28.1844 182.099 28.6397C181.598 29.095 181.051 29.4593 180.414 29.7325C179.776 30.0057 179.138 30.0968 178.501 30.0968C177.909 30.0968 177.362 30.0057 176.77 29.778C176.223 29.5959 175.722 29.2772 175.221 28.9129C174.629 28.4576 174.174 27.8657 173.855 27.1827C173.536 26.4997 173.354 25.8167 173.354 25.0427C173.354 24.3597 173.49 23.7223 173.718 23.1303C173.946 22.5384 174.356 21.992 174.811 21.5367C175.267 21.0814 175.859 20.7171 176.497 20.4439C177.134 20.1707 177.772 20.0797 178.455 20.0797C179.138 20.0797 179.776 20.2163 180.414 20.4439C181.051 20.6716 181.598 21.0814 182.099 21.5367C182.6 21.992 182.964 22.5384 183.192 23.1303C183.42 23.8133 183.556 24.4508 183.556 25.1338ZM178.501 28.321C179.366 28.321 180.095 28.0023 180.641 27.4104C181.188 26.8184 181.507 26.0444 181.507 25.1338C181.507 24.2231 181.233 23.4946 180.641 22.8571C180.095 22.2197 179.366 21.9465 178.501 21.9465C177.635 21.9465 176.906 22.2652 176.36 22.8571C175.813 23.4491 175.494 24.2231 175.494 25.1338C175.494 26.0444 175.768 26.8184 176.314 27.4104C176.861 28.0023 177.59 28.321 178.501 28.321Z" fill="black"/>
<path d="M185.287 29.8691V20.3529H187.337V28.1389H190.571V29.8691H185.287Z" fill="black"/>
<path d="M199.817 20.3529V26.2721C199.817 27.547 199.498 28.5487 198.815 29.1861C198.132 29.8236 197.13 30.1423 195.718 30.1423C194.306 30.1423 193.304 29.8236 192.62 29.1861C191.937 28.5487 191.618 27.5925 191.618 26.2721V20.3529H193.622V25.9533C193.622 26.7274 193.805 27.3193 194.123 27.7291C194.442 28.1389 194.989 28.321 195.672 28.321C196.355 28.321 196.902 28.1389 197.266 27.7291C197.631 27.3193 197.813 26.7274 197.813 25.9533V20.3529H199.817Z" fill="black"/>
<path d="M205.465 22.0831V29.8691H203.415V22.0831H201.092V20.3529H207.788V22.0831H205.465Z" fill="black"/>
<path d="M209.2 29.8691V20.3529H211.249V29.8691H209.2Z" fill="black"/>
<path d="M223.137 25.1338C223.137 25.8167 223.001 26.4542 222.773 27.0461C222.5 27.638 222.135 28.1844 221.68 28.6397C221.179 29.095 220.632 29.4593 219.994 29.7325C219.357 30.0057 218.719 30.0968 218.081 30.0968C217.489 30.0968 216.943 30.0057 216.351 29.778C215.759 29.5504 215.303 29.2772 214.802 28.9129C214.21 28.4576 213.754 27.8657 213.436 27.1827C213.117 26.4997 212.935 25.8167 212.935 25.0427C212.935 24.3597 213.071 23.7223 213.299 23.1303C213.527 22.5384 213.937 21.992 214.392 21.5367C214.848 21.0814 215.44 20.7171 216.077 20.4439C216.715 20.1707 217.353 20.0797 218.036 20.0797C218.719 20.0797 219.357 20.2163 219.994 20.4439C220.632 20.6716 221.179 21.0814 221.68 21.5367C222.181 21.992 222.545 22.5384 222.773 23.1303C223.001 23.8133 223.137 24.4508 223.137 25.1338ZM218.081 28.321C218.947 28.321 219.676 28.0023 220.222 27.4104C220.769 26.8184 221.088 26.0444 221.088 25.1338C221.088 24.2231 220.814 23.4946 220.222 22.8571C219.676 22.2197 218.947 21.9465 218.081 21.9465C217.216 21.9465 216.487 22.2652 215.941 22.8571C215.394 23.4491 215.075 24.2231 215.075 25.1338C215.075 26.0444 215.349 26.8184 215.895 27.4104C216.442 28.0023 217.17 28.321 218.081 28.321Z" fill="black"/>
<path d="M224.868 29.8691V20.3529H226.963L231.199 25.9078C231.336 26.0444 231.472 26.2721 231.609 26.5908C231.746 26.864 231.928 27.2282 232.064 27.5925C232.019 27.3193 231.973 27.0461 231.973 26.7729C231.973 26.4997 231.928 26.1355 231.928 25.7257V20.3529H233.886V29.8691H231.882L227.555 24.2231C227.419 24.0865 227.282 23.8589 227.145 23.5401C227.009 23.2669 226.872 22.9027 226.69 22.5384C226.735 22.8116 226.781 23.0848 226.781 23.358C226.781 23.6312 226.827 23.9954 226.827 24.4052V29.8236H224.868V29.8691Z" fill="black"/>
<path d="M235.389 28.6853L236.528 27.4104C236.665 27.7746 236.893 28.0478 237.211 28.2299C237.53 28.4121 237.895 28.5487 238.259 28.5487C238.714 28.5487 239.124 28.4576 239.398 28.2299C239.671 28.0023 239.808 27.6836 239.808 27.3193C239.808 26.864 239.352 26.4087 238.441 25.9533C238.122 25.8167 237.895 25.6801 237.712 25.5891C236.893 25.1338 236.3 24.724 235.982 24.3142C235.663 23.9044 235.481 23.4035 235.481 22.8116C235.481 22.0376 235.799 21.4001 236.437 20.8537C237.075 20.3529 237.849 20.0797 238.851 20.0797C239.443 20.0797 239.944 20.1707 240.354 20.3984C240.764 20.6261 241.128 20.8993 241.447 21.3546L240.263 22.4929C240.126 22.2197 239.944 21.992 239.671 21.8554C239.443 21.7188 239.17 21.6278 238.806 21.6278C238.396 21.6278 238.077 21.7188 237.849 21.9465C237.621 22.1286 237.485 22.4018 237.485 22.7205C237.485 23.2214 237.986 23.6767 238.942 24.0865C239.124 24.1776 239.307 24.2231 239.398 24.2686C240.217 24.6329 240.81 25.0427 241.174 25.498C241.584 25.9533 241.766 26.4997 241.766 27.0916C241.766 28.0023 241.447 28.6853 240.855 29.2316C240.263 29.778 239.443 30.0512 238.396 30.0512C237.667 30.0512 237.029 29.9146 236.528 29.687C236.027 29.4593 235.617 29.1406 235.389 28.6853Z" fill="black"/>
<path d="M61.808 59.6471V53.7279H64.9507V54.3654H62.5367V56.0501H64.9507V56.6875H62.5367V58.9641H64.9507V59.6016H61.808V59.6471Z" fill="black"/>
<path d="M73.0127 59.8748L71.1908 55.5948L70.462 59.6016H69.7788L70.963 53.4547L73.0582 58.3722L75.1534 53.4547L76.3376 59.6016H75.6089L74.8346 55.5948L73.0127 59.8748Z" fill="black"/>
<path d="M82.0311 56.9607V59.6016H81.3478V53.6824H82.5776C83.0331 53.6824 83.3519 53.7279 83.5341 53.7735C83.7619 53.819 83.8985 53.9101 84.0807 54.0011C84.2629 54.1377 84.3995 54.3199 84.5362 54.5475C84.6273 54.7752 84.7184 55.0484 84.7184 55.3216C84.7184 55.5948 84.6728 55.8679 84.5362 56.0956C84.4451 56.3233 84.2629 56.5054 84.0807 56.642C83.944 56.7331 83.7619 56.8241 83.5341 56.8697C83.3519 56.9152 82.9875 56.9607 82.5776 56.9607H82.3954H82.0311ZM82.0311 56.3233H82.3954C82.9875 56.3233 83.3975 56.2322 83.6252 56.0956C83.853 55.959 83.944 55.6858 83.944 55.3671C83.944 55.0028 83.853 54.7296 83.6252 54.5475C83.3975 54.4109 82.9875 54.3199 82.3954 54.3199H82.0311V56.3233Z" fill="black"/>
<path d="M95.7864 56.6875C95.7864 57.0973 95.6953 57.5071 95.5586 57.8714C95.422 58.2356 95.1943 58.5999 94.8754 58.8731C94.5566 59.1463 94.2378 59.3739 93.8278 59.5561C93.4179 59.6927 93.0535 59.7837 92.5981 59.7837C92.1881 59.7837 91.7782 59.6927 91.3683 59.5561C90.9583 59.4195 90.6395 59.1918 90.3207 58.8731C90.0018 58.5999 89.7741 58.2356 89.6375 57.8714C89.5008 57.5071 89.4097 57.0973 89.4097 56.6875C89.4097 56.2777 89.5008 55.8679 89.6375 55.5037C89.7741 55.1394 90.0474 54.7752 90.3207 54.502C90.6395 54.2288 90.9583 54.0011 91.3683 53.819C91.7782 53.6824 92.1426 53.5913 92.5981 53.5913C93.008 53.5913 93.4179 53.6824 93.8278 53.819C94.2378 53.9556 94.5566 54.1833 94.8754 54.502C95.1943 54.7752 95.422 55.1394 95.5586 55.5037C95.6953 55.8679 95.7864 56.2777 95.7864 56.6875ZM92.5981 59.1463C92.9169 59.1463 93.2357 59.1007 93.509 58.9641C93.7823 58.8275 94.0556 58.6454 94.2833 58.4178C94.511 58.1901 94.6932 57.9169 94.8299 57.6437C94.9665 57.3705 95.0121 57.0518 95.0121 56.6875C95.0121 56.3688 94.9665 56.0501 94.8299 55.7314C94.6932 55.4126 94.511 55.185 94.2833 54.9573C94.0556 54.7296 93.7823 54.5475 93.509 54.4109C93.2357 54.2743 92.9169 54.2288 92.5981 54.2288C92.2792 54.2288 91.9604 54.2743 91.6416 54.4109C91.3683 54.5475 91.095 54.7296 90.8672 54.9573C90.6395 55.185 90.4573 55.4582 90.3207 55.7769C90.184 56.0956 90.1385 56.3688 90.1385 56.7331C90.1385 57.0518 90.184 57.3705 90.3207 57.6437C90.4573 57.9169 90.6395 58.1901 90.8672 58.4178C91.095 58.6454 91.3683 58.8275 91.6416 58.9641C91.9604 59.0552 92.2792 59.1463 92.5981 59.1463Z" fill="black"/>
<path d="M100.296 53.7279H101.07L102.573 58.099L104.122 53.5003L105.716 58.099L107.219 53.7279H107.993L105.716 59.8748L104.167 55.276L102.619 59.8748L100.296 53.7279Z" fill="black"/>
<path d="M112.776 59.6471V53.7279H115.918V54.3654H113.504V56.0501H115.918V56.6875H113.504V58.9641H115.918V59.6016H112.776V59.6471Z" fill="black"/>
<path d="M121.247 59.6471V53.7279H122.659C123.069 53.7279 123.343 53.7279 123.525 53.7735C123.707 53.819 123.889 53.9101 124.026 54.0011C124.208 54.1377 124.345 54.3199 124.436 54.5475C124.527 54.7752 124.572 55.0484 124.572 55.3216C124.572 55.8224 124.436 56.1867 124.162 56.4143C123.889 56.6875 123.479 56.7786 122.978 56.7786H122.842L125.119 59.6016H124.208L122.067 56.7786H121.976V59.6016H121.247V59.6471ZM121.931 54.3199V56.3233H122.477C123.024 56.3233 123.388 56.2322 123.57 56.0956C123.753 55.959 123.844 55.6858 123.844 55.3671C123.844 55.0028 123.753 54.7296 123.57 54.5475C123.388 54.4109 123.024 54.3199 122.477 54.3199H121.931Z" fill="black"/>
<path d="M129.856 59.6471V53.7279H130.539V59.6471H129.856Z" fill="black"/>
<path d="M136.141 59.6471V53.5003L140.468 58.2356V53.7279H141.152V59.8748L136.825 55.185V59.6471H136.141Z" fill="black"/>
<path d="M149.942 56.5965H152.402V56.7786C152.402 57.7348 152.129 58.4633 151.628 59.0097C151.127 59.5561 150.398 59.8292 149.441 59.8292C149.168 59.8292 148.895 59.7837 148.667 59.7382C148.394 59.6926 148.166 59.6016 147.984 59.465C147.483 59.1918 147.118 58.8275 146.845 58.3722C146.572 57.9169 146.435 57.3705 146.435 56.7786C146.435 56.2777 146.526 55.8224 146.663 55.4582C146.8 55.0484 147.073 54.7296 147.392 54.4109C147.665 54.1377 147.984 53.9556 148.303 53.819C148.621 53.6824 149.031 53.6369 149.487 53.6369C150.079 53.6369 150.534 53.7279 150.99 53.9556C151.4 54.1833 151.764 54.4564 152.038 54.8662L151.445 55.3216C151.218 54.9573 150.944 54.6841 150.626 54.502C150.307 54.3199 149.942 54.2288 149.532 54.2288C148.849 54.2288 148.303 54.4564 147.847 54.9118C147.437 55.3671 147.209 56.0045 147.209 56.7331C147.209 57.4616 147.437 58.008 147.847 58.4633C148.303 58.9186 148.849 59.1463 149.532 59.1463C150.125 59.1463 150.626 58.9641 151.035 58.5999C151.445 58.2356 151.628 57.7803 151.673 57.1884H149.988V56.5965H149.942Z" fill="black"/>
<path d="M166.339 56.3688C166.704 56.5509 167.023 56.7331 167.205 57.0063C167.387 57.2794 167.478 57.5982 167.478 57.9624C167.478 58.5088 167.296 58.9641 166.977 59.2829C166.613 59.6016 166.157 59.7837 165.611 59.7837C165.155 59.7837 164.745 59.6471 164.426 59.4195C164.108 59.1918 163.88 58.8275 163.789 58.4178L164.426 58.099C164.518 58.4633 164.654 58.7365 164.836 58.9186C165.019 59.1007 165.292 59.1918 165.565 59.1918C165.93 59.1918 166.203 59.1007 166.431 58.8731C166.658 58.6909 166.749 58.4177 166.749 58.099C166.749 57.8258 166.658 57.5982 166.522 57.416C166.385 57.2339 166.157 57.0518 165.838 56.9152L165.11 56.5965C164.7 56.4143 164.426 56.2322 164.244 55.959C164.062 55.6858 163.971 55.3671 163.971 55.0484C163.971 54.6386 164.108 54.2743 164.426 54.0011C164.745 53.7279 165.155 53.5913 165.611 53.5913C165.975 53.5913 166.294 53.6824 166.522 53.819C166.795 53.9556 166.977 54.1833 167.114 54.502L166.522 54.8662C166.385 54.6386 166.248 54.4565 166.066 54.3654C165.884 54.2743 165.702 54.1833 165.52 54.1833C165.246 54.1833 165.019 54.2743 164.882 54.4109C164.7 54.593 164.609 54.7752 164.609 55.0484C164.609 55.276 164.654 55.4582 164.791 55.5948C164.927 55.7314 165.11 55.8679 165.383 56.0045L166.339 56.3688Z" fill="black"/>
<path d="M178.637 56.6875C178.637 57.0973 178.546 57.5071 178.41 57.8714C178.273 58.2356 178.045 58.5999 177.726 58.8731C177.407 59.1463 177.089 59.3739 176.679 59.5561C176.269 59.6927 175.904 59.7837 175.449 59.7837C175.039 59.7837 174.629 59.6927 174.219 59.5561C173.809 59.4195 173.49 59.1918 173.172 58.8731C172.853 58.5999 172.625 58.2356 172.488 57.8714C172.352 57.5071 172.261 57.0973 172.261 56.6875C172.261 56.2777 172.352 55.8679 172.488 55.5037C172.625 55.1394 172.898 54.7752 173.172 54.502C173.49 54.2288 173.809 54.0011 174.219 53.819C174.629 53.6824 174.993 53.5913 175.449 53.5913C175.859 53.5913 176.269 53.6824 176.679 53.819C177.089 53.9556 177.407 54.1833 177.726 54.502C178.045 54.7752 178.273 55.1394 178.41 55.5037C178.546 55.8679 178.637 56.2777 178.637 56.6875ZM175.494 59.1463C175.813 59.1463 176.132 59.1007 176.405 58.9641C176.679 58.8275 176.952 58.6454 177.18 58.4178C177.407 58.1901 177.59 57.9169 177.726 57.6437C177.863 57.3705 177.909 57.0518 177.909 56.6875C177.909 56.3688 177.863 56.0501 177.726 55.7314C177.59 55.4126 177.407 55.185 177.18 54.9573C176.952 54.7296 176.679 54.5475 176.405 54.4109C176.132 54.2743 175.813 54.2288 175.494 54.2288C175.176 54.2288 174.857 54.2743 174.538 54.4109C174.219 54.5475 173.991 54.7296 173.764 54.9573C173.536 55.185 173.354 55.4582 173.217 55.7769C173.08 56.0956 173.035 56.3688 173.035 56.7331C173.035 57.0518 173.08 57.3705 173.217 57.6437C173.354 57.9169 173.536 58.1901 173.764 58.4178C173.991 58.6454 174.265 58.8275 174.538 58.9641C174.857 59.0552 175.13 59.1463 175.494 59.1463Z" fill="black"/>
<path d="M183.921 59.6471V53.7279H184.604V58.9641H186.836V59.6471H183.921Z" fill="black"/>
<path d="M191.709 53.7279H192.438V57.416C192.438 58.008 192.575 58.4633 192.803 58.7365C193.076 59.0097 193.44 59.1463 193.987 59.1463C194.533 59.1463 194.943 59.0097 195.171 58.7365C195.444 58.4633 195.535 58.008 195.535 57.416V53.7279H196.264V57.416C196.264 58.2356 196.082 58.8275 195.672 59.2373C195.308 59.6471 194.716 59.8292 193.941 59.8292C193.167 59.8292 192.62 59.6471 192.21 59.2373C191.846 58.8275 191.618 58.2356 191.618 57.416V53.7279H191.709Z" fill="black"/>
<path d="M202.869 59.6471V54.4109H201.183V53.7279H205.237V54.4109H203.597V59.6471H202.869Z" fill="black"/>
<path d="M210.202 59.6471V53.7279H210.885V59.6471H210.202Z" fill="black"/>
<path d="M222.545 56.6875C222.545 57.0973 222.454 57.5071 222.317 57.8714C222.181 58.2356 221.953 58.5999 221.634 58.8731C221.315 59.1463 220.996 59.3739 220.587 59.5561C220.177 59.6927 219.812 59.7837 219.357 59.7837C218.947 59.7837 218.537 59.6927 218.127 59.5561C217.717 59.4195 217.398 59.1918 217.079 58.8731C216.761 58.5999 216.533 58.2356 216.396 57.8714C216.26 57.5071 216.168 57.0973 216.168 56.6875C216.168 56.2777 216.26 55.8679 216.396 55.5037C216.533 55.1394 216.806 54.7752 217.079 54.502C217.398 54.2288 217.717 54.0011 218.127 53.819C218.537 53.6824 218.901 53.5913 219.357 53.5913C219.767 53.5913 220.177 53.6824 220.587 53.819C220.996 53.9556 221.315 54.1833 221.634 54.502C221.953 54.7752 222.181 55.1394 222.317 55.5037C222.454 55.8679 222.545 56.2777 222.545 56.6875ZM219.357 59.1463C219.676 59.1463 219.994 59.1007 220.268 58.9641C220.541 58.8275 220.814 58.6454 221.042 58.4178C221.27 58.1901 221.452 57.9169 221.589 57.6437C221.725 57.3705 221.771 57.0518 221.771 56.6875C221.771 56.3688 221.725 56.0501 221.589 55.7314C221.452 55.4126 221.27 55.185 221.042 54.9573C220.814 54.7296 220.541 54.5475 220.268 54.4109C219.994 54.2743 219.676 54.2288 219.357 54.2288C219.038 54.2288 218.719 54.2743 218.4 54.4109C218.081 54.5475 217.854 54.7296 217.626 54.9573C217.398 55.185 217.216 55.4582 217.079 55.7769C216.943 56.0956 216.897 56.3688 216.897 56.7331C216.897 57.0518 216.943 57.3705 217.079 57.6437C217.216 57.9169 217.398 58.1901 217.626 58.4178C217.854 58.6454 218.127 58.8275 218.4 58.9641C218.719 59.0552 219.038 59.1463 219.357 59.1463Z" fill="black"/>
<path d="M227.829 59.6471V53.5003L232.156 58.2356V53.7279H232.839V59.8748L228.512 55.185V59.6471H227.829Z" fill="black"/>
<path d="M240.582 56.3688C240.946 56.5509 241.265 56.7331 241.447 57.0063C241.629 57.2794 241.721 57.5982 241.721 57.9624C241.721 58.5088 241.538 58.9641 241.22 59.2829C240.855 59.6016 240.4 59.7837 239.853 59.7837C239.398 59.7837 238.988 59.6471 238.669 59.4195C238.35 59.1918 238.122 58.8275 238.031 58.4178L238.669 58.099C238.76 58.4633 238.897 58.7365 239.079 58.9186C239.261 59.1007 239.534 59.1918 239.808 59.1918C240.172 59.1918 240.445 59.1007 240.673 58.8731C240.901 58.6909 240.992 58.4177 240.992 58.099C240.992 57.8258 240.901 57.5982 240.764 57.416C240.627 57.2339 240.4 57.0518 240.081 56.9152L239.352 56.5965C238.942 56.4143 238.669 56.2322 238.487 55.959C238.304 55.6858 238.213 55.3671 238.213 55.0484C238.213 54.6386 238.35 54.2743 238.669 54.0011C238.988 53.7279 239.398 53.5913 239.853 53.5913C240.217 53.5913 240.536 53.6824 240.764 53.819C241.037 53.9556 241.22 54.1833 241.356 54.502L240.764 54.8662C240.627 54.6386 240.491 54.4565 240.309 54.3654C240.126 54.2743 239.944 54.1833 239.762 54.1833C239.489 54.1833 239.261 54.2743 239.124 54.4109C238.942 54.593 238.851 54.7752 238.851 55.0484C238.851 55.276 238.897 55.4582 239.033 55.5948C239.17 55.7314 239.352 55.8679 239.625 56.0045L240.582 56.3688Z" fill="black"/>
<path d="M65.9983 47.5811C65.1785 47.5811 64.4497 47.4445 63.8121 47.1258C63.1744 46.8526 62.6734 46.4428 62.309 45.8964C61.9446 45.3956 61.7624 44.8036 61.7624 44.1207C61.7624 43.9385 61.7624 43.7109 61.808 43.3921C61.8535 43.0734 61.8535 42.7547 61.9446 42.3449C61.9902 41.9806 62.0357 41.5709 62.1268 41.1611C62.1723 40.7513 62.2634 40.387 62.309 40.0228L64.1309 40.2959C64.0398 40.9334 63.9487 41.4798 63.8576 42.0262C63.7665 42.527 63.721 42.9823 63.6754 43.3466C63.6299 43.7109 63.6299 43.9841 63.6299 44.1207C63.6299 44.4849 63.721 44.8036 63.9032 45.0768C64.0853 45.35 64.3586 45.5777 64.723 45.7143C65.0874 45.8509 65.4973 45.9419 65.9983 45.9419C66.4994 45.9419 66.9093 45.8509 67.2281 45.7143C67.547 45.5777 67.7747 45.35 67.9113 45.1224C68.048 44.8492 68.1391 44.576 68.1391 44.2572V34.2857H70.0065V44.2572C70.0065 44.9402 69.8243 45.5321 69.5055 46.033C69.1411 46.5339 68.6856 46.9436 68.0935 47.2168C67.4559 47.4445 66.7726 47.5811 65.9983 47.5811Z" fill="black"/>
<path d="M104.85 42.527V40.7057C104.85 39.8406 104.714 39.1121 104.44 38.6113C104.167 38.1104 103.757 37.7006 103.211 37.473C102.664 37.2453 101.981 37.1087 101.115 37.1087C100.523 37.1087 100.022 37.1542 99.5213 37.2453C99.0658 37.3364 98.7014 37.4274 98.4737 37.473C98.4282 37.7006 98.3371 37.9738 98.2915 38.3381C98.246 38.7023 98.1549 39.0666 98.1093 39.5219C98.0638 39.9772 98.0182 40.387 98.0182 40.8879C98.0182 41.3432 98.0182 41.7985 98.0638 42.2083C98.0638 42.3449 98.1093 42.4815 98.1093 42.5726H74.0147V34.2857H72.1472V44.1662H113.186V42.5726H104.85V42.527ZM102.983 42.527H100.068C100.022 42.3449 100.022 42.1172 99.9768 41.8896C99.9312 41.5253 99.9312 41.2066 99.9312 40.8879C99.9312 40.5236 99.9312 40.1594 99.9768 39.7951C100.022 39.4308 100.068 39.1121 100.113 38.8389C100.432 38.7934 100.797 38.7934 101.115 38.7934C101.616 38.7934 101.981 38.8389 102.254 38.9755C102.527 39.1121 102.71 39.2942 102.846 39.5674C102.937 39.8406 103.028 40.2504 103.028 40.7513V42.527H102.983Z" fill="black"/>
<path d="M112.275 37.1998C111.956 37.1542 111.682 37.1087 111.409 37.1087C110.908 37.1087 110.407 37.1998 109.906 37.3819C109.451 37.564 109.041 37.8372 108.676 38.1559C108.312 38.4747 108.039 38.8845 107.856 39.3398C107.629 39.7951 107.538 40.296 107.538 40.8423C107.538 41.3887 107.674 41.9351 107.902 42.436C107.902 42.436 107.902 42.436 107.902 42.4815H109.997C109.815 42.2994 109.678 42.0717 109.587 41.844C109.451 41.5253 109.36 41.1611 109.36 40.7968C109.36 40.387 109.451 40.0228 109.633 39.704C109.815 39.3853 110.043 39.1576 110.362 38.9755C110.68 38.7934 111.045 38.7023 111.455 38.7023C111.637 38.7023 111.819 38.7023 112.001 38.7479C112.183 38.7934 112.366 38.8389 112.593 38.8845L113.14 37.3819C112.867 37.3364 112.593 37.2908 112.275 37.1998Z" fill="black"/>
<path d="M119.517 34.1491V35.1508H116.146V34.1491H116.51C116.465 34.058 116.465 33.9214 116.465 33.8304C116.465 33.5117 116.556 33.2385 116.738 32.9653C116.92 32.6921 117.103 32.5099 117.376 32.3734C117.649 32.2368 117.922 32.1457 118.287 32.1457C118.469 32.1457 118.651 32.1457 118.833 32.1912C119.016 32.2368 119.152 32.3278 119.289 32.4189L118.833 33.284C118.742 33.2385 118.651 33.1929 118.606 33.1929C118.515 33.1929 118.423 33.1929 118.378 33.1929C118.15 33.1929 117.968 33.2385 117.877 33.3751C117.74 33.5117 117.695 33.6483 117.695 33.8304C117.695 33.9214 117.695 34.058 117.786 34.1491C117.786 34.1491 117.786 34.1491 117.786 34.1946H119.517V34.1491Z" fill="black"/>
<path d="M127.123 34.2857H125.256V44.1662H127.123V34.2857Z" fill="black"/>
<path d="M121.156 34.2857H123.024V44.1207H114.962V42.527H116.875V36.2436H118.742V42.527H121.156V34.2857Z" fill="black"/>
<path d="M136.187 47.5811C135.367 47.5811 134.638 47.4445 134.001 47.1258C133.363 46.8526 132.862 46.4428 132.498 45.8964C132.133 45.3956 131.951 44.8036 131.951 44.1207C131.951 43.9385 131.951 43.7109 131.997 43.3921C132.042 43.0734 132.042 42.7547 132.133 42.3449C132.179 41.9806 132.224 41.5709 132.315 41.1611C132.361 40.7513 132.452 40.387 132.498 40.0228L134.32 40.2959C134.228 40.9334 134.137 41.4798 134.046 42.0262C133.955 42.527 133.91 42.9823 133.864 43.3466C133.819 43.7109 133.819 43.9841 133.819 44.1207C133.819 44.4849 133.91 44.8036 134.092 45.0768C134.274 45.35 134.547 45.5777 134.912 45.7143C135.276 45.8509 135.686 45.9419 136.187 45.9419C136.688 45.9419 137.098 45.8509 137.417 45.7143C137.736 45.5777 137.963 45.35 138.1 45.1224C138.237 44.8492 138.328 44.576 138.328 44.2572V34.2857H140.195V44.2572C140.195 44.9402 140.013 45.5321 139.694 46.033C139.33 46.5339 138.874 46.9436 138.282 47.2168C137.645 47.4445 136.961 47.5811 136.187 47.5811Z" fill="black"/>
<path d="M182.372 38.6568C182.053 38.1559 181.598 37.7917 181.006 37.5185C180.414 37.2453 179.776 37.1087 179.002 37.1087C178.592 37.1087 178.182 37.1542 177.772 37.1998C177.362 37.2453 176.952 37.3364 176.542 37.4274L176.724 38.93C177.18 38.8845 177.544 38.7934 177.954 38.7934C178.318 38.7479 178.637 38.7479 178.82 38.7479C179.548 38.7479 180.14 38.8845 180.459 39.1576C180.824 39.4308 180.96 39.8862 180.96 40.4325V42.4815H174.128V34.2857H172.261V42.527H148.303V37.1542H145.16C144.386 37.1542 143.702 37.2908 143.201 37.564C142.7 37.8372 142.29 38.247 142.063 38.7479C141.835 39.2942 141.698 39.9317 141.698 40.7057C141.698 41.4798 141.835 42.1172 142.063 42.6636C142.29 43.1645 142.7 43.5743 143.201 43.8019C143.702 44.0296 144.34 44.1662 145.16 44.1662H146.435V44.576C146.435 45.0768 146.299 45.4411 145.98 45.6687C145.706 45.8964 145.205 46.033 144.522 46.033C144.295 46.033 144.021 46.033 143.702 45.9875C143.384 45.9419 142.974 45.8964 142.518 45.8509L142.245 47.3534C142.655 47.4445 143.065 47.49 143.429 47.5356C143.793 47.5811 144.158 47.6266 144.522 47.6266C145.297 47.6266 145.934 47.49 146.526 47.2624C147.073 47.0347 147.528 46.6705 147.847 46.2151C148.166 45.7598 148.303 45.2134 148.303 44.576V44.1662H182.828V40.4781C182.873 39.7496 182.691 39.1576 182.372 38.6568ZM146.481 42.527H145.205C144.796 42.527 144.477 42.4815 144.249 42.3904C144.021 42.2994 143.839 42.1172 143.748 41.8896C143.657 41.6164 143.611 41.2066 143.611 40.7057C143.611 40.1594 143.657 39.7496 143.793 39.4764C143.885 39.2032 144.067 39.021 144.295 38.93C144.522 38.8389 144.841 38.7934 145.205 38.7934H146.481V42.527Z" fill="black"/>
<path d="M193.622 48.856V50.4496H195.444V48.856H193.622ZM191.072 48.856V50.4496H192.894V48.856H191.072Z" fill="black"/>
<path d="M241.63 39.4308C241.584 39.0666 241.538 38.6568 241.493 38.247C241.447 37.8372 241.356 37.473 241.311 37.1087L239.489 37.3819C239.58 37.7917 239.625 38.1559 239.716 38.5657C239.762 38.93 239.808 39.2942 239.853 39.613C239.899 39.9317 239.899 40.1594 239.899 40.296V42.527H238.213C238.031 42.527 237.849 42.4815 237.712 42.436C237.621 42.3904 237.53 42.3449 237.439 42.2538C237.576 41.7985 237.621 41.2521 237.621 40.6147V37.8827H235.754V40.6147C235.754 41.1611 235.708 41.5709 235.663 41.844C235.617 42.1172 235.481 42.2994 235.344 42.3904C235.207 42.4815 234.98 42.527 234.661 42.527H233.522V38.5657H231.655V42.527H206.33C206.649 42.2538 206.968 41.9351 207.241 41.6164C207.606 41.1611 207.879 40.7057 208.061 40.2504C208.243 39.7951 208.334 39.3853 208.334 38.9755V38.2015C207.924 37.9738 207.514 37.7917 207.059 37.6551C206.603 37.5185 206.148 37.3819 205.693 37.3364C205.237 37.2453 204.827 37.1998 204.417 37.1998C204.053 37.1998 203.597 37.2453 203.187 37.3364C202.732 37.4274 202.276 37.5185 201.821 37.6551C201.366 37.7917 200.956 37.9738 200.546 38.2015V38.9755C200.546 39.3398 200.637 39.7951 200.819 40.2504C201.001 40.7057 201.274 41.1611 201.684 41.6164C201.958 41.9351 202.231 42.2538 202.595 42.527H196.674C196.492 42.527 196.31 42.527 196.173 42.4815C196.036 42.4815 195.9 42.436 195.763 42.3904C195.627 42.3449 195.535 42.2538 195.353 42.1628L194.306 43.4832C194.67 43.7109 195.034 43.893 195.444 43.9841C195.854 44.0751 196.264 44.1207 196.674 44.1207H197.266V44.1662C197.266 44.7581 197.13 45.2134 196.811 45.4866C196.492 45.8053 196.082 45.9419 195.444 45.9419H191.482C190.981 45.9419 190.571 45.8509 190.206 45.7143C189.842 45.5777 189.569 45.35 189.387 45.0768C189.204 44.8036 189.113 44.4849 189.113 44.1662C189.113 43.9841 189.159 43.6653 189.204 43.21C189.25 42.7547 189.341 42.2538 189.432 41.6619L187.61 41.4343C187.565 41.844 187.474 42.2083 187.428 42.5726C187.382 42.9368 187.337 43.2555 187.291 43.5287C187.246 43.8019 187.246 44.0296 187.246 44.2117C187.246 44.7126 187.337 45.1224 187.565 45.5777C187.792 45.9875 188.066 46.3517 188.476 46.6705C188.84 46.9892 189.295 47.2168 189.842 47.399C190.343 47.5811 190.935 47.6722 191.527 47.6722H195.49C196.264 47.6722 196.902 47.5356 197.448 47.2168C197.995 46.8981 198.405 46.5339 198.724 46.033C198.997 45.5322 199.179 44.9402 199.179 44.2573V44.2117H202.14C202.869 44.2117 203.552 44.0751 204.189 43.8475C204.281 43.8019 204.372 43.7564 204.463 43.7109C204.554 43.7564 204.645 43.8019 204.736 43.8475C205.374 44.0751 206.057 44.2117 206.786 44.2117H234.615C235.298 44.2117 235.845 44.0751 236.3 43.8475C236.392 43.8019 236.437 43.7564 236.528 43.7109C236.71 43.8019 236.893 43.9385 237.075 43.9841C237.439 44.1207 237.849 44.2117 238.213 44.2117H241.721V40.387C241.721 40.0683 241.675 39.7951 241.63 39.4308ZM204.053 41.6619C203.734 41.3887 203.461 41.1155 203.233 40.7968C203.005 40.4781 202.823 40.1594 202.686 39.8406C202.595 39.5674 202.504 39.3398 202.504 39.1121C202.686 39.0211 202.869 38.9755 203.096 38.93C203.597 38.7934 204.098 38.7479 204.508 38.7479C204.964 38.7479 205.419 38.7934 205.966 38.93C206.148 38.9755 206.33 39.0211 206.558 39.1121C206.558 39.3398 206.467 39.613 206.376 39.8406C206.239 40.1594 206.057 40.4781 205.829 40.7968C205.601 41.1155 205.328 41.3887 205.009 41.6619C204.873 41.753 204.736 41.8896 204.554 41.9806C204.326 41.8896 204.189 41.7985 204.053 41.6619Z" fill="black"/>
<defs>
<linearGradient id="paint0_linear_122_707" x1="3.21315" y1="47.4376" x2="27.1633" y2="47.4376" gradientUnits="userSpaceOnUse">
<stop offset="0.236" stop-color="#9A9A9A"/>
<stop offset="1" stop-color="#3D3D3D"/>
</linearGradient>
<linearGradient id="paint1_linear_122_707" x1="36.9742" y1="28.7738" x2="17.5258" y2="48.2286" gradientUnits="userSpaceOnUse">
<stop offset="0.00561798" stop-color="#9CA6AA"/>
<stop offset="0.2753" stop-color="white"/>
<stop offset="0.6742" stop-color="#CBD0D2"/>
<stop offset="1" stop-color="#B7BEC1"/>
</linearGradient>
</defs>
</svg>
