<svg width="1144" height="976" viewBox="0 0 1144 976" fill="none" xmlns="http://www.w3.org/2000/svg">
<path d="M915.274 332.163C992.099 332.163 1054.6 269.663 1054.6 192.838C1054.6 116.014 992.099 53.5117 915.274 53.5117C838.45 53.5117 775.949 116.014 775.949 192.838C775.949 269.663 838.45 332.163 915.274 332.163ZM915.274 55.3653C991.076 55.3653 1052.75 117.035 1052.75 192.838C1052.75 268.64 991.076 330.309 915.274 330.309C839.472 330.309 777.803 268.64 777.803 192.838C777.803 117.035 839.472 55.3653 915.274 55.3653Z" fill="#280659"/>
<path d="M915.275 348.639C920.672 348.639 926.117 348.358 931.458 347.807C931.968 347.756 932.337 347.3 932.284 346.79C932.233 346.281 931.779 345.902 931.267 345.964C923.174 346.799 914.847 346.996 906.739 346.552C906.241 346.512 905.793 346.917 905.764 347.427C905.735 347.939 906.128 348.375 906.637 348.403C909.49 348.559 912.396 348.639 915.275 348.639ZM836.44 327.101C836.756 327.101 837.064 326.939 837.237 326.647C837.497 326.206 837.354 325.638 836.913 325.378C833.404 323.298 829.938 321.054 826.613 318.706C826.201 318.412 825.619 318.509 825.322 318.928C825.027 319.346 825.125 319.925 825.545 320.22C828.91 322.597 832.416 324.868 835.967 326.972C836.116 327.06 836.278 327.101 836.44 327.101ZM790.863 286.017C791.057 286.017 791.251 285.957 791.415 285.834C791.827 285.528 791.912 284.948 791.607 284.538C771.798 257.869 761.328 226.16 761.328 192.838C761.328 189.631 761.427 186.402 761.621 183.246C761.653 182.735 761.265 182.295 760.752 182.263C760.234 182.262 759.801 182.622 759.772 183.132C759.575 186.327 759.475 189.592 759.475 192.838C759.475 226.561 770.072 258.652 790.12 285.642C790.3 285.887 790.582 286.017 790.863 286.017ZM1050.49 269.34C1050.82 269.34 1051.13 269.169 1051.3 268.866C1064.24 245.764 1071.08 219.476 1071.08 192.838C1071.08 186.176 1070.65 179.467 1069.81 172.899C1069.75 172.391 1069.31 172.023 1068.78 172.096C1068.27 172.162 1067.91 172.625 1067.98 173.132C1068.8 179.623 1069.22 186.254 1069.22 192.838C1069.22 219.158 1062.47 245.135 1049.68 267.96C1049.43 268.407 1049.59 268.972 1050.04 269.222C1050.18 269.302 1050.34 269.34 1050.49 269.34ZM771.488 136.114C771.854 136.114 772.203 135.894 772.349 135.533C784.542 105.148 806.653 78.9243 834.61 61.6909C835.046 61.4226 835.181 60.8516 834.913 60.4161C834.645 59.9777 834.074 59.8464 833.638 60.1131C805.346 77.5521 782.967 104.092 770.627 134.842C770.436 135.318 770.667 135.856 771.142 136.048C771.257 136.093 771.374 136.114 771.488 136.114ZM1054.94 126.754C1055.08 126.754 1055.21 126.724 1055.34 126.662C1055.8 126.44 1056 125.886 1055.77 125.426C1053.99 121.713 1052.03 118.018 1049.95 114.446C1049.69 114.001 1049.13 113.854 1048.68 114.111C1048.24 114.369 1048.09 114.936 1048.35 115.378C1050.4 118.909 1052.34 122.56 1054.11 126.228C1054.27 126.56 1054.59 126.754 1054.94 126.754ZM998.211 62.9442C998.516 62.9442 998.817 62.7915 998.994 62.5141C999.268 62.0823 999.141 61.5101 998.708 61.2351C991.733 56.8051 984.349 52.9031 976.766 49.6405C976.294 49.4374 975.752 49.6554 975.547 50.1256C975.345 50.5954 975.563 51.1415 976.033 51.343C983.526 54.5676 990.822 58.4226 997.714 62.7997C997.868 62.8984 998.041 62.9442 998.211 62.9442Z" fill="#280659"/>
<path d="M251.741 264.248C312.917 264.248 362.686 214.479 362.686 153.304C362.686 92.129 312.917 42.3594 251.741 42.3594C190.565 42.3594 140.796 92.129 140.796 153.304C140.796 214.479 190.565 264.248 251.741 264.248ZM251.741 44.5782C311.694 44.5782 360.467 93.3533 360.467 153.304C360.467 213.255 311.693 262.03 251.741 262.03C191.788 262.03 143.015 213.255 143.015 153.304C143.015 93.3528 191.788 44.5782 251.741 44.5782Z" fill="#280659"/>
<path d="M242.496 282.315C243.075 282.315 243.561 281.869 243.603 281.284C243.647 280.674 243.186 280.143 242.576 280.1C237.716 279.755 232.827 279.122 228.049 278.221C227.43 278.107 226.867 278.506 226.752 279.106C226.638 279.707 227.036 280.287 227.636 280.401C232.499 281.319 237.474 281.961 242.417 282.312C242.445 282.314 242.471 282.315 242.496 282.315ZM326.206 258.817C326.432 258.817 326.654 258.751 326.851 258.611C334.935 252.834 342.363 246.119 348.924 238.652C349.328 238.191 349.284 237.49 348.823 237.086C348.365 236.681 347.662 236.726 347.258 237.187C340.809 244.526 333.508 251.127 325.561 256.805C325.062 257.161 324.947 257.854 325.304 258.353C325.52 258.655 325.859 258.817 326.206 258.817ZM174.283 256.615C174.616 256.615 174.947 256.463 175.166 256.176C175.535 255.688 175.439 254.992 174.953 254.622C142.966 230.34 124.619 193.41 124.619 153.304C124.619 152.692 124.124 152.194 123.51 152.194C122.897 152.194 122.401 152.692 122.401 153.304C122.401 194.111 141.066 231.684 173.612 256.389C173.812 256.542 174.047 256.615 174.283 256.615ZM123.717 147.014C124.302 147.014 124.791 146.558 124.823 145.968C125.383 136.181 127.067 126.486 129.833 117.152C130.004 116.566 129.671 115.948 129.082 115.774C128.498 115.595 127.878 115.934 127.703 116.523C124.89 126.019 123.177 135.884 122.61 145.841C122.575 146.453 123.043 146.978 123.653 147.012C123.675 147.014 123.697 147.014 123.717 147.014ZM352.827 75.5112C353.066 75.5112 353.307 75.4346 353.511 75.276C353.994 74.8975 354.08 74.2014 353.701 73.7187C328.988 42.1005 291.826 23.9663 251.74 23.9648L249.893 23.9777C249.283 23.9861 248.794 24.4895 248.8 25.1017C248.809 25.7089 249.302 26.1965 249.909 26.1965C249.912 26.1965 249.919 26.1965 249.925 26.1965L251.739 26.1837C291.139 26.1852 327.665 44.0096 351.952 75.0858C352.172 75.3644 352.5 75.5112 352.827 75.5112ZM180.316 47.9043C180.529 47.9043 180.745 47.8425 180.935 47.715C184.979 44.9977 189.222 42.4878 193.545 40.2561C194.088 39.975 194.301 39.3075 194.022 38.7621C193.739 38.2166 193.065 38.0057 192.528 38.2853C188.128 40.5551 183.812 43.1094 179.695 45.8747C179.187 46.2165 179.053 46.9048 179.393 47.4127C179.61 47.7328 179.959 47.9043 180.316 47.9043Z" fill="#280659"/>
<path d="M233.537 950.744C323.773 950.744 397.188 877.332 397.188 787.093C397.188 696.855 323.772 623.441 233.537 623.441C143.301 623.441 69.8852 696.855 69.8852 787.093C69.8852 877.332 143.301 950.744 233.537 950.744ZM233.537 627.669C321.44 627.669 392.96 699.186 392.96 787.093C392.96 875 321.441 946.517 233.537 946.517C145.633 946.517 74.1131 875 74.1131 787.093C74.1131 699.186 145.632 627.669 233.537 627.669Z" fill="#280659"/>
<path d="M271.962 975.893C272.101 975.893 272.24 975.877 272.386 975.85C281.671 973.945 290.89 971.331 299.787 968.073C300.884 967.673 301.447 966.458 301.047 965.363C300.647 964.263 299.436 963.703 298.334 964.106C289.636 967.289 280.617 969.848 271.538 971.707C270.393 971.943 269.654 973.058 269.891 974.203C270.096 975.202 270.974 975.893 271.962 975.893ZM161.375 965.632C162.205 965.632 162.998 965.139 163.332 964.318C163.774 963.24 163.259 962.004 162.175 961.562C91.0499 932.443 45.0899 863.961 45.0899 787.096C45.0899 785.93 44.1457 784.983 42.9764 784.983C41.8071 784.983 40.8629 785.931 40.8629 787.096C40.8629 865.684 87.8518 935.702 160.577 965.475C160.836 965.58 161.109 965.632 161.375 965.632ZM413.681 851.499C414.559 851.499 415.376 850.951 415.68 850.075C421.882 832.138 425.382 813.364 426.079 794.276C426.121 793.11 425.207 792.132 424.043 792.089C422.771 791.869 421.893 792.956 421.851 794.125C421.172 812.792 417.751 831.151 411.681 848.694C411.3 849.797 411.887 851.002 412.99 851.384C413.22 851.462 413.45 851.499 413.681 851.499ZM47.6205 747.157C48.5902 747.157 49.4619 746.49 49.6794 745.506C66.3362 671.604 127.717 613.608 202.428 601.201C203.579 601.01 204.36 599.924 204.166 598.772C203.979 597.619 202.852 596.824 201.737 597.033C125.348 609.719 62.5808 669.014 45.5606 744.579C45.2999 745.717 46.0144 746.847 47.1536 747.105C47.3117 747.139 47.4689 747.157 47.6205 747.157Z" fill="#280659"/>
<path d="M926.763 935.259C1019 935.259 1094.04 860.219 1094.04 767.981C1094.04 675.746 1019 600.705 926.763 600.705C834.525 600.705 759.485 675.745 759.485 767.981C759.485 860.219 834.525 935.259 926.763 935.259ZM926.763 603.794C1017.29 603.794 1090.95 677.447 1090.95 767.981C1090.95 858.515 1017.29 932.17 926.763 932.17C836.23 932.17 762.575 858.515 762.575 767.981C762.575 677.447 836.229 603.794 926.763 603.794Z" fill="#280659"/>
<path d="M895.316 957.393C896.059 957.393 896.714 956.858 896.838 956.103C896.98 955.26 896.409 954.465 895.568 954.327C888.868 953.211 882.167 951.72 875.653 949.892C874.839 949.653 873.984 950.14 873.75 950.963C873.52 951.784 873.998 952.636 874.821 952.866C881.442 954.723 888.253 956.238 895.064 957.371C895.148 957.386 895.232 957.393 895.316 957.393ZM1015.16 938.261C1015.4 938.261 1015.65 938.203 1015.88 938.084C1028.11 931.666 1039.68 923.893 1050.27 914.982C1050.92 914.433 1051 913.46 1050.45 912.807C1049.9 912.154 1048.93 912.07 1048.28 912.618C1037.86 921.387 1026.47 929.035 1014.44 935.349C1013.69 935.745 1013.39 936.678 1013.79 937.433C1014.07 937.96 1014.61 938.261 1015.16 938.261ZM803.167 914.428C803.6 914.428 804.034 914.244 804.339 913.885C804.892 913.237 804.817 912.263 804.172 911.708C762.031 875.728 737.863 823.342 737.863 767.985C737.863 767.132 737.173 766.44 736.319 766.44C735.464 766.44 734.774 767.133 734.774 767.985C734.774 824.248 759.336 877.489 802.162 914.057C802.455 914.305 802.813 914.428 803.167 914.428ZM1100.31 691.009C1100.53 691.009 1100.74 690.964 1100.95 690.871C1101.73 690.519 1102.07 689.603 1101.72 688.826C1078.45 637.472 1034.11 599.08 980.065 583.493C979.216 583.268 978.388 583.732 978.153 584.551C977.914 585.37 978.388 586.226 979.207 586.463C1032.38 601.798 1076.01 639.573 1098.91 690.101C1099.17 690.672 1099.72 691.009 1100.31 691.009ZM755.003 687.161C755.579 687.161 756.132 686.837 756.397 686.284C762.27 674.048 769.51 662.404 777.906 651.676C778.433 651.006 778.313 650.034 777.64 649.508C776.963 648.99 775.998 649.101 775.472 649.774C766.94 660.676 759.584 672.51 753.609 684.948C753.242 685.716 753.565 686.638 754.335 687.009C754.552 687.112 754.778 687.161 755.003 687.161ZM877.968 585.397C878.096 585.397 878.229 585.382 878.363 585.346C884.908 583.615 891.63 582.224 898.343 581.21C899.189 581.082 899.769 580.296 899.64 579.453C899.516 578.61 898.764 578.035 897.883 578.157C891.059 579.189 884.226 580.602 877.574 582.359C876.752 582.578 876.256 583.423 876.476 584.247C876.658 584.939 877.282 585.397 877.968 585.397Z" fill="#280659"/>
<path d="M542.889 332.174C612.13 332.174 668.26 388.304 668.26 457.544C668.26 526.785 612.131 582.915 542.889 582.915C473.65 582.915 417.519 526.785 417.519 457.544C417.519 388.305 473.65 332.174 542.889 332.174Z" fill="white"/>
<path d="M542.892 584.46C612.874 584.46 669.805 527.525 669.805 457.544C669.805 387.562 612.874 330.629 542.892 330.629C472.91 330.629 415.976 387.562 415.976 457.544C415.976 527.525 472.91 584.46 542.892 584.46ZM542.892 333.718C611.17 333.718 666.715 389.266 666.715 457.544C666.715 525.824 611.17 581.371 542.892 581.371C474.614 581.371 419.065 525.824 419.065 457.544C419.065 389.266 474.614 333.718 542.892 333.718Z" fill="#280659"/>
<path d="M528.715 454.294C518.318 449.096 511.245 438.397 511.245 426.066C511.245 408.597 525.451 394.393 542.919 394.393C560.329 394.393 574.533 408.597 574.533 426.066C574.533 438.397 567.46 449.096 557.124 454.294C580.758 460.52 598.168 482.1 598.168 507.729C598.168 525.017 487.612 525.017 487.612 507.729C487.612 482.1 505.08 460.52 528.715 454.294Z" fill="#764895"/>
<path d="M983.817 42.9258C999.555 42.9258 1012.31 55.6834 1012.31 71.4211C1012.31 87.1589 999.555 99.9165 983.817 99.9165C968.08 99.9165 955.322 87.1589 955.322 71.4211C955.322 55.6834 968.08 42.9258 983.817 42.9258Z" fill="white"/>
<path d="M983.815 100.843C1000.04 100.843 1013.24 87.6439 1013.24 71.4214C1013.24 55.1969 1000.04 41.998 983.815 41.998C967.593 41.998 954.395 55.1969 954.395 71.4214C954.395 87.6439 967.592 100.843 983.815 100.843ZM983.815 43.852C999.018 43.852 1011.38 56.2195 1011.38 71.421C1011.38 86.6225 999.018 98.9888 983.815 98.9888C968.615 98.9888 956.249 86.6225 956.249 71.421C956.249 56.2195 968.615 43.852 983.815 43.852Z" fill="#280659"/>
<path d="M980.596 70.6834C978.233 69.5019 976.626 67.0703 976.626 64.2676C976.626 60.2971 979.854 57.0684 983.825 57.0684C987.782 57.0684 991.011 60.2971 991.011 64.2676C991.011 67.0703 989.403 69.5019 987.054 70.6834C992.426 72.0985 996.383 77.0033 996.383 82.8287C996.383 86.758 971.254 86.758 971.254 82.8287C971.254 77.0029 975.224 72.0981 980.596 70.6834Z" fill="#735D93"/>
<path d="M1046.71 226.674C1062.45 226.674 1075.2 239.431 1075.2 255.169C1075.2 270.907 1062.45 283.665 1046.71 283.665C1030.97 283.665 1018.21 270.907 1018.21 255.169C1018.21 239.431 1030.97 226.674 1046.71 226.674Z" fill="white"/>
<path d="M1046.71 284.595C1062.93 284.595 1076.13 271.395 1076.13 255.172C1076.13 238.949 1062.93 225.75 1046.71 225.75C1030.48 225.75 1017.29 238.949 1017.29 255.172C1017.29 271.396 1030.48 284.595 1046.71 284.595ZM1046.71 227.604C1061.91 227.604 1074.27 239.97 1074.27 255.172C1074.27 270.373 1061.91 282.741 1046.71 282.741C1031.51 282.741 1019.14 270.373 1019.14 255.172C1019.14 239.97 1031.51 227.604 1046.71 227.604Z" fill="#280659"/>
<path d="M1043.49 254.431C1041.12 253.25 1039.51 250.818 1039.51 248.016C1039.51 244.045 1042.74 240.816 1046.71 240.816C1050.67 240.816 1053.9 244.045 1053.9 248.016C1053.9 250.818 1052.29 253.25 1049.94 254.431C1055.31 255.847 1059.27 260.751 1059.27 266.577C1059.27 270.506 1034.14 270.506 1034.14 266.577C1034.14 260.751 1038.11 255.847 1043.49 254.431Z" fill="#BCB2CC"/>
<path d="M783.761 113.822C799.498 113.822 812.256 126.58 812.256 142.318C812.256 158.055 799.498 170.813 783.761 170.813C768.023 170.813 755.265 158.055 755.265 142.318C755.265 126.58 768.023 113.822 783.761 113.822Z" fill="white"/>
<path d="M783.762 171.743C799.984 171.743 813.182 158.544 813.182 142.32C813.182 126.097 799.984 112.898 783.762 112.898C767.539 112.898 754.338 126.097 754.338 142.32C754.338 158.544 767.539 171.743 783.762 171.743ZM783.762 114.752C798.961 114.752 811.328 127.119 811.328 142.32C811.328 157.522 798.962 169.889 783.762 169.889C768.558 169.889 756.192 157.522 756.192 142.32C756.192 127.119 768.558 114.752 783.762 114.752Z" fill="#280659"/>
<path d="M780.54 141.58C778.177 140.399 776.569 137.967 776.569 135.164C776.569 131.194 779.798 127.965 783.768 127.965C787.725 127.965 790.954 131.194 790.954 135.164C790.954 137.967 789.347 140.398 786.997 141.58C792.369 142.995 796.326 147.9 796.326 153.725C796.326 157.654 771.198 157.654 771.198 153.725C771.197 147.9 775.168 142.995 780.54 141.58Z" fill="#472B59"/>
<path d="M867.237 287.375C882.975 287.375 895.732 300.133 895.732 315.87C895.732 331.608 882.975 344.366 867.237 344.366C851.5 344.366 838.742 331.608 838.742 315.87C838.742 300.133 851.5 287.375 867.237 287.375Z" fill="white"/>
<path d="M867.237 345.292C883.46 345.292 896.66 332.093 896.66 315.87C896.66 299.646 883.46 286.447 867.237 286.447C851.014 286.447 837.814 299.646 837.814 315.87C837.814 332.093 851.014 345.292 867.237 345.292ZM867.237 288.302C882.44 288.302 894.806 300.669 894.806 315.871C894.806 331.072 882.44 343.438 867.237 343.438C852.034 343.438 839.668 331.072 839.668 315.871C839.667 300.669 852.034 288.302 867.237 288.302Z" fill="#280659"/>
<path d="M864.015 315.133C861.651 313.951 860.044 311.52 860.044 308.717C860.044 304.746 863.272 301.518 867.243 301.518C871.2 301.518 874.429 304.746 874.429 308.717C874.429 311.52 872.821 313.951 870.472 315.133C875.844 316.548 879.801 321.453 879.801 327.278C879.801 331.207 854.672 331.207 854.672 327.278C854.672 321.453 858.643 316.548 864.015 315.133Z" fill="#818181"/>
<path d="M227.841 1.10938C246.675 1.10938 261.943 16.378 261.943 35.2122C261.943 54.0465 246.675 69.3151 227.841 69.3151C209.006 69.3151 193.738 54.0465 193.738 35.2122C193.737 16.378 209.006 1.10938 227.841 1.10938Z" fill="white"/>
<path d="M227.841 70.4245C247.257 70.4245 263.051 54.6283 263.051 35.213C263.051 15.7963 247.256 0 227.841 0C208.426 0 192.628 15.7963 192.628 35.213C192.628 54.6283 208.425 70.4245 227.841 70.4245ZM227.841 2.21836C246.032 2.21836 260.832 17.02 260.832 35.2125C260.832 53.4055 246.033 68.2052 227.841 68.2052C209.646 68.2052 194.847 53.4055 194.847 35.2125C194.847 17.02 209.646 2.21836 227.841 2.21836Z" fill="#280659"/>
<path d="M223.984 34.328C221.156 32.9135 219.232 30.0034 219.232 26.6492C219.232 21.8973 223.096 18.0332 227.848 18.0332C232.584 18.0332 236.448 21.8973 236.448 26.6492C236.448 30.0034 234.524 32.9135 231.713 34.328C238.141 36.0216 242.877 41.8916 242.877 48.8629C242.877 53.5654 212.804 53.5654 212.804 48.8629C212.803 41.8911 217.555 36.0211 223.984 34.328Z" fill="#A8A8A8"/>
<path d="M137.751 147.045C156.586 147.045 171.854 162.314 171.854 181.148C171.854 199.982 156.585 215.251 137.751 215.251C118.916 215.251 103.648 199.982 103.648 181.148C103.648 162.314 118.917 147.045 137.751 147.045Z" fill="white"/>
<path d="M137.751 216.362C157.166 216.362 172.961 200.566 172.961 181.149C172.961 161.734 157.166 145.938 137.751 145.938C118.336 145.938 102.538 161.734 102.538 181.149C102.538 200.566 118.336 216.362 137.751 216.362ZM137.751 148.156C155.942 148.156 170.743 162.956 170.743 181.15C170.743 199.342 155.943 214.144 137.751 214.144C119.556 214.144 104.757 199.342 104.757 181.15C104.757 162.956 119.556 148.156 137.751 148.156Z" fill="#280659"/>
<path d="M133.895 180.265C131.067 178.851 129.143 175.941 129.143 172.587C129.143 167.835 133.007 163.971 137.759 163.971C142.495 163.971 146.358 167.835 146.358 172.587C146.358 175.941 144.434 178.851 141.623 180.265C148.051 181.959 152.787 187.829 152.787 194.801C152.787 199.503 122.714 199.503 122.714 194.801C122.714 187.829 127.466 181.959 133.895 180.265Z" fill="#280659"/>
<path d="M363.329 119.209C382.164 119.209 397.432 134.477 397.432 153.312C397.432 172.146 382.164 187.415 363.329 187.415C344.495 187.415 329.226 172.147 329.226 153.312C329.226 134.478 344.495 119.209 363.329 119.209Z" fill="white"/>
<path d="M363.33 188.526C382.745 188.526 398.543 172.73 398.543 153.315C398.543 133.898 382.745 118.102 363.33 118.102C343.915 118.102 328.117 133.898 328.117 153.315C328.117 172.73 343.915 188.526 363.33 188.526ZM363.33 120.32C381.525 120.32 396.325 135.122 396.325 153.314C396.325 171.507 381.525 186.307 363.33 186.307C345.136 186.307 330.336 171.507 330.336 153.314C330.336 135.122 345.136 120.32 363.33 120.32Z" fill="#280659"/>
<path d="M359.475 152.427C356.647 151.013 354.722 148.103 354.722 144.749C354.722 139.997 358.586 136.133 363.338 136.133C368.074 136.133 371.938 139.997 371.938 144.749C371.938 148.103 370.014 151.013 367.203 152.427C373.632 154.121 378.367 159.991 378.367 166.962C378.367 171.665 348.294 171.665 348.294 166.962C348.294 159.991 353.046 154.121 359.475 152.427Z" fill="#BCB2CC"/>
<path d="M67.0955 757.193C102.985 757.193 132.078 786.287 132.078 822.176C132.078 858.064 102.985 887.158 67.0955 887.158C31.207 887.158 2.11299 858.065 2.11299 822.176C2.11299 786.287 31.2061 757.193 67.0955 757.193Z" fill="white"/>
<path d="M67.0971 889.275C104.093 889.275 134.189 859.176 134.189 822.18C134.189 785.182 104.093 755.082 67.0971 755.082C30.1015 755.082 -0.00088501 785.182 -0.00088501 822.18C6.10352e-05 859.176 30.1024 889.275 67.0971 889.275ZM67.0971 759.309C101.761 759.309 129.962 787.514 129.962 822.179C129.962 856.846 101.762 885.047 67.0971 885.047C32.4278 885.047 4.22708 856.847 4.22708 822.179C4.22708 787.514 32.4278 759.309 67.0971 759.309Z" fill="#280659"/>
<path d="M59.7465 820.49C54.3568 817.796 50.6908 812.25 50.6908 805.859C50.6908 796.804 58.0538 789.441 67.1085 789.441C76.1322 789.441 83.4951 796.804 83.4951 805.859C83.4951 812.25 79.8292 817.796 74.4724 820.49C86.7224 823.717 95.7461 834.902 95.7461 848.187C95.7461 857.149 38.4418 857.149 38.4418 848.187C38.4418 834.902 47.4956 823.717 59.7465 820.49Z" fill="#D5C6DE"/>
<path d="M364.035 825.66C399.925 825.66 429.018 854.754 429.018 890.643C429.018 926.531 399.924 955.625 364.035 955.625C328.146 955.625 299.052 926.531 299.052 890.643C299.052 854.754 328.147 825.66 364.035 825.66Z" fill="white"/>
<path d="M364.037 957.743C401.032 957.743 431.129 927.642 431.129 890.648C431.129 853.649 401.032 823.549 364.037 823.549C327.041 823.549 296.938 853.649 296.938 890.648C296.938 927.642 327.042 957.743 364.037 957.743ZM364.037 827.777C398.7 827.777 426.901 855.98 426.901 890.648C426.901 925.314 398.7 953.515 364.037 953.515C329.367 953.515 301.167 925.314 301.167 890.648C301.167 855.98 329.367 827.777 364.037 827.777Z" fill="#280659"/>
<path d="M356.688 888.96C351.299 886.264 347.632 880.719 347.632 874.328C347.632 865.273 354.995 857.91 364.05 857.91C373.074 857.91 380.437 865.273 380.437 874.328C380.437 880.719 376.771 886.264 371.414 888.96C383.664 892.187 392.688 903.372 392.688 916.656C392.688 925.617 335.383 925.617 335.383 916.656C335.382 903.372 344.437 892.187 356.688 888.96Z" fill="#B59CC6"/>
<path d="M1094.11 738.816C1120.33 738.816 1141.59 760.074 1141.59 786.298C1141.59 812.52 1120.33 833.779 1094.11 833.779C1067.88 833.779 1046.62 812.52 1046.62 786.298C1046.62 760.075 1067.88 738.816 1094.11 738.816Z" fill="white"/>
<path d="M1094.1 835.324C1121.13 835.324 1143.13 813.331 1143.13 786.298C1143.13 759.266 1121.13 737.273 1094.1 737.273C1067.07 737.273 1045.08 759.266 1045.08 786.298C1045.08 813.331 1067.07 835.324 1094.1 835.324ZM1094.1 740.362C1119.43 740.362 1140.04 760.967 1140.04 786.297C1140.04 811.627 1119.43 832.235 1094.1 832.235C1068.77 832.235 1048.17 811.627 1048.17 786.297C1048.17 760.968 1068.77 740.362 1094.1 740.362Z" fill="#280659"/>
<path d="M1088.74 785.068C1084.8 783.099 1082.12 779.047 1082.12 774.377C1082.12 767.761 1087.5 762.381 1094.11 762.381C1100.71 762.381 1106.09 767.761 1106.09 774.377C1106.09 779.047 1103.41 783.099 1099.5 785.068C1108.45 787.426 1115.04 795.598 1115.04 805.304C1115.04 811.852 1073.17 811.852 1073.17 805.304C1073.17 795.598 1079.78 787.426 1088.74 785.068Z" fill="#9E8FB4"/>
<path d="M850.299 869.373C876.523 869.373 897.779 890.631 897.779 916.854C897.779 943.076 876.522 964.334 850.299 964.334C824.076 964.334 802.818 943.076 802.818 916.854C802.818 890.631 824.077 869.373 850.299 869.373Z" fill="white"/>
<path d="M850.3 965.879C877.332 965.879 899.322 943.886 899.322 916.855C899.322 889.821 877.332 867.828 850.3 867.828C823.269 867.828 801.274 889.821 801.274 916.855C801.274 943.886 823.269 965.879 850.3 965.879ZM850.3 870.917C875.628 870.917 896.233 891.526 896.233 916.855C896.233 942.184 875.628 962.79 850.3 962.79C824.968 962.79 804.363 942.184 804.363 916.855C804.363 891.525 824.968 870.917 850.3 870.917Z" fill="#280659"/>
<path d="M844.929 915.624C840.991 913.656 838.313 909.603 838.313 904.933C838.313 898.317 843.693 892.938 850.309 892.938C856.902 892.938 862.282 898.317 862.282 904.933C862.282 909.603 859.603 913.655 855.688 915.624C864.639 917.982 871.232 926.155 871.232 935.861C871.232 942.408 829.362 942.408 829.362 935.861C829.361 926.155 835.977 917.982 844.929 915.624Z" fill="#B5B5B5"/>
<path d="M871.261 554.572C897.485 554.572 918.742 575.83 918.742 602.053C918.742 628.276 897.485 649.534 871.261 649.534C845.039 649.534 823.781 628.276 823.781 602.053C823.781 575.83 845.039 554.572 871.261 554.572Z" fill="white"/>
<path d="M871.263 651.078C898.294 651.078 920.289 629.085 920.289 602.054C920.289 575.02 898.294 553.027 871.263 553.027C844.231 553.027 822.236 575.02 822.236 602.054C822.236 629.085 844.231 651.078 871.263 651.078ZM871.263 556.117C896.594 556.117 917.2 576.725 917.2 602.054C917.2 627.384 896.594 647.989 871.263 647.989C845.93 647.989 825.325 627.384 825.325 602.054C825.325 576.724 845.93 556.117 871.263 556.117Z" fill="#280659"/>
<path d="M865.894 600.824C861.956 598.855 859.278 594.803 859.278 590.133C859.278 583.517 864.657 578.137 871.273 578.137C877.867 578.137 883.247 583.517 883.247 590.133C883.247 594.803 880.568 598.855 876.653 600.824C885.604 603.182 892.197 611.354 892.197 621.061C892.197 627.608 850.327 627.608 850.327 621.061C850.326 611.354 856.942 603.182 865.894 600.824Z" fill="#151515"/>
<path d="M354.64 246.216L444.129 334.623L442.571 336.2L353.082 247.793L354.64 246.216Z" fill="#280659"/>
<path d="M428.653 552.998L431.129 555.58L342.605 640.462L340.129 637.88L428.653 552.998Z" fill="#280659"/>
<path d="M669.017 548.998L758.682 634.742L757.346 636.139L667.682 550.395L669.017 548.998Z" fill="#280659"/>
<path d="M778.045 281.368L688.557 369.775L690.114 371.352L779.603 282.945L778.045 281.368Z" fill="#280659"/>
<path d="M847.577 128.091C846.83 128.091 846.457 127.699 846.457 126.915C846.457 126.169 846.83 125.795 847.577 125.795C848.323 125.795 848.697 126.169 848.697 126.915C848.697 127.699 848.323 128.091 847.577 128.091ZM850.797 128.091C850.031 128.091 849.649 127.699 849.649 126.915C849.649 126.169 850.031 125.795 850.797 125.795C851.525 125.795 851.889 126.169 851.889 126.915C851.889 127.699 851.525 128.091 850.797 128.091ZM844.693 141.111C843.311 141.111 842.21 140.682 841.389 139.823C840.567 138.946 840.157 137.77 840.157 136.295V132.627L842.033 131.647V136.071C842.033 138.274 843.059 139.375 845.113 139.375H854.493C856.546 139.375 857.573 138.274 857.573 136.071V130.107L859.449 129.127V136.295C859.449 137.882 858.963 139.114 857.993 139.991C857.153 140.738 856.051 141.111 854.689 141.111H844.693ZM869.225 141.111C867.638 141.111 866.415 140.598 865.557 139.571C864.847 138.694 864.493 137.583 864.493 136.239V124.031L866.369 123.051V136.183C866.369 138.311 867.395 139.375 869.449 139.375H870.429V141.111H869.225ZM878.884 139.375H879.864V141.111H878.66C876.98 141.111 875.72 140.542 874.88 139.403C874.003 140.542 872.734 141.111 871.072 141.111H869.868V139.375H870.848C872.902 139.375 873.928 138.311 873.928 136.183V130.107L875.804 129.127V136.183C875.804 138.311 876.831 139.375 878.884 139.375ZM872.528 144.051C873.275 144.051 873.648 144.434 873.648 145.199C873.648 145.965 873.275 146.347 872.528 146.347C871.782 146.347 871.408 145.965 871.408 145.199C871.408 144.434 871.782 144.051 872.528 144.051ZM875.72 144.051C876.467 144.051 876.84 144.434 876.84 145.199C876.84 145.965 876.467 146.347 875.72 146.347C874.974 146.347 874.6 145.965 874.6 145.199C874.6 144.434 874.974 144.051 875.72 144.051ZM888.234 139.375H889.214V141.111H888.01C886.293 141.111 885.014 140.523 884.174 139.347C883.297 140.523 881.999 141.111 880.282 141.111H879.302V139.375H880.086C882.214 139.375 883.278 138.274 883.278 136.071V124.031L885.154 123.051V136.183C885.154 138.311 886.181 139.375 888.234 139.375ZM906.266 139.375H907.218V141.111H906.014C904.315 141.111 903.046 140.523 902.206 139.347C901.272 140.897 899.854 141.671 897.95 141.671C896.027 141.671 894.608 140.906 893.694 139.375C892.835 140.533 891.556 141.111 889.858 141.111H888.654V139.375H889.634C891.687 139.375 892.714 138.311 892.714 136.183V135.231C892.714 133.085 893.236 131.442 894.282 130.303C895.196 129.295 896.419 128.791 897.95 128.791C899.704 128.791 901.039 129.445 901.954 130.751C902.756 131.871 903.158 133.365 903.158 135.231V136.183C903.158 138.311 904.194 139.375 906.266 139.375ZM897.95 139.935C898.976 139.935 899.788 139.515 900.386 138.675C900.983 137.817 901.282 136.659 901.282 135.203C901.282 132.067 900.171 130.499 897.95 130.499C895.71 130.499 894.59 132.067 894.59 135.203C894.59 138.358 895.71 139.935 897.95 139.935ZM926.638 141.111H919.722C918.714 141.111 917.687 140.897 916.642 140.467C915.578 140.897 914.542 141.111 913.534 141.111H906.646V139.375H913.422C913.795 139.375 914.178 139.347 914.57 139.291C913.095 138.227 911.49 136.473 909.754 134.027V132.879C911.695 130.154 913.982 128.791 916.614 128.791C919.227 128.791 921.523 130.173 923.502 132.935V134.027C921.766 136.473 920.17 138.227 918.714 139.291C919.087 139.347 919.46 139.375 919.834 139.375H926.61L926.638 141.111ZM911.378 133.467C913.338 136.081 915.083 137.779 916.614 138.563C918.126 137.779 919.88 136.071 921.878 133.439C920.384 131.479 918.63 130.499 916.614 130.499H916.53C914.626 130.499 912.908 131.489 911.378 133.467ZM926.087 141.111V139.375H926.871C928.999 139.375 930.063 138.274 930.063 136.071V124.031L931.939 123.051V136.099C931.939 137.686 931.473 138.937 930.539 139.851C929.662 140.691 928.505 141.111 927.067 141.111H926.087ZM936.981 141.111V124.031L938.857 123.051V141.111H936.981ZM960.201 125.515C959.436 125.515 959.053 125.123 959.053 124.339C959.053 123.593 959.436 123.219 960.201 123.219C960.929 123.219 961.293 123.593 961.293 124.339C961.293 125.123 960.929 125.515 960.201 125.515ZM963.393 125.515C962.628 125.515 962.245 125.123 962.245 124.339C962.245 123.593 962.628 123.219 963.393 123.219C964.121 123.219 964.485 123.593 964.485 124.339C964.485 125.123 964.121 125.515 963.393 125.515ZM966.417 139.739C966.417 141.905 965.633 143.585 964.065 144.779C962.628 145.881 960.668 146.431 958.185 146.431C955.311 146.431 953.145 145.591 951.689 143.911C950.607 142.661 950.065 141.121 950.065 139.291C950.065 137.686 950.476 136.305 951.297 135.147L953.117 134.783C952.221 136.146 951.773 137.602 951.773 139.151C951.773 140.85 952.361 142.203 953.537 143.211C954.676 144.201 956.225 144.695 958.185 144.695C960.425 144.695 962.087 144.182 963.169 143.155C964.065 142.315 964.513 141.195 964.513 139.795C963.823 140.43 962.824 140.747 961.517 140.747C959.912 140.747 958.643 140.113 957.709 138.843C956.925 137.779 956.533 136.445 956.533 134.839C956.533 132.879 957.056 131.349 958.101 130.247C959.016 129.277 960.229 128.791 961.741 128.791C963.291 128.791 964.485 129.277 965.325 130.247C966.053 131.087 966.417 132.207 966.417 133.607V139.739ZM964.541 133.775C964.541 131.591 963.608 130.499 961.741 130.499C960.696 130.499 959.875 130.882 959.277 131.647C958.68 132.413 958.381 133.467 958.381 134.811C958.381 136.137 958.661 137.182 959.221 137.947C959.8 138.713 960.584 139.095 961.573 139.095C963.085 139.095 964.075 138.666 964.541 137.807V133.775ZM979.796 139.375H980.776V141.111H979.572C978.415 141.111 977.453 140.831 976.688 140.271C976.539 143.37 975.288 145.33 972.936 146.151C972.339 146.357 971.704 146.459 971.032 146.459C969.949 146.459 968.904 146.198 967.896 145.675V144.023C968.848 144.546 969.819 144.807 970.808 144.807C971.592 144.807 972.283 144.63 972.88 144.275C974.187 143.491 974.84 142.026 974.84 139.879V130.107L976.688 129.127V129.155L976.716 129.127V136.183C976.716 138.311 977.743 139.375 979.796 139.375ZM988.74 125.487C987.974 125.487 987.592 125.095 987.592 124.311C987.592 123.565 987.974 123.191 988.74 123.191C989.468 123.191 989.832 123.565 989.832 124.311C989.832 125.095 989.468 125.487 988.74 125.487ZM980.228 141.111V139.375H984.988C983.961 138.349 983.448 136.874 983.448 134.951C983.448 132.935 983.97 131.377 985.016 130.275C985.93 129.286 987.144 128.791 988.656 128.791C990.205 128.791 991.4 129.277 992.24 130.247C992.968 131.087 993.332 132.207 993.332 133.607V136.323C993.313 137.835 992.856 139.021 991.96 139.879C991.138 140.701 990.018 141.111 988.6 141.111H980.228ZM991.484 133.775C991.484 131.591 990.541 130.499 988.656 130.499C987.61 130.499 986.789 130.891 986.192 131.675C985.613 132.441 985.324 133.523 985.324 134.923C985.324 136.286 985.604 137.369 986.164 138.171C986.742 138.974 987.508 139.375 988.46 139.375C990.476 139.375 991.484 138.33 991.484 136.239V133.775ZM873.216 183.111C873.066 184.717 872.226 186.014 870.696 187.003C869.221 187.955 867.326 188.431 865.012 188.431C862.137 188.431 859.972 187.591 858.516 185.911C857.433 184.661 856.892 183.121 856.892 181.291C856.892 179.686 857.302 178.305 858.124 177.147L859.944 176.783C859.048 178.146 858.6 179.602 858.6 181.151C858.6 182.869 859.188 184.241 860.364 185.267C861.484 186.257 863.033 186.751 865.012 186.751C867.046 186.751 868.642 186.322 869.8 185.463C870.658 184.829 871.162 184.045 871.312 183.111H868.456L869.352 181.375H873.3V183.111H873.216ZM892.362 183.111H885.446C884.438 183.111 883.412 182.897 882.366 182.467C881.302 182.897 880.266 183.111 879.258 183.111H872.37V181.375H879.146C879.52 181.375 879.902 181.347 880.294 181.291C878.82 180.227 877.214 178.473 875.478 176.027V174.879C877.42 172.154 879.706 170.791 882.338 170.791C884.952 170.791 887.248 172.173 889.226 174.935V176.027C887.49 178.473 885.894 180.227 884.438 181.291C884.812 181.347 885.185 181.375 885.558 181.375H892.334L892.362 183.111ZM877.102 175.467C879.062 178.081 880.808 179.779 882.338 180.563C883.85 179.779 885.605 178.071 887.602 175.439C886.109 173.479 884.354 172.499 882.338 172.499H882.254C880.35 172.499 878.633 173.489 877.102 175.467ZM891.812 183.111V181.375H893.52C895.592 181.375 896.628 180.311 896.628 178.183V174.151L898.504 173.171V178.183C898.504 180.311 899.53 181.375 901.584 181.375H902.62C904.673 181.375 905.7 180.311 905.7 178.183V173.143L907.576 172.135V178.183C907.576 180.311 908.612 181.375 910.684 181.375H911.692C913.764 181.375 914.8 180.311 914.8 178.183V172.107L916.676 171.127V178.071C916.676 180.274 917.74 181.375 919.868 181.375H921.492V183.111H919.672C917.898 183.111 916.601 182.486 915.78 181.235C914.958 182.486 913.689 183.111 911.972 183.111H910.432C908.696 183.111 907.436 182.495 906.652 181.263C905.849 182.495 904.598 183.111 902.9 183.111H901.36C899.624 183.111 898.354 182.495 897.552 181.263C896.768 182.495 895.508 183.111 893.772 183.111H891.812ZM922.613 167.431C921.848 167.431 921.465 167.039 921.465 166.255C921.465 165.509 921.848 165.135 922.613 165.135C923.341 165.135 923.705 165.509 923.705 166.255C923.705 167.039 923.341 167.431 922.613 167.431ZM925.805 167.431C925.04 167.431 924.657 167.039 924.657 166.255C924.657 165.509 925.04 165.135 925.805 165.135C926.533 165.135 926.897 165.509 926.897 166.255C926.897 167.039 926.533 167.431 925.805 167.431ZM920.933 183.111V181.375H921.913C923.966 181.375 924.993 180.311 924.993 178.183V172.107L926.869 171.127V178.239C926.869 179.807 926.412 181.03 925.497 181.907C924.657 182.71 923.537 183.111 922.137 183.111H920.933ZM954.399 183.111C954.25 184.717 953.41 186.014 951.879 187.003C950.405 187.955 948.51 188.431 946.195 188.431C943.321 188.431 941.155 187.591 939.699 185.911C938.617 184.661 938.075 183.121 938.075 181.291C938.075 179.686 938.486 178.305 939.307 177.147L941.127 176.783C940.231 178.146 939.783 179.602 939.783 181.151C939.783 182.869 940.371 184.241 941.547 185.267C942.667 186.257 944.217 186.751 946.195 186.751C948.23 186.751 949.826 186.322 950.983 185.463C951.842 184.829 952.346 184.045 952.495 183.111H949.639L950.535 181.375H954.483V183.111H954.399ZM944.431 193.051C943.666 193.051 943.283 192.669 943.283 191.903C943.283 191.138 943.666 190.755 944.431 190.755C945.159 190.755 945.523 191.138 945.523 191.903C945.523 192.669 945.159 193.051 944.431 193.051ZM947.623 193.051C946.877 193.051 946.503 192.669 946.503 191.903C946.503 191.138 946.877 190.755 947.623 190.755C948.37 190.755 948.743 191.138 948.743 191.903C948.743 192.669 948.37 193.051 947.623 193.051ZM956.382 167.515C955.635 167.515 955.262 167.133 955.262 166.367C955.262 165.602 955.635 165.219 956.382 165.219C957.129 165.219 957.502 165.602 957.502 166.367C957.502 167.133 957.129 167.515 956.382 167.515ZM959.574 167.515C958.827 167.515 958.454 167.133 958.454 166.367C958.454 165.602 958.827 165.219 959.574 165.219C960.321 165.219 960.694 165.602 960.694 166.367C960.694 167.133 960.321 167.515 959.574 167.515ZM962.57 181.375H963.55V183.111H962.346C960.666 183.111 959.406 182.542 958.566 181.403C957.689 182.542 956.419 183.111 954.758 183.111H953.554V181.375H954.534C956.587 181.375 957.614 180.311 957.614 178.183V172.107L959.49 171.127V178.183C959.49 180.311 960.517 181.375 962.57 181.375ZM962.988 183.111V181.375H963.772C965.9 181.375 966.964 180.274 966.964 178.071V166.031L968.84 165.051V178.099C968.84 179.686 968.373 180.937 967.44 181.851C966.562 182.691 965.405 183.111 963.968 183.111H962.988ZM973.881 183.111V166.031L975.757 165.051V183.111H973.881ZM850.37 225.111C850.221 226.717 849.381 228.014 847.85 229.003C846.375 229.955 844.481 230.431 842.166 230.431C839.291 230.431 837.126 229.591 835.67 227.911C834.587 226.661 834.046 225.121 834.046 223.291C834.046 221.686 834.457 220.305 835.278 219.147L837.098 218.783C836.202 220.146 835.754 221.602 835.754 223.151C835.754 224.869 836.342 226.241 837.518 227.267C838.638 228.257 840.187 228.751 842.166 228.751C844.201 228.751 845.797 228.322 846.954 227.463C847.813 226.829 848.317 226.045 848.466 225.111H845.61L846.506 223.375H850.454V225.111H850.37ZM840.402 235.051C839.637 235.051 839.254 234.669 839.254 233.903C839.254 233.138 839.637 232.755 840.402 232.755C841.13 232.755 841.494 233.138 841.494 233.903C841.494 234.669 841.13 235.051 840.402 235.051ZM843.594 235.051C842.847 235.051 842.474 234.669 842.474 233.903C842.474 233.138 842.847 232.755 843.594 232.755C844.341 232.755 844.714 233.138 844.714 233.903C844.714 234.669 844.341 235.051 843.594 235.051ZM858.457 223.375H859.437V225.111H858.233C856.515 225.111 855.237 224.523 854.397 223.347C853.519 224.523 852.222 225.111 850.505 225.111H849.525V223.375H850.309C852.437 223.375 853.501 222.274 853.501 220.071V208.031L855.377 207.051V220.183C855.377 222.311 856.403 223.375 858.457 223.375ZM867.892 223.375H868.872V225.111H867.668C865.988 225.111 864.728 224.542 863.888 223.403C863.011 224.542 861.742 225.111 860.08 225.111H858.876V223.375H859.856C861.91 223.375 862.936 222.311 862.936 220.183V214.107L864.812 213.127V220.183C864.812 222.311 865.839 223.375 867.892 223.375ZM861.536 228.051C862.283 228.051 862.656 228.434 862.656 229.199C862.656 229.965 862.283 230.347 861.536 230.347C860.79 230.347 860.416 229.965 860.416 229.199C860.416 228.434 860.79 228.051 861.536 228.051ZM864.728 228.051C865.475 228.051 865.848 228.434 865.848 229.199C865.848 229.965 865.475 230.347 864.728 230.347C863.982 230.347 863.608 229.965 863.608 229.199C863.608 228.434 863.982 228.051 864.728 228.051ZM878.278 209.431C877.513 209.431 877.13 209.039 877.13 208.255C877.13 207.509 877.513 207.135 878.278 207.135C879.006 207.135 879.37 207.509 879.37 208.255C879.37 209.039 879.006 209.431 878.278 209.431ZM888.302 225.111H881.386C880.378 225.111 879.351 224.897 878.306 224.467C877.242 224.897 876.206 225.111 875.198 225.111H868.31V223.375H875.086C875.459 223.375 875.842 223.347 876.234 223.291C874.759 222.227 873.154 220.473 871.418 218.027V216.879C873.359 214.154 875.646 212.791 878.278 212.791C880.891 212.791 883.187 214.173 885.166 216.935V218.027C883.43 220.473 881.834 222.227 880.378 223.291C880.751 223.347 881.125 223.375 881.498 223.375H888.274L888.302 225.111ZM873.042 217.467C875.002 220.081 876.747 221.779 878.278 222.563C879.79 221.779 881.545 220.071 883.542 217.439C882.049 215.479 880.294 214.499 878.278 214.499H878.194C876.29 214.499 874.573 215.489 873.042 217.467ZM902.563 207.443C901.891 207.443 901.555 207.089 901.555 206.379C901.555 205.707 901.891 205.371 902.563 205.371C903.235 205.371 903.571 205.707 903.571 206.379C903.571 207.089 903.235 207.443 902.563 207.443ZM900.995 210.355C900.23 210.355 899.847 209.973 899.847 209.207C899.847 208.442 900.23 208.059 900.995 208.059C901.723 208.059 902.087 208.442 902.087 209.207C902.087 209.973 901.723 210.355 900.995 210.355ZM904.187 210.355C903.441 210.355 903.067 209.973 903.067 209.207C903.067 208.442 903.441 208.059 904.187 208.059C904.934 208.059 905.307 208.442 905.307 209.207C905.307 209.973 904.934 210.355 904.187 210.355ZM887.751 225.111V223.375H889.459C891.531 223.375 892.567 222.311 892.567 220.183V216.151L894.443 215.171V220.183C894.443 222.311 895.47 223.375 897.523 223.375H898.559C900.613 223.375 901.639 222.311 901.639 220.183V215.143L903.515 214.135V220.183C903.515 222.311 904.551 223.375 906.623 223.375H907.631C909.703 223.375 910.739 222.311 910.739 220.183V214.107L912.615 213.127V220.071C912.615 222.274 913.679 223.375 915.807 223.375H917.431V225.111H915.611C913.838 225.111 912.541 224.486 911.719 223.235C910.898 224.486 909.629 225.111 907.911 225.111H906.371C904.635 225.111 903.375 224.495 902.591 223.263C901.789 224.495 900.538 225.111 898.839 225.111H897.299C895.563 225.111 894.294 224.495 893.491 223.263C892.707 224.495 891.447 225.111 889.711 225.111H887.751ZM918.552 209.431C917.787 209.431 917.404 209.039 917.404 208.255C917.404 207.509 917.787 207.135 918.552 207.135C919.28 207.135 919.644 207.509 919.644 208.255C919.644 209.039 919.28 209.431 918.552 209.431ZM921.744 209.431C920.979 209.431 920.596 209.039 920.596 208.255C920.596 207.509 920.979 207.135 921.744 207.135C922.472 207.135 922.836 207.509 922.836 208.255C922.836 209.039 922.472 209.431 921.744 209.431ZM916.872 225.111V223.375H917.852C919.906 223.375 920.932 222.311 920.932 220.183V214.107L922.808 213.127V220.239C922.808 221.807 922.351 223.03 921.436 223.907C920.596 224.71 919.476 225.111 918.076 225.111H916.872ZM948.435 223.599C948.435 225.765 947.697 227.482 946.223 228.751C944.897 229.871 943.208 230.431 941.155 230.431C938.728 230.431 936.861 229.601 935.555 227.939C934.528 226.651 934.015 225.111 934.015 223.319C934.015 221.695 934.425 220.323 935.247 219.203L937.095 218.783C936.18 220.127 935.723 221.602 935.723 223.207C935.723 224.85 936.255 226.194 937.319 227.239C938.327 228.229 939.605 228.723 941.155 228.723C942.947 228.723 944.337 228.182 945.327 227.099C946.167 226.203 946.587 225.037 946.587 223.599V208.031L948.435 207.051V223.599ZM965.761 223.375V225.111H962.793C962.775 226.343 962.373 227.426 961.589 228.359C960.824 229.311 959.825 229.937 958.593 230.235C958.145 230.366 957.66 230.431 957.137 230.431C956.055 230.431 955 230.17 953.973 229.647V227.995C954.944 228.518 955.905 228.779 956.857 228.779C957.623 228.779 958.295 228.611 958.873 228.275C959.452 227.977 959.937 227.519 960.329 226.903C960.721 226.306 960.917 225.709 960.917 225.111L958.537 225.027C956.465 224.934 954.916 224.281 953.889 223.067C953.049 222.041 952.629 220.669 952.629 218.951C952.629 216.935 953.152 215.377 954.197 214.275C955.131 213.286 956.381 212.791 957.949 212.791C959.573 212.791 960.815 213.277 961.673 214.247C962.42 215.087 962.793 216.207 962.793 217.607V223.375H965.761ZM960.917 217.803C960.917 215.601 959.928 214.499 957.949 214.499C956.848 214.499 955.989 214.891 955.373 215.675C954.776 216.441 954.477 217.523 954.477 218.923C954.477 221.705 955.849 223.161 958.593 223.291C959.415 223.347 960.189 223.375 960.917 223.375V217.803ZM982.885 223.375H983.865V225.111H982.857C981.307 225.111 980.066 224.934 979.133 224.579C978.218 224.225 977.369 223.599 976.585 222.703C974.195 224.309 971.433 225.111 968.297 225.111H965.189V223.375H968.325C972.394 223.375 975.567 221.994 977.845 219.231C976.183 216.058 974.177 214.471 971.825 214.471C970.219 214.471 968.651 215.283 967.121 216.907V215.059C968.651 213.547 970.247 212.791 971.909 212.791H971.965C974.895 212.791 977.434 214.77 979.581 218.727V219.875C979.002 220.622 978.386 221.266 977.733 221.807C978.33 222.386 979.002 222.797 979.749 223.039C980.514 223.263 981.559 223.375 982.885 223.375ZM986.146 209.515C985.399 209.515 985.026 209.133 985.026 208.367C985.026 207.602 985.399 207.219 986.146 207.219C986.892 207.219 987.266 207.602 987.266 208.367C987.266 209.133 986.892 209.515 986.146 209.515ZM989.338 209.515C988.591 209.515 988.218 209.133 988.218 208.367C988.218 207.602 988.591 207.219 989.338 207.219C990.084 207.219 990.458 207.602 990.458 208.367C990.458 209.133 990.084 209.515 989.338 209.515ZM992.334 223.375H993.314V225.111H992.11C990.43 225.111 989.17 224.542 988.33 223.403C987.452 224.542 986.183 225.111 984.522 225.111H983.318V223.375H984.298C986.351 223.375 987.378 222.311 987.378 220.183V214.107L989.254 213.127V220.183C989.254 222.311 990.28 223.375 992.334 223.375ZM992.751 225.111V223.375H993.535C995.663 223.375 996.727 222.274 996.727 220.071V208.031L998.603 207.051V220.099C998.603 221.686 998.137 222.937 997.203 223.851C996.326 224.691 995.169 225.111 993.731 225.111H992.751ZM902.532 254.567C901.766 254.567 901.384 254.175 901.384 253.391C901.384 252.645 901.766 252.271 902.532 252.271C903.26 252.271 903.624 252.645 903.624 253.391C903.624 254.175 903.26 254.567 902.532 254.567ZM909.644 265.739C909.644 267.849 908.916 269.529 907.46 270.779C906.172 271.881 904.501 272.431 902.448 272.431C900.077 272.431 898.238 271.591 896.932 269.911C895.905 268.623 895.392 267.083 895.392 265.291C895.392 263.686 895.802 262.305 896.624 261.147L898.444 260.783C897.548 262.146 897.1 263.602 897.1 265.151C897.1 266.794 897.632 268.147 898.696 269.211C899.685 270.201 900.936 270.695 902.448 270.695C904.221 270.695 905.593 270.173 906.564 269.127C907.366 268.269 907.768 267.139 907.768 265.739V256.107L909.644 255.127V265.739ZM923.29 265.375H924.27V267.111H923.066C921.909 267.111 920.947 266.831 920.182 266.271C920.033 269.37 918.782 271.33 916.43 272.151C915.833 272.357 915.198 272.459 914.526 272.459C913.443 272.459 912.398 272.198 911.39 271.675V270.023C912.342 270.546 913.313 270.807 914.302 270.807C915.086 270.807 915.777 270.63 916.374 270.275C917.681 269.491 918.334 268.026 918.334 265.879V256.107L920.182 255.127V255.155L920.21 255.127V262.183C920.21 264.311 921.237 265.375 923.29 265.375ZM927.782 259.607C927.782 258.021 928.258 256.789 929.21 255.911C930.031 255.165 931.114 254.791 932.458 254.791C934.194 254.791 935.529 255.426 936.462 256.695C937.265 257.778 937.666 259.197 937.666 260.951C937.666 262.949 937.153 264.507 936.126 265.627C935.23 266.617 934.063 267.111 932.626 267.111C930.871 267.111 929.565 266.551 928.706 265.431C927.866 266.551 926.606 267.111 924.926 267.111H923.722V265.375H924.702C926.755 265.375 927.782 264.311 927.782 262.183V259.607ZM929.658 262.295C929.658 264.349 930.666 265.375 932.682 265.375C933.653 265.375 934.418 264.983 934.978 264.199C935.538 263.415 935.818 262.323 935.818 260.923C935.818 259.542 935.519 258.459 934.922 257.675C934.343 256.891 933.522 256.499 932.458 256.499C930.591 256.499 929.658 257.591 929.658 259.775V262.295Z" fill="#280659"/>
<path d="M870.403 733.998C870.254 735.603 869.414 736.901 867.883 737.89C866.408 738.842 864.514 739.318 862.199 739.318C859.324 739.318 857.159 738.478 855.703 736.798C854.62 735.547 854.079 734.007 854.079 732.178C854.079 730.573 854.49 729.191 855.311 728.034L857.131 727.67C856.235 729.033 855.787 730.489 855.787 732.038C855.787 733.755 856.375 735.127 857.551 736.154C858.671 737.143 860.22 737.638 862.199 737.638C864.234 737.638 865.83 737.209 866.987 736.35C867.846 735.715 868.35 734.931 868.499 733.998H865.643L866.539 732.262H870.487V733.998H870.403ZM860.435 743.938C859.67 743.938 859.287 743.555 859.287 742.79C859.287 742.025 859.67 741.642 860.435 741.642C861.163 741.642 861.527 742.025 861.527 742.79C861.527 743.555 861.163 743.938 860.435 743.938ZM863.627 743.938C862.88 743.938 862.507 743.555 862.507 742.79C862.507 742.025 862.88 741.642 863.627 741.642C864.374 741.642 864.747 742.025 864.747 742.79C864.747 743.555 864.374 743.938 863.627 743.938ZM872.386 718.402C871.639 718.402 871.266 718.019 871.266 717.254C871.266 716.489 871.639 716.106 872.386 716.106C873.133 716.106 873.506 716.489 873.506 717.254C873.506 718.019 873.133 718.402 872.386 718.402ZM875.578 718.402C874.831 718.402 874.458 718.019 874.458 717.254C874.458 716.489 874.831 716.106 875.578 716.106C876.325 716.106 876.698 716.489 876.698 717.254C876.698 718.019 876.325 718.402 875.578 718.402ZM878.574 732.262H879.554V733.998H878.35C876.67 733.998 875.41 733.429 874.57 732.29C873.693 733.429 872.423 733.998 870.762 733.998H869.558V732.262H870.538C872.591 732.262 873.618 731.198 873.618 729.07V722.994L875.494 722.014V729.07C875.494 731.198 876.521 732.262 878.574 732.262ZM878.991 733.998V732.262H879.775C881.903 732.262 882.967 731.161 882.967 728.958V716.918L884.843 715.938V728.986C884.843 730.573 884.377 731.823 883.443 732.738C882.566 733.578 881.409 733.998 879.971 733.998H878.991ZM889.885 733.998V716.918L891.761 715.938V733.998H889.885ZM909.774 733.298C909.587 733.41 909.279 733.587 908.85 733.83L908.794 733.858C907.263 734.717 906.236 735.454 905.714 736.07C905.21 736.686 904.958 737.507 904.958 738.534C904.958 739.766 905.378 740.774 906.218 741.558C907.076 742.361 908.178 742.762 909.522 742.762H909.578C911.706 742.762 913.414 742.286 914.702 741.334V743.042C913.171 744.013 911.444 744.498 909.522 744.498C907.506 744.498 905.9 743.835 904.706 742.51C903.716 741.39 903.222 740.046 903.222 738.478C903.222 737.153 903.548 736.089 904.202 735.286C904.855 734.483 906.171 733.531 908.15 732.43C906.526 731.329 904.808 729.49 902.998 726.914V725.766C904.939 723.041 907.226 721.678 909.858 721.678C911.09 721.678 912.312 722.042 913.526 722.77C914.739 723.498 915.812 724.515 916.746 725.822V726.914C915.458 728.687 913.731 730.414 911.566 732.094C912.051 732.206 912.555 732.262 913.078 732.262H919.854V733.998H912.966C911.864 733.998 910.8 733.765 909.774 733.298ZM904.622 726.382C906.582 728.958 908.308 730.638 909.802 731.422C911.724 730.078 913.498 728.379 915.122 726.326C913.628 724.366 911.874 723.386 909.858 723.386H909.774C907.851 723.386 906.134 724.385 904.622 726.382ZM924.168 718.318C923.403 718.318 923.02 717.926 923.02 717.142C923.02 716.395 923.403 716.022 924.168 716.022C924.896 716.022 925.26 716.395 925.26 717.142C925.26 717.926 924.896 718.318 924.168 718.318ZM919.296 733.998V732.262H920.276C922.33 732.262 923.356 731.198 923.356 729.07V722.994L925.232 722.014V729.126C925.232 730.694 924.775 731.917 923.86 732.794C923.02 733.597 921.9 733.998 920.5 733.998H919.296ZM935.004 733.998C933.417 733.998 932.195 733.485 931.336 732.458C930.627 731.581 930.272 730.47 930.272 729.126V716.918L932.148 715.938V729.07C932.148 731.198 933.175 732.262 935.228 732.262H936.208V733.998H935.004ZM963.648 732.262H964.628V733.998H963.424C961.744 733.998 960.484 733.429 959.644 732.29C958.804 733.429 957.534 733.998 955.836 733.998H944.44C942.76 733.998 941.5 733.429 940.66 732.29C939.782 733.429 938.513 733.998 936.852 733.998H935.648V732.262H936.628C938.681 732.262 939.708 731.198 939.708 729.07V725.038L941.584 724.058V729.07C941.584 730.825 942.265 731.851 943.628 732.15C944.318 729.275 945.522 726.867 947.24 724.926C949.162 722.761 951.421 721.678 954.016 721.678C956.106 721.678 957.768 722.397 959 723.834C960.045 725.066 960.568 726.587 960.568 728.398V729.126C960.568 731.217 961.594 732.262 963.648 732.262ZM955.696 732.262C957.693 732.262 958.692 731.161 958.692 728.958V728.398C958.692 726.83 958.197 725.57 957.208 724.618C956.368 723.797 955.313 723.386 954.044 723.386C951.86 723.386 949.918 724.413 948.22 726.466C946.932 728.034 945.961 729.966 945.308 732.262H955.696ZM981.67 732.262H982.622V733.998H981.418C979.719 733.998 978.45 733.41 977.61 732.234C976.677 733.783 975.258 734.558 973.354 734.558C971.431 734.558 970.013 733.793 969.098 732.262C968.239 733.419 966.961 733.998 965.262 733.998H964.058V732.262H965.038C967.091 732.262 968.118 731.198 968.118 729.07V728.118C968.118 725.971 968.641 724.329 969.686 723.19C970.601 722.182 971.823 721.678 973.354 721.678C975.109 721.678 976.443 722.331 977.358 723.638C978.161 724.758 978.562 726.251 978.562 728.118V729.07C978.562 731.198 979.598 732.262 981.67 732.262ZM973.354 732.822C974.381 732.822 975.193 732.402 975.79 731.562C976.387 730.703 976.686 729.546 976.686 728.09C976.686 724.954 975.575 723.386 973.354 723.386C971.114 723.386 969.994 724.954 969.994 728.09C969.994 731.245 971.114 732.822 973.354 732.822ZM982.05 733.998V732.262H982.834C984.962 732.262 986.026 731.161 986.026 728.958V716.918L987.902 715.938V728.986C987.902 730.573 987.435 731.823 986.502 732.738C985.625 733.578 984.467 733.998 983.03 733.998H982.05ZM992.944 733.998V716.918L994.82 715.938V733.998H992.944ZM851.348 774.654C851.348 778.051 850.097 780.179 847.596 781.038C846.999 781.243 846.364 781.346 845.692 781.346C844.609 781.346 843.564 781.085 842.556 780.562V778.91C843.508 779.433 844.479 779.694 845.468 779.694C846.252 779.694 846.943 779.517 847.54 779.162C848.847 778.378 849.5 776.913 849.5 774.766V764.994L851.348 764.014V774.654ZM868.667 774.262V775.998H865.699C865.681 777.23 865.279 778.313 864.495 779.246C863.73 780.198 862.731 780.823 861.499 781.122C861.051 781.253 860.566 781.318 860.043 781.318C858.961 781.318 857.906 781.057 856.879 780.534V778.882C857.85 779.405 858.811 779.666 859.763 779.666C860.529 779.666 861.201 779.498 861.779 779.162C862.358 778.863 862.843 778.406 863.235 777.79C863.627 777.193 863.823 776.595 863.823 775.998L861.443 775.914C859.371 775.821 857.822 775.167 856.795 773.954C855.955 772.927 855.535 771.555 855.535 769.838C855.535 767.822 856.058 766.263 857.103 765.162C858.037 764.173 859.287 763.678 860.855 763.678C862.479 763.678 863.721 764.163 864.579 765.134C865.326 765.974 865.699 767.094 865.699 768.494V774.262H868.667ZM863.823 768.69C863.823 766.487 862.834 765.386 860.855 765.386C859.754 765.386 858.895 765.778 858.279 766.562C857.682 767.327 857.383 768.41 857.383 769.81C857.383 772.591 858.755 774.047 861.499 774.178C862.321 774.234 863.095 774.262 863.823 774.262V768.69ZM893.855 774.262V775.998H892.651C891.083 775.998 889.87 775.494 889.011 774.486C888.339 775.494 887.256 775.998 885.763 775.998H868.095V774.262H872.827V758.918L874.563 757.938V769.698C876.747 765.685 879.64 763.678 883.243 763.678C885.334 763.678 886.995 764.397 888.227 765.834C889.272 767.066 889.795 768.587 889.795 770.398V771.126C889.795 773.217 890.831 774.262 892.903 774.262H893.855ZM887.919 770.398C887.919 768.83 887.424 767.57 886.435 766.618C885.595 765.797 884.54 765.386 883.271 765.386C881.087 765.386 879.146 766.441 877.447 768.55C876.159 770.137 875.207 772.041 874.591 774.262H885.567C886.463 774.262 887.079 774.057 887.415 773.646C887.751 773.217 887.919 772.442 887.919 771.322V770.398ZM894.986 760.318C894.221 760.318 893.838 759.926 893.838 759.142C893.838 758.395 894.221 758.022 894.986 758.022C895.714 758.022 896.078 758.395 896.078 759.142C896.078 759.926 895.714 760.318 894.986 760.318ZM898.178 760.318C897.413 760.318 897.03 759.926 897.03 759.142C897.03 758.395 897.413 758.022 898.178 758.022C898.906 758.022 899.27 758.395 899.27 759.142C899.27 759.926 898.906 760.318 898.178 760.318ZM893.306 775.998V774.262H894.286C896.339 774.262 897.366 773.198 897.366 771.07V764.994L899.242 764.014V771.126C899.242 772.694 898.785 773.917 897.87 774.794C897.03 775.597 895.91 775.998 894.51 775.998H893.306ZM918.176 774.962C917.392 775.41 916.384 775.634 915.152 775.634C913.528 775.634 912.259 775.009 911.344 773.758C910.56 772.694 910.168 771.35 910.168 769.726C910.168 767.766 910.691 766.235 911.736 765.134C912.651 764.163 913.864 763.678 915.376 763.678C916.926 763.678 918.12 764.163 918.96 765.134C919.688 765.974 920.052 767.094 920.052 768.494V774.654C920.052 776.39 919.688 777.818 918.96 778.938C918.232 780.077 917.196 780.805 915.852 781.122C915.404 781.253 914.919 781.318 914.396 781.318C913.314 781.318 912.259 781.057 911.232 780.534V778.882C912.203 779.405 913.164 779.666 914.116 779.666C914.882 779.666 915.554 779.498 916.132 779.162C917.439 778.509 918.12 777.109 918.176 774.962ZM918.176 768.662C918.176 766.478 917.243 765.386 915.376 765.386C914.331 765.386 913.5 765.769 912.884 766.534C912.287 767.299 911.988 768.354 911.988 769.698C911.988 771.005 912.278 772.05 912.856 772.834C913.435 773.599 914.219 773.982 915.208 773.982C916.683 773.982 917.672 773.571 918.176 772.75V768.662ZM923.277 757.546L923.809 756.566H924.509C924.322 756.249 924.229 755.913 924.229 755.558C924.229 755.035 924.425 754.578 924.817 754.186C925.228 753.794 925.694 753.598 926.217 753.598C926.628 753.598 927.029 753.729 927.421 753.99V755.026C927.066 754.765 926.712 754.634 926.357 754.634C926.058 754.634 925.797 754.727 925.573 754.914C925.368 755.101 925.265 755.325 925.265 755.586C925.265 755.922 925.405 756.249 925.685 756.566H928.121L927.589 757.546H923.277ZM924.817 775.998V760.038L926.693 759.058V775.998H924.817ZM944.705 775.298C944.519 775.41 944.211 775.587 943.781 775.83L943.725 775.858C942.195 776.717 941.168 777.454 940.645 778.07C940.141 778.686 939.889 779.507 939.889 780.534C939.889 781.766 940.309 782.774 941.149 783.558C942.008 784.361 943.109 784.762 944.453 784.762H944.509C946.637 784.762 948.345 784.286 949.633 783.334V785.042C948.103 786.013 946.376 786.498 944.453 786.498C942.437 786.498 940.832 785.835 939.637 784.51C938.648 783.39 938.153 782.046 938.153 780.478C938.153 779.153 938.48 778.089 939.133 777.286C939.787 776.483 941.103 775.531 943.081 774.43C941.457 773.329 939.74 771.49 937.929 768.914V767.766C939.871 765.041 942.157 763.678 944.789 763.678C946.021 763.678 947.244 764.042 948.457 764.77C949.671 765.498 950.744 766.515 951.677 767.822V768.914C950.389 770.687 948.663 772.414 946.497 774.094C946.983 774.206 947.487 774.262 948.009 774.262H954.785V775.998H947.897C946.796 775.998 945.732 775.765 944.705 775.298ZM939.553 768.382C941.513 770.958 943.24 772.638 944.733 773.422C946.656 772.078 948.429 770.379 950.053 768.326C948.56 766.366 946.805 765.386 944.789 765.386H944.705C942.783 765.386 941.065 766.385 939.553 768.382ZM954.228 775.998V774.262H955.936C958.008 774.262 959.044 773.198 959.044 771.07V767.038L960.92 766.058V771.07C960.92 773.198 961.946 774.262 964 774.262H965.036C967.089 774.262 968.116 773.198 968.116 771.07V766.03L969.992 765.022V771.07C969.992 773.198 971.028 774.262 973.1 774.262H974.108C976.18 774.262 977.216 773.198 977.216 771.07V764.994L979.092 764.014V771.126C979.092 772.675 978.634 773.889 977.72 774.766C976.898 775.569 975.788 775.979 974.388 775.998H972.848C971.112 775.998 969.852 775.382 969.068 774.15C968.265 775.382 967.014 775.998 965.316 775.998H963.776C962.04 775.998 960.77 775.382 959.968 774.15C959.184 775.382 957.924 775.998 956.188 775.998H954.228ZM996.417 774.262V775.998H993.449C993.431 777.23 993.029 778.313 992.245 779.246C991.48 780.198 990.481 780.823 989.249 781.122C988.801 781.253 988.316 781.318 987.793 781.318C986.711 781.318 985.656 781.057 984.629 780.534V778.882C985.6 779.405 986.561 779.666 987.513 779.666C988.279 779.666 988.951 779.498 989.529 779.162C990.108 778.863 990.593 778.406 990.985 777.79C991.377 777.193 991.573 776.595 991.573 775.998L989.193 775.914C987.121 775.821 985.572 775.167 984.545 773.954C983.705 772.927 983.285 771.555 983.285 769.838C983.285 767.822 983.808 766.263 984.853 765.162C985.787 764.173 987.037 763.678 988.605 763.678C990.229 763.678 991.471 764.163 992.329 765.134C993.076 765.974 993.449 767.094 993.449 768.494V774.262H996.417ZM991.573 768.69C991.573 766.487 990.584 765.386 988.605 765.386C987.504 765.386 986.645 765.778 986.029 766.562C985.432 767.327 985.133 768.41 985.133 769.81C985.133 772.591 986.505 774.047 989.249 774.178C990.071 774.234 990.845 774.262 991.573 774.262V768.69ZM997.525 760.318C996.76 760.318 996.377 759.926 996.377 759.142C996.377 758.395 996.76 758.022 997.525 758.022C998.253 758.022 998.617 758.395 998.617 759.142C998.617 759.926 998.253 760.318 997.525 760.318ZM1000.72 760.318C999.952 760.318 999.569 759.926 999.569 759.142C999.569 758.395 999.952 758.022 1000.72 758.022C1001.45 758.022 1001.81 758.395 1001.81 759.142C1001.81 759.926 1001.45 760.318 1000.72 760.318ZM995.845 775.998V774.262H996.825C998.878 774.262 999.905 773.198 999.905 771.07V764.994L1001.78 764.014V771.126C1001.78 772.694 1001.32 773.917 1000.41 774.794C999.569 775.597 998.449 775.998 997.049 775.998H995.845ZM861.961 827.042C860.43 828.013 858.694 828.498 856.753 828.498C854.662 828.498 852.982 827.798 851.713 826.398C850.574 825.147 850.005 823.579 850.005 821.694C850.005 819.678 850.621 818.026 851.853 816.738C852.413 816.159 853.048 815.721 853.757 815.422C854.485 815.105 855.605 814.806 857.117 814.526C858.666 814.209 859.796 813.891 860.505 813.574C861.214 813.257 861.821 812.781 862.325 812.146C860.701 808.954 858.694 807.358 856.305 807.358C854.681 807.358 853.113 808.17 851.601 809.794V807.946C853.132 806.434 854.728 805.678 856.389 805.678H856.445C859.376 805.678 861.914 807.657 864.061 811.614V812.762C863.426 813.677 862.67 814.358 861.793 814.806C860.916 815.254 859.544 815.674 857.677 816.066C855.4 816.514 853.878 817.121 853.113 817.886C852.198 818.801 851.741 820.089 851.741 821.75C851.741 823.355 852.273 824.625 853.337 825.558C854.252 826.361 855.4 826.762 856.781 826.762H856.837C858.965 826.762 860.673 826.286 861.961 825.334V827.042ZM856.837 822.786C856.128 822.786 855.773 822.422 855.773 821.694C855.773 820.985 856.128 820.63 856.837 820.63C857.528 820.63 857.873 820.985 857.873 821.694C857.873 822.422 857.528 822.786 856.837 822.786ZM872.715 817.998C871.128 817.998 869.906 817.485 869.047 816.458C868.338 815.581 867.983 814.47 867.983 813.126V800.918L869.859 799.938V813.07C869.859 815.198 870.886 816.262 872.939 816.262H873.919V817.998H872.715ZM876.187 802.402C875.44 802.402 875.067 802.019 875.067 801.254C875.067 800.489 875.44 800.106 876.187 800.106C876.933 800.106 877.307 800.489 877.307 801.254C877.307 802.019 876.933 802.402 876.187 802.402ZM879.379 802.402C878.632 802.402 878.259 802.019 878.259 801.254C878.259 800.489 878.632 800.106 879.379 800.106C880.125 800.106 880.499 800.489 880.499 801.254C880.499 802.019 880.125 802.402 879.379 802.402ZM882.375 816.262H883.355V817.998H882.151C880.471 817.998 879.211 817.429 878.371 816.29C877.493 817.429 876.224 817.998 874.563 817.998H873.359V816.262H874.339C876.392 816.262 877.419 815.198 877.419 813.07V806.994L879.295 806.014V813.07C879.295 815.198 880.321 816.262 882.375 816.262ZM887.664 802.318C886.899 802.318 886.516 801.926 886.516 801.142C886.516 800.395 886.899 800.022 887.664 800.022C888.392 800.022 888.756 800.395 888.756 801.142C888.756 801.926 888.392 802.318 887.664 802.318ZM882.792 817.998V816.262H883.772C885.826 816.262 886.852 815.198 886.852 813.07V806.994L888.728 806.014V813.126C888.728 814.694 888.271 815.917 887.356 816.794C886.516 817.597 885.396 817.998 883.996 817.998H882.792ZM903.988 800.918L905.836 799.938V812.986C905.836 814.573 905.369 815.823 904.436 816.738C903.577 817.578 902.429 817.998 900.992 817.998H891.808L892.704 816.262H896.988V804.558L898.836 803.578V816.262H900.796C902.924 816.262 903.988 815.161 903.988 812.958V800.918ZM899.312 821.806C898.939 821.526 898.575 821.386 898.22 821.386C897.921 821.386 897.669 821.479 897.464 821.666C897.259 821.871 897.156 822.105 897.156 822.366C897.156 822.683 897.287 823.001 897.548 823.318H900.012L899.48 824.326H895.14L895.672 823.318H896.4C896.213 822.982 896.12 822.646 896.12 822.31C896.12 821.787 896.316 821.33 896.708 820.938C897.1 820.565 897.567 820.378 898.108 820.378C898.519 820.378 898.92 820.499 899.312 820.742V821.806ZM910.885 817.998V800.918L912.761 799.938V817.998H910.885ZM928.926 811.698C931.11 807.685 934.003 805.678 937.606 805.678C939.696 805.678 941.358 806.397 942.59 807.834C943.635 809.066 944.158 810.587 944.158 812.398V813.378C944.158 816.458 942.814 817.998 940.126 817.998H922.57L923.494 816.262H927.19V800.918L928.926 799.938V811.698ZM942.282 812.398C942.282 810.83 941.787 809.57 940.798 808.618C939.958 807.797 938.903 807.386 937.634 807.386C935.45 807.386 933.508 808.441 931.81 810.55C930.522 812.137 929.57 814.041 928.954 816.262H939.93C940.826 816.262 941.442 816.057 941.778 815.646C942.114 815.217 942.282 814.442 942.282 813.322V812.398ZM960.994 816.262V817.998H958.026C958.007 819.23 957.606 820.313 956.822 821.246C956.056 822.198 955.058 822.823 953.826 823.122C953.378 823.253 952.892 823.318 952.37 823.318C951.287 823.318 950.232 823.057 949.206 822.534V820.882C950.176 821.405 951.138 821.666 952.09 821.666C952.855 821.666 953.527 821.498 954.106 821.162C954.684 820.863 955.17 820.406 955.562 819.79C955.954 819.193 956.15 818.595 956.15 817.998L953.77 817.914C951.698 817.821 950.148 817.167 949.122 815.954C948.282 814.927 947.862 813.555 947.862 811.838C947.862 809.822 948.384 808.263 949.43 807.162C950.363 806.173 951.614 805.678 953.182 805.678C954.806 805.678 956.047 806.163 956.906 807.134C957.652 807.974 958.026 809.094 958.026 810.494V816.262H960.994ZM956.15 810.69C956.15 808.487 955.16 807.386 953.182 807.386C952.08 807.386 951.222 807.778 950.606 808.562C950.008 809.327 949.71 810.41 949.71 811.81C949.71 814.591 951.082 816.047 953.826 816.178C954.647 816.234 955.422 816.262 956.15 816.262V810.69ZM986.181 816.262V817.998H984.977C983.409 817.998 982.196 817.494 981.337 816.486C980.665 817.494 979.583 817.998 978.089 817.998H960.421V816.262H965.153V800.918L966.889 799.938V811.698C969.073 807.685 971.967 805.678 975.569 805.678C977.66 805.678 979.321 806.397 980.553 807.834C981.599 809.066 982.121 810.587 982.121 812.398V813.126C982.121 815.217 983.157 816.262 985.229 816.262H986.181ZM980.245 812.398C980.245 810.83 979.751 809.57 978.761 808.618C977.921 807.797 976.867 807.386 975.597 807.386C973.413 807.386 971.472 808.441 969.773 810.55C968.485 812.137 967.533 814.041 966.917 816.262H977.893C978.789 816.262 979.405 816.057 979.741 815.646C980.077 815.217 980.245 814.442 980.245 813.322V812.398ZM993.472 802.318C992.707 802.318 992.324 801.926 992.324 801.142C992.324 800.395 992.707 800.022 993.472 800.022C994.2 800.022 994.564 800.395 994.564 801.142C994.564 801.926 994.2 802.318 993.472 802.318ZM985.632 817.998V816.262H988.768C992.837 816.262 996.011 814.881 998.288 812.118C996.627 808.945 994.62 807.358 992.268 807.358C990.663 807.358 989.095 808.17 987.564 809.794V807.946C989.095 806.434 990.691 805.678 992.352 805.678H992.408C995.339 805.678 997.877 807.657 1000.02 811.614V812.762C997.299 816.253 993.537 817.998 988.74 817.998H985.632Z" fill="#280659"/>
<path d="M214.098 120.3C213.911 120.412 213.603 120.589 213.174 120.832L213.118 120.86C211.587 121.719 210.561 122.456 210.038 123.072C209.534 123.688 209.282 124.509 209.282 125.536C209.282 126.768 209.702 127.776 210.542 128.56C211.401 129.363 212.502 129.764 213.846 129.764H213.902C216.03 129.764 217.738 129.288 219.026 128.336V130.044C217.495 131.015 215.769 131.5 213.846 131.5C211.83 131.5 210.225 130.837 209.03 129.512C208.041 128.392 207.546 127.048 207.546 125.48C207.546 124.155 207.873 123.091 208.526 122.288C209.179 121.485 210.495 120.533 212.474 119.432C210.85 118.331 209.133 116.492 207.322 113.916V112.768C209.263 110.043 211.55 108.68 214.182 108.68C215.414 108.68 216.637 109.044 217.85 109.772C219.063 110.5 220.137 111.517 221.07 112.824V113.916C219.782 115.689 218.055 117.416 215.89 119.096C216.375 119.208 216.879 119.264 217.402 119.264H224.178V121H217.29C216.189 121 215.125 120.767 214.098 120.3ZM208.946 113.384C210.906 115.96 212.633 117.64 214.126 118.424C216.049 117.08 217.822 115.381 219.446 113.328C217.953 111.368 216.198 110.388 214.182 110.388H214.098C212.175 110.388 210.458 111.387 208.946 113.384ZM228.492 105.32C227.727 105.32 227.344 104.928 227.344 104.144C227.344 103.397 227.727 103.024 228.492 103.024C229.22 103.024 229.584 103.397 229.584 104.144C229.584 104.928 229.22 105.32 228.492 105.32ZM223.62 121V119.264H224.6C226.654 119.264 227.68 118.2 227.68 116.072V109.996L229.556 109.016V116.128C229.556 117.696 229.099 118.919 228.184 119.796C227.344 120.599 226.224 121 224.824 121H223.62ZM239.328 121C237.742 121 236.519 120.487 235.66 119.46C234.951 118.583 234.596 117.472 234.596 116.128V103.92L236.472 102.94V116.072C236.472 118.2 237.499 119.264 239.552 119.264H240.532V121H239.328ZM267.972 119.264H268.952V121H267.748C266.068 121 264.808 120.431 263.968 119.292C263.128 120.431 261.859 121 260.16 121H248.764C247.084 121 245.824 120.431 244.984 119.292C244.107 120.431 242.837 121 241.176 121H239.972V119.264H240.952C243.005 119.264 244.032 118.2 244.032 116.072V112.04L245.908 111.06V116.072C245.908 117.827 246.589 118.853 247.952 119.152C248.643 116.277 249.847 113.869 251.564 111.928C253.487 109.763 255.745 108.68 258.34 108.68C260.431 108.68 262.092 109.399 263.324 110.836C264.369 112.068 264.892 113.589 264.892 115.4V116.128C264.892 118.219 265.919 119.264 267.972 119.264ZM260.02 119.264C262.017 119.264 263.016 118.163 263.016 115.96V115.4C263.016 113.832 262.521 112.572 261.532 111.62C260.692 110.799 259.637 110.388 258.368 110.388C256.184 110.388 254.243 111.415 252.544 113.468C251.256 115.036 250.285 116.968 249.632 119.264H260.02ZM285.994 119.264H286.946V121H285.742C284.043 121 282.774 120.412 281.934 119.236C281.001 120.785 279.582 121.56 277.678 121.56C275.755 121.56 274.337 120.795 273.422 119.264C272.563 120.421 271.285 121 269.586 121H268.382V119.264H269.362C271.415 119.264 272.442 118.2 272.442 116.072V115.12C272.442 112.973 272.965 111.331 274.01 110.192C274.925 109.184 276.147 108.68 277.678 108.68C279.433 108.68 280.767 109.333 281.682 110.64C282.485 111.76 282.886 113.253 282.886 115.12V116.072C282.886 118.2 283.922 119.264 285.994 119.264ZM277.678 119.824C278.705 119.824 279.517 119.404 280.114 118.564C280.711 117.705 281.01 116.548 281.01 115.092C281.01 111.956 279.899 110.388 277.678 110.388C275.438 110.388 274.318 111.956 274.318 115.092C274.318 118.247 275.438 119.824 277.678 119.824ZM286.374 121V119.264H287.158C289.286 119.264 290.35 118.163 290.35 115.96V103.92L292.226 102.94V115.988C292.226 117.575 291.76 118.825 290.826 119.74C289.949 120.58 288.792 121 287.354 121H286.374ZM297.268 121V103.92L299.144 102.94V121H297.268ZM206.62 149.98C205.873 149.98 205.5 149.588 205.5 148.804C205.5 148.057 205.873 147.684 206.62 147.684C207.366 147.684 207.74 148.057 207.74 148.804C207.74 149.588 207.366 149.98 206.62 149.98ZM209.84 149.98C209.074 149.98 208.692 149.588 208.692 148.804C208.692 148.057 209.074 147.684 209.84 147.684C210.568 147.684 210.932 148.057 210.932 148.804C210.932 149.588 210.568 149.98 209.84 149.98ZM203.736 163C202.354 163 201.253 162.571 200.432 161.712C199.61 160.835 199.2 159.659 199.2 158.184V154.516L201.076 153.536V157.96C201.076 160.163 202.102 161.264 204.156 161.264H213.536C215.589 161.264 216.616 160.163 216.616 157.96V151.996L218.492 151.016V158.184C218.492 159.771 218.006 161.003 217.036 161.88C216.196 162.627 215.094 163 213.732 163H203.736ZM228.268 163C226.681 163 225.458 162.487 224.6 161.46C223.89 160.583 223.536 159.472 223.536 158.128V145.92L225.412 144.94V158.072C225.412 160.2 226.438 161.264 228.492 161.264H229.472V163H228.268ZM233.335 151.436C233.522 151.417 233.718 151.408 233.923 151.408C235.603 151.408 237.041 151.819 238.235 152.64C239.878 153.816 240.699 155.496 240.699 157.68V158.212C240.699 159.78 240.214 161.003 239.243 161.88C238.403 162.627 237.311 163 235.967 163H228.911V161.264H235.771C237.806 161.264 238.823 160.172 238.823 157.988V157.708C238.823 156.196 238.282 155.067 237.199 154.32C236.303 153.648 235.165 153.312 233.783 153.312C232.775 153.312 231.777 153.489 230.787 153.844V151.996L237.143 144.94H239.075L233.335 151.436ZM251.667 161.264H252.647V163H251.443C250.286 163 249.324 162.72 248.559 162.16C248.41 165.259 247.159 167.219 244.807 168.04C244.21 168.245 243.575 168.348 242.903 168.348C241.82 168.348 240.775 168.087 239.767 167.564V165.912C240.719 166.435 241.69 166.696 242.679 166.696C243.463 166.696 244.154 166.519 244.751 166.164C246.058 165.38 246.711 163.915 246.711 161.768V151.996L248.559 151.016V151.044L248.587 151.016V158.072C248.587 160.2 249.614 161.264 251.667 161.264ZM266.911 145.332C266.239 145.332 265.903 144.977 265.903 144.268C265.903 143.596 266.239 143.26 266.911 143.26C267.583 143.26 267.919 143.596 267.919 144.268C267.919 144.977 267.583 145.332 266.911 145.332ZM265.343 148.244C264.578 148.244 264.195 147.861 264.195 147.096C264.195 146.331 264.578 145.948 265.343 145.948C266.071 145.948 266.435 146.331 266.435 147.096C266.435 147.861 266.071 148.244 265.343 148.244ZM268.535 148.244C267.788 148.244 267.415 147.861 267.415 147.096C267.415 146.331 267.788 145.948 268.535 145.948C269.282 145.948 269.655 146.331 269.655 147.096C269.655 147.861 269.282 148.244 268.535 148.244ZM252.099 163V161.264H253.807C255.879 161.264 256.915 160.2 256.915 158.072V154.04L258.791 153.06V158.072C258.791 160.2 259.818 161.264 261.871 161.264H262.907C264.96 161.264 265.987 160.2 265.987 158.072V153.032L267.863 152.024V158.072C267.863 160.2 268.899 161.264 270.971 161.264H271.979C274.051 161.264 275.087 160.2 275.087 158.072V151.996L276.963 151.016V157.96C276.963 160.163 278.027 161.264 280.155 161.264H281.779V163H279.959C278.186 163 276.888 162.375 276.067 161.124C275.246 162.375 273.976 163 272.259 163H270.719C268.983 163 267.723 162.384 266.939 161.152C266.136 162.384 264.886 163 263.187 163H261.647C259.911 163 258.642 162.384 257.839 161.152C257.055 162.384 255.795 163 254.059 163H252.099ZM281.22 163V161.264H282.004C284.132 161.264 285.196 160.163 285.196 157.96V145.92L287.072 144.94V157.988C287.072 159.575 286.605 160.825 285.672 161.74C284.795 162.58 283.637 163 282.2 163H281.22ZM292.114 163V145.92L293.99 144.94V163H292.114ZM306.2 161.964C305.416 162.412 304.408 162.636 303.176 162.636C301.552 162.636 300.282 162.011 299.368 160.76C298.584 159.696 298.192 158.352 298.192 156.728C298.192 154.768 298.714 153.237 299.76 152.136C300.674 151.165 301.888 150.68 303.4 150.68C304.949 150.68 306.144 151.165 306.984 152.136C307.712 152.976 308.076 154.096 308.076 155.496V161.656C308.076 163.392 307.712 164.82 306.984 165.94C306.256 167.079 305.22 167.807 303.876 168.124C303.428 168.255 302.942 168.32 302.42 168.32C301.337 168.32 300.282 168.059 299.256 167.536V165.884C300.226 166.407 301.188 166.668 302.14 166.668C302.905 166.668 303.577 166.5 304.156 166.164C305.462 165.511 306.144 164.111 306.2 161.964ZM306.2 155.664C306.2 153.48 305.266 152.388 303.4 152.388C302.354 152.388 301.524 152.771 300.908 153.536C300.31 154.301 300.012 155.356 300.012 156.7C300.012 158.007 300.301 159.052 300.88 159.836C301.458 160.601 302.242 160.984 303.232 160.984C304.706 160.984 305.696 160.573 306.2 159.752V155.664ZM208.505 189.18C207.74 189.18 207.357 188.788 207.357 188.004C207.357 187.257 207.74 186.884 208.505 186.884C209.233 186.884 209.597 187.257 209.597 188.004C209.597 188.788 209.233 189.18 208.505 189.18ZM211.697 189.18C210.932 189.18 210.549 188.788 210.549 188.004C210.549 187.257 210.932 186.884 211.697 186.884C212.425 186.884 212.789 187.257 212.789 188.004C212.789 188.788 212.425 189.18 211.697 189.18ZM217.129 203.264H218.081V205H216.877C214.88 205 213.489 204.216 212.705 202.648C211.734 203.656 210.54 204.16 209.121 204.16C207.516 204.16 206.246 203.553 205.313 202.34C204.529 201.313 204.137 200.035 204.137 198.504C204.137 196.712 204.66 195.275 205.705 194.192C206.62 193.24 207.749 192.764 209.093 192.764C210.306 192.764 211.324 193.119 212.145 193.828V192.316L214.021 191.336V200.072C214.021 202.2 215.057 203.264 217.129 203.264ZM212.145 195.956C211.324 194.967 210.325 194.472 209.149 194.472C208.216 194.472 207.45 194.855 206.853 195.62C206.274 196.367 205.985 197.337 205.985 198.532C205.985 199.745 206.274 200.716 206.853 201.444C207.45 202.172 208.225 202.536 209.177 202.536C210.39 202.536 211.398 202.004 212.201 200.94C212.164 200.604 212.145 200.333 212.145 200.128V195.956ZM226.525 203.264H227.505V205H226.301C224.621 205 223.361 204.431 222.521 203.292C221.644 204.431 220.374 205 218.713 205H217.509V203.264H218.489C220.542 203.264 221.569 202.2 221.569 200.072V193.996L223.445 193.016V200.072C223.445 202.2 224.472 203.264 226.525 203.264ZM220.169 207.94C220.916 207.94 221.289 208.323 221.289 209.088C221.289 209.853 220.916 210.236 220.169 210.236C219.422 210.236 219.049 209.853 219.049 209.088C219.049 208.323 219.422 207.94 220.169 207.94ZM223.361 207.94C224.108 207.94 224.481 208.323 224.481 209.088C224.481 209.853 224.108 210.236 223.361 210.236C222.614 210.236 222.241 209.853 222.241 209.088C222.241 208.323 222.614 207.94 223.361 207.94ZM241.279 203.264V205H226.943V203.264H231.647C230.471 202.069 229.883 200.483 229.883 198.504C229.883 196.619 230.527 195.125 231.815 194.024C232.841 193.147 234.045 192.699 235.427 192.68C237.349 192.68 238.852 193.436 239.935 194.948V196.796C238.815 195.191 237.377 194.388 235.623 194.388H235.539C234.419 194.388 233.504 194.771 232.795 195.536C232.104 196.301 231.759 197.309 231.759 198.56C231.759 199.997 232.188 201.145 233.047 202.004C233.868 202.844 234.969 203.264 236.351 203.264H241.279ZM249.924 205C248.337 205 247.115 204.487 246.256 203.46C245.547 202.583 245.192 201.472 245.192 200.128V187.92L247.068 186.94V200.072C247.068 202.2 248.095 203.264 250.148 203.264H251.128V205H249.924ZM255.244 189.32C254.478 189.32 254.096 188.928 254.096 188.144C254.096 187.397 254.478 187.024 255.244 187.024C255.972 187.024 256.336 187.397 256.336 188.144C256.336 188.928 255.972 189.32 255.244 189.32ZM259.584 203.264H260.564V205H259.36C257.68 205 256.42 204.431 255.58 203.292C254.702 204.431 253.433 205 251.772 205H250.568V203.264H251.548C253.601 203.264 254.628 202.2 254.628 200.072V193.996L256.504 193.016V200.072C256.504 202.2 257.53 203.264 259.584 203.264ZM288.001 203.264H288.981V205H287.777C286.097 205 284.837 204.431 283.997 203.292C283.157 204.431 281.888 205 280.189 205H268.793C267.113 205 265.853 204.431 265.013 203.292C264.136 204.431 262.867 205 261.205 205H260.001V203.264H260.981C263.035 203.264 264.061 202.2 264.061 200.072V196.04L265.937 195.06V200.072C265.937 201.827 266.619 202.853 267.981 203.152C268.672 200.277 269.876 197.869 271.593 195.928C273.516 193.763 275.775 192.68 278.369 192.68C280.46 192.68 282.121 193.399 283.353 194.836C284.399 196.068 284.921 197.589 284.921 199.4V200.128C284.921 202.219 285.948 203.264 288.001 203.264ZM280.049 203.264C282.047 203.264 283.045 202.163 283.045 199.96V199.4C283.045 197.832 282.551 196.572 281.561 195.62C280.721 194.799 279.667 194.388 278.397 194.388C276.213 194.388 274.272 195.415 272.573 197.468C271.285 199.036 270.315 200.968 269.661 203.264H280.049ZM288.411 205V203.264H289.195C291.323 203.264 292.387 202.163 292.387 199.96V187.92L294.263 186.94V199.988C294.263 201.575 293.797 202.825 292.863 203.74C291.986 204.58 290.829 205 289.391 205H288.411ZM299.305 205V187.92L301.181 186.94V205H299.305Z" fill="#280659"/>
<path d="M185.054 745.998C184.904 747.603 184.064 748.901 182.534 749.89C181.059 750.842 179.164 751.318 176.85 751.318C173.975 751.318 171.81 750.478 170.354 748.798C169.271 747.547 168.73 746.007 168.73 744.178C168.73 742.573 169.14 741.191 169.962 740.034L171.782 739.67C170.886 741.033 170.438 742.489 170.438 744.038C170.438 745.755 171.026 747.127 172.202 748.154C173.322 749.143 174.871 749.638 176.85 749.638C178.884 749.638 180.48 749.209 181.638 748.35C182.496 747.715 183 746.931 183.15 745.998H180.294L181.19 744.262H185.138V745.998H185.054ZM175.086 755.938C174.32 755.938 173.938 755.555 173.938 754.79C173.938 754.025 174.32 753.642 175.086 753.642C175.814 753.642 176.178 754.025 176.178 754.79C176.178 755.555 175.814 755.938 175.086 755.938ZM178.278 755.938C177.531 755.938 177.158 755.555 177.158 754.79C177.158 754.025 177.531 753.642 178.278 753.642C179.024 753.642 179.398 754.025 179.398 754.79C179.398 755.555 179.024 755.938 178.278 755.938ZM187.036 730.402C186.29 730.402 185.916 730.019 185.916 729.254C185.916 728.489 186.29 728.106 187.036 728.106C187.783 728.106 188.156 728.489 188.156 729.254C188.156 730.019 187.783 730.402 187.036 730.402ZM190.228 730.402C189.482 730.402 189.108 730.019 189.108 729.254C189.108 728.489 189.482 728.106 190.228 728.106C190.975 728.106 191.348 728.489 191.348 729.254C191.348 730.019 190.975 730.402 190.228 730.402ZM193.224 744.262H194.204V745.998H193C191.32 745.998 190.06 745.429 189.22 744.29C188.343 745.429 187.074 745.998 185.412 745.998H184.208V744.262H185.188C187.242 744.262 188.268 743.198 188.268 741.07V734.994L190.144 734.014V741.07C190.144 743.198 191.171 744.262 193.224 744.262ZM193.642 745.998V744.262H194.426C196.554 744.262 197.618 743.161 197.618 740.958V728.918L199.494 727.938V740.986C199.494 742.573 199.027 743.823 198.094 744.738C197.217 745.578 196.059 745.998 194.622 745.998H193.642ZM204.536 745.998V728.918L206.412 727.938V745.998H204.536ZM227.644 730.402C226.879 730.402 226.496 730.01 226.496 729.226C226.496 728.479 226.879 728.106 227.644 728.106C228.372 728.106 228.736 728.479 228.736 729.226C228.736 730.01 228.372 730.402 227.644 730.402ZM230.836 730.402C230.071 730.402 229.688 730.01 229.688 729.226C229.688 728.479 230.071 728.106 230.836 728.106C231.564 728.106 231.928 728.479 231.928 729.226C231.928 730.01 231.564 730.402 230.836 730.402ZM233.916 745.998C233.468 749.545 230.743 751.318 225.74 751.318C222.865 751.318 220.7 750.478 219.244 748.798C218.161 747.547 217.62 746.007 217.62 744.178C217.62 742.573 218.031 741.191 218.852 740.034L220.672 739.67C219.776 741.033 219.328 742.489 219.328 744.038C219.328 745.737 219.916 747.09 221.092 748.098C222.231 749.087 223.78 749.582 225.74 749.582C229.511 749.582 231.592 748.378 231.984 745.97L231.228 745.914C228.596 745.802 226.72 745.214 225.6 744.15C224.592 743.179 224.088 741.742 224.088 739.838C224.088 737.822 224.611 736.263 225.656 735.162C226.571 734.173 227.784 733.678 229.296 733.678C230.845 733.678 232.04 734.163 232.88 735.134C233.608 735.974 233.972 737.094 233.972 738.494V744.262H236.94V745.998H233.916ZM232.096 744.262V738.662C232.096 736.478 231.163 735.386 229.296 735.386C228.232 735.386 227.401 735.778 226.804 736.562C226.225 737.346 225.936 738.429 225.936 739.81C225.936 741.359 226.328 742.47 227.112 743.142C227.915 743.795 229.296 744.159 231.256 744.234L232.096 744.262ZM244.892 730.374C244.127 730.374 243.744 729.982 243.744 729.198C243.744 728.451 244.127 728.078 244.892 728.078C245.62 728.078 245.984 728.451 245.984 729.198C245.984 729.982 245.62 730.374 244.892 730.374ZM236.38 745.998V744.262H241.14C240.113 743.235 239.6 741.761 239.6 739.838C239.6 737.822 240.123 736.263 241.168 735.162C242.083 734.173 243.296 733.678 244.808 733.678C246.357 733.678 247.552 734.163 248.392 735.134C249.12 735.974 249.484 737.094 249.484 738.494V741.21C249.465 742.722 249.008 743.907 248.112 744.766C247.291 745.587 246.171 745.998 244.752 745.998H236.38ZM247.636 738.662C247.636 736.478 246.693 735.386 244.808 735.386C243.763 735.386 242.941 735.778 242.344 736.562C241.765 737.327 241.476 738.41 241.476 739.81C241.476 741.173 241.756 742.255 242.316 743.058C242.895 743.861 243.66 744.262 244.612 744.262C246.628 744.262 247.636 743.217 247.636 741.126V738.662ZM254.247 745.998V728.918L256.123 727.938V745.998H254.247ZM269.773 744.262H270.753V745.998H269.549C268.391 745.998 267.43 745.718 266.665 745.158C266.515 748.257 265.265 750.217 262.913 751.038C262.315 751.243 261.681 751.346 261.009 751.346C259.926 751.346 258.881 751.085 257.873 750.562V748.91C258.825 749.433 259.795 749.694 260.785 749.694C261.569 749.694 262.259 749.517 262.857 749.162C264.163 748.378 264.817 746.913 264.817 744.766V734.994L266.665 734.014V734.042L266.693 734.014V741.07C266.693 743.198 267.719 744.262 269.773 744.262ZM287.816 744.262H288.768V745.998H287.564C285.866 745.998 284.596 745.41 283.756 744.234C282.823 745.783 281.404 746.558 279.5 746.558C277.578 746.558 276.159 745.793 275.244 744.262C274.386 745.419 273.107 745.998 271.408 745.998H270.204V744.262H271.184C273.238 744.262 274.264 743.198 274.264 741.07V740.118C274.264 737.971 274.787 736.329 275.832 735.19C276.747 734.182 277.97 733.678 279.5 733.678C281.255 733.678 282.59 734.331 283.504 735.638C284.307 736.758 284.708 738.251 284.708 740.118V741.07C284.708 743.198 285.744 744.262 287.816 744.262ZM279.5 744.822C280.527 744.822 281.339 744.402 281.936 743.562C282.534 742.703 282.832 741.546 282.832 740.09C282.832 736.954 281.722 735.386 279.5 735.386C277.26 735.386 276.14 736.954 276.14 740.09C276.14 743.245 277.26 744.822 279.5 744.822ZM288.197 745.998V744.262H288.981C291.109 744.262 292.173 743.161 292.173 740.958V728.918L294.049 727.938V740.986C294.049 742.573 293.582 743.823 292.649 744.738C291.771 745.578 290.614 745.998 289.177 745.998H288.197ZM299.09 745.998V728.918L300.966 727.938V745.998H299.09ZM157.231 787.998C157.082 789.603 156.242 790.901 154.711 791.89C153.237 792.842 151.342 793.318 149.027 793.318C146.153 793.318 143.987 792.478 142.531 790.798C141.449 789.547 140.907 788.007 140.907 786.178C140.907 784.573 141.318 783.191 142.139 782.034L143.959 781.67C143.063 783.033 142.615 784.489 142.615 786.038C142.615 787.755 143.203 789.127 144.379 790.154C145.499 791.143 147.049 791.638 149.027 791.638C151.062 791.638 152.658 791.209 153.815 790.35C154.674 789.715 155.178 788.931 155.327 787.998H152.471L153.367 786.262H157.315V787.998H157.231ZM147.263 797.938C146.498 797.938 146.115 797.555 146.115 796.79C146.115 796.025 146.498 795.642 147.263 795.642C147.991 795.642 148.355 796.025 148.355 796.79C148.355 797.555 147.991 797.938 147.263 797.938ZM150.455 797.938C149.709 797.938 149.335 797.555 149.335 796.79C149.335 796.025 149.709 795.642 150.455 795.642C151.202 795.642 151.575 796.025 151.575 796.79C151.575 797.555 151.202 797.938 150.455 797.938ZM164.898 772.374C164.133 772.374 163.75 771.982 163.75 771.198C163.75 770.451 164.133 770.078 164.898 770.078C165.626 770.078 165.99 770.451 165.99 771.198C165.99 771.982 165.626 772.374 164.898 772.374ZM156.386 787.998V786.262H161.146C160.119 785.235 159.606 783.761 159.606 781.838C159.606 779.822 160.129 778.263 161.174 777.162C162.089 776.173 163.302 775.678 164.814 775.678C166.363 775.678 167.558 776.163 168.398 777.134C169.126 777.974 169.49 779.094 169.49 780.494V783.21C169.471 784.722 169.014 785.907 168.118 786.766C167.297 787.587 166.177 787.998 164.758 787.998H156.386ZM167.642 780.662C167.642 778.478 166.699 777.386 164.814 777.386C163.769 777.386 162.947 777.778 162.35 778.562C161.771 779.327 161.482 780.41 161.482 781.81C161.482 783.173 161.762 784.255 162.322 785.058C162.901 785.861 163.666 786.262 164.618 786.262C166.634 786.262 167.642 785.217 167.642 783.126V780.662ZM198.031 786.262H199.011V787.998H197.807C196.612 787.998 195.614 787.699 194.811 787.102C194.662 789.081 193.868 790.639 192.431 791.778C191.143 792.805 189.519 793.318 187.559 793.318C185.132 793.318 183.266 792.487 181.959 790.826C180.932 789.538 180.419 787.998 180.419 786.206C180.419 784.582 180.83 783.21 181.651 782.09L183.499 781.67C182.584 783.014 182.127 784.489 182.127 786.094C182.127 787.737 182.659 789.081 183.723 790.126C184.731 791.115 186.01 791.61 187.559 791.61C189.351 791.61 190.742 791.069 191.731 789.986C192.571 789.09 192.991 787.923 192.991 786.486V770.918L194.839 769.938V783.098V783.154C194.839 785.226 195.903 786.262 198.031 786.262ZM202.865 776.434C203.051 776.415 203.247 776.406 203.453 776.406C205.133 776.406 206.57 776.817 207.765 777.638C209.407 778.814 210.229 780.494 210.229 782.678V783.21C210.229 784.778 209.743 786.001 208.773 786.878C207.933 787.625 206.841 787.998 205.497 787.998H198.441V786.262H205.301C207.335 786.262 208.353 785.17 208.353 782.986V782.706C208.353 781.194 207.811 780.065 206.729 779.318C205.833 778.646 204.694 778.31 203.313 778.31C202.305 778.31 201.306 778.487 200.317 778.842V776.994L206.673 769.938H208.605L202.865 776.434ZM219.152 787.998C217.566 787.998 216.343 787.485 215.484 786.458C214.775 785.581 214.42 784.47 214.42 783.126V770.918L216.296 769.938V783.07C216.296 785.198 217.323 786.262 219.376 786.262H220.356V787.998H219.152ZM234.608 770.33C233.936 770.33 233.6 769.975 233.6 769.266C233.6 768.594 233.936 768.258 234.608 768.258C235.28 768.258 235.616 768.594 235.616 769.266C235.616 769.975 235.28 770.33 234.608 770.33ZM233.04 773.242C232.275 773.242 231.892 772.859 231.892 772.094C231.892 771.329 232.275 770.946 233.04 770.946C233.768 770.946 234.132 771.329 234.132 772.094C234.132 772.859 233.768 773.242 233.04 773.242ZM236.232 773.242C235.486 773.242 235.112 772.859 235.112 772.094C235.112 771.329 235.486 770.946 236.232 770.946C236.979 770.946 237.352 771.329 237.352 772.094C237.352 772.859 236.979 773.242 236.232 773.242ZM219.796 787.998V786.262H221.504C223.576 786.262 224.612 785.198 224.612 783.07V779.038L226.488 778.058V783.07C226.488 785.198 227.515 786.262 229.568 786.262H230.604C232.658 786.262 233.684 785.198 233.684 783.07V778.03L235.56 777.022V783.07C235.56 785.198 236.596 786.262 238.668 786.262H239.676C241.748 786.262 242.784 785.198 242.784 783.07V776.994L244.66 776.014V782.958C244.66 785.161 245.724 786.262 247.852 786.262H249.476V787.998H247.656C245.883 787.998 244.586 787.373 243.764 786.122C242.943 787.373 241.674 787.998 239.956 787.998H238.416C236.68 787.998 235.42 787.382 234.636 786.15C233.834 787.382 232.583 787.998 230.884 787.998H229.344C227.608 787.998 226.339 787.382 225.536 786.15C224.752 787.382 223.492 787.998 221.756 787.998H219.796ZM252.977 780.494C252.977 778.907 253.453 777.675 254.405 776.798C255.227 776.051 256.309 775.678 257.653 775.678C259.389 775.678 260.724 776.313 261.657 777.582C262.46 778.665 262.861 780.083 262.861 781.838C262.861 783.835 262.348 785.394 261.321 786.514C260.425 787.503 259.259 787.998 257.821 787.998C256.067 787.998 254.76 787.438 253.901 786.318C253.061 787.438 251.801 787.998 250.121 787.998H248.917V786.262H249.897C251.951 786.262 252.977 785.198 252.977 783.07V780.494ZM254.853 783.182C254.853 785.235 255.861 786.262 257.877 786.262C258.848 786.262 259.613 785.87 260.173 785.086C260.733 784.302 261.013 783.21 261.013 781.81C261.013 780.429 260.715 779.346 260.117 778.562C259.539 777.778 258.717 777.386 257.653 777.386C255.787 777.386 254.853 778.478 254.853 780.662V783.182ZM285.533 786.262H286.485V787.998H285.281C283.284 787.998 281.893 787.214 281.109 785.646C280.139 786.654 278.944 787.158 277.525 787.158C275.92 787.158 274.651 786.551 273.717 785.338C272.933 784.311 272.541 783.033 272.541 781.502C272.541 779.71 273.064 778.273 274.109 777.19C275.024 776.238 276.153 775.762 277.497 775.762C278.711 775.762 279.728 776.117 280.549 776.826V775.314L282.425 774.334V783.07C282.425 785.198 283.461 786.262 285.533 786.262ZM280.549 778.954C279.728 777.965 278.729 777.47 277.553 777.47C276.62 777.47 275.855 777.853 275.257 778.618C274.679 779.365 274.389 780.335 274.389 781.53C274.389 782.743 274.679 783.714 275.257 784.442C275.855 785.17 276.629 785.534 277.581 785.534C278.795 785.534 279.803 785.002 280.605 783.938C280.568 783.602 280.549 783.331 280.549 783.126V778.954ZM285.913 787.998V786.262H289.049C293.119 786.262 296.292 784.881 298.569 782.118C296.908 778.945 294.901 777.358 292.549 777.358C290.944 777.358 289.376 778.17 287.845 779.794V777.946C289.376 776.434 290.972 775.678 292.633 775.678H292.689C295.62 775.678 298.159 777.657 300.305 781.614V782.762C297.58 786.253 293.819 787.998 289.021 787.998H285.913ZM293.305 793.234C292.54 793.234 292.157 792.842 292.157 792.058C292.157 791.311 292.54 790.938 293.305 790.938C294.033 790.938 294.397 791.311 294.397 792.058C294.397 792.842 294.033 793.234 293.305 793.234ZM304.217 787.998V770.918L306.093 769.938V787.998H304.217ZM323.427 786.262V787.998H320.459C320.441 789.23 320.039 790.313 319.255 791.246C318.49 792.198 317.491 792.823 316.259 793.122C315.811 793.253 315.326 793.318 314.803 793.318C313.721 793.318 312.666 793.057 311.639 792.534V790.882C312.61 791.405 313.571 791.666 314.523 791.666C315.289 791.666 315.961 791.498 316.539 791.162C317.118 790.863 317.603 790.406 317.995 789.79C318.387 789.193 318.583 788.595 318.583 787.998L316.203 787.914C314.131 787.821 312.582 787.167 311.555 785.954C310.715 784.927 310.295 783.555 310.295 781.838C310.295 779.822 310.818 778.263 311.863 777.162C312.797 776.173 314.047 775.678 315.615 775.678C317.239 775.678 318.481 776.163 319.339 777.134C320.086 777.974 320.459 779.094 320.459 780.494V786.262H323.427ZM318.583 780.69C318.583 778.487 317.594 777.386 315.615 777.386C314.514 777.386 313.655 777.778 313.039 778.562C312.442 779.327 312.143 780.41 312.143 781.81C312.143 784.591 313.515 786.047 316.259 786.178C317.081 786.234 317.855 786.262 318.583 786.262V780.69ZM324.535 772.318C323.769 772.318 323.387 771.926 323.387 771.142C323.387 770.395 323.769 770.022 324.535 770.022C325.263 770.022 325.627 770.395 325.627 771.142C325.627 771.926 325.263 772.318 324.535 772.318ZM327.727 772.318C326.961 772.318 326.579 771.926 326.579 771.142C326.579 770.395 326.961 770.022 327.727 770.022C328.455 770.022 328.819 770.395 328.819 771.142C328.819 771.926 328.455 772.318 327.727 772.318ZM322.855 787.998V786.262H323.835C325.888 786.262 326.915 785.198 326.915 783.07V776.994L328.791 776.014V783.126C328.791 784.694 328.333 785.917 327.419 786.794C326.579 787.597 325.459 787.998 324.059 787.998H322.855ZM147.901 814.178C147.136 814.178 146.753 813.786 146.753 813.002C146.753 812.255 147.136 811.882 147.901 811.882C148.629 811.882 148.993 812.255 148.993 813.002C148.993 813.786 148.629 814.178 147.901 814.178ZM151.093 814.178C150.328 814.178 149.945 813.786 149.945 813.002C149.945 812.255 150.328 811.882 151.093 811.882C151.821 811.882 152.185 812.255 152.185 813.002C152.185 813.786 151.821 814.178 151.093 814.178ZM156.525 828.262H157.477V829.998H156.273C154.276 829.998 152.885 829.214 152.101 827.646C151.131 828.654 149.936 829.158 148.517 829.158C146.912 829.158 145.643 828.551 144.709 827.338C143.925 826.311 143.533 825.033 143.533 823.502C143.533 821.71 144.056 820.273 145.101 819.19C146.016 818.238 147.145 817.762 148.489 817.762C149.703 817.762 150.72 818.117 151.541 818.826V817.314L153.417 816.334V825.07C153.417 827.198 154.453 828.262 156.525 828.262ZM151.541 820.954C150.72 819.965 149.721 819.47 148.545 819.47C147.612 819.47 146.847 819.853 146.249 820.618C145.671 821.365 145.381 822.335 145.381 823.53C145.381 824.743 145.671 825.714 146.249 826.442C146.847 827.17 147.621 827.534 148.573 827.534C149.787 827.534 150.795 827.002 151.597 825.938C151.56 825.602 151.541 825.331 151.541 825.126V820.954ZM160.966 822.494C160.966 820.907 161.442 819.675 162.394 818.798C163.215 818.051 164.298 817.678 165.642 817.678C167.378 817.678 168.712 818.313 169.646 819.582C170.448 820.665 170.85 822.083 170.85 823.838C170.85 825.835 170.336 827.394 169.31 828.514C168.414 829.503 167.247 829.998 165.81 829.998C164.055 829.998 162.748 829.438 161.89 828.318C161.05 829.438 159.79 829.998 158.11 829.998H156.906V828.262H157.886C159.939 828.262 160.966 827.198 160.966 825.07V822.494ZM162.842 825.182C162.842 827.235 163.85 828.262 165.866 828.262C166.836 828.262 167.602 827.87 168.162 827.086C168.722 826.302 169.002 825.21 169.002 823.81C169.002 822.429 168.703 821.346 168.106 820.562C167.527 819.778 166.706 819.386 165.642 819.386C163.775 819.386 162.842 820.478 162.842 822.662V825.182ZM190.659 828.262H191.639V829.998H190.435C188.718 829.998 187.439 829.41 186.599 828.234C185.722 829.41 184.424 829.998 182.707 829.998H173.523L174.419 828.262H178.703V816.558L180.551 815.578V828.262H182.511C184.639 828.262 185.703 827.161 185.703 824.958V812.918L187.551 811.938V818.042L187.579 818.014V825.07C187.579 827.198 188.606 828.262 190.659 828.262ZM191.085 829.998V828.262H192.793C194.865 828.262 195.901 827.198 195.901 825.07V821.038L197.777 820.058V825.07C197.777 827.198 198.804 828.262 200.857 828.262H201.893C203.947 828.262 204.973 827.198 204.973 825.07V820.03L206.849 819.022V825.07C206.849 827.198 207.885 828.262 209.957 828.262H210.965C213.037 828.262 214.073 827.198 214.073 825.07V818.994L215.949 818.014V824.958C215.949 827.161 217.013 828.262 219.141 828.262H220.765V829.998H218.945C217.172 829.998 215.875 829.373 215.053 828.122C214.232 829.373 212.963 829.998 211.245 829.998H209.705C207.969 829.998 206.709 829.382 205.925 828.15C205.123 829.382 203.872 829.998 202.173 829.998H200.633C198.897 829.998 197.628 829.382 196.825 828.15C196.041 829.382 194.781 829.998 193.045 829.998H191.085ZM220.206 829.998V828.262H220.99C223.118 828.262 224.182 827.161 224.182 824.958V812.918L226.058 811.938V824.986C226.058 826.573 225.592 827.823 224.658 828.738C223.781 829.578 222.624 829.998 221.186 829.998H220.206ZM231.1 829.998V812.918L232.976 811.938V829.998H231.1ZM251.913 828.962C251.129 829.41 250.121 829.634 248.889 829.634C247.265 829.634 245.995 829.009 245.081 827.758C244.297 826.694 243.905 825.35 243.905 823.726C243.905 821.766 244.427 820.235 245.473 819.134C246.387 818.163 247.601 817.678 249.113 817.678C250.662 817.678 251.857 818.163 252.697 819.134C253.425 819.974 253.789 821.094 253.789 822.494V828.654C253.789 830.39 253.425 831.818 252.697 832.938C251.969 834.077 250.933 834.805 249.589 835.122C249.141 835.253 248.655 835.318 248.133 835.318C247.05 835.318 245.995 835.057 244.969 834.534V832.882C245.939 833.405 246.901 833.666 247.853 833.666C248.618 833.666 249.29 833.498 249.869 833.162C251.175 832.509 251.857 831.109 251.913 828.962ZM251.913 822.662C251.913 820.478 250.979 819.386 249.113 819.386C248.067 819.386 247.237 819.769 246.621 820.534C246.023 821.299 245.725 822.354 245.725 823.698C245.725 825.005 246.014 826.05 246.593 826.834C247.171 827.599 247.955 827.982 248.945 827.982C250.419 827.982 251.409 827.571 251.913 826.75V822.662ZM257.013 811.546L257.545 810.566H258.245C258.059 810.249 257.965 809.913 257.965 809.558C257.965 809.035 258.161 808.578 258.553 808.186C258.964 807.794 259.431 807.598 259.953 807.598C260.364 807.598 260.765 807.729 261.157 807.99V809.026C260.803 808.765 260.448 808.634 260.093 808.634C259.795 808.634 259.533 808.727 259.309 808.914C259.104 809.101 259.001 809.325 259.001 809.586C259.001 809.922 259.141 810.249 259.421 810.566H261.857L261.325 811.546H257.013ZM258.553 829.998V814.038L260.429 813.058V829.998H258.553ZM270.658 831.51V829.718C271.348 829.195 272.328 828.831 273.598 828.626C272.646 827.319 272.17 825.882 272.17 824.314C272.17 822.802 272.534 821.551 273.262 820.562C274.008 819.554 275.016 818.938 276.286 818.714C276.566 818.658 276.846 818.63 277.126 818.63C278.75 818.63 280.084 819.293 281.13 820.618V822.494C279.972 821.057 278.666 820.338 277.21 820.338C276.986 820.338 276.771 820.357 276.566 820.394C274.886 820.73 274.046 821.999 274.046 824.202C274.046 825.919 274.634 827.301 275.81 828.346C276.052 828.327 276.388 828.318 276.818 828.318C279.263 828.281 281.204 827.749 282.642 826.722V828.458C281.074 829.485 279.03 829.998 276.51 829.998C274.046 829.998 272.095 830.502 270.658 831.51ZM286.553 829.998V812.918L288.429 811.938V829.998H286.553ZM291.231 829.998L292.127 828.262H297.391C298.25 828.262 298.847 828.047 299.183 827.618C299.538 827.189 299.715 826.442 299.715 825.378C299.715 822.653 298.521 820.609 296.131 819.246L297.027 817.706C300.07 819.479 301.591 822.046 301.591 825.406C301.591 828.467 300.294 829.998 297.699 829.998H291.231ZM312.293 812.274L311.761 813.282H307.421L307.953 812.274H308.681C308.495 811.938 308.401 811.602 308.401 811.266C308.401 810.743 308.597 810.295 308.989 809.922C309.381 809.53 309.848 809.334 310.389 809.334C310.8 809.334 311.201 809.455 311.593 809.698V810.762C311.22 810.482 310.856 810.342 310.501 810.342C310.203 810.342 309.951 810.445 309.745 810.65C309.54 810.837 309.437 811.061 309.437 811.322C309.437 811.639 309.568 811.957 309.829 812.274H312.293ZM316.269 812.918L318.117 811.938V824.986C318.117 826.573 317.651 827.823 316.717 828.738C315.859 829.578 314.711 829.998 313.273 829.998H304.089L304.985 828.262H309.269V816.558L311.117 815.578V828.262H313.077C315.205 828.262 316.269 827.161 316.269 824.958V812.918ZM323.166 829.998V812.918L325.042 811.938V829.998H323.166Z" fill="#280659"/>
</svg>
