<svg width="1144" height="993" viewBox="0 0 1144 993" fill="none" xmlns="http://www.w3.org/2000/svg">
<path d="M915.274 349.163C992.099 349.163 1054.6 286.663 1054.6 209.838C1054.6 133.014 992.099 70.5117 915.274 70.5117C838.45 70.5117 775.949 133.014 775.949 209.838C775.949 286.663 838.45 349.163 915.274 349.163ZM915.274 72.3653C991.076 72.3653 1052.75 134.035 1052.75 209.838C1052.75 285.64 991.076 347.309 915.274 347.309C839.472 347.309 777.803 285.64 777.803 209.838C777.803 134.035 839.472 72.3653 915.274 72.3653Z" fill="#280659"/>
<path d="M915.275 365.639C920.672 365.639 926.117 365.358 931.458 364.807C931.968 364.756 932.337 364.3 932.284 363.79C932.233 363.281 931.779 362.902 931.267 362.964C923.174 363.799 914.847 363.996 906.739 363.552C906.241 363.512 905.793 363.917 905.764 364.427C905.735 364.939 906.128 365.375 906.637 365.403C909.49 365.559 912.396 365.639 915.275 365.639ZM836.44 344.101C836.756 344.101 837.064 343.939 837.237 343.647C837.497 343.206 837.354 342.638 836.913 342.378C833.404 340.298 829.938 338.054 826.613 335.706C826.201 335.412 825.619 335.509 825.322 335.928C825.027 336.346 825.125 336.925 825.545 337.22C828.91 339.597 832.416 341.868 835.967 343.972C836.116 344.06 836.278 344.101 836.44 344.101ZM790.863 303.017C791.057 303.017 791.251 302.957 791.415 302.834C791.827 302.528 791.912 301.948 791.607 301.538C771.798 274.869 761.328 243.16 761.328 209.838C761.328 206.631 761.427 203.402 761.621 200.246C761.653 199.735 761.265 199.295 760.752 199.263C760.234 199.262 759.801 199.622 759.772 200.132C759.575 203.327 759.475 206.592 759.475 209.838C759.475 243.561 770.072 275.652 790.12 302.642C790.3 302.887 790.582 303.017 790.863 303.017ZM1050.49 286.34C1050.82 286.34 1051.13 286.169 1051.3 285.866C1064.24 262.764 1071.08 236.476 1071.08 209.838C1071.08 203.176 1070.65 196.467 1069.81 189.899C1069.75 189.391 1069.31 189.023 1068.78 189.096C1068.27 189.162 1067.91 189.625 1067.98 190.132C1068.8 196.623 1069.22 203.254 1069.22 209.838C1069.22 236.158 1062.47 262.135 1049.68 284.96C1049.43 285.407 1049.59 285.972 1050.04 286.222C1050.18 286.302 1050.34 286.34 1050.49 286.34ZM771.488 153.114C771.854 153.114 772.203 152.894 772.349 152.533C784.542 122.148 806.653 95.9243 834.61 78.6909C835.046 78.4226 835.181 77.8516 834.913 77.4161C834.645 76.9777 834.074 76.8464 833.638 77.1131C805.346 94.5521 782.967 121.092 770.627 151.842C770.436 152.318 770.667 152.856 771.142 153.048C771.257 153.093 771.374 153.114 771.488 153.114ZM1054.94 143.754C1055.08 143.754 1055.21 143.724 1055.34 143.662C1055.8 143.44 1056 142.886 1055.77 142.426C1053.99 138.713 1052.03 135.018 1049.95 131.446C1049.69 131.001 1049.13 130.854 1048.68 131.111C1048.24 131.369 1048.09 131.936 1048.35 132.378C1050.4 135.909 1052.34 139.56 1054.11 143.228C1054.27 143.56 1054.59 143.754 1054.94 143.754ZM998.211 79.9442C998.516 79.9442 998.817 79.7915 998.994 79.5141C999.268 79.0823 999.141 78.5101 998.708 78.2351C991.733 73.8051 984.349 69.9031 976.766 66.6405C976.294 66.4374 975.752 66.6554 975.547 67.1256C975.345 67.5954 975.563 68.1415 976.033 68.343C983.526 71.5676 990.822 75.4226 997.714 79.7997C997.868 79.8984 998.041 79.9442 998.211 79.9442Z" fill="#280659"/>
<path d="M251.883 295.75C320.275 295.75 375.913 240.11 375.913 171.72C375.913 103.329 320.275 47.6895 251.883 47.6895C183.491 47.6895 127.853 103.329 127.853 171.72C127.853 240.11 183.491 295.75 251.883 295.75ZM251.883 50.17C318.907 50.17 373.433 104.698 373.433 171.72C373.433 238.742 318.906 293.27 251.883 293.27C184.859 293.27 130.333 238.742 130.333 171.72C130.333 104.697 184.859 50.17 251.883 50.17Z" fill="#280659"/>
<path d="M241.34 315.982C241.988 315.982 242.531 315.483 242.578 314.828C242.628 314.146 242.112 313.552 241.429 313.504C235.993 313.118 230.524 312.41 225.18 311.402C224.487 311.274 223.857 311.721 223.729 312.393C223.601 313.065 224.046 313.714 224.718 313.841C230.158 314.868 235.722 315.586 241.252 315.979C241.283 315.981 241.312 315.982 241.34 315.982ZM334.979 289.697C335.231 289.697 335.481 289.622 335.701 289.465C344.743 283.003 353.053 275.492 360.392 267.139C360.844 266.623 360.794 265.839 360.278 265.387C359.767 264.934 358.981 264.984 358.529 265.5C351.314 273.71 343.147 281.094 334.258 287.445C333.699 287.844 333.571 288.619 333.97 289.177C334.211 289.515 334.591 289.697 334.979 289.697ZM165.036 287.233C165.409 287.233 165.779 287.064 166.024 286.742C166.436 286.196 166.329 285.418 165.786 285.003C130.005 257.841 109.481 216.53 109.481 171.665C109.481 170.981 108.927 170.424 108.241 170.424C107.554 170.424 107 170.981 107 171.665C107 217.314 127.879 259.345 164.286 286.98C164.509 287.151 164.772 287.233 165.036 287.233ZM108.472 164.63C109.126 164.63 109.674 164.12 109.709 163.46C110.335 152.512 112.219 141.667 115.313 131.225C115.505 130.569 115.132 129.878 114.474 129.684C113.82 129.483 113.126 129.862 112.931 130.521C109.784 141.144 107.868 152.179 107.234 163.318C107.195 164.002 107.718 164.589 108.4 164.628C108.425 164.63 108.45 164.63 108.472 164.63ZM364.758 84.6439C365.025 84.6439 365.295 84.5583 365.523 84.3808C366.063 83.9575 366.159 83.1788 365.736 82.6388C338.091 47.2696 296.521 26.9841 251.68 26.9824L249.615 26.9968C248.932 27.0062 248.385 27.5694 248.391 28.2541C248.402 28.9334 248.953 29.4789 249.632 29.4789C249.636 29.4789 249.643 29.4789 249.65 29.4789L251.68 29.4645C295.752 29.4662 336.611 49.4051 363.78 84.1681C364.025 84.4798 364.392 84.6439 364.758 84.6439ZM171.784 53.7619C172.022 53.7619 172.264 53.6928 172.477 53.5502C177 50.5105 181.747 47.7029 186.583 45.2064C187.19 44.892 187.429 44.1453 187.116 43.5351C186.799 42.925 186.046 42.689 185.445 43.0018C180.524 45.5408 175.695 48.3982 171.09 51.4915C170.521 51.874 170.372 52.6438 170.752 53.212C170.995 53.5701 171.386 53.7619 171.784 53.7619Z" fill="#280659"/>
<path d="M233.536 967.744C323.772 967.744 397.187 894.332 397.187 804.093C397.187 713.855 323.771 640.441 233.536 640.441C143.3 640.441 69.8842 713.855 69.8842 804.093C69.8842 894.332 143.3 967.744 233.536 967.744ZM233.536 644.669C321.439 644.669 392.959 716.186 392.959 804.093C392.959 892 321.44 963.517 233.536 963.517C145.632 963.517 74.1121 892 74.1121 804.093C74.1121 716.186 145.631 644.669 233.536 644.669Z" fill="#280659"/>
<path d="M271.962 992.893C272.101 992.893 272.24 992.877 272.386 992.85C281.671 990.945 290.89 988.331 299.787 985.073C300.884 984.673 301.447 983.458 301.047 982.363C300.647 981.263 299.436 980.703 298.334 981.106C289.636 984.289 280.617 986.848 271.538 988.707C270.393 988.943 269.654 990.058 269.891 991.203C270.096 992.202 270.974 992.893 271.962 992.893ZM161.375 982.632C162.205 982.632 162.998 982.139 163.332 981.318C163.774 980.24 163.259 979.004 162.175 978.562C91.0499 949.443 45.0899 880.961 45.0899 804.096C45.0899 802.93 44.1457 801.983 42.9764 801.983C41.8071 801.983 40.8629 802.931 40.8629 804.096C40.8629 882.684 87.8518 952.702 160.577 982.475C160.836 982.58 161.109 982.632 161.375 982.632ZM413.681 868.499C414.559 868.499 415.376 867.951 415.68 867.075C421.882 849.138 425.382 830.364 426.079 811.276C426.121 810.11 425.207 809.132 424.043 809.089C422.771 808.869 421.893 809.956 421.851 811.125C421.172 829.792 417.751 848.151 411.681 865.694C411.3 866.797 411.887 868.002 412.99 868.384C413.22 868.462 413.45 868.499 413.681 868.499ZM47.6205 764.157C48.5902 764.157 49.4619 763.49 49.6794 762.506C66.3362 688.604 127.717 630.608 202.428 618.201C203.579 618.01 204.36 616.924 204.166 615.772C203.979 614.619 202.852 613.824 201.737 614.033C125.348 626.719 62.5808 686.014 45.5606 761.579C45.2999 762.717 46.0144 763.847 47.1536 764.105C47.3117 764.139 47.4689 764.157 47.6205 764.157Z" fill="#280659"/>
<path d="M926.763 952.259C1019 952.259 1094.04 877.219 1094.04 784.981C1094.04 692.746 1019 617.705 926.763 617.705C834.525 617.705 759.485 692.745 759.485 784.981C759.485 877.219 834.525 952.259 926.763 952.259ZM926.763 620.794C1017.29 620.794 1090.95 694.447 1090.95 784.981C1090.95 875.515 1017.29 949.17 926.763 949.17C836.23 949.17 762.575 875.515 762.575 784.981C762.575 694.447 836.229 620.794 926.763 620.794Z" fill="#280659"/>
<path d="M895.315 974.393C896.058 974.393 896.713 973.858 896.837 973.103C896.979 972.26 896.408 971.465 895.567 971.327C888.867 970.211 882.166 968.72 875.652 966.892C874.838 966.653 873.983 967.14 873.749 967.963C873.519 968.784 873.997 969.636 874.82 969.866C881.441 971.723 888.252 973.238 895.063 974.371C895.147 974.386 895.231 974.393 895.315 974.393ZM1015.16 955.261C1015.4 955.261 1015.65 955.203 1015.88 955.084C1028.1 948.666 1039.68 940.893 1050.27 931.982C1050.92 931.433 1051 930.46 1050.45 929.807C1049.9 929.154 1048.93 929.07 1048.28 929.618C1037.86 938.387 1026.47 946.035 1014.44 952.349C1013.69 952.745 1013.39 953.678 1013.79 954.433C1014.07 954.96 1014.61 955.261 1015.16 955.261ZM803.166 931.428C803.599 931.428 804.033 931.244 804.338 930.885C804.891 930.237 804.816 929.263 804.171 928.708C762.03 892.728 737.862 840.342 737.862 784.985C737.862 784.132 737.172 783.44 736.318 783.44C735.463 783.44 734.773 784.133 734.773 784.985C734.773 841.248 759.335 894.489 802.161 931.057C802.454 931.305 802.812 931.428 803.166 931.428ZM1100.31 708.009C1100.52 708.009 1100.74 707.964 1100.95 707.871C1101.73 707.519 1102.07 706.603 1101.72 705.826C1078.45 654.472 1034.11 616.08 980.064 600.493C979.215 600.268 978.387 600.732 978.153 601.551C977.913 602.37 978.387 603.226 979.206 603.463C1032.38 618.798 1076.01 656.573 1098.9 707.101C1099.17 707.672 1099.72 708.009 1100.31 708.009ZM755.003 704.161C755.578 704.161 756.131 703.837 756.396 703.284C762.269 691.048 769.509 679.404 777.905 668.676C778.432 668.006 778.312 667.034 777.639 666.508C776.962 665.99 775.997 666.101 775.471 666.774C766.939 677.676 759.583 689.51 753.608 701.948C753.241 702.716 753.564 703.638 754.334 704.009C754.551 704.112 754.777 704.161 755.003 704.161ZM877.967 602.397C878.095 602.397 878.228 602.382 878.362 602.346C884.907 600.615 891.629 599.224 898.342 598.21C899.188 598.082 899.768 597.296 899.639 596.453C899.515 595.61 898.763 595.035 897.882 595.157C891.058 596.189 884.225 597.602 877.573 599.359C876.751 599.578 876.255 600.423 876.475 601.247C876.657 601.939 877.281 602.397 877.967 602.397Z" fill="#280659"/>
<path d="M542.888 349.174C612.129 349.174 668.259 405.304 668.259 474.544C668.259 543.785 612.13 599.915 542.888 599.915C473.649 599.915 417.518 543.785 417.518 474.544C417.518 405.305 473.649 349.174 542.888 349.174Z" fill="white"/>
<path d="M542.891 601.46C612.873 601.46 669.804 544.525 669.804 474.544C669.804 404.562 612.873 347.629 542.891 347.629C472.909 347.629 415.975 404.562 415.975 474.544C415.975 544.525 472.909 601.46 542.891 601.46ZM542.891 350.718C611.169 350.718 666.714 406.266 666.714 474.544C666.714 542.824 611.169 598.371 542.891 598.371C474.613 598.371 419.064 542.824 419.064 474.544C419.064 406.266 474.613 350.718 542.891 350.718Z" fill="#280659"/>
<path d="M528.715 471.294C518.318 466.096 511.245 455.397 511.245 443.066C511.245 425.597 525.451 411.393 542.919 411.393C560.329 411.393 574.533 425.597 574.533 443.066C574.533 455.397 567.46 466.096 557.124 471.294C580.758 477.52 598.168 499.1 598.168 524.729C598.168 542.017 487.612 542.017 487.612 524.729C487.612 499.1 505.08 477.52 528.715 471.294Z" fill="#764895"/>
<path d="M983.816 59.9258C999.553 59.9258 1012.31 72.6834 1012.31 88.4211C1012.31 104.159 999.553 116.916 983.816 116.916C968.078 116.916 955.32 104.159 955.32 88.4211C955.32 72.6834 968.078 59.9258 983.816 59.9258Z" fill="white"/>
<path d="M983.814 117.843C1000.04 117.843 1013.24 104.644 1013.24 88.4214C1013.24 72.1969 1000.04 58.998 983.814 58.998C967.592 58.998 954.394 72.1969 954.394 88.4214C954.394 104.644 967.591 117.843 983.814 117.843ZM983.814 60.852C999.017 60.852 1011.38 73.2195 1011.38 88.421C1011.38 103.623 999.017 115.989 983.814 115.989C968.614 115.989 956.248 103.623 956.248 88.421C956.248 73.2195 968.614 60.852 983.814 60.852Z" fill="#280659"/>
<path d="M980.595 87.6834C978.232 86.5019 976.624 84.0703 976.624 81.2676C976.624 77.2971 979.853 74.0684 983.824 74.0684C987.781 74.0684 991.009 77.2971 991.009 81.2676C991.009 84.0703 989.402 86.5019 987.052 87.6834C992.424 89.0985 996.381 94.0033 996.381 99.8287C996.381 103.758 971.253 103.758 971.253 99.8287C971.253 94.0029 975.223 89.0981 980.595 87.6834Z" fill="#735D93"/>
<path d="M1046.71 243.674C1062.45 243.674 1075.2 256.431 1075.2 272.169C1075.2 287.907 1062.45 300.665 1046.71 300.665C1030.97 300.665 1018.21 287.907 1018.21 272.169C1018.21 256.431 1030.97 243.674 1046.71 243.674Z" fill="white"/>
<path d="M1046.71 301.595C1062.93 301.595 1076.13 288.395 1076.13 272.172C1076.13 255.949 1062.93 242.75 1046.71 242.75C1030.48 242.75 1017.29 255.949 1017.29 272.172C1017.29 288.396 1030.48 301.595 1046.71 301.595ZM1046.71 244.604C1061.91 244.604 1074.28 256.97 1074.28 272.172C1074.28 287.373 1061.91 299.741 1046.71 299.741C1031.51 299.741 1019.14 287.373 1019.14 272.172C1019.14 256.97 1031.51 244.604 1046.71 244.604Z" fill="#280659"/>
<path d="M1043.49 271.431C1041.12 270.25 1039.52 267.818 1039.52 265.016C1039.52 261.045 1042.74 257.816 1046.72 257.816C1050.67 257.816 1053.9 261.045 1053.9 265.016C1053.9 267.818 1052.29 270.25 1049.94 271.431C1055.32 272.847 1059.27 277.751 1059.27 283.577C1059.27 287.506 1034.14 287.506 1034.14 283.577C1034.14 277.751 1038.11 272.847 1043.49 271.431Z" fill="#BCB2CC"/>
<path d="M783.76 130.822C799.497 130.822 812.255 143.58 812.255 159.318C812.255 175.055 799.497 187.813 783.76 187.813C768.022 187.813 755.264 175.055 755.264 159.318C755.264 143.58 768.022 130.822 783.76 130.822Z" fill="white"/>
<path d="M783.761 188.743C799.984 188.743 813.181 175.544 813.181 159.32C813.181 143.097 799.983 129.898 783.761 129.898C767.538 129.898 754.338 143.097 754.338 159.32C754.338 175.544 767.538 188.743 783.761 188.743ZM783.761 131.752C798.961 131.752 811.328 144.119 811.328 159.32C811.328 174.522 798.961 186.889 783.761 186.889C768.558 186.889 756.192 174.522 756.192 159.32C756.192 144.119 768.558 131.752 783.761 131.752Z" fill="#280659"/>
<path d="M780.539 158.58C778.176 157.399 776.568 154.967 776.568 152.164C776.568 148.194 779.797 144.965 783.767 144.965C787.724 144.965 790.953 148.194 790.953 152.164C790.953 154.967 789.346 157.398 786.996 158.58C792.368 159.995 796.325 164.9 796.325 170.725C796.325 174.654 771.197 174.654 771.197 170.725C771.196 164.9 775.167 159.995 780.539 158.58Z" fill="#472B59"/>
<path d="M867.238 304.375C882.975 304.375 895.733 317.133 895.733 332.87C895.733 348.608 882.975 361.366 867.238 361.366C851.5 361.366 838.742 348.608 838.742 332.87C838.742 317.133 851.5 304.375 867.238 304.375Z" fill="white"/>
<path d="M867.237 362.292C883.46 362.292 896.661 349.093 896.661 332.87C896.661 316.646 883.461 303.447 867.237 303.447C851.015 303.447 837.814 316.646 837.814 332.87C837.814 349.093 851.014 362.292 867.237 362.292ZM867.237 305.302C882.44 305.302 894.806 317.669 894.806 332.871C894.806 348.072 882.44 360.438 867.237 360.438C852.035 360.438 839.668 348.072 839.668 332.871C839.668 317.669 852.035 305.302 867.237 305.302Z" fill="#280659"/>
<path d="M864.016 332.133C861.652 330.951 860.045 328.52 860.045 325.717C860.045 321.746 863.273 318.518 867.244 318.518C871.201 318.518 874.43 321.746 874.43 325.717C874.43 328.52 872.822 330.951 870.473 332.133C875.845 333.548 879.802 338.453 879.802 344.278C879.802 348.207 854.673 348.207 854.673 344.278C854.673 338.453 858.644 333.548 864.016 332.133Z" fill="#818181"/>
<path d="M225.162 1.57422C246.218 1.57422 263.287 18.6437 263.287 39.6994C263.287 60.7551 246.218 77.8246 225.162 77.8246C204.106 77.8246 187.037 60.7551 187.037 39.6994C187.036 18.6437 204.106 1.57422 225.162 1.57422Z" fill="white"/>
<path d="M225.164 79.0649C246.869 79.0649 264.526 61.4055 264.526 39.7003C264.526 17.9934 246.869 0.333984 225.164 0.333984C203.459 0.333984 185.798 17.9934 185.798 39.7003C185.797 61.4055 203.458 79.0649 225.164 79.0649ZM225.164 2.81399C245.501 2.81399 262.046 19.3615 262.046 39.6997C262.046 60.0385 245.501 76.5838 225.164 76.5838C204.823 76.5838 188.278 60.0385 188.278 39.6997C188.278 19.3615 204.823 2.81399 225.164 2.81399Z" fill="#280659"/>
<path d="M220.851 38.7108C217.689 37.1295 215.538 33.8762 215.538 30.1264C215.538 24.814 219.858 20.4941 225.171 20.4941C230.465 20.4941 234.785 24.814 234.785 30.1264C234.785 33.8762 232.634 37.1295 229.491 38.7108C236.678 40.6042 241.972 47.1666 241.972 54.9601C241.972 60.2172 208.352 60.2172 208.352 54.9601C208.351 47.166 213.664 40.6037 220.851 38.7108Z" fill="#A8A8A8"/>
<path d="M124.445 164.723C145.502 164.723 162.57 181.792 162.57 202.848C162.57 223.904 145.501 240.973 124.445 240.973C103.389 240.973 86.32 223.904 86.32 202.848C86.3206 181.792 103.39 164.723 124.445 164.723Z" fill="white"/>
<path d="M124.447 242.215C146.152 242.215 163.81 224.556 163.81 202.849C163.81 181.144 146.152 163.484 124.447 163.484C102.741 163.484 85.0803 181.144 85.0803 202.849C85.0803 224.556 102.742 242.215 124.447 242.215ZM124.447 165.965C144.784 165.965 161.33 182.51 161.33 202.85C161.33 223.188 144.784 239.735 124.447 239.735C104.106 239.735 87.5608 223.188 87.5608 202.85C87.5608 182.51 104.106 165.965 124.447 165.965Z" fill="#280659"/>
<path d="M120.135 201.861C116.973 200.28 114.822 197.027 114.822 193.277C114.822 187.964 119.142 183.645 124.454 183.645C129.749 183.645 134.068 187.964 134.068 193.277C134.068 197.027 131.918 200.28 128.774 201.861C135.961 203.755 141.255 210.317 141.255 218.111C141.255 223.368 107.635 223.368 107.635 218.111C107.635 210.317 112.947 203.755 120.135 201.861Z" fill="#280659"/>
<path d="M376.633 133.604C397.689 133.604 414.758 150.672 414.758 171.729C414.758 192.784 397.689 209.854 376.633 209.854C355.577 209.854 338.508 192.785 338.508 171.729C338.508 150.673 355.577 133.604 376.633 133.604Z" fill="white"/>
<path d="M376.634 211.096C398.339 211.096 416 193.437 416 171.732C416 150.025 398.339 132.365 376.634 132.365C354.928 132.365 337.267 150.025 337.267 171.732C337.267 193.437 354.929 211.096 376.634 211.096ZM376.634 134.845C396.975 134.845 413.52 151.393 413.52 171.731C413.52 192.07 396.975 208.615 376.634 208.615C356.293 208.615 339.748 192.07 339.748 171.731C339.748 151.393 356.293 134.845 376.634 134.845Z" fill="#280659"/>
<path d="M372.322 170.74C369.161 169.159 367.01 165.906 367.01 162.156C367.01 156.843 371.329 152.523 376.642 152.523C381.936 152.523 386.256 156.843 386.256 162.156C386.256 165.906 384.105 169.159 380.962 170.74C388.149 172.633 393.443 179.195 393.443 186.989C393.443 192.247 359.823 192.247 359.823 186.989C359.823 179.196 365.135 172.634 372.322 170.74Z" fill="#BCB2CC"/>
<path d="M67.096 774.193C102.985 774.193 132.079 803.287 132.079 839.176C132.079 875.064 102.985 904.158 67.096 904.158C31.2075 904.158 2.11348 875.065 2.11348 839.176C2.11348 803.287 31.2066 774.193 67.096 774.193Z" fill="white"/>
<path d="M67.0981 906.275C104.094 906.275 134.19 876.176 134.19 839.18C134.19 802.182 104.094 772.082 67.0981 772.082C30.1025 772.082 9.15527e-05 802.182 9.15527e-05 839.18C0.0010376 876.176 30.1034 906.275 67.0981 906.275ZM67.0981 776.309C101.762 776.309 129.963 804.514 129.963 839.179C129.963 873.846 101.763 902.047 67.0981 902.047C32.4288 902.047 4.22806 873.847 4.22806 839.179C4.22806 804.514 32.4288 776.309 67.0981 776.309Z" fill="#280659"/>
<path d="M59.7485 837.49C54.3588 834.796 50.6928 829.25 50.6928 822.859C50.6928 813.804 58.0557 806.441 67.1105 806.441C76.1341 806.441 83.4971 813.804 83.4971 822.859C83.4971 829.25 79.8312 834.796 74.4744 837.49C86.7243 840.717 95.748 851.902 95.748 865.187C95.748 874.149 38.4438 874.149 38.4438 865.187C38.4438 851.902 47.4976 840.717 59.7485 837.49Z" fill="#D5C6DE"/>
<path d="M364.034 842.66C399.925 842.66 429.017 871.754 429.017 907.643C429.017 943.531 399.924 972.625 364.034 972.625C328.146 972.625 299.052 943.531 299.052 907.643C299.052 871.754 328.147 842.66 364.034 842.66Z" fill="white"/>
<path d="M364.037 974.743C401.032 974.743 431.129 944.642 431.129 907.648C431.129 870.649 401.032 840.549 364.037 840.549C327.041 840.549 296.938 870.649 296.938 907.648C296.938 944.642 327.042 974.743 364.037 974.743ZM364.037 844.777C398.7 844.777 426.901 872.98 426.901 907.648C426.901 942.314 398.7 970.515 364.037 970.515C329.367 970.515 301.167 942.314 301.167 907.648C301.167 872.98 329.367 844.777 364.037 844.777Z" fill="#280659"/>
<path d="M356.688 905.96C351.3 903.264 347.633 897.719 347.633 891.328C347.633 882.273 354.996 874.91 364.051 874.91C373.074 874.91 380.437 882.273 380.437 891.328C380.437 897.719 376.771 903.264 371.414 905.96C383.664 909.187 392.688 920.372 392.688 933.656C392.688 942.617 335.384 942.617 335.384 933.656C335.383 920.372 344.438 909.187 356.688 905.96Z" fill="#B59CC6"/>
<path d="M1094.1 755.816C1120.33 755.816 1141.58 777.074 1141.58 803.298C1141.58 829.52 1120.33 850.779 1094.1 850.779C1067.88 850.779 1046.62 829.52 1046.62 803.298C1046.62 777.075 1067.88 755.816 1094.1 755.816Z" fill="white"/>
<path d="M1094.1 852.324C1121.13 852.324 1143.13 830.331 1143.13 803.298C1143.13 776.266 1121.13 754.273 1094.1 754.273C1067.07 754.273 1045.08 776.266 1045.08 803.298C1045.08 830.331 1067.07 852.324 1094.1 852.324ZM1094.1 757.362C1119.43 757.362 1140.04 777.967 1140.04 803.297C1140.04 828.627 1119.43 849.235 1094.1 849.235C1068.77 849.235 1048.17 828.627 1048.17 803.297C1048.17 777.968 1068.77 757.362 1094.1 757.362Z" fill="#280659"/>
<path d="M1088.74 802.068C1084.8 800.099 1082.12 796.047 1082.12 791.377C1082.12 784.761 1087.5 779.381 1094.11 779.381C1100.71 779.381 1106.09 784.761 1106.09 791.377C1106.09 796.047 1103.41 800.099 1099.5 802.068C1108.45 804.426 1115.04 812.598 1115.04 822.304C1115.04 828.852 1073.17 828.852 1073.17 822.304C1073.17 812.598 1079.78 804.426 1088.74 802.068Z" fill="#9E8FB4"/>
<path d="M850.297 886.373C876.521 886.373 897.777 907.631 897.777 933.854C897.777 960.076 876.52 981.334 850.297 981.334C824.074 981.334 802.816 960.076 802.816 933.854C802.816 907.631 824.075 886.373 850.297 886.373Z" fill="white"/>
<path d="M850.299 982.879C877.331 982.879 899.321 960.886 899.321 933.855C899.321 906.821 877.331 884.828 850.299 884.828C823.268 884.828 801.273 906.821 801.273 933.855C801.273 960.886 823.268 982.879 850.299 982.879ZM850.299 887.917C875.627 887.917 896.232 908.526 896.232 933.855C896.232 959.184 875.627 979.79 850.299 979.79C824.967 979.79 804.362 959.184 804.362 933.855C804.362 908.525 824.967 887.917 850.299 887.917Z" fill="#280659"/>
<path d="M844.928 932.624C840.991 930.656 838.312 926.603 838.312 921.933C838.312 915.317 843.692 909.938 850.308 909.938C856.901 909.938 862.281 915.317 862.281 921.933C862.281 926.603 859.603 930.655 855.688 932.624C864.639 934.982 871.232 943.155 871.232 952.861C871.232 959.408 829.362 959.408 829.362 952.861C829.361 943.155 835.977 934.982 844.928 932.624Z" fill="#B5B5B5"/>
<path d="M871.261 571.572C897.485 571.572 918.742 592.83 918.742 619.053C918.742 645.276 897.485 666.534 871.261 666.534C845.039 666.534 823.781 645.276 823.781 619.053C823.781 592.83 845.039 571.572 871.261 571.572Z" fill="white"/>
<path d="M871.262 668.078C898.294 668.078 920.289 646.085 920.289 619.054C920.289 592.02 898.294 570.027 871.262 570.027C844.231 570.027 822.235 592.02 822.235 619.054C822.235 646.085 844.23 668.078 871.262 668.078ZM871.262 573.117C896.594 573.117 917.199 593.725 917.199 619.054C917.199 644.384 896.594 664.989 871.262 664.989C845.93 664.989 825.324 644.384 825.324 619.054C825.324 593.724 845.93 573.117 871.262 573.117Z" fill="#280659"/>
<path d="M865.893 617.824C861.955 615.855 859.277 611.803 859.277 607.133C859.277 600.517 864.656 595.137 871.272 595.137C877.866 595.137 883.246 600.517 883.246 607.133C883.246 611.803 880.567 615.855 876.652 617.824C885.603 620.182 892.196 628.354 892.196 638.061C892.196 644.608 850.326 644.608 850.326 638.061C850.325 628.354 856.941 620.182 865.893 617.824Z" fill="#151515"/>
<path d="M354.641 263.216L444.13 351.623L442.572 353.2L353.083 264.793L354.641 263.216Z" fill="#280659"/>
<path d="M428.654 569.998L431.13 572.58L342.605 657.462L340.13 654.88L428.654 569.998Z" fill="#280659"/>
<path d="M669.018 565.998L758.682 651.742L757.347 653.139L667.682 567.395L669.018 565.998Z" fill="#280659"/>
<path d="M778.046 298.368L688.558 386.775L690.115 388.352L779.604 299.945L778.046 298.368Z" fill="#280659"/>
<path d="M833.09 179.375H834.07V181.111H832.866C831.709 181.111 830.747 180.831 829.982 180.271C829.833 183.37 828.582 185.33 826.23 186.151C825.633 186.357 824.998 186.459 824.326 186.459C823.243 186.459 822.198 186.198 821.19 185.675V184.023C822.142 184.546 823.113 184.807 824.102 184.807C824.886 184.807 825.577 184.63 826.174 184.275C827.481 183.491 828.134 182.026 828.134 179.879V170.107L829.982 169.127V169.155L830.01 169.127V176.183C830.01 178.311 831.037 179.375 833.09 179.375ZM851.134 179.375H852.086V181.111H850.882C849.183 181.111 847.914 180.523 847.074 179.347C846.14 180.897 844.722 181.671 842.818 181.671C840.895 181.671 839.476 180.906 838.562 179.375C837.703 180.533 836.424 181.111 834.726 181.111H833.522V179.375H834.502C836.555 179.375 837.582 178.311 837.582 176.183V175.231C837.582 173.085 838.104 171.442 839.15 170.303C840.064 169.295 841.287 168.791 842.818 168.791C844.572 168.791 845.907 169.445 846.822 170.751C847.624 171.871 848.026 173.365 848.026 175.231V176.183C848.026 178.311 849.062 179.375 851.134 179.375ZM842.818 179.935C843.844 179.935 844.656 179.515 845.254 178.675C845.851 177.817 846.15 176.659 846.15 175.203C846.15 172.067 845.039 170.499 842.818 170.499C840.578 170.499 839.458 172.067 839.458 175.203C839.458 178.358 840.578 179.935 842.818 179.935ZM853.194 165.431C852.429 165.431 852.046 165.039 852.046 164.255C852.046 163.509 852.429 163.135 853.194 163.135C853.922 163.135 854.286 163.509 854.286 164.255C854.286 165.039 853.922 165.431 853.194 165.431ZM856.386 165.431C855.621 165.431 855.238 165.039 855.238 164.255C855.238 163.509 855.621 163.135 856.386 163.135C857.114 163.135 857.478 163.509 857.478 164.255C857.478 165.039 857.114 165.431 856.386 165.431ZM851.514 181.111V179.375H852.494C854.547 179.375 855.574 178.311 855.574 176.183V170.107L857.45 169.127V176.239C857.45 177.807 856.993 179.03 856.078 179.907C855.238 180.71 854.118 181.111 852.718 181.111H851.514ZM884.98 181.111C884.831 182.717 883.991 184.014 882.46 185.003C880.986 185.955 879.091 186.431 876.776 186.431C873.902 186.431 871.736 185.591 870.28 183.911C869.198 182.661 868.656 181.121 868.656 179.291C868.656 177.686 869.067 176.305 869.888 175.147L871.708 174.783C870.812 176.146 870.364 177.602 870.364 179.151C870.364 180.869 870.952 182.241 872.128 183.267C873.248 184.257 874.798 184.751 876.776 184.751C878.811 184.751 880.407 184.322 881.564 183.463C882.423 182.829 882.927 182.045 883.076 181.111H880.22L881.116 179.375H885.064V181.111H884.98ZM875.012 191.051C874.247 191.051 873.864 190.669 873.864 189.903C873.864 189.138 874.247 188.755 875.012 188.755C875.74 188.755 876.104 189.138 876.104 189.903C876.104 190.669 875.74 191.051 875.012 191.051ZM878.204 191.051C877.458 191.051 877.084 190.669 877.084 189.903C877.084 189.138 877.458 188.755 878.204 188.755C878.951 188.755 879.324 189.138 879.324 189.903C879.324 190.669 878.951 191.051 878.204 191.051ZM886.963 165.515C886.216 165.515 885.843 165.133 885.843 164.367C885.843 163.602 886.216 163.219 886.963 163.219C887.71 163.219 888.083 163.602 888.083 164.367C888.083 165.133 887.71 165.515 886.963 165.515ZM890.155 165.515C889.408 165.515 889.035 165.133 889.035 164.367C889.035 163.602 889.408 163.219 890.155 163.219C890.902 163.219 891.275 163.602 891.275 164.367C891.275 165.133 890.902 165.515 890.155 165.515ZM893.151 179.375H894.131V181.111H892.927C891.247 181.111 889.987 180.542 889.147 179.403C888.27 180.542 887 181.111 885.339 181.111H884.135V179.375H885.115C887.168 179.375 888.195 178.311 888.195 176.183V170.107L890.071 169.127V176.183C890.071 178.311 891.098 179.375 893.151 179.375ZM893.569 181.111V179.375H894.353C896.481 179.375 897.545 178.274 897.545 176.071V164.031L899.421 163.051V176.099C899.421 177.686 898.954 178.937 898.021 179.851C897.143 180.691 895.986 181.111 894.549 181.111H893.569ZM904.462 181.111V164.031L906.338 163.051V181.111H904.462ZM925.527 168.091C924.78 168.091 924.407 167.699 924.407 166.915C924.407 166.169 924.78 165.795 925.527 165.795C926.274 165.795 926.647 166.169 926.647 166.915C926.647 167.699 926.274 168.091 925.527 168.091ZM928.747 168.091C927.982 168.091 927.599 167.699 927.599 166.915C927.599 166.169 927.982 165.795 928.747 165.795C929.475 165.795 929.839 166.169 929.839 166.915C929.839 167.699 929.475 168.091 928.747 168.091ZM922.643 181.111C921.262 181.111 920.16 180.682 919.339 179.823C918.518 178.946 918.107 177.77 918.107 176.295V172.627L919.983 171.647V176.071C919.983 178.274 921.01 179.375 923.063 179.375H932.443C934.496 179.375 935.523 178.274 935.523 176.071V170.107L937.399 169.127V176.295C937.399 177.882 936.914 179.114 935.943 179.991C935.103 180.738 934.002 181.111 932.639 181.111H922.643ZM947.175 181.111C945.588 181.111 944.366 180.598 943.507 179.571C942.798 178.694 942.443 177.583 942.443 176.239V164.031L944.319 163.051V176.183C944.319 178.311 945.346 179.375 947.399 179.375H948.379V181.111H947.175ZM952.243 169.547C952.429 169.529 952.625 169.519 952.831 169.519C954.511 169.519 955.948 169.93 957.143 170.751C958.785 171.927 959.607 173.607 959.607 175.791V176.323C959.607 177.891 959.121 179.114 958.151 179.991C957.311 180.738 956.219 181.111 954.875 181.111H947.819V179.375H954.679C956.713 179.375 957.731 178.283 957.731 176.099V175.819C957.731 174.307 957.189 173.178 956.107 172.431C955.211 171.759 954.072 171.423 952.691 171.423C951.683 171.423 950.684 171.601 949.695 171.955V170.107L956.051 163.051H957.983L952.243 169.547ZM970.574 179.375H971.554V181.111H970.35C969.193 181.111 968.232 180.831 967.466 180.271C967.317 183.37 966.066 185.33 963.714 186.151C963.117 186.357 962.482 186.459 961.81 186.459C960.728 186.459 959.682 186.198 958.674 185.675V184.023C959.626 184.546 960.597 184.807 961.586 184.807C962.37 184.807 963.061 184.63 963.658 184.275C964.965 183.491 965.618 182.026 965.618 179.879V170.107L967.466 169.127V169.155L967.494 169.127V176.183C967.494 178.311 968.521 179.375 970.574 179.375ZM985.818 163.443C985.146 163.443 984.81 163.089 984.81 162.379C984.81 161.707 985.146 161.371 985.818 161.371C986.49 161.371 986.826 161.707 986.826 162.379C986.826 163.089 986.49 163.443 985.818 163.443ZM984.25 166.355C983.485 166.355 983.102 165.973 983.102 165.207C983.102 164.442 983.485 164.059 984.25 164.059C984.978 164.059 985.342 164.442 985.342 165.207C985.342 165.973 984.978 166.355 984.25 166.355ZM987.442 166.355C986.695 166.355 986.322 165.973 986.322 165.207C986.322 164.442 986.695 164.059 987.442 164.059C988.189 164.059 988.562 164.442 988.562 165.207C988.562 165.973 988.189 166.355 987.442 166.355ZM971.006 181.111V179.375H972.714C974.786 179.375 975.822 178.311 975.822 176.183V172.151L977.698 171.171V176.183C977.698 178.311 978.725 179.375 980.778 179.375H981.814C983.867 179.375 984.894 178.311 984.894 176.183V171.143L986.77 170.135V176.183C986.77 178.311 987.806 179.375 989.878 179.375H990.886C992.958 179.375 993.994 178.311 993.994 176.183V170.107L995.87 169.127V176.071C995.87 178.274 996.934 179.375 999.062 179.375H1000.69V181.111H998.866C997.093 181.111 995.795 180.486 994.974 179.235C994.153 180.486 992.883 181.111 991.166 181.111H989.626C987.89 181.111 986.63 180.495 985.846 179.263C985.043 180.495 983.793 181.111 982.094 181.111H980.554C978.818 181.111 977.549 180.495 976.746 179.263C975.962 180.495 974.702 181.111 972.966 181.111H971.006ZM1000.13 181.111V179.375H1000.91C1003.04 179.375 1004.1 178.274 1004.1 176.071V164.031L1005.98 163.051V176.099C1005.98 177.686 1005.51 178.937 1004.58 179.851C1003.7 180.691 1002.54 181.111 1001.11 181.111H1000.13ZM1011.02 181.111V164.031L1012.9 163.051V181.111H1011.02ZM853.507 207.291C852.761 207.291 852.387 206.899 852.387 206.115C852.387 205.369 852.761 204.995 853.507 204.995C854.254 204.995 854.627 205.369 854.627 206.115C854.627 206.899 854.254 207.291 853.507 207.291ZM856.699 207.291C855.953 207.291 855.579 206.899 855.579 206.115C855.579 205.369 855.953 204.995 856.699 204.995C857.446 204.995 857.819 205.369 857.819 206.115C857.819 206.899 857.446 207.291 856.699 207.291ZM855.159 223.111C853.498 223.111 852.201 222.561 851.267 221.459C850.483 220.507 850.091 219.275 850.091 217.763C850.091 214.31 851.827 211.986 855.299 210.791C858.771 211.986 860.507 214.31 860.507 217.763C860.507 219.499 859.994 220.853 858.967 221.823C858.071 222.682 856.895 223.111 855.439 223.111H855.159ZM855.075 221.375H855.523C856.494 221.375 857.259 221.058 857.819 220.423C858.379 219.77 858.659 218.883 858.659 217.763C858.659 215.281 857.539 213.526 855.299 212.499C853.059 213.526 851.939 215.281 851.939 217.763C851.939 218.865 852.219 219.742 852.779 220.395C853.339 221.049 854.105 221.375 855.075 221.375ZM862.683 223.111L863.579 221.375H868.843C869.702 221.375 870.299 221.161 870.635 220.731C870.99 220.302 871.167 219.555 871.167 218.491C871.167 215.766 869.973 213.722 867.583 212.359L868.479 210.819C871.522 212.593 873.043 215.159 873.043 218.519C873.043 221.581 871.746 223.111 869.151 223.111H862.683ZM882.233 223.111C880.647 223.111 879.424 222.598 878.565 221.571C877.856 220.694 877.501 219.583 877.501 218.239V206.031L879.377 205.051V218.183C879.377 220.311 880.404 221.375 882.457 221.375H883.437V223.111H882.233ZM897.213 221.375V223.111H882.877V221.375H887.581C886.405 220.181 885.817 218.594 885.817 216.615C885.817 214.73 886.461 213.237 887.749 212.135C888.776 211.258 889.98 210.81 891.361 210.791C893.284 210.791 894.787 211.547 895.869 213.059V214.907C894.749 213.302 893.312 212.499 891.557 212.499H891.473C890.353 212.499 889.439 212.882 888.729 213.647C888.039 214.413 887.693 215.421 887.693 216.671C887.693 218.109 888.123 219.257 888.981 220.115C889.803 220.955 890.904 221.375 892.285 221.375H897.213ZM901.126 223.111V206.031L903.002 205.051V223.111H901.126ZM899.53 229.719L900.062 228.711H900.79C900.604 228.375 900.51 228.039 900.51 227.703C900.51 227.181 900.706 226.723 901.098 226.331C901.49 225.958 901.957 225.771 902.498 225.771C902.909 225.771 903.31 225.893 903.702 226.135V227.199C903.329 226.919 902.965 226.779 902.61 226.779C902.312 226.779 902.06 226.873 901.854 227.059C901.649 227.265 901.546 227.498 901.546 227.759C901.546 228.077 901.677 228.394 901.938 228.711H904.402L903.87 229.719H899.53ZM917.459 207.291C916.694 207.291 916.311 206.899 916.311 206.115C916.311 205.369 916.694 204.995 917.459 204.995C918.187 204.995 918.551 205.369 918.551 206.115C918.551 206.899 918.187 207.291 917.459 207.291ZM920.651 207.291C919.886 207.291 919.503 206.899 919.503 206.115C919.503 205.369 919.886 204.995 920.651 204.995C921.379 204.995 921.743 205.369 921.743 206.115C921.743 206.899 921.379 207.291 920.651 207.291ZM926.083 221.375H927.035V223.111H925.831C923.834 223.111 922.443 222.327 921.659 220.759C920.688 221.767 919.494 222.271 918.075 222.271C916.47 222.271 915.2 221.665 914.267 220.451C913.483 219.425 913.091 218.146 913.091 216.615C913.091 214.823 913.614 213.386 914.659 212.303C915.574 211.351 916.703 210.875 918.047 210.875C919.26 210.875 920.278 211.23 921.099 211.939V210.427L922.975 209.447V218.183C922.975 220.311 924.011 221.375 926.083 221.375ZM921.099 214.067C920.278 213.078 919.279 212.583 918.103 212.583C917.17 212.583 916.404 212.966 915.807 213.731C915.228 214.478 914.939 215.449 914.939 216.643C914.939 217.857 915.228 218.827 915.807 219.555C916.404 220.283 917.179 220.647 918.131 220.647C919.344 220.647 920.352 220.115 921.155 219.051C921.118 218.715 921.099 218.445 921.099 218.239V214.067ZM935.479 221.375H936.459V223.111H935.255C933.575 223.111 932.315 222.542 931.475 221.403C930.598 222.542 929.328 223.111 927.667 223.111H926.463V221.375H927.443C929.496 221.375 930.523 220.311 930.523 218.183V212.107L932.399 211.127V218.183C932.399 220.311 933.426 221.375 935.479 221.375ZM929.123 226.051C929.87 226.051 930.243 226.434 930.243 227.199C930.243 227.965 929.87 228.347 929.123 228.347C928.376 228.347 928.003 227.965 928.003 227.199C928.003 226.434 928.376 226.051 929.123 226.051ZM932.315 226.051C933.062 226.051 933.435 226.434 933.435 227.199C933.435 227.965 933.062 228.347 932.315 228.347C931.568 228.347 931.195 227.965 931.195 227.199C931.195 226.434 931.568 226.051 932.315 226.051ZM944.829 221.375H945.809V223.111H944.605C942.887 223.111 941.609 222.523 940.769 221.347C939.891 222.523 938.594 223.111 936.877 223.111H935.897V221.375H936.681C938.809 221.375 939.873 220.274 939.873 218.071V206.031L941.749 205.051V218.183C941.749 220.311 942.775 221.375 944.829 221.375ZM962.86 221.375H963.812V223.111H962.608C960.91 223.111 959.64 222.523 958.8 221.347C957.867 222.897 956.448 223.671 954.544 223.671C952.622 223.671 951.203 222.906 950.288 221.375C949.43 222.533 948.151 223.111 946.452 223.111H945.248V221.375H946.228C948.282 221.375 949.308 220.311 949.308 218.183V217.231C949.308 215.085 949.831 213.442 950.876 212.303C951.791 211.295 953.014 210.791 954.544 210.791C956.299 210.791 957.634 211.445 958.548 212.751C959.351 213.871 959.752 215.365 959.752 217.231V218.183C959.752 220.311 960.788 221.375 962.86 221.375ZM954.544 221.935C955.571 221.935 956.383 221.515 956.98 220.675C957.578 219.817 957.876 218.659 957.876 217.203C957.876 214.067 956.766 212.499 954.544 212.499C952.304 212.499 951.184 214.067 951.184 217.203C951.184 220.358 952.304 221.935 954.544 221.935ZM983.233 223.111H976.317C975.309 223.111 974.282 222.897 973.237 222.467C972.173 222.897 971.137 223.111 970.129 223.111H963.241V221.375H970.017C970.39 221.375 970.773 221.347 971.165 221.291C969.69 220.227 968.085 218.473 966.349 216.027V214.879C968.29 212.154 970.577 210.791 973.209 210.791C975.822 210.791 978.118 212.173 980.097 214.935V216.027C978.361 218.473 976.765 220.227 975.309 221.291C975.682 221.347 976.055 221.375 976.429 221.375H983.205L983.233 223.111ZM967.973 215.467C969.933 218.081 971.678 219.779 973.209 220.563C974.721 219.779 976.475 218.071 978.473 215.439C976.979 213.479 975.225 212.499 973.209 212.499H973.125C971.221 212.499 969.503 213.489 967.973 215.467ZM982.682 223.111V221.375H983.662C985.715 221.375 986.742 220.311 986.742 218.183V212.107L988.618 211.127V218.239C988.618 219.807 988.161 221.03 987.246 221.907C986.406 222.71 985.286 223.111 983.886 223.111H982.682ZM986.406 228.347C985.641 228.347 985.258 227.955 985.258 227.171C985.258 226.425 985.641 226.051 986.406 226.051C987.134 226.051 987.498 226.425 987.498 227.171C987.498 227.955 987.134 228.347 986.406 228.347ZM892.098 249.291C891.332 249.291 890.95 248.899 890.95 248.115C890.95 247.369 891.332 246.995 892.098 246.995C892.826 246.995 893.19 247.369 893.19 248.115C893.19 248.899 892.826 249.291 892.098 249.291ZM895.29 249.291C894.524 249.291 894.142 248.899 894.142 248.115C894.142 247.369 894.524 246.995 895.29 246.995C896.018 246.995 896.382 247.369 896.382 248.115C896.382 248.899 896.018 249.291 895.29 249.291ZM900.722 263.375H901.674V265.111H900.47C898.472 265.111 897.082 264.327 896.298 262.759C895.327 263.767 894.132 264.271 892.714 264.271C891.108 264.271 889.839 263.665 888.906 262.451C888.122 261.425 887.73 260.146 887.73 258.615C887.73 256.823 888.252 255.386 889.298 254.303C890.212 253.351 891.342 252.875 892.686 252.875C893.899 252.875 894.916 253.23 895.738 253.939V252.427L897.614 251.447V260.183C897.614 262.311 898.65 263.375 900.722 263.375ZM895.738 256.067C894.916 255.078 893.918 254.583 892.742 254.583C891.808 254.583 891.043 254.966 890.446 255.731C889.867 256.478 889.578 257.449 889.578 258.643C889.578 259.857 889.867 260.827 890.446 261.555C891.043 262.283 891.818 262.647 892.77 262.647C893.983 262.647 894.991 262.115 895.794 261.051C895.756 260.715 895.738 260.445 895.738 260.239V256.067ZM910.034 263.375H911.014V265.111H909.81C908.093 265.111 906.814 264.523 905.974 263.347C905.097 264.523 903.799 265.111 902.082 265.111H901.102V263.375H901.886C904.014 263.375 905.078 262.274 905.078 260.071V248.031L906.954 247.051V260.183C906.954 262.311 907.981 263.375 910.034 263.375ZM925.321 263.375H926.021V265.111H925.097C923.417 265.111 922.157 264.542 921.317 263.403C920.477 264.542 919.208 265.111 917.509 265.111H910.453V263.375H917.313C919.348 263.375 920.365 262.283 920.365 260.099V259.819C920.365 258.289 919.805 257.141 918.685 256.375C917.789 255.741 916.669 255.423 915.325 255.423C914.317 255.423 913.319 255.601 912.329 255.955V254.107L918.685 247.051H920.617L914.877 253.547C915.064 253.529 915.26 253.519 915.465 253.519C917.257 253.519 918.751 253.977 919.945 254.891C921.476 256.067 922.241 257.701 922.241 259.791V260.183C922.241 262.311 923.268 263.375 925.321 263.375ZM934.481 263.375H935.461V265.111H934.257C932.577 265.111 931.317 264.542 930.477 263.403C929.6 264.542 928.33 265.111 926.669 265.111H925.465V263.375H926.445C928.498 263.375 929.525 262.311 929.525 260.183V254.107L931.401 253.127V260.183C931.401 262.311 932.428 263.375 934.481 263.375ZM928.125 268.051C928.872 268.051 929.245 268.434 929.245 269.199C929.245 269.965 928.872 270.347 928.125 270.347C927.378 270.347 927.005 269.965 927.005 269.199C927.005 268.434 927.378 268.051 928.125 268.051ZM931.317 268.051C932.064 268.051 932.437 268.434 932.437 269.199C932.437 269.965 932.064 270.347 931.317 270.347C930.57 270.347 930.197 269.965 930.197 269.199C930.197 268.434 930.57 268.051 931.317 268.051ZM937.727 256.907C938.119 255.358 938.856 254.135 939.939 253.239C941.04 252.325 942.328 251.867 943.803 251.867C945.688 251.867 947.256 252.53 948.507 253.855C949.683 255.125 950.271 256.739 950.271 258.699V260.295C950.271 261.882 949.785 263.114 948.815 263.991C947.993 264.738 946.901 265.111 945.539 265.111H942.767C942.113 265.111 941.507 265.018 940.947 264.831C940.387 265.018 939.799 265.111 939.183 265.111H934.899V263.375H938.483C937.475 262.367 936.971 261.126 936.971 259.651C936.971 258.569 937.223 257.654 937.727 256.907ZM948.423 260.071V258.699C948.423 257.019 947.881 255.694 946.799 254.723C945.921 253.958 944.895 253.575 943.719 253.575C942.151 253.575 940.956 254.182 940.135 255.395C940.415 255.339 940.695 255.311 940.975 255.311C942.169 255.311 943.131 255.713 943.859 256.515C944.587 257.299 944.951 258.345 944.951 259.651C944.951 261.126 944.447 262.367 943.439 263.375H945.399C947.415 263.375 948.423 262.274 948.423 260.071ZM940.975 263.123C942.673 262.563 943.523 261.387 943.523 259.595C943.523 258.718 943.289 258.018 942.823 257.495C942.375 256.954 941.759 256.683 940.975 256.683C940.191 256.683 939.565 256.945 939.099 257.467C938.632 257.99 938.399 258.699 938.399 259.595C938.399 261.387 939.257 262.563 940.975 263.123Z" fill="#280659"/>
<path d="M864.28 740.042C862.75 741.013 861.023 741.498 859.1 741.498C856.86 741.498 855.087 740.798 853.78 739.398C852.698 738.241 852.156 736.869 852.156 735.282C852.156 734.125 852.455 733.079 853.052 732.146C853.65 731.213 854.462 730.513 855.488 730.046C853.584 728.963 852.632 727.115 852.632 724.502C852.632 722.617 853.276 721.123 854.564 720.022C855.572 719.145 856.776 718.697 858.176 718.678C860.08 718.678 861.583 719.434 862.684 720.946V722.794C861.546 721.189 860.099 720.386 858.344 720.386C857.187 720.386 856.254 720.778 855.544 721.562C854.835 722.327 854.48 723.326 854.48 724.558C854.48 725.995 854.91 727.143 855.768 728.002C856.59 728.842 857.691 729.262 859.072 729.262H864.028V730.998H859.128C857.318 730.998 855.946 731.493 855.012 732.482C854.303 733.229 853.948 734.153 853.948 735.254C853.948 736.598 854.443 737.699 855.432 738.558C856.366 739.361 857.588 739.762 859.1 739.762H859.156C861.284 739.762 862.992 739.286 864.28 738.334V740.042ZM872.925 730.998C871.338 730.998 870.116 730.485 869.257 729.458C868.548 728.581 868.193 727.47 868.193 726.126V713.918L870.069 712.938V726.07C870.069 728.198 871.096 729.262 873.149 729.262H874.129V730.998H872.925ZM899.329 729.262V730.998H898.125C896.557 730.998 895.343 730.494 894.485 729.486C893.813 730.494 892.73 730.998 891.237 730.998H873.569V729.262H878.301V713.918L880.037 712.938V724.698C882.221 720.685 885.114 718.678 888.717 718.678C890.807 718.678 892.469 719.397 893.701 720.834C894.746 722.066 895.269 723.587 895.269 725.398V726.126C895.269 728.217 896.305 729.262 898.377 729.262H899.329ZM893.393 725.398C893.393 723.83 892.898 722.57 891.909 721.618C891.069 720.797 890.014 720.386 888.745 720.386C886.561 720.386 884.619 721.441 882.921 723.55C881.633 725.137 880.681 727.041 880.065 729.262H891.041C891.937 729.262 892.553 729.057 892.889 728.646C893.225 728.217 893.393 727.442 893.393 726.322V725.398ZM905.276 715.402C904.51 715.402 904.128 715.01 904.128 714.226C904.128 713.479 904.51 713.106 905.276 713.106C906.004 713.106 906.368 713.479 906.368 714.226C906.368 715.01 906.004 715.402 905.276 715.402ZM908.468 715.402C907.702 715.402 907.32 715.01 907.32 714.226C907.32 713.479 907.702 713.106 908.468 713.106C909.196 713.106 909.56 713.479 909.56 714.226C909.56 715.01 909.196 715.402 908.468 715.402ZM909.784 729.262H914.908V730.998H908.58C907.945 730.998 907.366 730.933 906.844 730.802C906.321 730.933 905.742 730.998 905.108 730.998H898.78V729.262H903.932C902.457 727.899 901.72 726.285 901.72 724.418C901.72 722.607 902.224 721.17 903.232 720.106C904.146 719.154 905.35 718.678 906.844 718.678C908.542 718.678 909.858 719.294 910.792 720.526C911.576 721.553 911.968 722.85 911.968 724.418C911.968 726.303 911.24 727.918 909.784 729.262ZM906.956 729.01C907.908 728.674 908.682 728.077 909.28 727.218C909.896 726.341 910.204 725.398 910.204 724.39C910.204 723.158 909.896 722.187 909.28 721.478C908.682 720.75 907.87 720.386 906.844 720.386C905.817 720.386 905.005 720.75 904.408 721.478C903.81 722.187 903.512 723.149 903.512 724.362C903.512 725.389 903.81 726.341 904.408 727.218C905.005 728.077 905.78 728.674 906.732 729.01L906.844 729.038L906.9 729.01H906.956ZM914.338 730.998V729.262H915.122C917.25 729.262 918.314 728.161 918.314 725.958V713.918L920.19 712.938V725.986C920.19 727.573 919.723 728.823 918.79 729.738C917.913 730.578 916.755 730.998 915.318 730.998H914.338ZM925.232 730.998V713.918L927.108 712.938V730.998H925.232ZM946.296 717.978C945.55 717.978 945.176 717.586 945.176 716.802C945.176 716.055 945.55 715.682 946.296 715.682C947.043 715.682 947.416 716.055 947.416 716.802C947.416 717.586 947.043 717.978 946.296 717.978ZM949.516 717.978C948.751 717.978 948.368 717.586 948.368 716.802C948.368 716.055 948.751 715.682 949.516 715.682C950.244 715.682 950.608 716.055 950.608 716.802C950.608 717.586 950.244 717.978 949.516 717.978ZM943.412 730.998C942.031 730.998 940.93 730.569 940.108 729.71C939.287 728.833 938.876 727.657 938.876 726.182V722.514L940.752 721.534V725.958C940.752 728.161 941.779 729.262 943.832 729.262H953.212C955.266 729.262 956.292 728.161 956.292 725.958V719.994L958.168 719.014V726.182C958.168 727.769 957.683 729.001 956.712 729.878C955.872 730.625 954.771 730.998 953.408 730.998H943.412ZM967.944 730.998C966.358 730.998 965.135 730.485 964.276 729.458C963.567 728.581 963.212 727.47 963.212 726.126V713.918L965.088 712.938V726.07C965.088 728.198 966.115 729.262 968.168 729.262H969.148V730.998H967.944ZM987.068 729.262H988.048V730.998H986.844C985.145 730.998 983.876 730.429 983.036 729.29C982.196 730.429 980.927 730.998 979.228 730.998H976.456C975.803 730.998 975.196 730.905 974.636 730.718C974.076 730.905 973.488 730.998 972.872 730.998H968.588V729.262H972.172C971.164 728.254 970.66 727.013 970.66 725.538C970.66 724.455 970.912 723.541 971.416 722.794C971.808 721.245 972.545 720.022 973.628 719.126C974.729 718.211 976.017 717.754 977.492 717.754C979.377 717.754 980.945 718.417 982.196 719.742C983.372 721.011 983.96 722.626 983.96 724.586V726.07C983.96 728.198 984.996 729.262 987.068 729.262ZM979.088 729.262C981.104 729.262 982.112 728.161 982.112 725.958V724.586C982.112 722.906 981.571 721.581 980.488 720.61C979.611 719.845 978.584 719.462 977.408 719.462C975.84 719.462 974.645 720.069 973.824 721.282C974.104 721.226 974.384 721.198 974.664 721.198C975.859 721.198 976.82 721.599 977.548 722.402C978.276 723.186 978.64 724.231 978.64 725.538C978.64 727.013 978.136 728.254 977.128 729.262H979.088ZM974.664 729.01C976.363 728.45 977.212 727.274 977.212 725.482C977.212 724.605 976.979 723.905 976.512 723.382C976.064 722.841 975.448 722.57 974.664 722.57C973.88 722.57 973.255 722.831 972.788 723.354C972.321 723.877 972.088 724.586 972.088 725.482C972.088 727.274 972.947 728.45 974.664 729.01ZM987.483 730.998V729.262H990.619C994.688 729.262 997.861 727.881 1000.14 725.118C998.477 721.945 996.471 720.358 994.119 720.358C992.513 720.358 990.945 721.17 989.415 722.794V720.946C990.945 719.434 992.541 718.678 994.203 718.678H994.259C997.189 718.678 999.728 720.657 1001.87 724.614V725.762C999.149 729.253 995.388 730.998 990.591 730.998H987.483ZM994.875 736.234C994.109 736.234 993.727 735.842 993.727 735.058C993.727 734.311 994.109 733.938 994.875 733.938C995.603 733.938 995.967 734.311 995.967 735.058C995.967 735.842 995.603 736.234 994.875 736.234ZM856.233 771.262H857.213V772.998H856.009C854.814 772.998 853.816 772.699 853.013 772.102C852.864 774.081 852.07 775.639 850.633 776.778C849.345 777.805 847.721 778.318 845.761 778.318C843.334 778.318 841.468 777.487 840.161 775.826C839.134 774.538 838.621 772.998 838.621 771.206C838.621 769.582 839.032 768.21 839.853 767.09L841.701 766.67C840.786 768.014 840.329 769.489 840.329 771.094C840.329 772.737 840.861 774.081 841.925 775.126C842.933 776.115 844.212 776.61 845.761 776.61C847.553 776.61 848.944 776.069 849.933 774.986C850.773 774.09 851.193 772.923 851.193 771.486V755.918L853.041 754.938V768.098V768.154C853.041 770.226 854.105 771.262 856.233 771.262ZM874.255 771.262H875.207V772.998H874.003C872.304 772.998 871.035 772.41 870.195 771.234C869.262 772.783 867.843 773.558 865.939 773.558C864.016 773.558 862.598 772.793 861.683 771.262C860.824 772.419 859.546 772.998 857.847 772.998H856.643V771.262H857.623C859.676 771.262 860.703 770.198 860.703 768.07V767.118C860.703 764.971 861.226 763.329 862.271 762.19C863.186 761.182 864.408 760.678 865.939 760.678C867.694 760.678 869.028 761.331 869.943 762.638C870.746 763.758 871.147 765.251 871.147 767.118V768.07C871.147 770.198 872.183 771.262 874.255 771.262ZM865.939 771.822C866.966 771.822 867.778 771.402 868.375 770.562C868.972 769.703 869.271 768.546 869.271 767.09C869.271 763.954 868.16 762.386 865.939 762.386C863.699 762.386 862.579 763.954 862.579 767.09C862.579 770.245 863.699 771.822 865.939 771.822ZM894.627 772.998H887.711C886.703 772.998 885.676 772.783 884.631 772.354C883.567 772.783 882.531 772.998 881.523 772.998H874.635V771.262H881.411C881.784 771.262 882.167 771.234 882.559 771.178C881.084 770.114 879.479 768.359 877.743 765.914V764.766C879.684 762.041 881.971 760.678 884.603 760.678C887.216 760.678 889.512 762.059 891.491 764.822V765.914C889.755 768.359 888.159 770.114 886.703 771.178C887.076 771.234 887.45 771.262 887.823 771.262H894.599L894.627 772.998ZM879.367 765.354C881.327 767.967 883.072 769.666 884.603 770.45C886.115 769.666 887.87 767.958 889.867 765.326C888.374 763.366 886.619 762.386 884.603 762.386H884.519C882.615 762.386 880.898 763.375 879.367 765.354ZM895.756 757.318C894.991 757.318 894.608 756.926 894.608 756.142C894.608 755.395 894.991 755.022 895.756 755.022C896.484 755.022 896.848 755.395 896.848 756.142C896.848 756.926 896.484 757.318 895.756 757.318ZM898.948 757.318C898.183 757.318 897.8 756.926 897.8 756.142C897.8 755.395 898.183 755.022 898.948 755.022C899.676 755.022 900.04 755.395 900.04 756.142C900.04 756.926 899.676 757.318 898.948 757.318ZM894.076 772.998V771.262H895.056C897.11 771.262 898.136 770.198 898.136 768.07V761.994L900.012 761.014V768.126C900.012 769.694 899.555 770.917 898.64 771.794C897.8 772.597 896.68 772.998 895.28 772.998H894.076ZM927.543 772.998C927.393 774.603 926.553 775.901 925.023 776.89C923.548 777.842 921.653 778.318 919.339 778.318C916.464 778.318 914.299 777.478 912.843 775.798C911.76 774.547 911.219 773.007 911.219 771.178C911.219 769.573 911.629 768.191 912.451 767.034L914.271 766.67C913.375 768.033 912.927 769.489 912.927 771.038C912.927 772.755 913.515 774.127 914.691 775.154C915.811 776.143 917.36 776.638 919.339 776.638C921.373 776.638 922.969 776.209 924.127 775.35C924.985 774.715 925.489 773.931 925.639 772.998H922.783L923.679 771.262H927.627V772.998H927.543ZM917.575 782.938C916.809 782.938 916.427 782.555 916.427 781.79C916.427 781.025 916.809 780.642 917.575 780.642C918.303 780.642 918.667 781.025 918.667 781.79C918.667 782.555 918.303 782.938 917.575 782.938ZM920.767 782.938C920.02 782.938 919.647 782.555 919.647 781.79C919.647 781.025 920.02 780.642 920.767 780.642C921.513 780.642 921.887 781.025 921.887 781.79C921.887 782.555 921.513 782.938 920.767 782.938ZM929.526 757.402C928.779 757.402 928.406 757.019 928.406 756.254C928.406 755.489 928.779 755.106 929.526 755.106C930.272 755.106 930.646 755.489 930.646 756.254C930.646 757.019 930.272 757.402 929.526 757.402ZM932.718 757.402C931.971 757.402 931.598 757.019 931.598 756.254C931.598 755.489 931.971 755.106 932.718 755.106C933.464 755.106 933.838 755.489 933.838 756.254C933.838 757.019 933.464 757.402 932.718 757.402ZM935.714 771.262H936.694V772.998H935.49C933.81 772.998 932.55 772.429 931.71 771.29C930.832 772.429 929.563 772.998 927.902 772.998H926.698V771.262H927.678C929.731 771.262 930.758 770.198 930.758 768.07V761.994L932.634 761.014V768.07C932.634 770.198 933.66 771.262 935.714 771.262ZM936.131 772.998V771.262H936.915C939.043 771.262 940.107 770.161 940.107 767.958V755.918L941.983 754.938V767.986C941.983 769.573 941.516 770.823 940.583 771.738C939.706 772.578 938.548 772.998 937.111 772.998H936.131ZM947.025 772.998V755.918L948.901 754.938V772.998H947.025ZM963.357 771.262C962.48 770.142 962.041 768.667 962.041 766.838C962.041 764.822 962.564 763.263 963.609 762.162C964.524 761.173 965.737 760.678 967.249 760.678C968.799 760.678 969.993 761.163 970.833 762.134C971.561 762.974 971.925 764.094 971.925 765.494V768.35C971.925 769.769 971.505 770.898 970.665 771.738C969.825 772.559 968.677 772.979 967.221 772.998H963.665C961.612 772.998 960.585 774.062 960.585 776.19V780.838L958.709 781.818V776.134C958.709 774.585 959.167 773.371 960.081 772.494C960.903 771.691 961.995 771.281 963.357 771.262ZM970.049 768.182V765.662C970.049 763.478 969.116 762.386 967.249 762.386C966.185 762.386 965.355 762.778 964.757 763.562C964.179 764.346 963.889 765.429 963.889 766.81C963.889 768.21 964.169 769.302 964.729 770.086C965.289 770.87 966.064 771.262 967.053 771.262C969.051 771.262 970.049 770.235 970.049 768.182ZM981.425 772.998C979.838 772.998 978.616 772.485 977.757 771.458C977.048 770.581 976.693 769.47 976.693 768.126V755.918L978.569 754.938V768.07C978.569 770.198 979.596 771.262 981.649 771.262H982.629V772.998H981.425ZM1002.06 772.998H995.145C994.137 772.998 993.11 772.783 992.065 772.354C991.001 772.783 989.965 772.998 988.957 772.998H982.069V771.262H988.845C989.218 771.262 989.601 771.234 989.993 771.178C988.518 770.114 986.913 768.359 985.177 765.914V764.766C987.118 762.041 989.405 760.678 992.037 760.678C994.65 760.678 996.946 762.059 998.925 764.822V765.914C997.189 768.359 995.593 770.114 994.137 771.178C994.51 771.234 994.883 771.262 995.257 771.262H1002.03L1002.06 772.998ZM986.801 765.354C988.761 767.967 990.506 769.666 992.037 770.45C993.549 769.666 995.303 767.958 997.301 765.326C995.807 763.366 994.053 762.386 992.037 762.386H991.953C990.049 762.386 988.331 763.375 986.801 765.354ZM1001.51 772.998V771.262H1002.29C1004.42 771.262 1005.49 770.161 1005.49 767.958V755.918L1007.36 754.938V767.986C1007.36 769.573 1006.9 770.823 1005.96 771.738C1005.08 772.578 1003.93 772.998 1002.49 772.998H1001.51ZM1012.4 772.998V755.918L1014.28 754.938V772.998H1012.4ZM868.617 802.174C867.851 802.174 867.469 801.782 867.469 800.998C867.469 800.251 867.851 799.878 868.617 799.878C869.345 799.878 869.709 800.251 869.709 800.998C869.709 801.782 869.345 802.174 868.617 802.174ZM878.977 813.262H879.957V814.998H878.753C877.595 814.998 876.634 814.727 875.869 814.186C875.738 816.146 874.954 817.686 873.517 818.806C872.247 819.814 870.642 820.318 868.701 820.318C866.33 820.318 864.491 819.478 863.185 817.798C862.158 816.51 861.645 814.97 861.645 813.178C861.645 811.573 862.055 810.191 862.877 809.034L864.697 808.67C863.801 810.033 863.353 811.489 863.353 813.038C863.353 814.681 863.885 816.034 864.949 817.098C865.938 818.087 867.189 818.582 868.701 818.582C870.474 818.582 871.846 818.059 872.817 817.014C873.619 816.155 874.021 815.026 874.021 813.626V803.994L875.897 803.014V810.07C875.897 812.198 876.923 813.262 878.977 813.262ZM888.409 813.262H889.389V814.998H888.185C886.505 814.998 885.245 814.429 884.405 813.29C883.528 814.429 882.258 814.998 880.597 814.998H879.393V813.262H880.373C882.426 813.262 883.453 812.198 883.453 810.07V803.994L885.329 803.014V810.07C885.329 812.198 886.356 813.262 888.409 813.262ZM882.053 817.938C882.8 817.938 883.173 818.321 883.173 819.086C883.173 819.851 882.8 820.234 882.053 820.234C881.306 820.234 880.933 819.851 880.933 819.086C880.933 818.321 881.306 817.938 882.053 817.938ZM885.245 817.938C885.992 817.938 886.365 818.321 886.365 819.086C886.365 819.851 885.992 820.234 885.245 820.234C884.498 820.234 884.125 819.851 884.125 819.086C884.125 818.321 884.498 817.938 885.245 817.938ZM888.826 814.998V813.262H890.534C892.606 813.262 893.642 812.198 893.642 810.07V806.038L895.518 805.058V810.07C895.518 812.198 896.545 813.262 898.598 813.262H899.634C901.688 813.262 902.714 812.198 902.714 810.07V805.03L904.59 804.022V810.07C904.59 812.198 905.626 813.262 907.698 813.262H908.706C910.778 813.262 911.814 812.198 911.814 810.07V803.994L913.69 803.014V809.958C913.69 812.161 914.754 813.262 916.882 813.262H918.506V814.998H916.686C914.913 814.998 913.616 814.373 912.794 813.122C911.973 814.373 910.704 814.998 908.986 814.998H907.446C905.71 814.998 904.45 814.382 903.666 813.15C902.864 814.382 901.613 814.998 899.914 814.998H898.374C896.638 814.998 895.369 814.382 894.566 813.15C893.782 814.382 892.522 814.998 890.786 814.998H888.826ZM935.644 813.262H936.624V814.998H935.616C934.066 814.998 932.825 814.821 931.892 814.466C930.977 814.111 930.128 813.486 929.344 812.59C926.954 814.195 924.192 814.998 921.056 814.998H917.948V813.262H921.084C925.153 813.262 928.326 811.881 930.604 809.118C928.942 805.945 926.936 804.358 924.584 804.358C922.978 804.358 921.41 805.17 919.88 806.794V804.946C921.41 803.434 923.006 802.678 924.668 802.678H924.724C927.654 802.678 930.193 804.657 932.34 808.614V809.762C931.761 810.509 931.145 811.153 930.492 811.694C931.089 812.273 931.761 812.683 932.508 812.926C933.273 813.15 934.318 813.262 935.644 813.262ZM937.756 799.318C936.991 799.318 936.608 798.926 936.608 798.142C936.608 797.395 936.991 797.022 937.756 797.022C938.484 797.022 938.848 797.395 938.848 798.142C938.848 798.926 938.484 799.318 937.756 799.318ZM940.948 799.318C940.183 799.318 939.8 798.926 939.8 798.142C939.8 797.395 940.183 797.022 940.948 797.022C941.676 797.022 942.04 797.395 942.04 798.142C942.04 798.926 941.676 799.318 940.948 799.318ZM936.076 814.998V813.262H937.056C939.11 813.262 940.136 812.198 940.136 810.07V803.994L942.012 803.014V810.126C942.012 811.694 941.555 812.917 940.64 813.794C939.8 814.597 938.68 814.998 937.28 814.998H936.076ZM969.543 814.998C969.393 816.603 968.553 817.901 967.023 818.89C965.548 819.842 963.653 820.318 961.339 820.318C958.464 820.318 956.299 819.478 954.843 817.798C953.76 816.547 953.219 815.007 953.219 813.178C953.219 811.573 953.629 810.191 954.451 809.034L956.271 808.67C955.375 810.033 954.927 811.489 954.927 813.038C954.927 814.755 955.515 816.127 956.691 817.154C957.811 818.143 959.36 818.638 961.339 818.638C963.373 818.638 964.969 818.209 966.127 817.35C966.985 816.715 967.489 815.931 967.639 814.998H964.783L965.679 813.262H969.627V814.998H969.543ZM977.63 813.262H978.61V814.998H977.406C975.688 814.998 974.41 814.41 973.57 813.234C972.692 814.41 971.395 814.998 969.678 814.998H968.698V813.262H969.482C971.61 813.262 972.674 812.161 972.674 809.958V797.918L974.55 796.938V810.07C974.55 812.198 975.576 813.262 977.63 813.262ZM992.385 813.262V814.998H978.049V813.262H982.753C981.577 812.067 980.989 810.481 980.989 808.502C980.989 806.617 981.633 805.123 982.921 804.022C983.948 803.145 985.152 802.697 986.533 802.678C988.456 802.678 989.958 803.434 991.041 804.946V806.794C989.921 805.189 988.484 804.386 986.729 804.386H986.645C985.525 804.386 984.61 804.769 983.901 805.534C983.21 806.299 982.865 807.307 982.865 808.558C982.865 809.995 983.294 811.143 984.153 812.002C984.974 812.842 986.076 813.262 987.457 813.262H992.385ZM844.795 841.178C844.03 841.178 843.647 840.786 843.647 840.002C843.647 839.255 844.03 838.882 844.795 838.882C845.523 838.882 845.887 839.255 845.887 840.002C845.887 840.786 845.523 841.178 844.795 841.178ZM847.987 841.178C847.222 841.178 846.839 840.786 846.839 840.002C846.839 839.255 847.222 838.882 847.987 838.882C848.715 838.882 849.079 839.255 849.079 840.002C849.079 840.786 848.715 841.178 847.987 841.178ZM853.419 855.262H854.371V856.998H853.167C851.17 856.998 849.779 856.214 848.995 854.646C848.024 855.654 846.83 856.158 845.411 856.158C843.806 856.158 842.536 855.551 841.603 854.338C840.819 853.311 840.427 852.033 840.427 850.502C840.427 848.71 840.95 847.273 841.995 846.19C842.91 845.238 844.039 844.762 845.383 844.762C846.596 844.762 847.614 845.117 848.435 845.826V844.314L850.311 843.334V852.07C850.311 854.198 851.347 855.262 853.419 855.262ZM848.435 847.954C847.614 846.965 846.615 846.47 845.439 846.47C844.506 846.47 843.74 846.853 843.143 847.618C842.564 848.365 842.275 849.335 842.275 850.53C842.275 851.743 842.564 852.714 843.143 853.442C843.74 854.17 844.515 854.534 845.467 854.534C846.68 854.534 847.688 854.002 848.491 852.938C848.454 852.602 848.435 852.331 848.435 852.126V847.954ZM862.815 855.262H863.795V856.998H862.591C860.911 856.998 859.651 856.429 858.811 855.29C857.934 856.429 856.664 856.998 855.003 856.998H853.799V855.262H854.779C856.832 855.262 857.859 854.198 857.859 852.07V845.994L859.735 845.014V852.07C859.735 854.198 860.762 855.262 862.815 855.262ZM856.459 859.938C857.206 859.938 857.579 860.321 857.579 861.086C857.579 861.851 857.206 862.234 856.459 862.234C855.712 862.234 855.339 861.851 855.339 861.086C855.339 860.321 855.712 859.938 856.459 859.938ZM859.651 859.938C860.398 859.938 860.771 860.321 860.771 861.086C860.771 861.851 860.398 862.234 859.651 862.234C858.904 862.234 858.531 861.851 858.531 861.086C858.531 860.321 858.904 859.938 859.651 859.938ZM872.165 855.262H873.145V856.998H871.941C870.223 856.998 868.945 856.41 868.105 855.234C867.227 856.41 865.93 856.998 864.213 856.998H863.233V855.262H864.017C866.145 855.262 867.209 854.161 867.209 851.958V839.918L869.085 838.938V852.07C869.085 854.198 870.111 855.262 872.165 855.262ZM880.424 841.318C879.659 841.318 879.276 840.926 879.276 840.142C879.276 839.395 879.659 839.022 880.424 839.022C881.152 839.022 881.516 839.395 881.516 840.142C881.516 840.926 881.152 841.318 880.424 841.318ZM872.584 856.998V855.262H875.72C879.79 855.262 882.963 853.881 885.24 851.118C883.579 847.945 881.572 846.358 879.22 846.358C877.615 846.358 876.047 847.17 874.516 848.794V846.946C876.047 845.434 877.643 844.678 879.304 844.678H879.36C882.291 844.678 884.83 846.657 886.976 850.614V851.762C884.251 855.253 880.49 856.998 875.692 856.998H872.584ZM890.888 856.998V839.918L892.764 838.938V856.998H890.888ZM895.566 856.998L896.462 855.262H901.726C902.585 855.262 903.182 855.047 903.518 854.618C903.873 854.189 904.05 853.442 904.05 852.378C904.05 849.634 902.846 847.59 900.438 846.246L901.362 844.706C904.33 846.423 905.842 848.841 905.898 851.958C905.917 854.161 906.99 855.262 909.118 855.262H909.986V856.998H908.922C907.298 856.998 906.057 856.457 905.198 855.374C904.563 856.457 903.509 856.998 902.034 856.998H895.566ZM909.416 856.998V855.262H910.2C912.328 855.262 913.392 854.161 913.392 851.958V839.918L915.268 838.938V851.986C915.268 853.573 914.802 854.823 913.868 855.738C912.991 856.578 911.834 856.998 910.396 856.998H909.416ZM920.31 856.998V839.918L922.186 838.938V856.998H920.31ZM936.867 841.178C936.12 841.178 935.747 840.786 935.747 840.002C935.747 839.255 936.12 838.882 936.867 838.882C937.613 838.882 937.987 839.255 937.987 840.002C937.987 840.786 937.613 841.178 936.867 841.178ZM940.059 841.178C939.312 841.178 938.939 840.786 938.939 840.002C938.939 839.255 939.312 838.882 940.059 838.882C940.805 838.882 941.179 839.255 941.179 840.002C941.179 840.786 940.805 841.178 940.059 841.178ZM938.519 856.998C936.857 856.998 935.56 856.447 934.627 855.346C933.843 854.394 933.451 853.162 933.451 851.65C933.451 848.197 935.187 845.873 938.659 844.678C942.131 845.873 943.867 848.197 943.867 851.65C943.867 853.386 943.353 854.739 942.327 855.71C941.431 856.569 940.255 856.998 938.799 856.998H938.519ZM938.435 855.262H938.883C939.853 855.262 940.619 854.945 941.179 854.31C941.739 853.657 942.019 852.77 942.019 851.65C942.019 849.167 940.899 847.413 938.659 846.386C936.419 847.413 935.299 849.167 935.299 851.65C935.299 852.751 935.579 853.629 936.139 854.282C936.699 854.935 937.464 855.262 938.435 855.262ZM946.743 858.51V856.718C947.433 856.195 948.413 855.831 949.683 855.626C948.731 854.319 948.255 852.882 948.255 851.314C948.255 849.802 948.619 848.551 949.347 847.562C950.093 846.554 951.101 845.938 952.371 845.714C952.651 845.658 952.931 845.63 953.211 845.63C954.835 845.63 956.169 846.293 957.215 847.618V849.494C956.057 848.057 954.751 847.338 953.295 847.338C953.071 847.338 952.856 847.357 952.651 847.394C950.971 847.73 950.131 848.999 950.131 851.202C950.131 852.919 950.719 854.301 951.895 855.346C952.137 855.327 952.473 855.318 952.903 855.318C955.348 855.281 957.289 854.749 958.727 853.722V855.458C957.159 856.485 955.115 856.998 952.595 856.998C950.131 856.998 948.18 857.502 946.743 858.51ZM967.37 856.998C965.783 856.998 964.561 856.485 963.702 855.458C962.993 854.581 962.638 853.47 962.638 852.126V839.918L964.514 838.938V852.07C964.514 854.198 965.541 855.262 967.594 855.262H968.574V856.998H967.37ZM976.162 841.402C975.397 841.402 975.014 841.01 975.014 840.226C975.014 839.479 975.397 839.106 976.162 839.106C976.89 839.106 977.254 839.479 977.254 840.226C977.254 841.01 976.89 841.402 976.162 841.402ZM979.018 855.262H984.142V856.998H977.814C977.179 856.998 976.601 856.933 976.078 856.802C975.555 856.933 974.977 856.998 974.342 856.998H968.014V855.262H973.166C971.691 853.899 970.954 852.285 970.954 850.418C970.954 848.607 971.458 847.17 972.466 846.106C973.381 845.154 974.585 844.678 976.078 844.678C977.777 844.678 979.093 845.294 980.026 846.526C980.81 847.553 981.202 848.85 981.202 850.418C981.202 852.303 980.474 853.918 979.018 855.262ZM976.19 855.01C977.142 854.674 977.917 854.077 978.514 853.218C979.13 852.341 979.438 851.398 979.438 850.39C979.438 849.158 979.13 848.187 978.514 847.478C977.917 846.75 977.105 846.386 976.078 846.386C975.051 846.386 974.239 846.75 973.642 847.478C973.045 848.187 972.746 849.149 972.746 850.362C972.746 851.389 973.045 852.341 973.642 853.218C974.239 854.077 975.014 854.674 975.966 855.01L976.078 855.038L976.134 855.01H976.19ZM998.441 855.262H999.141V856.998H998.217C996.537 856.998 995.277 856.429 994.437 855.29C993.597 856.429 992.327 856.998 990.629 856.998H983.573V855.262H990.433C992.467 855.262 993.485 854.17 993.485 851.986V851.706C993.485 850.175 992.925 849.027 991.805 848.262C990.909 847.627 989.789 847.31 988.445 847.31C987.437 847.31 986.438 847.487 985.449 847.842V845.994L991.805 838.938H993.737L987.997 845.434C988.183 845.415 988.379 845.406 988.585 845.406C990.377 845.406 991.87 845.863 993.065 846.778C994.595 847.954 995.361 849.587 995.361 851.678V852.07C995.361 854.198 996.387 855.262 998.441 855.262ZM998.584 856.998V855.262H999.368C1001.5 855.262 1002.56 854.161 1002.56 851.958V839.918L1004.44 838.938V851.986C1004.44 853.573 1003.97 854.823 1003.04 855.738C1002.16 856.578 1001 856.998 999.564 856.998H998.584ZM1009.48 856.998V839.918L1011.35 838.938V856.998H1009.48Z" fill="#280659"/>
<path d="M184.301 150.057C184.151 151.662 183.311 152.959 181.781 153.949C180.306 154.901 178.411 155.377 176.097 155.377C173.222 155.377 171.057 154.537 169.601 152.857C168.518 151.606 167.977 150.066 167.977 148.237C167.977 146.631 168.387 145.25 169.209 144.093L171.029 143.729C170.133 145.091 169.685 146.547 169.685 148.097C169.685 149.814 170.273 151.186 171.449 152.213C172.569 153.202 174.118 153.697 176.097 153.697C178.131 153.697 179.727 153.267 180.885 152.409C181.743 151.774 182.247 150.99 182.397 150.057H179.541L180.437 148.321H184.385V150.057H184.301ZM174.333 159.997C173.567 159.997 173.185 159.614 173.185 158.849C173.185 158.083 173.567 157.701 174.333 157.701C175.061 157.701 175.425 158.083 175.425 158.849C175.425 159.614 175.061 159.997 174.333 159.997ZM177.525 159.997C176.778 159.997 176.405 159.614 176.405 158.849C176.405 158.083 176.778 157.701 177.525 157.701C178.271 157.701 178.645 158.083 178.645 158.849C178.645 159.614 178.271 159.997 177.525 159.997ZM186.283 134.461C185.537 134.461 185.163 134.078 185.163 133.313C185.163 132.547 185.537 132.165 186.283 132.165C187.03 132.165 187.403 132.547 187.403 133.313C187.403 134.078 187.03 134.461 186.283 134.461ZM189.475 134.461C188.729 134.461 188.355 134.078 188.355 133.313C188.355 132.547 188.729 132.165 189.475 132.165C190.222 132.165 190.595 132.547 190.595 133.313C190.595 134.078 190.222 134.461 189.475 134.461ZM192.471 148.321H193.451V150.057H192.247C190.567 150.057 189.307 149.487 188.467 148.349C187.59 149.487 186.321 150.057 184.659 150.057H183.455V148.321H184.435C186.489 148.321 187.515 147.257 187.515 145.129V139.053L189.391 138.073V145.129C189.391 147.257 190.418 148.321 192.471 148.321ZM192.889 150.057V148.321H193.673C195.801 148.321 196.865 147.219 196.865 145.017V132.977L198.741 131.997V145.045C198.741 146.631 198.274 147.882 197.341 148.797C196.464 149.637 195.306 150.057 193.869 150.057H192.889ZM203.783 150.057V132.977L205.659 131.997V150.057H203.783ZM224.847 137.037C224.101 137.037 223.727 136.645 223.727 135.861C223.727 135.114 224.101 134.741 224.847 134.741C225.594 134.741 225.967 135.114 225.967 135.861C225.967 136.645 225.594 137.037 224.847 137.037ZM228.067 137.037C227.302 137.037 226.919 136.645 226.919 135.861C226.919 135.114 227.302 134.741 228.067 134.741C228.795 134.741 229.159 135.114 229.159 135.861C229.159 136.645 228.795 137.037 228.067 137.037ZM221.963 150.057C220.582 150.057 219.481 149.627 218.659 148.769C217.838 147.891 217.427 146.715 217.427 145.241V141.573L219.303 140.593V145.017C219.303 147.219 220.33 148.321 222.383 148.321H231.763C233.817 148.321 234.843 147.219 234.843 145.017V139.053L236.719 138.073V145.241C236.719 146.827 236.234 148.059 235.263 148.937C234.423 149.683 233.322 150.057 231.959 150.057H221.963ZM246.495 150.057C244.908 150.057 243.686 149.543 242.827 148.517C242.118 147.639 241.763 146.529 241.763 145.185V132.977L243.639 131.997V145.129C243.639 147.257 244.666 148.321 246.719 148.321H247.699V150.057H246.495ZM264.751 148.321H265.703V150.057H264.499C262.8 150.057 261.531 149.469 260.691 148.293C259.758 149.842 258.339 150.617 256.435 150.617C254.512 150.617 253.094 149.851 252.179 148.321C251.32 149.478 250.042 150.057 248.343 150.057H247.139V148.321H248.119C250.172 148.321 251.199 147.257 251.199 145.129V144.177C251.199 142.03 251.722 140.387 252.767 139.249C253.682 138.241 254.904 137.737 256.435 137.737C258.19 137.737 259.524 138.39 260.439 139.697C261.242 140.817 261.643 142.31 261.643 144.177V145.129C261.643 147.257 262.679 148.321 264.751 148.321ZM256.435 148.881C257.462 148.881 258.274 148.461 258.871 147.621C259.468 146.762 259.767 145.605 259.767 144.149C259.767 141.013 258.656 139.445 256.435 139.445C254.195 139.445 253.075 141.013 253.075 144.149C253.075 147.303 254.195 148.881 256.435 148.881ZM290.891 148.321V150.057H289.687C288.119 150.057 286.906 149.553 286.047 148.545C285.375 149.553 284.292 150.057 282.799 150.057H265.131V148.321H269.863V132.977L271.599 131.997V143.757C273.783 139.743 276.676 137.737 280.279 137.737C282.37 137.737 284.031 138.455 285.263 139.893C286.308 141.125 286.831 142.646 286.831 144.457V145.185C286.831 147.275 287.867 148.321 289.939 148.321H290.891ZM284.955 144.457C284.955 142.889 284.46 141.629 283.471 140.677C282.631 139.855 281.576 139.445 280.307 139.445C278.123 139.445 276.182 140.499 274.483 142.609C273.195 144.195 272.243 146.099 271.627 148.321H282.603C283.499 148.321 284.115 148.115 284.451 147.705C284.787 147.275 284.955 146.501 284.955 145.381V144.457ZM280.111 134.377C279.346 134.377 278.963 133.985 278.963 133.201C278.963 132.454 279.346 132.081 280.111 132.081C280.839 132.081 281.203 132.454 281.203 133.201C281.203 133.985 280.839 134.377 280.111 134.377ZM295.018 134.377C294.253 134.377 293.87 133.985 293.87 133.201C293.87 132.454 294.253 132.081 295.018 132.081C295.746 132.081 296.11 132.454 296.11 133.201C296.11 133.985 295.746 134.377 295.018 134.377ZM299.358 148.321H300.338V150.057H299.134C297.454 150.057 296.194 149.487 295.354 148.349C294.477 149.487 293.207 150.057 291.546 150.057H290.342V148.321H291.322C293.375 148.321 294.402 147.257 294.402 145.129V139.053L296.278 138.073V145.129C296.278 147.257 297.305 148.321 299.358 148.321ZM317.388 148.321H318.34V150.057H317.136C315.437 150.057 314.168 149.469 313.328 148.293C312.394 149.842 310.976 150.617 309.072 150.617C307.149 150.617 305.73 149.851 304.816 148.321C303.957 149.478 302.678 150.057 300.98 150.057H299.776V148.321H300.756C302.809 148.321 303.836 147.257 303.836 145.129V144.177C303.836 142.03 304.358 140.387 305.404 139.249C306.318 138.241 307.541 137.737 309.072 137.737C310.826 137.737 312.161 138.39 313.076 139.697C313.878 140.817 314.28 142.31 314.28 144.177V145.129C314.28 147.257 315.316 148.321 317.388 148.321ZM309.072 148.881C310.098 148.881 310.91 148.461 311.508 147.621C312.105 146.762 312.404 145.605 312.404 144.149C312.404 141.013 311.293 139.445 309.072 139.445C306.832 139.445 305.712 141.013 305.712 144.149C305.712 147.303 306.832 148.881 309.072 148.881ZM317.768 150.057V148.321H318.552C320.68 148.321 321.744 147.219 321.744 145.017V132.977L323.62 131.997V145.045C323.62 146.631 323.153 147.882 322.22 148.797C321.343 149.637 320.185 150.057 318.748 150.057H317.768ZM328.662 150.057V132.977L330.538 131.997V150.057H328.662ZM171.423 192.057C169.836 192.057 168.614 191.543 167.755 190.517C167.046 189.639 166.691 188.529 166.691 187.185V174.977L168.567 173.997V187.129C168.567 189.257 169.594 190.321 171.647 190.321H172.627V192.057H171.423ZM190.547 190.321H191.527V192.057H190.323C188.624 192.057 187.355 191.487 186.515 190.349C185.675 191.487 184.405 192.057 182.707 192.057H179.935C179.281 192.057 178.675 191.963 178.115 191.777C177.555 191.963 176.967 192.057 176.351 192.057H172.067V190.321H175.651C174.643 189.313 174.139 188.071 174.139 186.597C174.139 185.514 174.391 184.599 174.895 183.853C175.287 182.303 176.024 181.081 177.107 180.185C178.208 179.27 179.496 178.813 180.971 178.813C182.856 178.813 184.424 179.475 185.675 180.801C186.851 182.07 187.439 183.685 187.439 185.645V187.129C187.439 189.257 188.475 190.321 190.547 190.321ZM182.567 190.321C184.583 190.321 185.591 189.219 185.591 187.017V185.645C185.591 183.965 185.049 182.639 183.967 181.669C183.089 180.903 182.063 180.521 180.887 180.521C179.319 180.521 178.124 181.127 177.303 182.341C177.583 182.285 177.863 182.257 178.143 182.257C179.337 182.257 180.299 182.658 181.027 183.461C181.755 184.245 182.119 185.29 182.119 186.597C182.119 188.071 181.615 189.313 180.607 190.321H182.567ZM178.143 190.069C179.841 189.509 180.691 188.333 180.691 186.541C180.691 185.663 180.457 184.963 179.991 184.441C179.543 183.899 178.927 183.629 178.143 183.629C177.359 183.629 176.733 183.89 176.267 184.413C175.8 184.935 175.567 185.645 175.567 186.541C175.567 188.333 176.425 189.509 178.143 190.069ZM192.641 176.377C191.876 176.377 191.493 175.985 191.493 175.201C191.493 174.454 191.876 174.081 192.641 174.081C193.369 174.081 193.733 174.454 193.733 175.201C193.733 175.985 193.369 176.377 192.641 176.377ZM195.833 176.377C195.068 176.377 194.685 175.985 194.685 175.201C194.685 174.454 195.068 174.081 195.833 174.081C196.561 174.081 196.925 174.454 196.925 175.201C196.925 175.985 196.561 176.377 195.833 176.377ZM190.961 192.057V190.321H191.941C193.995 190.321 195.021 189.257 195.021 187.129V181.053L196.897 180.073V187.185C196.897 188.753 196.44 189.975 195.525 190.853C194.685 191.655 193.565 192.057 192.165 192.057H190.961ZM206.669 192.057C205.082 192.057 203.86 191.543 203.001 190.517C202.292 189.639 201.937 188.529 201.937 187.185V174.977L203.813 173.997V187.129C203.813 189.257 204.84 190.321 206.893 190.321H207.873V192.057H206.669ZM216.329 190.321H217.309V192.057H216.105C214.425 192.057 213.165 191.487 212.325 190.349C211.447 191.487 210.178 192.057 208.517 192.057H207.313V190.321H208.293C210.346 190.321 211.373 189.257 211.373 187.129V181.053L213.249 180.073V187.129C213.249 189.257 214.275 190.321 216.329 190.321ZM209.973 194.997C210.719 194.997 211.093 195.379 211.093 196.145C211.093 196.91 210.719 197.293 209.973 197.293C209.226 197.293 208.853 196.91 208.853 196.145C208.853 195.379 209.226 194.997 209.973 194.997ZM213.165 194.997C213.911 194.997 214.285 195.379 214.285 196.145C214.285 196.91 213.911 197.293 213.165 197.293C212.418 197.293 212.045 196.91 212.045 196.145C212.045 195.379 212.418 194.997 213.165 194.997ZM225.678 190.321H226.658V192.057H225.454C223.737 192.057 222.458 191.469 221.618 190.293C220.741 191.469 219.444 192.057 217.726 192.057H216.746V190.321H217.53C219.658 190.321 220.722 189.219 220.722 187.017V174.977L222.598 173.997V187.129C222.598 189.257 223.625 190.321 225.678 190.321ZM243.71 190.321H244.662V192.057H243.458C241.759 192.057 240.49 191.469 239.65 190.293C238.717 191.842 237.298 192.617 235.394 192.617C233.471 192.617 232.053 191.851 231.138 190.321C230.279 191.478 229.001 192.057 227.302 192.057H226.098V190.321H227.078C229.131 190.321 230.158 189.257 230.158 187.129V186.177C230.158 184.03 230.681 182.387 231.726 181.249C232.641 180.241 233.863 179.737 235.394 179.737C237.149 179.737 238.483 180.39 239.398 181.697C240.201 182.817 240.602 184.31 240.602 186.177V187.129C240.602 189.257 241.638 190.321 243.71 190.321ZM235.394 190.881C236.421 190.881 237.233 190.461 237.83 189.621C238.427 188.762 238.726 187.605 238.726 186.149C238.726 183.013 237.615 181.445 235.394 181.445C233.154 181.445 232.034 183.013 232.034 186.149C232.034 189.303 233.154 190.881 235.394 190.881ZM258.426 190.321V192.057H244.09V190.321H248.794C247.618 189.126 247.03 187.539 247.03 185.561C247.03 183.675 247.674 182.182 248.962 181.081C249.989 180.203 251.193 179.755 252.574 179.737C254.497 179.737 255.999 180.493 257.082 182.005V183.853C255.962 182.247 254.525 181.445 252.77 181.445H252.686C251.566 181.445 250.651 181.827 249.942 182.593C249.251 183.358 248.906 184.366 248.906 185.617C248.906 187.054 249.335 188.202 250.194 189.061C251.015 189.901 252.117 190.321 253.498 190.321H258.426ZM275.31 191.357C275.123 191.469 274.815 191.646 274.386 191.889L274.33 191.917C272.799 192.775 271.773 193.513 271.25 194.129C270.746 194.745 270.494 195.566 270.494 196.593C270.494 197.825 270.914 198.833 271.754 199.617C272.613 200.419 273.714 200.821 275.058 200.821H275.114C277.242 200.821 278.95 200.345 280.238 199.393V201.101C278.707 202.071 276.981 202.557 275.058 202.557C273.042 202.557 271.437 201.894 270.242 200.569C269.253 199.449 268.758 198.105 268.758 196.537C268.758 195.211 269.085 194.147 269.738 193.345C270.391 192.542 271.707 191.59 273.686 190.489C272.062 189.387 270.345 187.549 268.534 184.973V183.825C270.475 181.099 272.762 179.737 275.394 179.737C276.626 179.737 277.849 180.101 279.062 180.829C280.275 181.557 281.349 182.574 282.282 183.881V184.973C280.994 186.746 279.267 188.473 277.102 190.153C277.587 190.265 278.091 190.321 278.614 190.321H285.39V192.057H278.502C277.401 192.057 276.337 191.823 275.31 191.357ZM270.158 184.441C272.118 187.017 273.845 188.697 275.338 189.481C277.261 188.137 279.034 186.438 280.658 184.385C279.165 182.425 277.41 181.445 275.394 181.445H275.31C273.387 181.445 271.67 182.443 270.158 184.441ZM284.832 192.057V190.321H286.54C288.612 190.321 289.648 189.257 289.648 187.129V183.097L291.524 182.117V187.129C291.524 189.257 292.551 190.321 294.604 190.321H295.64C297.694 190.321 298.72 189.257 298.72 187.129V182.089L300.596 181.081V187.129C300.596 189.257 301.632 190.321 303.704 190.321H304.712C306.784 190.321 307.82 189.257 307.82 187.129V181.053L309.696 180.073V187.185C309.696 188.734 309.239 189.947 308.324 190.825C307.503 191.627 306.392 192.038 304.992 192.057H303.452C301.716 192.057 300.456 191.441 299.672 190.209C298.87 191.441 297.619 192.057 295.92 192.057H294.38C292.644 192.057 291.375 191.441 290.572 190.209C289.788 191.441 288.528 192.057 286.792 192.057H284.832ZM327.022 190.321V192.057H324.054C324.035 193.289 323.634 194.371 322.85 195.305C322.085 196.257 321.086 196.882 319.854 197.181C319.406 197.311 318.921 197.377 318.398 197.377C317.315 197.377 316.261 197.115 315.234 196.593V194.941C316.205 195.463 317.166 195.725 318.118 195.725C318.883 195.725 319.555 195.557 320.134 195.221C320.713 194.922 321.198 194.465 321.59 193.849C321.982 193.251 322.178 192.654 322.178 192.057L319.798 191.973C317.726 191.879 316.177 191.226 315.15 190.013C314.31 188.986 313.89 187.614 313.89 185.897C313.89 183.881 314.413 182.322 315.458 181.221C316.391 180.231 317.642 179.737 319.21 179.737C320.834 179.737 322.075 180.222 322.934 181.193C323.681 182.033 324.054 183.153 324.054 184.553V190.321H327.022ZM322.178 184.749C322.178 182.546 321.189 181.445 319.21 181.445C318.109 181.445 317.25 181.837 316.634 182.621C316.037 183.386 315.738 184.469 315.738 185.869C315.738 188.65 317.11 190.106 319.854 190.237C320.675 190.293 321.45 190.321 322.178 190.321V184.749ZM328.129 176.377C327.364 176.377 326.981 175.985 326.981 175.201C326.981 174.454 327.364 174.081 328.129 174.081C328.857 174.081 329.221 174.454 329.221 175.201C329.221 175.985 328.857 176.377 328.129 176.377ZM331.321 176.377C330.556 176.377 330.173 175.985 330.173 175.201C330.173 174.454 330.556 174.081 331.321 174.081C332.049 174.081 332.413 174.454 332.413 175.201C332.413 175.985 332.049 176.377 331.321 176.377ZM326.449 192.057V190.321H327.429C329.483 190.321 330.509 189.257 330.509 187.129V181.053L332.385 180.073V187.185C332.385 188.753 331.928 189.975 331.013 190.853C330.173 191.655 329.053 192.057 327.653 192.057H326.449Z" fill="#280659"/>
<path d="M170.553 770.998C170.403 772.603 169.563 773.901 168.033 774.89C166.558 775.842 164.663 776.318 162.349 776.318C159.474 776.318 157.309 775.478 155.853 773.798C154.77 772.547 154.229 771.007 154.229 769.178C154.229 767.573 154.639 766.191 155.461 765.034L157.281 764.67C156.385 766.033 155.937 767.489 155.937 769.038C155.937 770.755 156.525 772.127 157.701 773.154C158.821 774.143 160.37 774.638 162.349 774.638C164.383 774.638 165.979 774.209 167.137 773.35C167.995 772.715 168.499 771.931 168.649 770.998H165.793L166.689 769.262H170.637V770.998H170.553ZM160.585 780.938C159.819 780.938 159.437 780.555 159.437 779.79C159.437 779.025 159.819 778.642 160.585 778.642C161.313 778.642 161.677 779.025 161.677 779.79C161.677 780.555 161.313 780.938 160.585 780.938ZM163.777 780.938C163.03 780.938 162.657 780.555 162.657 779.79C162.657 779.025 163.03 778.642 163.777 778.642C164.523 778.642 164.897 779.025 164.897 779.79C164.897 780.555 164.523 780.938 163.777 780.938ZM172.535 755.402C171.789 755.402 171.415 755.019 171.415 754.254C171.415 753.489 171.789 753.106 172.535 753.106C173.282 753.106 173.655 753.489 173.655 754.254C173.655 755.019 173.282 755.402 172.535 755.402ZM175.727 755.402C174.981 755.402 174.607 755.019 174.607 754.254C174.607 753.489 174.981 753.106 175.727 753.106C176.474 753.106 176.847 753.489 176.847 754.254C176.847 755.019 176.474 755.402 175.727 755.402ZM178.723 769.262H179.703V770.998H178.499C176.819 770.998 175.559 770.429 174.719 769.29C173.842 770.429 172.573 770.998 170.911 770.998H169.707V769.262H170.687C172.741 769.262 173.767 768.198 173.767 766.07V759.994L175.643 759.014V766.07C175.643 768.198 176.67 769.262 178.723 769.262ZM179.141 770.998V769.262H179.925C182.053 769.262 183.117 768.161 183.117 765.958V753.918L184.993 752.938V765.986C184.993 767.573 184.526 768.823 183.593 769.738C182.716 770.578 181.558 770.998 180.121 770.998H179.141ZM190.035 770.998V753.918L191.911 752.938V770.998H190.035ZM211.099 757.978C210.353 757.978 209.979 757.586 209.979 756.802C209.979 756.055 210.353 755.682 211.099 755.682C211.846 755.682 212.219 756.055 212.219 756.802C212.219 757.586 211.846 757.978 211.099 757.978ZM214.319 757.978C213.554 757.978 213.171 757.586 213.171 756.802C213.171 756.055 213.554 755.682 214.319 755.682C215.047 755.682 215.411 756.055 215.411 756.802C215.411 757.586 215.047 757.978 214.319 757.978ZM208.215 770.998C206.834 770.998 205.733 770.569 204.911 769.71C204.09 768.833 203.679 767.657 203.679 766.182V762.514L205.555 761.534V765.958C205.555 768.161 206.582 769.262 208.635 769.262H218.015C220.069 769.262 221.095 768.161 221.095 765.958V759.994L222.971 759.014V766.182C222.971 767.769 222.486 769.001 221.515 769.878C220.675 770.625 219.574 770.998 218.211 770.998H208.215ZM232.747 770.998C231.16 770.998 229.938 770.485 229.079 769.458C228.37 768.581 228.015 767.47 228.015 766.126V753.918L229.891 752.938V766.07C229.891 768.198 230.918 769.262 232.971 769.262H233.951V770.998H232.747ZM237.815 759.434C238.002 759.415 238.198 759.406 238.403 759.406C240.083 759.406 241.52 759.817 242.715 760.638C244.358 761.814 245.179 763.494 245.179 765.678V766.21C245.179 767.778 244.694 769.001 243.723 769.878C242.883 770.625 241.791 770.998 240.447 770.998H233.391V769.262H240.251C242.286 769.262 243.303 768.17 243.303 765.986V765.706C243.303 764.194 242.762 763.065 241.679 762.318C240.783 761.646 239.644 761.31 238.263 761.31C237.255 761.31 236.256 761.487 235.267 761.842V759.994L241.623 752.938H243.555L237.815 759.434ZM256.147 769.262H257.127V770.998H255.923C254.765 770.998 253.804 770.718 253.039 770.158C252.889 773.257 251.639 775.217 249.287 776.038C248.689 776.243 248.055 776.346 247.383 776.346C246.3 776.346 245.255 776.085 244.247 775.562V773.91C245.199 774.433 246.169 774.694 247.159 774.694C247.943 774.694 248.633 774.517 249.231 774.162C250.537 773.378 251.191 771.913 251.191 769.766V759.994L253.039 759.014V759.042L253.067 759.014V766.07C253.067 768.198 254.093 769.262 256.147 769.262ZM271.39 753.33C270.718 753.33 270.382 752.975 270.382 752.266C270.382 751.594 270.718 751.258 271.39 751.258C272.062 751.258 272.398 751.594 272.398 752.266C272.398 752.975 272.062 753.33 271.39 753.33ZM269.822 756.242C269.057 756.242 268.674 755.859 268.674 755.094C268.674 754.329 269.057 753.946 269.822 753.946C270.55 753.946 270.914 754.329 270.914 755.094C270.914 755.859 270.55 756.242 269.822 756.242ZM273.014 756.242C272.268 756.242 271.894 755.859 271.894 755.094C271.894 754.329 272.268 753.946 273.014 753.946C273.761 753.946 274.134 754.329 274.134 755.094C274.134 755.859 273.761 756.242 273.014 756.242ZM256.578 770.998V769.262H258.286C260.358 769.262 261.394 768.198 261.394 766.07V762.038L263.27 761.058V766.07C263.27 768.198 264.297 769.262 266.35 769.262H267.386C269.44 769.262 270.466 768.198 270.466 766.07V761.03L272.342 760.022V766.07C272.342 768.198 273.378 769.262 275.45 769.262H276.458C278.53 769.262 279.566 768.198 279.566 766.07V759.994L281.442 759.014V765.958C281.442 768.161 282.506 769.262 284.634 769.262H286.258V770.998H284.438C282.665 770.998 281.368 770.373 280.546 769.122C279.725 770.373 278.456 770.998 276.738 770.998H275.198C273.462 770.998 272.202 770.382 271.418 769.15C270.616 770.382 269.365 770.998 267.666 770.998H266.126C264.39 770.998 263.121 770.382 262.318 769.15C261.534 770.382 260.274 770.998 258.538 770.998H256.578ZM285.699 770.998V769.262H286.483C288.611 769.262 289.675 768.161 289.675 765.958V753.918L291.551 752.938V765.986C291.551 767.573 291.085 768.823 290.151 769.738C289.274 770.578 288.117 770.998 286.679 770.998H285.699ZM296.593 770.998V753.918L298.469 752.938V770.998H296.593ZM161.995 812.998C160.408 812.998 159.186 812.485 158.327 811.458C157.618 810.581 157.263 809.47 157.263 808.126V795.918L159.139 794.938V808.07C159.139 810.198 160.166 811.262 162.219 811.262H163.199V812.998H161.995ZM168.724 788.882L169.368 787.538L174.66 786.586L174.016 787.93L168.724 788.882ZM168.36 791.178L169.004 789.834L174.268 788.854L173.652 790.198L168.36 791.178ZM169.499 797.402C168.734 797.402 168.351 797.01 168.351 796.226C168.351 795.479 168.734 795.106 169.499 795.106C170.227 795.106 170.591 795.479 170.591 796.226C170.591 797.01 170.227 797.402 169.499 797.402ZM172.691 797.402C171.926 797.402 171.543 797.01 171.543 796.226C171.543 795.479 171.926 795.106 172.691 795.106C173.419 795.106 173.783 795.479 173.783 796.226C173.783 797.01 173.419 797.402 172.691 797.402ZM162.639 812.998V811.262H167.399C166.372 810.235 165.859 808.761 165.859 806.838C165.859 804.822 166.382 803.263 167.427 802.162C168.342 801.173 169.555 800.678 171.067 800.678C172.616 800.678 173.811 801.163 174.651 802.134C175.379 802.974 175.743 804.094 175.743 805.494V808.21C175.724 809.722 175.267 810.907 174.371 811.766C173.55 812.587 172.43 812.998 171.011 812.998H162.639ZM173.895 805.662C173.895 803.478 172.952 802.386 171.067 802.386C170.022 802.386 169.2 802.778 168.603 803.562C168.024 804.327 167.735 805.41 167.735 806.81C167.735 808.173 168.015 809.255 168.575 810.058C169.154 810.861 169.919 811.262 170.871 811.262C172.887 811.262 173.895 810.217 173.895 808.126V805.662ZM180.505 812.998V795.918L182.381 794.938V812.998H180.505ZM199.715 811.262V812.998H196.747C196.729 814.23 196.327 815.313 195.543 816.246C194.778 817.198 193.779 817.823 192.547 818.122C192.099 818.253 191.614 818.318 191.091 818.318C190.009 818.318 188.954 818.057 187.927 817.534V815.882C188.898 816.405 189.859 816.666 190.811 816.666C191.577 816.666 192.249 816.498 192.827 816.162C193.406 815.863 193.891 815.406 194.283 814.79C194.675 814.193 194.871 813.595 194.871 812.998L192.491 812.914C190.419 812.821 188.87 812.167 187.843 810.954C187.003 809.927 186.583 808.555 186.583 806.838C186.583 804.822 187.106 803.263 188.151 802.162C189.085 801.173 190.335 800.678 191.903 800.678C193.527 800.678 194.769 801.163 195.627 802.134C196.374 802.974 196.747 804.094 196.747 805.494V811.262H199.715ZM194.871 805.69C194.871 803.487 193.882 802.386 191.903 802.386C190.802 802.386 189.943 802.778 189.327 803.562C188.73 804.327 188.431 805.41 188.431 806.81C188.431 809.591 189.803 811.047 192.547 811.178C193.369 811.234 194.143 811.262 194.871 811.262V805.69ZM199.143 812.998V811.262H200.851C202.923 811.262 203.959 810.198 203.959 808.07V804.038L205.835 803.058V808.07C205.835 810.198 206.862 811.262 208.915 811.262H209.951C212.004 811.262 213.031 810.198 213.031 808.07V803.03L214.907 802.022V808.07C214.907 810.198 215.943 811.262 218.015 811.262H219.023C221.095 811.262 222.131 810.198 222.131 808.07V801.994L224.007 801.014V808.126C224.007 809.675 223.55 810.889 222.635 811.766C221.814 812.569 220.703 812.979 219.303 812.998H217.763C216.027 812.998 214.767 812.382 213.983 811.15C213.18 812.382 211.93 812.998 210.231 812.998H208.691C206.955 812.998 205.686 812.382 204.883 811.15C204.099 812.382 202.839 812.998 201.103 812.998H199.143ZM227.501 794.546L228.033 793.566H228.733C228.546 793.249 228.453 792.913 228.453 792.558C228.453 792.035 228.649 791.578 229.041 791.186C229.451 790.794 229.918 790.598 230.441 790.598C230.851 790.598 231.253 790.729 231.645 790.99V792.026C231.29 791.765 230.935 791.634 230.581 791.634C230.282 791.634 230.021 791.727 229.797 791.914C229.591 792.101 229.489 792.325 229.489 792.586C229.489 792.922 229.629 793.249 229.909 793.566H232.345L231.813 794.546H227.501ZM229.041 812.998V797.038L230.917 796.058V812.998H229.041ZM259.737 811.262H260.717V812.998H259.513C258.318 812.998 257.32 812.699 256.517 812.102C256.368 814.081 255.574 815.639 254.137 816.778C252.849 817.805 251.225 818.318 249.265 818.318C246.838 818.318 244.972 817.487 243.665 815.826C242.638 814.538 242.125 812.998 242.125 811.206C242.125 809.582 242.536 808.21 243.357 807.09L245.205 806.67C244.29 808.014 243.833 809.489 243.833 811.094C243.833 812.737 244.365 814.081 245.429 815.126C246.437 816.115 247.716 816.61 249.265 816.61C251.057 816.61 252.448 816.069 253.437 814.986C254.277 814.09 254.697 812.923 254.697 811.486V795.918L256.545 794.938V808.098V808.154C256.545 810.226 257.609 811.262 259.737 811.262ZM267.987 797.318C267.221 797.318 266.839 796.926 266.839 796.142C266.839 795.395 267.221 795.022 267.987 795.022C268.715 795.022 269.079 795.395 269.079 796.142C269.079 796.926 268.715 797.318 267.987 797.318ZM260.147 812.998V811.262H263.283C267.352 811.262 270.525 809.881 272.803 807.118C271.141 803.945 269.135 802.358 266.783 802.358C265.177 802.358 263.609 803.17 262.079 804.794V802.946C263.609 801.434 265.205 800.678 266.867 800.678H266.923C269.853 800.678 272.392 802.657 274.539 806.614V807.762C271.813 811.253 268.052 812.998 263.255 812.998H260.147ZM276.211 812.998L277.107 811.262H282.371C283.229 811.262 283.827 811.047 284.163 810.618C284.517 810.189 284.695 809.442 284.695 808.378C284.695 805.634 283.491 803.59 281.083 802.246L282.007 800.706C284.975 802.423 286.487 804.841 286.543 807.958C286.561 810.161 287.635 811.262 289.763 811.262H290.631V812.998H289.567C287.943 812.998 286.701 812.457 285.843 811.374C285.208 812.457 284.153 812.998 282.679 812.998H276.211ZM291.741 797.318C290.975 797.318 290.593 796.926 290.593 796.142C290.593 795.395 290.975 795.022 291.741 795.022C292.469 795.022 292.833 795.395 292.833 796.142C292.833 796.926 292.469 797.318 291.741 797.318ZM294.933 797.318C294.167 797.318 293.785 796.926 293.785 796.142C293.785 795.395 294.167 795.022 294.933 795.022C295.661 795.022 296.025 795.395 296.025 796.142C296.025 796.926 295.661 797.318 294.933 797.318ZM290.061 812.998V811.262H291.041C293.094 811.262 294.121 810.198 294.121 808.07V801.994L295.997 801.014V808.126C295.997 809.694 295.539 810.917 294.625 811.794C293.785 812.597 292.665 812.998 291.265 812.998H290.061ZM198.648 839.178C197.901 839.178 197.528 838.786 197.528 838.002C197.528 837.255 197.901 836.882 198.648 836.882C199.394 836.882 199.768 837.255 199.768 838.002C199.768 838.786 199.394 839.178 198.648 839.178ZM201.84 839.178C201.093 839.178 200.72 838.786 200.72 838.002C200.72 837.255 201.093 836.882 201.84 836.882C202.586 836.882 202.96 837.255 202.96 838.002C202.96 838.786 202.586 839.178 201.84 839.178ZM200.3 854.998C198.638 854.998 197.341 854.447 196.408 853.346C195.624 852.394 195.232 851.162 195.232 849.65C195.232 846.197 196.968 843.873 200.44 842.678C203.912 843.873 205.648 846.197 205.648 849.65C205.648 851.386 205.134 852.739 204.108 853.71C203.212 854.569 202.036 854.998 200.58 854.998H200.3ZM200.216 853.262H200.664C201.634 853.262 202.4 852.945 202.96 852.31C203.52 851.657 203.8 850.77 203.8 849.65C203.8 847.167 202.68 845.413 200.44 844.386C198.2 845.413 197.08 847.167 197.08 849.65C197.08 850.751 197.36 851.629 197.92 852.282C198.48 852.935 199.245 853.262 200.216 853.262ZM207.824 854.998L208.72 853.262H213.984C214.843 853.262 215.44 853.047 215.776 852.618C216.131 852.189 216.308 851.442 216.308 850.378C216.308 847.634 215.104 845.59 212.696 844.246L213.62 842.706C216.588 844.423 218.1 846.841 218.156 849.958C218.175 852.161 219.248 853.262 221.376 853.262H222.244V854.998H221.18C219.556 854.998 218.315 854.457 217.456 853.374C216.821 854.457 215.767 854.998 214.292 854.998H207.824ZM221.674 854.998V853.262H222.654C224.707 853.262 225.734 852.198 225.734 850.07V843.994L227.61 843.014V850.126C227.61 851.694 227.153 852.917 226.238 853.794C225.398 854.597 224.278 854.998 222.878 854.998H221.674ZM222.598 860.234C221.833 860.234 221.45 859.842 221.45 859.058C221.45 858.311 221.833 857.938 222.598 857.938C223.326 857.938 223.69 858.311 223.69 859.058C223.69 859.842 223.326 860.234 222.598 860.234ZM225.79 860.234C225.025 860.234 224.642 859.842 224.642 859.058C224.642 858.311 225.025 857.938 225.79 857.938C226.518 857.938 226.882 858.311 226.882 859.058C226.882 859.842 226.518 860.234 225.79 860.234ZM230.41 854.998L231.306 853.262H236.57C237.429 853.262 238.026 853.047 238.362 852.618C238.717 852.189 238.894 851.442 238.894 850.378C238.894 847.634 237.69 845.59 235.282 844.246L236.206 842.706C239.174 844.423 240.686 846.841 240.742 849.958C240.761 852.161 241.834 853.262 243.962 853.262H244.83V854.998H243.766C242.142 854.998 240.901 854.457 240.042 853.374C239.407 854.457 238.353 854.998 236.878 854.998H230.41ZM244.26 854.998V853.262H247.396C251.465 853.262 254.639 851.881 256.916 849.118C255.255 845.945 253.248 844.358 250.896 844.358C249.291 844.358 247.723 845.17 246.192 846.794V844.946C247.723 843.434 249.319 842.678 250.98 842.678H251.036C253.967 842.678 256.505 844.657 258.652 848.614V849.762C255.927 853.253 252.165 854.998 247.368 854.998H244.26ZM251.652 860.234C250.887 860.234 250.504 859.842 250.504 859.058C250.504 858.311 250.887 857.938 251.652 857.938C252.38 857.938 252.744 858.311 252.744 859.058C252.744 859.842 252.38 860.234 251.652 860.234Z" fill="#280659"/>
</svg>
