<svg width="1144" height="976" viewBox="0 0 1144 976" fill="none" xmlns="http://www.w3.org/2000/svg">
<path d="M227.855 332.163C151.031 332.163 88.5303 269.663 88.5303 192.838C88.5303 116.014 151.031 53.5117 227.855 53.5117C304.68 53.5117 367.181 116.014 367.181 192.838C367.181 269.663 304.68 332.163 227.855 332.163ZM227.855 55.3653C152.054 55.3653 90.3843 117.035 90.3843 192.838C90.3843 268.64 152.054 330.309 227.855 330.309C303.657 330.309 365.327 268.64 365.327 192.838C365.327 117.035 303.657 55.3653 227.855 55.3653Z" fill="#280659"/>
<path d="M227.855 348.639C222.458 348.639 217.013 348.358 211.672 347.807C211.162 347.756 210.793 347.3 210.846 346.79C210.896 346.281 211.351 345.902 211.863 345.964C219.956 346.799 228.283 346.996 236.391 346.552C236.888 346.512 237.337 346.917 237.366 347.427C237.395 347.939 237.002 348.375 236.493 348.403C233.639 348.559 230.734 348.639 227.855 348.639ZM306.69 327.101C306.374 327.101 306.066 326.939 305.893 326.647C305.633 326.206 305.776 325.638 306.217 325.378C309.726 323.298 313.192 321.054 316.517 318.706C316.929 318.412 317.511 318.509 317.808 318.928C318.103 319.346 318.005 319.925 317.585 320.22C314.22 322.597 310.714 324.868 307.163 326.972C307.014 327.06 306.852 327.101 306.69 327.101ZM352.267 286.017C352.073 286.017 351.879 285.957 351.714 285.834C351.303 285.528 351.218 284.948 351.523 284.538C371.332 257.869 381.802 226.16 381.802 192.838C381.802 189.631 381.703 186.402 381.509 183.246C381.477 182.735 381.865 182.295 382.378 182.263C382.896 182.262 383.329 182.622 383.358 183.132C383.555 186.327 383.655 189.592 383.655 192.838C383.655 226.561 373.058 258.652 353.01 285.642C352.829 285.887 352.548 286.017 352.267 286.017ZM92.6386 269.34C92.3145 269.34 92.0012 269.169 91.8311 268.866C78.8911 245.764 72.0518 219.476 72.0518 192.838C72.0518 186.176 72.477 179.467 73.3162 172.899C73.3773 172.391 73.8236 172.023 74.352 172.096C74.8594 172.162 75.2206 172.625 75.1546 173.132C74.326 179.623 73.9062 186.254 73.9062 192.838C73.9062 219.158 80.6629 245.135 93.4461 267.96C93.6983 268.407 93.539 268.972 93.0931 269.222C92.949 269.302 92.7926 269.34 92.6386 269.34ZM371.642 136.114C371.275 136.114 370.927 135.894 370.781 135.533C358.588 105.148 336.477 78.9243 308.52 61.6909C308.084 61.4226 307.949 60.8516 308.217 60.4161C308.485 59.9777 309.056 59.8464 309.492 60.1131C337.784 77.5521 360.163 104.092 372.503 134.842C372.694 135.318 372.463 135.856 371.988 136.048C371.873 136.093 371.756 136.114 371.642 136.114ZM88.1896 126.754C88.0541 126.754 87.9187 126.724 87.7887 126.662C87.3263 126.44 87.1327 125.886 87.3556 125.426C89.1378 121.713 91.1004 118.018 93.1802 114.446C93.4378 114.001 94.0009 113.854 94.4497 114.111C94.8906 114.369 95.0421 114.936 94.782 115.378C92.7261 118.909 90.7871 122.56 89.0239 126.228C88.8641 126.56 88.5351 126.754 88.1896 126.754ZM144.919 62.9442C144.613 62.9442 144.313 62.7915 144.135 62.5141C143.862 62.0823 143.989 61.5101 144.422 61.2351C151.397 56.8051 158.78 52.9031 166.364 49.6405C166.836 49.4374 167.378 49.6554 167.583 50.1256C167.785 50.5954 167.567 51.1415 167.097 51.343C159.604 54.5676 152.308 58.4226 145.416 62.7997C145.262 62.8984 145.089 62.9442 144.919 62.9442Z" fill="#280659"/>
<path d="M891.388 264.248C830.211 264.248 780.443 214.479 780.443 153.304C780.443 92.129 830.211 42.3594 891.388 42.3594C952.564 42.3594 1002.33 92.129 1002.33 153.304C1002.33 214.479 952.564 264.248 891.388 264.248ZM891.388 44.5782C831.435 44.5782 782.662 93.3533 782.662 153.304C782.662 213.255 831.436 262.03 891.388 262.03C951.34 262.03 1000.11 213.255 1000.11 153.304C1000.11 93.3528 951.34 44.5782 891.388 44.5782Z" fill="#280659"/>
<path d="M900.633 282.315C900.054 282.315 899.568 281.869 899.526 281.284C899.482 280.674 899.943 280.143 900.553 280.1C905.413 279.755 910.302 279.122 915.08 278.221C915.699 278.107 916.262 278.506 916.377 279.106C916.491 279.707 916.093 280.287 915.493 280.401C910.63 281.319 905.655 281.961 900.712 282.312C900.684 282.314 900.658 282.315 900.633 282.315ZM816.923 258.817C816.697 258.817 816.475 258.751 816.277 258.611C808.194 252.834 800.766 246.119 794.205 238.652C793.801 238.191 793.845 237.49 794.306 237.086C794.764 236.681 795.466 236.726 795.871 237.187C802.32 244.526 809.621 251.127 817.568 256.805C818.067 257.161 818.182 257.854 817.825 258.353C817.609 258.655 817.27 258.817 816.923 258.817ZM968.846 256.615C968.513 256.615 968.182 256.463 967.963 256.176C967.594 255.688 967.69 254.992 968.176 254.622C1000.16 230.34 1018.51 193.41 1018.51 153.304C1018.51 152.692 1019.01 152.194 1019.62 152.194C1020.23 152.194 1020.73 152.692 1020.73 153.304C1020.73 194.111 1002.06 231.684 969.517 256.389C969.317 256.542 969.082 256.615 968.846 256.615ZM1019.41 147.014C1018.83 147.014 1018.34 146.558 1018.31 145.968C1017.75 136.181 1016.06 126.486 1013.3 117.152C1013.12 116.566 1013.46 115.948 1014.05 115.774C1014.63 115.595 1015.25 115.934 1015.43 116.523C1018.24 126.019 1019.95 135.884 1020.52 145.841C1020.55 146.453 1020.09 146.978 1019.48 147.012C1019.45 147.014 1019.43 147.014 1019.41 147.014ZM790.301 75.5112C790.063 75.5112 789.822 75.4346 789.618 75.276C789.135 74.8975 789.049 74.2014 789.427 73.7187C814.141 42.1005 851.303 23.9663 891.389 23.9648L893.235 23.9777C893.846 23.9861 894.335 24.4895 894.329 25.1017C894.32 25.7089 893.827 26.1965 893.22 26.1965C893.217 26.1965 893.21 26.1965 893.204 26.1965L891.39 26.1837C851.99 26.1852 815.464 44.0096 791.176 75.0858C790.957 75.3644 790.629 75.5112 790.301 75.5112ZM962.813 47.9043C962.6 47.9043 962.384 47.8425 962.194 47.715C958.15 44.9977 953.907 42.4878 949.584 40.2561C949.041 39.975 948.828 39.3075 949.107 38.7621C949.39 38.2166 950.064 38.0057 950.601 38.2853C955.001 40.5551 959.317 43.1094 963.434 45.8747C963.942 46.2165 964.076 46.9048 963.736 47.4127C963.519 47.7328 963.169 47.9043 962.813 47.9043Z" fill="#280659"/>
<path d="M909.594 950.744C819.358 950.744 745.943 877.332 745.943 787.093C745.943 696.855 819.359 623.441 909.594 623.441C999.83 623.441 1073.25 696.855 1073.25 787.093C1073.25 877.332 999.83 950.744 909.594 950.744ZM909.594 627.669C821.691 627.669 750.17 699.186 750.17 787.093C750.17 875 821.69 946.517 909.594 946.517C997.498 946.517 1069.02 875 1069.02 787.093C1069.02 699.186 997.499 627.669 909.594 627.669Z" fill="#280659"/>
<path d="M871.168 975.893C871.029 975.893 870.889 975.877 870.743 975.85C861.459 973.945 852.24 971.331 843.343 968.073C842.246 967.673 841.683 966.458 842.082 965.363C842.483 964.263 843.694 963.703 844.796 964.106C853.494 967.289 862.512 969.848 871.592 971.707C872.736 971.943 873.476 973.058 873.239 974.203C873.034 975.202 872.156 975.893 871.168 975.893ZM981.755 965.632C980.925 965.632 980.132 965.139 979.798 964.318C979.356 963.24 979.871 962.004 980.955 961.562C1052.08 932.443 1098.04 863.961 1098.04 787.096C1098.04 785.93 1098.98 784.983 1100.15 784.983C1101.32 784.983 1102.27 785.931 1102.27 787.096C1102.27 865.684 1055.28 935.702 982.553 965.475C982.294 965.58 982.021 965.632 981.755 965.632ZM729.449 851.499C728.571 851.499 727.753 850.951 727.45 850.075C721.248 832.138 717.748 813.364 717.051 794.276C717.009 793.11 717.923 792.132 719.087 792.089C720.359 791.869 721.237 792.956 721.279 794.125C721.958 812.792 725.379 831.151 731.449 848.694C731.83 849.797 731.242 851.002 730.14 851.384C729.909 851.462 729.68 851.499 729.449 851.499ZM1095.51 747.157C1094.54 747.157 1093.67 746.49 1093.45 745.506C1076.79 671.604 1015.41 613.608 940.702 601.201C939.551 601.01 938.77 599.924 938.964 598.772C939.151 597.619 940.278 596.824 941.393 597.033C1017.78 609.719 1080.55 669.014 1097.57 744.579C1097.83 745.717 1097.12 746.847 1095.98 747.105C1095.82 747.139 1095.66 747.157 1095.51 747.157Z" fill="#280659"/>
<path d="M216.367 935.259C124.133 935.259 49.0928 860.219 49.0928 767.981C49.0928 675.746 124.133 600.705 216.367 600.705C308.605 600.705 383.645 675.745 383.645 767.981C383.645 860.219 308.605 935.259 216.367 935.259ZM216.367 603.794C125.837 603.794 52.182 677.447 52.182 767.981C52.182 858.515 125.836 932.17 216.367 932.17C306.9 932.17 380.555 858.515 380.555 767.981C380.555 677.447 306.901 603.794 216.367 603.794Z" fill="#280659"/>
<path d="M247.815 957.393C247.072 957.393 246.416 956.858 246.293 956.103C246.151 955.26 246.722 954.465 247.563 954.327C254.263 953.211 260.964 951.72 267.478 949.892C268.292 949.653 269.147 950.14 269.381 950.963C269.611 951.784 269.133 952.636 268.31 952.866C261.689 954.723 254.878 956.238 248.067 957.371C247.983 957.386 247.899 957.393 247.815 957.393ZM127.97 938.261C127.727 938.261 127.483 938.203 127.253 938.084C115.026 931.666 103.453 923.893 92.8624 914.982C92.2124 914.433 92.1278 913.46 92.6767 912.807C93.2297 912.154 94.1996 912.07 94.8545 912.618C105.272 921.387 116.659 929.035 128.688 935.349C129.444 935.745 129.737 936.678 129.338 937.433C129.063 937.96 128.523 938.261 127.97 938.261ZM339.964 914.428C339.531 914.428 339.097 914.244 338.791 913.885C338.238 913.237 338.314 912.263 338.959 911.708C381.1 875.728 405.268 823.342 405.268 767.985C405.268 767.132 405.958 766.44 406.812 766.44C407.667 766.44 408.356 767.133 408.356 767.985C408.356 824.248 383.794 877.489 340.969 914.057C340.676 914.305 340.318 914.428 339.964 914.428ZM42.818 691.009C42.6054 691.009 42.3887 690.964 42.1803 690.871C41.4016 690.519 41.0611 689.603 41.4106 688.826C64.6801 637.472 109.024 599.08 163.066 583.493C163.915 583.268 164.743 583.732 164.977 584.551C165.217 585.37 164.743 586.226 163.924 586.463C110.751 601.798 67.1241 639.573 44.2254 690.101C43.964 690.672 43.4068 691.009 42.818 691.009ZM388.127 687.161C387.552 687.161 386.999 686.837 386.734 686.284C380.861 674.048 373.621 662.404 365.225 651.676C364.698 651.006 364.818 650.034 365.491 649.508C366.168 648.99 367.133 649.101 367.659 649.774C376.191 660.676 383.547 672.51 389.522 684.948C389.889 685.716 389.566 686.638 388.796 687.009C388.579 687.112 388.353 687.161 388.127 687.161ZM265.162 585.397C265.035 585.397 264.902 585.382 264.768 585.346C258.223 583.615 251.501 582.224 244.788 581.21C243.942 581.082 243.362 580.296 243.491 579.453C243.615 578.61 244.367 578.035 245.248 578.157C252.072 579.189 258.905 580.602 265.557 582.359C266.379 582.578 266.875 583.423 266.655 584.247C266.473 584.939 265.849 585.397 265.162 585.397Z" fill="#280659"/>
<path d="M600.241 332.174C531 332.174 474.871 388.304 474.871 457.544C474.871 526.785 531 582.915 600.241 582.915C669.48 582.915 725.612 526.785 725.612 457.544C725.612 388.305 669.48 332.174 600.241 332.174Z" fill="white"/>
<path d="M600.239 584.46C530.257 584.46 473.326 527.525 473.326 457.544C473.326 387.562 530.257 330.629 600.239 330.629C670.221 330.629 727.155 387.562 727.155 457.544C727.155 527.525 670.221 584.46 600.239 584.46ZM600.239 333.718C531.961 333.718 476.415 389.266 476.415 457.544C476.415 525.824 531.961 581.371 600.239 581.371C668.517 581.371 724.066 525.824 724.066 457.544C724.066 389.266 668.517 333.718 600.239 333.718Z" fill="#280659"/>
<path d="M614.415 454.294C624.812 449.096 631.885 438.397 631.885 426.066C631.885 408.597 617.679 394.393 600.211 394.393C582.801 394.393 568.597 408.597 568.597 426.066C568.597 438.397 575.669 449.096 586.005 454.294C562.371 460.52 544.962 482.1 544.962 507.729C544.962 525.017 655.518 525.017 655.518 507.729C655.518 482.1 638.05 460.52 614.415 454.294Z" fill="#764895"/>
<path d="M159.314 42.9258C143.576 42.9258 130.819 55.6834 130.819 71.4211C130.819 87.1589 143.576 99.9165 159.314 99.9165C175.052 99.9165 187.81 87.1589 187.81 71.4211C187.81 55.6834 175.052 42.9258 159.314 42.9258Z" fill="white"/>
<path d="M159.316 100.843C143.093 100.843 129.893 87.6439 129.893 71.4214C129.893 55.1969 143.093 41.998 159.316 41.998C175.538 41.998 188.736 55.1969 188.736 71.4214C188.736 87.6439 175.538 100.843 159.316 100.843ZM159.316 43.852C144.113 43.852 131.747 56.2195 131.747 71.421C131.747 86.6225 144.113 98.9888 159.316 98.9888C174.516 98.9888 186.882 86.6225 186.882 71.421C186.882 56.2195 174.516 43.852 159.316 43.852Z" fill="#280659"/>
<path d="M162.535 70.6834C164.898 69.5019 166.506 67.0703 166.506 64.2676C166.506 60.2971 163.277 57.0684 159.306 57.0684C155.349 57.0684 152.121 60.2971 152.121 64.2676C152.121 67.0703 153.728 69.5019 156.078 70.6834C150.705 72.0985 146.749 77.0033 146.749 82.8287C146.749 86.758 171.877 86.758 171.877 82.8287C171.877 77.0029 167.907 72.0981 162.535 70.6834Z" fill="#735D93"/>
<path d="M96.4221 226.674C80.6843 226.674 67.9268 239.431 67.9268 255.169C67.9268 270.907 80.6843 283.665 96.4221 283.665C112.159 283.665 124.917 270.907 124.917 255.169C124.917 239.431 112.159 226.674 96.4221 226.674Z" fill="white"/>
<path d="M96.4235 284.595C80.2006 284.595 67.0005 271.395 67.0005 255.172C67.0005 238.949 80.2006 225.75 96.4235 225.75C112.646 225.75 125.844 238.949 125.844 255.172C125.844 271.396 112.646 284.595 96.4235 284.595ZM96.4235 227.604C81.2203 227.604 68.8545 239.97 68.8545 255.172C68.8545 270.373 81.2207 282.741 96.4235 282.741C111.623 282.741 123.99 270.373 123.99 255.172C123.99 239.97 111.623 227.604 96.4235 227.604Z" fill="#280659"/>
<path d="M99.6434 254.431C102.006 253.25 103.614 250.818 103.614 248.016C103.614 244.045 100.385 240.816 96.4147 240.816C92.4578 240.816 89.229 244.045 89.229 248.016C89.229 250.818 90.8366 253.25 93.186 254.431C87.8143 255.847 83.8569 260.751 83.8569 266.577C83.8569 270.506 108.985 270.506 108.985 266.577C108.986 260.751 105.016 255.847 99.6434 254.431Z" fill="#BCB2CC"/>
<path d="M359.369 113.822C343.632 113.822 330.874 126.58 330.874 142.318C330.874 158.055 343.632 170.813 359.369 170.813C375.107 170.813 387.865 158.055 387.865 142.318C387.865 126.58 375.107 113.822 359.369 113.822Z" fill="white"/>
<path d="M359.368 171.743C343.145 171.743 329.948 158.544 329.948 142.32C329.948 126.097 343.146 112.898 359.368 112.898C375.591 112.898 388.792 126.097 388.792 142.32C388.792 158.544 375.591 171.743 359.368 171.743ZM359.368 114.752C344.168 114.752 331.802 127.119 331.802 142.32C331.802 157.522 344.168 169.889 359.368 169.889C374.571 169.889 386.938 157.522 386.938 142.32C386.938 127.119 374.571 114.752 359.368 114.752Z" fill="#280659"/>
<path d="M362.591 141.58C364.954 140.399 366.562 137.967 366.562 135.164C366.562 131.194 363.333 127.965 359.362 127.965C355.406 127.965 352.177 131.194 352.177 135.164C352.177 137.967 353.784 140.398 356.134 141.58C350.762 142.995 346.805 147.9 346.805 153.725C346.805 157.654 371.933 157.654 371.933 153.725C371.933 147.9 367.963 142.995 362.591 141.58Z" fill="#472B59"/>
<path d="M275.892 287.375C260.155 287.375 247.397 300.133 247.397 315.87C247.397 331.608 260.155 344.366 275.892 344.366C291.63 344.366 304.388 331.608 304.388 315.87C304.388 300.133 291.63 287.375 275.892 287.375Z" fill="white"/>
<path d="M275.893 345.292C259.67 345.292 246.469 332.093 246.469 315.87C246.469 299.646 259.669 286.447 275.893 286.447C292.115 286.447 305.316 299.646 305.316 315.87C305.316 332.093 292.115 345.292 275.893 345.292ZM275.893 288.302C260.689 288.302 248.324 300.669 248.324 315.871C248.324 331.072 260.69 343.438 275.893 343.438C291.095 343.438 303.462 331.072 303.462 315.871C303.462 300.669 291.095 288.302 275.893 288.302Z" fill="#280659"/>
<path d="M279.114 315.133C281.478 313.951 283.085 311.52 283.085 308.717C283.085 304.746 279.856 301.518 275.886 301.518C271.929 301.518 268.7 304.746 268.7 308.717C268.7 311.52 270.308 313.951 272.657 315.133C267.285 316.548 263.328 321.453 263.328 327.278C263.328 331.207 288.456 331.207 288.456 327.278C288.456 321.453 284.486 316.548 279.114 315.133Z" fill="#818181"/>
<path d="M915.29 1.10938C896.456 1.10938 881.188 16.378 881.188 35.2122C881.188 54.0465 896.456 69.3151 915.29 69.3151C934.125 69.3151 949.393 54.0465 949.393 35.2122C949.394 16.378 934.125 1.10938 915.29 1.10938Z" fill="white"/>
<path d="M915.289 70.4245C895.873 70.4245 880.079 54.6283 880.079 35.213C880.079 15.7963 895.874 0 915.289 0C934.704 0 950.502 15.7963 950.502 35.213C950.502 54.6283 934.704 70.4245 915.289 70.4245ZM915.289 2.21836C897.098 2.21836 882.297 17.02 882.297 35.2125C882.297 53.4055 897.097 68.2052 915.289 68.2052C933.484 68.2052 948.283 53.4055 948.283 35.2125C948.283 17.02 933.484 2.21836 915.289 2.21836Z" fill="#280659"/>
<path d="M919.146 34.328C921.975 32.9135 923.899 30.0034 923.899 26.6492C923.899 21.8973 920.035 18.0332 915.283 18.0332C910.547 18.0332 906.683 21.8973 906.683 26.6492C906.683 30.0034 908.607 32.9135 911.418 34.328C904.99 36.0216 900.254 41.8916 900.254 48.8629C900.254 53.5654 930.327 53.5654 930.327 48.8629C930.328 41.8911 925.576 36.0211 919.146 34.328Z" fill="#A8A8A8"/>
<path d="M1005.38 147.045C986.546 147.045 971.278 162.314 971.278 181.148C971.278 199.982 986.546 215.251 1005.38 215.251C1024.22 215.251 1039.48 199.982 1039.48 181.148C1039.48 162.314 1024.21 147.045 1005.38 147.045Z" fill="white"/>
<path d="M1005.38 216.362C985.965 216.362 970.17 200.566 970.17 181.149C970.17 161.734 985.965 145.938 1005.38 145.938C1024.8 145.938 1040.59 161.734 1040.59 181.149C1040.59 200.566 1024.79 216.362 1005.38 216.362ZM1005.38 148.156C987.188 148.156 972.388 162.956 972.388 181.15C972.388 199.342 987.188 214.144 1005.38 214.144C1023.57 214.144 1038.37 199.342 1038.37 181.15C1038.37 162.956 1023.57 148.156 1005.38 148.156Z" fill="#280659"/>
<path d="M1009.24 180.265C1012.06 178.851 1013.99 175.941 1013.99 172.587C1013.99 167.835 1010.13 163.971 1005.37 163.971C1000.64 163.971 996.773 167.835 996.773 172.587C996.773 175.941 998.697 178.851 1001.51 180.265C995.08 181.959 990.345 187.829 990.345 194.801C990.345 199.503 1020.42 199.503 1020.42 194.801C1020.42 187.829 1015.67 181.959 1009.24 180.265Z" fill="#280659"/>
<path d="M779.8 119.209C760.965 119.209 745.697 134.477 745.697 153.312C745.697 172.146 760.965 187.415 779.8 187.415C798.634 187.415 813.903 172.147 813.903 153.312C813.903 134.478 798.634 119.209 779.8 119.209Z" fill="white"/>
<path d="M779.799 188.526C760.384 188.526 744.586 172.73 744.586 153.315C744.586 133.898 760.384 118.102 779.799 118.102C799.214 118.102 815.012 133.898 815.012 153.315C815.012 172.73 799.214 188.526 779.799 188.526ZM779.799 120.32C761.604 120.32 746.804 135.122 746.804 153.314C746.804 171.507 761.604 186.307 779.799 186.307C797.993 186.307 812.793 171.507 812.793 153.314C812.793 135.122 797.993 120.32 779.799 120.32Z" fill="#280659"/>
<path d="M783.655 152.427C786.483 151.013 788.408 148.103 788.408 144.749C788.408 139.997 784.544 136.133 779.792 136.133C775.056 136.133 771.192 139.997 771.192 144.749C771.192 148.103 773.116 151.013 775.927 152.427C769.498 154.121 764.763 159.991 764.763 166.962C764.763 171.665 794.836 171.665 794.836 166.962C794.836 159.991 790.084 154.121 783.655 152.427Z" fill="#BCB2CC"/>
<path d="M1076.03 757.193C1040.14 757.193 1011.05 786.287 1011.05 822.176C1011.05 858.064 1040.14 887.158 1076.03 887.158C1111.92 887.158 1141.02 858.065 1141.02 822.176C1141.02 786.287 1111.92 757.193 1076.03 757.193Z" fill="white"/>
<path d="M1076.03 889.275C1039.04 889.275 1008.94 859.176 1008.94 822.18C1008.94 785.182 1039.04 755.082 1076.03 755.082C1113.03 755.082 1143.13 785.182 1143.13 822.18C1143.13 859.176 1113.03 889.275 1076.03 889.275ZM1076.03 759.309C1041.37 759.309 1013.17 787.514 1013.17 822.179C1013.17 856.846 1041.37 885.047 1076.03 885.047C1110.7 885.047 1138.9 856.847 1138.9 822.179C1138.9 787.514 1110.7 759.309 1076.03 759.309Z" fill="#280659"/>
<path d="M1083.38 820.49C1088.77 817.796 1092.44 812.25 1092.44 805.859C1092.44 796.804 1085.07 789.441 1076.02 789.441C1067 789.441 1059.63 796.804 1059.63 805.859C1059.63 812.25 1063.3 817.796 1068.66 820.49C1056.41 823.717 1047.38 834.902 1047.38 848.187C1047.38 857.149 1104.69 857.149 1104.69 848.187C1104.69 834.902 1095.63 823.717 1083.38 820.49Z" fill="#D5C6DE"/>
<path d="M779.095 825.66C743.205 825.66 714.112 854.754 714.112 890.643C714.112 926.531 743.206 955.625 779.095 955.625C814.983 955.625 844.077 926.531 844.077 890.643C844.077 854.754 814.982 825.66 779.095 825.66Z" fill="white"/>
<path d="M779.093 957.743C742.098 957.743 712.001 927.642 712.001 890.648C712.001 853.649 742.098 823.549 779.093 823.549C816.089 823.549 846.191 853.649 846.191 890.648C846.191 927.642 816.088 957.743 779.093 957.743ZM779.093 827.777C744.43 827.777 716.229 855.98 716.229 890.648C716.229 925.314 744.43 953.515 779.093 953.515C813.763 953.515 841.963 925.314 841.963 890.648C841.963 855.98 813.763 827.777 779.093 827.777Z" fill="#280659"/>
<path d="M786.442 888.96C791.831 886.264 795.498 880.719 795.498 874.328C795.498 865.273 788.135 857.91 779.08 857.91C770.056 857.91 762.693 865.273 762.693 874.328C762.693 880.719 766.359 886.264 771.716 888.96C759.466 892.187 750.442 903.372 750.442 916.656C750.442 925.617 807.747 925.617 807.747 916.656C807.748 903.372 798.693 892.187 786.442 888.96Z" fill="#B59CC6"/>
<path d="M49.0256 738.816C22.8024 738.816 1.54492 760.074 1.54492 786.298C1.54492 812.52 22.8024 833.779 49.0256 833.779C75.2482 833.779 96.5063 812.52 96.5063 786.298C96.5063 760.075 75.2482 738.816 49.0256 738.816Z" fill="white"/>
<path d="M49.0273 835.324C21.9958 835.324 0.000976562 813.331 0.000976562 786.298C0.000976562 759.266 21.9958 737.273 49.0273 737.273C76.0589 737.273 98.0496 759.266 98.0496 786.298C98.0496 813.331 76.0589 835.324 49.0273 835.324ZM49.0273 740.362C23.6949 740.362 3.09023 760.967 3.09023 786.297C3.09023 811.627 23.6956 832.235 49.0273 832.235C74.355 832.235 94.9603 811.627 94.9603 786.297C94.9603 760.968 74.355 740.362 49.0273 740.362Z" fill="#280659"/>
<path d="M54.3946 785.068C58.332 783.099 61.0112 779.047 61.0112 774.377C61.0112 767.761 55.6314 762.381 49.0154 762.381C42.4221 762.381 37.0422 767.761 37.0422 774.377C37.0422 779.047 39.7201 783.099 43.6348 785.068C34.6841 787.426 28.0908 795.598 28.0908 805.304C28.0908 811.852 69.9612 811.852 69.9612 805.304C69.9619 795.598 63.3459 787.426 54.3946 785.068Z" fill="#9E8FB4"/>
<path d="M292.833 869.373C266.609 869.373 245.353 890.631 245.353 916.854C245.353 943.076 266.61 964.334 292.833 964.334C319.056 964.334 340.314 943.076 340.314 916.854C340.314 890.631 319.055 869.373 292.833 869.373Z" fill="white"/>
<path d="M292.831 965.879C265.799 965.879 243.809 943.886 243.809 916.855C243.809 889.821 265.799 867.828 292.831 867.828C319.862 867.828 341.857 889.821 341.857 916.855C341.857 943.886 319.862 965.879 292.831 965.879ZM292.831 870.917C267.503 870.917 246.898 891.526 246.898 916.855C246.898 942.184 267.503 962.79 292.831 962.79C318.163 962.79 338.768 942.184 338.768 916.855C338.768 891.525 318.163 870.917 292.831 870.917Z" fill="#280659"/>
<path d="M298.202 915.624C302.139 913.656 304.818 909.603 304.818 904.933C304.818 898.317 299.438 892.938 292.822 892.938C286.229 892.938 280.849 898.317 280.849 904.933C280.849 909.603 283.527 913.655 287.442 915.624C278.491 917.982 271.898 926.155 271.898 935.861C271.898 942.408 313.768 942.408 313.768 935.861C313.769 926.155 307.153 917.982 298.202 915.624Z" fill="#B5B5B5"/>
<path d="M271.868 554.572C245.644 554.572 224.388 575.83 224.388 602.053C224.388 628.276 245.645 649.534 271.868 649.534C298.091 649.534 319.349 628.276 319.349 602.053C319.349 575.83 298.091 554.572 271.868 554.572Z" fill="white"/>
<path d="M271.868 651.078C244.836 651.078 222.841 629.085 222.841 602.054C222.841 575.02 244.836 553.027 271.868 553.027C298.899 553.027 320.895 575.02 320.895 602.054C320.895 629.085 298.9 651.078 271.868 651.078ZM271.868 556.117C246.536 556.117 225.931 576.725 225.931 602.054C225.931 627.384 246.536 647.989 271.868 647.989C297.2 647.989 317.805 627.384 317.805 602.054C317.805 576.724 297.2 556.117 271.868 556.117Z" fill="#280659"/>
<path d="M277.237 600.824C281.175 598.855 283.853 594.803 283.853 590.133C283.853 583.517 278.473 578.137 271.857 578.137C265.264 578.137 259.884 583.517 259.884 590.133C259.884 594.803 262.563 598.855 266.478 600.824C257.527 603.182 250.934 611.354 250.934 621.061C250.934 627.608 292.804 627.608 292.804 621.061C292.805 611.354 286.189 603.182 277.237 600.824Z" fill="#151515"/>
<path d="M788.489 246.216L699 334.623L700.558 336.2L790.046 247.793L788.489 246.216Z" fill="#280659"/>
<path d="M714.476 552.998L712 555.58L800.524 640.462L803 637.88L714.476 552.998Z" fill="#280659"/>
<path d="M474.112 548.998L384.447 634.742L385.783 636.139L475.447 550.395L474.112 548.998Z" fill="#280659"/>
<path d="M365.084 281.368L454.572 369.775L453.015 371.352L363.526 282.945L365.084 281.368Z" fill="#280659"/>
<path d="M177.128 143.315L176.288 144.519C175.037 143.735 173.758 143.343 172.452 143.343C170.66 143.343 169.25 144.081 168.224 145.555C167.272 146.899 166.796 148.691 166.796 150.931C166.796 153.265 167.412 155.085 168.644 156.391C169.689 157.53 171.033 158.099 172.676 158.099C174.02 158.099 175.298 157.661 176.512 156.783L177.352 158.043C175.896 159.313 174.244 159.947 172.396 159.947C169.838 159.947 167.832 158.958 166.376 156.979C165.181 155.355 164.584 153.339 164.584 150.931C164.584 148.243 165.312 145.985 166.768 144.155C168.149 142.419 169.913 141.551 172.06 141.551C173.964 141.551 175.653 142.139 177.128 143.315ZM191.611 153.283C191.611 155.299 190.977 156.951 189.707 158.239C188.569 159.378 187.169 159.947 185.507 159.947C183.585 159.947 182.035 159.219 180.859 157.763C179.87 156.531 179.375 155.038 179.375 153.283C179.375 151.23 179.991 149.569 181.223 148.299C182.343 147.142 183.771 146.563 185.507 146.563C187.467 146.563 189.026 147.301 190.183 148.775C191.135 150.007 191.611 151.51 191.611 153.283ZM181.391 153.283C181.391 154.907 181.811 156.195 182.651 157.147C183.398 157.987 184.341 158.407 185.479 158.407C186.711 158.407 187.701 157.941 188.447 157.007C189.213 156.055 189.595 154.814 189.595 153.283C189.595 151.678 189.185 150.39 188.363 149.419C187.617 148.523 186.665 148.075 185.507 148.075C184.275 148.075 183.277 148.561 182.511 149.531C181.765 150.483 181.391 151.734 181.391 153.283ZM214.157 159.611H212.281V152.331C212.281 149.569 211.124 148.187 208.809 148.187C207.558 148.187 206.401 148.729 205.337 149.811C205.524 150.465 205.617 151.193 205.617 151.995V159.611H203.769V152.219C203.769 149.531 202.64 148.187 200.381 148.187C199.784 148.187 199.158 148.355 198.505 148.691C197.87 149.009 197.376 149.41 197.021 149.895V159.611H195.145V146.899H196.713L196.881 148.215H196.965C198.141 147.114 199.494 146.563 201.025 146.563C202.854 146.563 204.133 147.245 204.861 148.607C206.093 147.245 207.633 146.563 209.481 146.563C211.012 146.563 212.188 147.058 213.009 148.047C213.774 148.981 214.157 150.297 214.157 151.995V159.611ZM218.387 146.899H219.871L220.123 148.271C221.168 147.133 222.55 146.563 224.267 146.563C226.096 146.563 227.543 147.254 228.607 148.635C229.503 149.811 229.951 151.267 229.951 153.003C229.951 155.299 229.298 157.091 227.991 158.379C226.927 159.425 225.639 159.947 224.127 159.947C222.484 159.947 221.196 159.443 220.263 158.435V164.707H218.387V146.899ZM220.263 150.343V156.363C220.487 156.942 220.926 157.427 221.579 157.819C222.251 158.211 222.942 158.407 223.651 158.407C224.939 158.407 225.975 157.941 226.759 157.007C227.543 156.074 227.935 154.833 227.935 153.283C227.935 151.547 227.506 150.213 226.647 149.279C225.938 148.495 225.004 148.103 223.847 148.103C223.119 148.103 222.41 148.318 221.719 148.747C221.028 149.177 220.543 149.709 220.263 150.343ZM242.805 159.611H241.405L241.125 158.239C239.986 159.378 238.568 159.947 236.869 159.947C235.581 159.947 234.554 159.593 233.789 158.883C233.024 158.155 232.641 157.194 232.641 155.999C232.641 153.087 234.769 151.631 239.025 151.631H240.957V151.463C240.957 149.242 239.874 148.131 237.709 148.131C236.477 148.131 235.292 148.542 234.153 149.363L233.537 148.327C234.825 147.151 236.393 146.563 238.241 146.563C239.716 146.563 240.845 147.021 241.629 147.935C242.413 148.85 242.805 150.166 242.805 151.883V159.611ZM240.957 153.003H239.249C236.188 153.003 234.657 153.946 234.657 155.831C234.657 156.634 234.89 157.269 235.357 157.735C235.842 158.183 236.514 158.407 237.373 158.407C238.12 158.407 238.838 158.221 239.529 157.847C240.22 157.474 240.696 157.007 240.957 156.447V153.003ZM257.821 159.611H255.973V152.163C255.973 149.513 254.816 148.187 252.501 148.187C251.829 148.187 251.167 148.346 250.513 148.663C249.86 148.981 249.356 149.382 249.001 149.867V159.611H247.125V146.899H248.693L248.861 148.243H248.945C250.047 147.123 251.428 146.563 253.089 146.563C256.244 146.563 257.821 148.383 257.821 152.023V159.611ZM264.043 146.899V159.611H262.195V146.899H264.043ZM261.915 142.755C261.915 142.438 262.036 142.158 262.279 141.915C262.522 141.673 262.811 141.551 263.147 141.551C263.483 141.551 263.772 141.673 264.015 141.915C264.258 142.158 264.379 142.438 264.379 142.755C264.379 143.11 264.258 143.409 264.015 143.651C263.772 143.875 263.483 143.987 263.147 143.987C262.792 143.987 262.494 143.875 262.251 143.651C262.027 143.409 261.915 143.11 261.915 142.755ZM278.895 153.899H269.823C269.898 155.262 270.364 156.354 271.223 157.175C272.1 157.997 273.23 158.407 274.611 158.407C275.768 158.407 276.898 158.062 277.999 157.371L278.643 158.491C277.411 159.462 275.927 159.947 274.191 159.947C272.175 159.947 270.57 159.285 269.375 157.959C268.274 156.765 267.723 155.215 267.723 153.311C267.723 151.333 268.311 149.681 269.487 148.355C270.551 147.161 271.867 146.563 273.435 146.563C275.32 146.563 276.758 147.329 277.747 148.859C278.512 150.054 278.895 151.529 278.895 153.283V153.899ZM269.795 152.387H276.963C276.907 151.025 276.571 149.961 275.955 149.195C275.358 148.43 274.527 148.047 273.463 148.047C272.455 148.047 271.606 148.449 270.915 149.251C270.243 150.054 269.87 151.099 269.795 152.387ZM289.09 148.803C288.157 148.318 287.14 148.075 286.038 148.075C285.292 148.075 284.704 148.243 284.274 148.579C283.864 148.897 283.658 149.335 283.658 149.895C283.658 150.493 283.845 150.959 284.218 151.295C284.61 151.613 285.348 151.93 286.43 152.247C287.961 152.714 289.025 153.237 289.622 153.815C290.22 154.394 290.518 155.206 290.518 156.251C290.518 157.353 290.098 158.249 289.258 158.939C288.437 159.611 287.373 159.947 286.066 159.947C284.349 159.947 282.856 159.481 281.586 158.547C281.642 158.454 281.736 158.295 281.866 158.071C281.997 157.829 282.109 157.642 282.202 157.511C283.285 158.109 284.452 158.407 285.702 158.407C287.662 158.407 288.642 157.67 288.642 156.195C288.642 155.598 288.428 155.131 287.998 154.795C287.588 154.459 286.813 154.142 285.674 153.843C283.024 153.097 281.698 151.799 281.698 149.951C281.698 148.962 282.081 148.15 282.846 147.515C283.63 146.881 284.629 146.563 285.842 146.563C287.28 146.563 288.568 146.965 289.706 147.767L289.09 148.803ZM147.105 183.551V201.611H145.229V184.559L147.105 183.551ZM160.787 201.611H159.387L159.107 200.239C157.969 201.378 156.55 201.947 154.851 201.947C153.563 201.947 152.537 201.593 151.771 200.883C151.006 200.155 150.623 199.194 150.623 197.999C150.623 195.087 152.751 193.631 157.007 193.631H158.939V193.463C158.939 191.242 157.857 190.131 155.691 190.131C154.459 190.131 153.274 190.542 152.135 191.363L151.519 190.327C152.807 189.151 154.375 188.563 156.223 188.563C157.698 188.563 158.827 189.021 159.611 189.935C160.395 190.85 160.787 192.166 160.787 193.883V201.611ZM158.939 195.003H157.231C154.17 195.003 152.639 195.946 152.639 197.831C152.639 198.634 152.873 199.269 153.339 199.735C153.825 200.183 154.497 200.407 155.355 200.407C156.102 200.407 156.821 200.221 157.511 199.847C158.202 199.474 158.678 199.007 158.939 198.447V195.003ZM175.356 188.899V201.611H173.9L173.732 200.155L173.648 200.183C172.509 201.359 171.128 201.947 169.504 201.947C168.141 201.947 167.068 201.471 166.284 200.519C165.5 199.549 165.108 198.214 165.108 196.515V188.899H166.984V196.179C166.984 198.923 168.01 200.295 170.064 200.295C170.698 200.295 171.333 200.137 171.968 199.819C172.621 199.502 173.134 199.091 173.508 198.587V188.899H175.356ZM190.433 201.611H188.585V194.163C188.585 191.513 187.427 190.187 185.113 190.187C184.441 190.187 183.778 190.346 183.125 190.663C182.471 190.981 181.967 191.382 181.613 191.867V201.611H179.737V188.899H181.305L181.473 190.243H181.557C182.658 189.123 184.039 188.563 185.701 188.563C188.855 188.563 190.433 190.383 190.433 194.023V201.611ZM204.27 189.907L203.654 190.971C202.702 190.374 201.666 190.075 200.546 190.075C199.016 190.075 197.821 190.635 196.962 191.755C196.216 192.726 195.842 193.939 195.842 195.395C195.842 196.945 196.318 198.186 197.27 199.119C198.148 199.978 199.296 200.407 200.714 200.407C201.909 200.407 202.964 200.062 203.878 199.371L204.494 200.491C203.449 201.462 202.049 201.947 200.294 201.947C198.241 201.947 196.608 201.257 195.394 199.875C194.349 198.662 193.826 197.141 193.826 195.311C193.826 193.258 194.508 191.578 195.87 190.271C197.046 189.133 198.465 188.563 200.126 188.563C201.75 188.563 203.132 189.011 204.27 189.907ZM218.542 201.611H216.694V194.163C216.694 191.513 215.518 190.187 213.166 190.187C212.531 190.187 211.878 190.355 211.206 190.691C210.534 191.009 210.039 191.401 209.722 191.867V201.611H207.846V184.531L209.722 183.551V190.243C210.879 189.123 212.223 188.563 213.754 188.563C216.946 188.563 218.542 190.383 218.542 194.023V201.611ZM224.764 188.899V201.611H222.916V188.899H224.764ZM222.636 184.755C222.636 184.438 222.757 184.158 223 183.915C223.242 183.673 223.532 183.551 223.868 183.551C224.204 183.551 224.493 183.673 224.736 183.915C224.978 184.158 225.1 184.438 225.1 184.755C225.1 185.11 224.978 185.409 224.736 185.651C224.493 185.875 224.204 185.987 223.868 185.987C223.513 185.987 223.214 185.875 222.972 185.651C222.748 185.409 222.636 185.11 222.636 184.755ZM239.98 201.611H238.132V194.163C238.132 191.513 236.974 190.187 234.66 190.187C233.988 190.187 233.325 190.346 232.672 190.663C232.018 190.981 231.514 191.382 231.16 191.867V201.611H229.284V188.899H230.852L231.02 190.243H231.104C232.205 189.123 233.586 188.563 235.248 188.563C238.402 188.563 239.98 190.383 239.98 194.023V201.611ZM253.173 190.187L253.453 188.899H254.909V200.575C254.909 204.831 253.052 206.959 249.337 206.959C247.583 206.959 246.033 206.371 244.689 205.195L245.333 204.159C246.491 204.962 247.723 205.363 249.029 205.363C250.411 205.363 251.428 204.981 252.081 204.215C252.735 203.45 253.061 202.237 253.061 200.575V200.323C252.147 201.406 250.896 201.947 249.309 201.947C247.461 201.947 245.996 201.257 244.913 199.875C243.98 198.681 243.513 197.197 243.513 195.423C243.513 193.183 244.167 191.429 245.473 190.159C246.556 189.095 247.891 188.563 249.477 188.563C250.187 188.563 250.887 188.722 251.577 189.039C252.287 189.338 252.819 189.721 253.173 190.187ZM253.061 198.223V192.147C252.819 191.569 252.38 191.083 251.745 190.691C251.111 190.281 250.439 190.075 249.729 190.075C248.497 190.075 247.489 190.561 246.705 191.531C245.921 192.483 245.529 193.715 245.529 195.227C245.529 196.945 245.959 198.279 246.817 199.231C247.564 200.015 248.497 200.407 249.617 200.407C250.364 200.407 251.045 200.211 251.661 199.819C252.296 199.409 252.763 198.877 253.061 198.223ZM276.702 201.611H274.854V194.163C274.854 191.513 273.697 190.187 271.382 190.187C270.71 190.187 270.048 190.346 269.394 190.663C268.741 190.981 268.237 191.382 267.882 191.867V201.611H266.006V188.899H267.574L267.742 190.243H267.826C268.928 189.123 270.309 188.563 271.97 188.563C275.125 188.563 276.702 190.383 276.702 194.023V201.611ZM291.268 195.899H282.196C282.271 197.262 282.737 198.354 283.596 199.175C284.473 199.997 285.603 200.407 286.984 200.407C288.141 200.407 289.271 200.062 290.372 199.371L291.016 200.491C289.784 201.462 288.3 201.947 286.564 201.947C284.548 201.947 282.943 201.285 281.748 199.959C280.647 198.765 280.096 197.215 280.096 195.311C280.096 193.333 280.684 191.681 281.86 190.355C282.924 189.161 284.24 188.563 285.808 188.563C287.693 188.563 289.131 189.329 290.12 190.859C290.885 192.054 291.268 193.529 291.268 195.283V195.899ZM282.168 194.387H289.336C289.28 193.025 288.944 191.961 288.328 191.195C287.731 190.43 286.9 190.047 285.836 190.047C284.828 190.047 283.979 190.449 283.288 191.251C282.616 192.054 282.243 193.099 282.168 194.387ZM299.251 201.611H297.235L293.035 188.899H295.051L298.243 199.427L301.295 188.899H303.451L306.363 199.427L309.555 188.899H311.571L307.343 201.611H305.327L302.359 191.167L299.251 201.611ZM177.248 230.899H178.732L178.984 232.271C180.03 231.133 181.411 230.563 183.128 230.563C184.958 230.563 186.404 231.254 187.468 232.635C188.364 233.811 188.812 235.267 188.812 237.003C188.812 239.299 188.159 241.091 186.852 242.379C185.788 243.425 184.5 243.947 182.988 243.947C181.346 243.947 180.058 243.443 179.124 242.435V248.707H177.248V230.899ZM179.124 234.343V240.363C179.348 240.942 179.787 241.427 180.44 241.819C181.112 242.211 181.803 242.407 182.512 242.407C183.8 242.407 184.836 241.941 185.62 241.007C186.404 240.074 186.796 238.833 186.796 237.283C186.796 235.547 186.367 234.213 185.508 233.279C184.799 232.495 183.866 232.103 182.708 232.103C181.98 232.103 181.271 232.318 180.58 232.747C179.89 233.177 179.404 233.709 179.124 234.343ZM200.63 231.991L199.09 233.055C198.456 232.495 197.774 232.215 197.046 232.215C195.982 232.215 195.04 232.766 194.218 233.867V243.611H192.342V230.899H193.938L194.106 232.243H194.162C195.264 231.123 196.393 230.563 197.55 230.563C198.913 230.563 199.94 231.039 200.63 231.991ZM213.992 237.283C213.992 239.299 213.357 240.951 212.088 242.239C210.949 243.378 209.549 243.947 207.888 243.947C205.965 243.947 204.416 243.219 203.24 241.763C202.251 240.531 201.756 239.038 201.756 237.283C201.756 235.23 202.372 233.569 203.604 232.299C204.724 231.142 206.152 230.563 207.888 230.563C209.848 230.563 211.407 231.301 212.564 232.775C213.516 234.007 213.992 235.51 213.992 237.283ZM203.772 237.283C203.772 238.907 204.192 240.195 205.032 241.147C205.779 241.987 206.721 242.407 207.86 242.407C209.092 242.407 210.081 241.941 210.828 241.007C211.593 240.055 211.976 238.814 211.976 237.283C211.976 235.678 211.565 234.39 210.744 233.419C209.997 232.523 209.045 232.075 207.888 232.075C206.656 232.075 205.657 232.561 204.892 233.531C204.145 234.483 203.772 235.734 203.772 237.283ZM226.682 243.611L226.374 242.267C225.478 243.387 224.18 243.947 222.482 243.947C220.634 243.947 219.168 243.257 218.086 241.875C217.152 240.681 216.686 239.197 216.686 237.423C216.686 235.183 217.339 233.429 218.646 232.159C219.728 231.095 221.063 230.563 222.65 230.563C224.143 230.563 225.338 231.058 226.234 232.047V226.615L228.082 225.579V243.611H226.682ZM226.234 240.223V234.147C225.991 233.569 225.552 233.083 224.918 232.691C224.283 232.281 223.611 232.075 222.902 232.075C221.67 232.075 220.662 232.561 219.878 233.531C219.094 234.483 218.702 235.715 218.702 237.227C218.702 238.945 219.131 240.279 219.99 241.231C220.736 242.015 221.67 242.407 222.79 242.407C223.536 242.407 224.218 242.211 224.834 241.819C225.468 241.409 225.935 240.877 226.234 240.223ZM242.703 230.899V243.611H241.247L241.079 242.155L240.995 242.183C239.857 243.359 238.475 243.947 236.851 243.947C235.489 243.947 234.415 243.471 233.631 242.519C232.847 241.549 232.455 240.214 232.455 238.515V230.899H234.331V238.179C234.331 240.923 235.358 242.295 237.411 242.295C238.046 242.295 238.681 242.137 239.315 241.819C239.969 241.502 240.482 241.091 240.855 240.587V230.899H242.703ZM256.688 231.907L256.072 232.971C255.12 232.374 254.084 232.075 252.964 232.075C251.434 232.075 250.239 232.635 249.38 233.755C248.634 234.726 248.26 235.939 248.26 237.395C248.26 238.945 248.736 240.186 249.688 241.119C250.566 241.978 251.714 242.407 253.132 242.407C254.327 242.407 255.382 242.062 256.296 241.371L256.912 242.491C255.867 243.462 254.467 243.947 252.712 243.947C250.659 243.947 249.026 243.257 247.812 241.875C246.767 240.662 246.244 239.141 246.244 237.311C246.244 235.258 246.926 233.578 248.288 232.271C249.464 231.133 250.883 230.563 252.544 230.563C254.168 230.563 255.55 231.011 256.688 231.907ZM263.064 232.439L263.036 240.391C263.036 241.754 263.587 242.435 264.688 242.435C265.304 242.435 265.911 242.277 266.508 241.959L267.18 242.995C266.265 243.63 265.304 243.947 264.296 243.947C263.307 243.947 262.541 243.639 262 243.023C261.459 242.407 261.188 241.549 261.188 240.447V232.439H259.256V230.899H261.216V228.127L263.064 227.175V230.899H266.956V232.439H263.064ZM277.209 232.803C276.276 232.318 275.259 232.075 274.157 232.075C273.411 232.075 272.823 232.243 272.393 232.579C271.983 232.897 271.777 233.335 271.777 233.895C271.777 234.493 271.964 234.959 272.337 235.295C272.729 235.613 273.467 235.93 274.549 236.247C276.08 236.714 277.144 237.237 277.741 237.815C278.339 238.394 278.637 239.206 278.637 240.251C278.637 241.353 278.217 242.249 277.377 242.939C276.556 243.611 275.492 243.947 274.185 243.947C272.468 243.947 270.975 243.481 269.705 242.547C269.761 242.454 269.855 242.295 269.985 242.071C270.116 241.829 270.228 241.642 270.321 241.511C271.404 242.109 272.571 242.407 273.821 242.407C275.781 242.407 276.761 241.67 276.761 240.195C276.761 239.598 276.547 239.131 276.117 238.795C275.707 238.459 274.932 238.142 273.793 237.843C271.143 237.097 269.817 235.799 269.817 233.951C269.817 232.962 270.2 232.15 270.965 231.515C271.749 230.881 272.748 230.563 273.961 230.563C275.399 230.563 276.687 230.965 277.825 231.767L277.209 232.803Z" fill="#280659"/>
<path d="M124.899 737.97V720.274C126.411 720.05 127.932 719.938 129.463 719.938C131.61 719.938 133.196 720.451 134.223 721.478C135.026 722.299 135.427 723.382 135.427 724.726C135.427 725.659 135.138 726.471 134.559 727.162C133.999 727.853 133.252 728.31 132.319 728.534V728.562C133.458 728.749 134.354 729.271 135.007 730.13C135.66 730.97 135.987 732.034 135.987 733.322C135.987 735.021 135.324 736.309 133.999 737.186C132.86 737.951 131.348 738.334 129.463 738.334C128.082 738.334 126.56 738.213 124.899 737.97ZM126.971 721.786V727.75H129.883C130.891 727.75 131.703 727.498 132.319 726.994C132.954 726.471 133.271 725.781 133.271 724.922C133.271 722.701 131.983 721.59 129.407 721.59C128.418 721.59 127.606 721.655 126.971 721.786ZM126.971 729.486V736.486C127.755 736.598 128.67 736.654 129.715 736.654C132.422 736.654 133.775 735.534 133.775 733.294C133.775 732.099 133.43 731.166 132.739 730.494C132.067 729.822 131.115 729.486 129.883 729.486H126.971ZM147.863 726.378L146.323 727.442C145.688 726.882 145.007 726.602 144.279 726.602C143.215 726.602 142.272 727.153 141.451 728.254V737.998H139.575V725.286H141.171L141.339 726.63H141.395C142.496 725.51 143.625 724.95 144.783 724.95C146.145 724.95 147.172 725.426 147.863 726.378ZM159.317 737.998H157.917L157.637 736.626C156.498 737.765 155.079 738.334 153.381 738.334C152.093 738.334 151.066 737.979 150.301 737.27C149.535 736.542 149.153 735.581 149.153 734.386C149.153 731.474 151.281 730.018 155.537 730.018H157.469V729.85C157.469 727.629 156.386 726.518 154.221 726.518C152.989 726.518 151.803 726.929 150.665 727.75L150.049 726.714C151.337 725.538 152.905 724.95 154.753 724.95C156.227 724.95 157.357 725.407 158.141 726.322C158.925 727.237 159.317 728.553 159.317 730.27V737.998ZM157.469 731.39H155.761C152.699 731.39 151.169 732.333 151.169 734.218C151.169 735.021 151.402 735.655 151.869 736.122C152.354 736.57 153.026 736.794 153.885 736.794C154.631 736.794 155.35 736.607 156.041 736.234C156.731 735.861 157.207 735.394 157.469 734.834V731.39ZM174.333 737.998H172.485V730.55C172.485 727.899 171.328 726.574 169.013 726.574C168.341 726.574 167.678 726.733 167.025 727.05C166.372 727.367 165.868 727.769 165.513 728.254V737.998H163.637V725.286H165.205L165.373 726.63H165.457C166.558 725.51 167.94 724.95 169.601 724.95C172.756 724.95 174.333 726.77 174.333 730.41V737.998ZM187.723 737.998L187.415 736.654C186.519 737.774 185.221 738.334 183.523 738.334C181.675 738.334 180.209 737.643 179.127 736.262C178.193 735.067 177.727 733.583 177.727 731.81C177.727 729.57 178.38 727.815 179.687 726.546C180.769 725.482 182.104 724.95 183.691 724.95C185.184 724.95 186.379 725.445 187.275 726.434V721.002L189.123 719.966V737.998H187.723ZM187.275 734.61V728.534C187.032 727.955 186.593 727.47 185.959 727.078C185.324 726.667 184.652 726.462 183.943 726.462C182.711 726.462 181.703 726.947 180.919 727.918C180.135 728.87 179.743 730.102 179.743 731.614C179.743 733.331 180.172 734.666 181.031 735.618C181.777 736.402 182.711 736.794 183.831 736.794C184.577 736.794 185.259 736.598 185.875 736.206C186.509 735.795 186.976 735.263 187.275 734.61ZM200.161 727.19C199.227 726.705 198.21 726.462 197.109 726.462C196.362 726.462 195.774 726.63 195.345 726.966C194.934 727.283 194.729 727.722 194.729 728.282C194.729 728.879 194.915 729.346 195.289 729.682C195.681 729.999 196.418 730.317 197.501 730.634C199.031 731.101 200.095 731.623 200.693 732.202C201.29 732.781 201.589 733.593 201.589 734.638C201.589 735.739 201.169 736.635 200.329 737.326C199.507 737.998 198.443 738.334 197.137 738.334C195.419 738.334 193.926 737.867 192.657 736.934C192.713 736.841 192.806 736.682 192.937 736.458C193.067 736.215 193.179 736.029 193.273 735.898C194.355 736.495 195.522 736.794 196.773 736.794C198.733 736.794 199.713 736.057 199.713 734.582C199.713 733.985 199.498 733.518 199.069 733.182C198.658 732.846 197.883 732.529 196.745 732.23C194.094 731.483 192.769 730.186 192.769 728.338C192.769 727.349 193.151 726.537 193.917 725.902C194.701 725.267 195.699 724.95 196.913 724.95C198.35 724.95 199.638 725.351 200.777 726.154L200.161 727.19ZM213.72 719.938V737.998H211.844V720.946L213.72 719.938ZM229.475 731.67C229.475 733.686 228.84 735.338 227.571 736.626C226.432 737.765 225.032 738.334 223.371 738.334C221.448 738.334 219.899 737.606 218.723 736.15C217.733 734.918 217.239 733.425 217.239 731.67C217.239 729.617 217.855 727.955 219.087 726.686C220.207 725.529 221.635 724.95 223.371 724.95C225.331 724.95 226.889 725.687 228.047 727.162C228.999 728.394 229.475 729.897 229.475 731.67ZM219.255 731.67C219.255 733.294 219.675 734.582 220.515 735.534C221.261 736.374 222.204 736.794 223.343 736.794C224.575 736.794 225.564 736.327 226.311 735.394C227.076 734.442 227.459 733.201 227.459 731.67C227.459 730.065 227.048 728.777 226.227 727.806C225.48 726.91 224.528 726.462 223.371 726.462C222.139 726.462 221.14 726.947 220.375 727.918C219.628 728.87 219.255 730.121 219.255 731.67ZM244.404 731.67C244.404 733.686 243.77 735.338 242.5 736.626C241.362 737.765 239.962 738.334 238.3 738.334C236.378 738.334 234.828 737.606 233.652 736.15C232.663 734.918 232.168 733.425 232.168 731.67C232.168 729.617 232.784 727.955 234.016 726.686C235.136 725.529 236.564 724.95 238.3 724.95C240.26 724.95 241.819 725.687 242.976 727.162C243.928 728.394 244.404 729.897 244.404 731.67ZM234.184 731.67C234.184 733.294 234.604 734.582 235.444 735.534C236.191 736.374 237.134 736.794 238.272 736.794C239.504 736.794 240.494 736.327 241.24 735.394C242.006 734.442 242.388 733.201 242.388 731.67C242.388 730.065 241.978 728.777 241.156 727.806C240.41 726.91 239.458 726.462 238.3 726.462C237.068 726.462 236.07 726.947 235.304 727.918C234.558 728.87 234.184 730.121 234.184 731.67ZM257.01 725.286L251.382 730.242L257.682 737.998H255.414L249.814 730.942V737.998H247.938V720.946L249.814 719.938V729.542L254.406 725.286H257.01ZM262.422 725.286V737.998H260.574V725.286H262.422ZM260.294 721.142C260.294 720.825 260.415 720.545 260.658 720.302C260.901 720.059 261.19 719.938 261.526 719.938C261.862 719.938 262.151 720.059 262.394 720.302C262.637 720.545 262.758 720.825 262.758 721.142C262.758 721.497 262.637 721.795 262.394 722.038C262.151 722.262 261.862 722.374 261.526 722.374C261.171 722.374 260.873 722.262 260.63 722.038C260.406 721.795 260.294 721.497 260.294 721.142ZM277.638 737.998H275.79V730.55C275.79 727.899 274.632 726.574 272.318 726.574C271.646 726.574 270.983 726.733 270.33 727.05C269.676 727.367 269.172 727.769 268.818 728.254V737.998H266.942V725.286H268.51L268.678 726.63H268.762C269.863 725.51 271.244 724.95 272.906 724.95C276.06 724.95 277.638 726.77 277.638 730.41V737.998ZM290.832 726.574L291.112 725.286H292.568V736.962C292.568 741.218 290.71 743.346 286.996 743.346C285.241 743.346 283.692 742.758 282.348 741.582L282.992 740.546C284.149 741.349 285.381 741.75 286.688 741.75C288.069 741.75 289.086 741.367 289.74 740.602C290.393 739.837 290.72 738.623 290.72 736.962V736.71C289.805 737.793 288.554 738.334 286.968 738.334C285.12 738.334 283.654 737.643 282.572 736.262C281.638 735.067 281.172 733.583 281.172 731.81C281.172 729.57 281.825 727.815 283.132 726.546C284.214 725.482 285.549 724.95 287.136 724.95C287.845 724.95 288.545 725.109 289.236 725.426C289.945 725.725 290.477 726.107 290.832 726.574ZM290.72 734.61V728.534C290.477 727.955 290.038 727.47 289.404 727.078C288.769 726.667 288.097 726.462 287.388 726.462C286.156 726.462 285.148 726.947 284.364 727.918C283.58 728.87 283.188 730.102 283.188 731.614C283.188 733.331 283.617 734.666 284.476 735.618C285.222 736.402 286.156 736.794 287.276 736.794C288.022 736.794 288.704 736.598 289.32 736.206C289.954 735.795 290.421 735.263 290.72 734.61ZM306.464 726.826L306.436 734.778C306.436 736.141 306.987 736.822 308.088 736.822C308.704 736.822 309.311 736.663 309.908 736.346L310.58 737.382C309.666 738.017 308.704 738.334 307.696 738.334C306.707 738.334 305.942 738.026 305.4 737.41C304.859 736.794 304.588 735.935 304.588 734.834V726.826H302.656V725.286H304.616V722.514L306.464 721.562V725.286H310.356V726.826H306.464ZM325.068 731.67C325.068 733.686 324.434 735.338 323.164 736.626C322.026 737.765 320.626 738.334 318.964 738.334C317.042 738.334 315.492 737.606 314.316 736.15C313.327 734.918 312.832 733.425 312.832 731.67C312.832 729.617 313.448 727.955 314.68 726.686C315.8 725.529 317.228 724.95 318.964 724.95C320.924 724.95 322.483 725.687 323.64 727.162C324.592 728.394 325.068 729.897 325.068 731.67ZM314.848 731.67C314.848 733.294 315.268 734.582 316.108 735.534C316.855 736.374 317.798 736.794 318.936 736.794C320.168 736.794 321.158 736.327 321.904 735.394C322.67 734.442 323.052 733.201 323.052 731.67C323.052 730.065 322.642 728.777 321.82 727.806C321.074 726.91 320.122 726.462 318.964 726.462C317.732 726.462 316.734 726.947 315.968 727.918C315.222 728.87 314.848 730.121 314.848 731.67ZM165.775 768.574L166.055 767.286H167.511V778.962C167.511 783.218 165.654 785.346 161.939 785.346C160.184 785.346 158.635 784.758 157.291 783.582L157.935 782.546C159.092 783.349 160.324 783.75 161.631 783.75C163.012 783.75 164.03 783.367 164.683 782.602C165.336 781.837 165.663 780.623 165.663 778.962V778.71C164.748 779.793 163.498 780.334 161.911 780.334C160.063 780.334 158.598 779.643 157.515 778.262C156.582 777.067 156.115 775.583 156.115 773.81C156.115 771.57 156.768 769.815 158.075 768.546C159.158 767.482 160.492 766.95 162.079 766.95C162.788 766.95 163.488 767.109 164.179 767.426C164.888 767.725 165.42 768.107 165.775 768.574ZM165.663 776.61V770.534C165.42 769.955 164.982 769.47 164.347 769.078C163.712 768.667 163.04 768.462 162.331 768.462C161.099 768.462 160.091 768.947 159.307 769.918C158.523 770.87 158.131 772.102 158.131 773.614C158.131 775.331 158.56 776.666 159.419 777.618C160.166 778.402 161.099 778.794 162.219 778.794C162.966 778.794 163.647 778.598 164.263 778.206C164.898 777.795 165.364 777.263 165.663 776.61ZM180.169 768.378L178.629 769.442C177.995 768.882 177.313 768.602 176.585 768.602C175.521 768.602 174.579 769.153 173.757 770.254V779.998H171.881V767.286H173.477L173.645 768.63H173.701C174.803 767.51 175.932 766.95 177.089 766.95C178.452 766.95 179.479 767.426 180.169 768.378ZM193.531 773.67C193.531 775.686 192.897 777.338 191.627 778.626C190.489 779.765 189.089 780.334 187.427 780.334C185.505 780.334 183.955 779.606 182.779 778.15C181.79 776.918 181.295 775.425 181.295 773.67C181.295 771.617 181.911 769.955 183.143 768.686C184.263 767.529 185.691 766.95 187.427 766.95C189.387 766.95 190.946 767.687 192.103 769.162C193.055 770.394 193.531 771.897 193.531 773.67ZM183.311 773.67C183.311 775.294 183.731 776.582 184.571 777.534C185.318 778.374 186.261 778.794 187.399 778.794C188.631 778.794 189.621 778.327 190.367 777.394C191.133 776.442 191.515 775.201 191.515 773.67C191.515 772.065 191.105 770.777 190.283 769.806C189.537 768.91 188.585 768.462 187.427 768.462C186.195 768.462 185.197 768.947 184.431 769.918C183.685 770.87 183.311 772.121 183.311 773.67ZM201.517 779.998H199.501L195.301 767.286H197.317L200.509 777.814L203.561 767.286H205.717L208.629 777.814L211.821 767.286H213.837L209.609 779.998H207.593L204.625 769.554L201.517 779.998ZM232.334 779.998L232.026 778.654C231.13 779.774 229.833 780.334 228.134 780.334C226.286 780.334 224.821 779.643 223.738 778.262C222.805 777.067 222.338 775.583 222.338 773.81C222.338 771.57 222.991 769.815 224.298 768.546C225.381 767.482 226.715 766.95 228.302 766.95C229.795 766.95 230.99 767.445 231.886 768.434V763.002L233.734 761.966V779.998H232.334ZM231.886 776.61V770.534C231.643 769.955 231.205 769.47 230.57 769.078C229.935 768.667 229.263 768.462 228.554 768.462C227.322 768.462 226.314 768.947 225.53 769.918C224.746 770.87 224.354 772.102 224.354 773.614C224.354 775.331 224.783 776.666 225.642 777.618C226.389 778.402 227.322 778.794 228.442 778.794C229.189 778.794 229.87 778.598 230.486 778.206C231.121 777.795 231.587 777.263 231.886 776.61ZM240.096 767.286V779.998H238.248V767.286H240.096ZM237.968 763.142C237.968 762.825 238.089 762.545 238.332 762.302C238.574 762.059 238.864 761.938 239.2 761.938C239.536 761.938 239.825 762.059 240.068 762.302C240.31 762.545 240.432 762.825 240.432 763.142C240.432 763.497 240.31 763.795 240.068 764.038C239.825 764.262 239.536 764.374 239.2 764.374C238.845 764.374 238.546 764.262 238.304 764.038C238.08 763.795 237.968 763.497 237.968 763.142ZM253.576 768.574L253.856 767.286H255.312V778.962C255.312 783.218 253.454 785.346 249.74 785.346C247.985 785.346 246.436 784.758 245.092 783.582L245.736 782.546C246.893 783.349 248.125 783.75 249.432 783.75C250.813 783.75 251.83 783.367 252.484 782.602C253.137 781.837 253.464 780.623 253.464 778.962V778.71C252.549 779.793 251.298 780.334 249.712 780.334C247.864 780.334 246.398 779.643 245.316 778.262C244.382 777.067 243.916 775.583 243.916 773.81C243.916 771.57 244.569 769.815 245.876 768.546C246.958 767.482 248.293 766.95 249.88 766.95C250.589 766.95 251.289 767.109 251.98 767.426C252.689 767.725 253.221 768.107 253.576 768.574ZM253.464 776.61V770.534C253.221 769.955 252.782 769.47 252.148 769.078C251.513 768.667 250.841 768.462 250.132 768.462C248.9 768.462 247.892 768.947 247.108 769.918C246.324 770.87 245.932 772.102 245.932 773.614C245.932 775.331 246.361 776.666 247.22 777.618C247.966 778.402 248.9 778.794 250.02 778.794C250.766 778.794 251.448 778.598 252.064 778.206C252.698 777.795 253.165 777.263 253.464 776.61ZM261.67 767.286V779.998H259.822V767.286H261.67ZM259.542 763.142C259.542 762.825 259.663 762.545 259.906 762.302C260.149 762.059 260.438 761.938 260.774 761.938C261.11 761.938 261.399 762.059 261.642 762.302C261.885 762.545 262.006 762.825 262.006 763.142C262.006 763.497 261.885 763.795 261.642 764.038C261.399 764.262 261.11 764.374 260.774 764.374C260.419 764.374 260.121 764.262 259.878 764.038C259.654 763.795 259.542 763.497 259.542 763.142ZM268.99 768.826L268.962 776.778C268.962 778.141 269.513 778.822 270.614 778.822C271.23 778.822 271.837 778.663 272.434 778.346L273.106 779.382C272.191 780.017 271.23 780.334 270.222 780.334C269.233 780.334 268.467 780.026 267.926 779.41C267.385 778.794 267.114 777.935 267.114 776.834V768.826H265.182V767.286H267.142V764.514L268.99 763.562V767.286H272.882V768.826H268.99ZM285.795 779.998H284.395L284.115 778.626C282.976 779.765 281.558 780.334 279.859 780.334C278.571 780.334 277.544 779.979 276.779 779.27C276.014 778.542 275.631 777.581 275.631 776.386C275.631 773.474 277.759 772.018 282.015 772.018H283.947V771.85C283.947 769.629 282.864 768.518 280.699 768.518C279.467 768.518 278.282 768.929 277.143 769.75L276.527 768.714C277.815 767.538 279.383 766.95 281.231 766.95C282.706 766.95 283.835 767.407 284.619 768.322C285.403 769.237 285.795 770.553 285.795 772.27V779.998ZM283.947 773.39H282.239C279.178 773.39 277.647 774.333 277.647 776.218C277.647 777.021 277.88 777.655 278.347 778.122C278.832 778.57 279.504 778.794 280.363 778.794C281.11 778.794 281.828 778.607 282.519 778.234C283.21 777.861 283.686 777.394 283.947 776.834V773.39ZM291.992 761.938V779.998H290.116V762.946L291.992 761.938ZM173.385 809.286H174.869L175.121 810.658C176.167 809.519 177.548 808.95 179.265 808.95C181.095 808.95 182.541 809.641 183.605 811.022C184.501 812.198 184.949 813.654 184.949 815.39C184.949 817.686 184.296 819.478 182.989 820.766C181.925 821.811 180.637 822.334 179.125 822.334C177.483 822.334 176.195 821.83 175.261 820.822V827.094H173.385V809.286ZM175.261 812.73V818.75C175.485 819.329 175.924 819.814 176.577 820.206C177.249 820.598 177.94 820.794 178.649 820.794C179.937 820.794 180.973 820.327 181.757 819.394C182.541 818.461 182.933 817.219 182.933 815.67C182.933 813.934 182.504 812.599 181.645 811.666C180.936 810.882 180.003 810.49 178.845 810.49C178.117 810.49 177.408 810.705 176.717 811.134C176.027 811.563 175.541 812.095 175.261 812.73ZM196.767 810.378L195.227 811.442C194.592 810.882 193.911 810.602 193.183 810.602C192.119 810.602 191.176 811.153 190.355 812.254V821.998H188.479V809.286H190.075L190.243 810.63H190.299C191.4 809.51 192.53 808.95 193.687 808.95C195.05 808.95 196.076 809.426 196.767 810.378ZM209.065 816.286H199.993C200.067 817.649 200.534 818.741 201.393 819.562C202.27 820.383 203.399 820.794 204.781 820.794C205.938 820.794 207.067 820.449 208.169 819.758L208.813 820.878C207.581 821.849 206.097 822.334 204.361 822.334C202.345 822.334 200.739 821.671 199.545 820.346C198.443 819.151 197.893 817.602 197.893 815.698C197.893 813.719 198.481 812.067 199.657 810.742C200.721 809.547 202.037 808.95 203.605 808.95C205.49 808.95 206.927 809.715 207.917 811.246C208.682 812.441 209.065 813.915 209.065 815.67V816.286ZM199.965 814.774H207.133C207.077 813.411 206.741 812.347 206.125 811.582C205.527 810.817 204.697 810.434 203.633 810.434C202.625 810.434 201.775 810.835 201.085 811.638C200.413 812.441 200.039 813.486 199.965 814.774ZM219.26 811.19C218.327 810.705 217.309 810.462 216.208 810.462C215.461 810.462 214.873 810.63 214.444 810.966C214.033 811.283 213.828 811.722 213.828 812.282C213.828 812.879 214.015 813.346 214.388 813.682C214.78 813.999 215.517 814.317 216.6 814.634C218.131 815.101 219.195 815.623 219.792 816.202C220.389 816.781 220.688 817.593 220.688 818.638C220.688 819.739 220.268 820.635 219.428 821.326C218.607 821.998 217.543 822.334 216.236 822.334C214.519 822.334 213.025 821.867 211.756 820.934C211.812 820.841 211.905 820.682 212.036 820.458C212.167 820.215 212.279 820.029 212.372 819.898C213.455 820.495 214.621 820.794 215.872 820.794C217.832 820.794 218.812 820.057 218.812 818.582C218.812 817.985 218.597 817.518 218.168 817.182C217.757 816.846 216.983 816.529 215.844 816.23C213.193 815.483 211.868 814.186 211.868 812.338C211.868 811.349 212.251 810.537 213.016 809.902C213.8 809.267 214.799 808.95 216.012 808.95C217.449 808.95 218.737 809.351 219.876 810.154L219.26 811.19ZM234.276 816.286H225.204C225.278 817.649 225.745 818.741 226.604 819.562C227.481 820.383 228.61 820.794 229.992 820.794C231.149 820.794 232.278 820.449 233.38 819.758L234.024 820.878C232.792 821.849 231.308 822.334 229.572 822.334C227.556 822.334 225.95 821.671 224.756 820.346C223.654 819.151 223.104 817.602 223.104 815.698C223.104 813.719 223.692 812.067 224.868 810.742C225.932 809.547 227.248 808.95 228.816 808.95C230.701 808.95 232.138 809.715 233.128 811.246C233.893 812.441 234.276 813.915 234.276 815.67V816.286ZM225.176 814.774H232.344C232.288 813.411 231.952 812.347 231.336 811.582C230.738 810.817 229.908 810.434 228.844 810.434C227.836 810.434 226.986 810.835 226.296 811.638C225.624 812.441 225.25 813.486 225.176 814.774ZM248.503 821.998H246.655V814.55C246.655 811.899 245.498 810.574 243.183 810.574C242.511 810.574 241.848 810.733 241.195 811.05C240.542 811.367 240.038 811.769 239.683 812.254V821.998H237.807V809.286H239.375L239.543 810.63H239.627C240.728 809.51 242.11 808.95 243.771 808.95C246.926 808.95 248.503 810.77 248.503 814.41V821.998ZM262.341 810.294L261.725 811.358C260.773 810.761 259.737 810.462 258.617 810.462C257.086 810.462 255.891 811.022 255.033 812.142C254.286 813.113 253.913 814.326 253.913 815.782C253.913 817.331 254.389 818.573 255.341 819.506C256.218 820.365 257.366 820.794 258.785 820.794C259.979 820.794 261.034 820.449 261.949 819.758L262.565 820.878C261.519 821.849 260.119 822.334 258.365 822.334C256.311 822.334 254.678 821.643 253.465 820.262C252.419 819.049 251.897 817.527 251.897 815.698C251.897 813.645 252.578 811.965 253.941 810.658C255.117 809.519 256.535 808.95 258.197 808.95C259.821 808.95 261.202 809.398 262.341 810.294ZM276.248 816.286H267.176C267.251 817.649 267.718 818.741 268.576 819.562C269.454 820.383 270.583 820.794 271.964 820.794C273.122 820.794 274.251 820.449 275.352 819.758L275.996 820.878C274.764 821.849 273.28 822.334 271.544 822.334C269.528 822.334 267.923 821.671 266.728 820.346C265.627 819.151 265.076 817.602 265.076 815.698C265.076 813.719 265.664 812.067 266.84 810.742C267.904 809.547 269.22 808.95 270.788 808.95C272.674 808.95 274.111 809.715 275.1 811.246C275.866 812.441 276.248 813.915 276.248 815.67V816.286ZM267.148 814.774H274.316C274.26 813.411 273.924 812.347 273.308 811.582C272.711 810.817 271.88 810.434 270.816 810.434C269.808 810.434 268.959 810.835 268.268 811.638C267.596 812.441 267.223 813.486 267.148 814.774Z" fill="#280659"/>
<path d="M844.885 120.101L845.781 118.841C847.144 119.625 848.59 120.017 850.121 120.017C851.297 120.017 852.221 119.746 852.893 119.205C853.565 118.645 853.901 117.861 853.901 116.853C853.901 115.135 852.772 113.885 850.513 113.101C848.59 112.447 847.2 111.719 846.341 110.917C845.482 110.114 845.053 109.134 845.053 107.977C845.053 106.595 845.594 105.485 846.677 104.645C847.666 103.879 848.964 103.497 850.569 103.497C852.324 103.497 853.92 103.982 855.357 104.953L854.433 106.213C853.276 105.597 852.034 105.289 850.709 105.289C849.626 105.289 848.768 105.522 848.133 105.989C847.498 106.455 847.181 107.09 847.181 107.893C847.181 109.143 848.152 110.133 850.093 110.861C852.296 111.701 853.836 112.569 854.713 113.465C855.609 114.342 856.057 115.49 856.057 116.909C856.057 118.533 855.432 119.811 854.181 120.745C853.154 121.51 851.904 121.893 850.429 121.893C848.581 121.893 846.733 121.295 844.885 120.101ZM862.605 110.385L862.577 118.337C862.577 119.699 863.128 120.381 864.229 120.381C864.845 120.381 865.452 120.222 866.049 119.905L866.721 120.941C865.806 121.575 864.845 121.893 863.837 121.893C862.848 121.893 862.082 121.585 861.541 120.969C861 120.353 860.729 119.494 860.729 118.393V110.385H858.797V108.845H860.757V106.073L862.605 105.121V108.845H866.497V110.385H862.605ZM879.41 121.557H878.01L877.73 120.185C876.592 121.323 875.173 121.893 873.474 121.893C872.186 121.893 871.16 121.538 870.394 120.829C869.629 120.101 869.246 119.139 869.246 117.945C869.246 115.033 871.374 113.577 875.63 113.577H877.562V113.409C877.562 111.187 876.48 110.077 874.314 110.077C873.082 110.077 871.897 110.487 870.758 111.309L870.142 110.273C871.43 109.097 872.998 108.509 874.846 108.509C876.321 108.509 877.45 108.966 878.234 109.881C879.018 110.795 879.41 112.111 879.41 113.829V121.557ZM877.562 114.949H875.854C872.793 114.949 871.262 115.891 871.262 117.777C871.262 118.579 871.496 119.214 871.962 119.681C872.448 120.129 873.12 120.353 873.978 120.353C874.725 120.353 875.444 120.166 876.134 119.793C876.825 119.419 877.301 118.953 877.562 118.393V114.949ZM892.019 109.937L890.479 111.001C889.844 110.441 889.163 110.161 888.435 110.161C887.371 110.161 886.428 110.711 885.607 111.813V121.557H883.731V108.845H885.327L885.495 110.189H885.551C886.652 109.069 887.782 108.509 888.939 108.509C890.302 108.509 891.328 108.985 892.019 109.937ZM897.496 110.385L897.468 118.337C897.468 119.699 898.018 120.381 899.12 120.381C899.736 120.381 900.342 120.222 900.94 119.905L901.612 120.941C900.697 121.575 899.736 121.893 898.728 121.893C897.738 121.893 896.973 121.585 896.432 120.969C895.89 120.353 895.62 119.494 895.62 118.393V110.385H893.688V108.845H895.648V106.073L897.496 105.121V108.845H901.388V110.385H897.496ZM915.225 108.845V121.557H913.769L913.601 120.101L913.517 120.129C912.378 121.305 910.997 121.893 909.373 121.893C908.01 121.893 906.937 121.417 906.153 120.465C905.369 119.494 904.977 118.159 904.977 116.461V108.845H906.853V116.125C906.853 118.869 907.88 120.241 909.933 120.241C910.568 120.241 911.202 120.082 911.837 119.765C912.49 119.447 913.004 119.037 913.377 118.533V108.845H915.225ZM919.606 108.845H921.09L921.342 110.217C922.387 109.078 923.769 108.509 925.486 108.509C927.315 108.509 928.762 109.199 929.826 110.581C930.722 111.757 931.17 113.213 931.17 114.949C931.17 117.245 930.517 119.037 929.21 120.325C928.146 121.37 926.858 121.893 925.346 121.893C923.703 121.893 922.415 121.389 921.482 120.381V126.653H919.606V108.845ZM921.482 112.289V118.309C921.706 118.887 922.145 119.373 922.798 119.765C923.47 120.157 924.161 120.353 924.87 120.353C926.158 120.353 927.194 119.886 927.978 118.953C928.762 118.019 929.154 116.778 929.154 115.229C929.154 113.493 928.725 112.158 927.866 111.225C927.157 110.441 926.223 110.049 925.066 110.049C924.338 110.049 923.629 110.263 922.938 110.693C922.247 111.122 921.762 111.654 921.482 112.289ZM940.953 110.749C940.02 110.263 939.003 110.021 937.901 110.021C937.155 110.021 936.567 110.189 936.137 110.525C935.727 110.842 935.521 111.281 935.521 111.841C935.521 112.438 935.708 112.905 936.081 113.241C936.473 113.558 937.211 113.875 938.293 114.193C939.824 114.659 940.888 115.182 941.485 115.761C942.083 116.339 942.381 117.151 942.381 118.197C942.381 119.298 941.961 120.194 941.121 120.885C940.3 121.557 939.236 121.893 937.929 121.893C936.212 121.893 934.719 121.426 933.449 120.493C933.505 120.399 933.599 120.241 933.729 120.017C933.86 119.774 933.972 119.587 934.065 119.457C935.148 120.054 936.315 120.353 937.565 120.353C939.525 120.353 940.505 119.615 940.505 118.141C940.505 117.543 940.291 117.077 939.861 116.741C939.451 116.405 938.676 116.087 937.537 115.789C934.887 115.042 933.561 113.745 933.561 111.897C933.561 110.907 933.944 110.095 934.709 109.461C935.493 108.826 936.492 108.509 937.705 108.509C939.143 108.509 940.431 108.91 941.569 109.713L940.953 110.749ZM852.952 157.845H843.88C843.954 159.207 844.421 160.299 845.28 161.121C846.157 161.942 847.286 162.353 848.668 162.353C849.825 162.353 850.954 162.007 852.056 161.317L852.7 162.437C851.468 163.407 849.984 163.893 848.248 163.893C846.232 163.893 844.626 163.23 843.432 161.905C842.33 160.71 841.78 159.161 841.78 157.257C841.78 155.278 842.368 153.626 843.544 152.301C844.608 151.106 845.924 150.509 847.492 150.509C849.377 150.509 850.814 151.274 851.804 152.805C852.569 153.999 852.952 155.474 852.952 157.229V157.845ZM843.852 156.333H851.02C850.964 154.97 850.628 153.906 850.012 153.141C849.414 152.375 848.584 151.993 847.52 151.993C846.512 151.993 845.662 152.394 844.972 153.197C844.3 153.999 843.926 155.045 843.852 156.333ZM867.179 163.557H865.331V156.109C865.331 153.458 864.173 152.133 861.859 152.133C861.187 152.133 860.524 152.291 859.871 152.609C859.217 152.926 858.713 153.327 858.359 153.813V163.557H856.483V150.845H858.051L858.219 152.189H858.303C859.404 151.069 860.785 150.509 862.447 150.509C865.601 150.509 867.179 152.329 867.179 155.969V163.557ZM873.939 152.385L873.911 160.337C873.911 161.699 874.462 162.381 875.563 162.381C876.179 162.381 876.786 162.222 877.383 161.905L878.055 162.941C877.14 163.575 876.179 163.893 875.171 163.893C874.182 163.893 873.416 163.585 872.875 162.969C872.334 162.353 872.063 161.494 872.063 160.393V152.385H870.131V150.845H872.091V148.073L873.939 147.121V150.845H877.831V152.385H873.939ZM891.479 157.845H882.407C882.482 159.207 882.948 160.299 883.807 161.121C884.684 161.942 885.814 162.353 887.195 162.353C888.352 162.353 889.482 162.007 890.583 161.317L891.227 162.437C889.995 163.407 888.511 163.893 886.775 163.893C884.759 163.893 883.154 163.23 881.959 161.905C880.858 160.71 880.307 159.161 880.307 157.257C880.307 155.278 880.895 153.626 882.071 152.301C883.135 151.106 884.451 150.509 886.019 150.509C887.904 150.509 889.342 151.274 890.331 152.805C891.096 153.999 891.479 155.474 891.479 157.229V157.845ZM882.379 156.333H889.547C889.491 154.97 889.155 153.906 888.539 153.141C887.942 152.375 887.111 151.993 886.047 151.993C885.039 151.993 884.19 152.394 883.499 153.197C882.827 153.999 882.454 155.045 882.379 156.333ZM903.298 151.937L901.758 153.001C901.124 152.441 900.442 152.161 899.714 152.161C898.65 152.161 897.708 152.711 896.886 153.813V163.557H895.01V150.845H896.606L896.774 152.189H896.83C897.932 151.069 899.061 150.509 900.218 150.509C901.581 150.509 902.608 150.985 903.298 151.937ZM907.69 150.845V163.557H905.842V150.845H907.69ZM905.562 146.701C905.562 146.383 905.683 146.103 905.926 145.861C906.168 145.618 906.458 145.497 906.794 145.497C907.13 145.497 907.419 145.618 907.662 145.861C907.904 146.103 908.026 146.383 908.026 146.701C908.026 147.055 907.904 147.354 907.662 147.597C907.419 147.821 907.13 147.933 906.794 147.933C906.439 147.933 906.14 147.821 905.898 147.597C905.674 147.354 905.562 147.055 905.562 146.701ZM922.905 163.557H921.057V156.109C921.057 153.458 919.9 152.133 917.585 152.133C916.913 152.133 916.251 152.291 915.597 152.609C914.944 152.926 914.44 153.327 914.085 153.813V163.557H912.209V150.845H913.777L913.945 152.189H914.029C915.131 151.069 916.512 150.509 918.173 150.509C921.328 150.509 922.905 152.329 922.905 155.969V163.557ZM936.099 152.133L936.379 150.845H937.835V162.521C937.835 166.777 935.978 168.905 932.263 168.905C930.508 168.905 928.959 168.317 927.615 167.141L928.259 166.105C929.416 166.907 930.648 167.309 931.955 167.309C933.336 167.309 934.354 166.926 935.007 166.161C935.66 165.395 935.987 164.182 935.987 162.521V162.269C935.072 163.351 933.822 163.893 932.235 163.893C930.387 163.893 928.922 163.202 927.839 161.821C926.906 160.626 926.439 159.142 926.439 157.369C926.439 155.129 927.092 153.374 928.399 152.105C929.482 151.041 930.816 150.509 932.403 150.509C933.112 150.509 933.812 150.667 934.503 150.985C935.212 151.283 935.744 151.666 936.099 152.133ZM935.987 160.169V154.093C935.744 153.514 935.306 153.029 934.671 152.637C934.036 152.226 933.364 152.021 932.655 152.021C931.423 152.021 930.415 152.506 929.631 153.477C928.847 154.429 928.455 155.661 928.455 157.173C928.455 158.89 928.884 160.225 929.743 161.177C930.49 161.961 931.423 162.353 932.543 162.353C933.29 162.353 933.971 162.157 934.587 161.765C935.222 161.354 935.688 160.822 935.987 160.169ZM831.318 205.557H829.47V198.109C829.47 195.458 828.312 194.133 825.998 194.133C825.326 194.133 824.663 194.291 824.01 194.609C823.356 194.926 822.852 195.327 822.498 195.813V205.557H820.622V192.845H822.19L822.358 194.189H822.442C823.543 193.069 824.924 192.509 826.586 192.509C829.74 192.509 831.318 194.329 831.318 197.969V205.557ZM845.883 199.845H836.811C836.886 201.207 837.353 202.299 838.211 203.121C839.089 203.942 840.218 204.353 841.599 204.353C842.757 204.353 843.886 204.007 844.987 203.317L845.631 204.437C844.399 205.407 842.915 205.893 841.179 205.893C839.163 205.893 837.558 205.23 836.363 203.905C835.262 202.71 834.711 201.161 834.711 199.257C834.711 197.278 835.299 195.626 836.475 194.301C837.539 193.106 838.855 192.509 840.423 192.509C842.309 192.509 843.746 193.274 844.735 194.805C845.501 195.999 845.883 197.474 845.883 199.229V199.845ZM836.783 198.333H843.951C843.895 196.97 843.559 195.906 842.943 195.141C842.346 194.375 841.515 193.993 840.451 193.993C839.443 193.993 838.594 194.394 837.903 195.197C837.231 195.999 836.858 197.045 836.783 198.333ZM853.866 205.557H851.85L847.65 192.845H849.666L852.858 203.373L855.91 192.845H858.066L860.978 203.373L864.17 192.845H866.186L861.958 205.557H859.942L856.974 195.113L853.866 205.557ZM894.54 205.557H892.664V198.277C892.664 195.514 891.506 194.133 889.192 194.133C887.941 194.133 886.784 194.674 885.72 195.757C885.906 196.41 886 197.138 886 197.941V205.557H884.152V198.165C884.152 195.477 883.022 194.133 880.764 194.133C880.166 194.133 879.541 194.301 878.888 194.637C878.253 194.954 877.758 195.355 877.404 195.841V205.557H875.528V192.845H877.096L877.264 194.161H877.348C878.524 193.059 879.877 192.509 881.408 192.509C883.237 192.509 884.516 193.19 885.244 194.553C886.476 193.19 888.016 192.509 889.864 192.509C891.394 192.509 892.57 193.003 893.392 193.993C894.157 194.926 894.54 196.242 894.54 197.941V205.557ZM908.094 205.557H906.694L906.414 204.185C905.275 205.323 903.857 205.893 902.158 205.893C900.87 205.893 899.843 205.538 899.078 204.829C898.313 204.101 897.93 203.139 897.93 201.945C897.93 199.033 900.058 197.577 904.314 197.577H906.246V197.409C906.246 195.187 905.163 194.077 902.998 194.077C901.766 194.077 900.581 194.487 899.442 195.309L898.826 194.273C900.114 193.097 901.682 192.509 903.53 192.509C905.005 192.509 906.134 192.966 906.918 193.881C907.702 194.795 908.094 196.111 908.094 197.829V205.557ZM906.246 198.949H904.538C901.477 198.949 899.946 199.891 899.946 201.777C899.946 202.579 900.179 203.214 900.646 203.681C901.131 204.129 901.803 204.353 902.662 204.353C903.409 204.353 904.127 204.166 904.818 203.793C905.509 203.419 905.985 202.953 906.246 202.393V198.949ZM920.702 193.937L919.162 195.001C918.528 194.441 917.846 194.161 917.118 194.161C916.054 194.161 915.112 194.711 914.29 195.813V205.557H912.414V192.845H914.01L914.178 194.189H914.234C915.336 193.069 916.465 192.509 917.622 192.509C918.985 192.509 920.012 192.985 920.702 193.937ZM932.451 192.845L926.823 197.801L933.123 205.557H930.855L925.255 198.501V205.557H923.379V188.505L925.255 187.497V197.101L929.847 192.845H932.451ZM945.496 199.845H936.424C936.499 201.207 936.966 202.299 937.824 203.121C938.702 203.942 939.831 204.353 941.212 204.353C942.37 204.353 943.499 204.007 944.6 203.317L945.244 204.437C944.012 205.407 942.528 205.893 940.792 205.893C938.776 205.893 937.171 205.23 935.976 203.905C934.875 202.71 934.324 201.161 934.324 199.257C934.324 197.278 934.912 195.626 936.088 194.301C937.152 193.106 938.468 192.509 940.036 192.509C941.922 192.509 943.359 193.274 944.348 194.805C945.114 195.999 945.496 197.474 945.496 199.229V199.845ZM936.396 198.333H943.564C943.508 196.97 943.172 195.906 942.556 195.141C941.959 194.375 941.128 193.993 940.064 193.993C939.056 193.993 938.207 194.394 937.516 195.197C936.844 195.999 936.471 197.045 936.396 198.333ZM951.828 194.385L951.8 202.337C951.8 203.699 952.35 204.381 953.452 204.381C954.068 204.381 954.674 204.222 955.272 203.905L955.944 204.941C955.029 205.575 954.068 205.893 953.06 205.893C952.07 205.893 951.305 205.585 950.764 204.969C950.222 204.353 949.952 203.494 949.952 202.393V194.385H948.02V192.845H949.98V190.073L951.828 189.121V192.845H955.72V194.385H951.828ZM965.973 194.749C965.04 194.263 964.022 194.021 962.921 194.021C962.174 194.021 961.586 194.189 961.157 194.525C960.746 194.842 960.541 195.281 960.541 195.841C960.541 196.438 960.728 196.905 961.101 197.241C961.493 197.558 962.23 197.875 963.313 198.193C964.844 198.659 965.908 199.182 966.505 199.761C967.102 200.339 967.401 201.151 967.401 202.197C967.401 203.298 966.981 204.194 966.141 204.885C965.32 205.557 964.256 205.893 962.949 205.893C961.232 205.893 959.738 205.426 958.469 204.493C958.525 204.399 958.618 204.241 958.749 204.017C958.88 203.774 958.992 203.587 959.085 203.457C960.168 204.054 961.334 204.353 962.585 204.353C964.545 204.353 965.525 203.615 965.525 202.141C965.525 201.543 965.31 201.077 964.881 200.741C964.47 200.405 963.696 200.087 962.557 199.789C959.906 199.042 958.581 197.745 958.581 195.897C958.581 194.907 958.964 194.095 959.729 193.461C960.513 192.826 961.512 192.509 962.725 192.509C964.162 192.509 965.45 192.91 966.589 193.713L965.973 194.749Z" fill="#280659"/>
<path d="M856.649 740.97V723.274C858.161 723.05 859.682 722.938 861.213 722.938C863.36 722.938 864.946 723.451 865.973 724.478C866.776 725.299 867.177 726.382 867.177 727.726C867.177 728.659 866.888 729.471 866.309 730.162C865.749 730.853 865.002 731.31 864.069 731.534V731.562C865.208 731.749 866.104 732.271 866.757 733.13C867.41 733.97 867.737 735.034 867.737 736.322C867.737 738.021 867.074 739.309 865.749 740.186C864.61 740.951 863.098 741.334 861.213 741.334C859.832 741.334 858.31 741.213 856.649 740.97ZM858.721 724.786V730.75H861.633C862.641 730.75 863.453 730.498 864.069 729.994C864.704 729.471 865.021 728.781 865.021 727.922C865.021 725.701 863.733 724.59 861.157 724.59C860.168 724.59 859.356 724.655 858.721 724.786ZM858.721 732.486V739.486C859.505 739.598 860.42 739.654 861.465 739.654C864.172 739.654 865.525 738.534 865.525 736.294C865.525 735.099 865.18 734.166 864.489 733.494C863.817 732.822 862.865 732.486 861.633 732.486H858.721ZM881.573 728.286V740.998H880.117L879.949 739.542L879.865 739.57C878.726 740.746 877.345 741.334 875.721 741.334C874.358 741.334 873.285 740.858 872.501 739.906C871.717 738.935 871.325 737.601 871.325 735.902V728.286H873.201V735.566C873.201 738.31 874.227 739.682 876.281 739.682C876.915 739.682 877.55 739.523 878.185 739.206C878.838 738.889 879.351 738.478 879.725 737.974V728.286H881.573ZM892.618 730.19C891.684 729.705 890.667 729.462 889.566 729.462C888.819 729.462 888.231 729.63 887.802 729.966C887.391 730.283 887.186 730.722 887.186 731.282C887.186 731.879 887.372 732.346 887.746 732.682C888.138 732.999 888.875 733.317 889.958 733.634C891.488 734.101 892.552 734.623 893.15 735.202C893.747 735.781 894.046 736.593 894.046 737.638C894.046 738.739 893.626 739.635 892.786 740.326C891.964 740.998 890.9 741.334 889.594 741.334C887.876 741.334 886.383 740.867 885.114 739.934C885.17 739.841 885.263 739.682 885.394 739.458C885.524 739.215 885.636 739.029 885.73 738.898C886.812 739.495 887.979 739.794 889.23 739.794C891.19 739.794 892.17 739.057 892.17 737.582C892.17 736.985 891.955 736.518 891.526 736.182C891.115 735.846 890.34 735.529 889.202 735.23C886.551 734.483 885.226 733.186 885.226 731.338C885.226 730.349 885.608 729.537 886.374 728.902C887.158 728.267 888.156 727.95 889.37 727.95C890.807 727.95 892.095 728.351 893.234 729.154L892.618 730.19ZM899.563 728.286V740.998H897.715V728.286H899.563ZM897.435 724.142C897.435 723.825 897.556 723.545 897.799 723.302C898.041 723.059 898.331 722.938 898.667 722.938C899.003 722.938 899.292 723.059 899.535 723.302C899.777 723.545 899.899 723.825 899.899 724.142C899.899 724.497 899.777 724.795 899.535 725.038C899.292 725.262 899.003 725.374 898.667 725.374C898.312 725.374 898.013 725.262 897.771 725.038C897.547 724.795 897.435 724.497 897.435 724.142ZM914.778 740.998H912.93V733.55C912.93 730.899 911.773 729.574 909.458 729.574C908.786 729.574 908.124 729.733 907.47 730.05C906.817 730.367 906.313 730.769 905.958 731.254V740.998H904.082V728.286H905.65L905.818 729.63H905.902C907.004 728.51 908.385 727.95 910.046 727.95C913.201 727.95 914.778 729.77 914.778 733.41V740.998ZM929.344 735.286H920.272C920.347 736.649 920.813 737.741 921.672 738.562C922.549 739.383 923.679 739.794 925.06 739.794C926.217 739.794 927.347 739.449 928.448 738.758L929.092 739.878C927.86 740.849 926.376 741.334 924.64 741.334C922.624 741.334 921.019 740.671 919.824 739.346C918.723 738.151 918.172 736.602 918.172 734.698C918.172 732.719 918.76 731.067 919.936 729.742C921 728.547 922.316 727.95 923.884 727.95C925.769 727.95 927.207 728.715 928.196 730.246C928.961 731.441 929.344 732.915 929.344 734.67V735.286ZM920.244 733.774H927.412C927.356 732.411 927.02 731.347 926.404 730.582C925.807 729.817 924.976 729.434 923.912 729.434C922.904 729.434 922.055 729.835 921.364 730.638C920.692 731.441 920.319 732.486 920.244 733.774ZM939.539 730.19C938.606 729.705 937.589 729.462 936.487 729.462C935.741 729.462 935.153 729.63 934.723 729.966C934.313 730.283 934.107 730.722 934.107 731.282C934.107 731.879 934.294 732.346 934.667 732.682C935.059 732.999 935.797 733.317 936.879 733.634C938.41 734.101 939.474 734.623 940.071 735.202C940.669 735.781 940.967 736.593 940.967 737.638C940.967 738.739 940.547 739.635 939.707 740.326C938.886 740.998 937.822 741.334 936.515 741.334C934.798 741.334 933.305 740.867 932.035 739.934C932.091 739.841 932.185 739.682 932.315 739.458C932.446 739.215 932.558 739.029 932.651 738.898C933.734 739.495 934.901 739.794 936.151 739.794C938.111 739.794 939.091 739.057 939.091 737.582C939.091 736.985 938.877 736.518 938.447 736.182C938.037 735.846 937.262 735.529 936.123 735.23C933.473 734.483 932.147 733.186 932.147 731.338C932.147 730.349 932.53 729.537 933.295 728.902C934.079 728.267 935.078 727.95 936.291 727.95C937.729 727.95 939.017 728.351 940.155 729.154L939.539 730.19ZM950.887 730.19C949.954 729.705 948.936 729.462 947.835 729.462C947.088 729.462 946.5 729.63 946.071 729.966C945.66 730.283 945.455 730.722 945.455 731.282C945.455 731.879 945.642 732.346 946.015 732.682C946.407 732.999 947.144 733.317 948.227 733.634C949.758 734.101 950.822 734.623 951.419 735.202C952.016 735.781 952.315 736.593 952.315 737.638C952.315 738.739 951.895 739.635 951.055 740.326C950.234 740.998 949.17 741.334 947.863 741.334C946.146 741.334 944.652 740.867 943.383 739.934C943.439 739.841 943.532 739.682 943.663 739.458C943.794 739.215 943.906 739.029 943.999 738.898C945.082 739.495 946.248 739.794 947.499 739.794C949.459 739.794 950.439 739.057 950.439 737.582C950.439 736.985 950.224 736.518 949.795 736.182C949.384 735.846 948.61 735.529 947.471 735.23C944.82 734.483 943.495 733.186 943.495 731.338C943.495 730.349 943.878 729.537 944.643 728.902C945.427 728.267 946.426 727.95 947.639 727.95C949.076 727.95 950.364 728.351 951.503 729.154L950.887 730.19ZM965.903 735.286H956.831C956.905 736.649 957.372 737.741 958.231 738.562C959.108 739.383 960.237 739.794 961.619 739.794C962.776 739.794 963.905 739.449 965.007 738.758L965.651 739.878C964.419 740.849 962.935 741.334 961.199 741.334C959.183 741.334 957.577 740.671 956.383 739.346C955.281 738.151 954.731 736.602 954.731 734.698C954.731 732.719 955.319 731.067 956.495 729.742C957.559 728.547 958.875 727.95 960.443 727.95C962.328 727.95 963.765 728.715 964.755 730.246C965.52 731.441 965.903 732.915 965.903 734.67V735.286ZM956.803 733.774H963.971C963.915 732.411 963.579 731.347 962.963 730.582C962.365 729.817 961.535 729.434 960.471 729.434C959.463 729.434 958.613 729.835 957.923 730.638C957.251 731.441 956.877 732.486 956.803 733.774ZM976.098 730.19C975.165 729.705 974.147 729.462 973.046 729.462C972.299 729.462 971.711 729.63 971.282 729.966C970.871 730.283 970.666 730.722 970.666 731.282C970.666 731.879 970.853 732.346 971.226 732.682C971.618 732.999 972.355 733.317 973.438 733.634C974.969 734.101 976.033 734.623 976.63 735.202C977.227 735.781 977.526 736.593 977.526 737.638C977.526 738.739 977.106 739.635 976.266 740.326C975.445 740.998 974.381 741.334 973.074 741.334C971.357 741.334 969.863 740.867 968.594 739.934C968.65 739.841 968.743 739.682 968.874 739.458C969.005 739.215 969.117 739.029 969.21 738.898C970.293 739.495 971.459 739.794 972.71 739.794C974.67 739.794 975.65 739.057 975.65 737.582C975.65 736.985 975.435 736.518 975.006 736.182C974.595 735.846 973.821 735.529 972.682 735.23C970.031 734.483 968.706 733.186 968.706 731.338C968.706 730.349 969.089 729.537 969.854 728.902C970.638 728.267 971.637 727.95 972.85 727.95C974.287 727.95 975.575 728.351 976.714 729.154L976.098 730.19ZM847.828 772.19C846.895 771.705 845.878 771.462 844.776 771.462C844.03 771.462 843.442 771.63 843.012 771.966C842.602 772.283 842.396 772.722 842.396 773.282C842.396 773.879 842.583 774.346 842.956 774.682C843.348 774.999 844.086 775.317 845.168 775.634C846.699 776.101 847.763 776.623 848.36 777.202C848.958 777.781 849.256 778.593 849.256 779.638C849.256 780.739 848.836 781.635 847.996 782.326C847.175 782.998 846.111 783.334 844.804 783.334C843.087 783.334 841.594 782.867 840.324 781.934C840.38 781.841 840.474 781.682 840.604 781.458C840.735 781.215 840.847 781.029 840.94 780.898C842.023 781.495 843.19 781.794 844.44 781.794C846.4 781.794 847.38 781.057 847.38 779.582C847.38 778.985 847.166 778.518 846.736 778.182C846.326 777.846 845.551 777.529 844.412 777.23C841.762 776.483 840.436 775.186 840.436 773.338C840.436 772.349 840.819 771.537 841.584 770.902C842.368 770.267 843.367 769.95 844.58 769.95C846.018 769.95 847.306 770.351 848.444 771.154L847.828 772.19ZM862.844 777.286H853.772C853.847 778.649 854.313 779.741 855.172 780.562C856.049 781.383 857.179 781.794 858.56 781.794C859.717 781.794 860.847 781.449 861.948 780.758L862.592 781.878C861.36 782.849 859.876 783.334 858.14 783.334C856.124 783.334 854.519 782.671 853.324 781.346C852.223 780.151 851.672 778.602 851.672 776.698C851.672 774.719 852.26 773.067 853.436 771.742C854.5 770.547 855.816 769.95 857.384 769.95C859.269 769.95 860.707 770.715 861.696 772.246C862.461 773.441 862.844 774.915 862.844 776.67V777.286ZM853.744 775.774H860.912C860.856 774.411 860.52 773.347 859.904 772.582C859.307 771.817 858.476 771.434 857.412 771.434C856.404 771.434 855.555 771.835 854.864 772.638C854.192 773.441 853.819 774.486 853.744 775.774ZM876.707 777.286H867.635C867.71 778.649 868.177 779.741 869.035 780.562C869.913 781.383 871.042 781.794 872.423 781.794C873.581 781.794 874.71 781.449 875.811 780.758L876.455 781.878C875.223 782.849 873.739 783.334 872.003 783.334C869.987 783.334 868.382 782.671 867.187 781.346C866.086 780.151 865.535 778.602 865.535 776.698C865.535 774.719 866.123 773.067 867.299 771.742C868.363 770.547 869.679 769.95 871.247 769.95C873.133 769.95 874.57 770.715 875.559 772.246C876.325 773.441 876.707 774.915 876.707 776.67V777.286ZM867.607 775.774H874.775C874.719 774.411 874.383 773.347 873.767 772.582C873.17 771.817 872.339 771.434 871.275 771.434C870.267 771.434 869.418 771.835 868.727 772.638C868.055 773.441 867.682 774.486 867.607 775.774ZM889.311 770.286L883.683 775.242L889.983 782.998H887.715L882.115 775.942V782.998H880.239V765.946L882.115 764.938V774.542L886.707 770.286H889.311ZM894.723 770.286V782.998H892.875V770.286H894.723ZM892.595 766.142C892.595 765.825 892.716 765.545 892.959 765.302C893.201 765.059 893.491 764.938 893.827 764.938C894.163 764.938 894.452 765.059 894.695 765.302C894.937 765.545 895.059 765.825 895.059 766.142C895.059 766.497 894.937 766.795 894.695 767.038C894.452 767.262 894.163 767.374 893.827 767.374C893.472 767.374 893.173 767.262 892.931 767.038C892.707 766.795 892.595 766.497 892.595 766.142ZM909.939 782.998H908.091V775.55C908.091 772.899 906.933 771.574 904.619 771.574C903.947 771.574 903.284 771.733 902.631 772.05C901.977 772.367 901.473 772.769 901.119 773.254V782.998H899.243V770.286H900.811L900.979 771.63H901.063C902.164 770.51 903.545 769.95 905.207 769.95C908.361 769.95 909.939 771.77 909.939 775.41V782.998ZM923.132 771.574L923.412 770.286H924.868V781.962C924.868 786.218 923.011 788.346 919.296 788.346C917.542 788.346 915.992 787.758 914.648 786.582L915.292 785.546C916.45 786.349 917.682 786.75 918.988 786.75C920.37 786.75 921.387 786.367 922.04 785.602C922.694 784.837 923.02 783.623 923.02 781.962V781.71C922.106 782.793 920.855 783.334 919.268 783.334C917.42 783.334 915.955 782.643 914.872 781.262C913.939 780.067 913.472 778.583 913.472 776.81C913.472 774.57 914.126 772.815 915.432 771.546C916.515 770.482 917.85 769.95 919.436 769.95C920.146 769.95 920.846 770.109 921.536 770.426C922.246 770.725 922.778 771.107 923.132 771.574ZM923.02 779.61V773.534C922.778 772.955 922.339 772.47 921.704 772.078C921.07 771.667 920.398 771.462 919.688 771.462C918.456 771.462 917.448 771.947 916.664 772.918C915.88 773.87 915.488 775.102 915.488 776.614C915.488 778.331 915.918 779.666 916.776 780.618C917.523 781.402 918.456 781.794 919.576 781.794C920.323 781.794 921.004 781.598 921.62 781.206C922.255 780.795 922.722 780.263 923.02 779.61ZM945.121 782.998L944.813 781.654C943.917 782.774 942.62 783.334 940.921 783.334C939.073 783.334 937.608 782.643 936.525 781.262C935.592 780.067 935.125 778.583 935.125 776.81C935.125 774.57 935.779 772.815 937.085 771.546C938.168 770.482 939.503 769.95 941.089 769.95C942.583 769.95 943.777 770.445 944.673 771.434V766.002L946.521 764.966V782.998H945.121ZM944.673 779.61V773.534C944.431 772.955 943.992 772.47 943.357 772.078C942.723 771.667 942.051 771.462 941.341 771.462C940.109 771.462 939.101 771.947 938.317 772.918C937.533 773.87 937.141 775.102 937.141 776.614C937.141 778.331 937.571 779.666 938.429 780.618C939.176 781.402 940.109 781.794 941.229 781.794C941.976 781.794 942.657 781.598 943.273 781.206C943.908 780.795 944.375 780.263 944.673 779.61ZM960.219 782.998H958.819L958.539 781.626C957.4 782.765 955.982 783.334 954.283 783.334C952.995 783.334 951.968 782.979 951.203 782.27C950.438 781.542 950.055 780.581 950.055 779.386C950.055 776.474 952.183 775.018 956.439 775.018H958.371V774.85C958.371 772.629 957.288 771.518 955.123 771.518C953.891 771.518 952.706 771.929 951.567 772.75L950.951 771.714C952.239 770.538 953.807 769.95 955.655 769.95C957.13 769.95 958.259 770.407 959.043 771.322C959.827 772.237 960.219 773.553 960.219 775.27V782.998ZM958.371 776.39H956.663C953.602 776.39 952.071 777.333 952.071 779.218C952.071 780.021 952.304 780.655 952.771 781.122C953.256 781.57 953.928 781.794 954.787 781.794C955.534 781.794 956.252 781.607 956.943 781.234C957.634 780.861 958.11 780.394 958.371 779.834V776.39ZM967.339 771.826L967.311 779.778C967.311 781.141 967.862 781.822 968.963 781.822C969.579 781.822 970.186 781.663 970.783 781.346L971.455 782.382C970.541 783.017 969.579 783.334 968.571 783.334C967.582 783.334 966.817 783.026 966.275 782.41C965.734 781.794 965.463 780.935 965.463 779.834V771.826H963.531V770.286H965.491V767.514L967.339 766.562V770.286H971.231V771.826H967.339ZM984.145 782.998H982.745L982.465 781.626C981.326 782.765 979.907 783.334 978.209 783.334C976.921 783.334 975.894 782.979 975.129 782.27C974.363 781.542 973.981 780.581 973.981 779.386C973.981 776.474 976.109 775.018 980.365 775.018H982.297V774.85C982.297 772.629 981.214 771.518 979.049 771.518C977.817 771.518 976.631 771.929 975.493 772.75L974.877 771.714C976.165 770.538 977.733 769.95 979.581 769.95C981.055 769.95 982.185 770.407 982.969 771.322C983.753 772.237 984.145 773.553 984.145 775.27V782.998ZM982.297 776.39H980.589C977.527 776.39 975.997 777.333 975.997 779.218C975.997 780.021 976.23 780.655 976.697 781.122C977.182 781.57 977.854 781.794 978.713 781.794C979.459 781.794 980.178 781.607 980.869 781.234C981.559 780.861 982.035 780.394 982.297 779.834V776.39ZM993.309 777.062H986.981V775.522H993.309V777.062ZM887.973 824.998L887.665 823.654C886.769 824.774 885.471 825.334 883.773 825.334C881.925 825.334 880.459 824.643 879.377 823.262C878.443 822.067 877.977 820.583 877.977 818.81C877.977 816.57 878.63 814.815 879.937 813.546C881.019 812.482 882.354 811.95 883.941 811.95C885.434 811.95 886.629 812.445 887.525 813.434V808.002L889.373 806.966V824.998H887.973ZM887.525 821.61V815.534C887.282 814.955 886.843 814.47 886.209 814.078C885.574 813.667 884.902 813.462 884.193 813.462C882.961 813.462 881.953 813.947 881.169 814.918C880.385 815.87 879.993 817.102 879.993 818.614C879.993 820.331 880.422 821.666 881.281 822.618C882.027 823.402 882.961 823.794 884.081 823.794C884.827 823.794 885.509 823.598 886.125 823.206C886.759 822.795 887.226 822.263 887.525 821.61ZM902.035 813.378L900.495 814.442C899.86 813.882 899.179 813.602 898.451 813.602C897.387 813.602 896.444 814.153 895.623 815.254V824.998H893.747V812.286H895.343L895.511 813.63H895.567C896.668 812.51 897.797 811.95 898.954 811.95C900.317 811.95 901.344 812.426 902.035 813.378ZM906.426 812.286V824.998H904.578V812.286H906.426ZM904.298 808.142C904.298 807.825 904.419 807.545 904.662 807.302C904.905 807.059 905.194 806.938 905.53 806.938C905.866 806.938 906.155 807.059 906.398 807.302C906.641 807.545 906.762 807.825 906.762 808.142C906.762 808.497 906.641 808.795 906.398 809.038C906.155 809.262 905.866 809.374 905.53 809.374C905.175 809.374 904.877 809.262 904.634 809.038C904.41 808.795 904.298 808.497 904.298 808.142ZM915.874 824.998H913.97L909.182 812.286H911.198L914.95 822.786L918.674 812.286H920.69L915.874 824.998ZM933.364 819.286H924.292C924.366 820.649 924.833 821.741 925.692 822.562C926.569 823.383 927.698 823.794 929.08 823.794C930.237 823.794 931.366 823.449 932.468 822.758L933.112 823.878C931.88 824.849 930.396 825.334 928.66 825.334C926.644 825.334 925.038 824.671 923.844 823.346C922.742 822.151 922.192 820.602 922.192 818.698C922.192 816.719 922.78 815.067 923.956 813.742C925.02 812.547 926.336 811.95 927.904 811.95C929.789 811.95 931.226 812.715 932.216 814.246C932.981 815.441 933.364 816.915 933.364 818.67V819.286ZM924.264 817.774H931.432C931.376 816.411 931.04 815.347 930.424 814.582C929.826 813.817 928.996 813.434 927.932 813.434C926.924 813.434 926.074 813.835 925.384 814.638C924.712 815.441 924.338 816.486 924.264 817.774ZM947.591 824.998H945.743V817.55C945.743 814.899 944.586 813.574 942.271 813.574C941.599 813.574 940.936 813.733 940.283 814.05C939.63 814.367 939.126 814.769 938.771 815.254V824.998H936.895V812.286H938.463L938.631 813.63H938.715C939.816 812.51 941.198 811.95 942.859 811.95C946.014 811.95 947.591 813.77 947.591 817.41V824.998ZM877.553 866.998H875.677V859.718C875.677 856.955 874.52 855.574 872.205 855.574C870.955 855.574 869.797 856.115 868.733 857.198C868.92 857.851 869.013 858.579 869.013 859.382V866.998H867.165V859.606C867.165 856.918 866.036 855.574 863.777 855.574C863.18 855.574 862.555 855.742 861.901 856.078C861.267 856.395 860.772 856.797 860.417 857.282V866.998H858.541V854.286H860.109L860.277 855.602H860.361C861.537 854.501 862.891 853.95 864.421 853.95C866.251 853.95 867.529 854.631 868.257 855.994C869.489 854.631 871.029 853.95 872.877 853.95C874.408 853.95 875.584 854.445 876.405 855.434C877.171 856.367 877.553 857.683 877.553 859.382V866.998ZM891.108 866.998H889.708L889.428 865.626C888.289 866.765 886.87 867.334 885.172 867.334C883.884 867.334 882.857 866.979 882.092 866.27C881.326 865.542 880.944 864.581 880.944 863.386C880.944 860.474 883.072 859.018 887.328 859.018H889.26V858.85C889.26 856.629 888.177 855.518 886.012 855.518C884.78 855.518 883.594 855.929 882.456 856.75L881.84 855.714C883.128 854.538 884.696 853.95 886.544 853.95C888.018 853.95 889.148 854.407 889.932 855.322C890.716 856.237 891.108 857.553 891.108 859.27V866.998ZM889.26 860.39H887.552C884.49 860.39 882.96 861.333 882.96 863.218C882.96 864.021 883.193 864.655 883.66 865.122C884.145 865.57 884.817 865.794 885.676 865.794C886.422 865.794 887.141 865.607 887.832 865.234C888.522 864.861 888.998 864.394 889.26 863.834V860.39ZM903.716 855.378L902.176 856.442C901.541 855.882 900.86 855.602 900.132 855.602C899.068 855.602 898.125 856.153 897.304 857.254V866.998H895.428V854.286H897.024L897.192 855.63H897.248C898.349 854.51 899.479 853.95 900.636 853.95C901.999 853.95 903.025 854.426 903.716 855.378ZM915.465 854.286L909.837 859.242L916.137 866.998H913.869L908.269 859.942V866.998H906.393V849.946L908.269 848.938V858.542L912.861 854.286H915.465ZM928.51 861.286H919.438C919.513 862.649 919.979 863.741 920.838 864.562C921.715 865.383 922.845 865.794 924.226 865.794C925.383 865.794 926.513 865.449 927.614 864.758L928.258 865.878C927.026 866.849 925.542 867.334 923.806 867.334C921.79 867.334 920.185 866.671 918.99 865.346C917.889 864.151 917.338 862.602 917.338 860.698C917.338 858.719 917.926 857.067 919.102 855.742C920.166 854.547 921.482 853.95 923.05 853.95C924.935 853.95 926.373 854.715 927.362 856.246C928.127 857.441 928.51 858.915 928.51 860.67V861.286ZM919.41 859.774H926.578C926.522 858.411 926.186 857.347 925.57 856.582C924.973 855.817 924.142 855.434 923.078 855.434C922.07 855.434 921.221 855.835 920.53 856.638C919.858 857.441 919.485 858.486 919.41 859.774ZM934.841 855.826L934.813 863.778C934.813 865.141 935.364 865.822 936.465 865.822C937.081 865.822 937.688 865.663 938.285 865.346L938.957 866.382C938.043 867.017 937.081 867.334 936.073 867.334C935.084 867.334 934.319 867.026 933.777 866.41C933.236 865.794 932.965 864.935 932.965 863.834V855.826H931.033V854.286H932.993V851.514L934.841 850.562V854.286H938.733V855.826H934.841ZM944.311 854.286V866.998H942.463V854.286H944.311ZM942.183 850.142C942.183 849.825 942.304 849.545 942.547 849.302C942.789 849.059 943.079 848.938 943.415 848.938C943.751 848.938 944.04 849.059 944.283 849.302C944.525 849.545 944.647 849.825 944.647 850.142C944.647 850.497 944.525 850.795 944.283 851.038C944.04 851.262 943.751 851.374 943.415 851.374C943.06 851.374 942.761 851.262 942.519 851.038C942.295 850.795 942.183 850.497 942.183 850.142ZM959.526 866.998H957.678V859.55C957.678 856.899 956.521 855.574 954.206 855.574C953.534 855.574 952.872 855.733 952.218 856.05C951.565 856.367 951.061 856.769 950.706 857.254V866.998H948.83V854.286H950.398L950.566 855.63H950.65C951.752 854.51 953.133 853.95 954.794 853.95C957.949 853.95 959.526 855.77 959.526 859.41V866.998ZM972.72 855.574L973 854.286H974.456V865.962C974.456 870.218 972.599 872.346 968.884 872.346C967.13 872.346 965.58 871.758 964.236 870.582L964.88 869.546C966.038 870.349 967.27 870.75 968.576 870.75C969.958 870.75 970.975 870.367 971.628 869.602C972.282 868.837 972.608 867.623 972.608 865.962V865.71C971.694 866.793 970.443 867.334 968.856 867.334C967.008 867.334 965.543 866.643 964.46 865.262C963.527 864.067 963.06 862.583 963.06 860.81C963.06 858.57 963.714 856.815 965.02 855.546C966.103 854.482 967.438 853.95 969.024 853.95C969.734 853.95 970.434 854.109 971.124 854.426C971.834 854.725 972.366 855.107 972.72 855.574ZM972.608 863.61V857.534C972.366 856.955 971.927 856.47 971.292 856.078C970.658 855.667 969.986 855.462 969.276 855.462C968.044 855.462 967.036 855.947 966.252 856.918C965.468 857.87 965.076 859.102 965.076 860.614C965.076 862.331 965.506 863.666 966.364 864.618C967.111 865.402 968.044 865.794 969.164 865.794C969.911 865.794 970.592 865.598 971.208 865.206C971.843 864.795 972.31 864.263 972.608 863.61Z" fill="#280659"/>
</svg>
