<svg width="1144" height="976" viewBox="0 0 1144 976" fill="none" xmlns="http://www.w3.org/2000/svg">
<path d="M915.274 332.163C992.099 332.163 1054.6 269.663 1054.6 192.838C1054.6 116.014 992.099 53.5117 915.274 53.5117C838.45 53.5117 775.949 116.014 775.949 192.838C775.949 269.663 838.45 332.163 915.274 332.163ZM915.274 55.3653C991.076 55.3653 1052.75 117.035 1052.75 192.838C1052.75 268.64 991.076 330.309 915.274 330.309C839.472 330.309 777.803 268.64 777.803 192.838C777.803 117.035 839.472 55.3653 915.274 55.3653Z" fill="#280659"/>
<path d="M915.275 348.639C920.672 348.639 926.117 348.358 931.458 347.807C931.968 347.756 932.337 347.3 932.284 346.79C932.233 346.281 931.779 345.902 931.267 345.964C923.174 346.799 914.847 346.996 906.739 346.552C906.241 346.512 905.793 346.917 905.764 347.427C905.735 347.939 906.128 348.375 906.637 348.403C909.49 348.559 912.396 348.639 915.275 348.639ZM836.44 327.101C836.756 327.101 837.064 326.939 837.237 326.647C837.497 326.206 837.354 325.638 836.913 325.378C833.404 323.298 829.938 321.054 826.613 318.706C826.201 318.412 825.619 318.509 825.322 318.928C825.027 319.346 825.125 319.925 825.545 320.22C828.91 322.597 832.416 324.868 835.967 326.972C836.116 327.06 836.278 327.101 836.44 327.101ZM790.863 286.017C791.057 286.017 791.251 285.957 791.415 285.834C791.827 285.528 791.912 284.948 791.607 284.538C771.798 257.869 761.328 226.16 761.328 192.838C761.328 189.631 761.427 186.402 761.621 183.246C761.653 182.735 761.265 182.295 760.752 182.263C760.234 182.262 759.801 182.622 759.772 183.132C759.575 186.327 759.475 189.592 759.475 192.838C759.475 226.561 770.072 258.652 790.12 285.642C790.3 285.887 790.582 286.017 790.863 286.017ZM1050.49 269.34C1050.82 269.34 1051.13 269.169 1051.3 268.866C1064.24 245.764 1071.08 219.476 1071.08 192.838C1071.08 186.176 1070.65 179.467 1069.81 172.899C1069.75 172.391 1069.31 172.023 1068.78 172.096C1068.27 172.162 1067.91 172.625 1067.98 173.132C1068.8 179.623 1069.22 186.254 1069.22 192.838C1069.22 219.158 1062.47 245.135 1049.68 267.96C1049.43 268.407 1049.59 268.972 1050.04 269.222C1050.18 269.302 1050.34 269.34 1050.49 269.34ZM771.488 136.114C771.854 136.114 772.203 135.894 772.349 135.533C784.542 105.148 806.653 78.9243 834.61 61.6909C835.046 61.4226 835.181 60.8516 834.913 60.4161C834.645 59.9777 834.074 59.8464 833.638 60.1131C805.346 77.5521 782.967 104.092 770.627 134.842C770.436 135.318 770.667 135.856 771.142 136.048C771.257 136.093 771.374 136.114 771.488 136.114ZM1054.94 126.754C1055.08 126.754 1055.21 126.724 1055.34 126.662C1055.8 126.44 1056 125.886 1055.77 125.426C1053.99 121.713 1052.03 118.018 1049.95 114.446C1049.69 114.001 1049.13 113.854 1048.68 114.111C1048.24 114.369 1048.09 114.936 1048.35 115.378C1050.4 118.909 1052.34 122.56 1054.11 126.228C1054.27 126.56 1054.59 126.754 1054.94 126.754ZM998.211 62.9442C998.516 62.9442 998.817 62.7915 998.994 62.5141C999.268 62.0823 999.141 61.5101 998.708 61.2351C991.733 56.8051 984.349 52.9031 976.766 49.6405C976.294 49.4374 975.752 49.6554 975.547 50.1256C975.345 50.5954 975.563 51.1415 976.033 51.343C983.526 54.5676 990.822 58.4226 997.714 62.7997C997.868 62.8984 998.041 62.9442 998.211 62.9442Z" fill="#280659"/>
<path d="M251.741 264.248C312.917 264.248 362.686 214.479 362.686 153.304C362.686 92.129 312.917 42.3594 251.741 42.3594C190.565 42.3594 140.796 92.129 140.796 153.304C140.796 214.479 190.565 264.248 251.741 264.248ZM251.741 44.5782C311.694 44.5782 360.467 93.3533 360.467 153.304C360.467 213.255 311.693 262.03 251.741 262.03C191.788 262.03 143.015 213.255 143.015 153.304C143.015 93.3528 191.788 44.5782 251.741 44.5782Z" fill="#280659"/>
<path d="M242.496 282.315C243.075 282.315 243.561 281.869 243.603 281.284C243.647 280.674 243.186 280.143 242.576 280.1C237.716 279.755 232.827 279.122 228.049 278.221C227.43 278.107 226.867 278.506 226.752 279.106C226.638 279.707 227.036 280.287 227.636 280.401C232.499 281.319 237.474 281.961 242.417 282.312C242.445 282.314 242.471 282.315 242.496 282.315ZM326.206 258.817C326.432 258.817 326.654 258.751 326.851 258.611C334.935 252.834 342.363 246.119 348.924 238.652C349.328 238.191 349.284 237.49 348.823 237.086C348.365 236.681 347.662 236.726 347.258 237.187C340.809 244.526 333.508 251.127 325.561 256.805C325.062 257.161 324.947 257.854 325.304 258.353C325.52 258.655 325.859 258.817 326.206 258.817ZM174.283 256.615C174.616 256.615 174.947 256.463 175.166 256.176C175.535 255.688 175.439 254.992 174.953 254.622C142.966 230.34 124.619 193.41 124.619 153.304C124.619 152.692 124.124 152.194 123.51 152.194C122.897 152.194 122.401 152.692 122.401 153.304C122.401 194.111 141.066 231.684 173.612 256.389C173.812 256.542 174.047 256.615 174.283 256.615ZM123.717 147.014C124.302 147.014 124.791 146.558 124.823 145.968C125.383 136.181 127.067 126.486 129.833 117.152C130.004 116.566 129.671 115.948 129.082 115.774C128.498 115.595 127.878 115.934 127.703 116.523C124.89 126.019 123.177 135.884 122.61 145.841C122.575 146.453 123.043 146.978 123.653 147.012C123.675 147.014 123.697 147.014 123.717 147.014ZM352.827 75.5112C353.066 75.5112 353.307 75.4346 353.511 75.276C353.994 74.8975 354.08 74.2014 353.701 73.7187C328.988 42.1005 291.826 23.9663 251.74 23.9648L249.893 23.9777C249.283 23.9861 248.794 24.4895 248.8 25.1017C248.809 25.7089 249.302 26.1965 249.909 26.1965C249.912 26.1965 249.919 26.1965 249.925 26.1965L251.739 26.1837C291.139 26.1852 327.665 44.0096 351.952 75.0858C352.172 75.3644 352.5 75.5112 352.827 75.5112ZM180.316 47.9043C180.529 47.9043 180.745 47.8425 180.935 47.715C184.979 44.9977 189.222 42.4878 193.545 40.2561C194.088 39.975 194.301 39.3075 194.022 38.7621C193.739 38.2166 193.065 38.0057 192.528 38.2853C188.128 40.5551 183.812 43.1094 179.695 45.8747C179.187 46.2165 179.053 46.9048 179.393 47.4127C179.61 47.7328 179.959 47.9043 180.316 47.9043Z" fill="#280659"/>
<path d="M233.536 950.744C323.772 950.744 397.187 877.332 397.187 787.093C397.187 696.855 323.771 623.441 233.536 623.441C143.3 623.441 69.8842 696.855 69.8842 787.093C69.8842 877.332 143.3 950.744 233.536 950.744ZM233.536 627.669C321.439 627.669 392.959 699.186 392.959 787.093C392.959 875 321.44 946.517 233.536 946.517C145.632 946.517 74.1121 875 74.1121 787.093C74.1121 699.186 145.631 627.669 233.536 627.669Z" fill="#280659"/>
<path d="M271.962 975.893C272.101 975.893 272.24 975.877 272.386 975.85C281.671 973.945 290.89 971.331 299.787 968.073C300.884 967.673 301.447 966.458 301.047 965.363C300.647 964.263 299.436 963.703 298.334 964.106C289.636 967.289 280.617 969.848 271.538 971.707C270.393 971.943 269.654 973.058 269.891 974.203C270.096 975.202 270.974 975.893 271.962 975.893ZM161.375 965.632C162.205 965.632 162.998 965.139 163.332 964.318C163.774 963.24 163.259 962.004 162.175 961.562C91.0499 932.443 45.0899 863.961 45.0899 787.096C45.0899 785.93 44.1457 784.983 42.9764 784.983C41.8071 784.983 40.8629 785.931 40.8629 787.096C40.8629 865.684 87.8518 935.702 160.577 965.475C160.836 965.58 161.109 965.632 161.375 965.632ZM413.681 851.499C414.559 851.499 415.376 850.951 415.68 850.075C421.882 832.138 425.382 813.364 426.079 794.276C426.121 793.11 425.207 792.132 424.043 792.089C422.771 791.869 421.893 792.956 421.851 794.125C421.172 812.792 417.751 831.151 411.681 848.694C411.3 849.797 411.887 851.002 412.99 851.384C413.22 851.462 413.45 851.499 413.681 851.499ZM47.6205 747.157C48.5902 747.157 49.4619 746.49 49.6794 745.506C66.3362 671.604 127.717 613.608 202.428 601.201C203.579 601.01 204.36 599.924 204.166 598.772C203.979 597.619 202.852 596.824 201.737 597.033C125.348 609.719 62.5808 669.014 45.5606 744.579C45.2999 745.717 46.0144 746.847 47.1536 747.105C47.3117 747.139 47.4689 747.157 47.6205 747.157Z" fill="#280659"/>
<path d="M926.763 935.259C1019 935.259 1094.04 860.219 1094.04 767.981C1094.04 675.746 1019 600.705 926.763 600.705C834.525 600.705 759.485 675.745 759.485 767.981C759.485 860.219 834.525 935.259 926.763 935.259ZM926.763 603.794C1017.29 603.794 1090.95 677.447 1090.95 767.981C1090.95 858.515 1017.29 932.17 926.763 932.17C836.23 932.17 762.575 858.515 762.575 767.981C762.575 677.447 836.229 603.794 926.763 603.794Z" fill="#280659"/>
<path d="M895.315 957.393C896.058 957.393 896.713 956.858 896.837 956.103C896.979 955.26 896.408 954.465 895.567 954.327C888.867 953.211 882.166 951.72 875.652 949.892C874.838 949.653 873.983 950.14 873.749 950.963C873.519 951.784 873.997 952.636 874.82 952.866C881.441 954.723 888.252 956.238 895.063 957.371C895.147 957.386 895.231 957.393 895.315 957.393ZM1015.16 938.261C1015.4 938.261 1015.65 938.203 1015.88 938.084C1028.1 931.666 1039.68 923.893 1050.27 914.982C1050.92 914.433 1051 913.46 1050.45 912.807C1049.9 912.154 1048.93 912.07 1048.28 912.618C1037.86 921.387 1026.47 929.035 1014.44 935.349C1013.69 935.745 1013.39 936.678 1013.79 937.433C1014.07 937.96 1014.61 938.261 1015.16 938.261ZM803.166 914.428C803.599 914.428 804.033 914.244 804.338 913.885C804.891 913.237 804.816 912.263 804.171 911.708C762.03 875.728 737.862 823.342 737.862 767.985C737.862 767.132 737.172 766.44 736.318 766.44C735.463 766.44 734.773 767.133 734.773 767.985C734.773 824.248 759.335 877.489 802.161 914.057C802.454 914.305 802.812 914.428 803.166 914.428ZM1100.31 691.009C1100.52 691.009 1100.74 690.964 1100.95 690.871C1101.73 690.519 1102.07 689.603 1101.72 688.826C1078.45 637.472 1034.11 599.08 980.064 583.493C979.215 583.268 978.387 583.732 978.153 584.551C977.913 585.37 978.387 586.226 979.206 586.463C1032.38 601.798 1076.01 639.573 1098.9 690.101C1099.17 690.672 1099.72 691.009 1100.31 691.009ZM755.003 687.161C755.578 687.161 756.131 686.837 756.396 686.284C762.269 674.048 769.509 662.404 777.905 651.676C778.432 651.006 778.312 650.034 777.639 649.508C776.962 648.99 775.997 649.101 775.471 649.774C766.939 660.676 759.583 672.51 753.608 684.948C753.241 685.716 753.564 686.638 754.334 687.009C754.551 687.112 754.777 687.161 755.003 687.161ZM877.967 585.397C878.095 585.397 878.228 585.382 878.362 585.346C884.907 583.615 891.629 582.224 898.342 581.21C899.188 581.082 899.768 580.296 899.639 579.453C899.515 578.61 898.763 578.035 897.882 578.157C891.058 579.189 884.225 580.602 877.573 582.359C876.751 582.578 876.255 583.423 876.475 584.247C876.657 584.939 877.281 585.397 877.967 585.397Z" fill="#280659"/>
<path d="M542.888 332.174C612.129 332.174 668.259 388.304 668.259 457.544C668.259 526.785 612.13 582.915 542.888 582.915C473.649 582.915 417.518 526.785 417.518 457.544C417.518 388.305 473.649 332.174 542.888 332.174Z" fill="white"/>
<path d="M542.891 584.46C612.873 584.46 669.804 527.525 669.804 457.544C669.804 387.562 612.873 330.629 542.891 330.629C472.909 330.629 415.975 387.562 415.975 457.544C415.975 527.525 472.909 584.46 542.891 584.46ZM542.891 333.718C611.169 333.718 666.714 389.266 666.714 457.544C666.714 525.824 611.169 581.371 542.891 581.371C474.613 581.371 419.064 525.824 419.064 457.544C419.064 389.266 474.613 333.718 542.891 333.718Z" fill="#280659"/>
<path d="M528.715 454.294C518.318 449.096 511.245 438.397 511.245 426.066C511.245 408.597 525.451 394.393 542.919 394.393C560.329 394.393 574.533 408.597 574.533 426.066C574.533 438.397 567.46 449.096 557.124 454.294C580.758 460.52 598.168 482.1 598.168 507.729C598.168 525.017 487.612 525.017 487.612 507.729C487.612 482.1 505.08 460.52 528.715 454.294Z" fill="#764895"/>
<path d="M983.816 42.9258C999.554 42.9258 1012.31 55.6834 1012.31 71.4211C1012.31 87.1589 999.554 99.9165 983.816 99.9165C968.079 99.9165 955.321 87.1589 955.321 71.4211C955.321 55.6834 968.079 42.9258 983.816 42.9258Z" fill="white"/>
<path d="M983.814 100.843C1000.04 100.843 1013.24 87.6439 1013.24 71.4214C1013.24 55.1969 1000.04 41.998 983.814 41.998C967.592 41.998 954.394 55.1969 954.394 71.4214C954.394 87.6439 967.591 100.843 983.814 100.843ZM983.814 43.852C999.017 43.852 1011.38 56.2195 1011.38 71.421C1011.38 86.6225 999.017 98.9888 983.814 98.9888C968.614 98.9888 956.248 86.6225 956.248 71.421C956.248 56.2195 968.614 43.852 983.814 43.852Z" fill="#280659"/>
<path d="M980.595 70.6834C978.232 69.5019 976.625 67.0703 976.625 64.2676C976.625 60.2971 979.854 57.0684 983.824 57.0684C987.781 57.0684 991.01 60.2971 991.01 64.2676C991.01 67.0703 989.402 69.5019 987.053 70.6834C992.425 72.0985 996.382 77.0033 996.382 82.8287C996.382 86.758 971.254 86.758 971.254 82.8287C971.253 77.0029 975.223 72.0981 980.595 70.6834Z" fill="#735D93"/>
<path d="M1046.71 226.674C1062.45 226.674 1075.2 239.431 1075.2 255.169C1075.2 270.907 1062.45 283.665 1046.71 283.665C1030.97 283.665 1018.21 270.907 1018.21 255.169C1018.21 239.431 1030.97 226.674 1046.71 226.674Z" fill="white"/>
<path d="M1046.71 284.595C1062.93 284.595 1076.13 271.395 1076.13 255.172C1076.13 238.949 1062.93 225.75 1046.71 225.75C1030.48 225.75 1017.29 238.949 1017.29 255.172C1017.29 271.396 1030.48 284.595 1046.71 284.595ZM1046.71 227.604C1061.91 227.604 1074.28 239.97 1074.28 255.172C1074.28 270.373 1061.91 282.741 1046.71 282.741C1031.51 282.741 1019.14 270.373 1019.14 255.172C1019.14 239.97 1031.51 227.604 1046.71 227.604Z" fill="#280659"/>
<path d="M1043.49 254.431C1041.12 253.25 1039.52 250.818 1039.52 248.016C1039.52 244.045 1042.75 240.816 1046.72 240.816C1050.67 240.816 1053.9 244.045 1053.9 248.016C1053.9 250.818 1052.29 253.25 1049.94 254.431C1055.32 255.847 1059.27 260.751 1059.27 266.577C1059.27 270.506 1034.15 270.506 1034.15 266.577C1034.14 260.751 1038.11 255.847 1043.49 254.431Z" fill="#BCB2CC"/>
<path d="M783.761 113.822C799.498 113.822 812.256 126.58 812.256 142.318C812.256 158.055 799.498 170.813 783.761 170.813C768.023 170.813 755.265 158.055 755.265 142.318C755.265 126.58 768.023 113.822 783.761 113.822Z" fill="white"/>
<path d="M783.762 171.743C799.984 171.743 813.182 158.544 813.182 142.32C813.182 126.097 799.984 112.898 783.762 112.898C767.539 112.898 754.338 126.097 754.338 142.32C754.338 158.544 767.539 171.743 783.762 171.743ZM783.762 114.752C798.961 114.752 811.328 127.119 811.328 142.32C811.328 157.522 798.962 169.889 783.762 169.889C768.558 169.889 756.192 157.522 756.192 142.32C756.192 127.119 768.558 114.752 783.762 114.752Z" fill="#280659"/>
<path d="M780.539 141.58C778.176 140.399 776.568 137.967 776.568 135.164C776.568 131.194 779.797 127.965 783.767 127.965C787.724 127.965 790.953 131.194 790.953 135.164C790.953 137.967 789.346 140.398 786.996 141.58C792.368 142.995 796.325 147.9 796.325 153.725C796.325 157.654 771.197 157.654 771.197 153.725C771.196 147.9 775.167 142.995 780.539 141.58Z" fill="#472B59"/>
<path d="M867.238 287.375C882.976 287.375 895.733 300.133 895.733 315.87C895.733 331.608 882.976 344.366 867.238 344.366C851.501 344.366 838.743 331.608 838.743 315.87C838.743 300.133 851.501 287.375 867.238 287.375Z" fill="white"/>
<path d="M867.238 345.292C883.461 345.292 896.661 332.093 896.661 315.87C896.661 299.646 883.461 286.447 867.238 286.447C851.015 286.447 837.815 299.646 837.815 315.87C837.815 332.093 851.015 345.292 867.238 345.292ZM867.238 288.302C882.441 288.302 894.807 300.669 894.807 315.871C894.807 331.072 882.44 343.438 867.238 343.438C852.035 343.438 839.669 331.072 839.669 315.871C839.668 300.669 852.035 288.302 867.238 288.302Z" fill="#280659"/>
<path d="M864.017 315.133C861.653 313.951 860.046 311.52 860.046 308.717C860.046 304.746 863.274 301.518 867.245 301.518C871.202 301.518 874.431 304.746 874.431 308.717C874.431 311.52 872.823 313.951 870.474 315.133C875.846 316.548 879.803 321.453 879.803 327.278C879.803 331.207 854.674 331.207 854.674 327.278C854.674 321.453 858.645 316.548 864.017 315.133Z" fill="#818181"/>
<path d="M227.84 1.10938C246.674 1.10938 261.942 16.378 261.942 35.2122C261.942 54.0465 246.674 69.3151 227.84 69.3151C209.005 69.3151 193.737 54.0465 193.737 35.2122C193.736 16.378 209.005 1.10938 227.84 1.10938Z" fill="white"/>
<path d="M227.841 70.4245C247.257 70.4245 263.051 54.6283 263.051 35.213C263.051 15.7963 247.256 0 227.841 0C208.426 0 192.628 15.7963 192.628 35.213C192.628 54.6283 208.425 70.4245 227.841 70.4245ZM227.841 2.21836C246.032 2.21836 260.832 17.02 260.832 35.2125C260.832 53.4055 246.033 68.2052 227.841 68.2052C209.646 68.2052 194.847 53.4055 194.847 35.2125C194.847 17.02 209.646 2.21836 227.841 2.21836Z" fill="#280659"/>
<path d="M223.983 34.328C221.155 32.9135 219.231 30.0034 219.231 26.6492C219.231 21.8973 223.095 18.0332 227.847 18.0332C232.583 18.0332 236.447 21.8973 236.447 26.6492C236.447 30.0034 234.523 32.9135 231.712 34.328C238.14 36.0216 242.876 41.8916 242.876 48.8629C242.876 53.5654 212.803 53.5654 212.803 48.8629C212.802 41.8911 217.554 36.0211 223.983 34.328Z" fill="#A8A8A8"/>
<path d="M137.749 147.045C156.584 147.045 171.852 162.314 171.852 181.148C171.852 199.982 156.583 215.251 137.749 215.251C118.914 215.251 103.646 199.982 103.646 181.148C103.646 162.314 118.915 147.045 137.749 147.045Z" fill="white"/>
<path d="M137.75 216.362C157.165 216.362 172.96 200.566 172.96 181.149C172.96 161.734 157.165 145.938 137.75 145.938C118.335 145.938 102.537 161.734 102.537 181.149C102.537 200.566 118.335 216.362 137.75 216.362ZM137.75 148.156C155.941 148.156 170.742 162.956 170.742 181.15C170.742 199.342 155.942 214.144 137.75 214.144C119.555 214.144 104.756 199.342 104.756 181.15C104.756 162.956 119.555 148.156 137.75 148.156Z" fill="#280659"/>
<path d="M133.893 180.265C131.065 178.851 129.141 175.941 129.141 172.587C129.141 167.835 133.005 163.971 137.757 163.971C142.493 163.971 146.356 167.835 146.356 172.587C146.356 175.941 144.432 178.851 141.621 180.265C148.05 181.959 152.785 187.829 152.785 194.801C152.785 199.503 122.712 199.503 122.712 194.801C122.712 187.829 127.464 181.959 133.893 180.265Z" fill="#280659"/>
<path d="M363.329 119.209C382.164 119.209 397.432 134.477 397.432 153.312C397.432 172.146 382.164 187.415 363.329 187.415C344.495 187.415 329.226 172.147 329.226 153.312C329.226 134.478 344.495 119.209 363.329 119.209Z" fill="white"/>
<path d="M363.33 188.526C382.745 188.526 398.543 172.73 398.543 153.315C398.543 133.898 382.745 118.102 363.33 118.102C343.915 118.102 328.117 133.898 328.117 153.315C328.117 172.73 343.915 188.526 363.33 188.526ZM363.33 120.32C381.525 120.32 396.325 135.122 396.325 153.314C396.325 171.507 381.525 186.307 363.33 186.307C345.136 186.307 330.336 171.507 330.336 153.314C330.336 135.122 345.136 120.32 363.33 120.32Z" fill="#280659"/>
<path d="M359.474 152.427C356.646 151.013 354.721 148.103 354.721 144.749C354.721 139.997 358.585 136.133 363.337 136.133C368.073 136.133 371.937 139.997 371.937 144.749C371.937 148.103 370.013 151.013 367.202 152.427C373.631 154.121 378.366 159.991 378.366 166.962C378.366 171.665 348.293 171.665 348.293 166.962C348.293 159.991 353.045 154.121 359.474 152.427Z" fill="#BCB2CC"/>
<path d="M67.0955 757.193C102.985 757.193 132.078 786.287 132.078 822.176C132.078 858.064 102.985 887.158 67.0955 887.158C31.207 887.158 2.11299 858.065 2.11299 822.176C2.11299 786.287 31.2061 757.193 67.0955 757.193Z" fill="white"/>
<path d="M67.0981 889.275C104.094 889.275 134.19 859.176 134.19 822.18C134.19 785.182 104.094 755.082 67.0981 755.082C30.1025 755.082 9.15527e-05 785.182 9.15527e-05 822.18C0.0010376 859.176 30.1034 889.275 67.0981 889.275ZM67.0981 759.309C101.762 759.309 129.963 787.514 129.963 822.179C129.963 856.846 101.763 885.047 67.0981 885.047C32.4288 885.047 4.22806 856.847 4.22806 822.179C4.22806 787.514 32.4288 759.309 67.0981 759.309Z" fill="#280659"/>
<path d="M59.7485 820.49C54.3588 817.796 50.6928 812.25 50.6928 805.859C50.6928 796.804 58.0557 789.441 67.1105 789.441C76.1341 789.441 83.4971 796.804 83.4971 805.859C83.4971 812.25 79.8312 817.796 74.4744 820.49C86.7243 823.717 95.748 834.902 95.748 848.187C95.748 857.149 38.4438 857.149 38.4438 848.187C38.4438 834.902 47.4976 823.717 59.7485 820.49Z" fill="#D5C6DE"/>
<path d="M364.035 825.66C399.925 825.66 429.018 854.754 429.018 890.643C429.018 926.531 399.924 955.625 364.035 955.625C328.146 955.625 299.052 926.531 299.052 890.643C299.052 854.754 328.147 825.66 364.035 825.66Z" fill="white"/>
<path d="M364.037 957.743C401.032 957.743 431.129 927.642 431.129 890.648C431.129 853.649 401.032 823.549 364.037 823.549C327.041 823.549 296.938 853.649 296.938 890.648C296.938 927.642 327.042 957.743 364.037 957.743ZM364.037 827.777C398.7 827.777 426.901 855.98 426.901 890.648C426.901 925.314 398.7 953.515 364.037 953.515C329.367 953.515 301.167 925.314 301.167 890.648C301.167 855.98 329.367 827.777 364.037 827.777Z" fill="#280659"/>
<path d="M356.688 888.96C351.299 886.264 347.632 880.719 347.632 874.328C347.632 865.273 354.995 857.91 364.05 857.91C373.074 857.91 380.437 865.273 380.437 874.328C380.437 880.719 376.771 886.264 371.414 888.96C383.664 892.187 392.688 903.372 392.688 916.656C392.688 925.617 335.383 925.617 335.383 916.656C335.382 903.372 344.437 892.187 356.688 888.96Z" fill="#B59CC6"/>
<path d="M1094.1 738.816C1120.33 738.816 1141.58 760.074 1141.58 786.298C1141.58 812.52 1120.33 833.779 1094.1 833.779C1067.88 833.779 1046.62 812.52 1046.62 786.298C1046.62 760.075 1067.88 738.816 1094.1 738.816Z" fill="white"/>
<path d="M1094.1 835.324C1121.13 835.324 1143.13 813.331 1143.13 786.298C1143.13 759.266 1121.13 737.273 1094.1 737.273C1067.07 737.273 1045.08 759.266 1045.08 786.298C1045.08 813.331 1067.07 835.324 1094.1 835.324ZM1094.1 740.362C1119.43 740.362 1140.04 760.967 1140.04 786.297C1140.04 811.627 1119.43 832.235 1094.1 832.235C1068.77 832.235 1048.17 811.627 1048.17 786.297C1048.17 760.968 1068.77 740.362 1094.1 740.362Z" fill="#280659"/>
<path d="M1088.74 785.068C1084.8 783.099 1082.12 779.047 1082.12 774.377C1082.12 767.761 1087.5 762.381 1094.11 762.381C1100.71 762.381 1106.09 767.761 1106.09 774.377C1106.09 779.047 1103.41 783.099 1099.5 785.068C1108.45 787.426 1115.04 795.598 1115.04 805.304C1115.04 811.852 1073.17 811.852 1073.17 805.304C1073.17 795.598 1079.78 787.426 1088.74 785.068Z" fill="#9E8FB4"/>
<path d="M850.297 869.373C876.521 869.373 897.777 890.631 897.777 916.854C897.777 943.076 876.52 964.334 850.297 964.334C824.074 964.334 802.816 943.076 802.816 916.854C802.816 890.631 824.075 869.373 850.297 869.373Z" fill="white"/>
<path d="M850.299 965.879C877.331 965.879 899.321 943.886 899.321 916.855C899.321 889.821 877.331 867.828 850.299 867.828C823.268 867.828 801.273 889.821 801.273 916.855C801.273 943.886 823.268 965.879 850.299 965.879ZM850.299 870.917C875.627 870.917 896.232 891.526 896.232 916.855C896.232 942.184 875.627 962.79 850.299 962.79C824.967 962.79 804.362 942.184 804.362 916.855C804.362 891.525 824.967 870.917 850.299 870.917Z" fill="#280659"/>
<path d="M844.929 915.624C840.991 913.656 838.313 909.603 838.313 904.933C838.313 898.317 843.693 892.938 850.309 892.938C856.902 892.938 862.282 898.317 862.282 904.933C862.282 909.603 859.603 913.655 855.688 915.624C864.639 917.982 871.232 926.155 871.232 935.861C871.232 942.408 829.362 942.408 829.362 935.861C829.361 926.155 835.977 917.982 844.929 915.624Z" fill="#B5B5B5"/>
<path d="M871.262 554.572C897.486 554.572 918.743 575.83 918.743 602.053C918.743 628.276 897.486 649.534 871.262 649.534C845.04 649.534 823.782 628.276 823.782 602.053C823.782 575.83 845.04 554.572 871.262 554.572Z" fill="white"/>
<path d="M871.263 651.078C898.294 651.078 920.289 629.085 920.289 602.054C920.289 575.02 898.294 553.027 871.263 553.027C844.231 553.027 822.236 575.02 822.236 602.054C822.236 629.085 844.231 651.078 871.263 651.078ZM871.263 556.117C896.594 556.117 917.2 576.725 917.2 602.054C917.2 627.384 896.594 647.989 871.263 647.989C845.93 647.989 825.325 627.384 825.325 602.054C825.325 576.724 845.93 556.117 871.263 556.117Z" fill="#280659"/>
<path d="M865.894 600.824C861.956 598.855 859.278 594.803 859.278 590.133C859.278 583.517 864.657 578.137 871.273 578.137C877.867 578.137 883.247 583.517 883.247 590.133C883.247 594.803 880.568 598.855 876.653 600.824C885.604 603.182 892.197 611.354 892.197 621.061C892.197 627.608 850.327 627.608 850.327 621.061C850.326 611.354 856.942 603.182 865.894 600.824Z" fill="#151515"/>
<path d="M354.641 246.216L444.13 334.623L442.572 336.2L353.083 247.793L354.641 246.216Z" fill="#280659"/>
<path d="M428.654 552.998L431.13 555.58L342.605 640.462L340.13 637.88L428.654 552.998Z" fill="#280659"/>
<path d="M669.018 548.998L758.683 634.742L757.347 636.139L667.683 550.395L669.018 548.998Z" fill="#280659"/>
<path d="M778.046 281.368L688.558 369.775L690.115 371.352L779.604 282.945L778.046 281.368Z" fill="#280659"/>
<path d="M857.923 139C857.773 140.605 856.933 141.903 855.403 142.892C853.928 143.844 852.033 144.32 849.719 144.32C846.844 144.32 844.679 143.48 843.223 141.8C842.14 140.549 841.599 139.009 841.599 137.18C841.599 135.575 842.009 134.193 842.831 133.036L844.651 132.672C843.755 134.035 843.307 135.491 843.307 137.04C843.307 138.757 843.895 140.129 845.071 141.156C846.191 142.145 847.74 142.64 849.719 142.64C851.753 142.64 853.349 142.211 854.507 141.352C855.365 140.717 855.869 139.933 856.019 139H853.163L854.059 137.264H858.007V139H857.923ZM847.955 148.94C847.189 148.94 846.807 148.557 846.807 147.792C846.807 147.027 847.189 146.644 847.955 146.644C848.683 146.644 849.047 147.027 849.047 147.792C849.047 148.557 848.683 148.94 847.955 148.94ZM851.147 148.94C850.4 148.94 850.027 148.557 850.027 147.792C850.027 147.027 850.4 146.644 851.147 146.644C851.893 146.644 852.267 147.027 852.267 147.792C852.267 148.557 851.893 148.94 851.147 148.94ZM859.905 123.404C859.159 123.404 858.785 123.021 858.785 122.256C858.785 121.491 859.159 121.108 859.905 121.108C860.652 121.108 861.025 121.491 861.025 122.256C861.025 123.021 860.652 123.404 859.905 123.404ZM863.097 123.404C862.351 123.404 861.977 123.021 861.977 122.256C861.977 121.491 862.351 121.108 863.097 121.108C863.844 121.108 864.217 121.491 864.217 122.256C864.217 123.021 863.844 123.404 863.097 123.404ZM866.093 137.264H867.073V139H865.869C864.189 139 862.929 138.431 862.089 137.292C861.212 138.431 859.943 139 858.281 139H857.077V137.264H858.057C860.111 137.264 861.137 136.2 861.137 134.072V127.996L863.013 127.016V134.072C863.013 136.2 864.04 137.264 866.093 137.264ZM866.511 139V137.264H867.295C869.423 137.264 870.487 136.163 870.487 133.96V121.92L872.363 120.94V133.988C872.363 135.575 871.896 136.825 870.963 137.74C870.086 138.58 868.928 139 867.491 139H866.511ZM877.405 139V121.92L879.281 120.94V139H877.405ZM898.469 125.98C897.723 125.98 897.349 125.588 897.349 124.804C897.349 124.057 897.723 123.684 898.469 123.684C899.216 123.684 899.589 124.057 899.589 124.804C899.589 125.588 899.216 125.98 898.469 125.98ZM901.689 125.98C900.924 125.98 900.541 125.588 900.541 124.804C900.541 124.057 900.924 123.684 901.689 123.684C902.417 123.684 902.781 124.057 902.781 124.804C902.781 125.588 902.417 125.98 901.689 125.98ZM895.585 139C894.204 139 893.103 138.571 892.281 137.712C891.46 136.835 891.049 135.659 891.049 134.184V130.516L892.925 129.536V133.96C892.925 136.163 893.952 137.264 896.005 137.264H905.385C907.439 137.264 908.465 136.163 908.465 133.96V127.996L910.341 127.016V134.184C910.341 135.771 909.856 137.003 908.885 137.88C908.045 138.627 906.944 139 905.581 139H895.585ZM920.117 139C918.531 139 917.308 138.487 916.449 137.46C915.74 136.583 915.385 135.472 915.385 134.128V121.92L917.261 120.94V134.072C917.261 136.2 918.288 137.264 920.341 137.264H921.321V139H920.117ZM925.185 127.436C925.372 127.417 925.568 127.408 925.773 127.408C927.453 127.408 928.89 127.819 930.085 128.64C931.728 129.816 932.549 131.496 932.549 133.68V134.212C932.549 135.78 932.064 137.003 931.093 137.88C930.253 138.627 929.161 139 927.817 139H920.761V137.264H927.621C929.656 137.264 930.673 136.172 930.673 133.988V133.708C930.673 132.196 930.132 131.067 929.049 130.32C928.153 129.648 927.014 129.312 925.633 129.312C924.625 129.312 923.626 129.489 922.637 129.844V127.996L928.993 120.94H930.925L925.185 127.436ZM943.517 137.264H944.497V139H943.293C942.135 139 941.174 138.72 940.409 138.16C940.259 141.259 939.009 143.219 936.657 144.04C936.059 144.245 935.425 144.348 934.753 144.348C933.67 144.348 932.625 144.087 931.617 143.564V141.912C932.569 142.435 933.539 142.696 934.529 142.696C935.313 142.696 936.003 142.519 936.601 142.164C937.907 141.38 938.561 139.915 938.561 137.768V127.996L940.409 127.016V127.044L940.437 127.016V134.072C940.437 136.2 941.463 137.264 943.517 137.264ZM958.761 121.332C958.089 121.332 957.753 120.977 957.753 120.268C957.753 119.596 958.089 119.26 958.761 119.26C959.433 119.26 959.769 119.596 959.769 120.268C959.769 120.977 959.433 121.332 958.761 121.332ZM957.193 124.244C956.427 124.244 956.045 123.861 956.045 123.096C956.045 122.331 956.427 121.948 957.193 121.948C957.921 121.948 958.285 122.331 958.285 123.096C958.285 123.861 957.921 124.244 957.193 124.244ZM960.385 124.244C959.638 124.244 959.265 123.861 959.265 123.096C959.265 122.331 959.638 121.948 960.385 121.948C961.131 121.948 961.505 122.331 961.505 123.096C961.505 123.861 961.131 124.244 960.385 124.244ZM943.949 139V137.264H945.657C947.729 137.264 948.765 136.2 948.765 134.072V130.04L950.641 129.06V134.072C950.641 136.2 951.667 137.264 953.721 137.264H954.757C956.81 137.264 957.837 136.2 957.837 134.072V129.032L959.713 128.024V134.072C959.713 136.2 960.749 137.264 962.821 137.264H963.829C965.901 137.264 966.937 136.2 966.937 134.072V127.996L968.813 127.016V133.96C968.813 136.163 969.877 137.264 972.005 137.264H973.629V139H971.809C970.035 139 968.738 138.375 967.917 137.124C967.095 138.375 965.826 139 964.109 139H962.569C960.833 139 959.573 138.384 958.789 137.152C957.986 138.384 956.735 139 955.037 139H953.497C951.761 139 950.491 138.384 949.689 137.152C948.905 138.384 947.645 139 945.909 139H943.949ZM973.07 139V137.264H973.854C975.982 137.264 977.046 136.163 977.046 133.96V121.92L978.922 120.94V133.988C978.922 135.575 978.455 136.825 977.522 137.74C976.644 138.58 975.487 139 974.05 139H973.07ZM983.963 139V121.92L985.839 120.94V139H983.963ZM901.489 179.264V181H900.285C898.717 181 897.504 180.496 896.645 179.488C895.973 180.496 894.891 181 893.397 181H875.841L876.765 179.264H880.461V163.92L882.197 162.94V174.7C884.381 170.687 887.275 168.68 890.877 168.68C892.968 168.68 894.629 169.399 895.861 170.836C896.907 172.068 897.429 173.589 897.429 175.4V176.128C897.429 178.219 898.465 179.264 900.537 179.264H901.489ZM895.553 175.4C895.553 173.832 895.059 172.572 894.069 171.62C893.229 170.799 892.175 170.388 890.905 170.388C888.721 170.388 886.78 171.443 885.081 173.552C883.793 175.139 882.841 177.043 882.225 179.264H893.201C894.097 179.264 894.713 179.059 895.049 178.648C895.385 178.219 895.553 177.444 895.553 176.324V175.4ZM926.683 179.264V181H925.479C923.911 181 922.698 180.496 921.839 179.488C921.167 180.496 920.084 181 918.591 181H900.923V179.264H905.655V163.92L907.391 162.94V174.7C909.575 170.687 912.468 168.68 916.071 168.68C918.162 168.68 919.823 169.399 921.055 170.836C922.1 172.068 922.623 173.589 922.623 175.4V176.128C922.623 178.219 923.659 179.264 925.731 179.264H926.683ZM920.747 175.4C920.747 173.832 920.252 172.572 919.263 171.62C918.423 170.799 917.368 170.388 916.099 170.388C913.915 170.388 911.974 171.443 910.275 173.552C908.987 175.139 908.035 177.043 907.419 179.264H918.395C919.291 179.264 919.907 179.059 920.243 178.648C920.579 178.219 920.747 177.444 920.747 176.324V175.4ZM933.974 165.32C933.209 165.32 932.826 164.928 932.826 164.144C932.826 163.397 933.209 163.024 933.974 163.024C934.702 163.024 935.066 163.397 935.066 164.144C935.066 164.928 934.702 165.32 933.974 165.32ZM943.83 179.264H944.81V181H943.802C942.253 181 941.011 180.823 940.078 180.468C939.163 180.113 938.314 179.488 937.53 178.592C935.141 180.197 932.378 181 929.242 181H926.134V179.264H929.27C933.339 179.264 936.513 177.883 938.79 175.12C937.129 171.947 935.122 170.36 932.77 170.36C931.165 170.36 929.597 171.172 928.066 172.796V170.948C929.597 169.436 931.193 168.68 932.854 168.68H932.91C935.841 168.68 938.379 170.659 940.526 174.616V175.764C939.947 176.511 939.331 177.155 938.678 177.696C939.275 178.275 939.947 178.685 940.694 178.928C941.459 179.152 942.505 179.264 943.83 179.264ZM945.943 165.32C945.178 165.32 944.795 164.928 944.795 164.144C944.795 163.397 945.178 163.024 945.943 163.024C946.671 163.024 947.035 163.397 947.035 164.144C947.035 164.928 946.671 165.32 945.943 165.32ZM949.135 165.32C948.37 165.32 947.987 164.928 947.987 164.144C947.987 163.397 948.37 163.024 949.135 163.024C949.863 163.024 950.227 163.397 950.227 164.144C950.227 164.928 949.863 165.32 949.135 165.32ZM944.263 181V179.264H945.243C947.296 179.264 948.323 178.2 948.323 176.072V169.996L950.199 169.016V176.128C950.199 177.696 949.742 178.919 948.827 179.796C947.987 180.599 946.867 181 945.467 181H944.263ZM848.895 209.98C848.148 209.98 847.775 209.588 847.775 208.804C847.775 208.057 848.148 207.684 848.895 207.684C849.642 207.684 850.015 208.057 850.015 208.804C850.015 209.588 849.642 209.98 848.895 209.98ZM852.115 209.98C851.35 209.98 850.967 209.588 850.967 208.804C850.967 208.057 851.35 207.684 852.115 207.684C852.843 207.684 853.207 208.057 853.207 208.804C853.207 209.588 852.843 209.98 852.115 209.98ZM846.011 223C844.63 223 843.528 222.571 842.707 221.712C841.886 220.835 841.475 219.659 841.475 218.184V214.516L843.351 213.536V217.96C843.351 220.163 844.378 221.264 846.431 221.264H855.811C857.864 221.264 858.891 220.163 858.891 217.96V211.996L860.767 211.016V218.184C860.767 219.771 860.282 221.003 859.311 221.88C858.471 222.627 857.37 223 856.007 223H846.011ZM870.543 223C868.956 223 867.734 222.487 866.875 221.46C866.166 220.583 865.811 219.472 865.811 218.128V205.92L867.687 204.94V218.072C867.687 220.2 868.714 221.264 870.767 221.264H871.747V223H870.543ZM880.203 221.264H881.183V223H879.979C878.299 223 877.039 222.431 876.199 221.292C875.321 222.431 874.052 223 872.391 223H871.187V221.264H872.167C874.22 221.264 875.247 220.2 875.247 218.072V211.996L877.123 211.016V218.072C877.123 220.2 878.149 221.264 880.203 221.264ZM873.847 225.94C874.593 225.94 874.967 226.323 874.967 227.088C874.967 227.853 874.593 228.236 873.847 228.236C873.1 228.236 872.727 227.853 872.727 227.088C872.727 226.323 873.1 225.94 873.847 225.94ZM877.039 225.94C877.785 225.94 878.159 226.323 878.159 227.088C878.159 227.853 877.785 228.236 877.039 228.236C876.292 228.236 875.919 227.853 875.919 227.088C875.919 226.323 876.292 225.94 877.039 225.94ZM898.316 221.264H899.296V223H898.288C896.739 223 895.498 222.823 894.564 222.468C893.65 222.113 892.8 221.488 892.016 220.592C889.627 222.197 886.864 223 883.728 223H880.62V221.264H883.756C887.826 221.264 890.999 219.883 893.276 217.12C891.615 213.947 889.608 212.36 887.256 212.36C885.651 212.36 884.083 213.172 882.552 214.796V212.948C884.083 211.436 885.679 210.68 887.34 210.68H887.396C890.327 210.68 892.866 212.659 895.012 216.616V217.764C894.434 218.511 893.818 219.155 893.164 219.696C893.762 220.275 894.434 220.685 895.18 220.928C895.946 221.152 896.991 221.264 898.316 221.264ZM888.012 225.94C888.74 225.94 889.104 226.313 889.104 227.06C889.104 227.844 888.74 228.236 888.012 228.236C887.247 228.236 886.864 227.844 886.864 227.06C886.864 226.313 887.247 225.94 888.012 225.94ZM907.765 221.264H908.745V223H907.541C905.861 223 904.601 222.431 903.761 221.292C902.884 222.431 901.615 223 899.953 223H898.749V221.264H899.729C901.783 221.264 902.809 220.2 902.809 218.072V211.996L904.685 211.016V218.072C904.685 220.2 905.712 221.264 907.765 221.264ZM901.409 225.94C902.156 225.94 902.529 226.323 902.529 227.088C902.529 227.853 902.156 228.236 901.409 228.236C900.663 228.236 900.289 227.853 900.289 227.088C900.289 226.323 900.663 225.94 901.409 225.94ZM904.601 225.94C905.348 225.94 905.721 226.323 905.721 227.088C905.721 227.853 905.348 228.236 904.601 228.236C903.855 228.236 903.481 227.853 903.481 227.088C903.481 226.323 903.855 225.94 904.601 225.94ZM909.863 207.32C909.098 207.32 908.715 206.928 908.715 206.144C908.715 205.397 909.098 205.024 909.863 205.024C910.591 205.024 910.955 205.397 910.955 206.144C910.955 206.928 910.591 207.32 909.863 207.32ZM913.055 207.32C912.29 207.32 911.907 206.928 911.907 206.144C911.907 205.397 912.29 205.024 913.055 205.024C913.783 205.024 914.147 205.397 914.147 206.144C914.147 206.928 913.783 207.32 913.055 207.32ZM908.183 223V221.264H909.163C911.216 221.264 912.243 220.2 912.243 218.072V211.996L914.119 211.016V218.128C914.119 219.696 913.662 220.919 912.747 221.796C911.907 222.599 910.787 223 909.387 223H908.183ZM919.159 223V205.92L921.035 204.94V223H919.159ZM934.685 221.264H935.665V223H934.461C933.303 223 932.342 222.72 931.577 222.16C931.427 225.259 930.177 227.219 927.825 228.04C927.227 228.245 926.593 228.348 925.921 228.348C924.838 228.348 923.793 228.087 922.785 227.564V225.912C923.737 226.435 924.707 226.696 925.697 226.696C926.481 226.696 927.171 226.519 927.769 226.164C929.075 225.38 929.729 223.915 929.729 221.768V211.996L931.577 211.016V211.044L931.605 211.016V218.072C931.605 220.2 932.631 221.264 934.685 221.264ZM937.944 207.404C937.198 207.404 936.824 207.021 936.824 206.256C936.824 205.491 937.198 205.108 937.944 205.108C938.691 205.108 939.064 205.491 939.064 206.256C939.064 207.021 938.691 207.404 937.944 207.404ZM941.136 207.404C940.39 207.404 940.016 207.021 940.016 206.256C940.016 205.491 940.39 205.108 941.136 205.108C941.883 205.108 942.256 205.491 942.256 206.256C942.256 207.021 941.883 207.404 941.136 207.404ZM944.132 221.264H945.112V223H943.908C942.228 223 940.968 222.431 940.128 221.292C939.251 222.431 937.982 223 936.32 223H935.116V221.264H936.096C938.15 221.264 939.176 220.2 939.176 218.072V211.996L941.052 211.016V218.072C941.052 220.2 942.079 221.264 944.132 221.264ZM944.55 223V221.264H946.258C948.33 221.264 949.366 220.2 949.366 218.072V214.04L951.242 213.06V218.072C951.242 220.2 952.269 221.264 954.322 221.264H955.358C957.411 221.264 958.438 220.2 958.438 218.072V213.032L960.314 212.024V218.072C960.314 220.2 961.35 221.264 963.422 221.264H964.43C966.502 221.264 967.538 220.2 967.538 218.072V211.996L969.414 211.016V218.128C969.414 219.677 968.957 220.891 968.042 221.768C967.221 222.571 966.11 222.981 964.71 223H963.17C961.434 223 960.174 222.384 959.39 221.152C958.587 222.384 957.337 223 955.638 223H954.098C952.362 223 951.093 222.384 950.29 221.152C949.506 222.384 948.246 223 946.51 223H944.55ZM984.668 205.92L986.516 204.94V217.988C986.516 219.575 986.049 220.825 985.116 221.74C984.257 222.58 983.109 223 981.672 223H972.488L973.384 221.264H977.668V209.56L979.516 208.58V221.264H981.476C983.604 221.264 984.668 220.163 984.668 217.96V205.92ZM827.749 256.6C826.573 255.256 825.267 254.584 823.829 254.584C823.027 254.584 822.392 254.827 821.925 255.312C821.459 255.779 821.225 256.423 821.225 257.244V257.3C821.244 258.159 821.505 258.831 822.009 259.316C822.513 259.801 823.493 260.296 824.949 260.8C826.48 261.341 827.516 261.883 828.057 262.424C828.617 262.965 828.897 263.731 828.897 264.72C828.897 266.381 828.104 267.744 826.517 268.808C825.024 269.816 823.083 270.32 820.693 270.32C817.819 270.32 815.653 269.48 814.197 267.8C813.115 266.549 812.573 265.009 812.573 263.18C812.573 261.575 812.984 260.193 813.805 259.036L815.625 258.672C814.729 260.035 814.281 261.491 814.281 263.04C814.281 264.739 814.869 266.092 816.045 267.1C817.184 268.089 818.733 268.584 820.693 268.584C822.84 268.584 824.501 268.136 825.677 267.24C826.592 266.531 827.049 265.691 827.049 264.72C827.049 264.141 826.844 263.684 826.433 263.348C826.023 263.012 825.211 262.629 823.997 262.2C822.429 261.64 821.337 261.089 820.721 260.548C819.844 259.745 819.405 258.653 819.405 257.272C819.405 255.835 819.919 254.705 820.945 253.884C821.748 253.249 822.663 252.932 823.689 252.932C825.332 252.932 826.685 253.548 827.749 254.78V256.6ZM830.854 265L831.75 263.264H837.014C837.873 263.264 838.47 263.049 838.806 262.62C839.161 262.191 839.338 261.444 839.338 260.38C839.338 257.636 838.134 255.592 835.726 254.248L836.65 252.708C839.618 254.425 841.13 256.843 841.186 259.96C841.205 262.163 842.278 263.264 844.406 263.264H845.274V265H844.21C842.586 265 841.345 264.459 840.486 263.376C839.852 264.459 838.797 265 837.322 265H830.854ZM862.316 263.264H863.268V265H862.064C860.366 265 859.096 264.412 858.256 263.236C857.323 264.785 855.904 265.56 854 265.56C852.078 265.56 850.659 264.795 849.744 263.264C848.886 264.421 847.607 265 845.908 265H844.704V263.264H845.684C847.738 263.264 848.764 262.2 848.764 260.072V259.12C848.764 256.973 849.287 255.331 850.332 254.192C851.247 253.184 852.47 252.68 854 252.68C855.755 252.68 857.09 253.333 858.004 254.64C858.807 255.76 859.208 257.253 859.208 259.12V260.072C859.208 262.2 860.244 263.264 862.316 263.264ZM854 263.824C855.027 263.824 855.839 263.404 856.436 262.564C857.034 261.705 857.332 260.548 857.332 259.092C857.332 255.956 856.222 254.388 854 254.388C851.76 254.388 850.64 255.956 850.64 259.092C850.64 262.247 851.76 263.824 854 263.824ZM862.697 265V263.264H863.481C865.609 263.264 866.673 262.163 866.673 259.96V247.92L868.549 246.94V259.988C868.549 261.575 868.082 262.825 867.149 263.74C866.271 264.58 865.114 265 863.677 265H862.697ZM873.59 265V247.92L875.466 246.94V265H873.59ZM889.923 249.18C889.158 249.18 888.775 248.788 888.775 248.004C888.775 247.257 889.158 246.884 889.923 246.884C890.651 246.884 891.015 247.257 891.015 248.004C891.015 248.788 890.651 249.18 889.923 249.18ZM893.115 249.18C892.35 249.18 891.967 248.788 891.967 248.004C891.967 247.257 892.35 246.884 893.115 246.884C893.843 246.884 894.207 247.257 894.207 248.004C894.207 248.788 893.843 249.18 893.115 249.18ZM898.547 263.264H899.499V265H898.295C896.298 265 894.907 264.216 894.123 262.648C893.152 263.656 891.958 264.16 890.539 264.16C888.934 264.16 887.664 263.553 886.731 262.34C885.947 261.313 885.555 260.035 885.555 258.504C885.555 256.712 886.078 255.275 887.123 254.192C888.038 253.24 889.167 252.764 890.511 252.764C891.724 252.764 892.742 253.119 893.563 253.828V252.316L895.439 251.336V260.072C895.439 262.2 896.475 263.264 898.547 263.264ZM893.563 255.956C892.742 254.967 891.743 254.472 890.567 254.472C889.634 254.472 888.868 254.855 888.271 255.62C887.692 256.367 887.403 257.337 887.403 258.532C887.403 259.745 887.692 260.716 888.271 261.444C888.868 262.172 889.643 262.536 890.595 262.536C891.808 262.536 892.816 262.004 893.619 260.94C893.582 260.604 893.563 260.333 893.563 260.128V255.956ZM907.859 263.264H908.839V265H907.635C905.918 265 904.639 264.412 903.799 263.236C902.922 264.412 901.624 265 899.907 265H898.927V263.264H899.711C901.839 263.264 902.903 262.163 902.903 259.96V247.92L904.779 246.94V260.072C904.779 262.2 905.806 263.264 907.859 263.264ZM908.279 265V263.264H909.259C911.312 263.264 912.339 262.2 912.339 260.072V253.996L914.215 253.016V260.128C914.215 261.696 913.757 262.919 912.843 263.796C912.003 264.599 910.883 265 909.483 265H908.279ZM909.203 270.236C908.437 270.236 908.055 269.844 908.055 269.06C908.055 268.313 908.437 267.94 909.203 267.94C909.931 267.94 910.295 268.313 910.295 269.06C910.295 269.844 909.931 270.236 909.203 270.236ZM912.395 270.236C911.629 270.236 911.247 269.844 911.247 269.06C911.247 268.313 911.629 267.94 912.395 267.94C913.123 267.94 913.487 268.313 913.487 269.06C913.487 269.844 913.123 270.236 912.395 270.236ZM931.546 263.264V265H928.578C928.56 266.232 928.158 267.315 927.374 268.248C926.609 269.2 925.61 269.825 924.378 270.124C923.93 270.255 923.445 270.32 922.922 270.32C921.84 270.32 920.785 270.059 919.758 269.536V267.884C920.729 268.407 921.69 268.668 922.642 268.668C923.408 268.668 924.08 268.5 924.658 268.164C925.237 267.865 925.722 267.408 926.114 266.792C926.506 266.195 926.702 265.597 926.702 265L924.322 264.916C922.25 264.823 920.701 264.169 919.674 262.956C918.834 261.929 918.414 260.557 918.414 258.84C918.414 256.824 918.937 255.265 919.982 254.164C920.916 253.175 922.166 252.68 923.734 252.68C925.358 252.68 926.6 253.165 927.458 254.136C928.205 254.976 928.578 256.096 928.578 257.496V263.264H931.546ZM926.702 257.692C926.702 255.489 925.713 254.388 923.734 254.388C922.633 254.388 921.774 254.78 921.158 255.564C920.561 256.329 920.262 257.412 920.262 258.812C920.262 261.593 921.634 263.049 924.378 263.18C925.2 263.236 925.974 263.264 926.702 263.264V257.692ZM937.442 258.7C939.626 254.687 942.519 252.68 946.122 252.68C948.213 252.68 949.874 253.399 951.106 254.836C952.151 256.068 952.674 257.589 952.674 259.4V260.38C952.674 263.46 951.33 265 948.642 265H930.974V263.264H935.706V247.92L937.442 246.94V258.7ZM950.798 259.4C950.798 257.832 950.303 256.572 949.314 255.62C948.474 254.799 947.419 254.388 946.15 254.388C943.966 254.388 942.025 255.443 940.326 257.552C939.038 259.139 938.086 261.043 937.47 263.264H948.446C949.342 263.264 949.958 263.059 950.294 262.648C950.63 262.219 950.798 261.444 950.798 260.324V259.4ZM966.622 249.18C965.857 249.18 965.474 248.788 965.474 248.004C965.474 247.257 965.857 246.884 966.622 246.884C967.35 246.884 967.714 247.257 967.714 248.004C967.714 248.788 967.35 249.18 966.622 249.18ZM969.814 249.18C969.049 249.18 968.666 248.788 968.666 248.004C968.666 247.257 969.049 246.884 969.814 246.884C970.542 246.884 970.906 247.257 970.906 248.004C970.906 248.788 970.542 249.18 969.814 249.18ZM975.246 263.264H976.198V265H974.994C972.997 265 971.606 264.216 970.822 262.648C969.851 263.656 968.657 264.16 967.238 264.16C965.633 264.16 964.363 263.553 963.43 262.34C962.646 261.313 962.254 260.035 962.254 258.504C962.254 256.712 962.777 255.275 963.822 254.192C964.737 253.24 965.866 252.764 967.21 252.764C968.423 252.764 969.441 253.119 970.262 253.828V252.316L972.138 251.336V260.072C972.138 262.2 973.174 263.264 975.246 263.264ZM970.262 255.956C969.441 254.967 968.442 254.472 967.266 254.472C966.333 254.472 965.567 254.855 964.97 255.62C964.391 256.367 964.102 257.337 964.102 258.532C964.102 259.745 964.391 260.716 964.97 261.444C965.567 262.172 966.342 262.536 967.294 262.536C968.507 262.536 969.515 262.004 970.318 260.94C970.281 260.604 970.262 260.333 970.262 260.128V255.956ZM984.642 263.264H985.622V265H984.418C982.738 265 981.478 264.431 980.638 263.292C979.761 264.431 978.492 265 976.83 265H975.626V263.264H976.606C978.66 263.264 979.686 262.2 979.686 260.072V253.996L981.562 253.016V260.072C981.562 262.2 982.589 263.264 984.642 263.264ZM978.286 267.94C979.033 267.94 979.406 268.323 979.406 269.088C979.406 269.853 979.033 270.236 978.286 270.236C977.54 270.236 977.166 269.853 977.166 269.088C977.166 268.323 977.54 267.94 978.286 267.94ZM981.478 267.94C982.225 267.94 982.598 268.323 982.598 269.088C982.598 269.853 982.225 270.236 981.478 270.236C980.732 270.236 980.358 269.853 980.358 269.088C980.358 268.323 980.732 267.94 981.478 267.94ZM985.06 265V263.264H985.844C987.972 263.264 989.036 262.163 989.036 259.96V247.92L990.912 246.94V259.988C990.912 261.575 990.445 262.825 989.512 263.74C988.635 264.58 987.477 265 986.04 265H985.06ZM1000.69 265C999.099 265 997.876 264.487 997.018 263.46C996.308 262.583 995.954 261.472 995.954 260.128V247.92L997.83 246.94V260.072C997.83 262.2 998.856 263.264 1000.91 263.264H1001.89V265H1000.69ZM1005.39 257.496C1005.39 255.909 1005.87 254.677 1006.82 253.8C1007.64 253.053 1008.72 252.68 1010.07 252.68C1011.8 252.68 1013.14 253.315 1014.07 254.584C1014.87 255.667 1015.27 257.085 1015.27 258.84C1015.27 260.837 1014.76 262.396 1013.73 263.516C1012.84 264.505 1011.67 265 1010.23 265C1008.48 265 1007.17 264.44 1006.31 263.32C1005.47 264.44 1004.21 265 1002.53 265H1001.33V263.264H1002.31C1004.36 263.264 1005.39 262.2 1005.39 260.072V257.496ZM1007.27 260.184C1007.27 262.237 1008.27 263.264 1010.29 263.264C1011.26 263.264 1012.03 262.872 1012.59 262.088C1013.15 261.304 1013.43 260.212 1013.43 258.812C1013.43 257.431 1013.13 256.348 1012.53 255.564C1011.95 254.78 1011.13 254.388 1010.07 254.388C1008.2 254.388 1007.27 255.48 1007.27 257.664V260.184Z" fill="#280659"/>
<path d="M860.494 711.998C860.345 713.603 859.505 714.901 857.974 715.89C856.499 716.842 854.605 717.318 852.29 717.318C849.415 717.318 847.25 716.478 845.794 714.798C844.711 713.547 844.17 712.007 844.17 710.178C844.17 708.573 844.581 707.191 845.402 706.034L847.222 705.67C846.326 707.033 845.878 708.489 845.878 710.038C845.878 711.755 846.466 713.127 847.642 714.154C848.762 715.143 850.311 715.638 852.29 715.638C854.325 715.638 855.921 715.209 857.078 714.35C857.937 713.715 858.441 712.931 858.59 711.998H855.734L856.63 710.262H860.578V711.998H860.494ZM850.526 721.938C849.761 721.938 849.378 721.555 849.378 720.79C849.378 720.025 849.761 719.642 850.526 719.642C851.254 719.642 851.618 720.025 851.618 720.79C851.618 721.555 851.254 721.938 850.526 721.938ZM853.718 721.938C852.971 721.938 852.598 721.555 852.598 720.79C852.598 720.025 852.971 719.642 853.718 719.642C854.465 719.642 854.838 720.025 854.838 720.79C854.838 721.555 854.465 721.938 853.718 721.938ZM862.477 696.402C861.73 696.402 861.357 696.019 861.357 695.254C861.357 694.489 861.73 694.106 862.477 694.106C863.223 694.106 863.597 694.489 863.597 695.254C863.597 696.019 863.223 696.402 862.477 696.402ZM865.669 696.402C864.922 696.402 864.549 696.019 864.549 695.254C864.549 694.489 864.922 694.106 865.669 694.106C866.415 694.106 866.789 694.489 866.789 695.254C866.789 696.019 866.415 696.402 865.669 696.402ZM868.665 710.262H869.645V711.998H868.441C866.761 711.998 865.501 711.429 864.661 710.29C863.783 711.429 862.514 711.998 860.853 711.998H859.649V710.262H860.629C862.682 710.262 863.709 709.198 863.709 707.07V700.994L865.585 700.014V707.07C865.585 709.198 866.611 710.262 868.665 710.262ZM869.082 711.998V710.262H869.866C871.994 710.262 873.058 709.161 873.058 706.958V694.918L874.934 693.938V706.986C874.934 708.573 874.468 709.823 873.534 710.738C872.657 711.578 871.5 711.998 870.062 711.998H869.082ZM879.976 711.998V694.918L881.852 693.938V711.998H879.976ZM901.041 698.978C900.294 698.978 899.921 698.586 899.921 697.802C899.921 697.055 900.294 696.682 901.041 696.682C901.787 696.682 902.161 697.055 902.161 697.802C902.161 698.586 901.787 698.978 901.041 698.978ZM904.261 698.978C903.495 698.978 903.113 698.586 903.113 697.802C903.113 697.055 903.495 696.682 904.261 696.682C904.989 696.682 905.353 697.055 905.353 697.802C905.353 698.586 904.989 698.978 904.261 698.978ZM898.157 711.998C896.775 711.998 895.674 711.569 894.853 710.71C894.031 709.833 893.621 708.657 893.621 707.182V703.514L895.497 702.534V706.958C895.497 709.161 896.523 710.262 898.577 710.262H907.957C910.01 710.262 911.037 709.161 911.037 706.958V700.994L912.913 700.014V707.182C912.913 708.769 912.427 710.001 911.457 710.878C910.617 711.625 909.515 711.998 908.153 711.998H898.157ZM922.689 711.998C921.102 711.998 919.879 711.485 919.021 710.458C918.311 709.581 917.957 708.47 917.957 707.126V694.918L919.833 693.938V707.07C919.833 709.198 920.859 710.262 922.913 710.262H923.893V711.998H922.689ZM940.944 710.262H941.896V711.998H940.692C938.994 711.998 937.724 711.41 936.884 710.234C935.951 711.783 934.532 712.558 932.628 712.558C930.706 712.558 929.287 711.793 928.372 710.262C927.514 711.419 926.235 711.998 924.536 711.998H923.332V710.262H924.312C926.366 710.262 927.392 709.198 927.392 707.07V706.118C927.392 703.971 927.915 702.329 928.96 701.19C929.875 700.182 931.098 699.678 932.628 699.678C934.383 699.678 935.718 700.331 936.632 701.638C937.435 702.758 937.836 704.251 937.836 706.118V707.07C937.836 709.198 938.872 710.262 940.944 710.262ZM932.628 710.822C933.655 710.822 934.467 710.402 935.064 709.562C935.662 708.703 935.96 707.546 935.96 706.09C935.96 702.954 934.85 701.386 932.628 701.386C930.388 701.386 929.268 702.954 929.268 706.09C929.268 709.245 930.388 710.822 932.628 710.822ZM967.084 710.262V711.998H965.88C964.312 711.998 963.099 711.494 962.24 710.486C961.568 711.494 960.486 711.998 958.992 711.998H941.324V710.262H946.056V694.918L947.792 693.938V705.698C949.976 701.685 952.87 699.678 956.472 699.678C958.563 699.678 960.224 700.397 961.456 701.834C962.502 703.066 963.024 704.587 963.024 706.398V707.126C963.024 709.217 964.06 710.262 966.132 710.262H967.084ZM961.148 706.398C961.148 704.83 960.654 703.57 959.664 702.618C958.824 701.797 957.77 701.386 956.5 701.386C954.316 701.386 952.375 702.441 950.676 704.55C949.388 706.137 948.436 708.041 947.82 710.262H958.796C959.692 710.262 960.308 710.057 960.644 709.646C960.98 709.217 961.148 708.442 961.148 707.322V706.398ZM956.304 696.318C955.539 696.318 955.156 695.926 955.156 695.142C955.156 694.395 955.539 694.022 956.304 694.022C957.032 694.022 957.396 694.395 957.396 695.142C957.396 695.926 957.032 696.318 956.304 696.318ZM971.211 696.318C970.446 696.318 970.063 695.926 970.063 695.142C970.063 694.395 970.446 694.022 971.211 694.022C971.939 694.022 972.303 694.395 972.303 695.142C972.303 695.926 971.939 696.318 971.211 696.318ZM975.551 710.262H976.531V711.998H975.327C973.647 711.998 972.387 711.429 971.547 710.29C970.67 711.429 969.401 711.998 967.739 711.998H966.535V710.262H967.515C969.569 710.262 970.595 709.198 970.595 707.07V700.994L972.471 700.014V707.07C972.471 709.198 973.498 710.262 975.551 710.262ZM993.581 710.262H994.533V711.998H993.329C991.63 711.998 990.361 711.41 989.521 710.234C988.588 711.783 987.169 712.558 985.265 712.558C983.342 712.558 981.924 711.793 981.009 710.262C980.15 711.419 978.872 711.998 977.173 711.998H975.969V710.262H976.949C979.002 710.262 980.029 709.198 980.029 707.07V706.118C980.029 703.971 980.552 702.329 981.597 701.19C982.512 700.182 983.734 699.678 985.265 699.678C987.02 699.678 988.354 700.331 989.269 701.638C990.072 702.758 990.473 704.251 990.473 706.118V707.07C990.473 709.198 991.509 710.262 993.581 710.262ZM985.265 710.822C986.292 710.822 987.104 710.402 987.701 709.562C988.298 708.703 988.597 707.546 988.597 706.09C988.597 702.954 987.486 701.386 985.265 701.386C983.025 701.386 981.905 702.954 981.905 706.09C981.905 709.245 983.025 710.822 985.265 710.822ZM993.961 711.998V710.262H994.745C996.873 710.262 997.937 709.161 997.937 706.958V694.918L999.813 693.938V706.986C999.813 708.573 999.347 709.823 998.413 710.738C997.536 711.578 996.379 711.998 994.941 711.998H993.961ZM1004.85 711.998V694.918L1006.73 693.938V711.998H1004.85ZM885.72 753.998L886.616 752.262H891.88C892.739 752.262 893.336 752.047 893.672 751.618C894.027 751.189 894.204 750.442 894.204 749.378C894.204 746.634 893 744.59 890.592 743.246L891.516 741.706C894.484 743.423 895.996 745.841 896.052 748.958C896.071 751.161 897.144 752.262 899.272 752.262H900.14V753.998H899.076C897.452 753.998 896.211 753.457 895.352 752.374C894.718 753.457 893.663 753.998 892.188 753.998H885.72ZM919.563 753.998H912.647C911.639 753.998 910.612 753.783 909.567 753.354C908.503 753.783 907.467 753.998 906.459 753.998H899.571V752.262H906.347C906.72 752.262 907.103 752.234 907.495 752.178C906.02 751.114 904.415 749.359 902.679 746.914V745.766C904.62 743.041 906.907 741.678 909.539 741.678C912.152 741.678 914.448 743.059 916.427 745.822V746.914C914.691 749.359 913.095 751.114 911.639 752.178C912.012 752.234 912.385 752.262 912.759 752.262H919.535L919.563 753.998ZM904.303 746.354C906.263 748.967 908.008 750.666 909.539 751.45C911.051 750.666 912.805 748.958 914.803 746.326C913.309 744.366 911.555 743.386 909.539 743.386H909.455C907.551 743.386 905.833 744.375 904.303 746.354ZM921.84 738.402C921.093 738.402 920.72 738.019 920.72 737.254C920.72 736.489 921.093 736.106 921.84 736.106C922.587 736.106 922.96 736.489 922.96 737.254C922.96 738.019 922.587 738.402 921.84 738.402ZM925.032 738.402C924.285 738.402 923.912 738.019 923.912 737.254C923.912 736.489 924.285 736.106 925.032 736.106C925.779 736.106 926.152 736.489 926.152 737.254C926.152 738.019 925.779 738.402 925.032 738.402ZM928.028 752.262H929.008V753.998H927.804C926.124 753.998 924.864 753.429 924.024 752.29C923.147 753.429 921.877 753.998 920.216 753.998H919.012V752.262H919.992C922.045 752.262 923.072 751.198 923.072 749.07V742.994L924.948 742.014V749.07C924.948 751.198 925.975 752.262 928.028 752.262ZM928.446 753.998V752.262H930.154C932.226 752.262 933.262 751.198 933.262 749.07V745.038L935.138 744.058V749.07C935.138 751.198 936.164 752.262 938.218 752.262H939.254C941.307 752.262 942.334 751.198 942.334 749.07V744.03L944.21 743.022V749.07C944.21 751.198 945.246 752.262 947.318 752.262H948.326C950.398 752.262 951.434 751.198 951.434 749.07V742.994L953.31 742.014V748.958C953.31 751.161 954.374 752.262 956.502 752.262H958.126V753.998H956.306C954.532 753.998 953.235 753.373 952.414 752.122C951.592 753.373 950.323 753.998 948.606 753.998H947.066C945.33 753.998 944.07 753.382 943.286 752.15C942.483 753.382 941.232 753.998 939.534 753.998H937.994C936.258 753.998 934.988 753.382 934.186 752.15C933.402 753.382 932.142 753.998 930.406 753.998H928.446ZM959.247 738.318C958.481 738.318 958.099 737.926 958.099 737.142C958.099 736.395 958.481 736.022 959.247 736.022C959.975 736.022 960.339 736.395 960.339 737.142C960.339 737.926 959.975 738.318 959.247 738.318ZM962.439 738.318C961.673 738.318 961.291 737.926 961.291 737.142C961.291 736.395 961.673 736.022 962.439 736.022C963.167 736.022 963.531 736.395 963.531 737.142C963.531 737.926 963.167 738.318 962.439 738.318ZM957.567 753.998V752.262H958.547C960.6 752.262 961.627 751.198 961.627 749.07V742.994L963.503 742.014V749.126C963.503 750.694 963.045 751.917 962.131 752.794C961.291 753.597 960.171 753.998 958.771 753.998H957.567ZM860.867 794.962C860.083 795.41 859.075 795.634 857.843 795.634C856.219 795.634 854.949 795.009 854.035 793.758C853.251 792.694 852.859 791.35 852.859 789.726C852.859 787.766 853.381 786.235 854.427 785.134C855.341 784.163 856.555 783.678 858.067 783.678C859.616 783.678 860.811 784.163 861.651 785.134C862.379 785.974 862.743 787.094 862.743 788.494V794.654C862.743 796.39 862.379 797.818 861.651 798.938C860.923 800.077 859.887 800.805 858.543 801.122C858.095 801.253 857.609 801.318 857.087 801.318C856.004 801.318 854.949 801.057 853.923 800.534V798.882C854.893 799.405 855.855 799.666 856.807 799.666C857.572 799.666 858.244 799.498 858.823 799.162C860.129 798.509 860.811 797.109 860.867 794.962ZM860.867 788.662C860.867 786.478 859.933 785.386 858.067 785.386C857.021 785.386 856.191 785.769 855.575 786.534C854.977 787.299 854.679 788.354 854.679 789.698C854.679 791.005 854.968 792.05 855.547 792.834C856.125 793.599 856.909 793.982 857.899 793.982C859.373 793.982 860.363 793.571 860.867 792.75V788.662ZM865.967 777.546L866.499 776.566H867.199C867.013 776.249 866.919 775.913 866.919 775.558C866.919 775.035 867.115 774.578 867.507 774.186C867.918 773.794 868.385 773.598 868.907 773.598C869.318 773.598 869.719 773.729 870.111 773.99V775.026C869.757 774.765 869.402 774.634 869.047 774.634C868.749 774.634 868.487 774.727 868.263 774.914C868.058 775.101 867.955 775.325 867.955 775.586C867.955 775.922 868.095 776.249 868.375 776.566H870.811L870.279 777.546H865.967ZM867.507 795.998V780.038L869.383 779.058V795.998H867.507ZM888.572 782.978C887.825 782.978 887.452 782.586 887.452 781.802C887.452 781.055 887.825 780.682 888.572 780.682C889.319 780.682 889.692 781.055 889.692 781.802C889.692 782.586 889.319 782.978 888.572 782.978ZM891.792 782.978C891.027 782.978 890.644 782.586 890.644 781.802C890.644 781.055 891.027 780.682 891.792 780.682C892.52 780.682 892.884 781.055 892.884 781.802C892.884 782.586 892.52 782.978 891.792 782.978ZM885.688 795.998C884.307 795.998 883.205 795.569 882.384 794.71C881.563 793.833 881.152 792.657 881.152 791.182V787.514L883.028 786.534V790.958C883.028 793.161 884.055 794.262 886.108 794.262H895.488C897.541 794.262 898.568 793.161 898.568 790.958V784.994L900.444 784.014V791.182C900.444 792.769 899.959 794.001 898.988 794.878C898.148 795.625 897.047 795.998 895.684 795.998H885.688ZM910.22 795.998C908.633 795.998 907.41 795.485 906.552 794.458C905.842 793.581 905.488 792.47 905.488 791.126V778.918L907.364 777.938V791.07C907.364 793.198 908.39 794.262 910.444 794.262H911.424V795.998H910.22ZM930.856 795.998H923.94C922.932 795.998 921.905 795.783 920.86 795.354C919.796 795.783 918.76 795.998 917.752 795.998H910.864V794.262H917.64C918.013 794.262 918.396 794.234 918.788 794.178C917.313 793.114 915.708 791.359 913.972 788.914V787.766C915.913 785.041 918.2 783.678 920.832 783.678C923.445 783.678 925.741 785.059 927.72 787.822V788.914C925.984 791.359 924.388 793.114 922.932 794.178C923.305 794.234 923.678 794.262 924.052 794.262H930.828L930.856 795.998ZM915.596 788.354C917.556 790.967 919.301 792.666 920.832 793.45C922.344 792.666 924.098 790.958 926.096 788.326C924.602 786.366 922.848 785.386 920.832 785.386H920.748C918.844 785.386 917.126 786.375 915.596 788.354ZM930.305 795.998V794.262H933.441C937.51 794.262 940.684 792.881 942.961 790.118C941.3 786.945 939.293 785.358 936.941 785.358C935.336 785.358 933.768 786.17 932.237 787.794V785.946C933.768 784.434 935.364 783.678 937.025 783.678H937.081C940.012 783.678 942.55 785.657 944.697 789.614V790.762C941.972 794.253 938.21 795.998 933.413 795.998H930.305ZM937.697 801.234C936.932 801.234 936.549 800.842 936.549 800.058C936.549 799.311 936.932 798.938 937.697 798.938C938.425 798.938 938.789 799.311 938.789 800.058C938.789 800.842 938.425 801.234 937.697 801.234ZM948.609 795.998V778.918L950.485 777.938V795.998H948.609ZM964.135 794.262H965.115V795.998H963.911C962.754 795.998 961.792 795.718 961.027 795.158C960.878 798.257 959.627 800.217 957.275 801.038C956.678 801.243 956.043 801.346 955.371 801.346C954.288 801.346 953.243 801.085 952.235 800.562V798.91C953.187 799.433 954.158 799.694 955.147 799.694C955.931 799.694 956.622 799.517 957.219 799.162C958.526 798.378 959.179 796.913 959.179 794.766V784.994L961.027 784.014V784.042L961.055 784.014V791.07C961.055 793.198 962.082 794.262 964.135 794.262ZM982.179 794.262H983.131V795.998H981.927C980.228 795.998 978.959 795.41 978.119 794.234C977.185 795.783 975.767 796.558 973.863 796.558C971.94 796.558 970.521 795.793 969.607 794.262C968.748 795.419 967.469 795.998 965.771 795.998H964.567V794.262H965.547C967.6 794.262 968.627 793.198 968.627 791.07V790.118C968.627 787.971 969.149 786.329 970.195 785.19C971.109 784.182 972.332 783.678 973.863 783.678C975.617 783.678 976.952 784.331 977.867 785.638C978.669 786.758 979.071 788.251 979.071 790.118V791.07C979.071 793.198 980.107 794.262 982.179 794.262ZM973.863 794.822C974.889 794.822 975.701 794.402 976.299 793.562C976.896 792.703 977.195 791.546 977.195 790.09C977.195 786.954 976.084 785.386 973.863 785.386C971.623 785.386 970.503 786.954 970.503 790.09C970.503 793.245 971.623 794.822 973.863 794.822ZM991.491 794.262H992.471V795.998H991.267C989.55 795.998 988.271 795.41 987.431 794.234C986.554 795.41 985.256 795.998 983.539 795.998H982.559V794.262H983.343C985.471 794.262 986.535 793.161 986.535 790.958V778.918L988.411 777.938V791.07C988.411 793.198 989.438 794.262 991.491 794.262ZM991.91 795.998V794.262H992.694C994.822 794.262 995.886 793.161 995.886 790.958V778.918L997.762 777.938V790.986C997.762 792.573 997.296 793.823 996.362 794.738C995.485 795.578 994.328 795.998 992.89 795.998H991.91ZM848.43 836.262H849.41V837.998H848.206C847.048 837.998 846.087 837.718 845.322 837.158C845.172 840.257 843.922 842.217 841.57 843.038C840.972 843.243 840.338 843.346 839.666 843.346C838.583 843.346 837.538 843.085 836.53 842.562V840.91C837.482 841.433 838.452 841.694 839.442 841.694C840.226 841.694 840.916 841.517 841.514 841.162C842.82 840.378 843.474 838.913 843.474 836.766V826.994L845.322 826.014V826.042L845.35 826.014V833.07C845.35 835.198 846.376 836.262 848.43 836.262ZM848.862 837.998V836.262H849.842C851.895 836.262 852.922 835.198 852.922 833.07V826.994L854.798 826.014V833.126C854.798 834.694 854.34 835.917 853.426 836.794C852.586 837.597 851.466 837.998 850.066 837.998H848.862ZM849.786 843.234C849.02 843.234 848.638 842.842 848.638 842.058C848.638 841.311 849.02 840.938 849.786 840.938C850.514 840.938 850.878 841.311 850.878 842.058C850.878 842.842 850.514 843.234 849.786 843.234ZM852.978 843.234C852.212 843.234 851.83 842.842 851.83 842.058C851.83 841.311 852.212 840.938 852.978 840.938C853.706 840.938 854.07 841.311 854.07 842.058C854.07 842.842 853.706 843.234 852.978 843.234ZM865.337 836.654C865.337 840.051 864.087 842.179 861.585 843.038C860.988 843.243 860.353 843.346 859.681 843.346C858.599 843.346 857.553 843.085 856.545 842.562V840.91C857.497 841.433 858.468 841.694 859.457 841.694C860.241 841.694 860.932 841.517 861.529 841.162C862.836 840.378 863.489 838.913 863.489 836.766V826.994L865.337 826.014V836.654ZM875.097 837.998C873.51 837.998 872.287 837.485 871.429 836.458C870.719 835.581 870.365 834.47 870.365 833.126V820.918L872.241 819.938V833.07C872.241 835.198 873.267 836.262 875.321 836.262H876.301V837.998H875.097ZM882.237 822.402C881.471 822.402 881.089 822.01 881.089 821.226C881.089 820.479 881.471 820.106 882.237 820.106C882.965 820.106 883.329 820.479 883.329 821.226C883.329 822.01 882.965 822.402 882.237 822.402ZM885.429 822.402C884.663 822.402 884.281 822.01 884.281 821.226C884.281 820.479 884.663 820.106 885.429 820.106C886.157 820.106 886.521 820.479 886.521 821.226C886.521 822.01 886.157 822.402 885.429 822.402ZM886.745 836.262H891.869V837.998H885.541C884.906 837.998 884.327 837.933 883.805 837.802C883.282 837.933 882.703 837.998 882.069 837.998H875.741V836.262H880.893C879.418 834.899 878.681 833.285 878.681 831.418C878.681 829.607 879.185 828.17 880.193 827.106C881.107 826.154 882.311 825.678 883.805 825.678C885.503 825.678 886.819 826.294 887.753 827.526C888.537 828.553 888.929 829.85 888.929 831.418C888.929 833.303 888.201 834.918 886.745 836.262ZM883.917 836.01C884.869 835.674 885.643 835.077 886.241 834.218C886.857 833.341 887.165 832.398 887.165 831.39C887.165 830.158 886.857 829.187 886.241 828.478C885.643 827.75 884.831 827.386 883.805 827.386C882.778 827.386 881.966 827.75 881.369 828.478C880.771 829.187 880.473 830.149 880.473 831.362C880.473 832.389 880.771 833.341 881.369 834.218C881.966 835.077 882.741 835.674 883.693 836.01L883.805 836.038L883.861 836.01H883.917ZM894.127 822.402C893.38 822.402 893.007 822.019 893.007 821.254C893.007 820.489 893.38 820.106 894.127 820.106C894.874 820.106 895.247 820.489 895.247 821.254C895.247 822.019 894.874 822.402 894.127 822.402ZM897.319 822.402C896.572 822.402 896.199 822.019 896.199 821.254C896.199 820.489 896.572 820.106 897.319 820.106C898.066 820.106 898.439 820.489 898.439 821.254C898.439 822.019 898.066 822.402 897.319 822.402ZM900.315 836.262H901.295V837.998H900.091C898.411 837.998 897.151 837.429 896.311 836.29C895.434 837.429 894.164 837.998 892.503 837.998H891.299V836.262H892.279C894.332 836.262 895.359 835.198 895.359 833.07V826.994L897.235 826.014V833.07C897.235 835.198 898.262 836.262 900.315 836.262ZM900.733 837.998V836.262H901.517C903.645 836.262 904.709 835.161 904.709 832.958V820.918L906.585 819.938V832.986C906.585 834.573 906.118 835.823 905.185 836.738C904.307 837.578 903.15 837.998 901.713 837.998H900.733ZM911.626 837.998V820.918L913.502 819.938V837.998H911.626ZM932.691 824.978C931.944 824.978 931.571 824.586 931.571 823.802C931.571 823.055 931.944 822.682 932.691 822.682C933.438 822.682 933.811 823.055 933.811 823.802C933.811 824.586 933.438 824.978 932.691 824.978ZM935.911 824.978C935.146 824.978 934.763 824.586 934.763 823.802C934.763 823.055 935.146 822.682 935.911 822.682C936.639 822.682 937.003 823.055 937.003 823.802C937.003 824.586 936.639 824.978 935.911 824.978ZM929.807 837.998C928.426 837.998 927.324 837.569 926.503 836.71C925.682 835.833 925.271 834.657 925.271 833.182V829.514L927.147 828.534V832.958C927.147 835.161 928.174 836.262 930.227 836.262H939.607C941.66 836.262 942.687 835.161 942.687 832.958V826.994L944.563 826.014V833.182C944.563 834.769 944.078 836.001 943.107 836.878C942.267 837.625 941.166 837.998 939.803 837.998H929.807ZM949.607 837.998V820.918L951.483 819.938V837.998H949.607ZM965.133 836.262H966.113V837.998H964.909C963.752 837.998 962.79 837.718 962.025 837.158C961.876 840.257 960.625 842.217 958.273 843.038C957.676 843.243 957.041 843.346 956.369 843.346C955.286 843.346 954.241 843.085 953.233 842.562V840.91C954.185 841.433 955.156 841.694 956.145 841.694C956.929 841.694 957.62 841.517 958.217 841.162C959.524 840.378 960.177 838.913 960.177 836.766V826.994L962.025 826.014V826.042L962.053 826.014V833.07C962.053 835.198 963.08 836.262 965.133 836.262ZM974.581 836.262H975.561V837.998H974.357C972.677 837.998 971.417 837.429 970.577 836.29C969.699 837.429 968.43 837.998 966.769 837.998H965.565V836.262H966.545C968.598 836.262 969.625 835.198 969.625 833.07V826.994L971.501 826.014V833.07C971.501 835.198 972.527 836.262 974.581 836.262ZM968.225 840.938C968.971 840.938 969.345 841.321 969.345 842.086C969.345 842.851 968.971 843.234 968.225 843.234C967.478 843.234 967.105 842.851 967.105 842.086C967.105 841.321 967.478 840.938 968.225 840.938ZM971.417 840.938C972.163 840.938 972.537 841.321 972.537 842.086C972.537 842.851 972.163 843.234 971.417 843.234C970.67 843.234 970.297 842.851 970.297 842.086C970.297 841.321 970.67 840.938 971.417 840.938ZM984.014 836.262H984.994V837.998H983.79C982.11 837.998 980.85 837.429 980.01 836.29C979.133 837.429 977.864 837.998 976.202 837.998H974.998V836.262H975.978C978.032 836.262 979.058 835.198 979.058 833.07V826.994L980.934 826.014V833.07C980.934 835.198 981.961 836.262 984.014 836.262ZM977.658 840.938C978.405 840.938 978.778 841.321 978.778 842.086C978.778 842.851 978.405 843.234 977.658 843.234C976.912 843.234 976.538 842.851 976.538 842.086C976.538 841.321 976.912 840.938 977.658 840.938ZM980.85 840.938C981.597 840.938 981.97 841.321 981.97 842.086C981.97 842.851 981.597 843.234 980.85 843.234C980.104 843.234 979.73 842.851 979.73 842.086C979.73 841.321 980.104 840.938 980.85 840.938ZM994.4 822.318C993.635 822.318 993.252 821.926 993.252 821.142C993.252 820.395 993.635 820.022 994.4 820.022C995.128 820.022 995.492 820.395 995.492 821.142C995.492 821.926 995.128 822.318 994.4 822.318ZM1004.42 837.998H997.508C996.5 837.998 995.473 837.783 994.428 837.354C993.364 837.783 992.328 837.998 991.32 837.998H984.432V836.262H991.208C991.581 836.262 991.964 836.234 992.356 836.178C990.881 835.114 989.276 833.359 987.54 830.914V829.766C989.481 827.041 991.768 825.678 994.4 825.678C997.013 825.678 999.309 827.059 1001.29 829.822V830.914C999.552 833.359 997.956 835.114 996.5 836.178C996.873 836.234 997.247 836.262 997.62 836.262H1004.4L1004.42 837.998ZM989.164 830.354C991.124 832.967 992.869 834.666 994.4 835.45C995.912 834.666 997.667 832.958 999.664 830.326C998.171 828.366 996.416 827.386 994.4 827.386H994.316C992.412 827.386 990.695 828.375 989.164 830.354ZM1005.55 822.318C1004.79 822.318 1004.41 821.926 1004.41 821.142C1004.41 820.395 1004.79 820.022 1005.55 820.022C1006.28 820.022 1006.65 820.395 1006.65 821.142C1006.65 821.926 1006.28 822.318 1005.55 822.318ZM1008.75 822.318C1007.98 822.318 1007.6 821.926 1007.6 821.142C1007.6 820.395 1007.98 820.022 1008.75 820.022C1009.47 820.022 1009.84 820.395 1009.84 821.142C1009.84 821.926 1009.47 822.318 1008.75 822.318ZM1003.87 837.998V836.262H1004.85C1006.91 836.262 1007.93 835.198 1007.93 833.07V826.994L1009.81 826.014V833.126C1009.81 834.694 1009.35 835.917 1008.44 836.794C1007.6 837.597 1006.48 837.998 1005.08 837.998H1003.87Z" fill="#280659"/>
<path d="M214.524 103.98C213.777 103.98 213.404 103.588 213.404 102.804C213.404 102.057 213.777 101.684 214.524 101.684C215.271 101.684 215.644 102.057 215.644 102.804C215.644 103.588 215.271 103.98 214.524 103.98ZM217.744 103.98C216.979 103.98 216.596 103.588 216.596 102.804C216.596 102.057 216.979 101.684 217.744 101.684C218.472 101.684 218.836 102.057 218.836 102.804C218.836 103.588 218.472 103.98 217.744 103.98ZM211.64 117C210.259 117 209.157 116.571 208.336 115.712C207.515 114.835 207.104 113.659 207.104 112.184V108.516L208.98 107.536V111.96C208.98 114.163 210.007 115.264 212.06 115.264H221.44C223.493 115.264 224.52 114.163 224.52 111.96V105.996L226.396 105.016V112.184C226.396 113.771 225.911 115.003 224.94 115.88C224.1 116.627 222.999 117 221.636 117H211.64ZM236.172 117C234.585 117 233.363 116.487 232.504 115.46C231.795 114.583 231.44 113.472 231.44 112.128V99.92L233.316 98.94V112.072C233.316 114.2 234.343 115.264 236.396 115.264H237.376V117H236.172ZM241.24 105.436C241.426 105.417 241.622 105.408 241.828 105.408C243.508 105.408 244.945 105.819 246.14 106.64C247.782 107.816 248.604 109.496 248.604 111.68V112.212C248.604 113.78 248.118 115.003 247.148 115.88C246.308 116.627 245.216 117 243.872 117H236.816V115.264H243.676C245.71 115.264 246.728 114.172 246.728 111.988V111.708C246.728 110.196 246.186 109.067 245.104 108.32C244.208 107.648 243.069 107.312 241.688 107.312C240.68 107.312 239.681 107.489 238.692 107.844V105.996L245.048 98.94H246.98L241.24 105.436ZM259.571 115.264H260.551V117H259.347C258.19 117 257.229 116.72 256.463 116.16C256.314 119.259 255.063 121.219 252.711 122.04C252.114 122.245 251.479 122.348 250.807 122.348C249.725 122.348 248.679 122.087 247.671 121.564V119.912C248.623 120.435 249.594 120.696 250.583 120.696C251.367 120.696 252.058 120.519 252.655 120.164C253.962 119.38 254.615 117.915 254.615 115.768V105.996L256.463 105.016V105.044L256.491 105.016V112.072C256.491 114.2 257.518 115.264 259.571 115.264ZM274.815 99.332C274.143 99.332 273.807 98.9773 273.807 98.268C273.807 97.596 274.143 97.26 274.815 97.26C275.487 97.26 275.823 97.596 275.823 98.268C275.823 98.9773 275.487 99.332 274.815 99.332ZM273.247 102.244C272.482 102.244 272.099 101.861 272.099 101.096C272.099 100.331 272.482 99.948 273.247 99.948C273.975 99.948 274.339 100.331 274.339 101.096C274.339 101.861 273.975 102.244 273.247 102.244ZM276.439 102.244C275.693 102.244 275.319 101.861 275.319 101.096C275.319 100.331 275.693 99.948 276.439 99.948C277.186 99.948 277.559 100.331 277.559 101.096C277.559 101.861 277.186 102.244 276.439 102.244ZM260.003 117V115.264H261.711C263.783 115.264 264.819 114.2 264.819 112.072V108.04L266.695 107.06V112.072C266.695 114.2 267.722 115.264 269.775 115.264H270.811C272.865 115.264 273.891 114.2 273.891 112.072V107.032L275.767 106.024V112.072C275.767 114.2 276.803 115.264 278.875 115.264H279.883C281.955 115.264 282.991 114.2 282.991 112.072V105.996L284.867 105.016V111.96C284.867 114.163 285.931 115.264 288.059 115.264H289.683V117H287.863C286.09 117 284.793 116.375 283.971 115.124C283.15 116.375 281.881 117 280.163 117H278.623C276.887 117 275.627 116.384 274.843 115.152C274.041 116.384 272.79 117 271.091 117H269.551C267.815 117 266.546 116.384 265.743 115.152C264.959 116.384 263.699 117 261.963 117H260.003ZM289.124 117V115.264H289.908C292.036 115.264 293.1 114.163 293.1 111.96V99.92L294.976 98.94V111.988C294.976 113.575 294.51 114.825 293.576 115.74C292.699 116.58 291.542 117 290.104 117H289.124ZM300.018 117V99.92L301.894 98.94V117H300.018ZM197.829 143.18C197.064 143.18 196.681 142.788 196.681 142.004C196.681 141.257 197.064 140.884 197.829 140.884C198.557 140.884 198.921 141.257 198.921 142.004C198.921 142.788 198.557 143.18 197.829 143.18ZM201.021 143.18C200.256 143.18 199.873 142.788 199.873 142.004C199.873 141.257 200.256 140.884 201.021 140.884C201.749 140.884 202.113 141.257 202.113 142.004C202.113 142.788 201.749 143.18 201.021 143.18ZM206.453 157.264H207.405V159H206.201C204.204 159 202.813 158.216 202.029 156.648C201.058 157.656 199.864 158.16 198.445 158.16C196.84 158.16 195.57 157.553 194.637 156.34C193.853 155.313 193.461 154.035 193.461 152.504C193.461 150.712 193.984 149.275 195.029 148.192C195.944 147.24 197.073 146.764 198.417 146.764C199.63 146.764 200.648 147.119 201.469 147.828V146.316L203.345 145.336V154.072C203.345 156.2 204.381 157.264 206.453 157.264ZM201.469 149.956C200.648 148.967 199.649 148.472 198.473 148.472C197.54 148.472 196.774 148.855 196.177 149.62C195.598 150.367 195.309 151.337 195.309 152.532C195.309 153.745 195.598 154.716 196.177 155.444C196.774 156.172 197.549 156.536 198.501 156.536C199.714 156.536 200.722 156.004 201.525 154.94C201.488 154.604 201.469 154.333 201.469 154.128V149.956ZM232.593 157.264V159H231.389C229.821 159 228.608 158.496 227.749 157.488C227.077 158.496 225.995 159 224.501 159H206.833V157.264H211.565V141.92L213.301 140.94V152.7C215.485 148.687 218.379 146.68 221.981 146.68C224.072 146.68 225.733 147.399 226.965 148.836C228.011 150.068 228.533 151.589 228.533 153.4V154.128C228.533 156.219 229.569 157.264 231.641 157.264H232.593ZM226.657 153.4C226.657 151.832 226.163 150.572 225.173 149.62C224.333 148.799 223.279 148.388 222.009 148.388C219.825 148.388 217.884 149.443 216.185 151.552C214.897 153.139 213.945 155.043 213.329 157.264H224.305C225.201 157.264 225.817 157.059 226.153 156.648C226.489 156.219 226.657 155.444 226.657 154.324V153.4ZM232.044 159V157.264H233.752C235.824 157.264 236.86 156.2 236.86 154.072V150.04L238.736 149.06V154.072C238.736 156.2 239.763 157.264 241.816 157.264H242.852C244.906 157.264 245.932 156.2 245.932 154.072V149.032L247.808 148.024V154.072C247.808 156.2 248.844 157.264 250.916 157.264H251.924C253.996 157.264 255.032 156.2 255.032 154.072V147.996L256.908 147.016V154.128C256.908 155.677 256.451 156.891 255.536 157.768C254.715 158.571 253.604 158.981 252.204 159H250.664C248.928 159 247.668 158.384 246.884 157.152C246.082 158.384 244.831 159 243.132 159H241.592C239.856 159 238.587 158.384 237.784 157.152C237 158.384 235.74 159 234.004 159H232.044ZM274.234 157.264V159H271.266C271.247 160.232 270.846 161.315 270.062 162.248C269.297 163.2 268.298 163.825 267.066 164.124C266.618 164.255 266.133 164.32 265.61 164.32C264.527 164.32 263.473 164.059 262.446 163.536V161.884C263.417 162.407 264.378 162.668 265.33 162.668C266.095 162.668 266.767 162.5 267.346 162.164C267.925 161.865 268.41 161.408 268.802 160.792C269.194 160.195 269.39 159.597 269.39 159L267.01 158.916C264.938 158.823 263.389 158.169 262.362 156.956C261.522 155.929 261.102 154.557 261.102 152.84C261.102 150.824 261.625 149.265 262.67 148.164C263.603 147.175 264.854 146.68 266.422 146.68C268.046 146.68 269.287 147.165 270.146 148.136C270.893 148.976 271.266 150.096 271.266 151.496V157.264H274.234ZM269.39 151.692C269.39 149.489 268.401 148.388 266.422 148.388C265.321 148.388 264.462 148.78 263.846 149.564C263.249 150.329 262.95 151.412 262.95 152.812C262.95 155.593 264.322 157.049 267.066 157.18C267.887 157.236 268.662 157.264 269.39 157.264V151.692ZM276.489 143.404C275.743 143.404 275.369 143.021 275.369 142.256C275.369 141.491 275.743 141.108 276.489 141.108C277.236 141.108 277.609 141.491 277.609 142.256C277.609 143.021 277.236 143.404 276.489 143.404ZM279.681 143.404C278.935 143.404 278.561 143.021 278.561 142.256C278.561 141.491 278.935 141.108 279.681 141.108C280.428 141.108 280.801 141.491 280.801 142.256C280.801 143.021 280.428 143.404 279.681 143.404ZM282.677 157.264H283.657V159H282.453C280.773 159 279.513 158.431 278.673 157.292C277.796 158.431 276.527 159 274.865 159H273.661V157.264H274.641C276.695 157.264 277.721 156.2 277.721 154.072V147.996L279.597 147.016V154.072C279.597 156.2 280.624 157.264 282.677 157.264ZM300.707 157.264H301.659V159H300.455C298.756 159 297.487 158.412 296.647 157.236C295.714 158.785 294.295 159.56 292.391 159.56C290.468 159.56 289.05 158.795 288.135 157.264C287.276 158.421 285.998 159 284.299 159H283.095V157.264H284.075C286.128 157.264 287.155 156.2 287.155 154.072V153.12C287.155 150.973 287.678 149.331 288.723 148.192C289.638 147.184 290.86 146.68 292.391 146.68C294.146 146.68 295.48 147.333 296.395 148.64C297.198 149.76 297.599 151.253 297.599 153.12V154.072C297.599 156.2 298.635 157.264 300.707 157.264ZM292.391 157.824C293.418 157.824 294.23 157.404 294.827 156.564C295.424 155.705 295.723 154.548 295.723 153.092C295.723 149.956 294.612 148.388 292.391 148.388C290.151 148.388 289.031 149.956 289.031 153.092C289.031 156.247 290.151 157.824 292.391 157.824ZM301.087 159V157.264H301.871C303.999 157.264 305.063 156.163 305.063 153.96V141.92L306.939 140.94V153.988C306.939 155.575 306.473 156.825 305.539 157.74C304.662 158.58 303.505 159 302.067 159H301.087ZM311.981 159V141.92L313.857 140.94V159H311.981ZM216.414 185.18C215.668 185.18 215.294 184.788 215.294 184.004C215.294 183.257 215.668 182.884 216.414 182.884C217.161 182.884 217.534 183.257 217.534 184.004C217.534 184.788 217.161 185.18 216.414 185.18ZM219.606 185.18C218.86 185.18 218.486 184.788 218.486 184.004C218.486 183.257 218.86 182.884 219.606 182.884C220.353 182.884 220.726 183.257 220.726 184.004C220.726 184.788 220.353 185.18 219.606 185.18ZM218.066 201C216.405 201 215.108 200.449 214.174 199.348C213.39 198.396 212.998 197.164 212.998 195.652C212.998 192.199 214.734 189.875 218.206 188.68C221.678 189.875 223.414 192.199 223.414 195.652C223.414 197.388 222.901 198.741 221.874 199.712C220.978 200.571 219.802 201 218.346 201H218.066ZM217.982 199.264H218.43C219.401 199.264 220.166 198.947 220.726 198.312C221.286 197.659 221.566 196.772 221.566 195.652C221.566 193.169 220.446 191.415 218.206 190.388C215.966 191.415 214.846 193.169 214.846 195.652C214.846 196.753 215.126 197.631 215.686 198.284C216.246 198.937 217.012 199.264 217.982 199.264ZM234.607 199.264H235.587V201H234.383C233.225 201 232.264 200.72 231.499 200.16C231.349 203.259 230.099 205.219 227.747 206.04C227.149 206.245 226.515 206.348 225.843 206.348C224.76 206.348 223.715 206.087 222.707 205.564V203.912C223.659 204.435 224.629 204.696 225.619 204.696C226.403 204.696 227.093 204.519 227.691 204.164C228.997 203.38 229.651 201.915 229.651 199.768V189.996L231.499 189.016V189.044L231.527 189.016V196.072C231.527 198.2 232.553 199.264 234.607 199.264ZM244.054 199.264H245.034V201H243.83C242.15 201 240.89 200.431 240.05 199.292C239.173 200.431 237.904 201 236.242 201H235.038V199.264H236.018C238.072 199.264 239.098 198.2 239.098 196.072V189.996L240.974 189.016V196.072C240.974 198.2 242.001 199.264 244.054 199.264ZM237.698 203.94C238.445 203.94 238.818 204.323 238.818 205.088C238.818 205.853 238.445 206.236 237.698 206.236C236.952 206.236 236.578 205.853 236.578 205.088C236.578 204.323 236.952 203.94 237.698 203.94ZM240.89 203.94C241.637 203.94 242.01 204.323 242.01 205.088C242.01 205.853 241.637 206.236 240.89 206.236C240.144 206.236 239.77 205.853 239.77 205.088C239.77 204.323 240.144 203.94 240.89 203.94ZM253.488 199.264H254.468V201H253.264C251.584 201 250.324 200.431 249.484 199.292C248.607 200.431 247.337 201 245.676 201H244.472V199.264H245.452C247.505 199.264 248.532 198.2 248.532 196.072V189.996L250.408 189.016V196.072C250.408 198.2 251.435 199.264 253.488 199.264ZM249.176 203.94C249.904 203.94 250.268 204.313 250.268 205.06C250.268 205.844 249.904 206.236 249.176 206.236C248.411 206.236 248.028 205.844 248.028 205.06C248.028 204.313 248.411 203.94 249.176 203.94ZM268.774 199.264H269.474V201H268.55C266.87 201 265.61 200.431 264.77 199.292C263.93 200.431 262.66 201 260.962 201H253.906V199.264H260.766C262.8 199.264 263.818 198.172 263.818 195.988V195.708C263.818 194.177 263.258 193.029 262.138 192.264C261.242 191.629 260.122 191.312 258.778 191.312C257.77 191.312 256.771 191.489 255.782 191.844V189.996L262.138 182.94H264.07L258.33 189.436C258.516 189.417 258.712 189.408 258.918 189.408C260.71 189.408 262.203 189.865 263.398 190.78C264.928 191.956 265.694 193.589 265.694 195.68V196.072C265.694 198.2 266.72 199.264 268.774 199.264ZM268.917 201V199.264H269.701C271.829 199.264 272.893 198.163 272.893 195.96V183.92L274.769 182.94V195.988C274.769 197.575 274.303 198.825 273.369 199.74C272.492 200.58 271.335 201 269.897 201H268.917ZM279.811 201V183.92L281.687 182.94V201H279.811ZM293.897 199.964C293.113 200.412 292.105 200.636 290.873 200.636C289.249 200.636 287.98 200.011 287.065 198.76C286.281 197.696 285.889 196.352 285.889 194.728C285.889 192.768 286.412 191.237 287.457 190.136C288.372 189.165 289.585 188.68 291.097 188.68C292.646 188.68 293.841 189.165 294.681 190.136C295.409 190.976 295.773 192.096 295.773 193.496V199.656C295.773 201.392 295.409 202.82 294.681 203.94C293.953 205.079 292.917 205.807 291.573 206.124C291.125 206.255 290.64 206.32 290.117 206.32C289.034 206.32 287.98 206.059 286.953 205.536V203.884C287.924 204.407 288.885 204.668 289.837 204.668C290.602 204.668 291.274 204.5 291.853 204.164C293.16 203.511 293.841 202.111 293.897 199.964ZM293.897 193.664C293.897 191.48 292.964 190.388 291.097 190.388C290.052 190.388 289.221 190.771 288.605 191.536C288.008 192.301 287.709 193.356 287.709 194.7C287.709 196.007 287.998 197.052 288.577 197.836C289.156 198.601 289.94 198.984 290.929 198.984C292.404 198.984 293.393 198.573 293.897 197.752V193.664Z" fill="#280659"/>
<path d="M148.817 768.262H149.797V769.998H148.593C147.435 769.998 146.474 769.718 145.709 769.158C145.559 772.257 144.309 774.217 141.957 775.038C141.359 775.243 140.725 775.346 140.053 775.346C138.97 775.346 137.925 775.085 136.917 774.562V772.91C137.869 773.433 138.839 773.694 139.829 773.694C140.613 773.694 141.303 773.517 141.901 773.162C143.207 772.378 143.861 770.913 143.861 768.766V758.994L145.709 758.014V758.042L145.737 758.014V765.07C145.737 767.198 146.763 768.262 148.817 768.262ZM149.248 769.998V768.262H150.228C152.282 768.262 153.308 767.198 153.308 765.07V758.994L155.184 758.014V765.126C155.184 766.694 154.727 767.917 153.812 768.794C152.972 769.597 151.852 769.998 150.452 769.998H149.248ZM150.172 775.234C149.407 775.234 149.024 774.842 149.024 774.058C149.024 773.311 149.407 772.938 150.172 772.938C150.9 772.938 151.264 773.311 151.264 774.058C151.264 774.842 150.9 775.234 150.172 775.234ZM153.364 775.234C152.599 775.234 152.216 774.842 152.216 774.058C152.216 773.311 152.599 772.938 153.364 772.938C154.092 772.938 154.456 773.311 154.456 774.058C154.456 774.842 154.092 775.234 153.364 775.234ZM157.984 769.998L158.88 768.262H164.144C165.003 768.262 165.6 768.047 165.936 767.618C166.291 767.189 166.468 766.442 166.468 765.378C166.468 762.634 165.264 760.59 162.856 759.246L163.78 757.706C166.748 759.423 168.26 761.841 168.316 764.958C168.335 767.161 169.408 768.262 171.536 768.262H172.404V769.998H171.34C169.716 769.998 168.475 769.457 167.616 768.374C166.981 769.457 165.927 769.998 164.452 769.998H157.984ZM173.514 754.318C172.749 754.318 172.366 753.926 172.366 753.142C172.366 752.395 172.749 752.022 173.514 752.022C174.242 752.022 174.606 752.395 174.606 753.142C174.606 753.926 174.242 754.318 173.514 754.318ZM176.706 754.318C175.941 754.318 175.558 753.926 175.558 753.142C175.558 752.395 175.941 752.022 176.706 752.022C177.434 752.022 177.798 752.395 177.798 753.142C177.798 753.926 177.434 754.318 176.706 754.318ZM171.834 769.998V768.262H172.814C174.868 768.262 175.894 767.198 175.894 765.07V758.994L177.77 758.014V765.126C177.77 766.694 177.313 767.917 176.398 768.794C175.558 769.597 174.438 769.998 173.038 769.998H171.834ZM205.301 769.998C205.151 771.603 204.311 772.901 202.781 773.89C201.306 774.842 199.411 775.318 197.097 775.318C194.222 775.318 192.057 774.478 190.601 772.798C189.518 771.547 188.977 770.007 188.977 768.178C188.977 766.573 189.387 765.191 190.209 764.034L192.029 763.67C191.133 765.033 190.685 766.489 190.685 768.038C190.685 769.755 191.273 771.127 192.449 772.154C193.569 773.143 195.118 773.638 197.097 773.638C199.131 773.638 200.727 773.209 201.885 772.35C202.743 771.715 203.247 770.931 203.397 769.998H200.541L201.437 768.262H205.385V769.998H205.301ZM195.333 779.938C194.567 779.938 194.185 779.555 194.185 778.79C194.185 778.025 194.567 777.642 195.333 777.642C196.061 777.642 196.425 778.025 196.425 778.79C196.425 779.555 196.061 779.938 195.333 779.938ZM198.525 779.938C197.778 779.938 197.405 779.555 197.405 778.79C197.405 778.025 197.778 777.642 198.525 777.642C199.271 777.642 199.645 778.025 199.645 778.79C199.645 779.555 199.271 779.938 198.525 779.938ZM207.283 754.402C206.537 754.402 206.163 754.019 206.163 753.254C206.163 752.489 206.537 752.106 207.283 752.106C208.03 752.106 208.403 752.489 208.403 753.254C208.403 754.019 208.03 754.402 207.283 754.402ZM210.475 754.402C209.729 754.402 209.355 754.019 209.355 753.254C209.355 752.489 209.729 752.106 210.475 752.106C211.222 752.106 211.595 752.489 211.595 753.254C211.595 754.019 211.222 754.402 210.475 754.402ZM213.471 768.262H214.451V769.998H213.247C211.567 769.998 210.307 769.429 209.467 768.29C208.59 769.429 207.321 769.998 205.659 769.998H204.455V768.262H205.435C207.489 768.262 208.515 767.198 208.515 765.07V758.994L210.391 758.014V765.07C210.391 767.198 211.418 768.262 213.471 768.262ZM213.889 769.998V768.262H214.673C216.801 768.262 217.865 767.161 217.865 764.958V752.918L219.741 751.938V764.986C219.741 766.573 219.274 767.823 218.341 768.738C217.464 769.578 216.306 769.998 214.869 769.998H213.889ZM224.783 769.998V752.918L226.659 751.938V769.998H224.783ZM245.847 756.978C245.101 756.978 244.727 756.586 244.727 755.802C244.727 755.055 245.101 754.682 245.847 754.682C246.594 754.682 246.967 755.055 246.967 755.802C246.967 756.586 246.594 756.978 245.847 756.978ZM249.067 756.978C248.302 756.978 247.919 756.586 247.919 755.802C247.919 755.055 248.302 754.682 249.067 754.682C249.795 754.682 250.159 755.055 250.159 755.802C250.159 756.586 249.795 756.978 249.067 756.978ZM242.963 769.998C241.582 769.998 240.481 769.569 239.659 768.71C238.838 767.833 238.427 766.657 238.427 765.182V761.514L240.303 760.534V764.958C240.303 767.161 241.33 768.262 243.383 768.262H252.763C254.817 768.262 255.843 767.161 255.843 764.958V758.994L257.719 758.014V765.182C257.719 766.769 257.234 768.001 256.263 768.878C255.423 769.625 254.322 769.998 252.959 769.998H242.963ZM267.495 769.998C265.908 769.998 264.686 769.485 263.827 768.458C263.118 767.581 262.763 766.47 262.763 765.126V752.918L264.639 751.938V765.07C264.639 767.198 265.666 768.262 267.719 768.262H268.699V769.998H267.495ZM272.563 758.434C272.75 758.415 272.946 758.406 273.151 758.406C274.831 758.406 276.268 758.817 277.463 759.638C279.106 760.814 279.927 762.494 279.927 764.678V765.21C279.927 766.778 279.442 768.001 278.471 768.878C277.631 769.625 276.539 769.998 275.195 769.998H268.139V768.262H274.999C277.034 768.262 278.051 767.17 278.051 764.986V764.706C278.051 763.194 277.51 762.065 276.427 761.318C275.531 760.646 274.392 760.31 273.011 760.31C272.003 760.31 271.004 760.487 270.015 760.842V758.994L276.371 751.938H278.303L272.563 758.434ZM290.895 768.262H291.875V769.998H290.671C289.513 769.998 288.552 769.718 287.787 769.158C287.637 772.257 286.387 774.217 284.035 775.038C283.437 775.243 282.803 775.346 282.131 775.346C281.048 775.346 280.003 775.085 278.995 774.562V772.91C279.947 773.433 280.917 773.694 281.907 773.694C282.691 773.694 283.381 773.517 283.979 773.162C285.285 772.378 285.939 770.913 285.939 768.766V758.994L287.787 758.014V758.042L287.815 758.014V765.07C287.815 767.198 288.841 768.262 290.895 768.262ZM306.138 752.33C305.466 752.33 305.13 751.975 305.13 751.266C305.13 750.594 305.466 750.258 306.138 750.258C306.81 750.258 307.146 750.594 307.146 751.266C307.146 751.975 306.81 752.33 306.138 752.33ZM304.57 755.242C303.805 755.242 303.422 754.859 303.422 754.094C303.422 753.329 303.805 752.946 304.57 752.946C305.298 752.946 305.662 753.329 305.662 754.094C305.662 754.859 305.298 755.242 304.57 755.242ZM307.762 755.242C307.016 755.242 306.642 754.859 306.642 754.094C306.642 753.329 307.016 752.946 307.762 752.946C308.509 752.946 308.882 753.329 308.882 754.094C308.882 754.859 308.509 755.242 307.762 755.242ZM291.326 769.998V768.262H293.034C295.106 768.262 296.142 767.198 296.142 765.07V761.038L298.018 760.058V765.07C298.018 767.198 299.045 768.262 301.098 768.262H302.134C304.188 768.262 305.214 767.198 305.214 765.07V760.03L307.09 759.022V765.07C307.09 767.198 308.126 768.262 310.198 768.262H311.206C313.278 768.262 314.314 767.198 314.314 765.07V758.994L316.19 758.014V764.958C316.19 767.161 317.254 768.262 319.382 768.262H321.006V769.998H319.186C317.413 769.998 316.116 769.373 315.294 768.122C314.473 769.373 313.204 769.998 311.486 769.998H309.946C308.21 769.998 306.95 769.382 306.166 768.15C305.364 769.382 304.113 769.998 302.414 769.998H300.874C299.138 769.998 297.869 769.382 297.066 768.15C296.282 769.382 295.022 769.998 293.286 769.998H291.326ZM320.448 769.998V768.262H321.232C323.36 768.262 324.424 767.161 324.424 764.958V752.918L326.3 751.938V764.986C326.3 766.573 325.833 767.823 324.9 768.738C324.022 769.578 322.865 769.998 321.428 769.998H320.448ZM331.341 769.998V752.918L333.217 751.938V769.998H331.341ZM181.06 811.998C180.911 813.603 180.071 814.901 178.54 815.89C177.066 816.842 175.171 817.318 172.856 817.318C169.982 817.318 167.816 816.478 166.36 814.798C165.278 813.547 164.736 812.007 164.736 810.178C164.736 808.573 165.147 807.191 165.968 806.034L167.788 805.67C166.892 807.033 166.444 808.489 166.444 810.038C166.444 811.755 167.032 813.127 168.208 814.154C169.328 815.143 170.878 815.638 172.856 815.638C174.891 815.638 176.487 815.209 177.644 814.35C178.503 813.715 179.007 812.931 179.156 811.998H176.3L177.196 810.262H181.144V811.998H181.06ZM171.092 821.938C170.327 821.938 169.944 821.555 169.944 820.79C169.944 820.025 170.327 819.642 171.092 819.642C171.82 819.642 172.184 820.025 172.184 820.79C172.184 821.555 171.82 821.938 171.092 821.938ZM174.284 821.938C173.538 821.938 173.164 821.555 173.164 820.79C173.164 820.025 173.538 819.642 174.284 819.642C175.031 819.642 175.404 820.025 175.404 820.79C175.404 821.555 175.031 821.938 174.284 821.938ZM180.215 811.998V810.262H180.999C183.127 810.262 184.191 809.161 184.191 806.958V794.918L186.067 793.938V806.986C186.067 808.573 185.6 809.823 184.667 810.738C183.79 811.578 182.632 811.998 181.195 811.998H180.215ZM195.841 811.998C194.254 811.998 193.032 811.485 192.173 810.458C191.464 809.581 191.109 808.47 191.109 807.126V794.918L192.985 793.938V807.07C192.985 809.198 194.012 810.262 196.065 810.262H197.045V811.998H195.841ZM214.097 810.262H215.049V811.998H213.845C212.146 811.998 210.877 811.41 210.037 810.234C209.103 811.783 207.685 812.558 205.781 812.558C203.858 812.558 202.439 811.793 201.525 810.262C200.666 811.419 199.387 811.998 197.689 811.998H196.485V810.262H197.465C199.518 810.262 200.545 809.198 200.545 807.07V806.118C200.545 803.971 201.067 802.329 202.113 801.19C203.027 800.182 204.25 799.678 205.781 799.678C207.535 799.678 208.87 800.331 209.785 801.638C210.587 802.758 210.989 804.251 210.989 806.118V807.07C210.989 809.198 212.025 810.262 214.097 810.262ZM205.781 810.822C206.807 810.822 207.619 810.402 208.217 809.562C208.814 808.703 209.113 807.546 209.113 806.09C209.113 802.954 208.002 801.386 205.781 801.386C203.541 801.386 202.421 802.954 202.421 806.09C202.421 809.245 203.541 810.822 205.781 810.822ZM214.477 811.998V810.262H215.261C217.389 810.262 218.453 809.161 218.453 806.958V794.918L220.329 793.938V806.986C220.329 808.573 219.862 809.823 218.929 810.738C218.052 811.578 216.894 811.998 215.457 811.998H214.477ZM225.371 811.998V794.918L227.247 793.938V811.998H225.371ZM252.875 810.486C252.875 812.651 252.138 814.369 250.663 815.638C249.338 816.758 247.648 817.318 245.595 817.318C243.168 817.318 241.302 816.487 239.995 814.826C238.968 813.538 238.455 811.998 238.455 810.206C238.455 808.582 238.866 807.21 239.687 806.09L241.535 805.67C240.62 807.014 240.163 808.489 240.163 810.094C240.163 811.737 240.695 813.081 241.759 814.126C242.767 815.115 244.046 815.61 245.595 815.61C247.387 815.61 248.778 815.069 249.767 813.986C250.607 813.09 251.027 811.923 251.027 810.486V794.918L252.875 793.938V810.486ZM270.202 810.262V811.998H267.234C267.215 813.23 266.814 814.313 266.03 815.246C265.264 816.198 264.266 816.823 263.034 817.122C262.586 817.253 262.1 817.318 261.578 817.318C260.495 817.318 259.44 817.057 258.414 816.534V814.882C259.384 815.405 260.346 815.666 261.298 815.666C262.063 815.666 262.735 815.498 263.314 815.162C263.892 814.863 264.378 814.406 264.77 813.79C265.162 813.193 265.358 812.595 265.358 811.998L262.978 811.914C260.906 811.821 259.356 811.167 258.33 809.954C257.49 808.927 257.07 807.555 257.07 805.838C257.07 803.822 257.592 802.263 258.638 801.162C259.571 800.173 260.822 799.678 262.39 799.678C264.014 799.678 265.255 800.163 266.114 801.134C266.86 801.974 267.234 803.094 267.234 804.494V810.262H270.202ZM265.358 804.69C265.358 802.487 264.368 801.386 262.39 801.386C261.288 801.386 260.43 801.778 259.814 802.562C259.216 803.327 258.918 804.41 258.918 805.81C258.918 808.591 260.29 810.047 263.034 810.178C263.855 810.234 264.63 810.262 265.358 810.262V804.69ZM287.325 810.262H288.305V811.998H287.297C285.748 811.998 284.507 811.821 283.573 811.466C282.659 811.111 281.809 810.486 281.025 809.59C278.636 811.195 275.873 811.998 272.737 811.998H269.629V810.262H272.765C276.835 810.262 280.008 808.881 282.285 806.118C280.624 802.945 278.617 801.358 276.265 801.358C274.66 801.358 273.092 802.17 271.561 803.794V801.946C273.092 800.434 274.688 799.678 276.349 799.678H276.405C279.336 799.678 281.875 801.657 284.021 805.614V806.762C283.443 807.509 282.827 808.153 282.173 808.694C282.771 809.273 283.443 809.683 284.189 809.926C284.955 810.15 286 810.262 287.325 810.262ZM290.586 796.402C289.839 796.402 289.466 796.019 289.466 795.254C289.466 794.489 289.839 794.106 290.586 794.106C291.333 794.106 291.706 794.489 291.706 795.254C291.706 796.019 291.333 796.402 290.586 796.402ZM293.778 796.402C293.031 796.402 292.658 796.019 292.658 795.254C292.658 794.489 293.031 794.106 293.778 794.106C294.525 794.106 294.898 794.489 294.898 795.254C294.898 796.019 294.525 796.402 293.778 796.402ZM296.774 810.262H297.754V811.998H296.55C294.87 811.998 293.61 811.429 292.77 810.29C291.893 811.429 290.623 811.998 288.962 811.998H287.758V810.262H288.738C290.791 810.262 291.818 809.198 291.818 807.07V800.994L293.694 800.014V807.07C293.694 809.198 294.721 810.262 296.774 810.262ZM297.192 811.998V810.262H297.976C300.104 810.262 301.168 809.161 301.168 806.958V794.918L303.044 793.938V806.986C303.044 808.573 302.577 809.823 301.644 810.738C300.766 811.578 299.609 811.998 298.172 811.998H297.192ZM308.085 811.998V794.918L309.961 793.938V811.998H308.085Z" fill="#280659"/>
</svg>
