<svg width="56" height="57" viewBox="0 0 56 57" fill="none" xmlns="http://www.w3.org/2000/svg">
<g clip-path="url(#clip0_4_984)">
<path d="M38.6982 3.48488C39.2389 3.96142 39.7443 4.4592 40.25 4.97255C40.4496 5.15443 40.6493 5.3363 40.855 5.52369C44.1509 8.59901 45.6417 12.6904 46.0007 17.1294C46.1171 21.7684 44.6503 26.4358 41.4719 29.8622C40.4361 30.9352 39.3984 31.9723 38.1582 32.8085C36.7127 33.8154 36.2181 35.7508 35.6562 37.3475C35.9675 37.5912 35.9675 37.5912 36.2851 37.8397C36.8419 38.2755 37.1532 38.6509 37.4062 39.3163C37.4813 40.3919 37.3349 41.1081 36.6406 41.9413C36.3699 42.1579 36.3699 42.1579 36.0937 42.3788C35.6632 42.8093 35.7301 43.5487 35.6562 44.1288C36.1616 44.201 36.6669 44.2732 37.1875 44.3475C37.3242 44.9765 37.3242 44.9765 37.4062 45.66C36.9687 46.0975 36.9687 46.0975 36.2851 46.1249C36.0776 46.1159 35.8701 46.1068 35.6562 46.0975C35.6562 46.6029 35.6562 47.1082 35.6562 47.6288C35.8638 47.6198 36.0713 47.6107 36.2851 47.6015C36.9687 47.6288 36.9687 47.6288 37.4062 48.0663C37.2847 49.0628 37.2847 49.0628 36.9687 49.3788C36.5313 49.3877 36.0936 49.3881 35.6562 49.3788C35.6351 49.5404 35.6139 49.7019 35.5922 49.8684C35.417 50.5527 35.183 50.8681 34.7129 51.3886C34.5829 51.536 34.4529 51.6835 34.319 51.8355C33.5859 52.523 33.1733 52.66 32.1562 52.66C32.1472 52.845 32.1382 53.03 32.1289 53.2206C31.8152 54.4529 31.0573 55.1847 30.0508 55.9276C28.7821 56.327 27.4337 56.4357 26.1671 55.9678C25.1049 55.3571 24.456 54.5873 23.8437 53.535C23.8437 53.2463 23.8437 52.9575 23.8437 52.66C23.6227 52.6555 23.4016 52.651 23.1738 52.6464C22.0739 52.4943 21.4424 51.7526 20.7812 50.91C20.4348 50.3198 20.3437 50.0787 20.3437 49.3788C20.1362 49.3878 19.9287 49.3968 19.7148 49.4061C19.0312 49.3788 19.0312 49.3788 18.5937 48.9413C18.7153 47.9448 18.7153 47.9448 19.0312 47.6288C19.4686 47.6199 19.9063 47.6195 20.3437 47.6288C20.3437 47.1235 20.3437 46.6182 20.3437 46.0975C20.1362 46.1066 19.9287 46.1156 19.7148 46.1249C19.0312 46.0975 19.0312 46.0975 18.5937 45.66C18.6758 44.9765 18.6758 44.9765 18.8125 44.3475C19.3178 44.2754 19.8231 44.2032 20.3437 44.1288C20.2678 42.8371 19.9807 42.3606 19.0312 41.5038C18.5397 40.7781 18.4897 40.1834 18.5937 39.3163C19.07 38.4488 19.5465 37.9153 20.3437 37.3475C20.2054 37.0037 20.2054 37.0037 20.0643 36.6528C19.9433 36.3512 19.8222 36.0496 19.7012 35.7479C19.6404 35.5969 19.5796 35.4459 19.517 35.2904C19.2672 34.6673 19.0248 34.0471 18.8125 33.41C18.5254 33.2555 18.2325 33.1114 17.9375 32.9725C13.5723 29.7664 11.0183 25.5753 10.1727 20.2398C9.55498 15.59 10.7577 10.9851 13.5591 7.23524C14.4158 6.19173 14.4158 6.19173 14.875 5.84755C15.4757 5.9048 15.4757 5.9048 15.9687 6.0663C16.1268 6.54396 16.1268 6.54396 16.1875 7.16005C15.8722 7.70094 15.8722 7.70094 15.4082 8.26747C12.8579 11.5846 11.6937 15.6308 12.168 19.7929C12.6026 23.0449 13.9045 25.8378 15.9687 28.3788C16.0694 28.5088 16.1701 28.6388 16.2738 28.7727C17.0142 29.6926 17.8493 30.3782 18.7894 31.0884C20.4883 32.3901 21.446 33.8778 21.8391 35.9701C22.1451 36.6882 22.1451 36.6882 23.625 37.3475C23.625 34.6044 23.625 31.8613 23.625 29.035C22.3868 29.1645 22.3868 29.1645 21.6836 29.6093C20.9858 29.9163 20.4925 30.0177 19.7353 29.8895C18.3044 29.3051 17.0572 27.8755 16.1875 26.6288C15.9107 25.3755 16.2538 24.4536 16.8437 23.3475C16.8989 22.6364 16.8989 22.6364 16.8437 22.035C16.6496 22.0067 16.6496 22.0067 16.4515 21.9778C15.2331 21.7611 14.594 21.4943 13.7812 20.5038C13.673 20.3955 13.673 20.3955 13.5625 20.285C13.4891 19.5444 13.4914 18.8004 13.4805 18.0565C13.4723 17.8494 13.4641 17.6423 13.4557 17.4289C13.4435 16.4566 13.4361 15.7003 14.0419 14.906C14.676 14.3619 15.0026 14.1868 15.8183 14.078C16.1081 14.0349 16.1081 14.0349 16.4037 13.9909C16.5489 13.9745 16.6941 13.9581 16.8437 13.9413C16.8996 13.1598 16.889 12.7137 16.5156 12.0136C16.0811 11.0903 15.9512 10.3488 16.1875 9.34755C16.9686 8.08253 18.3469 6.73658 19.6875 6.0663C20.6388 6.07377 21.4408 6.15285 22.2578 6.65419C22.7385 6.99874 22.7385 6.99874 23.3242 6.88661C24.0309 6.36586 24.0897 5.83892 24.3214 5.01527C24.6329 4.17774 25.2636 3.8251 26.0312 3.4413C26.6725 3.40234 27.3037 3.38055 27.9453 3.37294C28.1201 3.36659 28.295 3.36025 28.4751 3.35371C29.664 3.341 30.3446 3.51551 31.2812 4.3163C31.6585 4.94953 31.91 5.54624 32.1426 6.24403C32.3246 6.75331 32.3246 6.75331 32.774 6.88832C33.367 6.95432 33.5905 6.81993 34.0976 6.51747C34.8836 6.09977 35.4082 5.90903 36.3125 6.0663C37.6264 6.73785 39.1503 8.02326 39.8125 9.34755C39.9477 10.6475 39.7742 11.4701 39.1562 12.6288C39.1011 13.34 39.1011 13.34 39.1562 13.9413C39.3015 13.9577 39.4467 13.974 39.5963 13.9909C39.7895 14.0196 39.9826 14.0484 40.1816 14.078C40.372 14.1034 40.5623 14.1288 40.7584 14.1549C41.5787 14.4687 42.053 14.9159 42.4375 15.6913C42.5863 16.4668 42.5807 17.2146 42.5605 18.0018C42.5629 18.2059 42.5653 18.4099 42.5678 18.6201C42.5579 19.5479 42.5238 20.1349 42.0555 20.9498C41.5488 21.3907 41.1923 21.5918 40.5508 21.7753C40.381 21.8263 40.2113 21.8774 40.0364 21.9299C39.5937 22.035 39.5937 22.035 39.1562 22.035C39.1004 22.8166 39.1109 23.2626 39.4844 23.9628C39.9246 24.8982 40.0955 25.6182 39.8125 26.6288C38.8617 28.0035 37.5642 29.4777 35.916 29.91C35.0081 29.9907 34.4214 29.7002 33.6567 29.2341C33.1945 28.9709 33.1945 28.9709 32.375 29.035C32.375 31.7782 32.375 34.5213 32.375 37.3475C33.8731 36.678 33.8731 36.678 34.2164 35.859C34.272 35.6374 34.3275 35.4157 34.3848 35.1874C35.0706 32.8241 36.6511 31.2507 38.623 29.828C41.4515 27.6723 43.2205 23.7314 43.75 20.285C43.7833 20.091 43.8165 19.897 43.8508 19.6972C44.375 15.7831 43.1402 11.5209 40.8011 8.37001C38.1576 5.01447 34.7085 3.05886 30.5566 2.19716C26.1824 1.82646 22.4824 2.52596 18.8125 4.97255C18.1289 5.01356 18.1289 5.01356 17.5 4.97255C17.2812 4.7538 17.2812 4.7538 17.1992 4.24794C17.2812 3.66005 17.2812 3.66005 17.7324 3.24049C23.949 -1.16565 32.612 -1.12069 38.6982 3.48488ZM26.0312 5.6288C25.8091 6.18551 25.8091 6.18551 25.6348 6.81825C25.2342 7.97302 25.2342 7.97302 24.5547 8.51356C23.5472 8.76542 22.6226 8.95841 21.6725 8.47853C21.4749 8.35375 21.4749 8.35375 21.2734 8.22645C21.0388 8.0911 20.8042 7.95575 20.5625 7.8163C19.8189 8.06416 19.3041 8.55236 18.7441 9.08778C18.5871 9.23357 18.43 9.37935 18.2682 9.52955C17.8773 9.98502 17.8773 9.98502 17.9742 10.5686C18.1495 11.1302 18.1495 11.1302 18.5117 11.7265C18.9814 12.794 18.7007 13.5517 18.4023 14.6386C17.7611 15.4872 17.0516 15.6525 16.0559 15.9622C15.547 16.0795 15.547 16.0795 15.3125 16.3475C15.279 16.8932 15.2618 17.4286 15.2578 17.9745C15.2533 18.1263 15.2488 18.2782 15.2441 18.4346C15.2328 18.9288 15.2328 18.9288 15.3125 19.6288C15.9697 20.0669 16.3428 20.1741 17.1035 20.3124C17.3006 20.349 17.4977 20.3857 17.7008 20.4235C17.9262 20.4632 17.9262 20.4632 18.1562 20.5038C18.6534 21.7425 18.953 22.6695 18.5937 24.0038C18.4764 24.1933 18.3591 24.3828 18.2383 24.578C17.8918 25.0764 17.8918 25.0764 17.9375 25.6444C18.2293 26.3741 18.6712 26.7614 19.25 27.285C19.3583 27.4159 19.4665 27.5467 19.5781 27.6815C19.9033 27.9799 19.9033 27.9799 20.3984 28.037C21.0006 27.9412 21.25 27.8093 21.7519 27.4901C22.3243 27.142 22.5027 27.0663 23.2012 27.0663C23.9697 27.3279 24.5264 27.6473 25.1562 28.16C25.467 29.0566 25.4248 29.9997 25.4442 30.9389C25.4487 31.1221 25.4533 31.3054 25.458 31.4942C25.4723 32.0781 25.4852 32.662 25.498 33.246C25.5075 33.6425 25.517 34.039 25.5267 34.4354C25.5501 35.4061 25.5722 36.3768 25.5937 37.3475C26.0991 37.3475 26.6044 37.3475 27.125 37.3475C27.1361 35.8722 27.1437 34.3969 27.149 32.9215C27.1512 32.4197 27.1542 31.9179 27.158 31.4161C27.1633 30.6945 27.1658 29.9729 27.1677 29.2512C27.17 29.0272 27.1722 28.8032 27.1746 28.5724C27.1746 28.3622 27.1746 28.1521 27.1747 27.9356C27.1761 27.6594 27.1761 27.6594 27.1776 27.3777C27.117 26.7668 26.9553 26.3048 26.6875 25.7538C26.2995 25.4982 26.2995 25.4982 25.8262 25.3573C23.6164 24.4627 21.9854 23.1319 21 20.9413C20.2544 19.067 20.2311 16.6963 20.9923 14.8129C22.0465 12.792 23.6527 11.4062 25.8125 10.66C26.5508 10.5097 26.5508 10.5097 27.3437 10.4413C27.4921 10.4272 27.6404 10.4131 27.7932 10.3986C29.7931 10.2918 31.5747 11.0485 33.109 12.3015C34.2575 13.3463 35.1599 14.8016 35.4375 16.3475C35.4523 16.8395 35.4561 17.3319 35.4512 17.8241C35.4492 18.0802 35.4472 18.3362 35.4452 18.6C35.4426 18.7951 35.4401 18.9903 35.4375 19.1913C35.0044 19.1913 34.5712 19.1913 34.125 19.1913C34.1005 18.8978 34.1005 18.8978 34.0754 18.5983C33.8548 16.569 33.4628 14.9632 31.9383 13.5311C30.6017 12.48 29.2747 11.9509 27.5625 11.9725C25.4839 12.3482 24.1069 13.2671 22.8551 14.9556C22.1051 16.1528 21.8895 17.5758 22.0937 18.9725C22.534 20.561 23.2579 22.0522 24.6931 22.9485C25.133 23.1719 25.579 23.3693 26.0312 23.5663C26.4874 23.8021 26.9417 24.0411 27.3959 24.2807C27.8126 24.4834 27.8126 24.4834 28.4375 24.4413C30.0304 23.7244 31.4448 22.8974 32.663 21.6386C33.0312 21.3788 33.0312 21.3788 33.5157 21.4472C33.9062 21.5975 33.9062 21.5975 34.0703 21.9667C34.125 22.4725 34.125 22.4725 33.8242 22.9921C32.6404 24.1759 31.2883 24.9446 29.7167 25.5017C29.1489 25.8558 29.0812 26.2191 28.875 26.8475C28.8127 27.3814 28.8127 27.3814 28.8253 27.9356C28.8254 28.2508 28.8254 28.2508 28.8254 28.5724C28.8277 28.7964 28.8299 29.0204 28.8323 29.2512C28.8332 29.5985 28.8332 29.5985 28.8341 29.9528C28.8366 30.6905 28.8421 31.4282 28.8476 32.1659C28.8498 32.6668 28.8518 33.1677 28.8536 33.6685C28.8584 34.8949 28.8658 36.1212 28.875 37.3475C29.3803 37.3475 29.8856 37.3475 30.4062 37.3475C30.4106 37.1015 30.4149 36.8554 30.4194 36.6018C30.4361 35.6866 30.4555 34.7714 30.4757 33.8561C30.484 33.4605 30.4917 33.0648 30.4985 32.669C30.5085 32.0994 30.5212 31.5298 30.5344 30.9602C30.5369 30.784 30.5395 30.6079 30.5421 30.4263C30.566 29.5105 30.6223 28.7681 31.0625 27.9413C31.7592 27.3907 32.5105 27.0593 33.4004 27.08C33.9062 27.285 33.9062 27.285 34.4531 27.6268C35.1036 28.0009 35.3603 28.1202 36.0937 27.9413C36.4662 27.5877 36.7788 27.2147 37.0935 26.8091C37.4062 26.41 37.4062 26.41 37.7754 26.0563C37.8701 25.9565 37.9649 25.8566 38.0625 25.7538C38.0211 25.1537 37.7957 24.7975 37.4883 24.2772C36.9387 22.9783 37.3625 21.7872 37.8437 20.5038C37.994 20.4773 38.1443 20.4508 38.2992 20.4235C38.4963 20.3868 38.6934 20.3502 38.8965 20.3124C39.0919 20.2769 39.2873 20.2413 39.4886 20.2047C40.081 20.0856 40.081 20.0856 40.6875 19.6288C40.7359 19.0541 40.7491 18.5331 40.7285 17.9608C40.7255 17.8063 40.7226 17.6518 40.7195 17.4926C40.7118 17.1108 40.7 16.7292 40.6875 16.3475C40.4619 16.2528 40.2363 16.1581 40.0039 16.0604C39.8646 15.9992 39.7253 15.9381 39.5818 15.875C39.2069 15.7132 38.8264 15.5644 38.4453 15.4179C37.6287 14.8982 37.4666 14.4186 37.1875 13.5038C37.0581 12.6163 37.1824 12.143 37.6387 11.3983C38.1042 10.7412 38.1042 10.7412 38.042 10.2413C37.7644 9.60242 37.3468 9.22596 36.8457 8.74599C36.6649 8.57116 36.4842 8.39633 36.298 8.2162C36.1584 8.08423 36.0188 7.95226 35.875 7.8163C35.1306 8.0479 34.5595 8.25577 33.9062 8.6913C32.7828 8.80364 31.9169 8.76264 30.9454 8.15468C30.3991 7.57779 30.2808 6.88123 30.1225 6.11928C30.0007 5.55089 30.0007 5.55089 29.3125 5.1913C28.6846 5.12176 28.6846 5.12176 28 5.13661C27.7699 5.13548 27.5398 5.13435 27.3027 5.13319C26.6423 5.14653 26.6423 5.14653 26.0312 5.6288ZM20.5625 39.535C20.526 40.0819 20.526 40.0819 20.5625 40.6288C21.0874 41.1537 22.4281 40.9494 23.1388 40.9834C23.8437 41.0663 23.8437 41.0663 24.2812 41.5038C24.2091 41.7925 24.1369 42.0813 24.0625 42.3788C23.088 42.4871 23.088 42.4871 22.0937 42.5975C22.0937 43.1029 22.0937 43.6082 22.0937 44.1288C24.8369 44.201 27.58 44.2732 30.4062 44.3475C30.4062 44.7807 30.4062 45.2138 30.4062 45.66C29.9563 46.11 29.016 45.9351 28.3956 45.948C28.1266 45.9548 28.1266 45.9548 27.8522 45.9618C27.2771 45.9761 26.702 45.989 26.1269 46.0018C25.738 46.0113 25.3491 46.0208 24.9601 46.0305C24.0047 46.0539 23.0492 46.0761 22.0937 46.0975C22.0937 46.6029 22.0937 47.1082 22.0937 47.6288C22.5991 47.7732 23.1044 47.9175 23.625 48.0663C23.5528 48.4272 23.4806 48.7882 23.4062 49.16C22.8648 49.2683 22.8648 49.2683 22.3125 49.3788C22.5859 50.1779 22.678 50.4246 23.4062 50.91C24.7329 51.2752 26.1358 51.1695 27.5011 51.1693C27.984 51.1698 28.4669 51.1738 28.9498 51.1779C29.2595 51.1786 29.5693 51.179 29.879 51.1792C30.1584 51.1801 30.4379 51.181 30.7258 51.1819C31.7655 51.1106 32.5296 50.9295 33.332 50.2538C33.7335 49.8537 33.7335 49.8537 33.6875 49.3788C31.0887 49.3066 28.49 49.2344 25.8125 49.16C25.7042 48.6186 25.7042 48.6186 25.5937 48.0663C26.0437 47.6164 26.984 47.7912 27.6044 47.7783C27.7837 47.7738 27.963 47.7692 28.1478 47.7646C28.7229 47.7502 29.2979 47.7373 29.873 47.7245C30.262 47.7151 30.6509 47.7055 31.0398 47.6959C31.9953 47.6724 32.9508 47.6503 33.9062 47.6288C33.9062 47.1235 33.9062 46.6182 33.9062 46.0975C33.4009 45.9532 32.8956 45.8088 32.375 45.66C32.375 45.2269 32.375 44.7938 32.375 44.3475C32.8803 44.2754 33.3856 44.2032 33.9062 44.1288C33.9062 43.6235 33.9062 43.1182 33.9062 42.5975C31.5962 42.5254 29.2862 42.4532 26.9062 42.3788C26.8341 42.0179 26.7619 41.6569 26.6875 41.285C27.1416 40.8309 28.1112 41.0151 28.7383 41.0048C28.9219 41.0007 29.1056 40.9967 29.2949 40.9926C30.0841 40.9753 30.8735 40.9605 31.6628 40.9455C32.2374 40.9342 32.8121 40.9217 33.3867 40.9091C33.5667 40.9061 33.7467 40.9031 33.9322 40.9001C34.752 40.9596 34.752 40.9596 35.4375 40.6288C35.4739 40.0819 35.4739 40.0819 35.4375 39.535C35.0381 39.1357 34.4082 39.2884 33.8721 39.288C33.5837 39.2873 33.2954 39.2866 32.9983 39.2859C32.6812 39.2863 32.364 39.2867 32.0469 39.2872C31.724 39.2871 31.4012 39.2869 31.0783 39.2866C30.4008 39.2863 29.7234 39.2868 29.0459 39.2878C28.1756 39.289 27.3054 39.2883 26.4351 39.287C25.7682 39.2862 25.1013 39.2865 24.4344 39.287C24.1134 39.2872 23.7924 39.287 23.4714 39.2865C23.0236 39.2859 22.5758 39.2869 22.1279 39.288C21.8726 39.2882 21.6172 39.2883 21.3542 39.2885C20.7973 39.2512 20.7973 39.2512 20.5625 39.535ZM25.8125 52.8788C26.2745 53.8029 26.4369 53.9979 27.3437 54.41C28.2269 54.5416 28.5901 54.4462 29.3808 54.0136C30.0182 53.5821 30.0182 53.5821 30.1875 52.8788C28.7437 52.8788 27.3 52.8788 25.8125 52.8788Z" fill="#764895"/>
<path d="M52.0625 3.44149C52.9365 3.9121 53.4435 4.27154 53.8125 5.19149C53.9866 6.1991 53.932 6.94695 53.4297 7.84384C52.2177 9.08707 50.4381 9.98178 48.7813 10.4415C47.6261 10.401 46.9664 10.181 46.1563 9.34774C45.758 8.67793 45.7182 8.28584 45.7325 7.50204C46.0488 6.29982 46.7444 5.54438 47.7849 4.90695C48.0518 4.75755 48.3201 4.61086 48.5899 4.46688C48.7255 4.39117 48.8611 4.31546 49.0009 4.23745C50.0561 3.6554 50.8479 3.32241 52.0625 3.44149ZM49.1504 6.28524C49.0093 6.36871 48.8682 6.45218 48.7227 6.53817C48.3764 6.74341 48.0318 6.95154 47.6875 7.16024C47.6875 7.52118 47.6875 7.88212 47.6875 8.25399C48.4733 8.53292 48.7659 8.4792 49.5503 8.14974C49.8245 7.99645 50.0968 7.83966 50.3672 7.67977C50.5065 7.60448 50.6458 7.5292 50.7893 7.45162C51.4407 7.07607 51.7981 6.84852 52.0591 6.12972C52.0602 5.96448 52.0614 5.79924 52.0625 5.62899C51.8399 5.36294 51.8399 5.36294 51.3832 5.34188C50.5154 5.43557 49.8809 5.83985 49.1504 6.28524Z" fill="#764895"/>
<path d="M5.90625 3.66025C6.4507 3.91526 6.96899 4.17451 7.49219 4.46689C7.68588 4.57404 7.68588 4.57404 7.88349 4.68335C9.05541 5.37709 9.90056 6.15596 10.2812 7.48838C10.2812 8.39738 10.1397 8.8193 9.625 9.5665C8.89097 10.2322 8.50084 10.4351 7.50586 10.4688C6.27036 10.2388 5.21699 9.55416 4.15625 8.91025C4.01695 8.82763 3.87765 8.74501 3.73413 8.65989C3.06637 8.24296 2.53426 7.87303 2.1875 7.16025C2.06051 6.22194 2.0842 5.4416 2.44726 4.5626C3.44992 3.38707 4.44463 3.21405 5.90625 3.66025ZM4.15625 5.41025C4.08406 5.77119 4.01187 6.13213 3.9375 6.504C5.74327 7.92427 5.74327 7.92427 7.84765 8.40439C8.00105 8.35476 8.15445 8.30514 8.3125 8.254C8.3125 7.89307 8.3125 7.53213 8.3125 7.16025C7.82646 6.86561 7.3388 6.57457 6.84961 6.28525C6.71271 6.20179 6.5758 6.11832 6.43475 6.03232C5.6447 5.56905 5.07843 5.2974 4.15625 5.41025Z" fill="#764895"/>
<path d="M49.6562 25.7541C50.2017 26.0087 50.7189 26.2674 51.2422 26.5607C51.3713 26.6322 51.5004 26.7036 51.6334 26.7772C52.6628 27.3863 53.6283 28.13 53.9501 29.3293C53.9144 30.4888 53.7313 31.1938 52.9375 32.0978C52.3625 32.5701 52.0389 32.5353 51.2832 32.5353C50.0231 32.3398 48.9816 31.6546 47.9062 31.0041C47.6581 30.8597 47.41 30.7153 47.1543 30.5666C46.47 30.0325 46.0962 29.6018 45.7187 28.8166C45.6431 27.8779 45.8337 27.2313 46.334 26.4377C47.3536 25.4472 48.3061 25.3643 49.6562 25.7541ZM48.125 27.2853C47.6289 27.6804 47.6289 27.6804 47.6772 28.2372C48.0089 29.0763 48.6238 29.3634 49.3828 29.7736C49.5187 29.854 49.6546 29.9343 49.7947 30.0171C50.4459 30.3812 50.8629 30.5764 51.6147 30.5068C51.7625 30.4543 51.9103 30.4019 52.0625 30.3478C52.0595 29.8308 52.0595 29.8308 51.8437 29.2541C51.3811 28.8901 50.9692 28.6102 50.4629 28.3244C50.3356 28.2477 50.2083 28.171 50.0771 28.092C49.155 27.5352 49.155 27.5352 48.125 27.2853Z" fill="#764895"/>
<path d="M8.3125 25.5352C9.36613 26.0724 9.90523 26.5947 10.2812 27.7227C10.2812 28.7474 10.0775 29.4627 9.37378 30.2281C7.97438 31.3972 6.11562 32.5543 4.25195 32.5216C3.3523 32.2762 2.99525 31.933 2.40625 31.2227C2.15931 30.7289 2.12977 30.4051 2.10547 29.8556C2.09475 29.692 2.08404 29.5285 2.073 29.3599C2.27137 28.4184 2.88799 27.7881 3.64772 27.2392C4.03864 26.9984 4.43482 26.7768 4.83984 26.5606C4.97548 26.4849 5.11111 26.4092 5.25085 26.3312C6.30604 25.7491 7.09785 25.4162 8.3125 25.5352ZM6.69751 27.6099C6.42251 27.7716 6.14968 27.9369 5.87891 28.1056C5.74045 28.1873 5.602 28.2691 5.45935 28.3534C4.89756 28.6897 4.40199 29.0083 3.9375 29.4727C4.00759 30.0421 4.00759 30.0421 4.15625 30.5665C5.19675 30.4479 5.94262 30.1564 6.84961 29.6368C7.19349 29.4456 7.19349 29.4456 7.54431 29.2506C8.14087 28.8631 8.14087 28.8631 8.28088 28.2183C8.29132 28.0548 8.30175 27.8912 8.3125 27.7227C7.65563 27.2012 7.48224 27.2656 6.69751 27.6099Z" fill="#764895"/>
<path d="M4.16992 15.3358C4.4261 15.3344 4.68228 15.333 4.94623 15.3315C6.32509 15.3488 7.05598 15.3679 8.09375 16.3475C8.62986 17.1509 8.57224 17.7836 8.44836 18.7119C8.24044 19.4455 7.80149 19.8188 7.21875 20.285C7.11047 20.3933 7.11047 20.3933 7 20.5038C6.11322 20.5777 5.22345 20.5749 4.33398 20.5858C4.08513 20.594 3.83629 20.6021 3.5799 20.6106C1.51662 20.6323 1.51662 20.6323 0.713501 19.9791C0.0831785 19.2541 -0.0486045 18.8754 -0.0957031 17.9334C-0.108956 17.7496 -0.122209 17.5657 -0.135864 17.3763C0.0264299 16.67 0.310249 16.2246 0.844933 15.734C1.86017 15.1662 3.03955 15.3046 4.16992 15.3358ZM1.75 17.66C1.82219 18.0209 1.89438 18.3819 1.96875 18.7538C3.4125 18.7538 4.85625 18.7538 6.34375 18.7538C6.48812 18.465 6.6325 18.1763 6.78125 17.8788C6.63688 17.6622 6.4925 17.4456 6.34375 17.2225C5.90765 17.1247 5.90765 17.1247 5.40723 17.143C5.13102 17.1433 5.13102 17.1433 4.84924 17.1435C4.65665 17.147 4.46406 17.1505 4.26562 17.1542C4.07303 17.1534 3.88044 17.1527 3.68201 17.152C2.60258 17.1003 2.60258 17.1003 1.75 17.66Z" fill="#764895"/>
<path d="M51.8027 15.3633C52.1887 15.3498 52.1887 15.3498 52.5825 15.336C54.7047 15.3168 54.7047 15.3168 55.5146 16.0674C56.1197 16.9623 56.1785 17.4016 56.1171 18.4455C55.9267 19.303 55.5454 19.6917 54.9062 20.2852C53.9842 20.7462 52.7885 20.5735 51.7754 20.586C51.4008 20.5982 51.4008 20.5982 51.0187 20.6108C49.2185 20.6297 49.2185 20.6297 48.5928 20.2696C47.886 19.5725 47.5136 18.879 47.3867 17.9063C47.4909 17.0379 47.8035 16.5893 48.3437 15.9102C49.4024 15.2044 50.5577 15.3741 51.8027 15.3633ZM49.6562 17.2227C49.5119 17.5115 49.3675 17.8002 49.2187 18.0977C49.4353 18.4225 49.4353 18.4225 49.6562 18.754C50.1177 18.8483 50.1177 18.8483 50.6483 18.8257C50.8433 18.8246 51.0383 18.8235 51.2392 18.8223C51.5452 18.8155 51.5452 18.8155 51.8574 18.8086C52.0623 18.8075 52.2671 18.8064 52.4782 18.8052C53.4374 18.8801 53.4374 18.8801 54.25 18.5352C54.2865 17.9883 54.2865 17.9883 54.25 17.4415C54.0324 17.1754 54.0324 17.1754 53.6048 17.1979C53.3316 17.1996 53.3316 17.1996 53.0529 17.2013C52.7578 17.2024 52.7578 17.2024 52.4568 17.2035C52.25 17.2053 52.0432 17.2071 51.8301 17.209C51.6224 17.21 51.4147 17.211 51.2007 17.212C50.6859 17.2146 50.1711 17.2182 49.6562 17.2227Z" fill="#764895"/>
</g>
<defs>
<clipPath id="clip0_4_984">
<rect width="56" height="56" fill="white" transform="translate(0 0.160156)"/>
</clipPath>
</defs>
</svg>
