<svg width="24" height="24" viewBox="0 0 24 24" fill="none" xmlns="http://www.w3.org/2000/svg">
<path d="M3.42997 1.44804C4.16191 1.37023 4.67713 1.59614 5.31888 1.9174C5.45746 1.98524 5.45746 1.98524 5.59883 2.05444C5.86269 2.18397 6.12602 2.3145 6.38916 2.44549C6.63088 2.56562 6.87296 2.68499 7.11503 2.80441C8.0473 3.26443 8.97785 3.72788 9.90824 4.19169C9.98609 4.23049 10.0639 4.26929 10.1442 4.30927C10.8805 4.67627 11.6168 5.04338 12.3529 5.41083C13.2869 5.87709 14.2213 6.3427 15.1561 6.80745C15.8183 7.13675 16.4802 7.46678 17.1418 7.79734C17.5352 7.99388 17.9288 8.19011 18.3228 8.38557C18.692 8.56875 19.0607 8.75281 19.4291 8.93756C19.5638 9.00493 19.6987 9.07198 19.8337 9.13868C21.5295 9.97679 21.5295 9.97679 21.9258 10.7406C21.9623 10.8084 21.9988 10.8762 22.0364 10.9461C22.3563 11.7061 22.242 12.3919 21.9807 13.1433C21.607 13.8619 21.0916 14.212 20.3777 14.5611C20.2848 14.608 20.1918 14.655 20.096 14.7034C19.831 14.837 19.5654 14.9692 19.2996 15.101C18.9913 15.2545 18.684 15.4101 18.3766 15.5655C17.5865 15.9644 16.7951 16.3607 16.0034 16.7566C15.767 16.8748 15.5306 16.9931 15.2942 17.1114C14.4677 17.5251 13.6412 17.9385 12.8146 18.3518C12.046 18.7361 11.2776 19.1208 10.5093 19.5057C9.8461 19.8379 9.18275 20.1698 8.51929 20.5015C8.12445 20.6989 7.72967 20.8964 7.33504 21.0942C6.96575 21.2793 6.59628 21.4641 6.22668 21.6485C6.09116 21.7163 5.95571 21.7841 5.82032 21.8521C5.6358 21.9447 5.45104 22.0369 5.26622 22.1289C5.11124 22.2064 5.11124 22.2064 4.95313 22.2855C4.29405 22.5861 3.54624 22.5954 2.84769 22.4125C2.18672 22.1598 1.67433 21.5912 1.35355 20.9711C1.04111 20.1185 1.20019 19.3874 1.5004 18.5614C1.52942 18.4802 1.55844 18.3989 1.58833 18.3151C1.93692 17.3465 2.30984 16.3872 2.68363 15.4281C2.75348 15.2483 2.82331 15.0684 2.8931 14.8885C2.92715 14.8009 2.9612 14.7132 2.99627 14.6229C3.06294 14.451 3.12946 14.2791 3.19583 14.1071C3.33501 13.747 3.47524 13.388 3.62543 13.0323C3.66921 12.9266 3.71299 12.8209 3.75809 12.712C3.7956 12.6247 3.83311 12.5374 3.87175 12.4475C4.03157 11.8168 3.74897 11.2304 3.51895 10.6509C3.48621 10.5668 3.45346 10.4826 3.41972 10.396C3.31366 10.1239 3.20665 9.85219 3.09964 9.58048C3.02675 9.39387 2.95394 9.20722 2.8812 9.02055C2.73743 8.65181 2.59334 8.28321 2.44893 7.91473C2.19312 7.26176 1.9398 6.60787 1.68753 5.95353C1.64984 5.85651 1.61214 5.75949 1.5733 5.65953C1.53945 5.57189 1.50561 5.48425 1.47074 5.39396C1.4421 5.32006 1.41345 5.24616 1.38395 5.17002C1.1213 4.43124 1.07612 3.59386 1.40628 2.8715C1.7586 2.26114 2.28574 1.74583 2.9744 1.54398C3.12644 1.5129 3.27828 1.4808 3.42997 1.44804Z" fill="#280659"/>
</svg>
