<svg width="24" height="24" viewBox="0 0 24 24" fill="none" xmlns="http://www.w3.org/2000/svg">
<path d="M3.42984 1.44706C4.16179 1.36925 4.677 1.59516 5.31876 1.91643C5.45734 1.98426 5.45734 1.98426 5.59871 2.05347C5.86257 2.18299 6.1259 2.31352 6.38904 2.44451C6.63075 2.56464 6.87284 2.68402 7.11491 2.80344C8.04718 3.26346 8.97773 3.7269 9.90812 4.19071C9.98597 4.22951 10.0638 4.26832 10.144 4.30829C10.8804 4.67529 11.6166 5.0424 12.3528 5.40986C13.2868 5.87611 14.2212 6.34173 15.156 6.80647C15.8182 7.13578 16.4801 7.4658 17.1417 7.79636C17.5351 7.99291 17.9287 8.18913 18.3227 8.38459C18.6918 8.56777 19.0606 8.75184 19.429 8.93658C19.5637 9.00395 19.6985 9.071 19.8336 9.1377C21.5294 9.97581 21.5294 9.97581 21.9257 10.7397C21.9622 10.8075 21.9987 10.8753 22.0363 10.9451C22.3561 11.7051 22.2419 12.3909 21.9806 13.1424C21.6069 13.8609 21.0915 14.211 20.3776 14.5601C20.2846 14.6071 20.1917 14.654 20.0959 14.7024C19.8309 14.836 19.5653 14.9682 19.2995 15.1C18.9912 15.2535 18.6839 15.4091 18.3765 15.5645C17.5864 15.9634 16.7949 16.3597 16.0033 16.7556C15.7669 16.8738 15.5304 16.9921 15.2941 17.1105C14.4676 17.5241 13.6411 17.9376 12.8145 18.3508C12.0459 18.7351 11.2775 19.1198 10.5092 19.5047C9.84598 19.8369 9.18263 20.1688 8.51916 20.5005C8.12433 20.6979 7.72955 20.8955 7.33492 21.0933C6.96563 21.2784 6.59616 21.4631 6.22655 21.6476C6.09104 21.7153 5.95559 21.7831 5.8202 21.8511C5.63567 21.9437 5.45092 22.0359 5.2661 22.1279C5.11112 22.2055 5.11112 22.2055 4.95301 22.2845C4.29393 22.5851 3.54612 22.5945 2.84757 22.4115C2.1866 22.1588 1.6742 21.5902 1.35343 20.9701C1.04099 20.1175 1.20007 19.3864 1.50028 18.5605C1.5293 18.4792 1.55831 18.3979 1.58821 18.3141C1.9368 17.3456 2.30972 16.3862 2.68351 15.4272C2.75336 15.2473 2.82318 15.0674 2.89298 14.8875C2.92703 14.7999 2.96107 14.7122 2.99615 14.6219C3.06282 14.4501 3.12934 14.2781 3.1957 14.1062C3.33488 13.7461 3.47512 13.387 3.62531 13.0314C3.66909 12.9256 3.71286 12.8199 3.75797 12.711C3.79548 12.6237 3.83299 12.5365 3.87163 12.4465C4.03145 11.8158 3.74885 11.2294 3.51883 10.6499C3.48609 10.5658 3.45334 10.4817 3.4196 10.395C3.31354 10.1229 3.20653 9.85121 3.09952 9.57951C3.02663 9.39289 2.95382 9.20624 2.88108 9.01957C2.73731 8.65084 2.59322 8.28223 2.44881 7.91375C2.193 7.26079 1.93968 6.60689 1.68741 5.95255C1.64971 5.85553 1.61202 5.75851 1.57318 5.65855C1.53933 5.57092 1.50549 5.48328 1.47061 5.39298C1.44197 5.31908 1.41333 5.24518 1.38382 5.16904C1.12118 4.43027 1.076 3.59289 1.40616 2.87052C1.75848 2.26017 2.28562 1.74485 2.97428 1.54301C3.12632 1.51192 3.27816 1.47983 3.42984 1.44706Z" fill="#280659"/>
</svg>
