<svg width="57" height="56" viewBox="0 0 57 56" fill="none" xmlns="http://www.w3.org/2000/svg">
<rect x="0.5" width="56" height="56" rx="28" fill="#EEEEEE"/>
<path d="M20.7782 12.8567C20.8662 12.8562 20.9543 12.8558 21.0451 12.8553C21.3387 12.8539 21.6323 12.8535 21.926 12.853C22.1371 12.8522 22.3482 12.8514 22.5593 12.8505C23.2508 12.8479 23.9424 12.8466 24.6339 12.8453C24.8722 12.8448 25.1104 12.8443 25.3487 12.8438C26.4673 12.8414 27.5859 12.8396 28.7045 12.8386C29.9959 12.8374 31.2873 12.8341 32.5788 12.829C33.5773 12.8252 34.5758 12.8234 35.5744 12.823C36.1707 12.8227 36.7671 12.8216 37.3635 12.8184C37.9239 12.8155 38.4842 12.815 39.0446 12.8163C39.2504 12.8163 39.4562 12.8155 39.662 12.8138C39.9427 12.8116 40.2232 12.8125 40.5038 12.8141C40.7395 12.8137 40.7395 12.8137 40.9799 12.8132C41.3751 12.8751 41.3751 12.8751 41.6753 13.0762C41.9419 13.4751 41.9397 13.7397 41.9428 14.2184C41.9446 14.3455 41.9446 14.3455 41.9465 14.4752C41.95 14.7592 41.9498 15.043 41.9497 15.327C41.9514 15.5308 41.9533 15.7345 41.9554 15.9383C41.9604 16.4927 41.9621 17.0471 41.9629 17.6015C41.9635 17.9494 41.9648 18.2973 41.9664 18.6451C41.9717 19.8633 41.9744 21.0814 41.9746 22.2995C41.9749 23.4268 41.9813 24.5539 41.9905 25.6812C41.9982 26.6538 42.0014 27.6265 42.0013 28.5992C42.0013 29.1778 42.003 29.7563 42.0093 30.3349C42.0354 32.8831 41.9187 35.0448 40.9795 37.4366C40.6392 38.3371 40.8019 38.9897 41.1105 39.8888C41.1557 40.0243 41.201 40.1598 41.2477 40.2994C41.3437 40.5811 41.4401 40.8627 41.5367 41.1441C41.5817 41.279 41.6266 41.4139 41.673 41.5528C41.7147 41.6748 41.7565 41.7967 41.7995 41.9223C41.8792 42.2679 41.8887 42.4269 41.7501 42.7501C41.6082 42.949 41.6082 42.949 41.3751 43.1251C41.0071 43.1723 41.0071 43.1723 40.5476 43.1727C40.4631 43.1733 40.3786 43.1739 40.2915 43.1745C40.0077 43.176 39.7239 43.1748 39.4401 43.1736C39.2368 43.1741 39.0335 43.1748 38.8302 43.1756C38.2772 43.1773 37.7242 43.1767 37.1712 43.1755C36.5919 43.1745 36.0125 43.1754 35.4331 43.176C34.4589 43.1767 33.4847 43.1758 32.5105 43.174C31.3868 43.172 30.2632 43.1726 29.1396 43.1747C28.1737 43.1764 27.2079 43.1766 26.2421 43.1756C25.6658 43.1751 25.0895 43.175 24.5132 43.1762C23.9701 43.1773 23.4271 43.1765 22.884 43.1744C22.6857 43.1739 22.4874 43.174 22.2891 43.1749C20.5211 43.1816 18.8515 43.0211 17.4957 41.7643C16.1011 40.2571 16.0875 38.54 16.0908 36.5875C16.0902 36.3704 16.0896 36.1532 16.0888 35.9361C16.0872 35.3493 16.0871 34.7625 16.0874 34.1757C16.0875 33.6846 16.0869 33.1935 16.0863 32.7024C16.085 31.5433 16.0849 30.3842 16.0857 29.2251C16.0864 28.0319 16.0849 26.8388 16.0822 25.6456C16.08 24.6186 16.0793 23.5916 16.0797 22.5646C16.0799 21.9524 16.0796 21.3401 16.0778 20.7279C16.0762 20.152 16.0765 19.5761 16.0781 19.0002C16.0784 18.7897 16.0781 18.5793 16.077 18.3688C16.0693 16.6706 16.1681 15.288 17.3751 14.0001C18.3183 13.0818 19.5046 12.861 20.7782 12.8567ZM18.2501 15.0001C17.6677 15.8058 17.4842 16.5365 17.4851 17.5228C17.4849 17.6783 17.4847 17.8338 17.4846 17.994C17.485 18.1653 17.4855 18.3365 17.4859 18.5078C17.486 18.6889 17.4859 18.8701 17.4859 19.0512C17.4858 19.5421 17.4866 20.033 17.4874 20.5239C17.4882 21.0373 17.4883 21.5506 17.4884 22.0639C17.4888 23.0356 17.4899 24.0073 17.4911 24.979C17.4925 26.0854 17.4932 27.1918 17.4938 28.2982C17.4951 30.5739 17.4973 32.8495 17.5001 35.1251C17.5743 35.0743 17.6484 35.0235 17.7248 34.9712C17.8732 34.8707 17.8732 34.8707 18.0245 34.7682C18.1219 34.7019 18.2192 34.6357 18.3195 34.5674C19.2763 33.9654 20.0962 33.855 21.2501 33.7501C21.2501 27.3151 21.2501 20.8801 21.2501 14.2501C20.2084 14.2501 19.0746 14.2658 18.2501 15.0001ZM22.6251 14.2501C22.6251 20.6851 22.6251 27.1201 22.6251 33.7501C28.5239 33.7501 34.4226 33.7501 40.5001 33.7501C40.5001 27.3151 40.5001 20.8801 40.5001 14.2501C34.6014 14.2501 28.7026 14.2501 22.6251 14.2501ZM18.2501 36.2501C17.58 37.1808 17.4667 38.1272 17.6251 39.2501C17.8901 40.1188 18.364 40.7569 19.1251 41.2501C19.9679 41.6865 20.7775 41.7659 21.7159 41.7651C21.9622 41.7654 21.9622 41.7654 22.2135 41.7657C22.3934 41.7652 22.5732 41.7648 22.753 41.7643C22.944 41.7643 23.135 41.7643 23.3261 41.7644C23.8428 41.7644 24.3595 41.7637 24.8762 41.7628C25.4169 41.762 25.9576 41.7619 26.4983 41.7618C27.5213 41.7614 28.5444 41.7604 29.5674 41.7591C30.7325 41.7577 31.8975 41.757 33.0626 41.7564C35.4584 41.7551 37.8543 41.7529 40.2501 41.7501C40.2185 41.662 40.1869 41.5739 40.1543 41.4831C40.0112 41.0783 39.8728 40.6721 39.7345 40.2657C39.6847 40.1272 39.6349 39.9886 39.5836 39.8458C39.2775 38.9327 39.1985 38.2941 39.5001 37.3751C39.5284 37.2829 39.5567 37.1908 39.5858 37.0958C39.6613 36.856 39.7433 36.6196 39.8282 36.3829C40.0526 35.7703 40.0526 35.7703 40.1251 35.1251C37.5369 35.1134 34.9486 35.1046 32.3604 35.0992C31.1585 35.0966 29.9567 35.0931 28.7549 35.0874C27.7071 35.0824 26.6594 35.0792 25.6116 35.0781C25.0571 35.0774 24.5025 35.0759 23.948 35.0722C23.4254 35.0688 22.9029 35.0678 22.3804 35.0686C22.1892 35.0684 21.9979 35.0674 21.8067 35.0655C20.4018 35.0521 19.2648 35.1893 18.2501 36.2501Z" fill="#764895"/>
<path d="M25.8819 17.0921C26.041 17.0905 26.041 17.0905 26.2032 17.0889C26.3198 17.089 26.4363 17.0891 26.5564 17.0892C26.679 17.0884 26.8016 17.0875 26.9279 17.0867C27.3346 17.0843 27.7413 17.0838 28.148 17.0835C28.4298 17.0827 28.7116 17.0819 28.9934 17.081C29.5847 17.0795 30.176 17.0791 30.7673 17.0792C31.5262 17.0792 32.2851 17.0758 33.0439 17.0715C33.6261 17.0687 34.2083 17.0682 34.7904 17.0684C35.0703 17.0681 35.3501 17.067 35.63 17.065C36.0209 17.0626 36.4116 17.0633 36.8025 17.0648C36.9188 17.0634 37.0352 17.062 37.155 17.0605C37.9306 17.0682 37.9306 17.0682 38.2594 17.3397C38.3919 17.6672 38.4226 17.9062 38.4236 18.2596C38.4248 18.3855 38.426 18.5115 38.4272 18.6413C38.4264 18.7766 38.4257 18.9119 38.4249 19.0513C38.4252 19.1909 38.4256 19.3305 38.426 19.4744C38.4262 19.7694 38.4255 20.0644 38.424 20.3595C38.422 20.8113 38.4239 21.263 38.4263 21.7149C38.4261 22.0015 38.4256 22.2881 38.4249 22.5748C38.4256 22.71 38.4264 22.8453 38.4272 22.9847C38.4254 23.1737 38.4254 23.1737 38.4236 23.3665C38.4233 23.4771 38.423 23.5878 38.4227 23.7018C38.36 24.0951 38.3106 24.2431 38.0001 24.5005C37.6061 24.5761 37.2161 24.5675 36.816 24.5632C36.6339 24.5643 36.6339 24.5643 36.4482 24.5653C36.0462 24.5669 35.6443 24.5648 35.2423 24.5625C34.9634 24.5626 34.6846 24.5628 34.4058 24.5631C33.8211 24.5633 33.2365 24.5617 32.6518 24.5589C31.9015 24.5553 31.1512 24.5556 30.4008 24.5572C29.825 24.5581 29.2492 24.5571 28.6733 24.5556C28.3966 24.555 28.1199 24.555 27.8432 24.5555C27.4568 24.5558 27.0705 24.5538 26.6842 24.551C26.5117 24.5519 26.5117 24.5519 26.3358 24.5527C26.2307 24.5515 26.1255 24.5503 26.0172 24.549C25.9258 24.5487 25.8345 24.5484 25.7404 24.5481C25.4295 24.4866 25.3175 24.3729 25.1251 24.1255C25.0783 23.8259 25.0783 23.8259 25.0785 23.4673C25.0778 23.333 25.077 23.1987 25.0762 23.0603C25.0773 22.9154 25.0785 22.7705 25.0797 22.6211C25.0796 22.4724 25.0795 22.3237 25.0795 22.1705C25.0798 21.856 25.081 21.5416 25.083 21.2271C25.086 20.7442 25.0856 20.2615 25.0848 19.7786C25.0855 19.4735 25.0864 19.1684 25.0875 18.8633C25.0874 18.7181 25.0872 18.573 25.0871 18.4234C25.0883 18.2895 25.0895 18.1556 25.0907 18.0176C25.0913 17.8994 25.0919 17.7811 25.0925 17.6593C25.1524 17.1373 25.418 17.0942 25.8819 17.0921ZM26.5001 18.5005C26.5001 20.0268 26.5001 21.553 26.5001 23.1255C29.9651 23.1255 33.4301 23.1255 37.0001 23.1255C37.0001 21.5993 37.0001 20.073 37.0001 18.5005C33.5351 18.5005 30.0701 18.5005 26.5001 18.5005Z" fill="#764895"/>
</svg>
