<svg width="57" height="56" viewBox="0 0 57 56" fill="none" xmlns="http://www.w3.org/2000/svg">
<rect x="0.5" width="56" height="56" rx="28" fill="#EEEEEE"/>
<path d="M24.4424 12.9772C24.6038 12.976 24.6038 12.976 24.7685 12.9747C25.1244 12.9723 25.4803 12.9708 25.8362 12.9695C26.0191 12.9688 26.0191 12.9688 26.2057 12.968C26.8517 12.9654 27.4976 12.9636 28.1435 12.9624C28.8081 12.9611 29.4727 12.9568 30.1373 12.9518C30.6505 12.9485 31.1636 12.9475 31.6768 12.947C31.9216 12.9464 32.1664 12.945 32.4112 12.9426C34.2861 12.9259 35.7573 13.0615 37.1951 14.3978C38.4577 15.7051 38.5375 17.1376 38.5154 18.8743C38.5142 19.0444 38.513 19.2145 38.512 19.3846C38.5091 19.7979 38.505 20.2111 38.4998 20.6243C38.7203 20.6233 38.7203 20.6233 38.9453 20.6223C39.4888 20.6201 40.0323 20.6187 40.5757 20.6175C40.8113 20.6168 41.0469 20.616 41.2825 20.6149C41.6204 20.6134 41.9583 20.6127 42.2962 20.6121C42.4552 20.6112 42.4552 20.6112 42.6174 20.6102C42.8699 20.6101 43.1224 20.6166 43.3748 20.6243C43.5812 20.8307 43.5189 21.0731 43.5219 21.3574C43.5243 21.5522 43.5243 21.5522 43.5268 21.751C43.5277 21.8929 43.5286 22.0348 43.5296 22.181C43.5306 22.3268 43.5316 22.4726 43.5326 22.6228C43.5344 22.933 43.5357 23.2432 43.5367 23.5534C43.5388 24.0234 43.5443 24.4933 43.5498 24.9632C43.5511 25.265 43.5522 25.5667 43.553 25.8685C43.5552 26.0073 43.5574 26.1462 43.5596 26.2893C43.5568 27.3365 43.411 28.4405 42.8606 29.3557C42.6859 29.7792 42.7133 30.2123 42.7139 30.6635C42.713 30.7681 42.7122 30.8726 42.7113 30.9803C42.7096 31.2071 42.7085 31.4339 42.7078 31.6606C42.7068 32.0201 42.7042 32.3796 42.7013 32.739C42.6953 33.5029 42.6911 34.2667 42.6873 35.0306C42.6828 35.9142 42.6776 36.7978 42.6703 37.6814C42.6678 38.0346 42.6667 38.3877 42.6658 38.7408C42.6641 38.959 42.6624 39.1772 42.6607 39.3954C42.6609 39.5414 42.6609 39.5414 42.661 39.6903C42.6484 40.8209 42.3837 41.6583 41.6326 42.5306C41.0708 43.0072 40.4988 43.0357 39.7875 43.0319C39.6916 43.0324 39.5956 43.0329 39.4967 43.0334C39.1756 43.0347 38.8546 43.0342 38.5335 43.0337C38.3031 43.0342 38.0727 43.0349 37.8423 43.0356C37.2168 43.0373 36.5913 43.0373 35.9658 43.037C35.4436 43.0369 34.9214 43.0375 34.3992 43.0381C33.1673 43.0395 31.9354 43.0395 30.7036 43.0388C29.4326 43.038 28.1617 43.0396 26.8908 43.0422C25.7996 43.0444 24.7084 43.0452 23.6172 43.0448C22.9655 43.0446 22.3138 43.0449 21.6621 43.0466C21.0493 43.0482 20.4365 43.048 19.8236 43.0463C19.5988 43.046 19.3739 43.0464 19.1491 43.0474C18.842 43.0487 18.535 43.0477 18.2279 43.0461C18.1391 43.047 18.0503 43.048 17.9588 43.0489C17.2807 43.0415 16.7733 42.8762 16.2713 42.4139C16.2126 42.3415 16.154 42.2692 16.0935 42.1946C16.0336 42.1226 15.9737 42.0506 15.9119 41.9764C15.3552 41.1967 15.3565 40.3724 15.359 39.4397C15.3588 39.3359 15.3586 39.2322 15.3583 39.1252C15.3578 38.9008 15.3576 38.6763 15.3575 38.4519C15.3571 37.9727 15.3544 37.4936 15.3519 37.0145C15.3471 36.1238 15.3432 35.2332 15.3435 34.3426C15.3436 33.7217 15.3406 33.1008 15.3357 32.4799C15.3344 32.2446 15.3342 32.0093 15.3352 31.774C15.3397 30.5615 15.3349 29.5318 14.7708 28.4256C14.5135 27.8946 14.4841 27.394 14.4836 26.8107C14.4832 26.676 14.4828 26.5414 14.4824 26.4026C14.4827 26.2586 14.4829 26.1145 14.4832 25.9661C14.4831 25.8175 14.4829 25.6688 14.4828 25.5157C14.4827 25.2022 14.483 24.8887 14.4835 24.5751C14.4842 24.0932 14.4835 23.6112 14.4827 23.1292C14.4828 22.8249 14.4829 22.5205 14.4832 22.2161C14.4828 21.9986 14.4828 21.9986 14.4824 21.7766C14.4828 21.6435 14.4832 21.5104 14.4836 21.3732C14.4837 21.2555 14.4838 21.1377 14.4839 21.0164C14.4998 20.7493 14.4998 20.7493 14.6248 20.6243C14.9853 20.6132 15.3429 20.6099 15.7034 20.6121C15.8654 20.6124 15.8654 20.6124 16.0308 20.6127C16.3772 20.6134 16.7237 20.6149 17.0701 20.6165C17.3044 20.6171 17.5387 20.6177 17.773 20.6182C18.3486 20.6196 18.9242 20.6218 19.4998 20.6243C19.4978 20.5211 19.4959 20.4178 19.4938 20.3114C19.4874 19.9223 19.4827 19.5333 19.4792 19.1442C19.4764 18.8954 19.4716 18.6466 19.4668 18.3978C19.4536 16.6484 19.8508 15.4573 21.0232 14.1556C21.9713 13.2456 23.1763 12.9814 24.4424 12.9772ZM24.8748 13.9993C24.8748 14.9068 24.8748 15.8143 24.8748 16.7493C27.5973 16.7493 30.3198 16.7493 33.1248 16.7493C33.1248 15.8418 33.1248 14.9343 33.1248 13.9993C30.4023 13.9993 27.6798 13.9993 24.8748 13.9993ZM34.2498 14.1243C34.2498 16.2693 34.2498 18.4143 34.2498 20.6243C35.281 20.6243 36.3123 20.6243 37.3748 20.6243C37.3884 20.067 37.3982 19.5099 37.406 18.9525C37.4102 18.796 37.4144 18.6395 37.4187 18.4783C37.4338 17.035 37.1445 16.0433 36.1438 14.9886C35.5599 14.4693 35.0099 14.2764 34.2498 14.1243ZM21.5989 15.2493C20.8737 16.0583 20.6077 16.8706 20.6126 17.9388C20.613 18.0951 20.6134 18.2514 20.6138 18.4124C20.6149 18.5752 20.6159 18.7379 20.617 18.9056C20.6175 19.0703 20.6181 19.2349 20.6187 19.4046C20.6202 19.8112 20.6224 20.2178 20.6248 20.6243C21.656 20.6243 22.6873 20.6243 23.7498 20.6243C23.7498 18.4793 23.7498 16.3343 23.7498 14.1243C22.9431 14.1243 22.1643 14.7257 21.5989 15.2493ZM24.8748 17.8743C24.8748 18.7818 24.8748 19.6893 24.8748 20.6243C27.5973 20.6243 30.3198 20.6243 33.1248 20.6243C33.1248 19.7168 33.1248 18.8093 33.1248 17.8743C30.4023 17.8743 27.6798 17.8743 24.8748 17.8743ZM15.6248 21.7493C15.2748 26.4279 15.2748 26.4279 17.1248 30.2493C18.5102 31.4854 20.0894 31.7706 21.8855 31.7615C22.0176 31.7614 22.1498 31.7612 22.2859 31.761C22.7061 31.7603 23.1264 31.7587 23.5467 31.7571C23.8323 31.7565 24.118 31.7559 24.4036 31.7554C25.1023 31.7541 25.8011 31.752 26.4998 31.7493C26.5152 31.6546 26.5306 31.5599 26.5465 31.4624C26.5677 31.3383 26.5888 31.2143 26.6106 31.0864C26.6415 30.9018 26.6415 30.9018 26.673 30.7135C26.7498 30.3743 26.7498 30.3743 26.9764 29.9808C27.6224 29.6055 28.267 29.6592 28.9998 29.6712C29.1467 29.6688 29.2937 29.6664 29.4451 29.6639C30.0547 29.6673 30.4905 29.6713 31.0232 29.9808C31.2511 30.3766 31.3146 30.6416 31.3889 31.0864C31.4101 31.2105 31.4313 31.3346 31.4531 31.4624C31.4685 31.5571 31.4839 31.6518 31.4998 31.7493C32.3245 31.7589 33.1492 31.7654 33.974 31.7699C34.2539 31.7718 34.5338 31.7744 34.8137 31.7776C37.1942 31.8047 39.1193 31.7611 40.9998 30.1243C41.2408 29.8252 41.2408 29.8252 41.4451 29.4915C41.5149 29.3844 41.5846 29.2772 41.6565 29.1668C42.9946 26.6074 42.3748 25.2207 42.3748 21.7493C33.5473 21.7493 24.7198 21.7493 15.6248 21.7493ZM27.6248 30.8743C27.5879 31.2345 27.5879 31.2345 27.596 31.6556C27.5962 31.8116 27.5965 31.9675 27.5967 32.1282C27.5982 32.2919 27.5998 32.4557 27.6014 32.6243C27.6014 32.788 27.6015 32.9518 27.6016 33.1204C27.5623 33.8953 27.5623 33.8953 27.7498 34.6243C28.5748 34.6243 29.3998 34.6243 30.2498 34.6243C30.5358 34.0523 30.3979 33.2525 30.3982 32.6243C30.4005 32.3788 30.4005 32.3788 30.4029 32.1282C30.4031 31.9723 30.4033 31.8163 30.4036 31.6556C30.4041 31.5119 30.4046 31.3681 30.4052 31.22C30.4105 30.8565 30.4105 30.8565 30.1248 30.6243C29.887 30.5857 29.887 30.5857 29.617 30.5911C29.5174 30.5908 29.4178 30.5905 29.3152 30.5902C29.2111 30.5911 29.107 30.5921 28.9998 30.5931C28.8957 30.5921 28.7916 30.5911 28.6844 30.5902C28.535 30.5906 28.535 30.5906 28.3826 30.5911C28.2912 30.5914 28.1999 30.5917 28.1057 30.592C27.8439 30.605 27.8439 30.605 27.6248 30.8743ZM16.4998 31.1243C16.4911 32.3316 16.4844 33.5388 16.4804 34.746C16.4784 35.3067 16.4758 35.8673 16.4715 36.4279C16.4674 36.9693 16.4652 37.5107 16.4642 38.0521C16.4635 38.2583 16.4622 38.4644 16.4601 38.6706C16.4574 38.9602 16.457 39.2498 16.4572 39.5394C16.4564 39.704 16.4556 39.8686 16.4547 40.0382C16.5198 40.704 16.6895 41.1938 17.1795 41.6712C17.8308 42.0842 18.1606 41.9993 18.9998 41.9993C18.9998 38.8643 18.9998 35.7293 18.9998 32.4993C18.4429 32.2518 18.4429 32.2518 17.8748 31.9993C17.6649 31.8733 17.4579 31.7418 17.2576 31.6009C16.89 31.3436 16.89 31.3436 16.4998 31.1243ZM40.9295 31.4681C40.3305 31.9238 39.7138 32.2613 38.9998 32.4993C38.9998 35.6343 38.9998 38.7693 38.9998 41.9993C40.0162 42.0082 40.0162 42.0082 40.8748 41.6243C41.4983 40.9844 41.5185 40.4419 41.514 39.582C41.514 39.4905 41.514 39.3989 41.514 39.3047C41.5139 39.003 41.513 38.7014 41.512 38.3997C41.5118 38.1902 41.5116 37.9808 41.5115 37.7713C41.511 37.2206 41.5098 36.6698 41.5084 36.1191C41.5071 35.5569 41.5065 34.9947 41.5059 34.4324C41.5046 33.3297 41.5024 32.227 41.4998 31.1243C41.2709 31.1243 41.1021 31.3316 40.9295 31.4681ZM20.1248 32.8743C20.1248 35.8856 20.1248 38.8968 20.1248 41.9993C20.5373 41.9993 20.9498 41.9993 21.3748 41.9993C21.3748 38.9881 21.3748 35.9768 21.3748 32.8743C20.9623 32.8743 20.5498 32.8743 20.1248 32.8743ZM22.4998 32.8743C22.4998 35.8856 22.4998 38.8968 22.4998 41.9993C26.7898 41.9993 31.0798 41.9993 35.4998 41.9993C35.4998 38.9881 35.4998 35.9768 35.4998 32.8743C34.1798 32.8743 32.8598 32.8743 31.4998 32.8743C31.4585 33.4106 31.4173 33.9468 31.3748 34.4993C31.1266 35.2911 31.1266 35.2911 30.7793 35.519C30.2166 35.7311 29.6017 35.6652 29.0076 35.6634C28.8042 35.6664 28.8042 35.6664 28.5967 35.6695C28.4001 35.6696 28.4001 35.6696 28.1995 35.6697C28.0803 35.6701 27.961 35.6705 27.8382 35.6709C27.422 35.6136 27.201 35.5149 26.8748 35.2493C26.6248 34.4993 26.6248 34.4993 26.4998 32.8743C25.1798 32.8743 23.8598 32.8743 22.4998 32.8743ZM36.6248 32.8743C36.6248 35.8856 36.6248 38.8968 36.6248 41.9993C37.0373 41.9993 37.4498 41.9993 37.8748 41.9993C37.8748 38.9881 37.8748 35.9768 37.8748 32.8743C37.4623 32.8743 37.0498 32.8743 36.6248 32.8743Z" fill="#764895"/>
</svg>
