<svg width="48" height="48" viewBox="0 0 48 48" fill="none" xmlns="http://www.w3.org/2000/svg">
<g clip-path="url(#clip0_9_3779)">
<path d="M25.867 0.949802C27.0428 1.5968 27.8202 2.44489 28.2407 3.72788C28.3307 4.22551 28.3302 4.69758 28.3242 5.20298C28.3225 5.38763 28.3208 5.57229 28.3191 5.76255C28.3158 5.97282 28.3158 5.97282 28.3125 6.18735C28.4943 6.23545 28.676 6.28355 28.8633 6.3331C31.5331 7.07997 33.8936 8.30511 36 10.1249C37.0926 9.64522 37.9764 8.8719 38.625 7.87485C38.6452 7.2071 38.5256 6.66882 38.3657 6.02182C38.1659 5.0127 38.4835 4.26083 39.0271 3.4166C39.651 2.60647 40.4141 2.02105 41.4375 1.87485C42.5399 1.80135 43.473 1.85785 44.4375 2.43735C45.5295 3.40924 46.0516 4.31632 46.1953 5.77719C46.1578 6.86594 45.8029 7.83833 45.011 8.59995C44.0798 9.3168 43.3982 9.59011 42.2109 9.59751C42.0181 9.60017 41.8252 9.60282 41.6265 9.60556C41.0625 9.56235 41.0625 9.56235 40.125 9.18735C39.3206 9.99173 38.5163 10.7961 37.6875 11.6249C37.8422 11.8221 37.9969 12.0193 38.1563 12.2225C39.0104 13.3594 39.9677 14.6632 40.4788 15.9959C40.6721 16.3622 40.6721 16.3622 41.157 16.4559C41.3462 16.4859 41.5355 16.5158 41.7305 16.5467C43.0138 16.8305 43.7789 17.3802 44.625 18.3749C45.3213 19.472 45.3203 20.6715 45.1875 21.9374C45.0702 22.2528 44.9466 22.5661 44.8125 22.8749C44.7846 23.2638 44.7846 23.2638 45 23.6249C45.2762 23.8458 45.5527 24.0664 45.832 24.2833C46.8574 25.2599 47.0912 26.6831 47.1248 28.0322C47.1274 28.1827 47.1301 28.3331 47.1328 28.4881C47.1433 28.7127 47.1433 28.7127 47.1541 28.9419C47.165 29.6785 47.1059 30.107 46.7505 30.7645C45.8957 31.2569 45.2308 31.1648 44.2611 31.1212C42.2883 30.9634 42.2883 30.9634 40.486 31.5844C39.9087 32.2827 39.6167 33.0901 39.3307 33.941C39.121 34.4849 38.795 34.8971 38.4258 35.3436C38.3192 35.4731 38.2126 35.6027 38.1028 35.7362C38.0276 35.8232 37.9525 35.9102 37.875 35.9998C38.2454 36.4415 38.6217 36.8775 39 37.3123C39.1586 37.498 39.3171 37.6836 39.4805 37.8748C39.7067 38.0605 39.7067 38.0605 39.9375 38.2498C40.3778 38.1858 40.3778 38.1858 40.875 38.0623C42.324 37.9505 43.4605 37.8855 44.625 38.8123C45.5203 39.5973 45.9275 40.3528 46.103 41.5333C46.1595 42.7323 45.7617 43.6985 45 44.6248C43.9967 45.4902 43.1865 45.8179 41.8396 45.7879C40.7156 45.6815 39.9776 45.3026 39.2109 44.4725C38.4411 43.5098 38.2107 42.7178 38.2002 41.4791C38.2706 40.8897 38.4619 40.3206 38.625 39.7498C37.9444 39.0692 37.2638 38.3886 36.5625 37.6873C35.887 38.0251 35.4215 38.3649 34.8399 38.8358C33.3364 39.9829 31.6075 40.839 29.8125 41.4373C29.8744 41.65 29.9363 41.8627 30 42.0819C30.1969 42.9766 30.2422 43.8528 30.2578 44.7655C30.2651 44.9716 30.2651 44.9716 30.2725 45.1818C30.2749 45.8397 30.2226 46.2556 29.8741 46.8191C29.3358 47.3502 29.111 47.3682 28.366 47.3712C28.1507 47.3741 27.9355 47.3771 27.7137 47.3801C27.4821 47.3782 27.2504 47.3763 27.0117 47.3744C26.7732 47.3753 26.5346 47.3762 26.2889 47.3771C25.7844 47.3777 25.2803 47.3765 24.7758 47.3721C24.1301 47.3667 23.4847 47.3698 22.839 47.3754C22.2221 47.3796 21.6052 47.3767 20.9883 47.3744C20.7566 47.3763 20.525 47.3782 20.2863 47.3801C19.9634 47.3757 19.9634 47.3757 19.634 47.3712C19.4448 47.3704 19.2555 47.3697 19.0605 47.3689C18.3732 47.2046 18.1779 46.9032 17.8125 46.3123C17.748 45.7678 17.7232 45.3063 17.7422 44.7655C17.7458 44.5538 17.7458 44.5538 17.7495 44.3378C17.7773 43.3311 17.9054 42.4071 18.1875 41.4373C17.9949 41.3578 17.8022 41.2783 17.6038 41.1964C15.4083 40.2737 13.5118 39.1469 11.625 37.6873C10.9444 38.368 10.2638 39.0486 9.56251 39.7498C9.68626 40.183 9.81001 40.6161 9.93751 41.0623C10.1213 42.3991 9.71785 43.3796 8.95313 44.4842C8.03017 45.4072 7.26951 45.5952 6.00001 45.6444C4.78492 45.608 4.1157 45.3655 3.24024 44.4901C2.27993 43.4211 2.16195 42.5614 2.1731 41.1319C2.30758 40.0267 2.84963 39.2746 3.67384 38.5494C4.64374 37.8541 5.5836 37.7846 6.75001 37.8748C7.26117 37.9748 7.74836 38.1065 8.25001 38.2498C8.38536 38.0797 8.52071 37.9095 8.66017 37.7342C9.09873 37.2054 9.57201 36.7856 10.125 36.3748C9.72544 35.4859 9.14007 34.7068 8.58912 33.9073C8.02242 33.0717 7.5604 32.2236 7.12501 31.3123C6.97088 31.3116 6.81675 31.3108 6.65795 31.31C5.95803 31.3038 5.25842 31.2906 4.5586 31.2772C4.31606 31.2761 4.07351 31.275 3.82362 31.2739C3.58977 31.2685 3.35593 31.263 3.115 31.2574C2.89996 31.2545 2.68493 31.2515 2.46337 31.2485C1.69741 31.0875 1.41469 30.7973 0.937509 30.1873C0.822153 29.7949 0.822153 29.7949 0.826181 29.4102C0.826664 29.2678 0.827148 29.1253 0.827646 28.9785C0.832963 28.8321 0.83828 28.6858 0.843759 28.535C0.843276 28.3908 0.842792 28.2467 0.842294 28.0981C0.867485 26.6056 1.32963 25.3784 2.25001 24.1874C2.76563 23.742 2.76563 23.742 3.18751 23.4374C3.06454 22.7605 3.06454 22.7605 2.81251 22.1249C2.66395 20.4054 2.74683 19.1579 3.8672 17.8248C4.60849 17.082 5.13729 16.834 6.17579 16.6991C6.75941 16.5838 7.16347 16.4902 7.55393 16.0242C7.95346 15.3982 8.27604 14.7381 8.60377 14.0726C9.07877 13.1146 9.73995 12.3704 10.5 11.6249C9.42513 10.2473 9.42513 10.2473 8.06251 9.18735C7.50335 9.29017 7.50335 9.29017 6.93751 9.56235C5.72527 9.73423 4.74628 9.52967 3.75001 8.81235C2.75933 7.88538 2.24635 7.02635 2.1797 5.66001C2.20595 4.55736 2.51245 3.71231 3.26734 2.89951C4.3528 1.93746 5.35634 1.78868 6.761 1.81626C7.80609 1.92729 8.45673 2.39757 9.15235 3.17563C9.75566 4.02026 9.98886 4.66886 9.97267 5.70688C9.97146 5.8768 9.97025 6.04671 9.969 6.22177C9.93751 6.74985 9.93751 6.74985 9.77784 7.30869C9.6865 7.91801 9.6865 7.91801 10.1829 8.43589C10.3752 8.61952 10.5709 8.79964 10.7695 8.97641C10.8688 9.06971 10.968 9.163 11.0702 9.25913C11.3148 9.48829 11.5633 9.71325 11.8125 9.93735C12.328 9.68827 12.8122 9.41512 13.2949 9.10752C15.3375 7.82135 17.3007 6.69225 19.6875 6.18735C19.6766 6.04668 19.6658 5.90601 19.6546 5.76108C19.5903 4.3034 19.7891 3.27262 20.625 2.06235C22.0356 0.651764 23.9901 0.272957 25.867 0.949802ZM21.8672 3.49204C21.4775 4.30132 21.4301 4.92985 21.5625 5.81235C21.906 6.67096 22.4326 7.08344 23.25 7.49985C24.0785 7.66357 24.6176 7.56729 25.3711 7.18344C26.0006 6.64178 26.3708 6.25711 26.4968 5.41684C26.5366 4.6518 26.4698 4.19184 26.1328 3.49204C25.4959 2.78812 24.9428 2.48489 24 2.36704C23.0572 2.48489 22.5041 2.78812 21.8672 3.49204ZM4.32423 4.44126C4.02687 5.08844 3.97968 5.68653 4.12501 6.37485C4.4537 6.94092 4.84318 7.39018 5.43751 7.68735C6.20263 7.76092 6.66658 7.72513 7.3711 7.4061C7.93482 6.88171 8.10358 6.56007 8.24049 5.81748C8.25618 5.19114 8.0397 4.81716 7.68751 4.31235C6.60333 3.26431 5.43075 3.47751 4.32423 4.44126ZM40.3359 4.72251C40.0501 5.43701 40.0772 6.03082 40.3125 6.74985C40.7967 7.41912 41.101 7.64401 41.8945 7.87485C42.673 7.87485 43.0464 7.74945 43.6875 7.31235C44.2118 6.73734 44.2943 6.28602 44.2617 5.5311C44.1654 4.91052 44.0303 4.54597 43.5703 4.11313C42.3084 3.38869 41.2634 3.64046 40.3359 4.72251ZM13.7531 11.1773C13.6077 11.325 13.4623 11.4727 13.3125 11.6249C14.442 12.7804 15.5745 13.9329 16.711 15.0816C17.2386 15.6151 17.765 16.1495 18.2892 16.6864C18.7949 17.2043 19.3033 17.7195 19.8137 18.2328C20.0081 18.4293 20.2015 18.6267 20.3938 18.8251C20.6632 19.1027 20.9359 19.3765 21.2096 19.6497C21.4413 19.8851 21.4413 19.8851 21.6777 20.1253C22.1022 20.4924 22.1022 20.4924 22.6191 20.3948C22.7654 20.347 22.9118 20.2991 23.0625 20.2499C23.4058 20.2286 23.7498 20.2171 24.0938 20.2147C24.2658 20.212 24.4379 20.2094 24.6152 20.2066C25.125 20.2499 25.125 20.2499 26.0625 20.6249C28.9706 17.7167 31.8788 14.8086 34.875 11.8124C33.2981 10.2354 30.9543 8.57794 28.6875 8.24985C28.7825 8.40973 28.7825 8.40973 28.8794 8.57285C28.963 8.71763 29.0467 8.8624 29.1328 9.01157C29.2155 9.15296 29.2981 9.29436 29.3833 9.44004C29.92 10.5443 30.0643 11.5788 30.0586 12.785C30.0616 12.9159 30.0646 13.0468 30.0678 13.1816C30.0683 13.7387 30.045 14.1655 29.7803 14.6615C29.3118 15.1239 29.0359 15.0949 28.3843 15.0969C28.1684 15.0993 27.9525 15.1016 27.7301 15.1041C27.4969 15.1025 27.2637 15.101 27.0234 15.0995C26.7842 15.1002 26.5449 15.1009 26.2984 15.1016C25.7921 15.1021 25.286 15.1011 24.7797 15.0976C24.1308 15.0934 23.4822 15.0958 22.8333 15.1003C22.2144 15.1037 21.5955 15.1013 20.9766 15.0995C20.7434 15.101 20.5102 15.1025 20.2699 15.1041C19.9461 15.1005 19.9461 15.1005 19.6157 15.0969C19.4255 15.0963 19.2352 15.0957 19.0392 15.0951C18.5625 14.9999 18.5625 14.9999 18.2201 14.6632C17.8855 14.0348 17.9167 13.409 17.9297 12.7147C17.9313 12.5719 17.933 12.4291 17.9346 12.282C17.976 10.694 18.365 9.52407 19.3125 8.24985C17.5207 8.24985 14.9639 9.98347 13.7531 11.1773ZM21.1524 9.07016C20.4412 9.73389 20.1059 10.164 19.6875 11.0624C19.6875 11.8667 19.6875 12.6711 19.6875 13.4999C22.5338 13.4999 25.38 13.4999 28.3125 13.4999C28.3954 11.4274 28.3954 11.4274 27.5625 9.74985C27.05 9.25014 26.6051 8.8566 25.875 8.81235C25.7049 8.87036 25.5347 8.92837 25.3594 8.98813C24.3383 9.32195 23.4788 9.2743 22.4766 8.95298C21.7568 8.74288 21.7568 8.74288 21.1524 9.07016ZM11.8125 12.9374C11.0477 13.7204 10.4364 14.5854 9.84376 15.5038C9.64363 15.8123 9.64363 15.8123 9.43946 16.127C9.13001 16.6551 9.13001 16.6551 9.30543 17.1078C9.5795 17.473 9.5795 17.473 10.0195 17.8944C10.9003 18.7751 11.2699 19.6145 11.2969 20.8475C11.2907 21.7825 11.03 22.5749 10.6875 23.4374C10.8369 23.5534 10.8369 23.5534 10.9893 23.6717C12.2923 24.737 12.9039 25.7001 13.125 27.3748C13.1553 27.8157 13.1745 28.2573 13.1836 28.6991C13.1906 28.9217 13.1976 29.1443 13.2048 29.3736C13.1061 30.148 12.9747 30.435 12.375 30.9373C11.8279 31.0737 11.2964 31.0855 10.7344 31.0897C10.5857 31.0944 10.4371 31.0991 10.2839 31.104C9.91857 31.115 9.55303 31.1205 9.18751 31.1248C9.7892 32.453 10.501 33.5701 11.4375 34.6873C11.8088 34.5945 11.8088 34.5945 12.1875 34.4998C12.1875 34.3761 12.1875 34.2523 12.1875 34.1248C12.5588 33.9392 12.5588 33.9392 12.9375 33.7498C12.9375 33.6261 12.9375 33.5023 12.9375 33.3748C13.0482 33.3277 13.1589 33.2806 13.273 33.232C13.7394 32.9708 13.9839 32.698 14.3203 32.285C14.8784 31.6242 15.4508 31.1017 16.125 30.5623C16.5589 30.1758 16.5589 30.1758 16.875 29.8123C16.875 29.6886 16.875 29.5648 16.875 29.4373C16.9988 29.4373 17.1225 29.4373 17.25 29.4373C17.5073 29.1763 17.5073 29.1763 17.7656 28.8397C18.1507 28.3711 18.5322 27.9739 19.0078 27.5975C19.2515 27.3945 19.2515 27.3945 19.5 27.1873C19.5 27.0636 19.5 26.9398 19.5 26.8123C19.6238 26.8123 19.7475 26.8123 19.875 26.8123C19.875 26.6886 19.875 26.5648 19.875 26.4373C19.9988 26.4373 20.1225 26.4373 20.25 26.4373C20.25 26.3136 20.25 26.1898 20.25 26.0623C20.3738 26.0623 20.4975 26.0623 20.625 26.0623C20.5958 25.9623 20.5665 25.8622 20.5364 25.7591C20.1442 24.258 20.2219 22.9951 20.8125 21.5624C19.6955 20.4367 18.5775 19.312 17.4583 18.1887C16.9386 17.6671 16.4193 17.1451 15.9008 16.6223C15.4007 16.1182 14.8998 15.615 14.3982 15.1124C14.2066 14.9202 14.0154 14.7276 13.8245 14.5347C13.5578 14.2653 13.2898 13.9972 13.0218 13.7291C12.8694 13.5759 12.7171 13.4227 12.56 13.2648C12.2232 12.8961 12.2232 12.8961 11.8125 12.9374ZM36 13.1249C34.8629 14.2141 33.7315 15.3089 32.6069 16.4111C32.0845 16.9228 31.5603 17.4323 31.0317 17.9375C30.5214 18.4254 30.0164 18.9182 29.5145 19.4147C29.3224 19.603 29.1284 19.7895 28.9327 19.9741C27.8261 20.9332 27.8261 20.9332 27.3451 22.2347C27.441 22.6643 27.5784 23.0335 27.75 23.4374C27.7522 23.9449 27.7522 23.9449 27.6914 24.3397C27.6728 24.4724 27.6542 24.6051 27.635 24.7418C27.5625 25.1248 27.5625 25.1248 27.415 25.4679C27.3261 25.9073 27.3261 25.9073 27.687 26.2996C27.9225 26.5319 27.9225 26.5319 28.1627 26.769C28.2486 26.855 28.3345 26.9411 28.4231 27.0298C28.708 27.3141 28.9962 27.5949 29.2844 27.8758C29.4825 28.0721 29.6803 28.2686 29.878 28.4653C30.399 28.9828 30.9228 29.4974 31.4473 30.0115C31.9818 30.5364 32.5137 31.064 33.0458 31.5914C34.0905 32.626 35.138 33.6576 36.1875 34.6873C37.3452 34.3015 37.993 32.8089 38.5195 31.7577C38.6162 31.5488 38.7129 31.34 38.8125 31.1248C38.4804 31.1209 38.4804 31.1209 38.1416 31.1168C37.8496 31.108 37.5576 31.099 37.2656 31.0897C37.1199 31.0886 36.9741 31.0875 36.824 31.0864C36.0861 31.058 35.7333 31.0276 35.1526 30.5433C34.5025 29.2706 34.743 27.4787 35.1094 26.1327C35.3527 25.4318 35.6863 24.9279 36.1875 24.3749C36.1875 24.2511 36.1875 24.1273 36.1875 23.9999C36.3035 23.9457 36.4195 23.8916 36.5391 23.8358C36.9625 23.6366 36.9625 23.6366 37.3125 23.2499C37.2197 23.0372 37.1269 22.8245 37.0313 22.6053C36.5559 21.3219 36.608 20.1542 37.1404 18.8971C37.5473 18.1058 38.082 17.5581 38.8125 17.0624C38.557 16.1556 38.1548 15.4359 37.6172 14.6717C37.5447 14.5637 37.4722 14.4556 37.3975 14.3443C36.9831 13.7478 36.6589 13.417 36 13.1249ZM4.91017 19.4764C4.50975 20.193 4.45396 20.7742 4.6172 21.5741C4.99345 22.3779 5.49107 22.857 6.23438 23.3319C7.02516 23.4936 7.69533 23.3743 8.43751 23.0624C9.16282 22.4465 9.54241 21.8035 9.6211 20.8592C9.60754 20.0292 9.36925 19.5673 8.81251 18.9374C7.33918 17.9551 6.10508 18.2403 4.91017 19.4764ZM38.7422 19.4413C38.3732 20.1935 38.2735 20.7406 38.4375 21.5624C38.8191 22.2847 39.213 22.8565 39.9375 23.2499C40.7604 23.4872 41.2829 23.4777 42.0469 23.1209C42.8382 22.6725 43.2086 22.2969 43.4649 21.41C43.5086 20.6666 43.413 20.1884 43.125 19.4999C42.5159 18.8398 41.9202 18.3976 41.0156 18.328C39.981 18.3969 39.429 18.6641 38.7422 19.4413ZM22.1602 22.6991C21.8415 23.4874 21.865 24.1296 22.125 24.9373C22.5844 25.4864 22.9124 25.7936 23.6184 25.9635C24.3703 26.0198 24.7302 25.8864 25.3945 25.4998C25.9113 24.8949 26.0538 24.5858 26.0947 23.8116C26.0427 23.2072 25.8414 22.8068 25.5 22.3124C24.5109 21.5064 22.9499 21.8004 22.1602 22.6991ZM4.10157 25.0311C3.43986 25.6065 3.1406 25.9921 2.81251 26.8123C2.81251 27.6167 2.81251 28.4211 2.81251 29.2498C5.65876 29.2498 8.50501 29.2498 11.4375 29.2498C11.4587 27.0744 11.4587 27.0744 10.4334 25.3805C10.1313 25.0647 10.1313 25.0647 9.56251 24.7498C9.02558 24.7666 9.02558 24.7666 8.66017 24.8619C8.10989 24.9631 7.57872 24.9602 7.01954 24.9608C6.71754 24.9615 6.71754 24.9615 6.40943 24.9623C5.81251 24.9373 5.81251 24.9373 5.21119 24.8246C4.65975 24.6964 4.65975 24.6964 4.10157 25.0311ZM38.0603 24.9315C37.3101 25.617 36.8425 26.1828 36.5625 27.1873C36.5625 27.868 36.5625 28.5486 36.5625 29.2498C39.4088 29.2498 42.255 29.2498 45.1875 29.2498C45.2669 26.9731 45.2669 26.9731 44.1797 25.3475C43.6669 24.9202 43.4088 24.7845 42.75 24.7498C42.5644 24.8117 42.3788 24.8736 42.1875 24.9373C41.762 24.9553 41.336 24.9617 40.9102 24.9608C40.6847 24.9613 40.4592 24.9618 40.2268 24.9623C39.5625 24.9373 39.5625 24.9373 38.959 24.8128C38.4471 24.7035 38.4471 24.7035 38.0603 24.9315ZM21.9375 27.1873C19.0294 30.0955 16.1213 33.0036 13.125 35.9998C14.1213 37.9925 16.9392 39.0071 18.9375 39.7498C19.4459 39.9037 19.4459 39.9037 19.875 39.9373C20.2192 39.6873 20.2192 39.6873 20.4375 39.3748C20.3447 39.2008 20.2519 39.0268 20.1563 38.8475C19.6945 37.7463 19.6951 36.6321 20.02 35.4901C20.4806 34.4057 21.09 33.7344 22.136 33.1888C23.3781 32.7632 24.6374 32.7474 25.8706 33.2086C27.0182 33.8365 27.6649 34.5288 28.0452 35.7962C28.3236 37.1602 28.1204 38.3071 27.5625 39.5623C28.1566 39.8833 28.4294 39.9525 29.0999 39.8084C31.2262 39.0084 33.2448 38.0016 34.875 36.3748C34.875 35.6215 34.6262 35.4853 34.1071 34.9508C33.9392 34.7769 33.7714 34.6031 33.5985 34.424C33.4128 34.235 33.227 34.0462 33.041 33.8575C32.9477 33.7624 32.8545 33.6673 32.7583 33.5693C32.2646 33.0661 31.7692 32.5645 31.2724 32.0643C30.7596 31.5473 30.2526 31.025 29.7469 30.5011C29.3569 30.0992 28.9628 29.7015 28.5674 29.3049C28.3786 29.1141 28.1915 28.9218 28.0059 28.7278C27.0685 27.65 27.0685 27.65 25.8087 27.157C25.3515 27.2573 25.3515 27.2573 24.75 27.5623C24.2263 27.6122 24.2263 27.6122 23.7774 27.6092C23.5529 27.6107 23.5529 27.6107 23.324 27.6122C22.875 27.5623 22.875 27.5623 21.9375 27.1873ZM21.8672 35.5428C21.4596 36.4051 21.3844 37.1245 21.5625 38.0623C21.8715 38.6584 22.3055 39.0398 22.8399 39.4452C23.7999 39.7195 24.4975 39.691 25.3711 39.2459C26.0006 38.7043 26.3708 38.3196 26.4968 37.4793C26.5366 36.7143 26.4698 36.2543 26.1328 35.5545C25.4959 34.8506 24.9428 34.5474 24 34.4295C23.0627 34.5467 22.5084 34.851 21.8672 35.5428ZM4.31251 40.4998C3.95381 41.0769 3.93703 41.4107 3.94923 42.0936C4.16416 42.896 4.39655 43.1951 5.06251 43.6873C5.83202 43.9112 6.23005 43.9278 6.98438 43.6522C7.64923 43.2161 7.64923 43.2161 8.06251 42.5623C8.18397 41.6211 8.168 41.2495 7.69923 40.4178C7.05155 39.8759 6.68078 39.7445 5.85352 39.7059C5.17551 39.7775 4.80487 40.0435 4.31251 40.4998ZM40.3359 40.6288C40.0225 41.2731 39.979 41.871 40.125 42.5623C40.4537 43.1284 40.8432 43.5777 41.4375 43.8748C42.3678 43.9451 42.9587 43.9197 43.6875 43.3123C44.1246 42.6713 44.25 42.2979 44.25 41.5194C44.0209 40.7318 43.7832 40.4238 43.125 39.9373C41.9596 39.5983 41.2294 39.8246 40.3359 40.6288ZM21.1524 41.1327C20.4412 41.7964 20.1059 42.2265 19.6875 43.1248C19.6875 43.9292 19.6875 44.7336 19.6875 45.5623C22.5338 45.5623 25.38 45.5623 28.3125 45.5623C28.3954 43.4899 28.3954 43.4899 27.5625 41.8123C27.05 41.3126 26.6051 40.9191 25.875 40.8748C25.7049 40.9329 25.5347 40.9909 25.3594 41.0506C24.3383 41.3845 23.4788 41.3368 22.4766 41.0155C21.7568 40.8054 21.7568 40.8054 21.1524 41.1327Z" fill="#F7F7F7"/>
</g>
<defs>
<clipPath id="clip0_9_3779">
<rect width="48" height="48" fill="white"/>
</clipPath>
</defs>
</svg>
