<svg width="71" height="70" viewBox="0 0 71 70" fill="none" xmlns="http://www.w3.org/2000/svg">
<rect x="0.5" width="70" height="70" rx="35" fill="url(#paint0_linear_16_2382)"/>
<g clip-path="url(#clip0_16_2382)">
<path d="M23.3166 14.9774C23.4758 14.9763 23.6351 14.9752 23.7992 14.974C24.0623 14.9734 24.0623 14.9734 24.3307 14.9727C24.5149 14.9717 24.6991 14.9707 24.8889 14.9696C25.5008 14.9665 26.1128 14.9647 26.7247 14.9632C26.9355 14.9625 27.1462 14.9619 27.357 14.9612C28.3475 14.9583 29.338 14.956 30.3286 14.9547C31.4711 14.9532 32.6135 14.9491 33.756 14.9428C34.6395 14.9381 35.523 14.9358 36.4066 14.9352C36.934 14.9349 37.4614 14.9335 37.9888 14.9295C38.578 14.9257 39.167 14.9259 39.7561 14.927C39.9299 14.925 40.1038 14.923 40.2829 14.9209C41.4756 14.9289 42.133 15.1285 43.0528 15.9085C43.1894 16.0502 43.1894 16.0502 43.3287 16.1949C43.4323 16.3007 43.5359 16.4065 43.6427 16.5156C43.7472 16.6247 43.8516 16.7337 43.9592 16.8461C44.1685 17.0624 44.3783 17.2782 44.5885 17.4937C44.6797 17.5887 44.7709 17.6837 44.8649 17.7817C45.173 18.0808 45.4879 18.362 45.8123 18.6431C46.4315 19.181 47.022 19.7421 47.6054 20.3184C47.707 20.4187 47.8085 20.5189 47.9131 20.6222C48.1252 20.8322 48.3371 21.0424 48.5488 21.2529C48.7648 21.467 48.9815 21.6805 49.1988 21.8933C49.5156 22.2034 49.8302 22.5155 50.1445 22.8282C50.2415 22.9224 50.3385 23.0167 50.4384 23.1138C50.5282 23.204 50.618 23.2943 50.7105 23.3873C50.7893 23.4652 50.8681 23.5431 50.9493 23.6233C51.4774 24.3457 51.5083 25.138 51.5097 26.0054C51.5103 26.119 51.5109 26.2326 51.5115 26.3496C51.5131 26.7285 51.5125 27.1074 51.5119 27.4863C51.5125 27.7587 51.5134 28.0311 51.5143 28.3034C51.5164 29.0421 51.5165 29.7807 51.5161 30.5193C51.5159 31.1363 51.5167 31.7533 51.5174 32.3703C51.5191 33.8261 51.5192 35.2818 51.5183 36.7376C51.5173 38.2386 51.5193 39.7396 51.5226 41.2407C51.5253 42.5303 51.5263 43.8198 51.5258 45.1094C51.5255 45.8792 51.5259 46.6491 51.5281 47.4189C51.53 48.1429 51.5297 48.8668 51.5277 49.5908C51.5273 49.8562 51.5277 50.1215 51.529 50.3869C51.5307 50.7498 51.5294 51.1126 51.5274 51.4756C51.5274 51.6784 51.5275 51.8813 51.5275 52.0903C51.4462 52.8767 51.2323 53.4939 50.692 54.091C50.5842 54.1784 50.4765 54.2658 50.3654 54.3559C50.2573 54.4457 50.1491 54.5355 50.0377 54.6281C49.4767 55.0497 49.084 55.021 48.3862 55.0234C48.2768 55.024 48.1674 55.0245 48.0548 55.0251C47.6865 55.0269 47.3183 55.0275 46.9501 55.0281C46.6868 55.029 46.4235 55.0301 46.1602 55.0312C45.4435 55.0339 44.7268 55.0355 44.01 55.0368C43.5624 55.0376 43.1148 55.0386 42.6672 55.0396C41.2671 55.0425 39.867 55.0448 38.4669 55.0461C36.85 55.0476 35.233 55.0517 33.6161 55.058C32.3669 55.0627 31.1177 55.065 29.8685 55.0656C29.1221 55.0659 28.3758 55.0673 27.6294 55.0713C26.9271 55.0749 26.2249 55.0756 25.5226 55.0739C25.2649 55.0739 25.0073 55.0749 24.7497 55.077C24.3976 55.0798 24.0457 55.0787 23.6936 55.0766C23.4967 55.077 23.2998 55.0774 23.0969 55.0777C22.2414 54.9539 21.655 54.4777 21.1076 53.8285C21.0309 53.7399 20.9541 53.6513 20.8751 53.56C20.5534 53.0821 20.5119 52.5971 20.5109 52.0313C20.5103 51.9077 20.5097 51.7842 20.5091 51.6568C20.5092 51.522 20.5094 51.3872 20.5095 51.2482C20.509 51.1043 20.5086 50.9603 20.5081 50.812C20.5067 50.3285 20.5065 49.845 20.5063 49.3615C20.5056 49.0153 20.5048 48.669 20.5039 48.3228C20.5019 47.3814 20.5009 46.4401 20.5002 45.4987C20.4997 44.9107 20.4991 44.3227 20.4984 43.7348C20.4965 42.1063 20.4949 40.4779 20.4943 38.8494C20.4943 38.7453 20.4943 38.6411 20.4942 38.5337C20.4942 38.4293 20.4942 38.3249 20.4941 38.2173C20.4941 38.0057 20.494 37.7941 20.4939 37.5825C20.4939 37.4775 20.4938 37.3725 20.4938 37.2644C20.4932 35.5636 20.4905 33.8629 20.4868 32.1622C20.4831 30.4154 20.4812 28.6686 20.481 26.9219C20.4808 25.9414 20.4799 24.9609 20.4771 23.9804C20.4745 23.0582 20.4742 22.136 20.4756 21.2137C20.4757 20.8753 20.475 20.5369 20.4735 20.1984C20.4715 19.7363 20.4724 19.2742 20.474 18.8121C20.4728 18.6783 20.4715 18.5445 20.4702 18.4067C20.4783 17.4304 20.6312 16.6581 21.3084 15.9098C21.4162 15.8224 21.5239 15.735 21.635 15.6449C21.7431 15.5551 21.8513 15.4653 21.9627 15.3727C22.44 15.014 22.727 14.9802 23.3166 14.9774ZM22.719 17.3441C22.4604 17.8612 22.5402 18.4384 22.5408 19.0069C22.5403 19.1484 22.5398 19.2898 22.5393 19.4356C22.538 19.9125 22.5378 20.3895 22.5375 20.8664C22.5368 21.2072 22.536 21.548 22.5352 21.8887C22.5331 22.8165 22.5321 23.7444 22.5314 24.6722C22.531 25.2513 22.5303 25.8304 22.5296 26.4095C22.5274 28.324 22.5259 30.2385 22.5253 32.153C22.5252 32.2563 22.5252 32.3596 22.5252 32.466C22.5251 32.5694 22.5251 32.6728 22.5251 32.7793C22.5245 34.3509 22.5222 35.9225 22.5188 37.4941C22.5148 39.318 22.5125 41.142 22.5122 42.966C22.5121 43.9319 22.5111 44.8977 22.5084 45.8636C22.5058 46.7719 22.5054 47.6801 22.5068 48.5884C22.5069 48.9222 22.5063 49.2561 22.5047 49.5899C22.5027 50.0447 22.5036 50.4994 22.5053 50.9542C22.504 51.0872 22.5028 51.2201 22.5015 51.357C22.5059 51.8785 22.5226 52.2692 22.7714 52.7337C23.2888 53.2021 23.8366 53.1457 24.5004 53.1473C24.6023 53.1478 24.7043 53.1483 24.8093 53.1487C25.1515 53.1501 25.4937 53.1503 25.8359 53.1506C26.081 53.1513 26.3261 53.1521 26.5713 53.1529C27.2376 53.155 27.9039 53.156 28.5702 53.1567C28.9864 53.1571 29.4026 53.1578 29.8188 53.1585C31.1207 53.1606 32.4226 53.1621 33.7245 53.1627C35.2279 53.1634 36.7312 53.1662 38.2346 53.1707C39.3964 53.1741 40.5582 53.1756 41.7199 53.1759C42.414 53.176 43.108 53.1769 43.802 53.1797C44.4548 53.1823 45.1076 53.1826 45.7604 53.1813C45.9999 53.1812 46.2395 53.1818 46.479 53.1834C46.8061 53.1854 47.1332 53.1844 47.4603 53.1828C47.6433 53.183 47.8264 53.1833 48.0149 53.1835C48.5543 53.1189 48.8487 52.9796 49.2815 52.6566C49.5088 52.202 49.4569 51.8061 49.4565 51.2982C49.4566 51.1894 49.4568 51.0807 49.4569 50.9686C49.4572 50.6025 49.4563 50.2364 49.4554 49.8703C49.4554 49.6086 49.4554 49.3468 49.4555 49.0851C49.4556 48.373 49.4546 47.6608 49.4535 46.9487C49.4526 46.2051 49.4525 45.4614 49.4523 44.7178C49.4518 43.3089 49.4505 41.9 49.449 40.4912C49.4472 38.8875 49.4463 37.2838 49.4456 35.6802C49.4439 32.3807 49.4412 29.0812 49.4377 25.7816C49.2836 25.7803 49.2836 25.7803 49.1265 25.7789C48.0594 25.7689 46.9924 25.7557 45.9253 25.7406C45.5269 25.7354 45.1284 25.7311 44.7299 25.7275C44.1578 25.7223 43.5858 25.7141 43.0138 25.7054C42.835 25.7044 42.6563 25.7034 42.4722 25.7023C42.2235 25.6977 42.2235 25.6977 41.9699 25.693C41.8238 25.6912 41.6777 25.6895 41.5272 25.6877C41.0887 25.614 40.9485 25.5115 40.6877 25.1566C40.6077 24.7349 40.6077 24.7349 40.5803 24.268C40.57 24.1127 40.5597 23.9574 40.5492 23.7974C40.5404 23.6194 40.5404 23.6194 40.5315 23.4379C40.3508 23.4363 40.1701 23.4347 39.984 23.433C38.2826 23.4178 36.5813 23.4017 34.8799 23.3849C34.0052 23.3763 33.1305 23.3679 32.2558 23.3602C31.4118 23.3527 30.5679 23.3446 29.724 23.3359C29.4018 23.3327 29.0796 23.3298 28.7574 23.3271C28.3066 23.3233 27.8559 23.3186 27.4051 23.3137C27.2046 23.3124 27.2046 23.3124 27.0001 23.311C26.877 23.3095 26.7539 23.3079 26.627 23.3064C26.5204 23.3054 26.4139 23.3044 26.304 23.3033C25.9797 23.2802 25.6878 23.213 25.3752 23.1254C25.3447 22.1794 25.3447 22.1794 25.3752 21.8754C25.8583 21.3923 26.437 21.5147 27.0858 21.5131C27.2306 21.5115 27.3754 21.5099 27.5247 21.5083C28.0049 21.5035 28.4851 21.5008 28.9653 21.4982C29.2976 21.4953 29.63 21.4922 29.9623 21.489C30.8383 21.481 31.7142 21.4748 32.5902 21.469C33.4835 21.4628 34.3769 21.4548 35.2702 21.4469C37.024 21.4318 38.7777 21.4188 40.5315 21.4066C40.5315 19.9113 40.5315 18.416 40.5315 16.8754C38.3243 16.8648 36.1173 16.8562 33.9101 16.8511C32.8853 16.8487 31.8605 16.8453 30.8357 16.84C29.8469 16.8349 28.8581 16.8321 27.8693 16.8309C27.4918 16.8301 27.1144 16.8284 26.7369 16.8258C26.2087 16.8224 25.6805 16.822 25.1523 16.8222C24.9959 16.8205 24.8394 16.8188 24.6782 16.8171C23.6213 16.8208 23.6213 16.8208 22.719 17.3441ZM42.5627 18.4379C42.5627 20.191 42.5627 21.9441 42.5627 23.7504C44.3674 23.7504 46.1721 23.7504 48.0315 23.7504C47.3176 22.908 47.3176 22.908 46.5678 22.1098C46.4785 22.0201 46.3892 21.9305 46.2972 21.8382C46.2056 21.7473 46.1141 21.6565 46.0197 21.5629C45.9236 21.4672 45.8276 21.3716 45.7286 21.273C45.0606 20.612 44.3771 19.9786 43.6565 19.3754C43.2955 19.066 42.9346 18.7566 42.5627 18.4379Z" fill="#EEEEEE"/>
<path d="M26.6858 41.503C26.8567 41.5016 27.0276 41.5003 27.2036 41.499C27.3903 41.4999 27.577 41.5009 27.7694 41.5018C27.9666 41.501 28.1638 41.5002 28.367 41.4993C28.9074 41.4972 29.4478 41.498 29.9882 41.4995C30.5539 41.5007 31.1196 41.4996 31.6852 41.4989C32.6352 41.498 33.5851 41.4991 34.535 41.5014C35.6331 41.5039 36.7312 41.5031 37.8293 41.5005C38.7722 41.4984 39.7152 41.4981 40.6581 41.4993C41.2213 41.5 41.7844 41.5001 42.3475 41.4986C42.9752 41.497 43.6029 41.4992 44.2306 41.5018C44.4173 41.5009 44.604 41.4999 44.7964 41.499C45.0527 41.5009 45.0527 41.5009 45.3142 41.503C45.5368 41.5032 45.5368 41.5032 45.7639 41.5035C46.2327 41.574 46.4473 41.6972 46.7812 42.0312C46.8594 42.5781 46.8594 42.5781 46.7812 43.125C46.3148 43.5916 45.9609 43.6525 45.3142 43.6533C45.1433 43.6546 44.9724 43.6559 44.7964 43.6573C44.6097 43.6563 44.423 43.6554 44.2306 43.6544C44.0334 43.6552 43.8362 43.656 43.633 43.6569C43.0926 43.659 42.5522 43.6582 42.0118 43.6567C41.4461 43.6555 40.8804 43.6566 40.3148 43.6573C39.3648 43.6582 38.4149 43.6571 37.465 43.6548C36.3669 43.6523 35.2688 43.6531 34.1707 43.6557C33.2278 43.6578 32.2848 43.6581 31.3419 43.6569C30.7787 43.6562 30.2156 43.6561 29.6525 43.6576C29.0248 43.6592 28.3971 43.657 27.7694 43.6544C27.4893 43.6558 27.4893 43.6558 27.2036 43.6573C27.0328 43.6559 26.8619 43.6546 26.6858 43.6533C26.5374 43.6531 26.389 43.6529 26.2361 43.6527C25.7673 43.5822 25.5527 43.459 25.2188 43.125C25.1406 42.5781 25.1406 42.5781 25.2188 42.0312C25.6852 41.5646 26.0391 41.5037 26.6858 41.503Z" fill="#EEEEEE"/>
<path d="M26.6858 26.3467C26.8567 26.3454 27.0276 26.3441 27.2036 26.3427C27.3903 26.3437 27.577 26.3446 27.7694 26.3456C27.9666 26.3448 28.1638 26.3439 28.367 26.3431C28.9074 26.341 29.4478 26.3418 29.9882 26.3433C30.5539 26.3445 31.1196 26.3434 31.6852 26.3426C32.6352 26.3418 33.5851 26.3429 34.535 26.3451C35.6331 26.3477 36.7312 26.3468 37.8293 26.3443C38.7722 26.3421 39.7152 26.3418 40.6581 26.3431C41.2213 26.3438 41.7844 26.3439 42.3475 26.3423C42.9752 26.3407 43.6029 26.343 44.2306 26.3456C44.4173 26.3446 44.604 26.3437 44.7964 26.3427C45.0527 26.3447 45.0527 26.3447 45.3142 26.3467C45.5368 26.347 45.5368 26.347 45.7639 26.3472C46.2327 26.4177 46.4473 26.5409 46.7812 26.875C46.8594 27.4219 46.8594 27.4219 46.7812 27.9687C46.3148 28.4354 45.9609 28.4962 45.3142 28.497C45.1433 28.4983 44.9724 28.4997 44.7964 28.501C44.6097 28.5001 44.423 28.4991 44.2306 28.4981C44.0334 28.499 43.8362 28.4998 43.633 28.5006C43.0926 28.5028 42.5522 28.5019 42.0118 28.5004C41.4461 28.4993 40.8804 28.5004 40.3148 28.5011C39.3648 28.502 38.4149 28.5008 37.465 28.4986C36.3669 28.496 35.2688 28.4969 34.1707 28.4995C33.2278 28.5016 32.2848 28.5019 31.3419 28.5007C30.7787 28.4999 30.2156 28.4998 29.6525 28.5014C29.0248 28.503 28.3971 28.5008 27.7694 28.4981C27.4893 28.4996 27.4893 28.4996 27.2036 28.501C27.0328 28.4997 26.8619 28.4984 26.6858 28.497C26.5374 28.4968 26.389 28.4967 26.2361 28.4965C25.7673 28.426 25.5527 28.3028 25.2188 27.9687C25.1406 27.4219 25.1406 27.4219 25.2188 26.875C25.6852 26.4084 26.0391 26.3475 26.6858 26.3467Z" fill="#EEEEEE"/>
<path d="M26.5236 36.503C26.7838 36.501 26.7838 36.501 27.0493 36.499C27.335 36.5004 27.335 36.5004 27.6264 36.5018C27.8269 36.501 28.0274 36.5002 28.234 36.4993C28.7841 36.4972 29.3341 36.498 29.8842 36.4995C30.4596 36.5007 31.0349 36.4996 31.6102 36.4989C32.5765 36.498 33.5427 36.4991 34.5089 36.5014C35.6264 36.5039 36.7439 36.5031 37.8615 36.5005C38.8205 36.4984 39.7795 36.4981 40.7385 36.4993C41.3115 36.5 41.8845 36.5001 42.4574 36.4986C43.0961 36.497 43.7346 36.4992 44.3733 36.5018C44.5637 36.5009 44.7541 36.4999 44.9503 36.499C45.2106 36.5009 45.2106 36.5009 45.4761 36.503C45.7027 36.5032 45.7027 36.5032 45.9339 36.5035C46.3123 36.5625 46.3123 36.5625 46.5953 36.7713C46.8842 37.1755 46.8413 37.4871 46.7811 37.9687C46.5397 38.287 46.3559 38.4157 45.9998 38.5937C45.736 38.6089 45.4715 38.6142 45.2072 38.6146C45.0394 38.6153 44.8716 38.616 44.6987 38.6166C44.5138 38.6166 44.3289 38.6165 44.1383 38.6164C43.8472 38.6172 43.8472 38.6172 43.5501 38.618C43.0168 38.6193 42.4835 38.6198 41.9502 38.6199C41.5052 38.62 41.0602 38.6206 40.6152 38.6211C39.5654 38.6224 38.5155 38.6228 37.4657 38.6227C36.3823 38.6226 35.299 38.6242 34.2156 38.6267C33.286 38.6288 32.3563 38.6296 31.4266 38.6295C30.8712 38.6295 30.3157 38.6299 29.7603 38.6316C29.1408 38.6333 28.5213 38.6326 27.9018 38.6317C27.6254 38.633 27.6254 38.633 27.3434 38.6344C27.0903 38.6334 27.0903 38.6334 26.8322 38.6324C26.6857 38.6325 26.5392 38.6325 26.3882 38.6326C25.9752 38.5913 25.7229 38.5045 25.3748 38.2812C25.1562 37.8439 25.1791 37.5148 25.2186 37.0312C25.5861 36.5124 25.9102 36.5037 26.5236 36.503Z" fill="#EEEEEE"/>
<path d="M26.7926 31.385C26.9604 31.3843 27.1282 31.3836 27.3011 31.3829C27.5785 31.383 27.5785 31.383 27.8615 31.3832C28.0556 31.3826 28.2497 31.3821 28.4497 31.3816C28.983 31.3803 29.5163 31.3798 30.0496 31.3797C30.4946 31.3796 30.9396 31.379 31.3846 31.3784C32.4344 31.3772 33.4843 31.3768 34.5341 31.3769C35.6175 31.377 36.7008 31.3753 37.7842 31.3729C38.7138 31.3708 39.6435 31.37 40.5732 31.3701C41.1286 31.3701 41.6841 31.3697 42.2395 31.368C42.859 31.3662 43.4785 31.367 44.098 31.3679C44.3744 31.3666 44.3744 31.3666 44.6564 31.3652C44.9095 31.3662 44.9095 31.3662 45.1676 31.3672C45.3141 31.3671 45.4606 31.3671 45.6116 31.367C46.0246 31.4083 46.2769 31.4951 46.625 31.7184C46.8436 32.1556 46.8207 32.4848 46.7812 32.9684C46.5967 33.2289 46.5967 33.2289 46.3125 33.4371C45.934 33.4961 45.934 33.4961 45.4762 33.4966C45.3027 33.4979 45.1292 33.4993 44.9505 33.5006C44.76 33.4997 44.5696 33.4987 44.3734 33.4978C44.1729 33.4986 43.9724 33.4994 43.7658 33.5002C43.2157 33.5024 42.6657 33.5016 42.1156 33.5001C41.5402 33.4989 40.9649 33.5 40.3896 33.5007C39.4233 33.5016 38.4571 33.5004 37.4909 33.4982C36.3734 33.4957 35.2559 33.4965 34.1383 33.4991C33.1793 33.5012 32.2203 33.5015 31.2613 33.5003C30.6883 33.4995 30.1153 33.4994 29.5424 33.501C28.9037 33.5026 28.2652 33.5004 27.6265 33.4978C27.3409 33.4992 27.3409 33.4992 27.0495 33.5006C26.876 33.4993 26.7024 33.498 26.5237 33.4966C26.3726 33.4964 26.2216 33.4963 26.0659 33.4961C25.6875 33.4371 25.6875 33.4371 25.4045 33.2283C25.1156 32.824 25.1585 32.5125 25.2187 32.0309C25.6664 31.4408 26.0807 31.3862 26.7926 31.385Z" fill="#EEEEEE"/>
<path d="M39.8172 46.5225C40.0206 46.521 40.0206 46.521 40.2281 46.5195C40.4458 46.5205 40.4458 46.5205 40.668 46.5214C40.8183 46.5211 40.9685 46.5209 41.1233 46.5205C41.4406 46.5203 41.7579 46.5209 42.0752 46.5222C42.5608 46.5239 43.0462 46.5222 43.5318 46.5202C43.8402 46.5204 44.1487 46.5208 44.4571 46.5214C44.6023 46.5208 44.7475 46.5202 44.8971 46.5195C45.0327 46.5205 45.1682 46.5215 45.3079 46.5225C45.4268 46.5228 45.5457 46.523 45.6681 46.5233C46.0495 46.5689 46.2996 46.6733 46.6251 46.8755C46.8437 47.3127 46.8208 47.6419 46.7813 48.1255C46.5328 48.4638 46.3918 48.5797 45.9757 48.6558C45.8454 48.6571 45.7151 48.6585 45.5808 48.6598C45.3586 48.6635 45.3586 48.6635 45.132 48.6673C44.8925 48.6674 44.8925 48.6674 44.6481 48.6674C44.4838 48.6686 44.3195 48.6698 44.1502 48.671C43.8025 48.6727 43.4549 48.6732 43.1072 48.6725C42.5749 48.6723 42.0429 48.6788 41.5106 48.6858C41.173 48.6866 40.8354 48.687 40.4978 48.687C40.2587 48.6908 40.2587 48.6908 40.0149 48.6947C38.9165 48.684 38.9165 48.684 38.3899 48.2289C38.1876 47.813 38.1876 47.813 38.2657 47.3149C38.6295 46.6327 39.0712 46.5241 39.8172 46.5225Z" fill="#EEEEEE"/>
</g>
<defs>
<linearGradient id="paint0_linear_16_2382" x1="35.5" y1="70" x2="35.5" y2="0" gradientUnits="userSpaceOnUse">
<stop stop-color="#280659"/>
<stop offset="1" stop-color="#764895"/>
</linearGradient>
<clipPath id="clip0_16_2382">
<rect width="40" height="40" fill="white" transform="translate(16 15)"/>
</clipPath>
</defs>
</svg>
