<svg width="57" height="56" viewBox="0 0 57 56" fill="none" xmlns="http://www.w3.org/2000/svg">
<rect x="0.5" width="56" height="56" rx="28" fill="#EEEEEE"/>
<g clip-path="url(#clip0_30_5546)">
<path d="M34.1252 13.0003C34.2259 13.0346 34.3266 13.0688 34.4303 13.104C36.4674 13.8145 38.1298 14.8214 39.7502 16.2503C39.8356 16.3238 39.921 16.3973 40.009 16.473C42.4773 18.7514 44.0255 22.5085 44.1609 25.8163C44.231 28.8242 43.6246 31.8878 41.8518 34.3856C41.602 34.7877 41.5508 35.0486 41.508 35.516C41.2187 37.7252 39.8315 39.5356 38.1174 40.891C34.9678 43.2838 31.0018 43.8321 27.1565 43.4222C23.097 42.7617 19.2601 40.6415 16.8225 37.2746C14.3398 33.6939 13.2809 29.4217 14.0166 25.0912C14.5517 22.4064 15.7474 19.9699 17.5002 17.8753C17.5788 17.7791 17.6575 17.6829 17.7385 17.5838C19.711 15.2392 22.5764 13.6728 25.5002 12.8753C25.6536 12.8328 25.807 12.7903 25.9651 12.7464C28.4666 12.1882 31.6943 12.1549 34.1252 13.0003ZM26.1955 14.1019C26.0935 14.1314 25.9914 14.1609 25.8862 14.1913C24.6522 14.5447 24.6522 14.5447 23.7213 15.3609C23.5821 15.6941 23.4788 16.0293 23.3752 16.3753C23.3167 16.5503 23.2575 16.725 23.1977 16.8996C23.0264 17.4021 22.8605 17.9063 22.6966 18.4113C22.5934 18.7287 22.4887 19.0455 22.384 19.3624C22.3178 19.5654 22.2518 19.7685 22.1858 19.9715C22.1545 20.0656 22.1233 20.1596 22.0911 20.2564C21.9421 20.7206 21.8103 21.1364 21.8752 21.6253C22.1137 21.9155 22.1137 21.9155 22.5217 21.9217C23.0957 21.8661 23.4279 21.6861 23.9065 21.3832C24.7538 20.8656 25.3741 20.6382 26.3752 20.7503C26.8196 20.9646 27.0456 21.1222 27.3049 21.5394C27.4308 22.1409 27.3262 22.592 27.0627 23.141C26.3573 23.9522 25.4857 24.1747 24.468 24.409C24.0172 24.5291 23.7185 24.6834 23.3752 25.0003C23.0711 25.5477 22.9071 26.0002 23.0002 26.6253C23.423 27.3804 23.423 27.3804 24.1239 27.8309C24.2167 27.8467 24.3094 27.8625 24.405 27.8788C24.5076 27.8979 24.6101 27.9169 24.7158 27.9366C24.9299 27.9736 25.1441 28.0104 25.3584 28.047C26.0775 28.1814 26.7015 28.3242 27.1473 28.9601C27.5087 29.6149 27.6412 30.3008 27.7658 31.0316C27.8046 31.2511 27.8439 31.4705 27.884 31.6898C27.9087 31.8334 27.9087 31.8334 27.9339 31.98C28.0036 32.2641 28.11 32.4944 28.2502 32.7503C29.5886 32.5506 30.6145 32.3861 31.6018 31.3988C32.4949 30.0974 32.7748 28.2979 32.6252 26.7503C32.4783 26.0455 32.1637 25.5998 31.6252 25.1253C31.0975 24.6216 30.8927 24.3924 30.844 23.6488C30.8468 23.2626 30.8802 23.1155 31.0627 22.7582C31.2842 22.306 31.2768 22.0004 31.2512 21.5067C31.2502 21.2503 31.2502 21.2503 31.3752 20.8753C31.9223 20.6279 32.4046 20.5615 33.0002 20.6253C33.6841 21.0143 34.1269 21.5191 34.6181 22.1166C34.8791 22.4179 35.0576 22.6078 35.4489 22.7093C35.7691 22.6414 35.7691 22.6414 36.0393 22.3934C36.3886 21.7424 36.2714 21.0866 36.2307 20.3658C36.2039 19.5862 36.2973 19.0239 36.7502 18.3753C37.3993 17.7762 38.2923 17.6077 39.1252 17.3753C38.9198 17.1635 38.7117 16.9561 38.5002 16.7503C38.4348 16.6854 38.3694 16.6205 38.302 16.5536C35.09 13.545 30.2936 12.9102 26.1955 14.1019ZM21.3596 16.805C21.2862 16.8738 21.2129 16.9425 21.1373 17.0133C18.8594 19.1689 17.1685 22.1079 16.9747 25.2955C16.9625 25.7391 16.9599 26.1816 16.9612 26.6253C16.9591 26.777 16.9571 26.9286 16.9551 27.0848C16.955 27.2297 16.9549 27.3745 16.9548 27.5238C16.9544 27.6545 16.9541 27.7851 16.9537 27.9198C16.9739 28.2513 16.9739 28.2513 17.1643 28.4752C17.5624 28.7586 18.0655 28.8182 18.5361 28.922C19.521 29.1576 20.1841 29.679 20.7502 30.5003C20.9456 30.8722 21.0925 31.2538 21.2346 31.6488C21.2758 31.7598 21.317 31.8709 21.3594 31.9853C22.023 33.8248 22.5377 35.7261 23.0002 37.6253C24.0596 37.4406 24.9099 37.0161 25.8574 36.5208C27.572 35.6606 29.2344 35.4251 31.1252 35.4066C31.3039 35.4031 31.4826 35.3993 31.6613 35.3954C32.1026 35.3862 32.5437 35.3818 32.985 35.3785C33.256 35.3753 33.5267 35.3681 33.7976 35.3604C33.9745 35.3569 34.1514 35.3534 34.3283 35.35C34.4846 35.3459 34.6409 35.3418 34.802 35.3376C35.3329 35.3823 35.6544 35.5056 36.1252 35.7503C36.3067 36.1132 36.2968 36.3469 36.2502 36.7503C35.8448 37.4126 35.3615 37.6723 34.6633 37.9906C34.3513 38.1278 34.3513 38.1278 34.0002 38.3753C35.3718 38.4946 36.4955 37.7226 37.531 36.9032C38.1851 36.3488 38.7096 35.7306 39.2424 35.0609C39.6464 34.5742 40.068 34.2321 40.6159 33.911C41.0464 33.591 41.2645 33.2663 41.5002 32.7972C41.542 32.716 41.5839 32.6348 41.627 32.5512C43.2137 29.3573 43.4774 25.7325 42.3429 22.3517C41.913 21.1429 41.339 20.0642 40.6252 19.0003C40.5653 18.9022 40.5053 18.8041 40.4436 18.703C40.2616 18.475 40.2616 18.475 39.9612 18.4339C39.0792 18.4442 38.2881 18.5848 37.5002 19.0003C37.2306 19.4048 37.2223 19.4933 37.239 19.9554C37.2415 20.0687 37.244 20.182 37.2466 20.2987C37.2541 20.5354 37.2623 20.772 37.271 21.0086C37.2887 21.8727 37.2056 22.481 36.633 23.1644C36.0892 23.6094 35.7116 23.6867 35.0002 23.6253C34.3135 23.4062 33.9426 22.9425 33.4914 22.4071C33.2541 22.1299 33.0241 21.8668 32.7502 21.6253C32.6265 21.6253 32.5027 21.6253 32.3752 21.6253C32.3525 21.7699 32.3525 21.7699 32.3293 21.9173C32.3084 22.0427 32.2874 22.1681 32.2658 22.2972C32.2455 22.4219 32.2252 22.5466 32.2043 22.6751C32.1252 23.0003 32.1252 23.0003 31.8752 23.2503C31.7813 23.6092 31.7813 23.6092 31.8752 24.0003C32.0834 24.1419 32.2923 24.2824 32.5061 24.4154C33.2354 25.0426 33.5656 26.1293 33.655 27.0604C33.7043 28.8586 33.2901 31.18 32.0237 32.5311C31.4969 32.9535 30.8839 33.1612 30.2502 33.3753C30.0337 33.4527 30.0337 33.4527 29.8127 33.5316C28.1129 33.8958 28.1129 33.8958 27.4924 33.516C26.9563 32.6512 26.8028 31.717 26.6584 30.7204C26.5613 30.1236 26.3758 29.7228 26.0002 29.2503C25.6376 29.069 25.3034 29.0076 24.9035 28.953C23.8714 28.8087 23.1869 28.5736 22.4533 27.8207C22.0079 27.1182 21.9104 26.4408 22.0002 25.6253C22.2025 24.8014 22.5459 24.203 23.2815 23.7503C23.6355 23.5834 23.9926 23.4621 24.3674 23.3524C24.4558 23.3264 24.5442 23.3003 24.6353 23.2735C24.8132 23.2225 24.9917 23.1735 25.1707 23.1271C25.7595 22.9608 26.0428 22.7635 26.3752 22.2503C26.2515 22.0028 26.2515 22.0028 26.1252 21.7503C25.3661 21.689 24.9629 21.8506 24.344 22.2425C23.5312 22.7389 22.9565 22.962 22.0002 22.8753C21.4748 22.7099 21.3032 22.584 21.008 22.1175C20.5697 20.8505 21.2929 19.3711 21.6955 18.1722C21.7613 17.9732 21.827 17.7741 21.8926 17.575C22.0521 17.0914 22.2132 16.6082 22.3752 16.1253C21.9389 16.1253 21.664 16.5189 21.3596 16.805ZM17.3752 19.8753C17.5002 20.1253 17.5002 20.1253 17.5002 20.1253L17.3752 19.8753ZM17.2502 20.1253C17.3752 20.3753 17.3752 20.3753 17.3752 20.3753L17.2502 20.1253ZM17.1252 20.3753C15.0988 23.4294 14.4846 27.353 15.1877 30.93C15.848 33.941 17.3249 36.358 19.5002 38.5003C19.5993 38.5993 19.6984 38.6982 19.8005 38.8001C21.63 40.524 23.9682 41.5233 26.3752 42.1253C26.5546 42.1717 26.5546 42.1717 26.7375 42.2191C28.7115 42.6359 30.9312 42.5043 32.8752 42.0003C33.0346 41.9607 33.1939 41.9211 33.3581 41.8802C35.9777 41.1759 38.3393 39.7452 39.7502 37.3753C39.9951 36.8874 40.2266 36.4016 40.3752 35.8753C40.334 35.7516 40.2927 35.6278 40.2502 35.5003C40.0547 35.7137 39.8594 35.9273 39.6643 36.141C39.6063 36.2043 39.5483 36.2675 39.4885 36.3327C39.208 36.6403 38.9377 36.9489 38.6877 37.2816C37.6887 38.3805 36.0842 39.2871 34.5925 39.4085C30.8915 39.3917 30.8915 39.3917 30.5002 39.0003C30.4951 38.7921 30.4949 38.5836 30.5002 38.3753C31.3926 37.8235 32.3204 37.5831 33.3365 37.3709C34.064 37.2088 34.6598 36.9648 35.2502 36.5003C35.2502 36.4591 35.2502 36.4178 35.2502 36.3753C33.98 36.3715 32.7099 36.3723 31.4399 36.4013C31.2664 36.4048 31.0928 36.4075 30.9192 36.4092C29.1032 36.4284 27.5273 36.7904 25.8987 37.6332C23.6225 38.7946 23.6225 38.7946 22.6252 38.6253C22.3112 38.4429 22.0431 38.2665 21.758 38.0472C21.6808 37.9897 21.6036 37.9322 21.5241 37.873C21.3061 37.7092 21.0903 37.543 20.8752 37.3753C20.7837 37.3044 20.6922 37.2335 20.5979 37.1605C18.0422 35.0695 16.4364 31.6712 16.0312 28.4408C15.7869 25.9507 16.0573 23.5446 17.0198 21.2311C17.1026 21.0315 17.1772 20.8287 17.2502 20.6253C17.209 20.5428 17.1677 20.4603 17.1252 20.3753ZM17.3752 29.7503C17.8096 32.1394 19.2477 34.4687 21.0002 36.1253C21.2047 36.2565 21.4122 36.3834 21.6252 36.5003C21.3532 35.2412 20.9845 34.0245 20.5705 32.805C20.5241 32.6653 20.4777 32.5257 20.4299 32.3818C20.138 31.5376 19.8582 30.7514 19.1306 30.1849C18.5389 29.9134 18.0259 29.7968 17.3752 29.7503Z" fill="#764895"/>
<path d="M39.7497 28.0003C40.225 28.2509 40.4519 28.4287 40.7497 28.8753C40.8005 29.2005 40.8005 29.2005 40.8122 29.5784C40.8186 29.7012 40.8251 29.824 40.8317 29.9505C40.6211 31.0411 39.7068 31.8553 38.945 32.6097C38.8091 32.7494 38.8091 32.7494 38.6704 32.8919C38.0731 33.4887 37.5651 33.9333 36.6989 34.036C35.947 33.956 35.4934 33.7004 34.9997 33.1253C34.643 32.5361 34.6852 31.8887 34.7946 31.2298C35.0434 30.2783 35.6569 29.4939 36.4916 28.9749C37.5227 28.4017 38.5398 27.8475 39.7497 28.0003ZM36.3195 30.5726C35.9505 31.1524 35.7358 31.6808 35.8747 32.3753C36.065 32.7012 36.065 32.7012 36.3747 32.8753C37.558 32.777 38.4865 31.5349 39.2458 30.7264C39.5392 30.3207 39.6624 29.9923 39.7497 29.5003C39.6672 29.3766 39.5847 29.2528 39.4997 29.1253C38.4188 28.9463 37.0391 29.8127 36.3195 30.5726Z" fill="#764895"/>
</g>
<defs>
<clipPath id="clip0_30_5546">
<rect width="32" height="32" fill="white" transform="translate(13 12)"/>
</clipPath>
</defs>
</svg>
