<svg width="56" height="57" viewBox="0 0 56 57" fill="none" xmlns="http://www.w3.org/2000/svg">
<g clip-path="url(#clip0_4_995)">
<path d="M22.0135 19.1015C22.1573 19.0999 22.3011 19.0984 22.4492 19.0968C22.9233 19.093 23.3971 19.0955 23.8711 19.0985C24.2013 19.0979 24.5314 19.097 24.8616 19.0959C25.553 19.0946 26.2443 19.0965 26.9358 19.1006C27.8215 19.1056 28.7069 19.1027 29.5926 19.0975C30.2742 19.0943 30.9558 19.0953 31.6374 19.0976C31.9639 19.0982 32.2904 19.0975 32.617 19.0954C33.0736 19.0932 33.5299 19.0966 33.9866 19.1015C34.3761 19.1025 34.3761 19.1025 34.7735 19.1036C35.5751 19.2377 35.8151 19.4611 36.3125 20.0897C36.5913 20.5303 36.8553 20.9803 37.1081 21.4364C37.1791 21.5641 37.2502 21.6919 37.3234 21.8236C37.4725 22.0923 37.6208 22.3615 37.7684 22.631C37.994 23.0425 38.2223 23.4525 38.4509 23.8623C39.7203 26.1582 39.7203 26.1582 39.8125 26.8709C39.3744 27.8009 38.6911 28.5473 38.0215 29.3182C37.2916 30.1689 36.5703 31.0226 35.875 31.9022C35.1989 32.7556 34.5026 33.589 33.7969 34.4178C33.0871 35.2515 32.3863 36.0897 31.7051 36.9471C31.5678 37.1183 31.4304 37.2894 31.289 37.4658C30.9531 37.8893 30.6236 38.3159 30.296 38.7458C30.1051 38.9894 29.9139 39.233 29.7227 39.4764C29.5507 39.7003 29.3787 39.9242 29.2014 40.1549C28.6563 40.6522 28.6563 40.6522 28.0205 40.8197C27.0065 40.5687 26.5839 39.9454 25.9492 39.1483C25.8244 38.9977 25.6995 38.8472 25.5708 38.6921C25.2097 38.2549 24.8541 37.8138 24.5 37.3709C24.3387 37.1713 24.1774 36.9716 24.0113 36.766C23.7369 36.4236 23.464 36.0801 23.1926 35.7354C22.6564 35.0667 22.1027 34.4141 21.5469 33.7616C20.7005 32.7663 19.8629 31.7669 19.0612 30.7349C18.6942 30.2774 18.3191 29.8417 17.9281 29.4054C17.6988 29.1393 17.4695 28.8733 17.2403 28.6073C17.1268 28.4862 17.0133 28.3651 16.8963 28.2403C16.4532 27.7147 16.1685 27.3523 16.2195 26.6474C16.6566 25.1873 17.4968 23.8507 18.252 22.5369C18.3773 22.3132 18.5027 22.0894 18.6318 21.8589C20.1983 19.1063 20.1983 19.1063 22.0135 19.1015ZM22.5313 21.1834C23.1088 22.3384 23.6863 23.4934 24.2813 24.6834C24.8665 23.9519 25.3187 23.3626 25.7578 22.5643C25.8515 22.3965 25.9451 22.2287 26.0415 22.0559C26.2815 21.6356 26.2815 21.6356 26.25 21.1834C25.0228 21.1834 23.7956 21.1834 22.5313 21.1834ZM29.75 21.1834C30.086 22.0235 30.4354 22.7625 30.8711 23.5487C30.989 23.7621 31.1069 23.9756 31.2283 24.1955C31.318 24.3565 31.4076 24.5175 31.5 24.6834C32.0667 23.9824 32.458 23.2499 32.8535 22.4412C33.0566 22.0262 33.2596 21.6111 33.4688 21.1834C32.2416 21.1834 31.0144 21.1834 29.75 21.1834ZM20.7813 22.4959C20.5697 22.7953 20.3605 23.0965 20.1524 23.3983C20.0356 23.5658 19.9189 23.7333 19.7986 23.9058C19.3858 24.5607 19.3858 24.5607 19.0313 25.7772C20.2585 25.7772 21.4856 25.7772 22.75 25.7772C22.547 25.3576 22.344 24.938 22.1348 24.5057C22.0206 24.2697 21.9064 24.0337 21.7887 23.7905C21.4898 23.2472 21.2465 22.8941 20.7813 22.4959ZM27.7813 22.4959C27.5249 22.9602 27.2699 23.4251 27.0156 23.8905C26.9426 24.0224 26.8696 24.1544 26.7943 24.2904C26.384 24.9928 26.384 24.9928 26.25 25.7772C27.405 25.7772 28.56 25.7772 29.75 25.7772C29.4456 24.864 29.2022 24.2039 28.7383 23.3983C28.6407 23.2274 28.5432 23.0565 28.4426 22.8805C28.3688 22.7536 28.2949 22.6267 28.2188 22.4959C28.0744 22.4959 27.93 22.4959 27.7813 22.4959ZM35 22.4959C34.7078 23.0015 34.4162 23.5074 34.125 24.0135C34.0416 24.1577 33.9581 24.302 33.8721 24.4506C33.4414 25.0767 33.4414 25.0767 33.25 25.7772C34.4772 25.7772 35.7044 25.7772 36.9688 25.7772C36.666 25.0203 36.3733 24.351 35.9844 23.6444C35.8919 23.4741 35.7994 23.3037 35.7041 23.1283C35.4667 22.6828 35.4667 22.6828 35 22.4959ZM19.4688 27.7459C20.077 28.6945 20.7407 29.5596 21.4785 30.4119C21.6918 30.6607 21.9048 30.9097 22.1177 31.1588C22.2236 31.2826 22.3295 31.4065 22.4386 31.5341C23.0678 32.2777 23.6767 33.0377 24.2873 33.7966C24.7004 34.2867 25.1336 34.7376 25.5938 35.1834C25.4326 33.657 25.0124 32.2042 24.6094 30.7264C24.5392 30.4639 24.469 30.2014 24.3966 29.9309C24.1746 28.7545 24.1746 28.7545 23.625 27.7459C23.3153 27.727 23.0047 27.7225 22.6945 27.7246C22.4143 27.7256 22.4143 27.7256 22.1284 27.7267C21.932 27.7285 21.7356 27.7304 21.5332 27.7323C21.336 27.7332 21.1387 27.7342 20.9355 27.7353C20.4466 27.7378 19.9577 27.7414 19.4688 27.7459ZM25.8125 27.7459C26.1109 29.5499 26.5368 31.2808 27.043 33.0369C27.1141 33.2869 27.1851 33.5369 27.2583 33.7945C27.4316 34.4036 27.606 35.0124 27.7813 35.6209C27.9256 35.6209 28.07 35.6209 28.2188 35.6209C28.5002 34.6052 28.7806 33.5891 29.0599 32.5728C29.1551 32.2271 29.2506 31.8814 29.3464 31.5359C29.484 31.0393 29.6205 30.5423 29.7569 30.0454C29.7999 29.8909 29.843 29.7363 29.8874 29.5771C30.0597 28.9456 30.1875 28.4041 30.1875 27.7459C28.7438 27.7459 27.3 27.7459 25.8125 27.7459ZM32.375 27.7459C31.8945 29.1875 31.4339 30.6227 31.0078 32.0799C30.9464 32.2828 30.8849 32.4857 30.8216 32.6947C30.7646 32.8903 30.7076 33.0858 30.6489 33.2873C30.571 33.5503 30.571 33.5503 30.4915 33.8186C30.3992 34.3492 30.4562 34.677 30.625 35.1834C30.7052 35.0857 30.7854 34.9879 30.868 34.8872C31.247 34.4252 31.6264 33.9635 32.0059 33.5018C32.1438 33.3338 32.2818 33.1658 32.4239 32.9928C33.0805 32.1951 33.7393 31.4 34.4113 30.6153C34.5205 30.4878 34.6296 30.3602 34.7421 30.2288C34.9456 29.992 35.1498 29.7559 35.3549 29.5206C35.8559 28.9375 36.182 28.4445 36.5313 27.7459C35.1597 27.7459 33.7881 27.7459 32.375 27.7459Z" fill="#764895"/>
<path d="M45.9375 1.71497C47.0958 2.64005 47.7309 3.91452 48.4531 5.18763C48.5847 5.41758 48.7163 5.64754 48.8519 5.88446C49.1272 6.36612 49.402 6.84813 49.6761 7.33048C50.086 8.04515 50.5046 8.7539 50.926 9.4618C51.1865 9.90551 51.4468 10.3493 51.707 10.7931C51.8307 10.9978 51.9543 11.2025 52.0817 11.4133C52.7793 12.6184 53.1675 13.4424 52.9375 14.84C52.1618 16.1618 50.8304 16.726 49.4375 17.2462C48.7693 17.3471 48.5585 17.2856 47.9063 17.0275C47.3731 16.4669 47.3731 16.4669 47.0313 15.9337C45.4975 16.3439 44.2009 17.2243 42.8477 18.0268C40.6435 19.3147 38.8533 20.1233 36.2621 19.4759C35.5057 19.2384 34.7609 18.9795 34.0156 18.7091C33.5123 18.5316 33.0087 18.3547 32.5049 18.1785C32.2633 18.0931 32.0218 18.0077 31.7729 17.9197C30.9108 17.6333 30.0408 17.4086 29.1562 17.2031C28.4509 16.9553 28.0421 16.5426 27.5676 15.979C27.2299 15.2507 27.1995 14.5438 27.125 13.7462C26.9909 13.8221 26.8568 13.8979 26.7187 13.976C26.5302 14.0826 26.3417 14.1892 26.1475 14.2991C25.9382 14.4174 25.729 14.5358 25.5134 14.6577C25.0544 14.9171 24.5953 15.1764 24.136 15.4354C23.0996 16.02 22.0639 16.6055 21.0342 17.2018C20.8787 17.2912 20.7232 17.3806 20.5629 17.4727C20.2805 17.6353 19.9987 17.7991 19.7178 17.9644C18.267 18.7952 16.7616 19.2423 15.0938 18.9962C14.135 18.5168 13.5186 18.0333 13.125 17.0275C12.9647 15.6983 13.0032 14.655 13.7813 13.5275C14.5336 12.9445 15.342 12.467 16.1602 11.9825C16.3951 11.8398 16.6301 11.697 16.8722 11.5499C17.3568 11.2555 17.8421 10.9623 18.3282 10.6703C19.164 10.1661 19.9926 9.65101 20.8205 9.13399C21.5648 8.66984 22.3119 8.21037 23.0592 7.7511C23.4469 7.51219 23.8341 7.27231 24.2207 7.03162C24.8092 6.6654 25.3995 6.30222 25.9902 5.93958C26.2547 5.77369 26.2547 5.77369 26.5245 5.60446C28.633 4.32036 30.4034 4.10767 32.8345 4.66385C34.0702 4.97372 35.2939 5.32616 36.5176 5.67981C37.2389 5.88824 37.961 6.09346 38.6837 6.29676C38.8469 6.34505 39.01 6.39334 39.1781 6.44309C40.0488 6.68762 40.6903 6.80289 41.5625 6.52747C41.4903 6.41919 41.4181 6.31091 41.3438 6.19934C41.0352 5.42787 40.9727 4.71281 41.125 3.90247C42.2239 2.37813 44.0731 1.40424 45.9375 1.71497ZM43.8184 4.12122C43.4597 4.33778 43.4597 4.33778 43.0938 4.55872C43.4535 5.89274 44.1455 7.02142 44.8301 8.20911C44.9559 8.42879 45.0818 8.64847 45.2115 8.87481C45.4712 9.32777 45.7313 9.78049 45.9919 10.233C46.3575 10.8718 46.7171 11.5136 47.0748 12.1569C47.2881 12.5363 47.5015 12.9157 47.7148 13.295C47.813 13.4736 47.9111 13.6521 48.0122 13.8361C48.1041 13.9979 48.196 14.1597 48.2908 14.3264C48.37 14.4685 48.4493 14.6106 48.531 14.757C48.6136 14.8566 48.6962 14.9561 48.7813 15.0587C49.4756 15.0587 49.67 14.9679 50.2441 14.6212C50.4833 14.4768 50.7224 14.3325 50.9688 14.1837C50.6764 13.2131 50.2916 12.3875 49.7844 11.5109C49.7115 11.384 49.6386 11.2572 49.5635 11.1265C49.3312 10.7231 49.0973 10.3206 48.8633 9.91809C48.7114 9.65497 48.5595 9.39179 48.4078 9.12854C48.1047 8.60272 47.8009 8.07725 47.4967 7.55201C46.7527 6.26578 46.0173 4.97456 45.2813 3.68372C44.5869 3.68372 44.3925 3.77458 43.8184 4.12122ZM27.7813 7.18372C27.6357 7.26599 27.4901 7.34826 27.3401 7.43302C26.889 7.69698 26.4462 7.97164 26.0039 8.25013C25.6596 8.46386 25.3153 8.67748 24.9708 8.89099C24.7892 9.004 24.6076 9.117 24.4204 9.23343C23.6036 9.73844 22.7814 10.2344 21.9593 10.7308C21.1104 11.2448 20.2647 11.7642 19.419 12.2834C18.8376 12.6372 18.2523 12.9833 17.6658 13.3284C17.3233 13.5358 16.9809 13.7434 16.6387 13.9513C16.4807 14.0414 16.3228 14.1315 16.1601 14.2243C15.6723 14.5093 15.6723 14.5093 15.0938 15.0587C14.9101 15.8531 14.9101 15.8531 15.0938 16.59C15.8567 17.0986 16.268 17.0773 17.1592 16.953C17.7744 16.7944 18.244 16.5628 18.7971 16.2507C19.1126 16.0737 19.1126 16.0737 19.4344 15.893C20.1673 15.4719 20.8995 15.0497 21.6306 14.6255C21.7599 14.5505 21.8892 14.4755 22.0223 14.3982C22.8204 13.935 22.8204 13.935 23.6168 13.469C26.7178 11.6488 28.7742 10.974 32.3075 11.8604C35.7768 12.773 35.7768 12.773 36.0938 13.09C36.1026 13.4544 36.1031 13.8193 36.0938 14.1837C35.2951 14.388 34.766 14.4012 33.9746 14.1769C33.6912 14.1003 33.6912 14.1003 33.4021 14.0222C33.009 13.9111 32.616 13.8001 32.2229 13.689C31.9395 13.6124 31.9395 13.6124 31.6504 13.5343C31.4798 13.4859 31.3092 13.4376 31.1334 13.3878C30.5348 13.2947 30.1095 13.3523 29.5313 13.5275C29.2337 13.9579 29.2337 13.9579 29.0938 14.4025C30.0275 15.5569 30.9903 15.8142 32.4023 16.1661C32.8167 16.2756 33.2308 16.3859 33.6448 16.4968C33.8421 16.5494 34.0394 16.6019 34.2427 16.6561C34.8952 16.841 35.5197 17.0748 36.1484 17.3283C37.5878 17.8537 38.4945 17.9566 39.9415 17.3599C42.0206 16.3803 43.987 15.1756 45.9375 13.965C44.9965 12.0188 43.963 10.1442 42.875 8.27747C42.7261 8.34966 42.5772 8.42184 42.4238 8.49622C41.0301 8.97069 39.7753 8.64132 38.4146 8.24414C38.1569 8.17209 38.1569 8.17209 37.894 8.09858C37.1657 7.89489 36.4387 7.68668 35.7117 7.47857C31.6956 6.17303 31.6956 6.17303 27.7813 7.18372Z" fill="#764895"/>
<path d="M21.9844 38.9707C22.4878 39.1482 22.9913 39.3251 23.4951 39.5013C23.7365 39.5864 23.9779 39.6715 24.2266 39.7591C25.0937 40.0481 25.9685 40.2827 26.8558 40.5008C27.6425 40.7451 27.9866 41.0623 28.4375 41.7461C28.5325 42.121 28.6133 42.4996 28.6828 42.88C28.7195 43.0772 28.7563 43.2745 28.7942 43.4777C28.8209 43.6281 28.8476 43.7786 28.875 43.9336C29.0762 43.8198 29.0762 43.8198 29.2813 43.7038C29.4698 43.5972 29.6583 43.4906 29.8526 43.3807C30.0618 43.2624 30.2711 43.144 30.4867 43.0221C30.9455 42.7627 31.4045 42.5035 31.8636 42.2444C32.9018 41.6584 33.9397 41.0718 34.9735 40.478C35.13 40.3886 35.2865 40.2992 35.4478 40.2071C35.7329 40.0441 36.0174 39.8803 36.3014 39.7154C37.6551 38.9445 38.8968 38.492 40.4688 38.6836C41.3807 38.9572 41.8769 39.2104 42.5332 39.9004C43.0663 41.0732 43.0953 42.2084 42.6699 43.4277C41.3459 44.9123 39.6151 45.8728 37.9181 46.8705C36.8479 47.501 35.7947 48.158 34.7403 48.8144C33.158 49.7957 31.574 50.774 29.9824 51.7402C29.8026 51.8507 29.6228 51.9612 29.4375 52.075C27.6322 53.1655 26.083 53.6231 23.9665 53.2444C23.4275 53.111 22.8957 52.9623 22.3629 52.8058C22.1696 52.7518 21.9762 52.6979 21.7769 52.6424C21.1663 52.4719 20.5567 52.2979 19.9473 52.123C19.3339 51.9476 18.7204 51.773 18.1059 51.6014C17.7255 51.4951 17.3456 51.3866 16.9665 51.2757C16.0505 51.0196 15.3726 50.8403 14.4375 51.1523C14.5458 51.3215 14.5458 51.3215 14.6563 51.4941C14.9625 52.2406 14.9718 52.757 14.875 53.5586C14.1022 54.8466 12.9858 55.4507 11.5938 55.9648C10.7598 56.1016 10.7598 56.1016 10.0625 55.9648C8.90895 55.0294 8.27109 53.7688 7.5469 52.4922C7.41532 52.2621 7.28374 52.0319 7.14817 51.7949C6.87285 51.313 6.5981 50.8308 6.32391 50.3484C5.91485 49.636 5.49606 48.9304 5.074 48.2257C4.81359 47.784 4.55325 47.3422 4.29299 46.9004C4.16934 46.6975 4.0457 46.4947 3.9183 46.2857C3.22478 45.092 2.73577 44.0202 3.06253 42.6211C3.52163 42.1031 3.80245 41.8683 4.37503 41.5273C4.6047 41.3708 4.6047 41.3708 4.83901 41.2112C5.65102 40.6961 6.30893 40.3407 7.28713 40.4062C8.19681 40.6838 8.47745 40.9477 8.96878 41.7461C10.5025 41.3359 11.7991 40.4555 13.1524 39.653C16.3574 37.7803 18.4498 37.6885 21.9844 38.9707ZM10.0625 43.7148C11.0035 45.661 12.037 47.5356 13.125 49.4023C13.3484 49.2941 13.3484 49.2941 13.5762 49.1836C15.0427 48.6843 16.3689 49.0791 17.8 49.4912C18.1957 49.6009 18.5915 49.7105 18.9873 49.8202C19.6047 49.9939 20.2219 50.1683 20.839 50.343C21.4388 50.5121 22.0392 50.6785 22.6398 50.8447C22.8221 50.8973 23.0045 50.95 23.1924 51.0042C24.7086 51.4228 26.1106 51.6895 27.5574 50.896C27.7425 50.7955 27.9275 50.6949 28.1182 50.5914C28.9214 50.1226 29.7088 49.6362 30.4883 49.1289C32.5687 47.7939 34.6796 46.5126 36.7973 45.2382C37.513 44.807 38.2258 44.3712 38.9375 43.9336C39.1404 43.8102 39.3433 43.6868 39.5524 43.5597C39.7316 43.4468 39.9108 43.3339 40.0954 43.2175C40.2499 43.1213 40.4045 43.025 40.5638 42.9258C40.9963 42.6038 40.9963 42.6038 41.0567 41.8008C40.9706 41.0746 40.9706 41.0746 40.4688 40.6523C39.2629 40.5331 38.512 40.7693 37.4473 41.3223C37.303 41.3965 37.1588 41.4707 37.0102 41.5471C35.9954 42.0792 35.0042 42.65 34.0139 43.2261C33.8894 43.2985 33.7649 43.3709 33.6366 43.4456C33.0117 43.8097 32.3889 44.1766 31.7681 44.5476C28.9005 46.239 26.9272 46.6309 23.6925 45.8194C20.2232 44.9068 20.2232 44.9068 19.9063 44.5898C19.8974 44.2254 19.8969 43.8605 19.9063 43.4961C21.0338 43.1102 21.9818 43.489 23.0782 43.8105C24.6374 44.3162 24.6374 44.3162 26.25 44.3711C26.7354 43.9719 26.7354 43.9719 26.7696 43.4004C26.7449 42.821 26.7449 42.821 26.3182 42.5002C25.7621 42.152 25.2719 41.9825 24.6402 41.8076C24.414 41.7436 24.1879 41.6796 23.9549 41.6136C23.7197 41.5491 23.4845 41.4845 23.2422 41.418C20.6044 40.6831 20.6044 40.6831 19.5747 40.2858C16.3002 39.0413 12.7592 42.041 10.0625 43.7148ZM6.78128 42.4023C6.3374 42.6197 6.3374 42.6197 5.87893 42.9355C5.72046 43.039 5.56198 43.1425 5.39871 43.2491C5.27745 43.3306 5.1562 43.4121 5.03128 43.4961C5.32366 44.4667 5.70843 45.2923 6.2156 46.1689C6.28852 46.2958 6.36143 46.4226 6.43656 46.5533C6.66885 46.9567 6.90275 47.3592 7.13674 47.7617C7.28867 48.0248 7.44049 48.288 7.59219 48.5513C7.89536 49.0771 8.19912 49.6025 8.50329 50.1278C9.24736 51.414 9.98274 52.7052 10.7188 53.9961C11.5182 53.8171 12.1799 53.5008 12.9063 53.1211C12.5465 51.787 11.8545 50.6585 11.1699 49.4707C11.0442 49.2509 10.9185 49.031 10.789 48.8045C10.5296 48.3513 10.2696 47.8984 10.0091 47.4459C9.64304 46.8087 9.27988 46.1699 8.91751 45.5306C8.70228 45.1532 8.48695 44.7758 8.27151 44.3984C8.17156 44.2217 8.07162 44.045 7.96865 43.8629C7.876 43.7018 7.78335 43.5407 7.68789 43.3747C7.60747 43.2338 7.52706 43.0928 7.4442 42.9476C7.23161 42.5836 7.23161 42.5836 6.78128 42.4023Z" fill="#764895"/>
<path d="M47.4688 20.7459C47.5409 21.179 47.6131 21.6122 47.6875 22.0584C46.7384 22.8755 45.711 23.4829 44.625 24.0955C44.4513 24.1977 44.2776 24.3 44.0986 24.4053C42.8165 25.1286 42.8165 25.1286 42 25.0893C41.5625 24.9022 41.5625 24.9022 41.3438 24.6834C41.2788 24.1622 41.2788 24.1622 41.3438 23.5897C41.6821 23.2496 41.6821 23.2496 42.1641 22.9608C42.3417 22.8522 42.5194 22.7436 42.7024 22.6318C42.9037 22.5147 43.1051 22.3977 43.3125 22.2772C43.5409 22.1398 43.7693 22.0025 44.0046 21.861C46.4241 20.4217 46.4241 20.4217 47.4688 20.7459Z" fill="#764895"/>
<path d="M10.9375 21.1838C11.5702 21.5317 12.1771 21.9128 12.7832 22.3048C12.9404 22.4044 13.0976 22.5039 13.2596 22.6065C14.396 23.3298 14.396 23.3298 14.6562 23.59C14.6973 24.1232 14.6973 24.1232 14.6562 24.6838C14.5119 24.8281 14.3675 24.9725 14.2188 25.1213C12.8995 25.1028 11.8706 24.3702 10.7734 23.7131C10.5848 23.6029 10.3961 23.4928 10.2018 23.3794C8.81749 22.5637 8.81749 22.5637 8.3125 22.0588C8.39453 21.3752 8.39453 21.3752 8.53125 20.7463C9.46113 20.4363 10.0878 20.7893 10.9375 21.1838Z" fill="#764895"/>
<path d="M14.4375 35.1837C14.6562 35.4025 14.6562 35.4025 14.7203 35.9237C14.6562 36.4962 14.6562 36.4962 14.3256 36.8363C14.1685 36.9316 14.0114 37.0269 13.8496 37.1251C13.6717 37.2334 13.4937 37.3417 13.3104 37.4532C13.1049 37.5706 12.8993 37.6879 12.6875 37.8087C12.4481 37.9486 12.2087 38.0884 11.962 38.2325C9.74636 39.4828 9.74636 39.4828 8.75 39.34C8.60563 39.1956 8.46125 39.0512 8.3125 38.9025C8.34957 38.2579 8.41329 37.9227 8.8833 37.4686C9.4191 37.1382 9.95519 36.8118 10.5 36.4962C10.7391 36.3538 10.9782 36.2114 11.2246 36.0647C13.3975 34.8227 13.3975 34.8227 14.4375 35.1837Z" fill="#764895"/>
<path d="M9.28318 28.9767C9.69453 28.9644 9.69453 28.9644 10.1142 28.9519C10.3766 28.9494 10.6389 28.9468 10.9093 28.9442C11.1505 28.9399 11.3917 28.9355 11.6402 28.9311C12.25 29.0587 12.25 29.0587 12.6619 29.6128C12.7425 29.7909 12.8232 29.969 12.9062 30.1525C12.6614 30.5832 12.6614 30.5832 12.25 31.0275C11.6437 31.1372 11.6437 31.1372 10.917 31.136C10.6556 31.1361 10.3942 31.1363 10.1249 31.1364C9.85162 31.132 9.57838 31.1277 9.29686 31.1232C9.02362 31.1247 8.75037 31.1263 8.46885 31.1279C6.46362 31.1138 6.46362 31.1138 5.92973 30.7293C5.68748 30.3712 5.68748 30.3712 5.7285 29.797C6.15845 28.5402 8.17804 28.9892 9.28318 28.9767Z" fill="#764895"/>
<path d="M41.7812 34.9648C43.048 34.9998 44.033 35.637 45.1035 36.25C45.2799 36.3478 45.4563 36.4457 45.638 36.5465C47.1954 37.4242 47.1954 37.4242 47.6875 38.0273C47.5954 38.9944 47.5954 38.9944 47.25 39.3398C45.9358 39.529 45.1217 38.9555 44.0508 38.2871C43.8867 38.1883 43.7226 38.0894 43.5535 37.9876C41.8718 36.9664 41.8718 36.9664 41.3438 36.4961C41.2617 35.9355 41.2617 35.9355 41.3438 35.4023C41.4881 35.258 41.6325 35.1136 41.7812 34.9648Z" fill="#764895"/>
<path d="M44.3563 28.9487C44.5961 28.9491 44.8359 28.9495 45.083 28.95C45.3444 28.9498 45.6058 28.9497 45.8751 28.9495C46.1484 28.9539 46.4216 28.9583 46.7031 28.9628C46.9764 28.9612 47.2496 28.9597 47.5311 28.9581C49.5394 28.9722 49.5394 28.9722 50.0703 29.3643C50.3125 29.7147 50.3125 29.7147 50.2715 30.1659C50.0938 30.5897 50.0938 30.5897 49.6562 31.0272C48.6807 31.1397 47.6981 31.1184 46.7168 31.1229C46.3055 31.1337 46.3055 31.1337 45.8858 31.1447C45.4922 31.147 45.4922 31.147 45.0907 31.1494C44.7289 31.1538 44.7289 31.1538 44.3597 31.1583C43.75 31.0272 43.75 31.0272 43.3381 30.4727C43.2171 30.2058 43.2171 30.2058 43.0938 29.9335C43.4578 29.293 43.6155 29.0828 44.3563 28.9487Z" fill="#764895"/>
<path d="M6.67188 43.4688C7.21875 43.4961 7.21875 43.4961 7.4375 43.7148C7.46484 44.2617 7.46484 44.2617 7.4375 44.8086C7.21875 45.0273 7.21875 45.0273 6.67188 45.0547C6.125 45.0273 6.125 45.0273 5.90625 44.8086C5.87891 44.2617 5.87891 44.2617 5.90625 43.7148C6.125 43.4961 6.125 43.4961 6.67188 43.4688Z" fill="#764895"/>
<path d="M49.3281 12.625C49.875 12.6523 49.875 12.6523 50.0938 12.8711C50.1211 13.418 50.1211 13.418 50.0938 13.9648C49.875 14.1836 49.875 14.1836 49.3281 14.2109C48.7812 14.1836 48.7812 14.1836 48.5625 13.9648C48.5352 13.418 48.5352 13.418 48.5625 12.8711C48.7812 12.6523 48.7812 12.6523 49.3281 12.625Z" fill="#764895"/>
</g>
<defs>
<clipPath id="clip0_4_995">
<rect width="56" height="56" fill="white" transform="translate(0 0.839844)"/>
</clipPath>
</defs>
</svg>
