<svg width="56" height="56" viewBox="0 0 56 56" fill="none" xmlns="http://www.w3.org/2000/svg">
<path d="M20.7813 11.5936C20.9256 11.7109 21.07 11.8282 21.2188 11.949C21.8361 12.3734 22.2649 12.169 22.9688 12.0447C23.4063 12.0311 23.4063 12.0311 24.0352 12.4549C24.7794 12.9461 24.9735 12.9525 25.8262 12.9197C26.5139 12.895 26.8918 12.9008 27.5488 13.1385C28.4426 13.978 28.6914 14.9685 28.7377 16.1564C28.7405 16.5601 28.7397 16.9637 28.7357 17.3674C28.7359 17.6914 28.7359 17.6914 28.7361 18.0219C28.7356 18.4773 28.7334 18.9327 28.7298 19.3881C28.7247 20.0793 28.7253 20.7704 28.7268 21.4617C28.7255 21.9062 28.724 22.3506 28.7221 22.7951C28.7223 22.9991 28.7225 23.2031 28.7227 23.4133C28.6961 25.9121 28.2585 27.7334 26.6465 29.6678C26.1984 30.2549 26.0099 30.7924 25.8125 31.4998C26.011 31.4908 26.2095 31.4818 26.4141 31.4725C27.4649 31.5129 27.4649 31.5129 28 31.9373C28.8176 33.3097 28.8913 34.7937 28.5537 36.3465C28.3228 36.9952 28.0533 37.3675 27.4972 37.7698C26.2798 38.2096 25.1072 38.1559 23.8224 38.1495C23.4067 38.1504 23.4067 38.1504 22.9825 38.1514C22.3976 38.1518 21.8128 38.151 21.2279 38.1479C20.4801 38.1441 19.7324 38.1463 18.9846 38.1502C18.2684 38.1532 17.5523 38.1511 16.8361 38.1495C16.5683 38.1508 16.3006 38.1521 16.0247 38.1535C15.6501 38.1504 15.6501 38.1504 15.268 38.1472C15.049 38.1467 14.83 38.1462 14.6044 38.1457C13.7285 38.0249 13.1551 37.6375 12.5158 37.0429C12.1187 36.2782 12.1464 35.5265 12.1543 34.6854C12.1499 34.5211 12.1456 34.3569 12.1411 34.1876C12.1418 33.3428 12.1943 32.9041 12.6422 32.1663C13.2645 31.5892 13.8357 31.4547 14.6563 31.2811C14.4621 31.1381 14.4621 31.1381 14.2641 30.9923C12.3926 29.5818 11.3379 28.3123 10.7188 26.0311C10.6093 25.1243 10.6054 24.2363 10.6231 23.324C10.6215 23.0937 10.62 22.8633 10.6184 22.6259C10.6309 21.11 10.7854 20.2769 11.8809 19.1815C12.5796 18.7427 12.9729 18.7822 13.7813 18.8123C13.7767 18.6602 13.7721 18.508 13.7674 18.3512C13.7491 17.6573 13.7378 16.9634 13.7266 16.2694C13.7156 15.9102 13.7156 15.9102 13.7044 15.5439C13.6875 14.1566 13.7068 13.2965 14.6563 12.2498C15.402 11.6841 16.1529 11.7627 17.0625 11.8123C17.2791 11.8845 17.4956 11.9567 17.7188 12.0311C17.9128 11.9228 18.1068 11.8145 18.3067 11.7029C19.2861 11.2594 19.7377 11.3579 20.7813 11.5936ZM19.25 13.1248C18.4694 13.9054 18.7317 15.1039 18.7305 16.16C18.7251 16.4011 18.7198 16.6422 18.7142 16.8906C18.7134 17.1226 18.7126 17.3547 18.7117 17.5938C18.7099 17.8064 18.7081 18.019 18.7062 18.238C18.8419 18.9711 19.1274 19.2125 19.6875 19.6873C19.8319 19.8317 19.9763 19.9761 20.125 20.1248C20.6363 19.6136 20.3813 18.3336 20.3844 17.6532C20.3843 17.5047 20.3843 17.3562 20.3843 17.2033C20.3848 16.7505 20.3887 16.2978 20.3929 15.8451C20.3933 15.5613 20.3937 15.2775 20.3942 14.9851C20.3951 14.723 20.396 14.4609 20.3969 14.1909C20.4094 13.5339 20.4094 13.5339 19.9063 13.1248C19.6897 13.1248 19.4731 13.1248 19.25 13.1248ZM15.9688 13.5623C15.4834 13.9554 15.4834 13.9554 15.4816 14.4913C15.4839 14.6906 15.4862 14.8899 15.4885 15.0953C15.49 15.311 15.4914 15.5267 15.4928 15.749C15.4965 15.9748 15.5001 16.2007 15.5039 16.4334C15.5059 16.661 15.5079 16.8885 15.5099 17.123C15.5151 17.6862 15.5223 18.2492 15.5313 18.8123C16.0366 18.8123 16.5419 18.8123 17.0625 18.8123C17.0752 18.0194 17.083 17.2264 17.0899 16.4334C17.0935 16.2075 17.0972 15.9817 17.101 15.749C17.1031 15.4254 17.1031 15.4254 17.1052 15.0953C17.1087 14.7963 17.1087 14.7963 17.1122 14.4913C17.1104 13.9554 17.1104 13.9554 16.625 13.5623C16.4085 13.5623 16.1919 13.5623 15.9688 13.5623ZM22.5313 13.7811C21.944 14.3684 22.0374 14.6702 22.0357 15.4901C22.0351 15.7433 22.0345 15.9965 22.034 16.2574C22.0356 16.523 22.0373 16.7886 22.0391 17.0623C22.0374 17.328 22.0357 17.5936 22.034 17.8673C22.0345 18.1205 22.0351 18.3737 22.0357 18.6346C22.0362 18.8678 22.0366 19.101 22.0372 19.3413C22.0372 19.9418 22.0372 19.9418 22.5313 20.3436C23.1399 20.2549 23.1399 20.2549 23.625 19.9061C23.6805 19.0051 23.6655 18.1015 23.666 17.199C23.6687 16.9447 23.6714 16.6903 23.6741 16.4283C23.6746 16.1847 23.675 15.941 23.6754 15.69C23.6768 15.3536 23.6768 15.3536 23.6782 15.0104C23.6661 14.3862 23.6661 14.3862 23.1875 13.7811C22.971 13.7811 22.7544 13.7811 22.5313 13.7811ZM25.5938 14.6561C25.3177 14.8831 25.3177 14.8831 25.3502 15.3816C25.3513 15.6004 25.3525 15.8192 25.3537 16.0446C25.3544 16.2808 25.3551 16.5169 25.3558 16.7603C25.3576 17.0088 25.3595 17.2574 25.3613 17.5135C25.3623 17.7629 25.3633 18.0123 25.3643 18.2693C25.3669 18.8878 25.3705 19.5063 25.375 20.1248C25.736 20.197 26.0969 20.2692 26.4688 20.3436C26.9291 19.653 26.9622 19.4791 26.9644 18.6893C26.9652 18.4008 26.9652 18.4008 26.9661 18.1065C26.9644 17.9063 26.9627 17.7061 26.961 17.4998C26.9626 17.2996 26.9643 17.0994 26.9661 16.8931C26.9655 16.7008 26.965 16.5085 26.9644 16.3104C26.9639 16.1347 26.9634 15.959 26.9629 15.778C26.9338 15.2469 26.9338 15.2469 26.4688 14.6561C26.18 14.6561 25.8913 14.6561 25.5938 14.6561ZM12.4688 20.9998C12.3347 21.4895 12.3347 21.4895 12.3526 22.0397C12.3514 22.2449 12.3503 22.45 12.3491 22.6614C12.3525 22.8755 12.3559 23.0897 12.3594 23.3104C12.356 23.5186 12.3526 23.7269 12.3491 23.9414C12.3584 25.6375 12.6678 27.1855 13.7736 28.5176C13.916 28.6265 14.0584 28.7353 14.2051 28.8475C14.3565 28.9682 14.5079 29.0889 14.664 29.2132C15.0168 29.4742 15.3697 29.7351 15.7227 29.9959C16.1875 30.4061 16.1875 30.4061 16.625 31.4998C19.0794 31.4998 21.5338 31.4998 24.0625 31.4998C24.2791 30.7779 24.4956 30.0561 24.7188 29.3123C25.1503 28.6262 25.1503 28.6262 25.6074 28.0682C26.7696 26.642 26.976 25.3096 26.9336 23.5291C26.9316 23.3691 26.9297 23.2091 26.9276 23.0442C26.9225 22.6544 26.9147 22.2646 26.9063 21.8748C26.6657 21.8799 26.4252 21.885 26.1774 21.8902C25.375 21.8748 25.375 21.8748 24.7871 21.6287C24.6202 21.5656 24.4533 21.5024 24.2813 21.4373C23.8474 21.6269 23.8474 21.6269 23.4063 21.8748C22.6681 21.9376 22.2246 21.9419 21.5606 21.6014C20.8966 21.407 20.7731 21.481 20.1797 21.7928C19.6681 22.0886 19.5014 22.2127 19.315 22.7823C19.2935 22.916 19.2721 23.0496 19.25 23.1873C19.3662 23.2668 19.4824 23.3464 19.6021 23.4283C20.5862 24.1287 21.33 24.7223 21.875 25.8123C21.8203 26.3319 21.8203 26.3319 21.6563 26.6873C21.1778 26.783 21.1778 26.783 20.5625 26.6873C20.2962 26.313 20.0311 25.9375 19.7789 25.5534C18.7423 24.2255 16.9973 24.1144 15.4356 23.9085C15.2506 23.8871 15.0656 23.8657 14.875 23.8436C14.8028 23.4826 14.7306 23.1217 14.6563 22.7498C15.1858 22.4851 15.5701 22.5009 16.1602 22.4764C16.9876 22.4011 17.2117 22.3736 17.8555 21.8065C18.2227 21.1988 18.2227 21.1988 18.1563 20.3436C17.3724 20.3245 16.5887 20.3128 15.8047 20.3026C15.4714 20.2943 15.4714 20.2943 15.1314 20.2859C14.8099 20.2827 14.8099 20.2827 14.4819 20.2795C14.2849 20.276 14.0879 20.2726 13.8849 20.2691C13.2213 20.3604 12.932 20.5174 12.4688 20.9998ZM14 33.2498C13.9941 33.7192 13.9899 34.1886 13.9863 34.658C13.9838 34.9194 13.9813 35.1808 13.9787 35.4501C13.9259 36.0692 13.9259 36.0692 14.2188 36.3123C14.599 36.3351 14.9802 36.3426 15.3612 36.3441C15.7269 36.3462 15.7269 36.3462 16.1 36.3483C16.3655 36.3486 16.6309 36.3488 16.9044 36.3491C17.175 36.3498 17.4455 36.3505 17.7243 36.3513C18.2979 36.3524 18.8714 36.3529 19.445 36.3529C20.0347 36.3528 20.6243 36.3544 21.214 36.3573C22.0607 36.3613 22.9073 36.3624 23.754 36.3627C24.1516 36.3651 24.1516 36.3651 24.5571 36.3675C24.8016 36.3668 25.0461 36.3662 25.2981 36.3655C25.514 36.3658 25.73 36.3661 25.9526 36.3664C26.5102 36.3627 26.5102 36.3627 26.9063 35.8748C26.9678 35.2985 26.9678 35.2985 26.9473 34.658C26.9452 34.3328 26.9452 34.3328 26.943 34.0009C26.9656 33.48 26.9656 33.48 26.6875 33.2498C26.2915 33.2293 25.8946 33.2241 25.498 33.225C25.244 33.225 24.99 33.225 24.7283 33.225C24.4519 33.2262 24.1755 33.2273 23.8908 33.2285C23.4688 33.2289 23.4688 33.2289 23.0383 33.2294C22.2892 33.2302 21.5401 33.2324 20.7911 33.2348C20.0272 33.237 19.2632 33.238 18.4993 33.2391C16.9996 33.2415 15.4998 33.2452 14 33.2498Z" fill="#764895"/>
<path d="M46.1016 17.7924C46.343 17.7908 46.343 17.7908 46.5893 17.7892C46.9283 17.7884 47.2673 17.7904 47.6063 17.795C48.1236 17.8009 48.6399 17.7951 49.1572 17.7881C49.4876 17.7888 49.818 17.7902 50.1484 17.7924C50.3789 17.789 50.3789 17.789 50.6139 17.7856C51.4667 17.8059 51.817 17.9155 52.4829 18.4662C53.4029 19.6099 53.2049 20.8285 53.2088 22.2336C53.2109 22.6907 53.2177 23.1476 53.2246 23.6046C53.226 23.8974 53.2272 24.1902 53.228 24.483C53.2301 24.7483 53.2321 25.0136 53.2342 25.2869C53.1478 26.1122 52.9315 26.6392 52.5 27.3439C51.7868 27.7005 51.3236 27.6649 50.5313 27.5626C49.8858 27.112 49.3321 26.5922 48.7813 26.0314C47.7327 26.8849 46.778 27.8059 45.8281 28.7657C45.461 29.1337 45.0935 29.5013 44.7255 29.8685C44.464 30.1299 44.2038 30.3927 43.944 30.6559C43.2139 31.3473 42.5815 31.7285 41.579 31.759C40.0278 31.6218 38.8681 30.1979 37.8574 29.1486C37.7078 28.996 37.5582 28.8434 37.4041 28.6863C37.0387 28.3132 36.6749 27.9386 36.3125 27.5626C35.3344 28.3981 34.3639 29.241 33.403 30.0962C32.6415 30.7316 32.0394 30.7065 31.0625 30.6251C30.3591 30.3066 29.9074 30.0575 29.5483 29.3562C29.257 28.4415 29.261 27.824 29.6767 26.926C30.2867 25.9712 31.1249 25.2017 31.9329 24.4147C32.2527 24.1029 32.5689 23.7877 32.8847 23.4717C34.8565 21.5248 34.8565 21.5248 36.2578 21.3146C37.4937 21.3577 38.114 22.1244 38.9375 22.9689C39.1684 23.1979 39.3997 23.4266 39.6313 23.655C40.2798 24.2967 40.9222 24.944 41.5625 25.5939C42.7197 24.6295 43.7911 23.6086 44.8438 22.5314C44.5898 21.9802 44.4255 21.6727 43.9551 21.2736C43.4407 20.6762 43.357 20.249 43.2228 19.4902C43.5117 18.0127 44.8128 17.7738 46.1016 17.7924ZM45.2813 19.4689C45.2049 20.14 45.2049 20.14 45.6718 20.5259C46.0033 20.8142 46.336 21.1014 46.6698 21.3872C47.0313 21.8751 47.0313 21.8751 47.0501 22.5092C46.7526 23.3587 46.2685 23.8613 45.623 24.4591C45.5129 24.5661 45.4028 24.6731 45.2894 24.7834C44.4876 25.5532 44.4876 25.5532 43.9688 25.8126C43.9688 25.957 43.9688 26.1014 43.9688 26.2501C43.8469 26.2997 43.7251 26.3494 43.5996 26.4005C43.0434 26.6827 43.0434 26.6827 42.5469 27.2755C42.2762 27.5259 42.2762 27.5259 42 27.7814C41.1696 27.7311 40.7181 27.2623 40.127 26.715C39.9366 26.5401 39.7463 26.3653 39.5502 26.1852C39.1199 25.7699 38.7025 25.3531 38.2907 24.9205C38.1841 24.8097 38.0775 24.6988 37.9677 24.5846C37.6645 24.2668 37.3652 23.9452 37.0662 23.6234C36.594 23.14 36.594 23.14 36.1285 23.2056C35.4622 23.4889 35.0724 23.9169 34.5659 24.4326C34.4148 24.5851 34.4148 24.5851 34.2607 24.7407C33.9404 25.0646 33.6226 25.3907 33.3047 25.7169C33.0875 25.9374 32.8702 26.1577 32.6527 26.3779C32.1209 26.9169 31.5912 27.458 31.0625 28.0001C31.2069 28.2889 31.3513 28.5776 31.5 28.8751C32.2436 28.7489 32.5822 28.5218 33.0919 27.9728C33.2223 27.8363 33.3528 27.6998 33.4871 27.5592C33.757 27.2702 34.0265 26.9808 34.2955 26.691C35.2889 25.6537 35.2889 25.6537 36.0339 25.3538C36.6588 25.3806 36.8339 25.505 37.2832 25.9357C37.4307 26.0736 37.5782 26.2114 37.7301 26.3535C38.173 26.7978 38.6096 27.2463 39.0443 27.6985C39.1797 27.8378 39.3151 27.977 39.4545 28.1205C39.728 28.4032 39.9988 28.6885 40.2666 28.9764C40.3931 29.1077 40.5196 29.2389 40.6499 29.3741C40.7625 29.4938 40.8751 29.6135 40.9911 29.7369C41.3334 30.0179 41.3334 30.0179 41.7653 29.908C42.5121 29.648 42.9828 29.052 43.5176 28.4923C43.6405 28.3669 43.7634 28.2415 43.8901 28.1123C44.2825 27.7118 44.6727 27.3094 45.0625 26.9064C45.5756 26.3758 46.0908 25.8475 46.6074 25.3204C46.7246 25.1978 46.8417 25.0752 46.9624 24.9489C47.5451 24.3549 47.9464 23.9549 48.7813 23.8439C49.2188 24.1421 49.2188 24.1421 49.6563 24.5685C50.2192 25.1105 50.7018 25.4783 51.4063 25.8126C51.4189 24.8374 51.4267 23.8621 51.4336 22.8868C51.4391 22.4698 51.4391 22.4698 51.4447 22.0443C51.4461 21.7792 51.4475 21.5142 51.449 21.2411C51.4513 20.9959 51.4536 20.7508 51.4559 20.4982C51.4676 19.8736 51.4676 19.8736 50.9688 19.4689C50.3739 19.408 50.3739 19.408 49.6819 19.4261C49.2991 19.4283 49.2991 19.4283 48.9086 19.4304C48.641 19.4341 48.3734 19.4377 48.0977 19.4415C47.8284 19.4435 47.5591 19.4455 47.2816 19.4475C46.6148 19.4527 45.948 19.4599 45.2813 19.4689Z" fill="#764895"/>
<path d="M47.8037 33.3815C48.0849 33.3806 48.366 33.3798 48.6557 33.3789C48.8019 33.3803 48.9481 33.3817 49.0988 33.3831C49.5454 33.3866 49.9916 33.3831 50.4381 33.3789C50.7193 33.3798 51.0004 33.3806 51.2901 33.3815C51.5482 33.3822 51.8064 33.383 52.0724 33.3837C52.7188 33.4686 52.7188 33.4686 53.1225 33.7065C53.7705 34.7802 53.6272 36.237 53.629 37.4592C53.6307 37.7194 53.6307 37.7194 53.6323 37.9848C53.6355 38.5535 53.637 39.1223 53.6382 39.6911C53.6395 40.0884 53.6407 40.4858 53.642 40.8831C53.6443 41.7139 53.6456 42.5446 53.6463 43.3753C53.6475 44.4392 53.6528 45.503 53.659 46.5669C53.6631 47.3866 53.6642 48.2063 53.6646 49.026C53.6652 49.4183 53.667 49.8106 53.6698 50.2029C53.6736 50.751 53.6732 51.299 53.6717 51.8472C53.6748 52.0893 53.6748 52.0893 53.6779 52.3362C53.6701 53.2973 53.5546 53.9363 52.9375 54.6874C52.2475 54.8185 52.2475 54.8185 51.4054 54.8096C51.2569 54.8091 51.1083 54.8086 50.9553 54.808C50.6417 54.8059 50.3282 54.8012 50.0148 54.7939C49.5341 54.7831 49.054 54.7805 48.5732 54.7793C46.2244 54.7555 46.2244 54.7555 45.7188 54.2499C45.6741 53.6142 45.6568 52.9993 45.6587 52.3632C45.6576 52.1679 45.6565 51.9726 45.6553 51.7714C45.6523 51.1236 45.6525 50.4758 45.653 49.8279C45.6521 49.3789 45.6512 48.9299 45.6501 48.4809C45.6485 47.5388 45.6486 46.5967 45.6497 45.6546C45.651 44.4457 45.6473 43.2369 45.6422 42.0281C45.639 41.1005 45.6388 40.1729 45.6395 39.2453C45.6394 38.7995 45.6382 38.3537 45.636 37.908C45.6333 37.2852 45.6348 36.6626 45.6373 36.0399C45.6357 35.8547 45.634 35.6696 45.6323 35.4788C45.6436 34.2212 45.6436 34.2212 46.0116 33.7496C46.5812 33.3092 47.0949 33.3835 47.8037 33.3815ZM47.4688 35.2186C47.1978 35.7607 47.2223 36.1206 47.2217 36.7269C47.221 36.9508 47.2203 37.1747 47.2196 37.4054C47.2201 37.6498 47.2205 37.8943 47.221 38.1461C47.2208 38.4001 47.2206 38.6541 47.2203 38.9158C47.2202 39.4575 47.2206 39.9993 47.2215 40.5411C47.2227 41.3509 47.2215 42.1607 47.2201 42.9706C47.2193 46.2983 47.3006 49.6139 47.4688 52.9374C48.9125 52.9374 50.3563 52.9374 51.8438 52.9374C51.8438 47.0902 51.8438 41.243 51.8438 35.2186C50.4 35.2186 48.9563 35.2186 47.4688 35.2186Z" fill="#764895"/>
<path d="M38.8507 36.6855C39.3443 36.6817 39.8376 36.6721 40.3312 36.6625C40.6453 36.6602 40.9595 36.6584 41.2737 36.6569C41.7025 36.6521 41.7025 36.6521 42.14 36.6472C42.875 36.75 42.875 36.75 43.3989 37.1524C44.0309 38.0033 43.9983 38.7378 44.004 39.7676C44.0056 39.9929 44.0056 39.9929 44.0073 40.2227C44.0105 40.7192 44.012 41.2156 44.0132 41.7121C44.0144 42.0573 44.0157 42.4024 44.017 42.7476C44.0193 43.4712 44.0205 44.1948 44.0213 44.9184C44.0225 45.8455 44.0278 46.7725 44.034 47.6996C44.0381 48.4125 44.0392 49.1254 44.0395 49.8384C44.0402 50.1802 44.042 50.522 44.0448 50.8638C44.0486 51.3419 44.0481 51.8198 44.0467 52.2979C44.0479 52.7059 44.0479 52.7059 44.0491 53.1221C43.9625 53.8666 43.8557 54.1772 43.3125 54.6875C42.6959 54.7763 42.1656 54.8103 41.5488 54.8038C41.3765 54.8046 41.2042 54.8054 41.0267 54.8063C40.6626 54.8069 40.2985 54.8053 39.9345 54.8016C39.3769 54.7969 38.82 54.8016 38.2625 54.8072C37.9087 54.8066 37.5549 54.8055 37.2012 54.8038C37.0344 54.8055 36.8676 54.8073 36.6957 54.8091C35.5453 54.7887 35.5453 54.7887 35.0655 54.3385C34.6812 53.6275 34.6979 53.0919 34.6963 52.2848C34.6952 52.1328 34.694 51.9808 34.6929 51.8242C34.69 51.3228 34.6919 50.8216 34.6941 50.3202C34.6937 49.971 34.693 49.6217 34.6922 49.2725C34.6912 48.5408 34.6926 47.8092 34.6957 47.0775C34.6994 46.1408 34.6973 45.2043 34.6934 44.2677C34.691 43.5465 34.6917 42.8253 34.6934 42.1041C34.6939 41.7588 34.6933 41.4136 34.6918 41.0683C34.6901 40.585 34.6927 40.1019 34.6963 39.6186C34.6969 39.3439 34.6974 39.0692 34.6979 38.7861C34.7878 38.0054 34.9669 37.5915 35.4375 36.9688C36.4205 36.4773 37.7575 36.6913 38.8507 36.6855ZM36.5313 38.5C36.5313 43.2644 36.5313 48.0288 36.5313 52.9375C38.4081 52.9375 40.285 52.9375 42.2188 52.9375C42.2188 48.1732 42.2188 43.4088 42.2188 38.5C40.3419 38.5 38.465 38.5 36.5313 38.5Z" fill="#764895"/>
<path d="M25.9065 40.4242C26.0697 40.423 26.2329 40.4217 26.4011 40.4204C26.7472 40.4184 27.0933 40.4169 27.4393 40.4161C27.969 40.414 28.4984 40.4072 29.028 40.4003C29.3638 40.3988 29.6996 40.3977 30.0354 40.3969C30.194 40.3942 30.3526 40.3915 30.516 40.3887C31.6106 40.3935 31.6106 40.3935 32.1384 40.7602C32.6048 41.479 32.6231 42.1146 32.629 42.9462C32.6311 43.1842 32.6332 43.4222 32.6354 43.6674C32.6363 43.9244 32.6372 44.1815 32.6382 44.4463C32.6394 44.7103 32.6407 44.9744 32.642 45.2464C32.644 45.8052 32.6455 46.3641 32.6463 46.9229C32.6484 47.7789 32.6552 48.6348 32.6621 49.4908C32.6635 50.0332 32.6647 50.5757 32.6655 51.1182C32.6682 51.3748 32.6709 51.6314 32.6737 51.8957C32.6731 52.1344 32.6724 52.3731 32.6717 52.619C32.6729 52.9337 32.6729 52.9337 32.6741 53.2548C32.5785 53.9183 32.4112 54.2167 31.9375 54.6874C31.3209 54.7761 30.7906 54.8101 30.1738 54.8036C30.0015 54.8044 29.8292 54.8053 29.6517 54.8061C29.2876 54.8067 28.9235 54.8051 28.5595 54.8015C28.0019 54.7968 27.445 54.8014 26.8874 54.807C26.5337 54.8064 26.1799 54.8053 25.8262 54.8036C25.6594 54.8054 25.4925 54.8071 25.3207 54.809C24.164 54.7884 24.164 54.7884 23.6905 54.317C23.3469 53.707 23.3231 53.3238 23.3213 52.626C23.3193 52.3887 23.3172 52.1514 23.3151 51.9069C23.3164 51.6517 23.3177 51.3965 23.3191 51.1336C23.3185 50.8703 23.3178 50.6071 23.3172 50.3359C23.3167 49.7793 23.318 49.2227 23.3207 48.6662C23.3242 47.8144 23.3207 46.963 23.3165 46.1113C23.317 45.5705 23.3178 45.0298 23.3191 44.489C23.3178 44.2342 23.3164 43.9795 23.3151 43.717C23.3171 43.479 23.3192 43.241 23.3213 42.9958C23.3219 42.7872 23.3224 42.5785 23.3229 42.3635C23.5723 40.6207 24.3688 40.4332 25.9065 40.4242ZM25.1562 41.9999C25.1562 45.6093 25.1562 49.2186 25.1562 52.9374C27.0331 52.9374 28.91 52.9374 30.8437 52.9374C30.8437 49.328 30.8437 45.7186 30.8437 41.9999C28.9669 41.9999 27.09 41.9999 25.1562 41.9999Z" fill="#764895"/>
<path d="M14.5742 46.0691C14.8181 46.0681 14.8181 46.0681 15.0669 46.0672C15.4104 46.0667 15.7539 46.0679 16.0974 46.0707C16.6231 46.0742 17.1485 46.0707 17.6743 46.0665C18.0081 46.0669 18.342 46.0678 18.6758 46.0691C18.833 46.0677 18.9903 46.0664 19.1523 46.065C20.2351 46.0803 20.2351 46.0803 20.7625 46.4488C21.4778 47.544 21.2677 48.9253 21.2713 50.1805C21.2734 50.6246 21.2802 51.0685 21.2871 51.5126C21.2888 51.9333 21.2888 51.9333 21.2905 52.3624C21.2926 52.6194 21.2946 52.8764 21.2967 53.1412C21.2084 53.9016 21.1587 54.2027 20.5625 54.6875C19.9431 54.7708 19.4099 54.7999 18.7911 54.7883C18.5319 54.788 18.5319 54.788 18.2674 54.7877C17.9024 54.7864 17.5374 54.7829 17.1725 54.7775C16.6126 54.7695 16.0531 54.7685 15.4932 54.7687C15.1388 54.7665 14.7843 54.7639 14.4298 54.761C14.2619 54.7605 14.0939 54.76 13.9209 54.7595C12.7383 54.7383 12.7383 54.7383 12.25 54.25C12.2037 53.6931 12.1835 53.1606 12.1842 52.6034C12.1833 52.4405 12.1823 52.2776 12.1814 52.1097C12.1801 51.7649 12.18 51.4202 12.1809 51.0754C12.1816 50.5477 12.1765 50.0203 12.171 49.4926C12.1705 49.1578 12.1703 48.823 12.1705 48.4881C12.1685 48.3302 12.1665 48.1723 12.1644 48.0096C12.17 47.4056 12.1907 46.9233 12.4788 46.3851C13.1508 46.0253 13.8307 46.0628 14.5742 46.0691ZM14 47.6875C14 49.42 14 51.1525 14 52.9375C15.8047 52.9375 17.6094 52.9375 19.4688 52.9375C19.4688 51.205 19.4688 49.4725 19.4688 47.6875C17.6641 47.6875 15.8594 47.6875 14 47.6875Z" fill="#764895"/>
<path d="M19.25 0.875C19.8106 0.820312 19.8106 0.820312 20.3438 0.875C20.7682 1.29947 20.5983 2.09972 20.5992 2.67883C20.6 2.83771 20.6007 2.99659 20.6015 3.16029C20.6026 3.49699 20.6031 3.8337 20.603 4.1704C20.6035 4.68654 20.6075 5.20257 20.6116 5.71869C20.6123 6.04525 20.6127 6.37181 20.6129 6.69836C20.6145 6.85332 20.6161 7.00828 20.6177 7.16793C20.6126 8.26244 20.6126 8.26244 20.125 8.75C19.5508 8.66797 19.5508 8.66797 19.0313 8.53125C18.6667 7.43773 18.7718 6.29623 18.772 5.1512C18.7715 4.70472 18.7675 4.25835 18.7634 3.81189C18.7629 3.53075 18.7625 3.24962 18.7621 2.95996C18.7612 2.70181 18.7603 2.44365 18.7594 2.17767C18.8125 1.53125 18.8125 1.53125 19.25 0.875Z" fill="#764895"/>
<path d="M9.84376 4.15625C10.3471 4.16479 10.3471 4.16479 10.9375 4.375C11.2946 4.84207 11.5724 5.26098 11.8535 5.76953C12.0025 6.02646 12.1514 6.28338 12.3004 6.54028C12.4282 6.76418 12.5559 6.98807 12.6875 7.21875C12.9041 7.54359 12.9041 7.54359 13.125 7.875C13.1797 8.43555 13.1797 8.43555 13.125 8.96875C12.6875 9.40625 12.6875 9.40625 12.1868 9.43701C11.239 9.03824 10.909 8.25393 10.418 7.38281C10.3167 7.2156 10.2155 7.04838 10.1112 6.8761C9.3976 5.64273 9.3976 5.64273 9.43873 4.81592C9.62501 4.375 9.62501 4.375 9.84376 4.15625Z" fill="#764895"/>
<path d="M28.6562 4.15625C29.2305 4.23828 29.2305 4.23828 29.75 4.375C29.9239 4.87732 30.0038 5.15124 29.8233 5.66021C29.7438 5.79808 29.6644 5.93595 29.5825 6.078C29.4527 6.3062 29.4527 6.3062 29.3202 6.539C29.2274 6.69564 29.1346 6.85228 29.0391 7.01367C28.9497 7.17116 28.8603 7.32865 28.7682 7.49091C27.9643 8.88286 27.9643 8.88286 27.3438 9.40625C26.8762 9.35124 26.587 9.30579 26.25 8.96875C26.3245 7.74712 26.6724 6.96894 27.3301 5.94727C27.4089 5.82221 27.4877 5.69715 27.5689 5.5683C27.9 5.04937 28.2198 4.59267 28.6562 4.15625Z" fill="#764895"/>
<path d="M36.5312 11.1565C36.75 11.3752 36.75 11.3752 36.8756 11.8631C36.75 12.469 36.75 12.469 36.4181 12.7634C35.9423 13.0757 35.4573 13.356 34.959 13.6311C34.7908 13.7305 34.6226 13.8299 34.4493 13.9323C32.8563 14.8416 32.8563 14.8416 31.9375 14.6565C31.7931 14.5121 31.6488 14.3677 31.5 14.219C31.5273 13.7943 31.5273 13.7943 31.7188 13.344C32.3164 12.8224 33.0084 12.4392 33.6875 12.0315C33.8649 11.9209 34.0422 11.8104 34.225 11.6965C35.6782 10.8289 35.6782 10.8289 36.5312 11.1565Z" fill="#764895"/>
<path d="M4.15625 11.1562C4.74067 11.4538 5.29499 11.7942 5.85156 12.1406C6.0013 12.2316 6.15103 12.3227 6.3053 12.4166C7.3973 13.0847 7.3973 13.0847 7.65625 13.3437C7.68359 13.8906 7.68359 13.8906 7.65625 14.4374C7.58406 14.5096 7.51188 14.5818 7.4375 14.6562C6.13947 14.5868 5.27417 14.1615 4.18359 13.4804C4.03583 13.393 3.88808 13.3056 3.73584 13.2155C2.65376 12.555 2.65376 12.555 2.40625 11.8124C2.47844 11.5959 2.55062 11.3793 2.625 11.1562C3.24178 10.8478 3.49301 10.9605 4.15625 11.1562Z" fill="#764895"/>
</svg>
