<svg width="48" height="49" viewBox="0 0 48 49" fill="none" xmlns="http://www.w3.org/2000/svg">
<path d="M35.7093 4.67175C36.0324 4.81954 36.0324 4.81954 36.3621 4.97032C41.3576 7.45317 45.1404 12.0889 46.9437 17.3438C48.7814 23.4872 48.2186 29.6022 45.2761 35.2723C42.1902 40.5292 37.3028 44.0868 31.4964 45.705C30.315 45.9928 29.1603 46.1213 27.948 46.1953C27.0392 46.2555 26.3113 46.3857 25.4798 46.751C21.9247 48.1695 17.4803 47.3835 14.0534 45.9695C11.1953 44.7213 8.82162 43.0815 6.62026 40.8776C6.47182 40.7311 6.32338 40.5846 6.17045 40.4336C4.21834 38.3812 2.35217 35.1873 2.39483 32.2787C2.39664 32.1179 2.39845 31.9572 2.40031 31.7915C2.40264 31.6702 2.40497 31.5488 2.40737 31.4238C2.67402 31.2963 2.94173 31.1711 3.20982 31.0467C3.43326 30.9417 3.43326 30.9417 3.6612 30.8345C5.18948 30.2382 6.56209 30.1544 8.18756 30.1667C8.39147 30.1651 8.59538 30.1636 8.80546 30.162C10.1896 30.1655 11.4871 30.3254 12.8393 30.6192C12.7816 30.4823 12.7239 30.3454 12.6644 30.2043C11.3105 26.9915 10.9961 22.8628 12.2375 19.5564C13.0047 17.7241 13.907 16.0064 15.2467 14.5278C15.3754 14.3802 15.5042 14.2327 15.6369 14.0807C17.882 11.6594 21.0458 9.89844 24.3812 9.66473C29.2667 9.55265 32.9606 10.3883 36.6371 13.8112C36.873 14.0663 36.873 14.0663 37.1136 14.3266C37.2346 14.4469 37.3556 14.5672 37.4803 14.6912C39.7194 17.0219 40.9785 20.3592 41.1259 23.5792C41.1362 23.7086 41.1465 23.838 41.1572 23.9713C41.347 28.1343 39.6167 31.7823 36.9576 34.8527C34.5672 37.4017 30.9722 39.0814 27.4841 39.2684C26.6813 39.2823 25.8795 39.2805 25.0767 39.2684C25.1879 39.4821 25.2991 39.6957 25.4137 39.9158C25.5606 40.2029 25.7074 40.4899 25.8541 40.777C25.9273 40.917 26.0005 41.057 26.0759 41.2013C26.5602 42.1549 26.8595 43.0489 27.0829 44.0959C31.4967 44.4334 35.916 42.246 39.2271 39.4978C43.3108 35.9419 45.6596 31.1895 46.1028 25.7604C46.4123 20.1735 44.4113 14.9539 40.7622 10.7815C37.3446 7.12359 32.5525 4.81049 27.5327 4.61439C21.4655 4.47934 16.3462 6.3866 11.9224 10.5929C8.99679 13.7 7.11203 17.7387 6.62026 21.9701C6.69401 21.8858 6.76776 21.8016 6.84375 21.7148C7.18068 21.3326 7.52104 20.9536 7.86156 20.5746C7.97754 20.442 8.09353 20.3094 8.21303 20.1728C9.09006 19.204 9.09006 19.204 9.79169 18.9506C10.2313 18.9529 10.2313 18.9529 10.6075 19.1792C10.8332 19.5564 10.8332 19.5564 10.8118 20.0102C10.5732 20.7449 10.1288 21.19 9.59499 21.7234C9.49078 21.8296 9.38658 21.9358 9.27922 22.0452C9.05898 22.2683 8.83769 22.4904 8.61543 22.7115C8.27569 23.0509 7.94164 23.3953 7.60766 23.7403C7.39274 23.9567 7.17751 24.1728 6.96193 24.3885C6.86242 24.492 6.76291 24.5955 6.66039 24.7021C6.21549 25.1365 5.94589 25.3832 5.31353 25.4142C4.64471 25.1114 4.23294 24.7059 3.71449 24.185C3.61397 24.0845 3.51345 23.984 3.40989 23.8805C3.19852 23.6682 2.98815 23.455 2.77872 23.2408C2.45823 22.9137 2.13416 22.5904 1.80944 22.2675C1.60417 22.0604 1.3991 21.8531 1.19428 21.6456C1.00841 21.4573 0.822537 21.2689 0.631033 21.0749C0.0227176 20.3501 0.0227176 20.3501 0 19.7575C0.38869 19.3049 0.38869 19.3049 0.802456 18.9529C1.85097 19.2499 2.44112 19.9229 3.17221 20.6878C3.29207 20.8107 3.41193 20.9336 3.53543 21.0602C3.82951 21.3622 4.1217 21.6659 4.41351 21.9701C4.45773 21.7499 4.45773 21.7499 4.50284 21.5254C5.38362 17.4144 6.79797 13.4802 9.62947 10.3038C9.77481 10.1272 9.92014 9.95061 10.0699 9.76869C12.8234 6.52952 16.605 4.39568 20.6632 3.26374C20.8859 3.19944 21.1086 3.13514 21.338 3.06888C26.1508 1.88845 31.2586 2.60367 35.7093 4.67175ZM16.9848 15.2066C16.55 15.6323 16.1645 16.0157 15.8485 16.5392C15.9376 17.2684 16.176 17.8983 16.4503 18.5758C16.7511 19.3732 16.9004 20.0508 16.9393 20.9015C17.0055 22.0076 17.356 22.7307 18.0553 23.5792C18.1626 23.7107 18.2699 23.8421 18.3805 23.9776C19.0546 24.5514 19.8003 24.8293 20.6131 25.1632C22.663 26.048 23.9355 26.8432 25.1684 28.7547C25.4441 29.1613 25.7206 29.4827 26.0798 29.8147C26.1595 29.0159 26.0707 28.5347 25.6786 27.8535C25.1717 26.8954 25.0887 26.0533 25.2774 24.9872C25.6492 23.984 26.0871 23.0995 26.8823 22.3724C26.7056 22.3283 26.529 22.2842 26.347 22.2388C24.2048 21.6524 24.2048 21.6524 23.6223 21.0021C23.2213 20.2698 23.0706 19.7892 23.0706 18.9529C23.4195 17.9472 24.0937 17.1915 24.7711 16.3876C25.3529 15.5275 25.3181 14.5293 25.3824 13.5197C25.478 13.1198 25.478 13.1198 26.0798 12.7175C26.5774 12.6342 26.5774 12.6342 27.1205 12.5918C27.3013 12.5767 27.482 12.5617 27.6683 12.5462C27.8061 12.5363 27.9439 12.5265 28.086 12.5163C28.086 12.1845 28.086 11.8526 28.086 11.5106C23.9543 10.7893 20.0022 12.4178 16.9848 15.2066ZM29.8915 11.9129C29.8527 12.0413 29.8139 12.1696 29.7739 12.3018C29.7217 12.468 29.6695 12.6342 29.6156 12.8055C29.5388 13.054 29.5388 13.054 29.4605 13.3076C29.2896 13.7232 29.2896 13.7232 28.8884 13.9243C28.5801 13.9695 28.2706 14.0064 27.9606 14.0375C27.7966 14.0543 27.6327 14.0712 27.4637 14.0886C27.3381 14.1007 27.2124 14.1129 27.0829 14.1255C27.0456 14.3184 27.0456 14.3184 27.0077 14.5152C26.9663 14.7185 26.9249 14.9218 26.8823 15.1312C26.867 15.2629 26.8518 15.3946 26.836 15.5303C26.6439 16.8087 26.0751 17.5554 25.2327 18.5176C24.8386 18.9458 24.8386 18.9458 24.6755 19.5564C25.2211 20.2711 25.9977 20.4457 26.8196 20.7004C26.9604 20.7456 27.1012 20.7909 27.2463 20.8375C27.5925 20.9485 27.9395 21.0572 28.2866 21.1655C28.5142 21.9399 28.5284 22.4052 28.1557 23.1078C28.0061 23.3674 27.8532 23.6251 27.6973 23.8809C26.9343 25.1404 26.9343 25.1404 26.8823 26.5964C27.0493 27.1009 27.0493 27.1009 27.2835 27.577C27.7698 28.7267 27.8877 29.6064 27.4841 30.8204C27.4179 30.9531 27.3517 31.0859 27.2835 31.2227C25.5008 31.5732 25.5008 31.5732 24.7507 31.0718C24.5833 30.8605 24.4262 30.6409 24.2743 30.4181C24.0071 30.0449 23.7396 29.672 23.4718 29.2992C23.3436 29.1123 23.2153 28.9254 23.0831 28.7327C22.0193 27.3771 20.5476 26.8543 19.0078 26.189C17.3813 25.4496 16.3628 24.4611 15.5954 22.8367C15.3532 22.0773 15.3308 21.3119 15.2898 20.5196C15.2409 19.8834 15.09 19.3403 14.8454 18.7518C14.2661 19.0422 14.2421 19.4052 14.0304 20.0089C13.9619 20.2008 13.8934 20.3927 13.8228 20.5904C12.9611 23.3282 13.0942 26.7909 14.2436 29.4124C14.3433 29.7018 14.3433 29.7018 14.445 29.997C15.2123 31.8453 16.7663 32.4775 18.4954 33.2585C18.8577 33.4353 18.8577 33.4353 19.4596 33.8375C20.6792 34.1468 21.9255 34.2433 23.1787 34.2815C23.3737 34.2875 23.5686 34.2936 23.7694 34.2999C24.1588 34.31 24.5483 34.3165 24.9379 34.3192C26.0783 34.3467 26.8044 34.4437 27.6847 35.2455C28.0217 35.7641 28.0217 35.7641 28.2615 36.3016C28.3437 36.481 28.426 36.6604 28.5107 36.8453C28.5691 36.9811 28.6276 37.117 28.6878 37.257C32.11 36.5217 35.0394 34.7734 37.0501 31.8607C38.0924 30.2778 38.0924 30.2778 38.5171 28.49C38.2379 27.8116 37.8246 27.5441 37.239 27.1118C36.3841 26.4797 35.8764 25.9993 35.5087 24.9872C35.5145 24.6465 35.5145 24.6465 35.5204 24.2989C35.5054 23.3784 35.1994 22.8821 34.7188 22.1209C33.9866 20.919 33.5474 19.9959 33.7031 18.5506C33.7962 18.3286 33.7962 18.3286 33.8912 18.102C34.3552 16.8895 34.5182 15.4112 34.305 14.1255C33.8378 13.4276 33.2687 13.2101 32.4995 12.9186C32.2851 12.8227 32.0707 12.7268 31.8498 12.6279C30.9041 12.1437 30.9041 12.1437 29.8915 11.9129ZM35.9099 15.9358C35.8094 16.5318 35.7101 17.128 35.6145 17.7249C35.5361 18.1874 35.4395 18.6469 35.3331 19.1038C35.2815 20.4488 36.1896 21.4981 36.913 22.5735C37.1136 23.1769 37.1136 23.1769 37.0384 23.9312C37.0269 24.4967 37.0739 24.73 37.4043 25.197C37.9597 25.7632 38.3604 26.1415 39.1197 26.3952C39.9672 23.476 38.885 20.44 37.5415 17.8655C37.1388 17.1453 36.6646 16.546 36.1105 15.9358C36.0443 15.9358 35.9781 15.9358 35.9099 15.9358ZM6.72057 32.0021C6.33266 32.0511 6.33266 32.0511 5.93692 32.1011C5.30501 32.2127 4.79339 32.3643 4.21289 32.6307C4.50846 35.7794 6.45621 38.1533 8.6264 40.2741C8.77484 40.4248 8.92328 40.5754 9.07621 40.7306C11.729 43.275 15.9444 45.4259 19.65 45.5251C19.9529 45.5146 19.9529 45.5146 20.262 45.5039C19.7001 45.1283 19.1645 44.8988 18.5372 44.6577C15.8685 43.624 12.4085 41.9611 10.8332 39.4696C10.8958 39.017 10.8958 39.017 11.0338 38.665C11.4734 38.5094 11.4734 38.5094 12.0368 38.4638C12.5188 38.8206 12.5188 38.8206 13.0274 39.3438C15.4589 41.7151 18.4283 43.2099 21.729 43.9701C21.8752 44.0039 22.0214 44.0377 22.172 44.0725C23.2221 44.2933 24.205 44.3246 25.2774 44.297C24.1908 40.1372 21.2703 36.8385 17.654 34.6421C14.2838 32.6894 10.6394 31.4913 6.72057 32.0021ZM23.4217 35.9496C23.1532 35.9776 23.1532 35.9776 22.8794 36.0061C22.7439 36.0206 22.6084 36.0352 22.4688 36.0501C22.7924 36.5862 23.0698 36.9755 23.663 37.2122C24.7427 37.4715 25.7762 37.4933 26.8823 37.4581C26.687 36.7338 26.5496 36.4957 25.9043 36.0878C25.0517 35.763 24.3099 35.8558 23.4217 35.9496Z" fill="#F7F7F7"/>
</svg>
