<svg width="57" height="56" viewBox="0 0 57 56" fill="none" xmlns="http://www.w3.org/2000/svg">
<rect x="0.5" width="56" height="56" rx="28" fill="#EEEEEE"/>
<g clip-path="url(#clip0_13_2360)">
<path d="M15.5646 16.1881C15.6954 16.1875 15.8261 16.1868 15.9609 16.1861C16.3921 16.1845 16.8233 16.1866 17.2545 16.1888C17.5546 16.1888 17.8547 16.1886 18.1548 16.1883C18.7833 16.1881 19.4117 16.1897 20.0402 16.1925C20.8458 16.1961 21.6514 16.1957 22.4571 16.1941C23.0766 16.1933 23.6961 16.1943 24.3156 16.1958C24.6126 16.1964 24.9097 16.1964 25.2068 16.1959C25.6218 16.1956 26.0368 16.1976 26.4518 16.2003C26.5746 16.1998 26.6974 16.1992 26.8239 16.1986C27.5611 16.2067 28.0213 16.2827 28.5685 16.8134C28.9703 17.3144 29.1368 17.6578 29.1515 18.2938C29.155 18.3981 29.1586 18.5023 29.1622 18.6097C29.1687 18.8288 29.1743 19.0479 29.1788 19.267C29.1846 19.4233 29.1846 19.4233 29.1905 19.5829C29.193 19.678 29.1955 19.7732 29.198 19.8712C29.2668 20.2075 29.3474 20.2976 29.6251 20.5009C30.0264 20.5578 30.0264 20.5578 30.4934 20.5489C30.5813 20.5496 30.6691 20.5503 30.7596 20.551C30.9503 20.5522 31.141 20.5526 31.3317 20.5522C31.6339 20.5516 31.936 20.5534 32.2382 20.5557C32.8802 20.5603 33.5222 20.562 34.1642 20.5634C34.9069 20.5649 35.6496 20.5676 36.3924 20.5734C36.6894 20.575 36.9864 20.5745 37.2835 20.5739C37.4668 20.5751 37.65 20.5764 37.8333 20.5778C37.9926 20.578 38.1519 20.5783 38.316 20.5785C39.113 20.6654 39.6059 21.0324 40.1251 21.6259C40.2735 22.0709 40.2622 22.4306 40.2579 22.8993C40.2568 23.0583 40.2557 23.2174 40.2545 23.3812C40.2523 23.5642 40.2523 23.5642 40.2501 23.7509C40.3478 23.7489 40.4454 23.7469 40.546 23.7449C40.9917 23.7371 41.4373 23.7322 41.8829 23.7274C42.0366 23.7243 42.1902 23.7211 42.3485 23.7179C43.3343 23.7099 44.0223 23.7338 44.8048 24.3759C45.1344 25.0088 45.0963 25.7417 44.9243 26.4284C44.8169 26.7259 44.6967 27.0135 44.5685 27.3026C44.5225 27.4117 44.4765 27.5209 44.4292 27.6333C44.278 27.9912 44.1234 28.3475 43.9689 28.704C43.862 28.9554 43.7553 29.2069 43.649 29.4585C43.482 29.8535 43.3148 30.2483 43.1468 30.6429C42.7327 31.6156 42.3298 32.5924 41.9327 33.5721C41.8766 33.7106 41.8204 33.8491 41.7626 33.9917C41.5432 34.5333 41.3241 35.075 41.1054 35.6169C40.9539 35.9918 40.8018 36.3665 40.6495 36.7411C40.6056 36.8504 40.5617 36.9596 40.5164 37.0722C40.2967 37.6118 40.0662 38.1458 39.8189 38.6733C39.7729 38.7722 39.7268 38.871 39.6794 38.9729C39.4473 39.3328 39.2364 39.5166 38.8751 39.7509C38.519 39.7993 38.2115 39.819 37.8559 39.8152C37.7538 39.8161 37.6517 39.8169 37.5465 39.8178C37.2047 39.8201 36.863 39.8188 36.5211 39.8175C36.276 39.8184 36.0308 39.8195 35.7856 39.8208C35.1198 39.8236 34.454 39.8232 33.7882 39.8221C33.2325 39.8215 32.6767 39.8224 32.121 39.8233C30.81 39.8254 29.499 39.825 28.188 39.8229C26.8353 39.8208 25.4826 39.8228 24.1299 39.8268C22.9686 39.8301 21.8074 39.8311 20.6461 39.83C19.9524 39.8294 19.2588 39.8297 18.5652 39.8322C17.913 39.8345 17.2608 39.8338 16.6085 39.8307C16.3692 39.8301 16.1298 39.8305 15.8905 39.8321C15.5636 39.8341 15.237 39.8322 14.9102 39.8294C14.8155 39.8309 14.7209 39.8323 14.6233 39.8339C13.9039 39.8212 13.611 39.6195 13.1251 39.1259C12.9435 38.7626 12.9831 38.4453 12.9817 38.0394C12.9813 37.9524 12.9808 37.8654 12.9803 37.7758C12.9789 37.4829 12.9785 37.1901 12.978 36.8972C12.9772 36.6878 12.9764 36.4784 12.9755 36.269C12.9733 35.699 12.972 35.129 12.971 34.559C12.9703 34.203 12.9696 33.847 12.9688 33.4909C12.9664 32.3774 12.9646 31.2639 12.9636 30.1504C12.9624 28.8644 12.9591 27.5784 12.954 26.2924C12.9502 25.2989 12.9484 24.3054 12.948 23.3118C12.9477 22.7182 12.9466 22.1247 12.9434 21.5311C12.9405 20.9725 12.94 20.414 12.9413 19.8554C12.9413 19.6506 12.9405 19.4457 12.9388 19.2408C12.9366 18.9608 12.9375 18.6809 12.9391 18.4008C12.9388 18.2442 12.9385 18.0876 12.9382 17.9263C13.0331 17.274 13.3437 16.8922 13.8242 16.4579C14.4142 16.1711 14.9167 16.1817 15.5646 16.1881ZM14.1251 17.6259C13.9765 18.0433 13.9847 18.4486 13.9851 18.8883C13.9849 19.0447 13.9847 19.201 13.9846 19.3621C13.985 19.535 13.9855 19.7079 13.9859 19.8809C13.986 20.0632 13.9859 20.2455 13.9859 20.4279C13.9858 20.9227 13.9866 21.4174 13.9874 21.9122C13.9882 22.4294 13.9883 22.9466 13.9884 23.4637C13.9888 24.443 13.9899 25.4222 13.9911 26.4014C13.9925 27.5163 13.9932 28.6312 13.9938 29.746C13.9951 32.0393 13.9973 34.3326 14.0001 36.6259C14.3613 36.165 14.5904 35.6802 14.8204 35.1449C14.8634 35.0464 14.9064 34.9478 14.9507 34.8463C15.0439 34.6325 15.1368 34.4186 15.2295 34.2045C15.3767 33.8643 15.5248 33.5244 15.6731 33.1847C15.8824 32.7048 16.0916 32.2249 16.3006 31.7449C16.7837 30.6362 17.2709 29.5293 17.7591 28.4228C17.9113 28.0778 18.063 27.7325 18.2147 27.3873C18.4369 26.8823 18.6617 26.3786 18.8885 25.8756C18.9866 25.6562 19.0813 25.4353 19.1756 25.2142C19.2252 25.1037 19.2747 24.9931 19.3258 24.8793C19.3638 24.7911 19.4019 24.703 19.4411 24.6122C19.7344 24.2355 20.0574 24.0345 20.5001 23.8759C21.106 23.8005 21.711 23.8052 22.3206 23.8076C22.5055 23.8065 22.6903 23.8052 22.8752 23.8037C23.3751 23.8002 23.875 23.7998 24.375 23.7999C24.8982 23.7995 25.4213 23.7963 25.9445 23.7934C26.9344 23.7884 27.9242 23.7858 28.914 23.7842C30.0413 23.7822 31.1686 23.7774 32.2958 23.7723C34.6139 23.7621 36.932 23.7553 39.2501 23.7509C39.2569 23.5321 39.2617 23.3134 39.2657 23.0946C39.2686 22.9728 39.2715 22.851 39.2745 22.7255C39.2497 22.3695 39.1944 22.1721 39.0001 21.8759C38.6337 21.6927 38.309 21.7342 37.8999 21.7331C37.7688 21.7325 37.7688 21.7325 37.635 21.7318C37.4448 21.7309 37.2546 21.7302 37.0643 21.7298C36.7626 21.7289 36.461 21.7269 36.1593 21.7246C35.3013 21.718 34.4434 21.7121 33.5854 21.7101C33.0607 21.7088 32.5361 21.7052 32.0114 21.6999C31.812 21.6984 31.6125 21.6978 31.4131 21.698C29.4698 21.7001 29.4698 21.7001 28.6251 21.1259C28.2208 20.6954 28.1113 20.2981 28.1075 19.7167C28.1051 19.6135 28.1027 19.5104 28.1002 19.4042C28.096 19.1884 28.0937 18.9725 28.0934 18.7567C28.0903 18.6533 28.0872 18.5498 28.0841 18.4432C28.0829 18.3494 28.0818 18.2556 28.0806 18.1589C27.9531 17.7104 27.7414 17.5368 27.3751 17.2509C26.9685 17.1598 26.5704 17.168 26.1551 17.1739C25.9718 17.1729 25.9718 17.1729 25.7848 17.1718C25.3812 17.1704 24.9779 17.1734 24.5743 17.1766C24.2937 17.1768 24.013 17.1768 23.7323 17.1766C23.1443 17.1768 22.5563 17.1792 21.9683 17.1831C21.2146 17.1881 20.461 17.1886 19.7073 17.1877C19.1278 17.1873 18.5484 17.1888 17.9689 17.1909C17.691 17.1918 17.4131 17.1922 17.1352 17.1921C16.7468 17.1923 16.3585 17.195 15.9701 17.1984C15.7978 17.1978 15.7978 17.1978 15.6221 17.1973C15.0315 17.2051 14.5891 17.2162 14.1251 17.6259ZM20.2501 25.2509C20.0656 25.5714 20.0656 25.5714 19.9161 25.9496C19.8548 26.0943 19.7934 26.239 19.7302 26.388C19.698 26.4659 19.6657 26.5437 19.6325 26.6239C19.4928 26.9612 19.3498 27.2971 19.207 27.633C19.1308 27.8125 19.0546 27.992 18.9787 28.1716C18.5907 29.0872 18.1865 29.9952 17.7805 30.9029C17.0418 32.5552 16.3088 34.21 15.5819 35.8674C15.4862 36.0856 15.3902 36.3036 15.2939 36.5215C15.1601 36.8244 15.0273 37.1277 14.8946 37.431C14.8545 37.5214 14.8144 37.6118 14.773 37.705C14.6123 38.0748 14.5001 38.343 14.5001 38.7509C17.6044 38.7625 20.7086 38.7713 23.8129 38.7768C25.2543 38.7793 26.6956 38.7829 28.1369 38.7886C29.3929 38.7936 30.6489 38.7968 31.9049 38.7979C32.5702 38.7985 33.2354 38.8001 33.9007 38.8037C34.5265 38.8071 35.1524 38.8082 35.7782 38.8074C36.0082 38.8075 36.2382 38.8085 36.4682 38.8105C36.7817 38.8129 37.0951 38.8123 37.4086 38.811C37.5458 38.8132 37.5458 38.8132 37.6857 38.8154C38.1052 38.8104 38.3339 38.7822 38.672 38.5249C38.9599 38.1364 39.1323 37.7139 39.3087 37.2675C39.3483 37.1702 39.3879 37.0729 39.4287 36.9727C39.5579 36.6544 39.6853 36.3355 39.8126 36.0165C39.9024 35.7943 39.9923 35.5721 40.0823 35.3499C40.3069 34.7946 40.53 34.2386 40.7525 33.6824C40.8644 33.4027 40.9765 33.1231 41.0887 32.8436C41.3351 32.2295 41.5815 31.6153 41.8254 31.0002C42.1539 30.1726 42.4895 29.3487 42.8331 28.5272C42.9478 28.2513 43.0624 27.9754 43.1769 27.6994C43.2511 27.5219 43.3257 27.3446 43.4011 27.1675C43.5054 26.9223 43.6076 26.6763 43.7096 26.4301C43.7688 26.2896 43.828 26.1492 43.8889 26.0045C44.007 25.6024 44.0043 25.3951 43.8751 25.0009C43.6666 24.7924 43.4129 24.8596 43.1343 24.858C43.0455 24.8581 42.9567 24.8582 42.8653 24.8583C42.7248 24.8577 42.7248 24.8577 42.5814 24.8572C42.2651 24.8561 41.9488 24.8559 41.6325 24.8557C41.4067 24.8551 41.1809 24.8545 40.9551 24.8538C40.3399 24.8522 39.7247 24.8514 39.1095 24.8508C38.7255 24.8505 38.3415 24.8499 37.9575 24.8494C36.7571 24.8477 35.5567 24.8465 34.3563 24.846C32.9687 24.8454 31.5811 24.8432 30.1935 24.8396C29.1223 24.8369 28.0511 24.8357 26.9798 24.8355C26.3394 24.8354 25.699 24.8346 25.0587 24.8324C24.4563 24.8303 23.854 24.8301 23.2516 24.8312C23.0303 24.8312 22.809 24.8307 22.5877 24.8295C22.2859 24.8279 21.9843 24.8286 21.6826 24.8299C21.5506 24.8284 21.5506 24.8284 21.416 24.8269C20.9088 24.832 20.612 24.8858 20.2501 25.2509Z" fill="#764895"/>
<path d="M25.004 31.2291C25.1063 31.2285 25.2086 31.2278 25.3139 31.2272C25.6526 31.2254 25.9913 31.2245 26.3301 31.2238C26.5656 31.2231 26.8012 31.2224 27.0368 31.2217C27.5311 31.2204 28.0254 31.2196 28.5197 31.2192C29.152 31.2185 29.7843 31.2155 30.4166 31.2119C30.9034 31.2096 31.3903 31.209 31.8771 31.2088C32.1102 31.2084 32.3432 31.2074 32.5762 31.2057C32.9029 31.2036 33.2295 31.2039 33.5562 31.2047C33.6519 31.2035 33.7475 31.2024 33.846 31.2012C34.5705 31.2068 35.2055 31.3291 35.7378 31.8625C35.9993 32.3613 35.966 32.8281 35.875 33.3742C35.543 34.3112 35.1032 35.0863 34.25 35.6242C33.8739 35.7259 33.5177 35.7259 33.1298 35.7193C33.0212 35.7204 32.9125 35.7215 32.8006 35.7227C32.4436 35.7253 32.0869 35.7225 31.73 35.7194C31.4808 35.7196 31.2316 35.72 30.9824 35.7207C30.4611 35.7212 29.9399 35.7192 29.4186 35.7151C28.7513 35.7102 28.0841 35.7113 27.4167 35.7144C26.9025 35.7162 26.3883 35.7149 25.8741 35.7127C25.6281 35.712 25.382 35.7122 25.136 35.7132C24.7919 35.7142 24.448 35.7112 24.1039 35.7071C23.9523 35.7087 23.9523 35.7087 23.7975 35.7103C23.0746 35.6954 22.755 35.5189 22.25 34.9992C22.0231 34.5455 22.0428 34.111 22.125 33.6242C22.467 32.7447 22.818 31.9161 23.625 31.3742C24.0892 31.2195 24.5204 31.2298 25.004 31.2291ZM23.8866 32.5423C23.6841 32.849 23.5465 33.1675 23.4062 33.507C23.3501 33.64 23.2941 33.7729 23.2363 33.9099C23.0838 34.2402 23.0838 34.2402 23.25 34.4992C26.7975 34.4992 30.345 34.4992 34 34.4992C34.7872 33.2042 34.7872 33.2042 34.75 32.4992C34.362 32.3052 33.9511 32.3547 33.5251 32.3541C33.3742 32.3531 33.3742 32.3531 33.2202 32.3522C32.8865 32.3504 32.5529 32.3495 32.2192 32.3488C31.9879 32.3481 31.7565 32.3474 31.5251 32.3467C31.0398 32.3454 30.5544 32.3446 30.069 32.3442C29.4463 32.3435 28.8237 32.3405 28.201 32.3369C27.7231 32.3346 27.2451 32.334 26.7672 32.3338C26.5376 32.3334 26.308 32.3324 26.0784 32.3307C25.7576 32.3286 25.4368 32.3288 25.116 32.3297C24.9731 32.3279 24.9731 32.3279 24.8273 32.3262C24.3262 32.327 24.3262 32.327 23.8866 32.5423Z" fill="#764895"/>
<path d="M24.958 33.1094C25.1065 33.1097 25.255 33.1099 25.408 33.1102C25.5305 33.1102 25.5305 33.1102 25.6556 33.1102C25.9268 33.1102 26.198 33.1112 26.4692 33.1122C26.6568 33.1124 26.8444 33.1126 27.032 33.1127C27.5266 33.1132 28.0213 33.1144 28.5159 33.1158C29.0203 33.1171 29.5247 33.1177 30.0291 33.1183C31.0194 33.1196 32.0097 33.1218 33 33.1244C33.0478 33.3314 33.0892 33.54 33.125 33.7494C33 33.8744 33 33.8744 32.667 33.8894C32.4443 33.889 32.4443 33.889 32.217 33.8886C32.0945 33.8886 32.0945 33.8886 31.9694 33.8887C31.6982 33.8886 31.427 33.8876 31.1558 33.8866C30.9682 33.8864 30.7806 33.8862 30.593 33.8861C30.0984 33.8856 29.6037 33.8844 29.1091 33.883C28.6047 33.8817 28.1003 33.8811 27.5959 33.8805C26.6056 33.8792 25.6153 33.877 24.625 33.8744C24.5772 33.6674 24.5358 33.4588 24.5 33.2494C24.625 33.1244 24.625 33.1244 24.958 33.1094Z" fill="#764895"/>
</g>
<defs>
<clipPath id="clip0_13_2360">
<rect width="32" height="32" fill="white" transform="translate(13 12)"/>
</clipPath>
</defs>
</svg>
