<svg width="71" height="70" viewBox="0 0 71 70" fill="none" xmlns="http://www.w3.org/2000/svg">
<rect x="0.5" width="70" height="70" rx="35" fill="url(#paint0_linear_35_7889)"/>
<g clip-path="url(#clip0_35_7889)">
<path d="M19.2057 20.2337C19.3692 20.2329 19.5327 20.232 19.7011 20.2312C20.2402 20.2292 20.7791 20.2318 21.3181 20.2346C21.6933 20.2346 22.0684 20.2343 22.4435 20.2339C23.2291 20.2337 24.0146 20.2356 24.8002 20.2392C25.8073 20.2436 26.8143 20.2432 27.8214 20.2412C28.5957 20.2401 29.3701 20.2413 30.1444 20.2433C30.5158 20.244 30.8872 20.244 31.2585 20.2434C31.7773 20.243 32.296 20.2456 32.8147 20.249C32.9683 20.2483 33.1218 20.2476 33.2799 20.2468C34.2013 20.2569 34.7766 20.352 35.4606 21.0152C35.9629 21.6415 36.171 22.0708 36.1893 22.8658C36.1938 22.9961 36.1982 23.1264 36.2028 23.2607C36.2109 23.5345 36.2178 23.8084 36.2235 24.0822C36.2308 24.2777 36.2308 24.2777 36.2382 24.4771C36.2413 24.5961 36.2444 24.715 36.2476 24.8376C36.3335 25.258 36.4342 25.3705 36.7814 25.6246C37.283 25.6958 37.283 25.6958 37.8668 25.6847C37.9766 25.6856 38.0864 25.6864 38.1996 25.6873C38.4379 25.6888 38.6763 25.6893 38.9147 25.6888C39.2924 25.6881 39.67 25.6903 40.0478 25.6932C40.8502 25.699 41.6527 25.7011 42.4552 25.7027C43.3837 25.7046 44.3121 25.708 45.2405 25.7152C45.6118 25.7173 45.9831 25.7167 46.3544 25.7159C46.5834 25.7174 46.8125 25.719 47.0416 25.7207C47.2407 25.7211 47.4399 25.7214 47.645 25.7217C48.6412 25.8303 49.2573 26.2891 49.9064 27.0309C50.0918 27.5872 50.0778 28.0368 50.0724 28.6226C50.071 28.8214 50.0696 29.0202 50.0681 29.2251C50.0654 29.4538 50.0654 29.4538 50.0626 29.6871C50.1847 29.6846 50.3068 29.6822 50.4325 29.6797C50.9896 29.6699 51.5466 29.6638 52.1036 29.6578C52.2957 29.6539 52.4878 29.6499 52.6856 29.6459C53.9179 29.6359 54.7779 29.6658 55.756 30.4684C56.168 31.2595 56.1204 32.1757 55.9054 33.0341C55.7712 33.406 55.6209 33.7654 55.4606 34.1268C55.4031 34.2632 55.3457 34.3996 55.2865 34.5402C55.0975 34.9875 54.9043 35.433 54.7111 35.8785C54.5774 36.1927 54.4442 36.5071 54.3112 36.8217C54.1025 37.3154 53.8935 37.809 53.6834 38.3021C53.1659 39.518 52.6622 40.739 52.1659 41.9637C52.0957 42.1368 52.0256 42.3099 51.9533 42.4882C51.679 43.1652 51.4051 43.8423 51.1317 44.5196C50.9424 44.9883 50.7522 45.4566 50.5619 45.9249C50.507 46.0615 50.4521 46.1981 50.3955 46.3388C50.1209 47.0133 49.8328 47.6808 49.5236 48.3402C49.4661 48.4638 49.4086 48.5873 49.3493 48.7146C49.0591 49.1645 48.7955 49.3943 48.3439 49.6871C47.8987 49.7476 47.5144 49.7723 47.0699 49.7675C46.9423 49.7686 46.8146 49.7697 46.6832 49.7708C46.2559 49.7737 45.8287 49.7721 45.4014 49.7705C45.0949 49.7716 44.7885 49.7729 44.482 49.7745C43.6497 49.778 42.8175 49.7776 41.9853 49.7762C41.2906 49.7754 40.5959 49.7765 39.9012 49.7777C38.2625 49.7803 36.6238 49.7798 34.985 49.7772C33.2941 49.7745 31.6033 49.777 29.9123 49.782C28.4608 49.7862 27.0092 49.7874 25.5576 49.786C24.6906 49.7853 23.8235 49.7856 22.9565 49.7888C22.1412 49.7917 21.326 49.7907 20.5107 49.7869C20.2115 49.7861 19.9123 49.7867 19.6131 49.7886C19.2045 49.7911 18.7963 49.7888 18.3877 49.7853C18.2694 49.7871 18.1511 49.789 18.0292 49.7909C17.1299 49.775 16.7638 49.523 16.1564 48.9059C15.9293 48.4518 15.9789 48.0552 15.9771 47.5477C15.9766 47.439 15.976 47.3303 15.9754 47.2183C15.9737 46.8522 15.9731 46.4861 15.9725 46.1201C15.9715 45.8583 15.9705 45.5965 15.9694 45.3348C15.9666 44.6223 15.965 43.9098 15.9637 43.1972C15.9629 42.7522 15.962 42.3072 15.961 41.8622C15.958 40.4703 15.9558 39.0784 15.9545 37.6865C15.9529 36.079 15.9488 34.4716 15.9425 32.8641C15.9378 31.6222 15.9355 30.3802 15.935 29.1383C15.9346 28.3963 15.9332 27.6544 15.9293 26.9124C15.9256 26.2142 15.925 25.516 15.9266 24.8178C15.9267 24.5617 15.9257 24.3056 15.9235 24.0495C15.9208 23.6995 15.9219 23.3496 15.9239 22.9996C15.9236 22.8038 15.9232 22.6081 15.9228 22.4064C16.0414 21.591 16.4297 21.1138 17.0303 20.5709C17.7677 20.2124 18.3958 20.2257 19.2057 20.2337ZM17.4064 22.0309C17.2207 22.5526 17.2309 23.0593 17.2313 23.6089C17.2311 23.8044 17.2309 23.9998 17.2307 24.2012C17.2312 24.4173 17.2318 24.6335 17.2324 24.8496C17.2324 25.0775 17.2324 25.3055 17.2323 25.5334C17.2323 26.1519 17.2332 26.7703 17.2343 27.3888C17.2353 28.0353 17.2354 28.6817 17.2355 29.3282C17.236 30.5522 17.2373 31.7763 17.2389 33.0003C17.2406 34.3939 17.2415 35.7875 17.2423 37.1811C17.2439 40.0477 17.2467 42.9143 17.2501 45.7809C17.7016 45.2048 17.9879 44.5987 18.2755 43.9297C18.3293 43.8065 18.383 43.6833 18.4384 43.5564C18.5549 43.2892 18.671 43.0217 18.7868 42.7542C18.9709 42.3289 19.156 41.9041 19.3413 41.4794C19.603 40.8796 19.8645 40.2796 20.1257 39.6796C20.7297 38.2938 21.3386 36.9101 21.9489 35.5271C22.1391 35.0957 22.3287 34.6642 22.5184 34.2327C22.7961 33.6014 23.0772 32.9718 23.3607 32.3431C23.4832 32.0688 23.6017 31.7926 23.7195 31.5162C23.7814 31.3781 23.8434 31.24 23.9072 31.0976C23.9548 30.9874 24.0024 30.8772 24.0514 30.7637C24.418 30.2929 24.8217 30.0417 25.3751 29.8434C26.1325 29.7492 26.8888 29.7551 27.6508 29.7581C27.8819 29.7567 28.1129 29.755 28.344 29.7532C28.9689 29.7488 29.5938 29.7483 30.2187 29.7484C30.8727 29.7479 31.5267 29.7439 32.1806 29.7403C33.4179 29.734 34.6552 29.7308 35.8926 29.7287C37.3017 29.7263 38.7107 29.7203 40.1198 29.714C43.0174 29.7011 45.915 29.6926 48.8126 29.6871C48.8211 29.4137 48.8272 29.1403 48.8322 28.8668C48.8358 28.7145 48.8394 28.5622 48.8432 28.4054C48.8121 27.9604 48.743 27.7136 48.5001 27.3434C48.0422 27.1144 47.6363 27.1663 47.1249 27.1649C46.961 27.1641 46.961 27.1641 46.7938 27.1633C46.556 27.1621 46.3182 27.1613 46.0804 27.1607C45.7033 27.1596 45.3262 27.1572 44.9491 27.1543C43.8767 27.1461 42.8042 27.1386 41.7318 27.1362C41.0759 27.1346 40.4201 27.13 39.7643 27.1235C39.515 27.1216 39.2657 27.1207 39.0164 27.1211C36.5872 27.1237 36.5872 27.1237 35.5314 26.4059C35.026 25.8678 34.8891 25.3712 34.8844 24.6444C34.8814 24.5155 34.8784 24.3866 34.8753 24.2538C34.87 23.984 34.8671 23.7142 34.8667 23.4444C34.8629 23.3151 34.8591 23.1858 34.8551 23.0526C34.8537 22.9353 34.8522 22.818 34.8507 22.6971C34.6913 22.1365 34.4267 21.9196 33.9689 21.5621C33.4606 21.4483 32.9631 21.4585 32.4439 21.466C32.2147 21.4647 32.2147 21.4647 31.9809 21.4633C31.4765 21.4615 30.9723 21.4653 30.4679 21.4693C30.1171 21.4696 29.7662 21.4696 29.4154 21.4693C28.6804 21.4696 27.9454 21.4725 27.2104 21.4774C26.2683 21.4836 25.3263 21.4843 24.3842 21.4831C23.6598 21.4826 22.9355 21.4845 22.2111 21.4872C21.8637 21.4883 21.5163 21.4888 21.169 21.4887C20.6835 21.4889 20.1981 21.4923 19.7126 21.4965C19.4973 21.4958 19.4973 21.4958 19.2777 21.4951C18.5393 21.505 17.9864 21.5188 17.4064 22.0309ZM25.0626 31.5621C24.8319 31.9628 24.8319 31.9628 24.6452 32.4355C24.5685 32.6164 24.4918 32.7972 24.4128 32.9836C24.3725 33.0809 24.3322 33.1782 24.2906 33.2784C24.116 33.7 23.9373 34.1198 23.7588 34.5398C23.6634 34.7641 23.5683 34.9885 23.4734 35.213C22.9884 36.3575 22.4831 37.4926 21.9756 38.6272C21.0523 40.6925 20.136 42.761 19.2274 44.8328C19.1077 45.1055 18.9877 45.378 18.8674 45.6504C18.7002 46.029 18.5341 46.4081 18.3683 46.7873C18.3181 46.9003 18.268 47.0133 18.2163 47.1298C18.0154 47.5921 17.8751 47.9273 17.8751 48.4371C21.7555 48.4517 25.6358 48.4627 29.5162 48.4695C31.3178 48.4727 33.1195 48.4771 34.9211 48.4843C36.4911 48.4905 38.0611 48.4945 39.6311 48.4959C40.4627 48.4967 41.2943 48.4986 42.1259 48.5032C42.9082 48.5074 43.6904 48.5087 44.4728 48.5078C44.7603 48.508 45.0477 48.5092 45.3352 48.5116C45.7271 48.5147 46.1188 48.514 46.5107 48.5123C46.6822 48.515 46.6822 48.515 46.8571 48.5178C47.3815 48.5116 47.6674 48.4763 48.09 48.1547C48.4499 47.669 48.6654 47.1409 48.8859 46.5829C48.9354 46.4612 48.9849 46.3396 49.0359 46.2144C49.1974 45.8165 49.3566 45.4179 49.5158 45.0191C49.628 44.7414 49.7404 44.4636 49.8529 44.186C50.1336 43.4918 50.4126 42.7968 50.6906 42.1015C50.8305 41.7519 50.9706 41.4024 51.1108 41.053C51.4189 40.2854 51.7268 39.5177 52.0317 38.7488C52.4423 37.7142 52.8618 36.6844 53.2914 35.6576C53.4348 35.3127 53.578 34.9677 53.7212 34.6228C53.8138 34.4009 53.9072 34.1792 54.0013 33.9579C54.1317 33.6514 54.2596 33.3439 54.387 33.0361C54.461 32.8606 54.5349 32.685 54.6112 32.5041C54.7587 32.0016 54.7553 31.7424 54.5939 31.2496C54.3333 30.989 54.0161 31.0731 53.6679 31.071C53.5569 31.0711 53.4459 31.0713 53.3316 31.0714C53.1559 31.0707 53.1559 31.0707 52.9768 31.07C52.5814 31.0686 52.186 31.0684 51.7907 31.0682C51.5084 31.0675 51.2261 31.0667 50.9439 31.0658C50.1749 31.0638 49.4059 31.0628 48.6369 31.0621C48.1569 31.0616 47.6769 31.061 47.1969 31.0603C45.6964 31.0581 44.1959 31.0566 42.6953 31.056C40.9608 31.0553 39.2264 31.0526 37.4919 31.0481C36.1529 31.0447 34.8138 31.0431 33.4748 31.0429C32.6743 31.0427 31.8738 31.0418 31.0733 31.039C30.3204 31.0364 29.5675 31.0361 28.8145 31.0375C28.5379 31.0376 28.2612 31.0369 27.9846 31.0354C27.6074 31.0334 27.2304 31.0343 26.8532 31.0359C26.6883 31.034 26.6883 31.034 26.5201 31.0321C25.886 31.0386 25.515 31.1058 25.0626 31.5621Z" fill="#EEEEEE"/>
<path d="M31.0048 39.0368C31.1327 39.0361 31.2605 39.0353 31.3922 39.0345C31.8156 39.0322 32.239 39.0311 32.6624 39.0303C32.9569 39.0294 33.2513 39.0285 33.5458 39.0276C34.1637 39.0259 34.7816 39.025 35.3994 39.0245C36.1898 39.0236 36.9801 39.0199 37.7705 39.0154C38.3791 39.0125 38.9876 39.0117 39.5962 39.0115C39.8875 39.011 40.1788 39.0097 40.4701 39.0077C40.8785 39.005 41.2867 39.0053 41.6951 39.0063C41.8146 39.0049 41.9342 39.0034 42.0573 39.002C42.963 39.009 43.7566 39.1619 44.422 39.8286C44.7489 40.4521 44.7073 41.0356 44.5935 41.7183C44.1786 42.8894 43.6288 43.8584 42.5623 44.5308C42.0923 44.6578 41.647 44.6578 41.1621 44.6496C41.0263 44.651 40.8905 44.6524 40.7505 44.6538C40.3043 44.6571 39.8585 44.6537 39.4123 44.6498C39.1008 44.65 38.7893 44.6506 38.4778 44.6514C37.8262 44.6521 37.1747 44.6494 36.5231 44.6444C35.6889 44.6382 34.8549 44.6396 34.0207 44.6435C33.3779 44.6457 32.7352 44.6441 32.0925 44.6414C31.7849 44.6405 31.4773 44.6407 31.1698 44.642C30.7397 44.6433 30.3099 44.6395 29.8797 44.6343C29.6901 44.6363 29.6901 44.6363 29.4967 44.6384C28.5931 44.6198 28.1935 44.3991 27.5623 43.7495C27.2787 43.1823 27.3034 42.6392 27.406 42.0308C27.8335 40.9314 28.2723 39.8956 29.281 39.2183C29.8613 39.0248 30.4004 39.0377 31.0048 39.0368ZM29.6081 40.6783C29.3549 41.0617 29.1829 41.4599 29.0076 41.8843C28.9375 42.0504 28.8674 42.2166 28.7952 42.3878C28.6046 42.8008 28.6046 42.8008 28.8123 43.1245C33.2467 43.1245 37.681 43.1245 42.2498 43.1245C43.2339 41.5057 43.2339 41.5057 43.1873 40.6245C42.7023 40.382 42.1886 40.4439 41.6563 40.4431C41.4676 40.4419 41.4676 40.4419 41.2751 40.4407C40.858 40.4384 40.4409 40.4374 40.0238 40.4365C39.7346 40.4356 39.4454 40.4347 39.1563 40.4338C38.5495 40.4322 37.9428 40.4313 37.3361 40.4307C36.5577 40.4299 35.7794 40.4261 35.0011 40.4217C34.4037 40.4188 33.8063 40.4179 33.2088 40.4177C32.9218 40.4172 32.6348 40.416 32.3478 40.4139C31.9468 40.4113 31.5458 40.4115 31.1448 40.4126C30.9661 40.4104 30.9661 40.4104 30.7839 40.4082C30.1575 40.4093 30.1575 40.4093 29.6081 40.6783Z" fill="#EEEEEE"/>
<path d="M30.9475 41.3877C31.1331 41.388 31.3187 41.3884 31.51 41.3887C31.6632 41.3887 31.6632 41.3887 31.8195 41.3887C32.1585 41.3888 32.4975 41.39 32.8365 41.3912C33.071 41.3915 33.3055 41.3917 33.54 41.3919C34.1583 41.3925 34.7766 41.394 35.3949 41.3958C36.0254 41.3974 36.6558 41.3981 37.2863 41.3989C38.5242 41.4005 39.7621 41.4032 41 41.4065C41.0597 41.6653 41.1116 41.9259 41.1562 42.1877C41 42.344 41 42.344 40.5838 42.3628C40.3053 42.3623 40.3053 42.3623 40.0213 42.3617C39.8681 42.3618 39.8681 42.3618 39.7118 42.3618C39.3727 42.3617 39.0337 42.3605 38.6947 42.3592C38.4602 42.359 38.2257 42.3587 37.9912 42.3586C37.3729 42.358 36.7547 42.3564 36.1364 42.3547C35.5059 42.3531 34.8754 42.3524 34.2449 42.3516C33.007 42.3499 31.7691 42.3473 30.5312 42.344C30.4715 42.0852 30.4197 41.8245 30.375 41.5627C30.5312 41.4065 30.5312 41.4065 30.9475 41.3877Z" fill="#EEEEEE"/>
</g>
<defs>
<linearGradient id="paint0_linear_35_7889" x1="35.5" y1="70" x2="35.5" y2="0" gradientUnits="userSpaceOnUse">
<stop stop-color="#280659"/>
<stop offset="1" stop-color="#764895"/>
</linearGradient>
<clipPath id="clip0_35_7889">
<rect width="40" height="40" fill="white" transform="translate(16 15)"/>
</clipPath>
</defs>
</svg>
