<svg width="57" height="56" viewBox="0 0 57 56" fill="none" xmlns="http://www.w3.org/2000/svg">
<rect x="0.5" width="56" height="56" rx="28" fill="#EEEEEE"/>
<path d="M33.2795 12.9672C33.3888 12.9664 33.4981 12.9657 33.6107 12.9648C33.788 12.9656 33.788 12.9656 33.9689 12.9664C34.0901 12.9661 34.2112 12.9659 34.336 12.9657C34.5924 12.9655 34.8488 12.9659 35.1052 12.967C35.4986 12.9683 35.8919 12.967 36.2853 12.9654C36.534 12.9656 36.7827 12.9659 37.0314 12.9664C37.1497 12.9659 37.2679 12.9654 37.3897 12.9648C37.499 12.9656 37.6083 12.9664 37.7209 12.9672C37.8655 12.9675 37.8655 12.9675 38.013 12.9678C38.2502 12.9996 38.2502 12.9996 38.5002 13.2496C38.5286 13.5075 38.5286 13.5075 38.5246 13.8209C38.5234 13.9889 38.5234 13.9889 38.5222 14.1602C38.519 14.3359 38.519 14.3359 38.5158 14.5152C38.5147 14.6333 38.5136 14.7514 38.5124 14.8731C38.5094 15.1653 38.5053 15.4574 38.5002 15.7496C38.3352 15.8321 38.1702 15.9146 38.0002 15.9996C38.0002 17.8146 38.0002 19.6296 38.0002 21.4996C38.2064 21.5821 38.4127 21.6646 38.6252 21.7496C38.8777 21.9302 39.1246 22.1186 39.3674 22.3121C40.1044 22.8926 40.8597 23.4419 41.6257 23.9835C41.7493 24.0713 41.8728 24.1591 42.0002 24.2496C42.0993 24.3077 42.1984 24.3659 42.3005 24.4258C42.5002 24.6246 42.5002 24.6246 42.5704 24.9745C42.5002 25.3746 42.5002 25.3746 42.327 25.5298C42.0797 25.6837 41.8281 25.8285 41.5758 25.9741C40.835 26.4598 40.835 26.4598 40.4527 27.2286C40.3741 27.7879 40.3942 28.3445 40.4147 28.9073C40.4154 29.1127 40.4153 29.3181 40.4144 29.5236C40.4141 30.06 40.4251 30.5957 40.4385 31.1319C40.4502 31.6808 40.4512 32.2297 40.4531 32.7786C40.4584 33.8526 40.4755 34.9259 40.5002 35.9996C40.7515 36.0266 41.0028 36.0537 41.2541 36.0808C41.7013 36.1604 41.9079 36.4239 42.2033 36.7457C42.3847 37.0137 42.4359 37.191 42.4846 37.5074C42.5445 37.8679 42.5934 37.9731 42.8801 38.212C43.0794 38.3376 43.2822 38.458 43.4885 38.5718C43.7933 38.7789 43.8808 38.9033 44.0002 39.2496C44.1023 39.8819 44.1472 40.4925 43.822 41.0611C43.4682 41.4747 43.1384 41.8047 42.6252 41.9996C42.2565 42.0239 41.8996 42.0344 41.5308 42.033C41.4192 42.0336 41.3075 42.0341 41.1924 42.0347C40.8174 42.0363 40.4424 42.0361 40.0674 42.0359C39.7988 42.0366 39.5303 42.0375 39.2617 42.0384C38.5316 42.0407 37.8015 42.0412 37.0714 42.0414C36.4622 42.0416 35.853 42.0426 35.2439 42.0434C33.8068 42.0455 32.3698 42.0461 30.9328 42.0459C29.4496 42.0458 27.9665 42.0484 26.4834 42.0523C25.2106 42.0556 23.9379 42.057 22.6652 42.0568C21.9048 42.0567 21.1444 42.0574 20.3839 42.0601C19.6688 42.0625 18.9537 42.0625 18.2386 42.0607C17.9761 42.0604 17.7135 42.061 17.451 42.0625C17.0927 42.0645 16.7346 42.0633 16.3763 42.0614C16.2723 42.0627 16.1683 42.064 16.0612 42.0653C15.3991 42.0574 15.0282 41.9339 14.5002 41.4996C14.0078 40.9393 13.9555 40.419 13.966 39.6959C14.0219 39.1705 14.1728 38.9193 14.5002 38.4996C14.715 38.3746 14.715 38.3746 14.9455 38.2652C15.2423 38.1193 15.3519 38.0519 15.4885 37.7457C15.5434 37.5495 15.5977 37.3532 15.6516 37.1568C15.8108 36.701 16.0759 36.358 16.5002 36.1246C16.6713 36.0959 16.8433 36.0727 17.0157 36.0535C17.1756 36.0357 17.3355 36.0179 17.5002 35.9996C17.5274 34.8172 17.5443 33.6353 17.5484 32.4527C17.5507 31.9033 17.5563 31.3545 17.57 30.8053C17.5832 30.2743 17.587 29.7439 17.5846 29.2127C17.5853 29.0111 17.5892 28.8095 17.5966 28.608C17.6573 27.4946 17.6573 27.4946 17.1811 26.5357C16.8564 26.2633 16.5235 26.0312 16.1565 25.8194C15.9197 25.6824 15.7046 25.5565 15.5002 25.3746C15.42 24.9836 15.42 24.9836 15.5002 24.6246C15.7842 24.3518 16.0378 24.1482 16.3596 23.9293C16.4494 23.8651 16.5393 23.801 16.6319 23.7349C16.8231 23.5986 17.0151 23.4633 17.2078 23.329C17.5833 23.0665 17.9541 22.7976 18.325 22.5284C18.6063 22.3244 18.8884 22.1214 19.1706 21.9185C19.7629 21.4916 20.3506 21.0586 20.9377 20.6246C21.7052 20.0574 22.4756 19.4946 23.2502 18.9371C24.0323 18.374 24.8105 17.806 25.5861 17.234C25.6847 17.1616 25.7832 17.0892 25.8848 17.0147C26.3571 16.6674 26.8265 16.3172 27.2902 15.9586C27.3747 15.8941 27.4592 15.8297 27.5462 15.7633C27.7031 15.6435 27.8589 15.5223 28.0135 15.3994C28.3349 15.1557 28.5968 15.0056 28.9929 14.921C29.5478 15.0351 29.8931 15.3282 30.3283 15.6793C30.5044 15.8165 30.6805 15.9537 30.8566 16.0909C30.987 16.1939 30.987 16.1939 31.1199 16.2991C31.4918 16.5912 31.8708 16.8735 32.2502 17.1558C32.4564 17.3105 32.6627 17.4652 32.8752 17.6246C32.9164 17.0883 32.9577 16.5521 33.0002 15.9996C32.7527 15.8758 32.7527 15.8758 32.5002 15.7496C32.4929 15.3381 32.4885 14.9267 32.4846 14.5152C32.4825 14.3981 32.4804 14.2809 32.4782 14.1602C32.4774 14.0482 32.4766 13.9363 32.4758 13.8209C32.4745 13.7174 32.4732 13.614 32.4718 13.5075C32.529 12.9879 32.8302 12.9682 33.2795 12.9672ZM33.5002 13.9996C33.5002 14.3296 33.5002 14.6596 33.5002 14.9996C34.8202 14.9996 36.1402 14.9996 37.5002 14.9996C37.5002 14.6696 37.5002 14.3396 37.5002 13.9996C36.1802 13.9996 34.8602 13.9996 33.5002 13.9996ZM34.0002 15.9996C33.7693 17.4217 33.7693 17.4217 34.1804 18.7551C34.6331 19.1931 35.1539 19.5254 35.7031 19.8306C36.1437 20.0812 36.5703 20.3559 37.0002 20.6246C37.0002 19.0983 37.0002 17.5721 37.0002 15.9996C36.0102 15.9996 35.0202 15.9996 34.0002 15.9996ZM28.5148 16.4371C28.378 16.539 28.243 16.6434 28.1096 16.7496C27.9972 16.8343 27.9972 16.8343 27.8826 16.9208C27.7176 17.0454 27.5532 17.1709 27.3895 17.2971C27.0196 17.5805 26.6439 17.8557 26.2683 18.1314C25.9643 18.3546 25.6609 18.5787 25.3576 18.8028C24.7829 19.2265 24.2047 19.645 23.6252 20.0621C22.8506 20.6196 22.0802 21.1824 21.3127 21.7496C19.8848 22.8046 18.4455 23.8436 17.0002 24.8746C17.1708 25.3863 17.4038 25.5048 17.8752 25.7496C18.5022 25.5967 19.0053 25.158 19.5158 24.7808C19.6142 24.709 19.7126 24.6371 19.8139 24.5631C20.1266 24.3343 20.4385 24.1046 20.7502 23.8746C20.9491 23.7281 21.148 23.5816 21.3469 23.4351C21.6434 23.2166 21.9399 22.9979 22.2363 22.779C23.2767 22.0111 24.3257 21.2551 25.3752 20.4996C25.7763 20.2107 26.1773 19.9216 26.5783 19.6324C26.7137 19.535 26.7137 19.535 26.8518 19.4356C26.9385 19.3731 27.0251 19.3106 27.1144 19.2462C27.1991 19.1856 27.2837 19.125 27.3709 19.0626C27.5461 18.9331 27.7178 18.7987 27.8863 18.6607C28.2543 18.3627 28.5321 18.1486 28.9943 18.0294C29.5861 18.1773 29.9943 18.5253 30.4689 18.898C30.6817 19.0601 30.8946 19.222 31.1076 19.3839C31.2687 19.5075 31.2687 19.5075 31.433 19.6336C31.9072 19.9939 32.3908 20.3406 32.8752 20.6871C33.6499 21.2444 34.4202 21.8074 35.1877 22.3746C36.1627 23.0948 37.1413 23.8099 38.1271 24.5152C38.4294 24.7317 38.7278 24.9515 39.0217 25.1793C39.1306 25.2618 39.2395 25.3443 39.3517 25.4293C39.4844 25.5334 39.4844 25.5334 39.6198 25.6397C39.8827 25.7847 39.8827 25.7847 40.2023 25.6563C40.4978 25.5009 40.7505 25.3465 41.0002 25.1246C41.0002 25.0421 41.0002 24.9596 41.0002 24.8746C40.8256 24.714 40.8256 24.714 40.5915 24.5562C40.4576 24.461 40.4576 24.461 40.321 24.3638C40.2229 24.2952 40.1247 24.2266 40.0236 24.1558C39.8157 24.0082 39.6078 23.8604 39.4001 23.7125C39.2923 23.636 39.1846 23.5596 39.0736 23.4808C38.5657 23.1177 38.0643 22.7462 37.5627 22.3746C36.7952 21.8073 36.0247 21.2446 35.2502 20.6871C34.4756 20.1296 33.7053 19.5667 32.9377 18.9996C32.6421 18.7816 32.3465 18.5638 32.0508 18.346C31.8461 18.1952 31.6414 18.0443 31.4368 17.8934C31.1303 17.6676 30.8232 17.4429 30.5158 17.2183C30.4229 17.1497 30.33 17.081 30.2343 17.0103C29.4383 16.3414 29.4383 16.3414 28.5148 16.4371ZM28.1252 19.773C28.0482 19.8288 27.9712 19.8846 27.8919 19.9421C27.7241 20.0637 27.5565 20.1856 27.389 20.3076C27.1242 20.5003 26.8585 20.6918 26.5925 20.8829C25.6196 21.5823 24.6514 22.2877 23.6877 22.9996C22.9067 23.5765 22.1234 24.15 21.3361 24.7183C21.2527 24.7786 21.1692 24.8389 21.0832 24.9009C20.9996 24.9612 20.9159 25.0215 20.8298 25.0836C20.7475 25.1467 20.6652 25.2099 20.5804 25.275C20.2502 25.4996 20.2502 25.4996 19.8168 25.6998C19.2855 25.9651 18.8379 26.2512 18.5002 26.7496C18.1758 27.7792 18.2972 28.9247 18.3293 29.9888C18.3326 30.3065 18.335 30.6242 18.3368 30.9419C18.3428 31.6903 18.3565 32.4381 18.3741 33.1863C18.3992 34.2724 18.4082 35.3586 18.4193 36.4448C18.4362 37.9635 18.4698 39.4809 18.5002 40.9996C22.1302 40.9996 25.7602 40.9996 29.5002 40.9996C29.5078 40.1528 29.5153 39.3061 29.5231 38.4337C29.5282 37.8988 29.5333 37.3638 29.5385 36.8289C29.5468 35.979 29.555 35.1291 29.5623 34.2792C29.5683 33.5943 29.5748 32.9094 29.5818 32.2246C29.5844 31.9627 29.5867 31.7008 29.5888 31.4388C29.5918 31.0734 29.5956 30.7079 29.5995 30.3424C29.6002 30.233 29.601 30.1235 29.6017 30.0108C29.6109 29.2638 29.6109 29.2638 29.7502 29.1246C29.9835 29.1122 30.2172 29.1086 30.4509 29.1084C30.6006 29.108 30.7504 29.1076 30.9046 29.1072C31.0676 29.1075 31.2307 29.1077 31.3986 29.108C31.5663 29.1079 31.734 29.1078 31.9016 29.1076C32.2535 29.1074 32.6053 29.1077 32.9571 29.1083C33.409 29.109 33.8609 29.1086 34.3128 29.1078C34.6591 29.1074 35.0055 29.1075 35.3518 29.1079C35.5998 29.108 35.8478 29.1076 36.0957 29.1072C36.3203 29.1078 36.3203 29.1078 36.5495 29.1084C36.6821 29.1085 36.8147 29.1086 36.9513 29.1087C37.2502 29.1246 37.2502 29.1246 37.3752 29.2496C37.3908 29.6147 37.3984 29.9771 37.4008 30.3424C37.4021 30.457 37.4033 30.5716 37.4046 30.6897C37.4086 31.0705 37.4116 31.4513 37.4147 31.8321C37.4173 32.0954 37.4199 32.3586 37.4226 32.6219C37.4295 33.3163 37.4357 34.0106 37.4417 34.705C37.448 35.413 37.4549 36.121 37.4619 36.8289C37.4753 38.2191 37.488 39.6094 37.5002 40.9996C38.1602 40.9996 38.8202 40.9996 39.5002 40.9996C39.5524 39.1698 39.5925 37.3402 39.6168 35.5099C39.6283 34.6598 39.6441 33.8102 39.6699 32.9604C39.6949 32.1394 39.7078 31.3187 39.7137 30.4973C39.7178 30.185 39.7259 29.8726 39.7381 29.5604C39.852 27.9335 39.852 27.9335 39.2866 26.4653C38.7669 25.9687 38.1829 25.6202 37.5485 25.2897C37.0453 25.0112 36.5925 24.6643 36.133 24.3199C36.029 24.2449 35.925 24.1699 35.8178 24.0926C35.1465 23.6072 34.479 23.1168 33.8127 22.6246C32.7524 21.8414 31.687 21.0656 30.6158 20.2973C30.4639 20.1882 30.312 20.079 30.1604 19.9694C29.9824 19.8409 29.8038 19.7132 29.6252 19.5855C29.5324 19.519 29.4396 19.4524 29.3439 19.3839C28.8479 19.0794 28.5292 19.4765 28.1252 19.773ZM30.5002 29.9996C30.5002 33.6296 30.5002 37.2596 30.5002 40.9996C32.4802 40.9996 34.4602 40.9996 36.5002 40.9996C36.5002 37.3696 36.5002 33.7396 36.5002 29.9996C34.5202 29.9996 32.5402 29.9996 30.5002 29.9996ZM40.5002 36.9996C40.5002 38.3196 40.5002 39.6396 40.5002 40.9996C41.7065 41.0615 41.7065 41.0615 42.7502 40.7496C42.9499 40.3501 42.9375 39.9332 42.8752 39.4996C42.5242 39.0784 42.0179 39.004 41.5002 38.8746C41.4932 38.7322 41.4932 38.7322 41.486 38.587C41.4737 38.4006 41.4737 38.4006 41.4611 38.2105C41.4539 38.0873 41.4466 37.964 41.4391 37.837C41.3678 37.4608 41.3093 37.3432 41.0002 37.1246C40.8352 37.0833 40.6702 37.0421 40.5002 36.9996ZM16.7502 37.2496C16.5813 37.5873 16.5829 37.8893 16.5549 38.2652C16.5444 38.4022 16.5339 38.5391 16.5231 38.6802C16.5156 38.7856 16.508 38.891 16.5002 38.9996C16.3661 39.0125 16.2321 39.0254 16.0939 39.0386C15.5254 39.1305 15.5254 39.1305 15.1252 39.4996C15.0423 39.9507 15.0287 40.3501 15.2814 40.7418C15.968 41.1586 16.702 40.9996 17.5002 40.9996C17.5002 39.6796 17.5002 38.3596 17.5002 36.9996C17.2318 36.9996 16.9898 37.1418 16.7502 37.2496Z" fill="#764895"/>
<path d="M21.3707 28.9672C21.5646 28.966 21.5646 28.966 21.7625 28.9648C21.9727 28.9656 21.9727 28.9656 22.1871 28.9664C22.3304 28.9661 22.4737 28.9659 22.6214 28.9657C22.9249 28.9655 23.2283 28.9659 23.5318 28.967C23.9976 28.9683 24.4634 28.967 24.9293 28.9654C25.2235 28.9656 25.5178 28.9659 25.8121 28.9664C25.9522 28.9659 26.0923 28.9654 26.2366 28.9648C26.366 28.9656 26.4953 28.9664 26.6285 28.9672C26.7997 28.9675 26.7997 28.9675 26.9744 28.9678C27.2496 28.9996 27.2496 28.9996 27.4996 29.2496C27.5313 29.5627 27.5313 29.5627 27.5319 29.9625C27.5327 30.1118 27.5335 30.2611 27.5343 30.415C27.5338 30.577 27.5333 30.7389 27.5328 30.9058C27.533 31.073 27.5332 31.2402 27.5335 31.4074C27.5339 31.758 27.5333 32.1085 27.5322 32.4591C27.5307 32.9088 27.5316 33.3586 27.5331 33.8084C27.534 34.1537 27.5337 34.4989 27.533 34.8442C27.5328 35.0909 27.5335 35.3375 27.5343 35.5842C27.5335 35.7335 27.5327 35.8828 27.5319 36.0367C27.5317 36.1686 27.5315 36.3005 27.5313 36.4365C27.4996 36.7496 27.4996 36.7496 27.2496 36.9996C26.9744 37.0313 26.9744 37.0313 26.6285 37.0319C26.4992 37.0327 26.3699 37.0335 26.2366 37.0343C26.0265 37.0336 26.0265 37.0336 25.8121 37.0328C25.5971 37.0331 25.5971 37.0331 25.3778 37.0335C25.0743 37.0337 24.7708 37.0332 24.4674 37.0322C24.0015 37.0308 23.5357 37.0322 23.0699 37.0338C22.7756 37.0336 22.4814 37.0333 22.1871 37.0328C22.047 37.0333 21.9069 37.0338 21.7625 37.0343C21.6332 37.0335 21.5039 37.0327 21.3707 37.0319C21.2565 37.0317 21.1423 37.0315 21.0247 37.0313C20.7496 36.9996 20.7496 36.9996 20.4996 36.7496C20.4678 36.4365 20.4678 36.4365 20.4672 36.0367C20.4664 35.8874 20.4657 35.738 20.4648 35.5842C20.4653 35.4222 20.4659 35.2602 20.4664 35.0933C20.4662 34.9261 20.466 34.7589 20.4657 34.5917C20.4653 34.2412 20.4658 33.8907 20.467 33.5401C20.4684 33.0903 20.4676 32.6406 20.4661 32.1908C20.4652 31.8455 20.4655 31.5002 20.4661 31.1549C20.4664 30.9083 20.4656 30.6616 20.4648 30.415C20.4656 30.2657 20.4664 30.1163 20.4672 29.9625C20.4674 29.8305 20.4676 29.6986 20.4678 29.5627C20.5287 28.9624 20.8476 28.9681 21.3707 28.9672ZM21.4996 29.9996C21.4996 30.8246 21.4996 31.6496 21.4996 32.4996C22.1596 32.4996 22.8196 32.4996 23.4996 32.4996C23.4996 31.6746 23.4996 30.8496 23.4996 29.9996C22.8396 29.9996 22.1796 29.9996 21.4996 29.9996ZM24.4996 29.9996C24.4996 30.8246 24.4996 31.6496 24.4996 32.4996C25.1596 32.4996 25.8196 32.4996 26.4996 32.4996C26.4996 31.6746 26.4996 30.8496 26.4996 29.9996C25.8396 29.9996 25.1796 29.9996 24.4996 29.9996ZM21.4996 33.4996C21.4996 34.3246 21.4996 35.1496 21.4996 35.9996C22.1596 35.9996 22.8196 35.9996 23.4996 35.9996C23.4996 35.1746 23.4996 34.3496 23.4996 33.4996C22.8396 33.4996 22.1796 33.4996 21.4996 33.4996ZM24.4996 33.4996C24.4996 34.3246 24.4996 35.1496 24.4996 35.9996C25.1596 35.9996 25.8196 35.9996 26.4996 35.9996C26.4996 35.1746 26.4996 34.3496 26.4996 33.4996C25.8396 33.4996 25.1796 33.4996 24.4996 33.4996Z" fill="#764895"/>
<path d="M32 34.4844C32.375 34.5 32.375 34.5 32.5 34.625C32.5156 35 32.5156 35 32.5 35.375C32.375 35.5 32.375 35.5 32 35.5156C31.625 35.5 31.625 35.5 31.5 35.375C31.4844 35 31.4844 35 31.5 34.625C31.625 34.5 31.625 34.5 32 34.4844Z" fill="#764895"/>
</svg>
