<svg width="24" height="24" viewBox="0 0 24 24" fill="none" xmlns="http://www.w3.org/2000/svg">
<path d="M20.0435 9.37626C21.1621 10.3309 21.4856 11.7866 21.5995 13.1914C21.6188 13.5208 21.6155 13.8506 21.6147 14.1805C21.6147 14.2619 21.6147 14.3433 21.6147 14.4246C21.6147 14.6438 21.6145 14.8631 21.6141 15.0823C21.6138 15.312 21.6138 15.5417 21.6138 15.7715C21.6136 16.2057 21.6132 16.64 21.6128 17.0743C21.6121 17.6616 21.6119 18.249 21.6116 18.8363C21.6112 19.7607 21.6102 20.685 21.6094 21.6094C20.2791 21.6094 18.9487 21.6094 17.5781 21.6094C17.5764 21.0806 17.5746 20.5518 17.5728 20.007C17.5714 19.671 17.5699 19.3349 17.5683 18.9989C17.5658 18.4662 17.5634 17.9334 17.5619 17.4007C17.5608 17.0126 17.5592 16.6244 17.5571 16.2363C17.556 16.0311 17.5551 15.826 17.5548 15.6208C17.5545 15.427 17.5536 15.2332 17.5521 15.0394C17.5517 14.9689 17.5516 14.8984 17.5516 14.8279C17.5523 13.9746 17.4727 13.0673 16.8486 12.4279C16.437 12.0683 15.9307 11.9786 15.3946 12.0089C15.0198 12.0392 14.6709 12.0835 14.3438 12.2812C14.2964 12.3073 14.249 12.3334 14.2002 12.3603C13.6027 12.8307 13.3653 13.483 13.2757 14.2217C13.2528 14.4981 13.2571 14.776 13.256 15.0533C13.2556 15.1249 13.2551 15.1965 13.2546 15.2682C13.2533 15.4617 13.2523 15.6553 13.2514 15.8489C13.2504 16.0515 13.2491 16.2542 13.2478 16.4568C13.2455 16.8401 13.2434 17.2234 13.2414 17.6067C13.2386 18.125 13.2355 18.6432 13.2324 19.1615C13.2276 19.9774 13.2232 20.7934 13.2188 21.6094C11.8884 21.6094 10.5581 21.6094 9.1875 21.6094C9.1875 17.3709 9.1875 13.1325 9.1875 8.7656C10.4559 8.7656 11.7244 8.7656 13.0312 8.7656C13.0467 9.30701 13.0622 9.84841 13.0781 10.4062C13.1864 10.2515 13.2947 10.0969 13.4062 9.93748C14.1034 9.04518 15.176 8.59004 16.2805 8.45213C17.5909 8.34095 18.9862 8.54986 20.0435 9.37626Z" fill="#EEEEEE"/>
<path d="M2.67188 8.76562C4.00219 8.76562 5.3325 8.76562 6.70312 8.76562C6.70312 13.0041 6.70312 17.2425 6.70312 21.6094C5.37281 21.6094 4.0425 21.6094 2.67188 21.6094C2.67188 17.3709 2.67188 13.1325 2.67188 8.76562Z" fill="#EEEEEE"/>
<path d="M5.98834 2.72462C6.52439 3.0911 6.85309 3.59333 7.00769 4.21967C7.12194 4.89542 6.98583 5.52488 6.60944 6.09376C6.25677 6.57713 5.74871 6.92172 5.15631 7.03126C4.65484 7.07979 4.15743 7.08393 3.70319 6.84376C3.64291 6.81312 3.64291 6.81312 3.58142 6.78187C3.02255 6.47335 2.64037 5.99283 2.44049 5.38477C2.28419 4.70975 2.37231 4.06074 2.70709 3.45704C3.03858 2.93991 3.5176 2.60262 4.10327 2.42322C4.76282 2.29087 5.40594 2.38387 5.98834 2.72462Z" fill="#EEEEEE"/>
</svg>
