<svg width="57" height="56" viewBox="0 0 57 56" fill="none" xmlns="http://www.w3.org/2000/svg">
<rect x="0.5" width="56" height="56" rx="28" fill="#EEEEEE"/>
<g clip-path="url(#clip0_16_3270)">
<path d="M21.0626 11.9369C21.1813 11.935 21.3001 11.9331 21.4224 11.9311C22.2817 11.9359 22.2817 11.9359 22.7052 12.2241C22.9451 12.6129 22.9094 12.9277 22.8751 13.3744C23.0521 13.4346 23.2292 13.4944 23.4063 13.5541C23.5542 13.6042 23.5542 13.6042 23.7052 13.6552C23.8511 13.7019 23.8511 13.7019 24.0001 13.7494C24.0887 13.7793 24.1773 13.8091 24.2686 13.8398C24.345 13.8512 24.4214 13.8627 24.5001 13.8744C24.598 13.7919 24.696 13.7094 24.797 13.6244C25.1251 13.3744 25.1251 13.3744 25.4854 13.3813C25.9776 13.5305 26.1215 13.7405 26.4376 14.1401C26.886 14.6163 26.886 14.6163 27.4893 14.8041C27.8588 14.7682 28.2229 14.7155 28.5896 14.6585C32.1075 14.2388 35.726 15.1389 38.524 17.3349C41.4277 19.7298 43.3809 22.7649 43.8175 26.5541C43.8259 26.9757 43.8259 26.9757 44.0001 27.1244C44.2083 27.1295 44.4168 27.1298 44.6251 27.1244C44.7813 27.3901 44.7813 27.3901 44.8751 27.7494C44.672 28.1244 44.672 28.1244 44.3751 28.4994C44.2591 28.6735 44.2591 28.6735 44.1407 28.851C43.7979 29.2039 43.6131 29.2345 43.1251 29.2494C42.7828 29.0287 42.7828 29.0287 42.461 28.7182C42.2993 28.5664 42.2993 28.5664 42.1344 28.4116C41.8751 28.1244 41.8751 28.1244 41.7501 27.7494C41.7913 27.6257 41.8326 27.5019 41.8751 27.3744C42.2463 27.3126 42.2463 27.3126 42.6251 27.2494C42.2713 23.8705 40.8259 20.8788 38.2501 18.6244C36.7409 17.4056 35 16.5887 33.1251 16.1244C33.0316 16.1011 32.938 16.0777 32.8417 16.0536C31.998 15.8629 31.1831 15.8369 30.3204 15.8432C30.1885 15.8422 30.0566 15.8413 29.9207 15.8403C28.6205 15.8207 28.6205 15.8207 27.3751 16.1244C27.1648 16.5018 27.1026 16.6611 27.21 17.0839C27.284 17.2471 27.284 17.2471 27.3595 17.4135C27.4081 17.5239 27.4568 17.6343 27.5069 17.748C27.5654 17.8725 27.5654 17.8725 27.6251 17.9994C27.7591 18.0072 27.8932 18.0149 28.0313 18.0229C28.5001 18.1244 28.5001 18.1244 28.776 18.3686C29.0889 18.9004 29.0691 19.3392 29.0548 19.9448C29.0557 20.051 29.0565 20.1573 29.0575 20.2668C29.0529 20.7149 29.0413 21.0405 28.8419 21.4462C28.4575 21.7622 28.1055 21.6559 27.6251 21.6244C27.565 21.8223 27.5052 22.0202 27.4454 22.2182C27.412 22.3284 27.3787 22.4386 27.3443 22.5522C27.3132 22.6585 27.2821 22.7649 27.2501 22.8744C27.2219 22.9666 27.1937 23.0588 27.1646 23.1537C27.1516 23.2266 27.1385 23.2994 27.1251 23.3744C27.2969 23.5672 27.2969 23.5672 27.5001 23.7494C27.6095 23.976 27.6095 23.976 27.6251 24.2494C27.3769 24.8398 27.0395 25.282 26.5938 25.7338C26.5373 25.796 26.4807 25.8582 26.4224 25.9223C26.0855 26.2659 25.898 26.3717 25.4156 26.4301C24.9277 26.3648 24.7241 26.2129 24.3751 25.8744C24.2982 25.9105 24.2214 25.9466 24.1422 25.9838C24.0411 26.0302 23.9401 26.0766 23.836 26.1244C23.736 26.1708 23.6359 26.2173 23.5328 26.2651C23.2501 26.3744 23.2501 26.3744 22.8751 26.3744C22.8867 26.5755 22.8867 26.5755 22.8985 26.7807C22.8736 27.2792 22.8446 27.4079 22.5001 27.7494C22.1995 27.8141 22.1995 27.8141 21.8477 27.8159C21.7209 27.8165 21.5941 27.8171 21.4635 27.8178C21.3312 27.8159 21.1989 27.8139 21.0626 27.8119C20.8641 27.8148 20.8641 27.8148 20.6617 27.8178C20.5349 27.8172 20.4081 27.8165 20.2774 27.8159C20.1613 27.8153 20.0452 27.8147 19.9256 27.8141C19.6251 27.7494 19.6251 27.7494 19.3983 27.5246C19.1894 27.1368 19.2251 26.807 19.2501 26.3744C19.137 26.3517 19.137 26.3517 19.0216 26.3285C18.9217 26.3076 18.8218 26.2867 18.7188 26.2651C18.6202 26.2448 18.5216 26.2245 18.42 26.2035C18.129 26.1255 17.8888 26.0184 17.6251 25.8744C17.5284 25.9982 17.5284 25.9982 17.4298 26.1244C17.1251 26.3744 17.1251 26.3744 16.7222 26.4384C16.0755 26.3508 15.8235 26.0653 15.3907 25.601C15.3182 25.5287 15.2457 25.4565 15.171 25.382C14.7935 24.9917 14.508 24.695 14.5001 24.1244C14.672 23.7963 14.672 23.7963 14.8751 23.4994C15.029 23.0375 14.9483 22.927 14.7579 22.4916C14.5001 21.8965 14.5001 21.8965 14.5001 21.6244C14.3428 21.6348 14.1855 21.6451 14.0235 21.6557C13.6806 21.6782 13.5514 21.6661 13.2818 21.4472C13.0404 20.9501 13.0808 20.4738 13.0938 19.9291C13.0945 19.8213 13.0951 19.7134 13.0958 19.6022C13.1013 19.1548 13.1075 18.8023 13.2501 18.3744C13.6806 18.0874 13.9923 18.0569 14.5001 17.9994C14.5913 17.8054 14.6792 17.6097 14.7657 17.4135C14.815 17.3047 14.8643 17.196 14.9151 17.0839C15.0212 16.6663 14.9483 16.5002 14.7501 16.1244C14.6676 16.0007 14.5851 15.8769 14.5001 15.7494C14.4971 15.1785 14.7982 14.8835 15.1771 14.498C15.2502 14.4263 15.3232 14.3546 15.3985 14.2807C15.4692 14.2071 15.5398 14.1334 15.6126 14.0575C15.9585 13.7129 16.1855 13.5196 16.6588 13.372C17.0001 13.3744 17.0001 13.3744 17.3126 13.6323C17.4157 13.7122 17.5188 13.7921 17.6251 13.8744C17.9979 13.8059 17.9979 13.8059 18.3751 13.6244C18.5358 13.5752 18.6973 13.5283 18.8595 13.4838C18.9884 13.4477 19.1173 13.4116 19.2501 13.3744C19.2398 13.2404 19.2295 13.1063 19.2188 12.9682C19.2501 12.4994 19.2501 12.4994 19.42 12.2241C19.9388 11.871 20.4498 11.927 21.0626 11.9369ZM20.3751 13.1244C20.3338 13.4957 20.2926 13.8669 20.2501 14.2494C20.0902 14.2778 19.9304 14.3062 19.7657 14.3354C19.287 14.4379 18.9057 14.601 18.4766 14.8354C18.077 15.046 17.914 15.1252 17.4532 15.1166C17.1617 15.0125 16.8931 14.9041 16.6251 14.7494C16.3776 14.9969 16.1301 15.2444 15.8751 15.4994C16.0276 15.8358 16.0276 15.8358 16.2501 16.1244C16.2117 16.9873 15.8419 17.7178 15.5001 18.4994C15.4159 18.7074 15.3323 18.9157 15.2501 19.1244C14.9201 19.1657 14.5901 19.2069 14.2501 19.2494C14.2501 19.7032 14.2501 20.1569 14.2501 20.6244C14.5801 20.6657 14.9101 20.7069 15.2501 20.7494C15.2804 20.8281 15.3107 20.9067 15.3419 20.9877C15.5493 21.5174 15.7598 22.0304 16.0313 22.5307C16.2473 22.9532 16.3283 23.2691 16.2501 23.7494C16.0626 23.9838 16.0626 23.9838 15.8751 24.1244C16.0554 24.5452 16.2917 24.8133 16.6251 25.1244C16.6947 25.0884 16.7643 25.0523 16.836 25.0151C16.9314 24.9687 17.0268 24.9223 17.1251 24.8744C17.2177 24.8234 17.3104 24.7723 17.4058 24.7197C17.8903 24.5857 18.1052 24.7353 18.547 24.9604C18.998 25.188 19.424 25.3972 19.9063 25.5463C20.2501 25.7494 20.2501 25.7494 20.3297 25.9941C20.3673 26.2729 20.3673 26.2729 20.3751 26.7494C20.8288 26.7494 21.2826 26.7494 21.7501 26.7494C21.7913 26.4194 21.8326 26.0894 21.8751 25.7494C21.9718 25.7101 22.0684 25.6708 22.168 25.6303C22.7711 25.3825 23.361 25.1396 23.9298 24.8198C24.3751 24.6244 24.3751 24.6244 24.7188 24.7026C24.8116 24.7593 24.9045 24.816 25.0001 24.8744C25.1432 24.9441 25.1432 24.9441 25.2891 25.0151C25.3587 25.0512 25.4284 25.0873 25.5001 25.1244C25.7476 24.8769 25.9951 24.6294 26.2501 24.3744C26.0976 24.0381 26.0976 24.0381 25.8751 23.7494C25.7716 23.0766 26.0293 22.6428 26.336 22.0678C26.5567 21.6397 26.7154 21.2034 26.8751 20.7494C27.2051 20.7082 27.5351 20.6669 27.8751 20.6244C27.8751 20.1707 27.8751 19.7169 27.8751 19.2494C27.5451 19.2082 27.2151 19.1669 26.8751 19.1244C26.8016 18.9195 26.8016 18.9195 26.7266 18.7104C26.5186 18.1484 26.2624 17.6138 25.9986 17.0761C25.8675 16.7294 25.8367 16.4917 25.8751 16.1244C26.0626 15.8979 26.0626 15.8979 26.2501 15.7494C26.0698 15.3287 25.8335 15.0606 25.5001 14.7494C25.433 14.7881 25.366 14.8268 25.297 14.8666C24.7712 15.1018 24.3995 15.1776 23.8477 14.9814C23.7124 14.9126 23.577 14.8438 23.4376 14.7729C22.9226 14.5148 22.426 14.2945 21.8751 14.1244C21.8132 13.6294 21.8132 13.6294 21.7501 13.1244C21.2963 13.1244 20.8426 13.1244 20.3751 13.1244Z" fill="#764895"/>
<path d="M17.3359 27.6016C17.9562 27.8239 18.3619 28.2222 18.75 28.75C18.8203 29.1797 18.8203 29.1797 18.75 29.5C18.625 29.625 18.625 29.625 18.3047 29.6328C18.2041 29.6302 18.1036 29.6277 18 29.625C18.4958 32.8958 19.9494 35.9443 22.625 38C24.9487 39.6722 27.4212 40.3958 30.25 40.625C30.2653 40.5291 30.2806 40.4333 30.2964 40.3345C30.3944 39.9173 30.5939 39.6923 30.875 39.375C30.8389 39.2981 30.8028 39.2213 30.7656 39.1421C30.7192 39.0411 30.6728 38.94 30.625 38.8359C30.5786 38.7359 30.5322 38.6358 30.4844 38.5327C30.375 38.25 30.375 38.25 30.375 37.875C30.2967 37.8779 30.2184 37.8808 30.1377 37.8838C30.0355 37.886 29.9334 37.8883 29.8281 37.8906C29.7266 37.8935 29.6251 37.8964 29.5205 37.8994C29.25 37.875 29.25 37.875 29 37.625C28.9428 37.1064 28.9595 36.5839 28.9609 36.0625C28.9589 35.9167 28.9569 35.7708 28.9548 35.6206C28.9548 35.4815 28.9547 35.3425 28.9546 35.1992C28.9542 35.0712 28.9538 34.9432 28.9535 34.8113C28.9688 34.7086 28.9842 34.6058 29 34.5C29.3861 34.2426 29.4637 34.2201 29.8984 34.2344C30.0557 34.2395 30.213 34.2447 30.375 34.25C30.3879 34.1675 30.4008 34.085 30.4141 34C30.524 33.5202 30.6962 33.0836 30.875 32.625C30.7693 32.5348 30.6636 32.4445 30.5547 32.3516C30.25 32 30.25 32 30.2684 31.695C30.4536 31.139 30.871 30.8021 31.2812 30.3984C31.4067 30.2685 31.4067 30.2685 31.5347 30.136C31.6167 30.0542 31.6987 29.9724 31.7832 29.8882C31.8577 29.8136 31.9322 29.739 32.0089 29.6622C32.3201 29.4528 32.5071 29.4503 32.875 29.5C32.9988 29.6276 32.9988 29.6276 33.125 29.7578C33.2075 29.8377 33.29 29.9177 33.375 30C33.9305 29.9846 34.4864 29.7002 35 29.5C35.0047 29.4217 35.0093 29.3434 35.0142 29.2627C35.0265 29.1095 35.0265 29.1095 35.0391 28.9531C35.0463 28.8516 35.0536 28.7501 35.061 28.6455C35.125 28.375 35.125 28.375 35.5 28.125C35.7891 28.0927 35.7891 28.0927 36.125 28.0918C36.2462 28.0915 36.3673 28.0912 36.4922 28.0908C36.6185 28.0918 36.7448 28.0928 36.875 28.0938C37.0013 28.0928 37.1277 28.0918 37.2578 28.0908C37.379 28.0911 37.5002 28.0915 37.625 28.0918C37.7359 28.0921 37.8467 28.0924 37.9609 28.0927C38.25 28.125 38.25 28.125 38.625 28.375C38.6616 28.6455 38.6616 28.6455 38.6484 28.9531C38.6434 29.1064 38.6434 29.1064 38.6382 29.2627C38.6338 29.341 38.6295 29.4193 38.625 29.5C38.8229 29.56 39.0208 29.6199 39.2188 29.6797C39.3841 29.7297 39.3841 29.7297 39.5527 29.7808C39.6591 29.8119 39.7654 29.843 39.875 29.875C39.9662 29.9046 40.0574 29.9343 40.1514 29.9648C40.2621 29.9822 40.2621 29.9822 40.375 30C40.491 29.8801 40.491 29.8801 40.6094 29.7578C40.875 29.5 40.875 29.5 41.2095 29.4321C41.8278 29.5331 42.1166 29.8865 42.5391 30.3281C42.6181 30.4053 42.6971 30.4825 42.7786 30.562C43.1343 30.9242 43.3505 31.1725 43.5054 31.6626C43.4981 32.1198 43.2838 32.2791 43 32.625C43.0171 32.9761 43.0977 33.1971 43.2578 33.5078C43.375 33.75 43.375 33.75 43.375 34.25C43.6232 34.2419 43.8714 34.2337 44.1196 34.2256C44.375 34.25 44.375 34.25 44.75 34.5C45.0033 35.4769 44.9042 36.6392 44.75 37.625C44.3742 38.0008 44.022 37.9495 43.5 38C43.4123 38.1972 43.3268 38.3953 43.2422 38.5938C43.1943 38.704 43.1465 38.8142 43.0972 38.9277C42.9933 39.2722 42.9907 39.4209 43.125 39.75C43.1895 39.8093 43.2539 39.8686 43.3203 39.9297C43.5 40.125 43.5 40.125 43.5358 40.4205C43.4921 40.8227 43.3919 40.9356 43.1074 41.2168C43.0251 41.2988 42.9427 41.3808 42.8579 41.4653C42.7707 41.549 42.6836 41.6326 42.5938 41.7188C42.4659 41.8471 42.4659 41.8471 42.3354 41.978C41.5807 42.7181 41.5807 42.7181 41.125 42.75C41.0141 42.6417 40.9033 42.5334 40.7891 42.4219C40.6043 42.2363 40.6043 42.2363 40.375 42.125C39.9702 42.1793 39.6233 42.3401 39.25 42.5C39.0427 42.5465 38.8347 42.5912 38.625 42.625C38.6279 42.7033 38.6308 42.7816 38.6338 42.8623C38.636 42.9645 38.6383 43.0666 38.6406 43.1719C38.6435 43.2734 38.6464 43.3749 38.6494 43.4795C38.625 43.75 38.625 43.75 38.375 44C38.0752 44.0323 38.0752 44.0323 37.7031 44.0332C37.5697 44.0335 37.4363 44.0338 37.2988 44.0342C37.159 44.0332 37.0191 44.0322 36.875 44.0312C36.7351 44.0322 36.5953 44.0332 36.4512 44.0342C36.3178 44.0339 36.1843 44.0335 36.0469 44.0332C35.9241 44.0329 35.8013 44.0326 35.6748 44.0323C35.375 44 35.375 44 35.125 43.75C35.1006 43.4795 35.1006 43.4795 35.1094 43.1719C35.1116 43.0697 35.1139 42.9676 35.1162 42.8623C35.1191 42.784 35.122 42.7057 35.125 42.625C35.0391 42.5994 34.9532 42.5738 34.8647 42.5474C34.7521 42.5137 34.6395 42.48 34.5234 42.4453C34.4118 42.412 34.3001 42.3786 34.1851 42.3442C33.9557 42.2745 33.7275 42.2008 33.5 42.125C33.2866 42.2851 33.0783 42.4522 32.875 42.625C32.5 42.75 32.5 42.75 32.1953 42.6016C31.875 42.375 31.875 42.375 31.6812 42.1152C31.2084 41.7442 30.7408 41.8065 30.1562 41.8047C26.3664 41.7071 23.0183 40.2486 20.3639 37.5475C18.2899 35.3604 17.2044 32.6863 16.75 29.75C16.4613 29.7088 16.1725 29.6675 15.875 29.625C15.7871 29.3447 15.7871 29.3447 15.75 29C15.916 28.7334 15.916 28.7334 16.1562 28.4844C16.2342 28.4016 16.3122 28.3187 16.3926 28.2334C16.4693 28.1564 16.546 28.0794 16.625 28C16.6896 27.9286 16.7542 27.8572 16.8208 27.7837C17 27.625 17 27.625 17.3359 27.6016ZM36.25 29.25C36.1675 29.6212 36.085 29.9925 36 30.375C35.9214 30.3963 35.8427 30.4175 35.7617 30.4395C35.2164 30.5938 34.7113 30.7546 34.2109 31.0234C33.8273 31.2237 33.5649 31.3332 33.125 31.25C32.7734 31.0625 32.7734 31.0625 32.5 30.875C32.2113 31.1225 31.9225 31.37 31.625 31.625C31.7101 31.7333 31.7952 31.8416 31.8828 31.9531C32.125 32.375 32.125 32.375 32.125 32.7344C31.9958 33.1381 31.8219 33.4811 31.6235 33.854C31.4182 34.3044 31.341 34.7648 31.25 35.25C30.6931 35.3119 30.6931 35.3119 30.125 35.375C30.125 35.8287 30.125 36.2825 30.125 36.75C30.2591 36.7474 30.3931 36.7448 30.5312 36.7422C31 36.875 31 36.875 31.1475 37.0898C31.2295 37.2823 31.3058 37.4773 31.3774 37.6738C31.5073 38.0195 31.673 38.3255 31.8516 38.6484C32.0502 39.0426 32.125 39.2224 32.125 39.6719C31.999 40.0026 31.8589 40.2356 31.625 40.5C32.0581 40.9331 32.0581 40.9331 32.5 41.375C32.5851 41.2899 32.6702 41.2048 32.7578 41.1172C33.125 40.875 33.125 40.875 33.5391 40.875C33.9841 40.9957 34.3389 41.152 34.7422 41.3687C35.0081 41.5041 35.2743 41.6093 35.5547 41.7109C36 41.875 36 41.875 36.125 42C36.171 42.291 36.2128 42.5827 36.25 42.875C36.6625 42.875 37.075 42.875 37.5 42.875C37.5361 42.6971 37.5722 42.5192 37.6094 42.3359C37.7335 41.9577 37.7887 41.7945 38.1475 41.6094C38.3649 41.5512 38.584 41.4989 38.8042 41.4521C39.1205 41.3761 39.3293 41.2751 39.6016 41.1016C40.003 40.8733 40.1763 40.8127 40.625 40.875C40.8106 40.9369 40.8106 40.9369 41 41C41 41.0825 41 41.165 41 41.25C41.5311 41.191 41.7835 40.8889 42.125 40.5C42.125 40.4175 42.125 40.335 42.125 40.25C42.0399 40.1752 41.9548 40.1005 41.8672 40.0234C41.7873 39.9332 41.7073 39.843 41.625 39.75C41.6857 39.144 41.9602 38.6347 42.2192 38.0918C42.3492 37.8066 42.445 37.532 42.5391 37.2344C42.75 36.875 42.75 36.875 42.9951 36.7944C43.2734 36.7578 43.2734 36.7578 43.75 36.75C43.75 36.2963 43.75 35.8425 43.75 35.375C43.5927 35.3724 43.4355 35.3698 43.2734 35.3672C42.9946 35.3296 42.9946 35.3296 42.75 35.25C42.5469 34.9062 42.5469 34.9062 42.4741 34.6709C42.2943 34.1342 42.008 33.6393 41.7515 33.1357C41.625 32.75 41.625 32.75 41.7202 32.4058C41.7968 32.2668 41.7968 32.2668 41.875 32.125C41.9214 32.0296 41.9678 31.9342 42.0156 31.8359C42.0517 31.7663 42.0878 31.6967 42.125 31.625C41.8775 31.3775 41.63 31.13 41.375 30.875C41.0387 31.0275 41.0387 31.0275 40.75 31.25C40.073 31.3542 39.6456 31.0895 39.0684 30.7808C38.6356 30.569 38.2208 30.4709 37.75 30.375C37.6675 30.0038 37.585 29.6325 37.5 29.25C37.0875 29.25 36.675 29.25 36.25 29.25Z" fill="#764895"/>
<path d="M23.8578 16.4038C24.8942 17.2659 25.3594 18.3627 25.5428 19.686C25.5898 20.7933 25.192 21.8935 24.4998 22.751C23.4764 23.8382 22.5092 24.3105 21.0174 24.3799C19.7563 24.3673 18.7494 23.8855 17.8358 23.0244C16.8971 22.0298 16.5558 20.8351 16.5858 19.4844C16.7118 18.3277 17.2481 17.3025 18.119 16.5361C19.8752 15.1687 22.0381 15.1049 23.8578 16.4038ZM18.3006 17.9888C17.7654 18.7871 17.6658 19.5509 17.7498 20.501C17.7875 20.6686 17.8278 20.8357 17.8748 21.001C18.0398 20.9185 18.2048 20.836 18.3748 20.751C18.369 20.6648 18.3632 20.5786 18.3573 20.4897C18.3234 19.6073 18.472 19.0276 18.8748 18.251C18.9161 18.1272 18.9573 18.0035 18.9998 17.876C19.203 17.751 19.203 17.751 19.4998 17.626C19.6262 17.5589 19.7525 17.4919 19.8827 17.4228C20.4789 17.1662 21.1125 17.196 21.7498 17.251C21.8323 17.2922 21.9148 17.3335 21.9998 17.376C22.0355 17.6538 22.0355 17.6538 21.9998 18.001C21.7249 18.3091 21.423 18.5612 21.1087 18.8286C20.8282 19.117 20.8282 19.117 20.9027 19.5366C20.9508 19.7046 20.9508 19.7046 20.9998 19.876C21.388 20.0273 21.388 20.0273 21.8748 20.001C22.1562 19.7639 22.3884 19.5023 22.6331 19.228C22.8748 19.001 22.8748 19.001 23.3123 18.9385C23.4155 18.9591 23.5186 18.9797 23.6248 19.001C23.9067 19.8467 23.7576 20.547 23.4061 21.3428C23.0516 21.9852 22.5634 22.2525 21.8905 22.4775C21.4762 22.5908 21.116 22.6408 20.6873 22.626C20.543 22.626 20.3986 22.626 20.2498 22.626C20.1673 22.7497 20.0848 22.8735 19.9998 23.001C20.7578 23.3684 21.3924 23.3095 22.1795 23.0635C23.1419 22.6854 23.766 22.0777 24.1873 21.1338C24.4938 20.2429 24.4763 19.4177 24.1454 18.5347C23.7219 17.709 23.0702 17.0268 22.1932 16.7002C20.6294 16.3356 19.3015 16.7258 18.3006 17.9888ZM19.6248 18.876C19.3742 19.3929 19.3437 19.8049 19.3748 20.376C19.405 20.4556 19.4351 20.5352 19.4662 20.6172C19.4998 20.876 19.4998 20.876 19.3162 21.1577C19.2325 21.2529 19.1487 21.3482 19.0623 21.4463C18.8095 21.7235 18.8095 21.7235 18.6248 22.001C18.6661 22.1247 18.7073 22.2485 18.7498 22.376C19.1122 22.2227 19.2962 22.0785 19.578 21.79C19.8376 21.5633 19.9502 21.5016 20.2996 21.4971C20.5163 21.5257 20.7324 21.5576 20.9481 21.5928C21.3464 21.6366 21.6378 21.5379 21.9998 21.376C21.7235 21.2193 21.5122 21.1276 21.1952 21.0854C20.809 21.0307 20.5751 20.9714 20.2498 20.751C19.9835 20.1398 19.8579 19.5317 19.7498 18.876C19.7086 18.876 19.6673 18.876 19.6248 18.876Z" fill="#764895"/>
<path d="M39.5721 31.9346C40.7066 32.7508 41.4014 33.9009 41.7107 35.2505C41.8662 36.7431 41.5397 38.0427 40.6248 39.2505C39.7755 40.211 38.7462 40.8234 37.4563 40.9351C35.9857 41.0073 34.8036 40.7406 33.6404 39.7896C32.6665 38.8527 32.1066 37.7206 32.0771 36.3628C32.0815 34.8306 32.3465 33.7854 33.4475 32.6538C35.1699 31.0678 37.5051 30.7539 39.5721 31.9346ZM34.9998 32.8755C34.9108 32.9285 34.8219 32.9815 34.7303 33.0361C33.9132 33.5834 33.5717 34.2761 33.2029 35.1646C33.0055 36.3296 33.1947 37.4018 33.8748 38.3755C34.5627 39.1563 35.3793 39.6807 36.4207 39.7979C37.7563 39.8424 38.6693 39.5407 39.6507 38.6338C40.3155 37.8675 40.6713 36.9205 40.6507 35.9092C40.5538 34.847 40.1383 33.9941 39.3748 33.2505C38.0231 32.2606 36.4924 31.9816 34.9998 32.8755Z" fill="#764895"/>
<path d="M33.1251 22.3745C33.5256 22.6771 33.7142 22.89 33.8712 23.3681C33.9546 24.0867 33.5286 24.7171 33.2111 25.3354C33.147 25.4644 33.083 25.5934 33.017 25.7263C32.8015 26.1593 32.5846 26.5914 32.3567 27.018C32.2082 27.3405 32.2149 27.6307 32.2033 27.9838C32.1492 28.7619 31.9611 29.2042 31.3673 29.726C30.8558 30.0396 30.334 30.0735 29.7501 29.9995C29.1973 29.8245 28.8539 29.5384 28.5626 29.0385C28.3154 28.4663 28.3267 27.9683 28.5001 27.3745C28.7564 26.9046 28.93 26.6712 29.3751 26.3745C29.4989 26.3745 29.6226 26.3745 29.7501 26.3745C29.7777 26.2794 29.8052 26.1843 29.8336 26.0864C30.0647 25.4453 30.3622 24.8441 30.6642 24.2338C30.7234 24.1102 30.7826 23.9867 30.8436 23.8593C31.4029 22.7286 31.4029 22.7286 32.0001 22.3745C32.4532 22.2235 32.6667 22.2461 33.1251 22.3745ZM32.3751 23.3745C32.1413 23.824 31.9103 24.2748 31.6798 24.726C31.6132 24.854 31.5466 24.9821 31.4779 25.114C31.4155 25.2368 31.353 25.3597 31.2887 25.4863C31.2304 25.5995 31.1722 25.7128 31.1122 25.8294C30.9601 26.1362 30.9601 26.1362 31.1251 26.4995C31.2076 26.4995 31.2901 26.4995 31.3751 26.4995C31.6089 26.05 31.8399 25.5991 32.0704 25.1479C32.1371 25.0199 32.2037 24.8919 32.2723 24.76C32.3348 24.6371 32.3972 24.5142 32.4616 24.3876C32.5198 24.2744 32.5781 24.1612 32.6381 24.0445C32.7901 23.7378 32.7901 23.7378 32.6251 23.3745C32.5426 23.3745 32.4601 23.3745 32.3751 23.3745ZM29.7033 27.5776C29.4622 27.8683 29.4622 27.8683 29.5079 28.2651C29.596 28.6609 29.596 28.6609 30.0001 28.8745C30.354 28.9187 30.5462 28.9235 30.8517 28.7338C31.0691 28.3905 31.0498 28.1472 31.0001 27.7495C30.8672 27.5019 30.8672 27.5019 30.6251 27.3745C30.2098 27.2999 30.0533 27.3381 29.7033 27.5776Z" fill="#764895"/>
<path d="M19.8125 28.3359C19.9672 28.3553 19.9672 28.3553 20.125 28.375C20.3549 28.7198 20.4172 28.8614 20.4868 29.249C20.5053 29.3467 20.5238 29.4443 20.5429 29.5449C20.5623 29.6487 20.5816 29.7525 20.6016 29.8594C20.8035 30.8714 21.0699 31.8077 21.5 32.75C21.5522 32.8662 21.6044 32.9824 21.6582 33.1021C22.2161 34.229 23.0619 35.173 24.0352 35.9648C24.375 36.25 24.375 36.25 24.5 36.5156C24.5 36.75 24.5 36.75 24.25 37.125C23.7558 37.2117 23.5543 37.1623 23.1382 36.877C23.0144 36.7641 22.8929 36.6487 22.7734 36.5312C22.7086 36.4693 22.6438 36.4073 22.5771 36.3434C20.541 34.345 19.4273 31.7527 19.231 28.9258C19.2584 28.492 19.3868 28.3892 19.8125 28.3359Z" fill="#764895"/>
<path d="M35.5151 37.7293C35.668 37.7287 35.668 37.7287 35.8239 37.728C36.0398 37.7274 36.2558 37.7271 36.4717 37.7271C36.8029 37.7268 37.134 37.7246 37.4651 37.7222C37.6745 37.7218 37.8839 37.7216 38.0933 37.7215C38.1927 37.7206 38.2922 37.7197 38.3947 37.7188C39.0964 37.7217 39.0964 37.7217 39.375 38.0003C39.3056 38.5697 39.3056 38.5697 39.125 38.7503C38.7856 38.7645 38.4494 38.7708 38.1099 38.7713C37.957 38.7719 37.957 38.7719 37.8011 38.7725C37.5852 38.7732 37.3692 38.7735 37.1533 38.7734C36.8221 38.7737 36.491 38.776 36.1599 38.7784C35.9505 38.7787 35.7411 38.779 35.5317 38.7791C35.4323 38.78 35.3328 38.7809 35.2303 38.7818C34.5286 38.7789 34.5286 38.7789 34.25 38.5003C34.3587 37.6087 34.7143 37.7304 35.5151 37.7293Z" fill="#764895"/>
<path d="M38.7579 33.1485C39.0001 33.25 39.0001 33.25 39.2501 33.5C39.2999 34.0148 39.2913 34.5302 39.2896 35.0471C39.2892 35.3034 39.2921 35.5595 39.2953 35.8157C39.2954 36.0575 39.2954 36.0575 39.2955 36.3042C39.2959 36.4526 39.2963 36.6009 39.2967 36.7537C39.2501 37.125 39.2501 37.125 39.0803 37.3653C38.8751 37.5 38.8751 37.5 38.547 37.4766C38.2501 37.375 38.2501 37.375 38.1251 37.125C38.0959 36.6097 38.0966 36.0941 38.0951 35.578C38.0939 35.3218 38.09 35.0656 38.0861 34.8094C38.0854 34.6482 38.0848 34.4869 38.0841 34.3208C38.0829 34.1725 38.0818 34.0242 38.0806 33.8714C38.1251 33.5 38.1251 33.5 38.2991 33.2598C38.5001 33.125 38.5001 33.125 38.7579 33.1485Z" fill="#764895"/>
<path d="M36.8125 34.0938C37.125 34.125 37.125 34.125 37.375 34.375C37.4316 34.8283 37.4155 35.2858 37.4141 35.7422C37.4161 35.8691 37.4181 35.996 37.4202 36.1267C37.4202 36.2484 37.4203 36.3702 37.4204 36.4956C37.421 36.6631 37.421 36.6631 37.4215 36.834C37.3662 37.1801 37.2804 37.2951 37 37.5C36.6283 37.4662 36.5182 37.3932 36.25 37.125C36.2177 36.8481 36.2177 36.8481 36.2168 36.5078C36.2165 36.3857 36.2162 36.2635 36.2158 36.1377C36.2168 36.0098 36.2178 35.8818 36.2188 35.75C36.2178 35.6221 36.2168 35.4941 36.2158 35.3623C36.2161 35.2402 36.2165 35.118 36.2168 34.9922C36.2171 34.8799 36.2174 34.7676 36.2177 34.6519C36.2664 34.235 36.4014 34.1349 36.8125 34.0938Z" fill="#764895"/>
<path d="M35.0779 34.781C35.3748 34.8747 35.3748 34.8747 35.4998 34.9997C35.5189 35.3737 35.5287 35.7428 35.531 36.1169C35.5336 36.2216 35.5362 36.3262 35.5388 36.434C35.5395 36.5342 35.5401 36.6343 35.5408 36.7375C35.5425 36.8757 35.5425 36.8757 35.5443 37.0168C35.5296 37.0936 35.5149 37.1705 35.4998 37.2497C35.1248 37.4997 35.1248 37.4997 34.867 37.4763C34.6248 37.3747 34.6248 37.3747 34.3748 36.9997C34.3471 36.6811 34.3342 36.3806 34.3357 36.0622C34.3327 35.9353 34.3327 35.9353 34.3296 35.8059C34.3292 35.438 34.3335 35.1852 34.5442 34.8767C34.7498 34.7497 34.7498 34.7497 35.0779 34.781Z" fill="#764895"/>
</g>
<defs>
<clipPath id="clip0_16_3270">
<rect width="32" height="32" fill="white" transform="translate(13 12)"/>
</clipPath>
</defs>
</svg>
