<svg width="50" height="50" viewBox="0 0 50 50" fill="none" xmlns="http://www.w3.org/2000/svg">
<rect width="50" height="50" rx="25" fill="#764895"/>
<path d="M36.5511 34.028C36.5511 34.028 35.0062 35.5454 34.6276 35.9902C34.0109 36.6483 33.2843 36.9591 32.3317 36.9591C32.2401 36.9591 32.1424 36.9591 32.0508 36.953C30.2372 36.8373 28.5519 36.1304 27.2879 35.5271C23.8318 33.8574 20.7969 31.4869 18.2751 28.4827C16.1928 25.9781 14.8006 23.6625 13.8785 21.1762C13.3107 19.6589 13.103 18.4767 13.1946 17.3615C13.2557 16.6485 13.5305 16.0574 14.0373 15.5517L16.1195 13.4737C16.4188 13.1934 16.7363 13.041 17.0477 13.041C17.4324 13.041 17.7438 13.2726 17.9392 13.4676C17.9453 13.4737 17.9514 13.4798 17.9575 13.4859C18.33 13.8332 18.6842 14.1927 19.0567 14.5767C19.246 14.7717 19.4414 14.9667 19.6368 15.1677L21.3038 16.8314C21.951 17.4773 21.951 18.0745 21.3038 18.7204C21.1267 18.8971 20.9557 19.0739 20.7786 19.2445C20.2657 19.7686 20.6686 19.3664 20.1374 19.8418C20.1252 19.8539 20.113 19.86 20.1069 19.8722C19.5817 20.3963 19.6794 20.9082 19.7893 21.2555C19.7954 21.2738 19.8015 21.2921 19.8076 21.3104C20.2412 22.3585 20.8518 23.3457 21.78 24.5218L21.7861 24.5279C23.4714 26.5998 25.2483 28.2146 27.2084 29.4517C27.4588 29.6101 27.7153 29.7381 27.9595 29.8599C28.1793 29.9696 28.3869 30.0732 28.564 30.1829C28.5885 30.1951 28.6129 30.2134 28.6373 30.2256C28.8449 30.3292 29.0403 30.3779 29.2418 30.3779C29.7486 30.3779 30.0662 30.061 30.17 29.9574L31.3669 28.763C31.5745 28.5558 31.9042 28.306 32.2889 28.306C32.6675 28.306 32.9789 28.5436 33.1682 28.7508C33.1743 28.7569 33.1743 28.7569 33.1804 28.763L36.545 32.1207C37.1739 32.7422 36.5511 34.028 36.5511 34.028Z" stroke="#EEEEEE" stroke-width="2" stroke-linecap="round" stroke-linejoin="round"/>
</svg>
