<svg width="50" height="50" viewBox="0 0 50 50" fill="none" xmlns="http://www.w3.org/2000/svg">
<rect width="50" height="50" rx="25" fill="#764895"/>
<path d="M22.2637 20.1224C22.3808 20.122 22.498 20.1216 22.6186 20.1212C22.866 20.1209 23.1134 20.1217 23.3608 20.1235C23.7402 20.1258 24.1193 20.1235 24.4987 20.1207C24.7389 20.121 24.9792 20.1216 25.2195 20.1224C25.3333 20.1216 25.447 20.1207 25.5642 20.1198C25.6697 20.1211 25.7751 20.1225 25.8838 20.1239C25.9766 20.1243 26.0694 20.1246 26.1651 20.125C26.4041 20.1803 26.4041 20.1803 26.6001 20.3814C26.7311 20.6162 26.7311 20.6162 26.7311 20.9431C26.8524 20.8959 26.9738 20.8487 27.0988 20.8001C29.617 19.984 32.6889 19.8816 35.0945 21.0589C35.8577 21.5002 36.4668 22.064 37.0832 22.6867C37.1572 22.7584 37.2313 22.83 37.3075 22.9038C38.5291 24.1716 38.9866 25.928 38.9815 27.6438C38.9824 27.7612 38.9833 27.8787 38.9843 27.9997C38.9868 28.3833 38.9869 28.7667 38.9868 29.1503C38.9876 29.4185 38.9884 29.6868 38.9893 29.9551C38.9908 30.5149 38.9909 31.0747 38.9903 31.6346C38.9897 32.3526 38.993 33.0705 38.9974 33.7885C39.0002 34.3414 39.0005 34.8942 39.0001 35.4471C39.0003 35.712 39.0014 35.9768 39.0033 36.2417C39.0057 36.6108 39.0047 36.9797 39.0028 37.3488C39.0042 37.4583 39.0056 37.5678 39.0071 37.6806C38.9983 38.4112 38.9983 38.4112 38.7031 38.7736C38.3379 38.9494 38.0923 38.9791 37.6875 38.9803C37.5474 38.9816 37.4074 38.983 37.2632 38.9844C37.1113 38.9836 36.9593 38.9828 36.8074 38.9818C36.6507 38.982 36.4939 38.9825 36.3372 38.983C36.0093 38.9837 35.6814 38.9827 35.3535 38.9807C34.9339 38.9782 34.5144 38.9796 34.0949 38.9822C33.7714 38.9838 33.448 38.9833 33.1245 38.9822C32.9698 38.9819 32.8152 38.9823 32.6605 38.9833C32.4441 38.9844 32.2276 38.9824 32.0112 38.9803C31.8882 38.9799 31.7653 38.9796 31.6386 38.9792C31.2151 38.9083 31.043 38.8151 30.763 38.488C30.7094 38.1615 30.6908 37.8966 30.6963 37.5703C30.6957 37.4779 30.695 37.3855 30.6944 37.2904C30.6929 36.985 30.6952 36.6798 30.6974 36.3745C30.6968 36.1619 30.6959 35.9494 30.6948 35.7368C30.6923 35.1769 30.6927 34.617 30.6941 34.0571C30.6961 33.162 30.695 32.267 30.6913 31.372C30.6906 31.0598 30.692 30.7477 30.6937 30.4356C30.6933 30.2431 30.6929 30.0507 30.6925 29.8582C30.6935 29.772 30.6945 29.6858 30.6955 29.5969C30.6907 28.9269 30.5708 28.3936 30.0955 27.8902C29.5441 27.5546 28.999 27.2924 28.3452 27.4339C27.7636 27.6228 27.2658 27.9288 26.949 28.4624C26.8145 28.9096 26.8296 29.3466 26.8363 29.8094C26.8372 29.901 26.838 29.9927 26.8389 30.0871C26.8408 30.2859 26.8429 30.4847 26.8452 30.6835C26.8497 31.1061 26.8523 31.5287 26.855 31.9513C26.86 32.7379 26.8657 33.5246 26.8751 34.3112C26.8816 34.8586 26.8854 35.406 26.8875 35.9534C26.8888 36.1619 26.891 36.3704 26.8943 36.5789C26.8988 36.8706 26.8999 37.1621 26.9002 37.4538C26.9023 37.5398 26.9044 37.6258 26.9066 37.7144C26.9034 38.1436 26.8569 38.3562 26.5992 38.7048C26.2703 38.9418 26.1288 38.9926 25.7301 38.9944C25.6203 38.9961 25.5104 38.9978 25.3973 38.9996C25.2799 38.9985 25.1625 38.9974 25.0416 38.9962C24.8593 38.997 24.8593 38.997 24.6733 38.9978C24.4167 38.9982 24.1602 38.9972 23.9036 38.9949C23.5106 38.992 23.1179 38.9949 22.7249 38.9984C22.4755 38.998 22.2262 38.9973 21.9768 38.9962C21.8592 38.9973 21.7416 38.9984 21.6204 38.9996C21.511 38.9979 21.4015 38.9961 21.2887 38.9944C21.1926 38.9939 21.0965 38.9935 20.9974 38.9931C20.6186 38.8921 20.5142 38.7026 20.3018 38.379C20.2473 38.0466 20.2473 38.0466 20.2472 37.6683C20.2461 37.5246 20.2451 37.3808 20.244 37.2327C20.245 37.0741 20.246 36.9155 20.2472 36.757C20.2467 36.5894 20.2461 36.4218 20.2454 36.2542C20.2438 35.7996 20.2451 35.3451 20.2469 34.8905C20.2484 34.4145 20.2477 33.9385 20.2473 33.4625C20.247 32.663 20.2485 31.8635 20.251 31.0641C20.2539 30.1403 20.2541 29.2166 20.2528 28.2928C20.2516 27.4037 20.2523 26.5146 20.2538 25.6254C20.2545 25.2473 20.2545 24.8692 20.2539 24.491C20.2534 24.0455 20.2545 23.6 20.2569 23.1545C20.2575 22.9911 20.2575 22.8278 20.257 22.6645C20.2563 22.4411 20.2577 22.2179 20.2596 21.9945C20.26 21.8073 20.26 21.8073 20.2604 21.6162C20.3192 21.125 20.5289 20.7722 20.7922 20.361C21.2461 20.0599 21.7316 20.1183 22.2637 20.1224ZM21.7184 21.597C21.7184 26.8114 21.7184 32.0258 21.7184 37.3982C22.9051 37.3982 24.0918 37.3982 25.3144 37.3982C25.3155 37.1294 25.3165 36.8605 25.3175 36.5835C25.3212 35.6927 25.3273 34.8019 25.3345 33.9111C25.3388 33.3713 25.3423 32.8316 25.344 32.2917C25.3456 31.7703 25.3494 31.2488 25.3546 30.7274C25.3562 30.529 25.3571 30.3306 25.3572 30.1321C25.3591 28.0549 25.3591 28.0549 26.0581 27.1015C26.8098 26.3654 27.639 25.9516 28.6993 25.9219C29.8134 25.9397 30.574 26.3477 31.3959 27.0776C32.2173 28.0923 32.1364 29.1837 32.137 30.4277C32.1386 30.6291 32.1405 30.8305 32.1425 31.0319C32.1472 31.5591 32.1494 32.0863 32.151 32.6136C32.1536 33.2477 32.1593 33.8818 32.1644 34.5159C32.1719 35.4767 32.1754 36.4374 32.1796 37.3982C33.9416 37.3982 35.7037 37.3982 37.5191 37.3982C37.5286 35.5514 37.5286 35.5514 37.5351 33.7046C37.537 32.9506 37.5393 32.1966 37.5438 31.4426C37.5473 30.8342 37.5493 30.2259 37.5501 29.6175C37.5507 29.3862 37.5519 29.1549 37.5537 28.9236C37.5694 26.7832 37.3544 25.0991 35.8207 23.4806C34.3983 22.1341 32.7872 21.6373 30.8689 21.6783C29.3808 21.7372 27.9303 22.0003 26.5587 22.5897C26.2076 22.719 25.9032 22.7081 25.5324 22.6867C25.2705 22.4248 25.3554 21.9652 25.3144 21.597C24.1278 21.597 22.9411 21.597 21.7184 21.597Z" fill="#EDEDED"/>
<path d="M12.4069 20.1483C12.5339 20.1469 12.6608 20.1455 12.7916 20.1441C12.9983 20.1437 12.9983 20.1437 13.2092 20.1434C13.3503 20.1426 13.4914 20.1419 13.6368 20.1412C13.9359 20.1399 14.2349 20.1395 14.534 20.1396C14.9166 20.1396 15.2991 20.1366 15.6816 20.1329C16.0471 20.1299 16.4125 20.13 16.778 20.1297C16.9151 20.1282 17.0522 20.1266 17.1935 20.125C17.3215 20.1257 17.4495 20.1263 17.5813 20.127C17.6937 20.1267 17.806 20.1264 17.9218 20.1261C18.3153 20.1949 18.4922 20.3375 18.7748 20.6159C19.0195 20.9934 19.0208 21.3141 19.0226 21.7583C19.0231 21.8291 19.0237 21.8998 19.0243 21.9727C19.0259 22.2095 19.026 22.4463 19.0261 22.6832C19.0269 22.853 19.0278 23.0229 19.0288 23.1928C19.0312 23.6542 19.0322 24.1155 19.0327 24.5768C19.0331 24.865 19.0338 25.1532 19.0346 25.4414C19.0373 26.4468 19.0387 27.4522 19.0391 28.4576C19.0395 29.3949 19.0427 30.3322 19.0473 31.2695C19.0511 32.0742 19.0527 32.8789 19.0528 33.6836C19.0529 34.1642 19.0539 34.6449 19.057 35.1255C19.0598 35.5775 19.0601 36.0294 19.0583 36.4814C19.0581 36.6472 19.0588 36.8131 19.0606 36.9789C19.0628 37.2054 19.0617 37.4317 19.0597 37.6583C19.0599 37.785 19.0601 37.9117 19.0603 38.0422C18.9718 38.4825 18.7932 38.6458 18.4478 38.9235C18.1288 38.9927 18.1288 38.9927 17.7727 38.994C17.6389 38.9957 17.5051 38.9974 17.3672 38.9992C17.2236 38.9981 17.08 38.997 16.9321 38.9959C16.7824 38.9962 16.6327 38.9968 16.4831 38.9975C16.1701 38.9983 15.8572 38.9971 15.5441 38.9945C15.1433 38.9914 14.7427 38.9932 14.3419 38.9965C14.0332 38.9985 13.7244 38.9978 13.4156 38.9964C13.1961 38.9959 12.9767 38.9975 12.7572 38.9992C12.6237 38.9975 12.4902 38.9958 12.3527 38.994C12.2353 38.9936 12.1179 38.9931 11.9969 38.9927C11.5793 38.898 11.4858 38.7342 11.2558 38.3786C11.2013 38.0448 11.2013 38.0448 11.2012 37.6646C11.2003 37.5592 11.2003 37.5592 11.1994 37.4518C11.1979 37.2172 11.1995 36.9829 11.2011 36.7483C11.2007 36.5799 11.2001 36.4114 11.1994 36.2429C11.1978 35.7858 11.1991 35.3288 11.2009 34.8717C11.2024 34.393 11.2017 33.9143 11.2013 33.4356C11.201 32.6314 11.2024 31.8273 11.205 31.0232C11.2079 30.0943 11.2081 29.1655 11.2068 28.2367C11.2056 27.3424 11.2063 26.4482 11.2078 25.5539C11.2085 25.1738 11.2084 24.7936 11.2079 24.4134C11.2074 23.9653 11.2085 23.5172 11.2109 23.0691C11.2115 22.9049 11.2115 22.7407 11.211 22.5766C11.2065 21.0268 11.2065 21.0268 11.5827 20.3979C11.8708 20.1098 12.0047 20.1513 12.4069 20.1483ZM12.6724 21.5966C12.6724 26.811 12.6724 32.0255 12.6724 37.3979C14.2906 37.3979 15.9088 37.3979 17.5761 37.3979C17.5761 32.1835 17.5761 26.9691 17.5761 21.5966C15.9579 21.5966 14.3397 21.5966 12.6724 21.5966Z" fill="#EDEDED"/>
<path d="M17.5804 11.7303C18.5146 12.4703 19.2062 13.3155 19.4299 14.516C19.5338 15.9473 19.3206 17.0939 18.379 18.2168C17.5794 19.0929 16.6095 19.4831 15.4419 19.6275C14.1917 19.662 13.246 19.2565 12.3269 18.4475C11.5526 17.7144 11.0632 16.9155 11.0026 15.822C10.9732 14.4536 11.1823 13.436 12.1004 12.3684C13.5635 10.8851 15.8108 10.5093 17.5804 11.7303ZM13.3255 13.2002C12.6781 13.8783 12.4002 14.6671 12.4124 15.5929C12.5043 16.3114 12.8129 16.9711 13.3523 17.4604C14.1442 18.0047 14.8719 18.249 15.8339 18.1121C16.6505 17.8476 17.2533 17.482 17.6809 16.7265C18.066 15.8889 18.1068 15.1077 17.8056 14.2274C17.4545 13.4373 16.9676 13.0182 16.2085 12.6294C15.1039 12.3178 14.2072 12.4558 13.3255 13.2002Z" fill="#EDEDED"/>
</svg>
