<svg width="48" height="48" viewBox="0 0 48 48" fill="none" xmlns="http://www.w3.org/2000/svg">
<g clip-path="url(#clip0_4_1043)">
<path d="M28.3689 10.2459C28.7492 10.5632 29.0945 10.8932 29.4375 11.2501C29.5415 11.3545 29.6454 11.4589 29.7525 11.5665C31.2762 13.2039 31.5916 15.0665 31.552 17.2274C31.4647 19.1223 30.5758 20.6633 29.2193 21.9464C28.8601 22.2637 28.497 22.573 28.125 22.8751C28.5643 23.3143 28.9655 23.4747 29.5313 23.7306C30.7588 24.3355 31.6677 25.094 32.625 26.0626C32.7582 26.1917 32.8914 26.3207 33.0286 26.4537C35.2229 28.7197 36.1052 31.6639 36.0703 34.7579C36.0725 34.9554 36.0747 35.1528 36.0769 35.3563C36.0718 36.7142 35.8919 37.3753 34.9688 38.3907C34.3554 38.9427 33.9173 39.0234 33.1217 39.0264C32.8717 39.028 32.8717 39.028 32.6167 39.0297C32.4343 39.0299 32.252 39.0301 32.0641 39.0303C31.8716 39.0312 31.6792 39.0322 31.481 39.0331C30.8433 39.0359 30.2056 39.0371 29.5679 39.0382C29.1253 39.0393 28.6828 39.0403 28.2402 39.0414C27.3118 39.0434 26.3835 39.0445 25.4551 39.0451C24.2649 39.0462 23.0747 39.0507 21.8845 39.056C20.9702 39.0595 20.056 39.0605 19.1417 39.0608C18.7029 39.0613 18.264 39.0628 17.8252 39.0653C17.2116 39.0685 16.5981 39.0681 15.9845 39.0669C15.8029 39.0687 15.6213 39.0704 15.4342 39.0722C14.1693 39.0643 13.5573 38.8305 12.6094 37.9688C11.5178 36.7559 11.9026 34.538 11.9584 33.0024C12.1951 29.7924 14.0174 27.1004 16.367 25.0136C17.4153 24.1518 18.6119 23.5454 19.875 23.0626C19.7513 22.9427 19.6275 22.8228 19.5 22.6993C19.3116 22.5088 19.1243 22.3172 18.9375 22.1251C18.7544 21.9377 18.7544 21.9377 18.5676 21.7464C16.852 19.9153 16.4199 18.214 16.4605 15.7603C16.5235 14.0775 17.0821 12.8769 18.1875 11.6251C18.284 11.5113 18.3804 11.3974 18.4798 11.2801C20.9921 8.5268 25.3429 8.08306 28.3689 10.2459ZM19.3125 12.7501C18.1664 14.4596 17.9108 16.001 18.1875 18.0001C18.4101 18.7021 18.7081 19.2705 19.125 19.8751C19.2604 20.0762 19.3957 20.2773 19.5352 20.4845C20.9339 21.8521 22.3789 22.379 24.2983 22.3988C25.8786 22.3656 27.0363 21.7151 28.2891 20.7892C29.463 19.201 30.0471 17.7178 29.9231 15.7347C29.6971 14.2333 28.9904 12.7294 27.75 11.8126C25.1364 10.0603 21.3481 9.99604 19.3125 12.7501ZM15.9375 27.7501C14.9562 29.0167 14.3529 30.354 13.875 31.8751C13.8131 32.0607 13.7513 32.2463 13.6875 32.4376C13.6184 33.0177 13.5916 33.6005 13.5586 34.1837C13.5474 34.3416 13.5361 34.4996 13.5246 34.6623C13.4739 35.55 13.432 36.3247 13.875 37.1251C14.8301 37.5611 15.7345 37.5534 16.7622 37.5486C17.0231 37.5496 17.0231 37.5496 17.2893 37.5506C17.8621 37.5523 18.435 37.5512 19.0078 37.5499C19.4071 37.5501 19.8064 37.5505 20.2056 37.551C21.0416 37.5515 21.8776 37.5507 22.7135 37.549C23.7841 37.5468 24.8546 37.5481 25.9252 37.5503C26.7494 37.5517 27.5736 37.5512 28.3978 37.5503C28.7925 37.55 29.1872 37.5503 29.5819 37.5512C30.1339 37.5522 30.6858 37.5507 31.2378 37.5486C31.4003 37.5494 31.5628 37.5501 31.7302 37.5509C32.5951 37.5449 33.3235 37.4918 34.125 37.1251C34.6137 36.2223 34.5374 35.285 34.4766 34.2892C34.4625 34.0524 34.4625 34.0524 34.4482 33.8109C34.2306 30.8667 32.8945 28.447 30.75 26.4376C29.4834 25.4562 28.1461 24.853 26.625 24.3751C26.4394 24.3132 26.2538 24.2513 26.0625 24.1876C22.0125 23.8572 18.779 24.7176 15.9375 27.7501Z" fill="#F7F7F7"/>
<path d="M11.0149 16.3845C12.0994 17.1626 13.2505 18.1282 13.5 19.5002C13.6772 21.2639 13.6099 22.7157 12.5625 24.1877C12.266 24.5403 11.9761 24.8242 11.625 25.1252C11.7603 25.2069 11.8957 25.2886 12.0351 25.3728C12.2962 25.5403 12.2962 25.5403 12.5625 25.7111C12.7365 25.8199 12.9105 25.9287 13.0898 26.0407C13.5 26.4377 13.5 26.4377 13.5703 27.0339C13.5 27.5627 13.5 27.5627 13.3125 27.7502C12.291 27.9074 11.6105 27.5065 10.738 27.0361C9.39307 26.33 7.5356 26.4146 6.09154 26.8017C4.18026 27.5667 3.1966 28.5498 2.24999 30.3752C1.68591 31.7182 1.67091 33.0875 1.66405 34.5236C1.66317 34.6513 1.6623 34.779 1.66139 34.9106C1.66379 35.6681 1.72914 36.3821 1.87499 37.1252C2.91237 37.3401 3.92883 37.3475 4.98338 37.3588C5.37108 37.365 5.75878 37.3712 6.14647 37.3775C6.75547 37.3864 7.36447 37.3948 7.9735 37.4021C8.56277 37.4095 9.15197 37.4192 9.7412 37.4291C9.92439 37.4307 10.1076 37.4323 10.2963 37.4339C10.4654 37.4371 10.6344 37.4402 10.8085 37.4434C10.9575 37.4453 11.1065 37.4473 11.26 37.4492C11.625 37.5002 11.625 37.5002 12 37.8752C11.8958 38.7294 11.8958 38.7294 11.625 39.0002C11.3308 39.0206 11.0357 39.0281 10.7408 39.0304C10.5524 39.0322 10.364 39.034 10.1698 39.0359C9.96458 39.0367 9.75932 39.0375 9.54784 39.0383C9.33808 39.0394 9.12832 39.0404 8.9122 39.0415C8.46707 39.0433 8.02193 39.0445 7.5768 39.0452C6.89612 39.0471 6.21555 39.0529 5.5349 39.0588C5.10301 39.06 4.67113 39.061 4.23924 39.0617C3.93363 39.0652 3.93363 39.0652 3.62185 39.0687C2.26906 39.0647 1.62255 38.89 0.609361 37.9689C-0.250554 37.0135 -0.0482256 35.8267 -0.0553574 34.6053C-0.0575017 34.3504 -0.0613113 34.0955 -0.0668931 33.8406C-0.128335 31.0315 0.572916 28.9252 2.49608 26.8596C3.19935 26.1831 4.00417 25.7412 4.87499 25.3127C4.80248 25.2375 4.72997 25.1624 4.65526 25.0849C3.31772 23.6249 2.85197 22.328 2.91649 20.3322C3.10325 18.8906 3.81941 17.745 4.8889 16.7763C6.67409 15.4112 9.05845 15.2435 11.0149 16.3845ZM5.06249 19.0432C4.51613 20.0262 4.50822 21.0334 4.68749 22.1252C5.05417 23.1462 5.73617 23.8783 6.68041 24.403C7.70671 24.7716 8.79326 24.7716 9.81957 24.403C10.7638 23.8783 11.4458 23.1462 11.8125 22.1252C11.9918 21.0334 11.9838 20.0262 11.4375 19.0432C10.7427 18.1162 9.98761 17.5383 8.8308 17.3483C7.1719 17.2688 6.06404 17.7068 5.06249 19.0432Z" fill="#F7F7F7"/>
<path d="M42.5149 16.3844C43.5994 17.1625 44.7506 18.1281 45 19.5001C45.2183 21.6728 44.9087 23.1758 43.5352 24.8673C43.3998 25.0142 43.2645 25.1612 43.125 25.3126C43.2429 25.3764 43.3609 25.4402 43.4824 25.5059C45.7357 26.7819 47.1196 28.4109 47.9197 30.8953C48.0979 31.8209 48.0424 32.7814 48.045 33.7209C48.0469 34.1114 48.0527 34.5018 48.0586 34.8923C48.06 35.2634 48.06 35.2634 48.0615 35.6419C48.0633 35.8679 48.065 36.0939 48.0668 36.3267C47.9452 37.4388 47.3105 38.0832 46.5 38.8126C45.9454 38.9974 45.5803 39.0248 45.0018 39.0273C44.8116 39.0285 44.6214 39.0297 44.4254 39.0309C44.1178 39.0312 44.1178 39.0312 43.804 39.0316C43.5934 39.0322 43.3828 39.0328 43.1659 39.0335C42.7206 39.0344 42.2754 39.0348 41.8301 39.0348C41.1466 39.0352 40.4632 39.0386 39.7797 39.0422C39.3477 39.0427 38.9156 39.0431 38.4836 39.0433C38.2782 39.0446 38.0727 39.046 37.861 39.0474C37.6714 39.0468 37.4818 39.0462 37.2865 39.0456C37.0354 39.046 37.0354 39.046 36.7793 39.0464C36.375 39.0001 36.375 39.0001 36 38.6251C36.1042 37.7709 36.1042 37.7709 36.375 37.5001C36.6394 37.4781 36.9049 37.4687 37.1702 37.4646C37.3392 37.4614 37.5082 37.4583 37.6824 37.4551C37.9587 37.4512 37.9587 37.4512 38.2405 37.4473C38.429 37.4439 38.6175 37.4404 38.8117 37.4369C39.4174 37.4258 40.0232 37.4159 40.6289 37.4063C41.4226 37.3936 42.2163 37.3798 43.01 37.3653C43.1923 37.3628 43.3745 37.3602 43.5623 37.3576C44.4354 37.3417 45.2662 37.3024 46.125 37.1251C46.7209 34.0501 46.3153 31.2059 44.6836 28.547C43.3292 27.2291 41.6762 26.5507 39.7969 26.5548C39.6655 26.5548 39.5341 26.5548 39.3987 26.5549C38.0242 26.5849 36.9524 26.9901 35.8125 27.7501C35.2266 27.7852 35.2266 27.7852 34.6875 27.7501C34.5 27.5626 34.5 27.5626 34.4062 27.1524C34.5535 26.3244 35.1569 25.9788 35.8125 25.5001C35.9981 25.3763 36.1838 25.2526 36.375 25.1251C36.2711 25.0163 36.1671 24.9075 36.0601 24.7955C35.9242 24.649 35.7884 24.5025 35.6484 24.3516C35.4461 24.1363 35.4461 24.1363 35.2397 23.9166C34.2953 22.6762 34.342 21.18 34.5 19.6876C34.9433 18.2249 35.8587 17.0996 37.1169 16.2532C38.7991 15.3575 40.8814 15.4317 42.5149 16.3844ZM36.5625 19.043C36.0161 20.0261 36.0082 21.0333 36.1875 22.1251C36.5542 23.1461 37.2362 23.8781 38.1804 24.4029C39.2067 24.7715 40.2933 24.7715 41.3196 24.4029C42.2638 23.8781 42.9458 23.1461 43.3125 22.1251C43.4918 21.0333 43.4839 20.0261 42.9375 19.043C42.2428 18.1161 41.4876 17.5382 40.3308 17.3482C38.6719 17.2687 37.5641 17.7067 36.5625 19.043Z" fill="#F7F7F7"/>
</g>
<defs>
<clipPath id="clip0_4_1043">
<rect width="48" height="48" fill="white"/>
</clipPath>
</defs>
</svg>
