<svg width="57" height="56" viewBox="0 0 57 56" fill="none" xmlns="http://www.w3.org/2000/svg">
<rect x="0.5" width="56" height="56" rx="28" fill="#EEEEEE"/>
<g clip-path="url(#clip0_30_4485)">
<path d="M35.1953 14.008C35.3824 14.1695 35.5676 14.3334 35.75 14.5002C35.8261 14.5662 35.9021 14.6323 35.9805 14.7004C37.6959 16.2832 38.9018 18.7919 39 21.1252C39.0064 21.2608 39.0129 21.3965 39.0195 21.5363C39.0891 24.3362 38.1344 26.8854 36.2107 28.9264C34.429 30.7459 32.1597 31.753 29.625 31.8752C29.625 32.4114 29.625 32.9477 29.625 33.5002C29.7956 33.4993 29.7956 33.4993 29.9697 33.4985C31.0403 33.4935 32.1108 33.4897 33.1813 33.4872C33.7317 33.4859 34.2821 33.4841 34.8325 33.4813C35.3634 33.4786 35.8942 33.4771 36.4251 33.4764C36.628 33.476 36.8308 33.4751 37.0337 33.4737C37.3171 33.4719 37.6005 33.4717 37.884 33.4718C38.0455 33.4712 38.2071 33.4707 38.3735 33.4701C38.75 33.5002 38.75 33.5002 39 33.7502C39.0323 34.0729 39.0323 34.0729 39.0332 34.4767C39.0335 34.6214 39.0338 34.7661 39.0342 34.9152C39.0332 35.067 39.0322 35.2188 39.0312 35.3752C39.0322 35.5269 39.0332 35.6787 39.0342 35.8351C39.0339 35.9798 39.0335 36.1245 39.0332 36.2736C39.0329 36.4068 39.0326 36.5401 39.0323 36.6774C39 37.0002 39 37.0002 38.75 37.2502C38.4375 37.2814 38.4375 37.2814 38.125 37.2502C38.0425 37.1677 37.96 37.0852 37.875 37.0002C37.875 36.2164 37.875 35.4327 37.875 34.6252C35.1525 34.6252 32.43 34.6252 29.625 34.6252C29.625 35.3264 29.625 36.0277 29.625 36.7502C29.5425 36.9152 29.46 37.0802 29.375 37.2502C29.1275 37.2502 28.88 37.2502 28.625 37.2502C28.375 36.7502 28.375 36.7502 28.375 34.6252C25.6525 34.6252 22.93 34.6252 20.125 34.6252C20.125 35.4089 20.125 36.1927 20.125 37.0002C19.875 37.2502 19.875 37.2502 19.5625 37.2814C19.25 37.2502 19.25 37.2502 19 37.0002C18.9677 36.6774 18.9677 36.6774 18.9668 36.2736C18.9665 36.1289 18.9662 35.9842 18.9658 35.8351C18.9668 35.6833 18.9678 35.5315 18.9688 35.3752C18.9678 35.2234 18.9668 35.0716 18.9658 34.9152C18.9661 34.7705 18.9665 34.6258 18.9668 34.4767C18.9671 34.3435 18.9674 34.2102 18.9677 34.0729C19 33.7502 19 33.7502 19.25 33.5002C19.6265 33.4701 19.6265 33.4701 20.116 33.4718C20.2496 33.4717 20.2496 33.4717 20.3858 33.4717C20.6807 33.4718 20.9756 33.4738 21.2705 33.4757C21.4747 33.4762 21.679 33.4766 21.8832 33.4768C22.4212 33.4778 22.9592 33.4802 23.4972 33.483C24.046 33.4855 24.5948 33.4867 25.1436 33.4879C26.2207 33.4906 27.2979 33.4949 28.375 33.5002C28.375 32.9639 28.375 32.4277 28.375 31.8752C28.2495 31.8797 28.124 31.8842 27.9946 31.8888C25.4891 31.8196 23.1798 30.393 21.5 28.6252C19.5729 26.4403 18.8668 23.8023 18.9771 20.9323C19.1645 18.4234 20.4594 16.1601 22.248 14.4464C23.3242 13.5292 24.5329 12.8285 25.875 12.3752C25.9902 12.3354 26.1054 12.2956 26.2241 12.2545C29.2689 11.3817 32.7108 12.0722 35.1953 14.008ZM22.6406 15.6564C20.8872 17.5078 20.0297 19.8364 20.0938 22.3634C20.2072 24.7722 21.2915 26.9101 23.0137 28.5617C24.7798 30.0939 27.1307 30.9974 29.478 30.8439C32.1499 30.5851 34.1895 29.4389 35.9878 27.4928C37.453 25.6856 38.0054 23.4076 37.875 21.1252C37.5321 18.6138 36.4449 16.566 34.4922 14.922C30.802 12.1947 25.9644 12.5158 22.6406 15.6564Z" fill="#764895"/>
<path d="M33.6496 16.1938C35.0056 17.2674 36.0028 19.0462 36.2497 20.75C36.3957 23.1147 35.9712 25.0984 34.4089 26.9599C32.9511 28.4479 31.0698 29.2461 28.9997 29.3125C26.959 29.2404 25.0404 28.5132 23.6247 27C22.0069 25.0646 21.557 23.0917 21.7497 20.625C22.0968 18.6711 23.1867 17.0331 24.7966 15.8984C27.611 13.9945 30.9445 14.2863 33.6496 16.1938ZM24.3025 17.8506C23.0312 19.4493 22.7072 21.131 22.8747 23.125C23.1639 24.6848 24.0769 26.0926 25.3747 27C27.1478 28.0505 28.812 28.3932 30.8352 27.8891C32.525 27.3219 33.7635 26.157 34.6247 24.625C35.2782 23.2241 35.3739 21.5488 34.9216 20.0703C34.2387 18.3072 33.1689 17.074 31.4626 16.2627C28.9793 15.2507 26.1034 15.7911 24.3025 17.8506Z" fill="#764895"/>
<path d="M28.7497 17C29.0622 17.0156 29.0622 17.0156 29.3747 17.125C29.6777 17.5145 29.6465 17.8967 29.6247 18.375C29.7562 18.3557 29.7562 18.3557 29.8903 18.3359C30.3956 18.3909 30.689 18.6148 30.9997 19C31.185 19.3641 31.3281 19.7178 31.3747 20.125C31.2727 20.4028 31.2727 20.4028 31.1247 20.625C30.8825 20.7344 30.8825 20.7344 30.6247 20.75C30.1537 20.436 30.0892 20.1379 29.8747 19.625C29.5668 19.471 29.351 19.4791 29.0075 19.4766C28.8434 19.4739 28.8434 19.4739 28.676 19.4712C28.3419 19.4792 28.3419 19.4792 27.9997 19.75C27.8969 20.114 27.848 20.385 27.9343 20.7559C28.2398 21.1475 28.6853 21.1869 29.1482 21.2969C30.6589 21.7004 30.6589 21.7004 31.1247 22.375C31.4277 23.044 31.4252 23.6718 31.2497 24.375C30.9432 24.988 30.6387 25.2553 29.9997 25.5C29.876 25.5 29.7522 25.5 29.6247 25.5C29.6186 25.5783 29.6125 25.6566 29.6062 25.7373C29.5968 25.8395 29.5875 25.9416 29.5778 26.0469C29.5691 26.1484 29.5604 26.2499 29.5515 26.3545C29.4997 26.625 29.4997 26.625 29.2497 26.875C28.9372 26.8594 28.9372 26.8594 28.6247 26.75C28.3218 26.3605 28.353 25.9783 28.3747 25.5C28.2639 25.4923 28.153 25.4845 28.0388 25.4766C27.3931 25.3182 27.1081 24.9126 26.7497 24.375C26.6467 23.9257 26.6025 23.6917 26.7497 23.25C27.121 23.1881 27.121 23.1881 27.4997 23.125C27.7249 23.4935 27.9343 23.8625 28.1247 24.25C28.3903 24.2534 28.656 24.2558 28.9216 24.2578C29.0695 24.2593 29.2174 24.2607 29.3698 24.2622C29.7396 24.2768 29.7396 24.2768 29.9997 24.125C30.1238 23.7051 30.1602 23.4636 29.9958 23.0532C29.6678 22.6491 29.3247 22.5887 28.8357 22.4922C28.056 22.331 27.4213 22.108 26.8982 21.4766C26.6169 20.8105 26.5351 20.1651 26.7575 19.4688C26.9863 18.9465 27.2708 18.6815 27.7497 18.375C28.1091 18.3359 28.1091 18.3359 28.3747 18.375C28.3808 18.2967 28.387 18.2184 28.3933 18.1377C28.4026 18.0355 28.412 17.9334 28.4216 17.8281C28.4346 17.6759 28.4346 17.6759 28.448 17.5205C28.4997 17.25 28.4997 17.25 28.7497 17Z" fill="#764895"/>
<path d="M30.4998 39.2497C31.0668 39.7343 31.4754 40.2555 31.6063 40.9997C31.6686 41.8396 31.4666 42.5472 30.9998 43.2497C30.4062 43.828 29.8298 44.0356 29.0076 44.0387C28.208 44.0231 27.7663 43.8602 27.1639 43.3278C26.517 42.5936 26.3537 41.9763 26.3748 40.9997C26.5901 40.2396 27.0402 39.519 27.7356 39.1115C28.6531 38.7276 29.6346 38.7333 30.4998 39.2497ZM27.9998 40.3747C27.6225 40.752 27.5206 41.0941 27.4998 41.6247C27.6463 42.105 27.7705 42.4073 28.1482 42.7419C28.7439 42.9669 29.2557 42.9669 29.8514 42.7419C30.2371 42.4002 30.3616 42.1206 30.4998 41.6247C30.4764 41.08 30.3406 40.7258 29.9764 40.32C29.2431 39.9126 28.7006 39.9128 27.9998 40.3747Z" fill="#764895"/>
<path d="M20.9942 39.2167C21.506 39.5332 21.7793 39.9243 22.0391 40.4687C22.2242 41.3435 22.236 42.1147 21.7837 42.9057C21.3861 43.4551 20.8923 43.7849 20.25 43.9999C19.3815 44.1138 18.6696 44.0815 17.9522 43.5532C17.3959 43.0627 17.0534 42.5403 16.9581 41.7983C16.9465 41.0019 17.0266 40.405 17.5 39.7499C18.4624 38.7609 19.7877 38.626 20.9942 39.2167ZM18.5 40.3749C18.1766 40.8131 18.0942 41.1619 18.1172 41.6953C18.1816 42.1144 18.276 42.3417 18.5938 42.6249C19.0783 42.9313 19.0783 42.9313 19.625 42.9999C20.2597 42.7995 20.667 42.5861 21 41.9999C21.0823 41.3536 20.9927 40.9142 20.625 40.3749C19.8475 39.8678 19.2776 39.8678 18.5 40.3749Z" fill="#764895"/>
<path d="M39.97 39.2958C40.5228 39.6991 40.7875 40.2382 40.9997 40.8749C41.0924 41.7302 41.0111 42.4185 40.4997 43.1249C40.0154 43.6464 39.4782 43.9536 38.7707 44.0463C37.8828 44.0661 37.3003 43.9705 36.6247 43.3749C35.9672 42.6828 35.8156 42.0307 35.8357 41.098C35.9149 40.392 36.2099 39.865 36.7341 39.3905C37.8004 38.6654 38.8572 38.6901 39.97 39.2958ZM37.3747 40.3749C37.0123 40.7977 36.9242 41.192 36.9485 41.7504C37.0433 42.212 37.2814 42.4431 37.6247 42.7499C38.1524 42.9942 38.3977 43.0276 38.9607 42.8749C39.4461 42.5818 39.6441 42.3938 39.8747 41.8749C39.9264 41.2768 39.8324 40.8701 39.4919 40.3749C38.77 39.8834 38.1051 39.8653 37.3747 40.3749Z" fill="#764895"/>
</g>
<defs>
<clipPath id="clip0_30_4485">
<rect width="32" height="32" fill="white" transform="translate(13 12)"/>
</clipPath>
</defs>
</svg>
