<svg width="60" height="60" viewBox="0 0 60 60" fill="none" xmlns="http://www.w3.org/2000/svg">
<rect width="60" height="60" rx="30" fill="#764895"/>
<path d="M48.7235 38.4812C48.6799 38.2718 48.5833 38.0771 48.443 37.9157C48.3026 37.7543 48.1232 37.6316 47.9219 37.5594C47.861 37.5375 43.3985 35.8594 41.2031 29.8672L44.2188 28.6609C44.5267 28.5366 44.7726 28.2951 44.9024 27.9894C45.0322 27.6838 45.0353 27.3391 44.911 27.0312C44.7866 26.7233 44.5451 26.4774 44.2395 26.3476C43.9338 26.2178 43.5892 26.2147 43.2813 26.3391L40.4969 27.4531C40.1547 25.8246 39.9881 24.1641 40 22.5C40 19.8478 38.9465 17.3043 37.0711 15.4289C35.1957 13.5536 32.6522 12.5 30 12.5C27.3479 12.5 24.8043 13.5536 22.929 15.4289C21.0536 17.3043 20 19.8478 20 22.5C20.0098 24.1665 19.8432 25.8294 19.5031 27.4609L16.7188 26.3391C16.5663 26.2775 16.4032 26.2466 16.2388 26.248C16.0744 26.2495 15.9119 26.2834 15.7606 26.3476C15.6092 26.4119 15.4721 26.5054 15.3568 26.6227C15.2416 26.74 15.1506 26.8788 15.0891 27.0312C15.0275 27.1837 14.9966 27.3468 14.9981 27.5112C14.9995 27.6756 15.0334 27.8381 15.0977 27.9894C15.1619 28.1408 15.2554 28.278 15.3727 28.3932C15.49 28.5084 15.6288 28.5994 15.7813 28.6609L18.8078 29.8719C18.1877 31.6046 17.2474 33.2053 16.036 34.5906C14.0797 36.8 12.0875 37.5594 12.0735 37.5594C11.8721 37.6317 11.6928 37.7546 11.5525 37.9161C11.4123 38.0776 11.3158 38.2724 11.2724 38.4819C11.2289 38.6914 11.24 38.9085 11.3045 39.1124C11.369 39.3164 11.4847 39.5004 11.6406 39.6469C12.75 40.6891 14.4016 40.8516 15.9969 41.0094C16.9828 41.1062 18.0016 41.2078 18.5578 41.5141C19.0844 41.8047 19.6281 42.5484 20.1531 43.2672C20.9969 44.425 21.9547 45.7359 23.4719 46.1234C24.8891 46.4875 26.3391 45.9937 27.6188 45.5578C28.486 45.2625 29.3063 44.9828 29.9953 44.9828C30.6844 44.9828 31.5047 45.2625 32.3719 45.5578C33.3406 45.8875 34.4031 46.25 35.4813 46.25C35.8311 46.2521 36.1797 46.2095 36.5188 46.1234C38.0344 45.7359 38.9922 44.425 39.836 43.2672C40.361 42.5484 40.9047 41.8047 41.4313 41.5141C41.9875 41.2016 43.0063 41.1062 43.9922 41.0094C45.5875 40.8531 47.2391 40.6891 48.3485 39.6469C48.5057 39.5011 48.6228 39.3173 48.6885 39.1131C48.7541 38.909 48.7662 38.6914 48.7235 38.4812ZM43.7516 38.5219C42.5156 38.6437 41.2391 38.7703 40.2313 39.3234C39.2235 39.8766 38.5125 40.8531 37.8235 41.7937C37.1985 42.65 36.55 43.5375 35.9047 43.7016C35.2078 43.8812 34.2235 43.5453 33.1828 43.1906C32.1422 42.8359 31.1031 42.4828 30 42.4828C28.8969 42.4828 27.8391 42.8422 26.8172 43.1906C25.7953 43.5391 24.786 43.8812 24.0953 43.7016C23.45 43.5375 22.8031 42.65 22.1766 41.7937C21.4906 40.8562 20.7813 39.8812 19.7688 39.3234C18.7563 38.7656 17.4844 38.6437 16.25 38.5219C16.0078 38.4984 15.7578 38.4734 15.5094 38.4453C16.3431 37.833 17.1122 37.1372 17.8047 36.3687C19.1125 34.9203 20.5735 32.7391 21.5141 29.6297L21.5235 29.6094C21.5555 29.528 21.5796 29.4438 21.5953 29.3578C22.2163 27.1255 22.5208 24.817 22.5 22.5C22.5 20.5109 23.2902 18.6032 24.6967 17.1967C26.1032 15.7902 28.0109 15 30 15C31.9891 15 33.8968 15.7902 35.3033 17.1967C36.7098 18.6032 37.5 20.5109 37.5 22.5C37.4792 24.8187 37.7843 27.1287 38.4063 29.3625C38.422 29.4485 38.4461 29.5327 38.4781 29.6141L38.4875 29.6344C39.425 32.7437 40.8891 34.925 42.1969 36.3734C42.8894 37.1419 43.6585 37.8377 44.4922 38.45C44.2438 38.4734 43.9953 38.4984 43.75 38.5219H43.7516Z" fill="#EEEEEE"/>
</svg>
