<svg width="57" height="56" viewBox="0 0 57 56" fill="none" xmlns="http://www.w3.org/2000/svg">
<rect x="0.5" width="56" height="56" rx="28" fill="#EEEEEE"/>
<path d="M19.611 15.0925C19.6946 15.0919 19.7781 15.0914 19.8642 15.0908C20.1426 15.0892 20.4209 15.0894 20.6992 15.0896C20.8995 15.0889 21.0998 15.088 21.3 15.0871C21.8429 15.0849 22.3858 15.0843 22.9287 15.0841C23.2682 15.0839 23.6077 15.0834 23.9472 15.0827C25.1326 15.0804 26.318 15.0794 27.5034 15.0796C28.6069 15.0797 29.7103 15.0771 30.8137 15.0732C31.7623 15.0699 32.7109 15.0686 33.6596 15.0687C34.2256 15.0688 34.7916 15.0681 35.3576 15.0654C35.8902 15.063 36.4228 15.063 36.9554 15.0648C37.1502 15.0651 37.3451 15.0645 37.5399 15.063C38.9845 15.0524 40.0659 15.2163 41.1251 16.2509C41.8618 17.2127 41.9124 18.0588 41.9114 19.2296C41.9123 19.3779 41.9131 19.5261 41.914 19.6789C41.9159 20.0841 41.9168 20.4893 41.9169 20.8946C41.9171 21.1482 41.9176 21.4019 41.9183 21.6556C41.9206 22.5419 41.9216 23.4283 41.9214 24.3146C41.9213 25.1386 41.9239 25.9625 41.9279 26.7864C41.9312 27.4957 41.9325 28.2049 41.9323 28.9142C41.9323 29.337 41.933 29.7597 41.9356 30.1825C41.9381 30.6546 41.9374 31.1266 41.9359 31.5987C41.9373 31.7373 41.9387 31.8758 41.9401 32.0186C41.9303 33.2287 41.5983 34.1325 40.7501 35.0009C39.9638 35.6032 39.2603 35.7894 38.2814 35.7793C38.1874 35.7793 38.0935 35.7794 37.9966 35.7794C37.6882 35.7792 37.3798 35.7773 37.0714 35.7753C36.8567 35.7749 36.642 35.7745 36.4272 35.7743C35.8638 35.7733 35.3003 35.7709 34.7368 35.7681C34.1612 35.7655 33.5855 35.7644 33.0099 35.7631C31.8816 35.7605 30.7534 35.7561 29.6251 35.7509C29.6251 36.9884 29.6251 38.2259 29.6251 39.5009C30.0178 39.4951 30.4105 39.4893 30.8151 39.4834C31.1948 39.4795 31.5746 39.4764 31.9544 39.4735C32.2186 39.4709 32.4828 39.4675 32.747 39.4632C33.1265 39.4572 33.5059 39.4543 33.8854 39.4521C34.0037 39.4495 34.1221 39.4469 34.2441 39.4443C35.0577 39.444 35.0577 39.444 35.3955 39.7291C35.5001 40.0009 35.5001 40.0009 35.4142 40.3994C35.2501 40.7509 35.2501 40.7509 35.0001 40.8759C34.6245 40.8889 34.2518 40.8943 33.8761 40.8941C33.7014 40.8947 33.7014 40.8947 33.5232 40.8954C33.1367 40.8965 32.7503 40.8968 32.3639 40.8969C32.0961 40.8973 31.8283 40.8977 31.5605 40.8982C30.9987 40.8989 30.4368 40.8992 29.8749 40.8991C29.1539 40.8991 28.4328 40.9008 27.7118 40.9029C27.1586 40.9043 26.6054 40.9046 26.0522 40.9045C25.7863 40.9047 25.5204 40.9052 25.2545 40.9062C24.8831 40.9074 24.5117 40.907 24.1403 40.9063C24.0298 40.907 23.9194 40.9077 23.8055 40.9084C23.0429 40.9045 23.0429 40.9045 22.6251 40.6259C22.494 40.2701 22.465 40.0871 22.6092 39.7335C23.0504 39.3476 23.5496 39.4398 24.1149 39.4521C24.2364 39.4528 24.358 39.4535 24.4832 39.4542C24.8717 39.457 25.2601 39.4633 25.6486 39.4697C25.9118 39.4722 26.1751 39.4745 26.4384 39.4765C27.084 39.4816 27.7294 39.4914 28.3751 39.5009C28.3751 38.2634 28.3751 37.0259 28.3751 35.7509C28.0894 35.7535 27.8038 35.7562 27.5094 35.7589C26.5625 35.7672 25.6155 35.7727 24.6686 35.7768C24.0948 35.7794 23.521 35.783 22.9472 35.7886C22.3929 35.7941 21.8385 35.7971 21.2841 35.7984C21.0733 35.7993 20.8624 35.8011 20.6516 35.8038C19.1995 35.8217 18.0554 35.734 16.9381 34.7153C16.3928 34.0935 16.1106 33.3238 16.1067 32.5047C16.1058 32.3764 16.1049 32.2482 16.104 32.116C16.1037 31.9754 16.1033 31.8347 16.103 31.6898C16.1022 31.5416 16.1014 31.3934 16.1005 31.2407C16.098 30.749 16.0966 30.2573 16.0953 29.7656C16.0948 29.596 16.0943 29.4264 16.0938 29.2569C16.0914 28.4598 16.0896 27.6627 16.0886 26.8656C16.0874 25.9472 16.0841 25.0288 16.079 24.1104C16.0753 23.3996 16.0734 22.6888 16.073 21.9779C16.0727 21.5539 16.0716 21.1298 16.0684 20.7058C16.0654 20.2319 16.0655 19.758 16.0664 19.2841C16.0648 19.1449 16.0632 19.0058 16.0615 18.8624C16.0696 17.6499 16.4002 16.7461 17.2501 15.8759C18.0032 15.2991 18.6676 15.0951 19.611 15.0925ZM18.5001 16.7509C18.4099 16.7844 18.3197 16.818 18.2267 16.8525C17.8306 17.112 17.6633 17.4688 17.5534 17.9209C17.5014 18.2427 17.4841 18.5411 17.4834 18.8668C17.4829 18.9875 17.4823 19.1082 17.4818 19.2326C17.4818 19.3636 17.4819 19.4946 17.482 19.6296C17.4815 19.7687 17.4811 19.9077 17.4807 20.0511C17.4795 20.5107 17.4793 20.9704 17.4791 21.4301C17.4787 21.7497 17.4783 22.0693 17.4779 22.3889C17.4771 23.0588 17.4769 23.7287 17.477 24.3985C17.477 25.1719 17.4757 25.9452 17.4737 26.7185C17.4719 27.4636 17.4715 28.2088 17.4715 28.954C17.4714 29.2705 17.4708 29.587 17.4699 29.9035C17.4686 30.3461 17.469 30.7886 17.4698 31.2311C17.4691 31.3619 17.4684 31.4926 17.4676 31.6273C17.4704 32.2602 17.4936 32.7859 17.7501 33.3759C17.7861 33.4593 17.8221 33.5427 17.8591 33.6285C18.1158 34.0789 18.5245 34.2357 19.0001 34.3759C19.6449 34.448 20.2861 34.4444 20.9337 34.4406C21.1293 34.4413 21.3249 34.4422 21.5204 34.4433C22.0493 34.4456 22.5782 34.4447 23.1072 34.4431C23.6619 34.4418 24.2166 34.443 24.7714 34.4438C25.7028 34.4447 26.6342 34.4435 27.5656 34.4411C28.6409 34.4384 29.7161 34.4393 30.7914 34.442C31.7163 34.4443 32.6412 34.4446 33.566 34.4433C34.1177 34.4425 34.6694 34.4424 35.221 34.4441C35.7398 34.4455 36.2585 34.4445 36.7773 34.4416C36.9671 34.441 37.157 34.4412 37.3469 34.4423C38.3392 34.4475 39.1525 34.4456 40.0001 33.8759C40.4483 33.312 40.5154 32.7138 40.5168 32.0101C40.5174 31.8894 40.5179 31.7686 40.5185 31.6442C40.5184 31.5132 40.5183 31.3823 40.5183 31.2473C40.5187 31.1082 40.5191 30.9691 40.5196 30.8258C40.5207 30.3661 40.521 29.9064 40.5211 29.4467C40.5215 29.1271 40.5219 28.8075 40.5224 28.4879C40.5231 27.8181 40.5234 27.1482 40.5233 26.4783C40.5232 25.705 40.5245 24.9317 40.5265 24.1584C40.5283 23.4132 40.5288 22.668 40.5287 21.9229C40.5289 21.6063 40.5294 21.2898 40.5304 20.9733C40.5316 20.5308 40.5312 20.0883 40.5305 19.6457C40.5312 19.515 40.5319 19.3843 40.5326 19.2496C40.5299 18.6155 40.502 18.0942 40.2501 17.5009C40.1998 17.3656 40.1998 17.3656 40.1486 17.2275C39.892 16.8359 39.5386 16.6674 39.0923 16.5542C38.7032 16.4936 38.3336 16.4848 37.9397 16.4842C37.6939 16.4834 37.6939 16.4834 37.4432 16.4826C37.2625 16.4826 37.0818 16.4827 36.901 16.4828C36.71 16.4824 36.519 16.482 36.3281 16.4815C35.81 16.4804 35.2919 16.4801 34.7738 16.48C34.45 16.4799 34.1263 16.4797 33.8025 16.4793C32.6726 16.4782 31.5427 16.4777 30.4129 16.4778C29.3601 16.4778 28.3073 16.4765 27.2545 16.4745C26.3502 16.4729 25.4458 16.4722 24.5414 16.4723C24.0015 16.4724 23.4616 16.472 22.9216 16.4707C22.4139 16.4695 21.9061 16.4695 21.3983 16.4704C21.2122 16.4705 21.0261 16.4702 20.8399 16.4694C20.5854 16.4685 20.3309 16.4692 20.0764 16.47C19.863 16.4699 19.863 16.4699 19.6452 16.4698C19.2266 16.5028 18.8915 16.6022 18.5001 16.7509Z" fill="#764895"/>
<path d="M33.6485 20.2659C33.7645 20.302 33.8806 20.3381 34.0001 20.3753C34.1856 20.7463 34.1446 21.1245 34.1452 21.5313C34.1459 21.6246 34.1465 21.7179 34.1471 21.814C34.1489 22.1234 34.1498 22.4327 34.1505 22.742C34.1512 22.9565 34.1519 23.1711 34.1526 23.3856C34.154 23.8357 34.1547 24.2857 34.1551 24.7358C34.1558 25.3131 34.1588 25.8904 34.1624 26.4676C34.1647 26.9108 34.1654 27.354 34.1655 27.7972C34.1659 28.0101 34.1669 28.2229 34.1686 28.4358C34.1707 28.7333 34.1705 29.0307 34.1697 29.3282C34.1708 29.4164 34.172 29.5047 34.1731 29.5956C34.1701 29.9537 34.1623 30.1952 33.9587 30.4964C33.7501 30.6253 33.7501 30.6253 33.3673 30.6097C33.0001 30.5003 33.0001 30.5003 32.7501 30.1253C32.7167 29.7277 32.7167 29.7277 32.7138 29.2301C32.7129 29.1394 32.7121 29.0487 32.7112 28.9553C32.7089 28.6553 32.7084 28.3554 32.7081 28.0555C32.7073 27.847 32.7065 27.6386 32.7056 27.4301C32.7041 26.9931 32.7036 26.5561 32.7038 26.1191C32.7038 25.559 32.7004 24.999 32.6961 24.439C32.6933 24.0084 32.6928 23.5779 32.6929 23.1473C32.6926 22.9409 32.6915 22.7344 32.6896 22.5279C32.6871 22.2391 32.6879 21.9505 32.6894 21.6617C32.689 21.4974 32.6887 21.3331 32.6883 21.1638C32.7501 20.7503 32.7501 20.7503 32.979 20.4424C33.2501 20.2503 33.2501 20.2503 33.6485 20.2659Z" fill="#764895"/>
<path d="M29.5001 25.4997C29.8186 25.9344 29.7824 26.3831 29.7833 26.906C29.7835 26.9929 29.7838 27.0798 29.784 27.1693C29.7842 27.3525 29.7837 27.5357 29.7827 27.719C29.7813 27.9988 29.7827 28.2785 29.7843 28.5583C29.7841 28.7367 29.7838 28.9151 29.7833 29.0935C29.783 29.2553 29.7827 29.417 29.7824 29.5837C29.7524 29.9698 29.7264 30.1892 29.5001 30.4997C29.1329 30.6091 29.1329 30.6091 28.7501 30.6247C28.3751 30.3747 28.3751 30.3747 28.2501 29.9997C28.2243 29.4301 28.2269 28.8601 28.2269 28.2899C28.2267 28.009 28.2244 27.7282 28.222 27.4472C28.2216 27.2683 28.2214 27.0893 28.2213 26.9104C28.2208 26.7478 28.2203 26.5852 28.2197 26.4177C28.2479 26.0296 28.2814 25.8163 28.5001 25.4997C28.87 25.3148 29.1085 25.3937 29.5001 25.4997Z" fill="#764895"/>
<path d="M24.7733 26.7032C24.8894 26.7599 25.0054 26.8166 25.1249 26.8751C25.3216 27.4653 25.2833 28.0616 25.289 28.6798C25.2926 28.811 25.2962 28.9422 25.3 29.0775C25.301 29.2039 25.3021 29.3303 25.3031 29.4605C25.305 29.576 25.3068 29.6914 25.3087 29.8103C25.2316 30.2232 25.0799 30.373 24.7499 30.6251C24.3515 30.6094 24.3515 30.6094 23.9999 30.5001C23.7279 29.9561 23.8406 29.2304 23.8358 28.6329C23.8322 28.4821 23.8286 28.3314 23.8249 28.1761C23.8238 28.0318 23.8228 27.8875 23.8217 27.7388C23.8199 27.6062 23.818 27.4736 23.8162 27.337C23.8749 27.0001 23.8749 27.0001 24.1033 26.7615C24.3749 26.6251 24.3749 26.6251 24.7733 26.7032Z" fill="#764895"/>
</svg>
