<svg width="57" height="56" viewBox="0 0 57 56" fill="none" xmlns="http://www.w3.org/2000/svg">
<rect x="0.5" width="56" height="56" rx="28" fill="#EEEEEE"/>
<g clip-path="url(#clip0_16_2531)">
<path d="M28.7501 15.625C29.3855 15.6713 29.8359 15.9171 30.3673 16.2422C33.3066 17.9545 36.3878 18.8581 39.7501 19.25C39.9545 19.8774 40.0384 20.4408 40.0377 21.1025C40.0384 21.1941 40.0391 21.2857 40.0398 21.38C40.0413 21.6752 40.0405 21.9704 40.0391 22.2656C40.0389 22.3665 40.0387 22.4675 40.0385 22.5714C40.0324 24.1565 39.9607 25.6958 39.6251 27.25C39.6043 27.3488 39.5835 27.4476 39.5621 27.5494C39.1385 29.4945 38.4056 31.3133 37.4454 33.0547C37.4051 33.1284 37.3647 33.202 37.3232 33.2779C36.549 34.6254 35.5357 35.7844 34.4376 36.875C34.3782 36.9342 34.3188 36.9935 34.2577 37.0545C33.2138 38.0915 32.1235 38.9732 30.8751 39.75C30.7291 39.8445 30.5831 39.9391 30.4371 40.0337C29.3289 40.7231 29.3289 40.7231 28.6251 40.625C28.2715 40.477 27.951 40.2867 27.6251 40.0859C27.5312 40.0288 27.4373 39.9716 27.3405 39.9127C24.772 38.3188 22.2258 36.0374 20.7501 33.375C20.7021 33.2915 20.6541 33.208 20.6046 33.1219C19.5427 31.2678 18.8021 29.3452 18.3751 27.25C18.3562 27.1606 18.3373 27.0711 18.3179 26.9789C18.002 25.4143 17.964 23.8559 17.961 22.2656C17.9606 22.1662 17.9601 22.0668 17.9597 21.9643C17.959 21.677 17.9603 21.3898 17.9625 21.1025C17.9623 20.9742 17.9623 20.9742 17.9622 20.8432C17.9705 20.2659 18.073 19.7935 18.2501 19.25C18.3272 19.2388 18.4043 19.2276 18.4838 19.216C21.5914 18.7548 26.4041 17.971 28.7501 15.625ZM27.8137 17.1797C25.2749 18.6108 22.465 19.5433 19.5811 19.9321C19.1477 19.9725 19.1477 19.9725 18.8751 20.125C18.5892 21.5381 18.7309 23.06 18.8516 24.4844C18.8648 24.648 18.8648 24.648 18.8782 24.8148C18.9709 25.8226 19.1731 26.7401 19.3751 27.75C22.4276 27.75 25.4801 27.75 28.6251 27.75C28.6251 24.1613 28.6251 20.5725 28.6251 16.875C28.2963 16.875 28.0942 17.0215 27.8137 17.1797ZM29.3751 16.875C29.3751 20.4637 29.3751 24.0525 29.3751 27.75C32.4276 27.75 35.4801 27.75 38.6251 27.75C39.0875 25.091 39.3882 22.7753 39.1251 20.125C38.9678 20.0941 38.8105 20.0631 38.6485 20.0312C38.4772 19.9964 38.4772 19.9964 38.3023 19.9609C37.9826 19.8966 37.6627 19.8345 37.3424 19.7734C34.6983 19.2579 32.1866 18.3528 29.8541 16.9922C29.6309 16.856 29.6309 16.856 29.3751 16.875ZM19.7501 28.625C19.9288 29.4294 20.1108 30.0938 20.4454 30.8281C20.5113 30.9736 20.5113 30.9736 20.5785 31.1219C21.3435 32.7724 22.2924 34.146 23.5001 35.5C23.5742 35.5907 23.6483 35.6814 23.7247 35.7749C24.8977 37.2063 26.8561 38.9103 28.6251 39.5C28.6251 35.9113 28.6251 32.3225 28.6251 28.625C25.6963 28.625 22.7676 28.625 19.7501 28.625ZM29.3751 28.625C29.3751 32.2137 29.3751 35.8025 29.3751 39.5C33.6241 37.3755 36.4807 33.6944 38.1485 29.3218C38.2689 28.9966 38.2689 28.9966 38.2501 28.625C35.3213 28.625 32.3926 28.625 29.3751 28.625Z" fill="#764895"/>
<path d="M29.5001 12.1244C29.8551 12.33 29.8551 12.33 30.2423 12.601C33.5974 14.8416 37.2664 16.2329 41.3205 16.1218C41.4964 16.1175 41.4964 16.1175 41.6759 16.1132C41.7807 16.1095 41.8855 16.1058 41.9935 16.102C42.2501 16.1244 42.2501 16.1244 42.5001 16.3744C42.5724 16.6485 42.5724 16.6485 42.6295 16.9892C42.6507 17.1141 42.6718 17.2391 42.6936 17.3678C42.7254 17.5683 42.7254 17.5683 42.7579 17.7729C42.78 17.9095 42.802 18.046 42.8247 18.1868C42.9847 19.2094 43.0993 20.2136 43.1251 21.2494C43.1277 21.3333 43.1302 21.4172 43.1329 21.5036C43.2801 26.8327 41.9411 31.9899 38.8751 36.3744C38.8024 36.4789 38.7298 36.5833 38.6549 36.6908C36.4645 39.6481 33.5776 41.7682 30.3751 43.4994C30.2392 43.5758 30.2392 43.5758 30.1006 43.6538C29.5894 43.9302 29.2173 44.1047 28.6251 43.9994C28.1946 43.8254 27.7905 43.6119 27.3829 43.3901C27.2668 43.3279 27.1508 43.2657 27.0312 43.2016C21.6789 40.2905 17.7022 35.6391 15.8834 29.81C14.6867 25.7525 14.6074 21.4306 15.3126 17.2807C15.3274 17.1921 15.3422 17.1034 15.3574 17.0121C15.4688 16.4057 15.4688 16.4057 15.7501 16.1244C16.0281 16.1 16.0281 16.1 16.3736 16.1088C16.4999 16.111 16.6261 16.1131 16.7561 16.1153C16.8908 16.1183 17.0254 16.1213 17.1642 16.1244C21.2562 16.161 25.1474 14.5106 28.4464 12.1391C28.8593 11.9492 29.0676 11.995 29.5001 12.1244ZM28.1866 13.3862C24.7114 15.9141 20.6115 17.0406 16.3751 16.9994C14.8611 22.004 15.7221 28.4812 18.1258 33.0674C18.2087 33.2208 18.2923 33.3738 18.3768 33.5263C18.4998 33.7489 18.6185 33.9735 18.7369 34.1987C19.335 35.3133 20.065 36.2824 20.8751 37.2494C20.9649 37.3585 21.0546 37.4676 21.1471 37.58C22.8798 39.5999 25.0906 41.0638 27.3868 42.3642C27.5962 42.483 27.8041 42.6043 28.0118 42.726C28.1188 42.7853 28.2258 42.8446 28.336 42.9057C28.4242 42.9553 28.5123 43.0049 28.6031 43.0561C29.5309 43.2893 30.9684 42.2048 31.7501 41.7494C33.0525 40.946 34.2295 40.0098 35.3751 38.9994C35.5341 38.8677 35.5341 38.8677 35.6964 38.7333C37.2381 37.4271 38.4187 35.7669 39.3751 33.9994C39.4396 33.8816 39.4396 33.8816 39.5053 33.7614C42.18 28.8162 43.0379 22.622 41.7501 17.1244C41.7089 17.0832 41.6676 17.0419 41.6251 16.9994C41.395 17 41.1649 17.0015 40.9349 17.0076C38.8643 17.0599 36.9464 16.6861 35.0001 15.9994C34.8704 15.9563 34.7407 15.9131 34.607 15.8686C32.8148 15.2336 31.0671 14.2926 29.5348 13.1698C28.9735 12.8339 28.6556 13.0283 28.1866 13.3862Z" fill="#764895"/>
<path d="M34.6251 30.375C34.9345 30.4369 34.9345 30.4369 35.2501 30.5C35.4013 30.8585 35.3798 30.9884 35.231 31.356C34.2596 33.1055 33.0392 34.9539 31.3751 36.125C31.086 36.0938 31.086 36.0938 30.8751 36C30.8312 35.5954 30.8364 35.4265 31.085 35.0952C31.2209 34.9669 31.2209 34.9669 31.3595 34.8359C31.4494 34.7488 31.5393 34.6616 31.6319 34.5718C31.8751 34.375 31.8751 34.375 32.1251 34.375C32.1544 34.3089 32.1837 34.2429 32.2139 34.1748C32.4248 33.7825 32.689 33.4352 32.9532 33.0781C33.5828 32.2148 34.1149 31.3127 34.6251 30.375Z" fill="#764895"/>
<path d="M33.125 29.5C33.4531 29.5469 33.4531 29.5469 33.75 29.625C33.6873 30.2446 33.4854 30.6899 33.1484 31.2031C33.0751 31.3154 33.0751 31.3154 33.0004 31.43C32.6178 31.994 32.1922 32.5025 31.7188 32.9922C31.6569 33.0579 31.5951 33.1237 31.5313 33.1915C31.3496 33.3706 31.3496 33.3706 31 33.625C30.6426 33.6021 30.6426 33.6021 30.375 33.5C30.4335 32.914 30.6525 32.6684 31.0625 32.2578C31.693 31.5928 32.171 30.8883 32.6484 30.1089C32.875 29.75 32.875 29.75 33.125 29.5Z" fill="#764895"/>
</g>
<defs>
<clipPath id="clip0_16_2531">
<rect width="32" height="32" fill="white" transform="translate(13 12)"/>
</clipPath>
</defs>
</svg>
