<svg width="57" height="56" viewBox="0 0 57 56" fill="none" xmlns="http://www.w3.org/2000/svg">
<rect x="0.5" width="56" height="56" rx="28" fill="#EEEEEE"/>
<path d="M18.0666 14.6076C18.2118 14.607 18.2118 14.607 18.3599 14.6065C18.6852 14.6054 19.0105 14.6052 19.3358 14.605C19.5686 14.6044 19.8014 14.6038 20.0342 14.6031C20.6675 14.6015 21.3008 14.6007 21.9341 14.6001C22.3296 14.5998 22.7251 14.5993 23.1206 14.5987C24.3577 14.597 25.5949 14.5958 26.832 14.5953C28.2608 14.5947 29.6895 14.5925 31.1183 14.5889C32.2222 14.5862 33.3261 14.585 34.4301 14.5848C35.0896 14.5847 35.7491 14.5839 36.4087 14.5817C37.0291 14.5796 37.6495 14.5794 38.2699 14.5805C38.4976 14.5806 38.7252 14.58 38.9529 14.5788C39.2638 14.5772 39.5747 14.5779 39.8856 14.5792C40.0206 14.5777 40.0206 14.5777 40.1582 14.5762C40.8227 14.5827 41.3344 14.7352 41.8305 15.1877C42.3286 15.8274 42.3934 16.2796 42.3925 17.0669C42.3928 17.1636 42.3932 17.2604 42.3936 17.3601C42.3947 17.6854 42.3949 18.0107 42.3951 18.336C42.3956 18.5688 42.3963 18.8017 42.3969 19.0345C42.3986 19.6678 42.3994 20.301 42.3999 20.9343C42.4003 21.3298 42.4008 21.7253 42.4014 22.1209C42.4031 23.358 42.4043 24.5951 42.4048 25.8322C42.4053 27.261 42.4075 28.6897 42.4112 30.1185C42.4139 31.2224 42.4151 32.3264 42.4153 33.4303C42.4154 34.0899 42.4162 34.7494 42.4184 35.4089C42.4204 36.0293 42.4207 36.6497 42.4196 37.2702C42.4195 37.4978 42.4201 37.7255 42.4213 37.9531C42.4229 38.2641 42.4222 38.5749 42.4209 38.8859C42.4224 39.0208 42.4224 39.0208 42.4239 39.1585C42.4174 39.8229 42.2649 40.3346 41.8124 40.8307C41.1727 41.3288 40.7205 41.3937 39.9332 41.3927C39.7881 41.3933 39.7881 41.3933 39.64 41.3938C39.3147 41.3949 38.9894 41.3951 38.6641 41.3953C38.4312 41.3959 38.1984 41.3965 37.9656 41.3972C37.3323 41.3988 36.6991 41.3996 36.0658 41.4002C35.6703 41.4006 35.2747 41.4011 34.8792 41.4016C33.6421 41.4033 32.405 41.4045 31.1678 41.405C29.7391 41.4056 28.3103 41.4078 26.8816 41.4114C25.7776 41.4141 24.6737 41.4154 23.5698 41.4155C22.9102 41.4157 22.2507 41.4164 21.5912 41.4186C20.9707 41.4207 20.3503 41.421 19.7299 41.4199C19.5023 41.4198 19.2746 41.4203 19.0469 41.4215C18.736 41.4231 18.4252 41.4224 18.1142 41.4211C18.0243 41.4221 17.9343 41.4231 17.8416 41.4241C17.1772 41.4176 16.6654 41.2652 16.1693 40.8127C15.6712 40.1729 15.6064 39.7207 15.6074 38.9335C15.607 38.8367 15.6066 38.7399 15.6062 38.6402C15.6051 38.3149 15.605 37.9896 15.6048 37.6643C15.6042 37.4315 15.6036 37.1987 15.6029 36.9658C15.6013 36.3326 15.6004 35.6993 15.5999 35.066C15.5995 34.6705 15.599 34.275 15.5985 33.8795C15.5967 32.6423 15.5955 31.4052 15.5951 30.1681C15.5945 28.7393 15.5923 27.3106 15.5887 25.8818C15.586 24.7779 15.5847 23.6739 15.5845 22.57C15.5844 21.9105 15.5837 21.2509 15.5814 20.5914C15.5794 19.971 15.5791 19.3506 15.5802 18.7302C15.5803 18.5025 15.5798 18.2748 15.5785 18.0472C15.5769 17.7362 15.5777 17.4254 15.579 17.1145C15.578 17.0245 15.577 16.9345 15.5759 16.8418C15.5824 16.1774 15.7349 15.6657 16.1874 15.1696C16.8271 14.6715 17.2793 14.6067 18.0666 14.6076ZM17.1249 16.2502C16.8084 17.1997 16.9999 18.2493 16.9999 19.2502C24.9199 19.2502 32.8399 19.2502 40.9999 19.2502C41.1956 16.9233 41.1956 16.9233 40.7499 16.1252C40.3137 15.9798 39.9232 15.9824 39.4695 15.9834C39.3766 15.9832 39.2838 15.9829 39.1881 15.9826C38.876 15.9818 38.564 15.9819 38.2519 15.982C38.0285 15.9816 37.8051 15.9812 37.5818 15.9807C36.9743 15.9796 36.3669 15.9793 35.7595 15.9793C35.2528 15.9791 34.7461 15.9787 34.2395 15.9782C33.0444 15.9772 31.8493 15.9769 30.6542 15.977C29.4204 15.9771 28.1866 15.9758 26.9527 15.9738C25.8942 15.9721 24.8357 15.9715 23.7772 15.9716C23.1446 15.9716 22.5121 15.9712 21.8795 15.9699C21.2848 15.9687 20.69 15.9687 20.0952 15.9696C19.8767 15.9697 19.6583 15.9694 19.4398 15.9687C19.1419 15.9677 18.8441 15.9683 18.5462 15.9693C18.4594 15.9686 18.3726 15.968 18.2831 15.9673C17.8394 15.9705 17.4901 15.983 17.1249 16.2502ZM16.9999 20.7502C16.9948 23.813 16.9896 26.8758 16.9843 30.0314C16.982 30.9992 16.9797 31.967 16.9774 32.9641C16.9766 33.8302 16.9766 33.8302 16.9761 34.6962C16.9758 35.0825 16.9749 35.4689 16.9735 35.8552C16.9718 36.3477 16.9713 36.8403 16.9716 37.3328C16.9716 37.5137 16.9711 37.6946 16.9701 37.8756C16.9689 38.1197 16.9693 38.3638 16.9699 38.608C16.9696 38.7448 16.9694 38.8817 16.9692 39.0228C17.0002 39.378 17.0465 39.5838 17.2499 39.8752C17.6861 40.0206 18.0766 40.0179 18.5303 40.0169C18.6232 40.0172 18.7161 40.0174 18.8117 40.0177C19.1238 40.0185 19.4359 40.0184 19.7479 40.0183C19.9713 40.0187 20.1947 40.0191 20.4181 40.0196C21.0255 40.0207 21.6329 40.021 22.2404 40.0211C22.747 40.0212 23.2537 40.0216 23.7604 40.0221C24.9554 40.0231 26.1505 40.0234 27.3456 40.0233C28.5794 40.0232 29.8133 40.0246 31.0471 40.0265C32.1056 40.0282 33.1641 40.0288 34.2226 40.0288C34.8552 40.0287 35.4877 40.0291 36.1203 40.0304C36.7151 40.0316 37.3098 40.0316 37.9046 40.0307C38.1231 40.0306 38.3416 40.0309 38.5601 40.0316C38.8579 40.0326 39.1558 40.032 39.4536 40.0311C39.5838 40.032 39.5838 40.032 39.7167 40.033C40.1604 40.0298 40.5098 40.0173 40.8749 39.7502C41.0103 39.3439 41.0153 39.0505 41.0149 38.623C41.0151 38.4661 41.0153 38.3092 41.0155 38.1475C41.015 37.9726 41.0146 37.7978 41.0141 37.6229C41.0141 37.4363 41.0141 37.2498 41.0142 37.0633C41.0142 36.5632 41.0135 36.0631 41.0126 35.5631C41.0119 35.094 41.0118 34.625 41.0117 34.156C41.0111 32.7837 41.0093 31.4115 41.0077 30.0392C41.0051 26.9738 41.0026 23.9084 40.9999 20.7502C33.0799 20.7502 25.1599 20.7502 16.9999 20.7502Z" fill="#764895"/>
<path d="M27.7656 23.1828C27.9126 23.182 27.9126 23.182 28.0625 23.1813C28.2693 23.181 28.4761 23.1819 28.6828 23.184C28.999 23.1867 29.3147 23.184 29.6308 23.1808C29.832 23.1811 30.0332 23.1818 30.2343 23.1828C30.3286 23.1817 30.4229 23.1807 30.5201 23.1797C30.9086 23.1866 31.1919 23.213 31.5249 23.4204C31.8812 23.9408 31.8185 24.4573 31.8127 25.0737C31.8134 25.2085 31.814 25.3433 31.8147 25.4821C31.8163 25.9281 31.8142 26.374 31.812 26.82C31.812 27.1294 31.8122 27.4389 31.8125 27.7484C31.8127 28.397 31.8111 29.0457 31.8083 29.6943C31.8047 30.5269 31.8051 31.3594 31.8067 32.192C31.8075 32.831 31.8066 33.47 31.805 34.109C31.8045 34.4161 31.8044 34.7231 31.8049 35.0302C31.8053 35.4588 31.8032 35.8873 31.8005 36.3158C31.801 36.4435 31.8016 36.5711 31.8022 36.7025C31.8009 36.8191 31.7997 36.9356 31.7984 37.0557C31.7981 37.157 31.7978 37.2583 31.7975 37.3627C31.7374 37.6932 31.6453 37.8034 31.375 37.9992C31.0117 38.0365 30.6758 38.0517 30.3125 38.049C30.1565 38.0495 30.1565 38.0495 29.9973 38.0501C29.7775 38.0503 29.5577 38.0496 29.3379 38.0481C29.0012 38.046 28.6647 38.048 28.3281 38.0504C28.1146 38.0502 27.901 38.0497 27.6875 38.049C27.5867 38.0497 27.4859 38.0505 27.382 38.0513C26.6848 38.0425 26.6848 38.0425 26.411 37.8442C26.2053 37.5632 26.2025 37.4022 26.2015 37.0557C26.2003 36.9391 26.199 36.8226 26.1978 36.7025C26.1983 36.5749 26.1989 36.4473 26.1995 36.3158C26.1986 36.1813 26.1977 36.0467 26.1969 35.908C26.1946 35.462 26.1951 35.016 26.1958 34.57C26.1952 34.2606 26.1945 33.9513 26.1938 33.6419C26.1927 32.993 26.193 32.3442 26.1942 31.6953C26.1957 30.8628 26.1931 30.0305 26.1895 29.198C26.1872 28.559 26.1872 27.92 26.1879 27.281C26.1879 26.9741 26.1872 26.6671 26.1856 26.3602C26.1838 25.9313 26.1851 25.5025 26.1873 25.0737C26.186 24.9463 26.1848 24.8189 26.1836 24.6877C26.1926 23.833 26.1926 23.833 26.475 23.4204C26.8884 23.1629 27.2934 23.1777 27.7656 23.1828ZM27.75 24.7492C27.75 28.6679 27.75 32.5867 27.75 36.6242C28.575 36.6242 29.4 36.6242 30.25 36.6242C30.25 32.7054 30.25 28.7867 30.25 24.7492C29.425 24.7492 28.6 24.7492 27.75 24.7492Z" fill="#764895"/>
<path d="M34.3785 27.201C34.4767 27.2006 34.5749 27.2003 34.676 27.1999C34.8835 27.1996 35.091 27.2003 35.2985 27.2019C35.6157 27.2039 35.9327 27.2019 36.2499 27.1995C36.4516 27.1998 36.6534 27.2002 36.8551 27.201C36.9971 27.1998 36.9971 27.1998 37.142 27.1987C37.511 27.2036 37.8143 27.2219 38.1502 27.3817C38.4848 27.7448 38.444 28.1113 38.4378 28.5804C38.4385 28.6774 38.4392 28.7744 38.4399 28.8743C38.4414 29.1951 38.4394 29.5159 38.4371 29.8367C38.4371 30.0595 38.4373 30.2823 38.4377 30.505C38.4379 30.972 38.4363 31.439 38.4334 31.9059C38.4299 32.5049 38.4302 33.1039 38.4318 33.7029C38.4327 34.1629 38.4317 34.623 38.4302 35.083C38.4296 35.3039 38.4296 35.5248 38.43 35.7456C38.4304 36.0542 38.4284 36.3626 38.4256 36.6712C38.4262 36.7628 38.4268 36.8543 38.4273 36.9487C38.422 37.3086 38.4153 37.5649 38.2141 37.87C37.8266 38.1068 37.374 38.0512 36.9332 38.0462C36.7768 38.0463 36.7768 38.0463 36.6171 38.0464C36.3968 38.0461 36.1765 38.0449 35.9561 38.0428C35.6181 38.0399 35.2803 38.0402 34.9423 38.0411C34.7283 38.0404 34.5144 38.0395 34.3004 38.0384C34.199 38.0385 34.0975 38.0386 33.993 38.0387C33.279 38.0297 33.279 38.0297 33.0001 37.7508C32.9747 37.4291 32.9647 37.1208 32.9658 36.7989C32.9651 36.7007 32.9645 36.6025 32.9639 36.5014C32.9621 36.1758 32.9622 35.8503 32.9625 35.5247C32.962 35.299 32.9615 35.0732 32.9609 34.8475C32.96 34.3739 32.96 33.9003 32.9607 33.4267C32.9614 32.8191 32.9593 32.2116 32.9564 31.604C32.9545 31.1377 32.9544 30.6713 32.9548 30.205C32.9547 29.9809 32.9541 29.7569 32.9528 29.5329C32.9513 29.2198 32.9521 28.9069 32.9536 28.5938C32.9526 28.5009 32.9517 28.408 32.9507 28.3122C32.9544 27.9482 32.9581 27.6891 33.1625 27.3808C33.5346 27.1532 33.9552 27.1976 34.3785 27.201ZM34.3751 28.7508C34.3751 31.3495 34.3751 33.9483 34.3751 36.6258C35.2414 36.6258 36.1076 36.6258 37.0001 36.6258C37.0001 34.027 37.0001 31.4283 37.0001 28.7508C36.1339 28.7508 35.2676 28.7508 34.3751 28.7508Z" fill="#764895"/>
<path d="M21.067 29.9537C21.2235 29.9536 21.2235 29.9536 21.3831 29.9535C21.6034 29.9538 21.8238 29.955 22.0441 29.957C22.3821 29.96 22.72 29.9596 23.058 29.9588C23.2719 29.9595 23.4859 29.9604 23.6998 29.9615C23.8012 29.9614 23.9027 29.9612 24.0072 29.9611C24.7212 29.9702 24.7212 29.9702 25.0001 30.2491C25.0318 30.5622 25.0318 30.5622 25.0325 30.962C25.0332 31.1113 25.034 31.2606 25.0348 31.4145C25.0343 31.5764 25.0338 31.7384 25.0333 31.9053C25.0335 32.0725 25.0337 32.2397 25.034 32.4069C25.0344 32.7575 25.0339 33.108 25.0327 33.4585C25.0313 33.9083 25.0321 34.3581 25.0336 34.8078C25.0345 35.1531 25.0342 35.4984 25.0336 35.8437C25.0333 36.0904 25.0341 36.337 25.0348 36.5837C25.0341 36.733 25.0333 36.8823 25.0325 37.0362C25.0323 37.1681 25.0321 37.3 25.0318 37.436C25.0001 37.7491 25.0001 37.7491 24.7501 37.9991C24.3959 38.0256 24.0542 38.0371 23.6998 38.0367C23.5956 38.0372 23.4914 38.0377 23.3841 38.0383C23.1635 38.039 22.943 38.0391 22.7224 38.0385C22.3847 38.0381 22.0471 38.0411 21.7093 38.0442C21.4952 38.0445 21.2811 38.0446 21.067 38.0445C20.9658 38.0456 20.8646 38.0468 20.7604 38.048C20.0631 38.0422 20.0631 38.0422 19.786 37.8525C19.5619 37.5343 19.5775 37.3094 19.5766 36.9219C19.5754 36.778 19.5742 36.6341 19.573 36.4858C19.5738 36.3303 19.5745 36.1749 19.5753 36.0147C19.5749 35.8552 19.5746 35.6957 19.5742 35.5314C19.574 35.1938 19.5745 34.8564 19.5762 34.5188C19.5784 34.0863 19.5771 33.6538 19.5749 33.2213C19.5732 32.8087 19.5744 32.3961 19.5753 31.9834C19.5745 31.828 19.5738 31.6725 19.573 31.5123C19.5748 31.2964 19.5748 31.2964 19.5766 31.0762C19.5769 30.9494 19.5772 30.8225 19.5775 30.6919C19.6251 30.3741 19.6251 30.3741 19.786 30.1456C20.166 29.8856 20.6223 29.9486 21.067 29.9537ZM21.0001 31.3741C21.0001 33.1066 21.0001 34.8391 21.0001 36.6241C21.8664 36.6241 22.7326 36.6241 23.6251 36.6241C23.6251 34.8916 23.6251 33.1591 23.6251 31.3741C22.7589 31.3741 21.8926 31.3741 21.0001 31.3741Z" fill="#764895"/>
</svg>
