<svg width="57" height="56" viewBox="0 0 57 56" fill="none" xmlns="http://www.w3.org/2000/svg">
<rect x="0.5" width="56" height="56" rx="28" fill="#EEEEEE"/>
<path d="M16.9262 13.3576C17.0867 13.357 17.0867 13.357 17.2505 13.3565C17.6096 13.3554 17.9688 13.3552 18.328 13.355C18.5852 13.3544 18.8425 13.3538 19.0998 13.3531C19.7992 13.3515 20.4985 13.3507 21.1979 13.3501C21.6348 13.3498 22.0717 13.3493 22.5086 13.3487C23.8752 13.347 25.2419 13.3458 26.6086 13.3453C28.1866 13.3447 29.7646 13.3425 31.3427 13.3389C32.5622 13.3362 33.7818 13.335 35.0013 13.3348C35.7298 13.3347 36.4583 13.3339 37.1868 13.3317C37.8721 13.3296 38.5573 13.3294 39.2426 13.3305C39.4939 13.3306 39.7453 13.33 39.9967 13.3288C40.3402 13.3272 40.6836 13.3279 41.027 13.3292C41.1263 13.3282 41.2255 13.3272 41.3278 13.3262C42.0853 13.3329 42.6896 13.4739 43.2729 13.9923C43.3428 14.0774 43.4127 14.1625 43.4848 14.2502C43.5567 14.3352 43.6285 14.4203 43.7026 14.508C44.0312 14.9685 44.0166 15.3758 44.018 15.9245C44.0183 16.0059 44.0187 16.0874 44.0191 16.1713C44.0202 16.4448 44.0204 16.7183 44.0206 16.9918C44.0211 17.1876 44.0218 17.3835 44.0224 17.5794C44.0241 18.112 44.0249 18.6445 44.0254 19.1771C44.0258 19.5098 44.0263 19.8425 44.0269 20.1752C44.0286 21.2161 44.0298 22.257 44.0303 23.2979C44.0308 24.4996 44.033 25.7012 44.0367 26.9028C44.0394 27.8316 44.0406 28.7604 44.0408 29.6892C44.0409 30.2439 44.0417 30.7987 44.0439 31.3534C44.0459 31.8753 44.0462 32.3972 44.0451 32.9192C44.045 33.1105 44.0456 33.3019 44.0468 33.4933C44.0484 33.755 44.0477 34.0165 44.0464 34.2782C44.0465 34.4245 44.0467 34.5708 44.0469 34.7216C43.9654 35.4289 43.663 35.9006 43.1254 36.3517C43.0403 36.4247 42.9553 36.4977 42.8676 36.5729C42.3872 36.9245 41.9467 36.8903 41.3702 36.8893C41.2811 36.8894 41.1921 36.8894 41.1003 36.8894C40.8061 36.8893 40.5119 36.8883 40.2177 36.8874C40.0137 36.8871 39.8096 36.887 39.6056 36.8868C39.0686 36.8864 38.5316 36.8851 37.9947 36.8837C37.4467 36.8825 36.8987 36.8819 36.3508 36.8813C35.2756 36.8799 34.2005 36.8777 33.1254 36.8752C33.1254 37.7827 33.1254 38.6902 33.1254 39.6252C33.3729 39.6071 33.6204 39.5891 33.8754 39.5705C34.5099 39.5677 34.8608 39.6194 35.3442 40.0392C35.8408 40.5369 35.8947 40.943 35.8989 41.633C35.9006 41.7659 35.9024 41.8988 35.9042 42.0358C35.8754 42.3752 35.8754 42.3752 35.6254 42.6252C35.3884 42.6566 35.3884 42.6566 35.094 42.6569C34.9825 42.6576 34.8711 42.6583 34.7562 42.659C34.6336 42.6585 34.511 42.658 34.3847 42.6575C34.1914 42.6582 34.1914 42.6582 33.9942 42.6588C33.5666 42.6599 33.139 42.6592 32.7114 42.6584C32.4152 42.6585 32.1191 42.6588 31.823 42.6591C31.2018 42.6595 30.5805 42.6589 29.9593 42.6578C29.1614 42.6563 28.3636 42.6571 27.5658 42.6586C26.9541 42.6595 26.3425 42.6593 25.7308 42.6586C25.4366 42.6584 25.1423 42.6587 24.8481 42.6592C24.4374 42.6599 24.0268 42.6589 23.6161 42.6575C23.4935 42.658 23.3709 42.6585 23.2446 42.659C23.1331 42.6583 23.0217 42.6576 22.9068 42.6569C22.8097 42.6568 22.7125 42.6567 22.6124 42.6566C22.3754 42.6252 22.3754 42.6252 22.1254 42.3752C22.0878 42.0446 22.0878 42.0446 22.0864 41.6486C22.0843 41.5189 22.0822 41.3892 22.08 41.2555C22.1549 40.6278 22.4995 40.1417 22.9887 39.7423C23.573 39.4807 24.2532 39.5934 24.8754 39.6252C24.8754 38.7177 24.8754 37.8102 24.8754 36.8752C24.6029 36.8771 24.3304 36.8791 24.0497 36.8811C23.1481 36.8873 22.2466 36.8915 21.345 36.8946C20.7985 36.8965 20.2521 36.8992 19.7056 36.9034C19.178 36.9075 18.6504 36.9098 18.1227 36.9107C17.9217 36.9114 17.7207 36.9128 17.5196 36.9148C17.2375 36.9175 16.9554 36.9179 16.6732 36.9177C16.5128 36.9186 16.3523 36.9194 16.187 36.9203C15.4602 36.8452 14.9874 36.5526 14.5239 36.0002C14.4509 35.9151 14.3779 35.83 14.3027 35.7423C13.9674 35.2842 13.9843 34.8757 13.9829 34.3258C13.9825 34.2444 13.9821 34.1629 13.9817 34.079C13.9806 33.8055 13.9805 33.532 13.9803 33.2586C13.9797 33.0627 13.9791 32.8668 13.9784 32.6709C13.9768 32.1384 13.9759 31.6058 13.9754 31.0733C13.975 30.7405 13.9745 30.4078 13.974 30.0751C13.9722 29.0342 13.971 27.9933 13.9706 26.9524C13.97 25.7508 13.9678 24.5491 13.9642 23.3475C13.9615 22.4187 13.9602 21.4899 13.96 20.5611C13.9599 20.0064 13.9592 19.4517 13.9569 18.8969C13.9549 18.375 13.9546 17.8531 13.9557 17.3312C13.9558 17.1398 13.9553 16.9484 13.954 16.757C13.9524 16.4954 13.9532 16.2338 13.9545 15.9721C13.9543 15.8258 13.9541 15.6795 13.9539 15.5287C14.0348 14.8262 14.3362 14.3505 14.8676 13.8986C14.9512 13.8256 15.0349 13.7526 15.121 13.6774C15.667 13.297 16.2835 13.3569 16.9262 13.3576ZM15.3754 14.8752C14.9908 15.4521 14.9847 15.9689 14.9829 16.6507C14.9821 16.8068 14.9814 16.9629 14.9807 17.1238C14.9805 17.2958 14.9804 17.4679 14.9803 17.64C14.9797 17.8219 14.9791 18.0039 14.9784 18.1859C14.9768 18.6794 14.9759 19.173 14.9754 19.6665C14.975 19.9752 14.9745 20.2838 14.974 20.5924C14.9722 21.5588 14.971 22.5253 14.9706 23.4917C14.97 24.6058 14.9678 25.7199 14.9642 26.8341C14.9615 27.6963 14.9602 28.5585 14.96 29.4207C14.9599 29.9353 14.9592 30.4498 14.9569 30.9643C14.9549 31.4484 14.9546 31.9326 14.9557 32.4168C14.9558 32.5939 14.9553 32.7711 14.954 32.9482C14.9226 34.281 14.9226 34.281 15.3754 35.5002C16.0854 35.8329 16.671 35.9296 17.4475 35.9228C17.6024 35.9237 17.6024 35.9237 17.7604 35.9245C18.104 35.926 18.4474 35.9249 18.7909 35.9237C19.0382 35.9242 19.2855 35.9249 19.5328 35.9257C20.2027 35.9274 20.8727 35.9267 21.5426 35.9255C22.2445 35.9246 22.9463 35.9255 23.6482 35.9261C24.8268 35.9267 26.0053 35.9258 27.1839 35.924C28.5455 35.922 29.9071 35.9227 31.2686 35.9247C32.4387 35.9264 33.6088 35.9267 34.7789 35.9257C35.4773 35.9251 36.1757 35.925 36.8741 35.9263C37.5307 35.9274 38.1873 35.9266 38.844 35.9244C39.0846 35.9239 39.3253 35.9241 39.5659 35.9249C39.8951 35.9259 40.2242 35.9246 40.5533 35.9228C40.6953 35.924 40.6953 35.924 40.8401 35.9253C41.5092 35.918 42.017 35.7853 42.6254 35.5002C43.1434 34.6401 43.0527 33.6661 43.047 32.6888C43.0473 32.5064 43.0477 32.324 43.0483 32.1415C43.0495 31.6485 43.0483 31.1555 43.0467 30.6625C43.0452 30.1456 43.0458 29.6286 43.046 29.1116C43.0461 28.2439 43.0447 27.3762 43.0424 26.5085C43.0398 25.5061 43.0394 24.5039 43.0401 23.5015C43.0408 22.5358 43.0401 21.57 43.0387 20.6043C43.0382 20.1939 43.038 19.7835 43.0383 19.3732C43.0385 18.8899 43.0375 18.4067 43.0356 17.9234C43.035 17.7464 43.0349 17.5693 43.0353 17.3922C43.0357 17.15 43.0344 16.9079 43.033 16.6657C43.0327 16.5303 43.0325 16.395 43.0322 16.2555C42.9853 15.694 42.8713 15.2649 42.5004 14.8361C42.0209 14.4315 41.5887 14.482 40.9875 14.4826C40.8286 14.482 40.8286 14.482 40.6665 14.4815C40.3094 14.4804 39.9523 14.4802 39.5952 14.48C39.3401 14.4794 39.0849 14.4788 38.8297 14.4781C38.135 14.4765 37.4402 14.4757 36.7455 14.4751C36.3118 14.4748 35.878 14.4743 35.4443 14.4737C34.0882 14.472 32.732 14.4708 31.3759 14.4703C29.8088 14.4697 28.2416 14.4675 26.6745 14.4639C25.4643 14.4612 24.2541 14.46 23.0439 14.4598C22.3206 14.4597 21.5973 14.4589 20.8739 14.4567C20.1936 14.4546 19.5133 14.4544 18.833 14.4555C18.5831 14.4556 18.3332 14.455 18.0833 14.4538C17.7425 14.4522 17.4018 14.4529 17.061 14.4542C16.9618 14.4532 16.8626 14.4522 16.7604 14.4512C16.1931 14.4563 15.8237 14.519 15.3754 14.8752ZM26.0004 36.8752C26.0004 37.7827 26.0004 38.6902 26.0004 39.6252C27.9804 39.6252 29.9604 39.6252 32.0004 39.6252C32.0004 38.7177 32.0004 37.8102 32.0004 36.8752C30.0204 36.8752 28.0404 36.8752 26.0004 36.8752ZM23.2504 41.0002C23.2504 41.1652 23.2504 41.3302 23.2504 41.5002C27.0454 41.5002 30.8404 41.5002 34.7504 41.5002C34.699 40.9012 34.699 40.9012 34.4293 40.7132C33.9994 40.5886 33.5813 40.5893 33.1377 40.5908C33.0386 40.5902 32.9396 40.5895 32.8375 40.5889C32.5105 40.5872 32.1834 40.5873 31.8564 40.5876C31.6288 40.5871 31.4012 40.5865 31.1736 40.5859C30.6966 40.585 30.2197 40.585 29.7428 40.5857C29.1319 40.5864 28.521 40.5843 27.9101 40.5814C27.4401 40.5796 26.9701 40.5795 26.5001 40.5798C26.2749 40.5798 26.0497 40.5791 25.8245 40.5779C25.5094 40.5763 25.1944 40.5772 24.8794 40.5786C24.7865 40.5777 24.6937 40.5767 24.5981 40.5757C24.0508 40.5813 23.6712 40.6365 23.2504 41.0002Z" fill="#764895"/>
<path d="M30.8754 22.3746C31.0004 22.4996 31.0004 22.4996 31.0578 22.7648C30.9678 23.3286 30.6026 23.6142 30.2065 24.006C30.125 24.0883 30.0435 24.1707 29.9596 24.2555C29.787 24.4291 29.6136 24.6019 29.4394 24.7739C29.1734 25.0375 28.9113 25.3046 28.6493 25.5721C28.4811 25.7404 28.3126 25.9085 28.144 26.0763C28.0658 26.1563 27.9876 26.2364 27.9071 26.3189C27.3505 26.861 27.3505 26.861 26.8274 26.9323C26.5004 26.8746 26.5004 26.8746 26.3754 26.7496C26.3111 26.3772 26.2977 26.1146 26.5149 25.7932C26.7214 25.5646 26.9368 25.3507 27.1596 25.1378C27.2394 25.0587 27.3193 24.9796 27.4016 24.8981C27.6568 24.6463 27.9145 24.3972 28.1723 24.1481C28.345 23.9781 28.5175 23.8079 28.6899 23.6376C30.1606 22.1913 30.1606 22.1913 30.8754 22.3746Z" fill="#764895"/>
<path d="M31.0874 25.1973C31.375 25.2495 31.375 25.2495 31.625 25.4995C31.6816 25.7827 31.6816 25.7827 31.625 26.1245C31.4124 26.3928 31.2148 26.611 30.9688 26.8433C30.9074 26.905 30.846 26.9667 30.7827 27.0303C30.1849 27.6121 30.1849 27.6121 29.75 27.6245C29.4688 27.3823 29.4688 27.3823 29.25 27.1245C29.4276 26.574 29.697 26.2449 30.1016 25.8354C30.2081 25.7251 30.3146 25.6147 30.4243 25.501C30.75 25.2495 30.75 25.2495 31.0874 25.1973Z" fill="#764895"/>
</svg>
