<svg width="57" height="56" viewBox="0 0 57 56" fill="none" xmlns="http://www.w3.org/2000/svg">
<rect x="0.5" width="56" height="56" rx="28" fill="#EEEEEE"/>
<g clip-path="url(#clip0_16_2536)">
<path d="M33.375 12.5003C33.4593 12.5231 33.5437 12.5458 33.6307 12.5692C34.6652 12.8551 35.5903 13.2671 36.5099 13.8124C36.9171 14.0611 36.9171 14.0611 37.3779 14.0956C37.8642 13.908 38.2009 13.4151 38.5393 13.0274C38.9018 12.6387 39.0446 12.5107 39.5922 12.4398C40.072 12.511 40.2142 12.6156 40.5 13.0003C40.8415 14.0249 40.7667 15.1827 40.75 16.2503C40.8884 16.2481 40.8884 16.2481 41.0297 16.2459C43.5962 16.2231 43.5962 16.2231 44.25 16.7503C44.5 17.0003 44.5 17.0003 44.5668 17.4012C44.4743 18.0573 44.1642 18.2897 43.6796 18.7113C43.5245 18.8483 43.3706 18.9867 43.2182 19.1268C43.1495 19.1867 43.0807 19.2466 43.0099 19.3083C42.8473 19.4947 42.8473 19.4947 42.9012 19.7431C43.0003 20.0012 43.1097 20.2437 43.2363 20.4896C43.7388 21.4904 44.1966 22.472 44.4921 23.555C44.5155 23.6404 44.5388 23.7258 44.5628 23.8139C45.2704 26.5804 45.2928 29.6256 44.5 32.3753C44.4608 32.5121 44.4608 32.5121 44.4208 32.6516C43.2244 36.6683 40.3948 40.1186 36.726 42.1293C35.4887 42.7918 34.2256 43.2608 32.875 43.6253C32.6572 43.6857 32.6572 43.6857 32.435 43.7474C29.9264 44.329 27.0934 44.2121 24.625 43.5003C24.5338 43.4742 24.4426 43.4481 24.3487 43.4212C20.3319 42.2247 16.8817 39.3952 14.871 35.7263C14.2084 34.4891 13.7394 33.226 13.375 31.8753C13.3145 31.6575 13.3145 31.6575 13.2529 31.4354C12.6713 28.9268 12.7882 26.0938 13.5 23.6253C13.5261 23.5342 13.5522 23.443 13.5791 23.3491C14.7755 19.3323 17.6051 15.882 21.2739 13.8713C22.5112 13.2088 23.7743 12.7398 25.125 12.3753C25.2701 12.335 25.4153 12.2947 25.5649 12.2532C28.0841 11.6692 30.8941 11.8062 33.375 12.5003ZM25.375 14.3753C25.2921 14.4001 25.2091 14.425 25.1237 14.4506C23.162 15.0507 21.4677 15.9526 19.875 17.2503C19.7778 17.3269 19.6806 17.4034 19.5805 17.4822C17.0629 19.5721 15.3392 23.0227 15 26.2503C14.9237 28.0499 14.8495 29.8863 15.375 31.6253C15.3998 31.7084 15.4246 31.7915 15.4502 31.8771C16.0504 33.8385 16.9524 35.5328 18.25 37.1253C18.3265 37.2225 18.403 37.3196 18.4819 37.4197C20.5718 39.9374 24.0223 41.6611 27.25 42.0003C29.0495 42.0766 30.8859 42.1508 32.625 41.6253C32.708 41.6005 32.7911 41.5756 32.8767 41.5501C34.8382 40.9499 36.5324 40.0479 38.125 38.7503C38.2221 38.6738 38.3193 38.5972 38.4194 38.5184C40.9378 36.4279 42.6591 32.9784 43 29.7503C43.0946 27.7423 43.095 25.806 42.5 23.8753C42.4415 23.6807 42.4415 23.6807 42.3818 23.4822C42.103 22.6446 41.692 21.8872 41.25 21.1253C41.1118 21.2423 40.9738 21.3595 40.8359 21.4769C40.759 21.5421 40.6822 21.6074 40.603 21.6746C40.3722 21.8635 40.3722 21.8635 40.2187 22.0863C39.8631 22.353 39.4643 22.2892 39.039 22.2738C38.9513 22.2721 38.8635 22.2704 38.7731 22.2686C38.557 22.2642 38.341 22.2575 38.125 22.2503C38.2889 22.6729 38.4728 23.0778 38.6718 23.4847C39.8813 26.1254 39.9519 29.1099 38.9765 31.8284C38.1587 33.7882 36.962 35.605 35.125 36.7503C34.9981 36.8309 34.8713 36.9114 34.7407 36.9945C32.2309 38.536 29.3501 39.0074 26.476 38.3714C24.0104 37.7442 21.6213 36.3249 20.25 34.1253C20.1694 33.9985 20.0888 33.8717 20.0058 33.741C18.4643 31.2313 17.9928 28.3505 18.6289 25.4764C19.256 23.0107 20.6754 20.6217 22.875 19.2503C23.0018 19.1697 23.1286 19.0892 23.2592 19.0062C25.7697 17.4642 28.6455 16.9971 31.5205 17.6273C32.5896 17.9016 33.5561 18.309 34.5 18.8753C34.5825 18.8753 34.665 18.8753 34.75 18.8753C34.7369 18.753 34.7239 18.6307 34.7104 18.5047C34.6285 17.1822 34.6285 17.1822 35.0004 16.6253C35.28 16.3523 35.5599 16.106 35.875 15.8753C34.6824 14.5312 32.1756 14.0803 30.4552 13.9745C30.0011 13.9624 29.548 13.9592 29.0937 13.9613C28.8525 13.9623 28.8525 13.9623 28.6065 13.9634C27.4813 13.9778 26.4567 14.0451 25.375 14.3753ZM37.3262 16.8864C36.7935 17.4426 36.5009 17.8481 36.511 18.6327C36.5633 19.1587 36.6125 19.6461 36.8906 20.1097C37.4959 20.4729 38.2612 20.5328 38.9527 20.4633C39.9033 20.182 40.6738 19.1433 41.25 18.3753C41.25 18.3341 41.25 18.2928 41.25 18.2503C41.1294 18.2381 41.0089 18.2258 40.8847 18.2132C40.7268 18.1945 40.5689 18.1758 40.4062 18.1566C40.1713 18.1305 40.1713 18.1305 39.9316 18.1038C39.4464 17.9875 39.2801 17.9097 39 17.5003C38.8964 17.0687 38.8964 17.0687 38.8437 16.5941C38.825 16.4362 38.8063 16.2782 38.7871 16.1155C38.7687 15.9348 38.7687 15.9348 38.75 15.7503C38.2884 15.7503 37.6426 16.5859 37.3262 16.8864ZM22.4296 22.1141C20.814 24.2036 20.0765 26.3411 20.25 29.0003C20.5485 31.2689 21.6832 33.4645 23.5078 34.8753C25.5587 36.4335 27.9187 37.0242 30.4711 36.6883C33.0179 36.1913 35.0617 34.7598 36.5 32.6253C37.7688 30.5035 38.0789 28.0494 37.497 25.6566C37.1911 24.6384 36.7209 23.5481 36 22.7503C35.6163 22.7102 35.6163 22.7102 35.3644 22.9683C35.2181 23.1176 35.2181 23.1176 35.0688 23.2698C34.9629 23.377 34.8569 23.4842 34.7478 23.5946C34.5826 23.7645 34.5826 23.7645 34.414 23.9378C34.3024 24.0511 34.1908 24.1644 34.0759 24.2811C33.7997 24.5617 33.5245 24.8431 33.25 25.1253C33.3155 25.2747 33.3155 25.2747 33.3823 25.4271C33.4392 25.5595 33.496 25.692 33.5546 25.8284C33.6112 25.959 33.6678 26.0895 33.726 26.2239C34.1997 27.5005 34.0795 28.8607 33.625 30.1253C32.9355 31.4707 31.8985 32.374 30.4638 32.8441C29.165 33.1745 27.7627 33.0802 26.5605 32.4642C25.2984 31.6614 24.4592 30.6551 24.0859 29.1878C23.8414 27.8455 23.9747 26.4434 24.7187 25.2738C25.5939 24.0875 26.6115 23.305 28.0913 23.0355C29.4603 22.8658 30.6446 23.1351 31.875 23.7503C32.7 22.9253 33.525 22.1003 34.375 21.2503C32.9313 19.8067 31.0374 19.2379 29.0234 19.2113C26.5621 19.2232 24.0748 20.2457 22.4296 22.1141ZM26.625 25.8753C26.0104 26.6605 25.7569 27.5047 25.875 28.5003C26.0827 29.4545 26.4612 30.0515 27.2343 30.6566C28.0475 31.1119 28.8762 31.2611 29.7871 31.0628C30.7615 30.775 31.3712 30.2748 31.875 29.3753C32.2359 28.4007 32.198 27.5945 31.875 26.6253C31.2201 27.1663 30.6225 27.7459 30.0293 28.3538C29.6922 28.6814 29.48 28.8619 29.0078 28.9222C28.625 28.8753 28.625 28.8753 28.3281 28.6722C28.0641 28.2864 28.0741 28.0866 28.125 27.6253C28.3315 27.3182 28.3315 27.3182 28.6171 27.0238C28.7187 26.9176 28.8202 26.8114 28.9248 26.702C29.0321 26.5942 29.1394 26.4864 29.25 26.3753C29.3573 26.2662 29.4646 26.1571 29.5751 26.0447C29.8399 25.7779 30.1063 25.5132 30.375 25.2503C29.1571 24.4384 27.5977 24.9025 26.625 25.8753Z" fill="#764895"/>
</g>
<defs>
<clipPath id="clip0_16_2536">
<rect width="32" height="32" fill="white" transform="translate(13 12)"/>
</clipPath>
</defs>
</svg>
