<svg width="60" height="60" viewBox="0 0 60 60" fill="none" xmlns="http://www.w3.org/2000/svg">
<rect width="60" height="60" rx="30" fill="#764895"/>
<path d="M45 21.25C43.0115 21.2479 41.1051 20.4571 39.699 19.051C38.2929 17.6449 37.5021 15.7385 37.5 13.75C37.5 13.4185 37.3683 13.1005 37.1339 12.8661C36.8995 12.6317 36.5815 12.5 36.25 12.5H30C29.6685 12.5 29.3505 12.6317 29.1161 12.8661C28.8817 13.1005 28.75 13.4185 28.75 13.75V34.375C28.7497 34.9342 28.5994 35.4831 28.3148 35.9644C28.0301 36.4457 27.6215 36.8418 27.1316 37.1114C26.6417 37.381 26.0884 37.5142 25.5295 37.4971C24.9705 37.48 24.4264 37.3133 23.9539 37.0142C23.4814 36.7152 23.0978 36.2949 22.843 35.797C22.5883 35.2992 22.4718 34.7422 22.5058 34.184C22.5397 33.6259 22.7227 33.087 23.0359 32.6237C23.349 32.1604 23.7807 31.7896 24.2859 31.55C24.4997 31.4486 24.6802 31.2886 24.8066 31.0886C24.933 30.8886 25.0001 30.6569 25 30.4203V23.75C25.0001 23.5673 24.9601 23.3868 24.8829 23.2212C24.8057 23.0556 24.6931 22.9089 24.553 22.7915C24.413 22.6741 24.2489 22.5889 24.0724 22.5418C23.8959 22.4946 23.7112 22.4868 23.5312 22.5188C17.9547 23.5125 13.75 28.6094 13.75 34.375C13.75 37.5244 15.0011 40.5449 17.2281 42.7719C19.4551 44.9989 22.4756 46.25 25.625 46.25C28.7744 46.25 31.7949 44.9989 34.0219 42.7719C36.2489 40.5449 37.5 37.5244 37.5 34.375V28.1703C39.8151 29.3782 42.3888 30.0061 45 30C45.3315 30 45.6495 29.8683 45.8839 29.6339C46.1183 29.3995 46.25 29.0815 46.25 28.75V22.5C46.25 22.1685 46.1183 21.8505 45.8839 21.6161C45.6495 21.3817 45.3315 21.25 45 21.25ZM43.75 27.4438C41.3072 27.2273 38.9682 26.3555 36.9797 24.9203C36.7928 24.7859 36.5724 24.7058 36.3429 24.6887C36.1133 24.6716 35.8835 24.7182 35.6787 24.8234C35.474 24.9286 35.3023 25.0883 35.1825 25.2849C35.0627 25.4815 34.9996 25.7073 35 25.9375V34.375C35 36.8614 34.0123 39.246 32.2541 41.0041C30.496 42.7623 28.1114 43.75 25.625 43.75C23.1386 43.75 20.754 42.7623 18.9959 41.0041C17.2377 39.246 16.25 36.8614 16.25 34.375C16.25 30.3281 18.85 26.6984 22.5 25.375V29.6984C21.692 30.2383 21.0376 30.9784 20.6006 31.8464C20.1637 32.7145 19.9591 33.6809 20.0068 34.6516C20.0545 35.6222 20.3528 36.5639 20.8728 37.385C21.3927 38.206 22.1165 38.8783 22.9736 39.3364C23.8307 39.7945 24.7918 40.0227 25.7633 39.9988C26.7348 39.9749 27.6836 39.6997 28.5171 39.2C29.3507 38.7004 30.0405 37.9933 30.5195 37.1477C30.9984 36.3021 31.2501 35.3468 31.25 34.375V15H35.0781C35.3592 17.2017 36.3633 19.2478 37.9328 20.8172C39.5022 22.3867 41.5483 23.3908 43.75 23.6719V27.4438Z" fill="#EEEEEE"/>
</svg>
