<svg width="56" height="56" viewBox="0 0 56 56" fill="none" xmlns="http://www.w3.org/2000/svg">
<path d="M48.7434 11.8757C49.0581 12.4033 49.2795 12.8646 49.5005 13.4309C49.5678 13.5933 49.6351 13.7557 49.7044 13.923C49.926 14.4603 50.1413 14.9999 50.3567 15.5398C50.5092 15.913 50.662 16.2861 50.8152 16.6591C51.2153 17.6358 51.6101 18.6145 52.0038 19.5938C52.3952 20.5647 52.7911 21.5338 53.1868 22.503C53.9712 24.4273 54.7501 26.3537 55.5246 28.282C55.6145 28.4771 55.7043 28.6722 55.7969 28.8732C55.9621 29.3757 55.9621 29.3757 55.9643 29.8403C55.6088 30.5007 55.0762 30.6275 54.3959 30.9104C54.2595 30.9674 54.1232 31.0244 53.9827 31.0832C53.6934 31.2032 53.4033 31.3215 53.1127 31.4382C52.6722 31.6159 52.2351 31.8001 51.7978 31.9853C51.5155 32.1014 51.2331 32.217 50.9505 32.3323C50.6953 32.4367 50.4401 32.5411 50.1772 32.6486C49.1125 32.9596 48.1363 33.0994 47.0938 32.6203C46.2785 32.3443 45.6941 32.6897 44.9486 33.0252C44.7968 33.0895 44.6451 33.1538 44.4887 33.22C44.005 33.4252 43.5235 33.6354 43.0422 33.8464C42.56 34.0562 42.0774 34.2648 41.5934 34.4705C41.2926 34.5985 40.9928 34.7289 40.6942 34.8619C40.1397 35.099 39.6686 35.2825 39.0608 35.2794C38.6809 35.0632 38.6809 35.0632 38.418 34.5573C37.8328 33.6828 37.0648 33.4699 36.1063 33.0953C35.9154 33.0174 35.7246 32.9396 35.5279 32.8593C34.9168 32.6108 34.3038 32.3672 33.6907 32.1238C33.2873 31.961 32.8842 31.798 32.4811 31.6346C31.8908 31.3954 31.3003 31.1565 30.7093 30.9189C26.1346 29.0794 26.1346 29.0794 25.7746 28.7195C25.7658 28.355 25.7653 27.9902 25.7746 27.6257C27.0167 27.7486 28.0397 28.0884 29.1875 28.5682C29.3624 28.6397 29.5373 28.7112 29.7175 28.7848C30.2724 29.0121 30.8262 29.2417 31.3801 29.4714C31.7537 29.625 32.1274 29.7783 32.5012 29.9316C33.1868 30.2128 33.872 30.495 34.5568 30.7783C34.7035 30.8384 34.8503 30.8985 35.0015 30.9604C35.3393 31.1007 35.6742 31.2479 36.0084 31.3966C36.7169 31.64 37.3022 31.4861 38.0246 31.3445C38.0246 30.767 38.0246 30.1895 38.0246 29.5945C37.8432 29.5363 37.8432 29.5363 37.6581 29.477C36.4934 29.0974 35.3615 28.6711 34.2333 28.1948C33.9846 28.0908 33.9846 28.0908 33.7309 27.9848C33.2068 27.7655 32.6831 27.5452 32.1594 27.3249C31.8112 27.179 31.463 27.0332 31.1148 26.8874C30.9447 26.8162 30.7746 26.7449 30.5993 26.6714C30.2627 26.5305 29.926 26.3898 29.5891 26.2492C28.849 25.94 28.1109 25.6279 27.3782 25.3013C27.146 25.1993 26.9137 25.0973 26.6744 24.9922C26.4768 24.9032 26.2793 24.8142 26.0757 24.7225C25.4928 24.5439 25.2392 24.5504 24.6809 24.782C24.1214 25.2702 24.1214 25.2702 23.5735 25.862C22.1432 27.3568 22.1432 27.3568 21.3885 27.4804C20.1929 27.5011 19.4803 27.3662 18.5559 26.532C18.0757 25.7804 18.0214 25.0551 18.1662 24.1744C18.4588 23.3422 18.9895 22.7464 19.5685 22.0912C20.0979 21.511 20.0979 21.511 20.5306 20.8624C22.5601 18.1807 25.9696 17.2795 29.0559 16.2507C30.8182 16.1083 32.2352 16.5665 33.8957 17.1257C36.604 18.1313 36.604 18.1313 39.3235 17.5632C39.4924 17.482 39.6613 17.4008 39.8353 17.3171C39.9597 17.2539 40.084 17.1908 40.2121 17.1257C40.1941 16.9362 40.1761 16.7467 40.1575 16.5515C40.2291 15.5848 40.4394 15.2256 41.0871 14.5007C41.7741 14.0372 42.513 13.7295 43.2746 13.407C43.4434 13.3339 43.6122 13.2609 43.7862 13.1856C44.3659 12.9362 44.9477 12.6923 45.5305 12.4499C45.7213 12.3689 45.912 12.2879 46.1086 12.2044C46.2914 12.1303 46.4743 12.0563 46.6627 11.98C46.8263 11.9125 46.99 11.845 47.1586 11.7754C47.8051 11.6195 48.126 11.6128 48.7434 11.8757ZM44.5735 14.3366C44.2433 14.4665 44.2433 14.4665 43.9065 14.599C43.6955 14.685 43.4844 14.771 43.267 14.8596C43.0743 14.9375 42.8817 15.0154 42.6833 15.0956C42.1083 15.4162 41.8361 15.6711 41.5246 16.2507C41.636 18.1968 42.9827 20.4254 43.7395 22.2116C44.0355 22.9139 44.331 23.6163 44.6264 24.3188C44.6989 24.4907 44.7713 24.6626 44.8459 24.8398C45.2711 25.8508 45.687 26.8648 46.0928 27.8838C46.1821 28.1076 46.2715 28.3314 46.3635 28.562C46.5239 28.966 46.6827 29.3705 46.8397 29.7758C46.9096 29.9511 46.9795 30.1265 47.0515 30.3071C47.1097 30.4563 47.1678 30.6055 47.2277 30.7592C47.4365 31.2019 47.4365 31.2019 48.0871 31.5632C49.5396 31.5193 50.799 30.9078 52.1203 30.3464C52.343 30.2535 52.5656 30.1606 52.795 30.0649C53.341 29.8367 53.8862 29.607 54.4309 29.3757C52.3317 24.0169 50.0895 18.716 47.8684 13.407C46.6413 13.407 45.698 13.8753 44.5735 14.3366ZM26.7152 18.5525C26.2734 18.7228 25.8287 18.8831 25.3833 19.0436C23.3383 19.8178 22.227 20.7635 20.9621 22.5945C20.7007 22.9068 20.437 23.2172 20.1692 23.5241C19.7166 24.1259 19.5748 24.4681 19.677 25.2195C19.7402 25.436 19.8033 25.6526 19.8684 25.8757C20.4374 26.1239 20.4374 26.1239 21.1809 26.0945C21.8374 25.6635 22.3749 25.115 22.9309 24.5632C23.2283 24.2681 23.529 23.9762 23.8332 23.6882C23.9646 23.5574 24.096 23.4265 24.2314 23.2917C24.8957 22.9078 25.2473 23.0756 25.9934 23.2507C26.6978 23.5026 27.3837 23.7935 28.0715 24.0873C28.2712 24.1712 28.4708 24.2552 28.6766 24.3417C29.314 24.6102 29.9506 24.8806 30.5871 25.1511C31.0084 25.3288 31.4296 25.5064 31.8509 25.6839C32.6647 26.0268 33.4775 26.3719 34.2897 26.7186C34.9744 27.0102 35.6609 27.2949 36.3524 27.5698C36.4937 27.6271 36.635 27.6843 36.7806 27.7433C37.1448 27.8904 37.5104 28.0346 37.876 28.1784C38.8142 28.6943 39.2494 29.3037 39.5559 30.3191C39.5559 31.3563 39.209 32.0031 38.6809 32.8757C39.0418 33.1645 39.4028 33.4532 39.7746 33.7507C40.6135 33.4284 41.4505 33.1016 42.286 32.7707C42.5705 32.6588 42.8555 32.548 43.141 32.4385C43.5511 32.281 43.9593 32.1187 44.3675 31.9563C44.737 31.8119 44.737 31.8119 45.1139 31.6647C45.7043 31.4094 45.7043 31.4094 45.8429 30.9376C45.9419 30.121 45.5245 29.4143 45.2015 28.681C45.1266 28.5055 45.0518 28.33 44.9746 28.1492C44.7338 27.5863 44.4897 27.0249 44.2453 26.4636C44.0079 25.9124 43.7713 25.3608 43.5348 24.8091C43.3795 24.4474 43.2234 24.086 43.0666 23.7249C42.7 22.8773 42.3457 22.0288 42.0221 21.1637C41.9353 20.9342 41.9353 20.9342 41.8468 20.7C41.6932 20.2889 41.5439 19.8762 41.3948 19.4634C41.1489 18.8555 41.1489 18.8555 40.6628 18.6601C40.0418 18.6558 39.5594 18.8979 39.0065 19.162C37.0728 19.6993 35.3252 19.0282 33.4856 18.4382C32.9631 18.2728 32.4401 18.1087 31.9167 17.946C31.6876 17.8727 31.4584 17.7994 31.2222 17.7239C29.57 17.3059 28.2426 17.9568 26.7152 18.5525Z" fill="#764895"/>
<path d="M15.9309 32.6571C16.1474 32.8015 16.364 32.9459 16.5871 33.0946C16.5871 33.239 16.5871 33.3834 16.5871 33.5321C16.7315 33.5321 16.8759 33.5321 17.0246 33.5321C17.0968 33.3156 17.169 33.099 17.2434 32.8759C18.1316 32.2999 19.0623 32.2561 20.0871 32.4384C20.6228 32.7515 20.9609 33.0821 21.3996 33.5321C21.6162 33.3878 21.8328 33.2434 22.0559 33.0946C22.9716 32.9626 23.7915 33.0034 24.6535 33.3407C25.241 33.859 25.4924 34.3355 25.7746 35.0634C25.7746 35.3521 25.7746 35.6409 25.7746 35.9384C26.0453 35.9925 26.316 36.0467 26.5949 36.1025C27.4201 36.3084 27.8737 36.5567 28.3996 37.2509C28.966 38.9498 28.3709 40.4002 27.693 41.9557C27.2122 42.9046 26.7649 43.5953 25.7746 44.0321C24.8871 44.2252 24.1995 44.1123 23.3684 43.7314C23.224 43.6141 23.0796 43.4968 22.9309 43.3759C22.9309 43.2315 22.9309 43.0871 22.9309 42.9384C22.7504 43.0467 22.57 43.155 22.384 43.2665C21.4228 43.6785 20.9077 43.6936 19.8684 43.5946C19.0442 43.265 18.8207 43.0193 18.3782 42.2411C18.2924 42.0381 18.2067 41.8351 18.1184 41.6259C17.7259 41.6597 17.7259 41.6597 17.3254 41.6943C16.5403 41.6915 16.3431 41.6104 15.6301 41.1747C14.9854 40.4532 14.7793 39.9487 14.6184 39.0009C14.6906 38.8565 14.7628 38.7121 14.8371 38.5634C14.6522 38.5905 14.4672 38.6175 14.2766 38.6454C13.2321 38.5315 12.6985 38.0007 11.9934 37.2509C11.6089 36.482 11.6571 35.6838 11.7746 34.8446C12.1579 33.8865 12.6531 33.2525 13.4836 32.6435C14.4169 32.369 14.9787 32.4542 15.9309 32.6571ZM18.115 34.0739C17.5331 34.8138 17.2087 35.5884 16.8606 36.4579C16.7569 36.7016 16.7569 36.7016 16.6512 36.9501C16.2707 37.8824 16.0427 38.6326 16.1496 39.6571C16.3502 40.1129 16.3502 40.1129 16.8059 40.3134C17.5567 40.4051 17.5567 40.4051 18.3371 40.0946C18.8323 39.403 19.1151 38.6437 19.4172 37.8525C19.5042 37.6435 19.5912 37.4346 19.6808 37.2193C20.238 35.8591 20.238 35.8591 20.3059 34.4071C19.9399 33.9868 19.9399 33.9868 19.4309 33.7509C18.5824 33.6647 18.5824 33.6647 18.115 34.0739ZM13.552 34.3114C13.23 35.0091 13.1289 35.61 13.0871 36.3759C13.4549 37.0564 13.4549 37.0564 14.0305 37.2509C14.6631 37.3085 14.6631 37.3085 15.2199 36.8134C15.7947 36.0471 15.9133 35.5772 15.9309 34.6259C15.7865 34.4093 15.6421 34.1928 15.4934 33.9696C14.4427 33.8247 14.4427 33.8247 13.552 34.3114ZM22.1544 34.6555C21.4215 35.5977 21.0322 36.7764 20.5657 37.8661C20.4502 38.1234 20.3347 38.3807 20.2157 38.6459C20.1087 38.8953 20.0017 39.1447 19.8915 39.4016C19.7925 39.6289 19.6936 39.8561 19.5917 40.0902C19.3958 40.895 19.5441 41.3141 19.8684 42.0634C20.8779 42.2914 20.8779 42.2914 21.8371 42.0634C22.0397 41.6592 22.2237 41.2456 22.3985 40.8287C22.5578 40.4507 22.5578 40.4507 22.7203 40.0652C22.8854 39.6669 22.8854 39.6669 23.0539 39.2607C23.1649 38.9977 23.2759 38.7348 23.3902 38.4638C24.2244 36.8 24.2244 36.8 24.3528 35.0224C24.0246 34.5484 24.0246 34.5484 23.2727 34.4208C22.5281 34.3291 22.5281 34.3291 22.1544 34.6555ZM24.8996 37.9071C24.6348 38.399 24.4065 38.8721 24.1887 39.3837C24.1272 39.5168 24.0658 39.6499 24.0024 39.787C23.6055 40.7066 23.5511 41.3164 23.8059 42.2821C24.658 42.6577 24.658 42.6577 25.555 42.6043C26.2083 42.1242 26.4015 41.5584 26.718 40.8193C26.8345 40.5567 26.9509 40.2942 27.0709 40.0237C27.3289 39.1407 27.2826 38.5787 27.0871 37.6884C25.9317 37.4259 25.9317 37.4259 24.8996 37.9071Z" fill="#764895"/>
<path d="M6.96213 14.9385C8.26821 14.9992 9.48394 15.5883 10.6809 16.0732C10.9998 16.1961 10.9998 16.1961 11.3252 16.3215C12.6231 16.8458 13.5161 17.3406 14.3996 18.4385C14.591 19.2861 14.591 19.2861 14.6184 19.9697C15.9841 20.5767 17.0679 20.7083 18.5559 20.626C18.7724 21.0591 18.7724 21.0591 18.9934 21.501C18.1477 22.1557 17.4811 22.2551 16.447 22.2239C15.6238 22.1176 14.94 21.8322 14.1809 21.501C13.5428 22.7425 12.9794 23.995 12.4548 25.2881C12.3784 25.475 12.3019 25.6619 12.2231 25.8544C11.9819 26.4447 11.7415 27.0353 11.5012 27.626C11.3366 28.029 11.172 28.4321 11.0073 28.8351C10.6061 29.8172 10.2058 30.7996 9.80588 31.7822C10.0224 31.9266 10.239 32.071 10.4621 32.2197C10.7548 32.4371 11.0467 32.6556 11.3371 32.876C11.2649 33.2369 11.1928 33.5979 11.1184 33.9697C9.85042 33.768 9.85042 33.768 9.34104 33.5732C9.13801 33.5529 9.13801 33.5529 8.93088 33.5322C8.80455 33.6676 8.67822 33.8029 8.54807 33.9424C7.87329 34.5797 7.20233 34.6296 6.30588 34.626C5.69669 34.4675 5.18338 34.305 4.61057 34.0654C4.46068 34.0055 4.31078 33.9457 4.15635 33.884C3.70342 33.6997 3.25432 33.5084 2.80588 33.3135C2.66986 33.2548 2.53384 33.1961 2.39369 33.1356C0.260985 32.1974 0.260984 32.1974 0.0203409 31.6073C-0.0529615 31.0012 0.0784768 30.6627 0.308198 30.0989C0.424727 29.81 0.424727 29.81 0.543611 29.5153C0.626936 29.3159 0.710262 29.1165 0.796113 28.9111C0.876901 28.7101 0.957689 28.509 1.04093 28.3019C1.64961 26.8135 1.64961 26.8135 2.14963 26.3135C2.61447 26.3955 2.61447 26.3955 3.02463 26.5322C3.32776 27.2078 3.22033 27.4756 2.97763 28.1951C2.85448 28.4895 2.72877 28.7828 2.6008 29.0752C2.12318 30.0671 2.12318 30.0671 1.93088 31.126C2.7137 31.4566 3.49791 31.7838 4.28244 32.1103C4.50464 32.2043 4.72685 32.2982 4.95578 32.3949C5.27724 32.5281 5.27724 32.5281 5.6052 32.6641C5.80223 32.7465 5.99927 32.829 6.20227 32.914C6.78662 33.1409 6.78662 33.1409 7.61838 33.0947C7.65528 32.9781 7.69219 32.8614 7.73021 32.7413C8.15098 31.4422 8.64529 30.1872 9.17697 28.9299C9.30434 28.6264 9.30434 28.6264 9.43428 28.3167C9.70331 27.676 9.97333 27.0358 10.2434 26.3955C10.4246 25.9643 10.6057 25.5331 10.7868 25.1018C11.1197 24.3096 11.4528 23.5176 11.7866 22.7258C11.8588 22.554 11.9309 22.3822 12.0053 22.2053C12.1382 21.8933 12.2737 21.5825 12.4126 21.2732C12.7917 20.4258 12.9367 19.8091 12.8684 18.876C11.2069 18.1074 9.53088 17.3831 7.83713 16.6885C7.77086 16.8281 7.7046 16.9676 7.63632 17.1114C7.54468 17.2922 7.45303 17.473 7.35861 17.6592C7.26979 17.8394 7.18096 18.0196 7.08945 18.2052C6.74338 18.6572 6.74338 18.6572 6.15805 18.829C5.99027 18.8445 5.82249 18.86 5.64963 18.876C5.4043 18.2604 5.43074 18.0014 5.63339 17.3567C5.7335 17.1272 5.8336 16.8976 5.93674 16.6611C6.03515 16.4305 6.13356 16.1998 6.23496 15.9622C6.52463 15.376 6.52463 15.376 6.96213 14.9385Z" fill="#764895"/>
<path d="M24.4621 31.126C25.6264 31.2615 26.5993 31.6426 27.669 32.0933C27.8498 32.168 28.0306 32.2428 28.2168 32.3199C28.7933 32.5586 29.3689 32.7993 29.9445 33.04C31.2341 33.5767 32.5243 34.1118 33.8161 34.6431C34.1283 34.7716 34.4403 34.9006 34.7521 35.0301C35.1398 35.1906 35.529 35.3476 35.9183 35.5044C36.2323 35.6322 36.2323 35.6322 36.5527 35.7627C37.2148 35.9577 37.7755 35.9706 38.4621 35.9385C38.5704 36.4799 38.5704 36.4799 38.6809 37.0322C37.9294 37.5332 37.5903 37.5088 36.7121 37.4697C36.6986 37.6998 36.6851 37.9299 36.6711 38.167C36.4625 39.1461 36.1586 39.4653 35.3996 40.0947C34.6965 40.4463 33.9917 40.326 33.2121 40.3135C33.1625 40.5075 33.1129 40.7015 33.0617 40.9014C32.6919 41.8347 32.1512 42.4846 31.2434 42.9385C30.1439 43.0215 29.5155 42.9347 28.6184 42.2822C28.6906 41.9935 28.7628 41.7047 28.8371 41.4072C28.99 41.4148 29.1428 41.4225 29.3003 41.4303C29.4993 41.4362 29.6984 41.4421 29.9035 41.4482C30.1015 41.4559 30.2994 41.4635 30.5034 41.4713C30.6754 41.4502 30.8474 41.429 31.0246 41.4072C31.5256 40.6558 31.5012 40.3167 31.4621 39.4385C31.2546 39.3753 31.047 39.3121 30.8332 39.2471C30.1496 39.001 30.1496 39.001 29.7121 38.5635C29.7121 38.2747 29.7121 37.986 29.7121 37.6885C30.8682 37.7631 31.7565 37.9084 32.8156 38.3857C33.5996 38.7269 33.7904 38.7984 34.6613 38.6182C34.8328 38.5279 35.0042 38.4377 35.1809 38.3447C35.1809 37.8394 35.1809 37.3341 35.1809 36.8135C35.0605 36.7749 34.9402 36.7363 34.8162 36.6966C33.6337 36.311 32.4829 35.878 31.3357 35.3984C31.1662 35.3281 30.9968 35.2577 30.8223 35.1853C30.4678 35.0378 30.1134 34.89 29.7591 34.7419C29.2187 34.5161 28.6776 34.292 28.1364 34.068C27.79 33.9237 27.4437 33.7793 27.0974 33.6348C26.9369 33.5684 26.7765 33.5021 26.6112 33.4338C25.7788 33.0841 25.0058 32.7096 24.2434 32.2197C24.3156 31.8588 24.3878 31.4979 24.4621 31.126Z" fill="#764895"/>
</svg>
