<svg width="19" height="20" viewBox="0 0 19 20" fill="none" xmlns="http://www.w3.org/2000/svg">
<path d="M1.59404 0.983904C1.7751 0.962863 1.95846 0.991706 2.12431 1.06732C2.29016 1.14293 2.43218 1.26243 2.53504 1.4129C4.01104 3.5719 5.78304 4.4699 7.75004 4.6739C7.84604 3.8329 8.07304 3.0019 8.50004 2.2699C9.12604 1.1959 10.144 0.405904 11.598 0.113904C13.608 -0.290096 15.138 0.437904 16.025 1.3289L17.817 0.993904C18.0046 0.958768 18.1982 0.978008 18.3752 1.04935C18.5521 1.1207 18.7049 1.24117 18.8157 1.39655C18.9264 1.55193 18.9903 1.73574 18.9999 1.92628C19.0096 2.11682 18.9645 2.30614 18.87 2.4719L17.15 5.4939C17.307 9.8549 16.095 12.8989 13.511 14.9959C12.141 16.1079 10.179 16.7389 8.02604 16.9339C5.85604 17.1299 3.40304 16.8929 0.965044 16.1809C0.756736 16.1201 0.573844 15.9933 0.443969 15.8194C0.314094 15.6456 0.244284 15.4343 0.245075 15.2173C0.245865 15.0003 0.317213 14.7894 0.44835 14.6166C0.579488 14.4437 0.763299 14.3181 0.972044 14.2589C2.19804 13.9099 3.13204 13.6089 3.97504 13.0819C2.77604 12.4459 1.89304 11.6139 1.26804 10.6659C0.400044 9.34791 0.0780436 7.8779 0.0140436 6.5529C-0.0499564 5.2279 0.141044 3.9999 0.343044 3.1149C0.458044 2.6099 0.592044 2.1039 0.777044 1.6199C0.8423 1.44929 0.953041 1.29982 1.09725 1.1877C1.24145 1.07558 1.41261 1.0051 1.59404 0.983904Z" fill="#EEEEEE"/>
</svg>
