<svg width="71" height="70" viewBox="0 0 71 70" fill="none" xmlns="http://www.w3.org/2000/svg">
<rect x="0.5" width="70" height="70" rx="35" fill="url(#paint0_linear_41_4145)"/>
<path d="M33.2227 37.3244C33.3871 37.3557 33.5515 37.3868 33.716 37.4179C34.0736 37.4856 34.4311 37.5539 34.7886 37.6226C35.3104 37.7225 35.8327 37.8199 36.3551 37.9167C36.7461 37.9891 37.1369 38.0621 37.5276 38.1353C37.801 38.1864 38.0743 38.2374 38.3478 38.2879C38.656 38.3448 38.9639 38.403 39.2719 38.4612C39.3629 38.4779 39.454 38.4946 39.5479 38.5117C40.6961 38.7314 41.7062 39.0958 42.4072 40.0784C42.8425 40.7827 42.9636 41.4507 42.9541 42.2659C43.9984 41.6713 45.0422 41.0762 46.0791 40.469C46.8627 40.0101 47.6502 39.5583 48.4393 39.109C48.5253 39.06 48.6113 39.011 48.7 38.9605C48.8254 38.8891 48.8254 38.8891 48.9533 38.8162C49.2828 38.6269 49.6097 38.4333 49.9362 38.2389C50.7147 37.8082 51.6531 37.7521 52.5098 37.9787C53.5103 38.3355 54.2185 38.997 54.7281 39.9194C54.8731 40.2599 54.9309 40.5773 54.8291 40.9377C54.5724 41.3821 54.1198 41.583 53.6865 41.8264C53.6036 41.8738 53.5207 41.9213 53.4353 41.9702C53.2597 42.0706 53.0839 42.1708 52.9079 42.2707C52.5666 42.4647 52.2269 42.6612 51.8871 42.8578C51.6328 43.0049 51.3782 43.1516 51.1237 43.2983C50.6139 43.5919 50.1043 43.8859 49.5947 44.1799C49.4255 44.2776 49.2562 44.3752 49.0869 44.4729C49.0031 44.5212 48.9193 44.5696 48.833 44.6194C47.902 45.1565 46.971 45.6936 46.04 46.2307C45.9562 46.2791 45.8723 46.3275 45.7858 46.3774C45.6176 46.4744 45.4492 46.5715 45.2809 46.6684C44.8886 46.8945 44.4967 47.1209 44.1058 47.3493C43.9685 47.4295 43.8311 47.5095 43.6937 47.5895C43.5222 47.6894 43.3509 47.7895 43.1798 47.8901C40.9422 49.1907 38.8751 48.8085 36.4122 48.5024C35.8673 48.4347 35.3222 48.3679 34.7769 48.3025C34.5895 48.2798 34.4023 48.2562 34.2151 48.2324C32.697 48.0053 32.697 48.0053 31.2744 48.4133C31.2228 48.4417 31.1713 48.47 31.1181 48.4992C30.9729 48.58 30.8305 48.664 30.6885 48.7502C30.6186 48.7926 30.5487 48.835 30.4767 48.8787C30.3384 48.9653 30.2009 49.0529 30.0635 49.1409C30.0119 49.1409 29.9604 49.1409 29.9072 49.1409C29.933 49.1892 29.9588 49.2375 29.9854 49.2873C30.123 49.7176 30.1208 50.1375 29.9805 50.5666C29.5587 51.1653 28.9139 51.478 28.2861 51.8215C28.1974 51.8709 28.1087 51.9203 28.0173 51.9712C27.4784 52.2694 27.0975 52.4612 26.4697 52.4221C26.3804 52.3963 26.3804 52.3963 26.2892 52.37C26.0175 52.3363 25.9098 52.4047 25.6754 52.542C25.5609 52.608 25.5609 52.608 25.4442 52.6752C25.3258 52.7457 25.3258 52.7457 25.2051 52.8176C25.089 52.8849 25.089 52.8849 24.9706 52.9536C24.6656 53.131 24.362 53.3098 24.0628 53.4967C23.9945 53.5392 23.9262 53.5817 23.8559 53.6254C23.7958 53.6636 23.7357 53.7017 23.6738 53.7411C23.3908 53.884 23.1871 53.8728 22.876 53.8284C22.7197 53.6721 22.7197 53.6721 22.6904 53.4084C22.7255 53.0695 22.779 53.0274 23.0322 52.8127C23.1972 52.7068 23.3654 52.6059 23.5358 52.5088C23.5835 52.4815 23.6312 52.4542 23.6804 52.426C23.7808 52.3688 23.8812 52.3118 23.9818 52.2551C24.1361 52.168 24.2899 52.08 24.4437 51.9918C25.1979 51.5627 25.1979 51.5627 25.376 51.5627C25.0988 50.9779 24.7922 50.4189 24.4616 49.8632C24.1582 49.3531 23.8606 48.8398 23.5645 48.3254C23.4898 48.1958 23.4898 48.1958 23.4136 48.0635C23.3113 47.8861 23.2091 47.7086 23.1069 47.5311C22.9093 47.188 22.7114 46.8451 22.5135 46.5022C22.417 46.3349 22.3205 46.1675 22.224 46.0001C21.9954 45.6036 21.7665 45.2073 21.5365 44.8117C21.4279 44.625 21.3195 44.4382 21.2112 44.2513C21.1347 44.1197 21.0579 43.9881 20.9811 43.8566C20.9348 43.7767 20.8885 43.6968 20.8408 43.6144C20.7999 43.5443 20.7591 43.4742 20.7171 43.4019C20.6136 43.2094 20.5309 43.0171 20.4541 42.8127C19.7131 43.1674 19.0043 43.5599 18.2996 43.9816C17.9619 44.1828 17.8024 44.2512 17.4072 44.219C17.2607 44.136 17.2607 44.136 17.1729 43.9846C17.1143 43.7258 17.1143 43.7258 17.1729 43.4377C17.5185 43.1263 17.9649 42.9178 18.3725 42.6998C18.4598 42.6527 18.547 42.6056 18.6369 42.557C18.8164 42.4606 18.9969 42.366 19.1783 42.2732C19.7527 41.9579 20.0333 41.6902 20.2705 41.0736C20.5274 40.5524 21.1618 40.3053 21.6467 40.0271C21.7873 39.9464 21.9274 39.8649 22.0674 39.7834C22.1563 39.7322 22.2452 39.681 22.3367 39.6282C22.4177 39.5815 22.4987 39.5348 22.5821 39.4867C22.9456 39.2989 23.2474 39.263 23.6572 39.2971C24.0334 39.4328 24.3324 39.616 24.5947 39.9221C24.8785 39.8155 25.1345 39.6879 25.3964 39.5354C25.5164 39.4659 25.5164 39.4659 25.6388 39.3949C25.7245 39.3449 25.8102 39.2949 25.8984 39.2434C25.9875 39.1919 26.0766 39.1403 26.1684 39.0872C26.5911 38.8427 27.0128 38.5967 27.4329 38.3476C27.5682 38.2675 27.7037 38.1877 27.8393 38.108C28.0087 38.0084 28.1777 37.908 28.3462 37.8069C29.9764 36.8509 31.4434 36.9792 33.2227 37.3244ZM28.5596 38.8772C28.4328 38.9498 28.4328 38.9498 28.3034 39.0239C28.0561 39.1659 27.8097 39.3093 27.5635 39.4534C27.4972 39.492 27.431 39.5306 27.3627 39.5704C27.0862 39.7318 26.8103 39.8941 26.535 40.0576C26.074 40.331 25.6077 40.5951 25.1416 40.8596C25.2399 41.1806 25.3588 41.4576 25.5283 41.7471C25.5746 41.8267 25.6209 41.9064 25.6687 41.9885C25.7187 42.0736 25.7688 42.1587 25.8203 42.2463C25.873 42.3366 25.9256 42.4269 25.9782 42.5173C26.0875 42.7049 26.1969 42.8924 26.3065 43.0798C26.5111 43.43 26.7133 43.7815 26.9155 44.1329C28.1109 46.2233 28.1109 46.2233 29.3604 48.2815C29.9289 48.0063 30.4785 47.7139 31.0175 47.3843C32.4986 46.5794 34.9216 47.2879 36.5193 47.4868C39.3283 47.8359 41.0603 47.9724 43.5585 46.4798C43.9765 46.2316 44.3979 45.9895 44.8193 45.7473C44.99 45.6489 45.1607 45.5506 45.3314 45.4522C45.4162 45.4034 45.501 45.3545 45.5883 45.3042C46.0124 45.0599 46.4364 44.8152 46.8604 44.5705C47.0296 44.4729 47.1989 44.3752 47.3682 44.2776C47.452 44.2292 47.5357 44.1809 47.6221 44.1311C48.3838 43.6916 48.3838 43.6916 48.6377 43.5451C48.8069 43.4475 48.976 43.35 49.1452 43.2524C49.5702 43.0071 49.9953 42.762 50.4205 42.517C51.5537 41.8641 52.6845 41.2073 53.8135 40.5471C53.7514 40.4343 53.6893 40.3216 53.627 40.209C53.5924 40.1462 53.5578 40.0834 53.5221 40.0188C53.217 39.4815 52.8166 39.2208 52.2705 38.9602C51.1277 38.7185 50.3208 39.1836 49.3604 39.7512C49.2257 39.8298 49.0911 39.9084 48.9565 39.987C48.8178 40.068 48.6792 40.1492 48.5406 40.2305C48.1121 40.4816 47.6814 40.729 47.251 40.9768C47.0817 41.0744 46.9124 41.1721 46.7432 41.2698C46.4046 41.4651 46.0661 41.6604 45.7275 41.8557C45.6436 41.9041 45.5597 41.9526 45.4732 42.0025C45.3054 42.0992 45.1377 42.196 44.9699 42.2927C44.5716 42.5225 44.1733 42.7524 43.7751 42.9824C43.5861 43.0916 43.397 43.2008 43.208 43.31C43.0738 43.3875 42.9396 43.465 42.8055 43.5426C42.6845 43.6124 42.6845 43.6124 42.561 43.6837C42.454 43.7455 42.454 43.7455 42.3448 43.8086C41.7514 44.1463 41.0913 43.9449 40.4519 43.8221C40.3133 43.7962 40.3133 43.7962 40.1718 43.7698C39.92 43.7226 39.6682 43.6749 39.4165 43.6269C39.1523 43.5767 38.888 43.527 38.6237 43.4773C38.1803 43.3938 37.737 43.3098 37.2937 43.2255C36.7818 43.1282 36.2697 43.0315 35.7576 42.9353C35.2639 42.8424 34.7703 42.7492 34.2767 42.6557C34.067 42.616 33.8574 42.5765 33.6477 42.537C33.355 42.4819 33.0623 42.4262 32.7697 42.3704C32.683 42.3542 32.5962 42.3379 32.5069 42.3212C32.427 42.3059 32.3472 42.2905 32.265 42.2747C32.1958 42.2616 32.1267 42.2485 32.0555 42.235C31.8502 42.1853 31.6638 42.1144 31.4697 42.0315C31.416 41.7727 31.416 41.7727 31.3916 41.4846C31.4855 41.3485 31.4855 41.3485 31.626 41.2502C31.7873 41.2385 31.7873 41.2385 31.9735 41.2642C32.0432 41.2735 32.1128 41.2828 32.1846 41.2924C32.5681 41.3543 32.9499 41.4225 33.3313 41.4962C33.4202 41.5131 33.5091 41.53 33.6006 41.5475C33.7923 41.5839 33.9839 41.6206 34.1755 41.6573C34.4784 41.7154 34.7815 41.7731 35.0846 41.8305C35.8912 41.9836 36.6977 42.1374 37.5041 42.2916C38.0863 42.403 38.6685 42.5138 39.2509 42.6241C39.452 42.6623 39.6531 42.7008 39.8541 42.7394C40.1342 42.7933 40.4144 42.8465 40.6946 42.8994C40.778 42.9157 40.8614 42.9319 40.9473 42.9486C41.0234 42.9629 41.0995 42.9771 41.1779 42.9918C41.2441 43.0044 41.3103 43.0171 41.3784 43.0301C41.5619 43.0602 41.5619 43.0602 41.7822 42.969C41.9902 42.1767 42.0049 41.4622 41.597 40.7311C40.777 39.5454 39.249 39.4801 37.9419 39.2373C37.7581 39.2027 37.5742 39.1682 37.3904 39.1335C37.0065 39.0614 36.6224 38.9898 36.2384 38.9185C35.748 38.8274 35.2579 38.7349 34.7679 38.6421C34.3888 38.5704 34.0096 38.4996 33.6303 38.429C33.4496 38.3952 33.2689 38.3612 33.0883 38.3269C32.8352 38.279 32.582 38.2322 32.3286 38.1856C32.2553 38.1715 32.182 38.1573 32.1065 38.1428C30.7501 37.8977 29.7358 38.1888 28.5596 38.8772ZM22.8644 40.5239C22.7858 40.5683 22.7073 40.6127 22.6263 40.6585C22.5444 40.7055 22.4624 40.7526 22.3779 40.801C22.2966 40.8468 22.2152 40.8927 22.1313 40.9399C21.7568 41.153 21.4112 41.3646 21.0791 41.6409C21.1204 41.972 21.1913 42.2085 21.3629 42.4941C21.4275 42.603 21.4275 42.603 21.4934 42.7141C21.5403 42.7918 21.5873 42.8694 21.6357 42.9495C21.7362 43.1185 21.8366 43.2875 21.937 43.4567C22.015 43.5874 22.015 43.5874 22.0945 43.7209C22.3442 44.1418 22.5881 44.5661 22.832 44.9905C22.9304 45.1612 23.0288 45.3319 23.1271 45.5026C23.2004 45.6297 23.2004 45.6297 23.2751 45.7594C23.5679 46.2676 23.8611 46.7755 24.1542 47.2835C24.4045 47.7172 24.6546 48.151 24.9042 48.5851C25.5372 49.6866 25.5372 49.6866 26.1816 50.7815C26.2094 50.8283 26.2371 50.8751 26.2657 50.9233C26.3748 51.1048 26.4755 51.256 26.626 51.4065C26.938 51.3795 27.1699 51.2596 27.4396 51.1068C27.5183 51.0623 27.5971 51.0178 27.6782 50.9719C27.7596 50.9252 27.841 50.8785 27.9248 50.8303C28.0068 50.7842 28.0888 50.7381 28.1732 50.6905C28.6627 50.4459 28.6627 50.4459 29.0479 50.0784C29.0315 49.7314 28.9218 49.4866 28.7469 49.1909C28.7004 49.1112 28.6538 49.0316 28.6058 48.9495C28.5551 48.8644 28.5044 48.7793 28.4521 48.6916C28.399 48.6012 28.346 48.5108 28.293 48.4203C28.183 48.2325 28.0726 48.0449 27.962 47.8574C27.7088 47.4277 27.4606 46.9951 27.2119 46.5627C27.1143 46.3934 27.0166 46.2242 26.9189 46.0549C26.333 45.0393 26.333 45.0393 26.1864 44.7851C26.0892 44.6167 25.992 44.4482 25.8948 44.2798C25.6696 43.8897 25.4446 43.4995 25.2204 43.109C24.472 41.6324 24.472 41.6324 23.501 40.3127C23.2206 40.3127 23.107 40.3864 22.8644 40.5239Z" fill="#EEEEEE"/>
<path d="M40.7468 16.6843C41.4665 17.0682 41.4665 17.0682 42.2507 17.1091C42.5295 16.9865 42.7894 16.8389 43.0515 16.6843C43.1902 16.6045 43.3289 16.5248 43.4678 16.4453C43.5285 16.4097 43.5893 16.3742 43.6519 16.3375C44.1576 16.0625 44.8904 16.0834 45.4392 16.2305C46.0514 16.4942 46.3801 16.86 46.699 17.4314C46.7331 17.4905 46.7671 17.5496 46.8022 17.6105C46.9485 17.8647 47.092 18.1201 47.2327 18.3774C47.29 18.4795 47.29 18.4795 47.3484 18.5837C47.3949 18.6704 47.3949 18.6704 47.4424 18.7589C47.841 19.244 48.5241 19.2169 49.1009 19.2754C49.8015 19.3569 50.374 19.5267 50.8445 20.0778C50.8993 20.1342 50.9541 20.1906 51.0105 20.2487C51.5157 21.0066 51.3877 21.8103 51.2693 22.6706C51.2409 22.9179 51.22 23.1594 51.2107 23.4079C51.2078 23.4766 51.2049 23.5453 51.2019 23.6161C51.2872 24.1591 51.7381 24.4821 52.1287 24.8239C52.7793 25.4185 53.118 25.849 53.1589 26.7575C53.1146 27.744 52.6426 28.247 51.9721 28.922C51.4439 29.4467 51.4439 29.4467 51.2162 30.1355C51.2257 30.2019 51.2351 30.2683 51.2449 30.3366C51.2547 30.4107 51.2644 30.4847 51.2745 30.5609C51.31 30.7628 51.3517 30.9618 51.3963 31.1618C51.5366 31.8294 51.5976 32.5974 51.2351 33.2028C50.6035 34.1101 49.7435 34.2296 48.7144 34.4234C48.0141 34.5589 48.0141 34.5589 47.4851 34.9997C47.3324 35.2654 47.2071 35.5393 47.0847 35.82C46.7639 36.5421 46.4938 37.0585 45.7664 37.4216C45.0823 37.6744 44.4763 37.6013 43.8132 37.3435C43.5325 37.2134 43.2542 37.0782 42.9795 36.9358C42.5115 36.7022 42.0543 36.5517 41.5412 36.7188C41.4356 36.7791 41.4356 36.7791 41.3279 36.8405C41.2487 36.8836 41.1696 36.9268 41.088 36.9712C41.0077 37.0167 40.9273 37.0622 40.8445 37.1091C40.1019 37.5148 39.517 37.7833 38.6723 37.5611C37.714 37.2183 37.3042 36.4135 36.8645 35.5559C36.6437 35.1378 36.4592 34.7938 35.9891 34.628C35.9317 34.6186 35.8743 34.6091 35.8152 34.5993C35.714 34.5817 35.714 34.5817 35.6107 34.5636C35.4382 34.5397 35.2651 34.5192 35.0919 34.5008C34.2984 34.4134 33.6775 34.2815 33.115 33.6862C32.5788 33.0046 32.569 32.2993 32.6615 31.4569C32.6694 31.3934 32.6772 31.3298 32.6853 31.2644C32.6932 31.1996 32.7011 31.1349 32.7092 31.0682C32.7254 30.942 32.7431 30.8159 32.7626 30.6901C32.8209 30.2498 32.7921 29.8446 32.5632 29.4528C32.41 29.3603 32.41 29.3603 32.2507 29.2966C32.1143 29.1727 32.1143 29.1727 31.9822 29.0329C31.8247 28.8691 31.6846 28.736 31.4988 28.6032C31.105 28.2509 30.8768 27.7531 30.8259 27.2306C30.8051 26.4801 30.9772 25.9586 31.4793 25.3952C31.6055 25.2627 31.7325 25.1309 31.8601 24.9997C32.0045 24.8462 32.1473 24.6911 32.2898 24.5359C32.3551 24.4659 32.4203 24.3959 32.4876 24.3238C32.7716 23.9851 32.7541 23.6252 32.7195 23.2028C32.683 23.007 32.6438 22.8117 32.6023 22.6169C32.4342 21.8189 32.4094 21.212 32.7976 20.4685C33.4306 19.5963 34.4162 19.4681 35.4162 19.2914C36.0114 19.1911 36.0114 19.1911 36.4695 18.8278C36.6653 18.4632 36.8253 18.083 36.9875 17.7025C37.2678 17.0787 37.6084 16.6275 38.242 16.3376C39.1714 16.022 39.8904 16.2705 40.7468 16.6843ZM38.7302 17.2702C38.681 17.2873 38.6317 17.3043 38.581 17.3218C38.1088 17.6193 37.9208 18.0976 37.7195 18.5935C37.4538 19.248 37.173 19.7352 36.5258 20.0708C36.0095 20.2776 35.4485 20.3464 34.9033 20.4428C34.2342 20.5715 33.976 20.67 33.5886 21.2253C33.4276 21.6995 33.5535 22.1591 33.6619 22.6364C33.8033 23.3283 33.8684 24.0735 33.5081 24.7052C33.2332 25.0688 32.9181 25.3958 32.5971 25.7188C32.2229 26.098 31.899 26.4463 31.8211 26.9919C31.9038 27.5713 32.246 27.9118 32.6707 28.2761C33.761 29.2509 33.761 29.2509 33.8132 29.9997C33.8021 30.5053 33.7605 31.0076 33.6912 31.5085C33.6021 32.1939 33.6021 32.1939 33.7888 32.8415C34.1039 33.1991 34.3412 33.3896 34.8206 33.447C34.952 33.4645 34.952 33.4645 35.086 33.4824C35.1768 33.4933 35.2676 33.5041 35.3611 33.5153C36.1797 33.6144 36.843 33.6956 37.3762 34.371C37.6241 34.7351 37.8162 35.1308 38.0138 35.5236C38.2406 35.9558 38.4742 36.2959 38.8914 36.5622C39.3914 36.7168 39.7798 36.5523 40.2259 36.322C40.3877 36.2315 40.548 36.1388 40.7078 36.0446C40.8154 35.9814 40.9232 35.9186 41.0313 35.856C41.1014 35.8147 41.1014 35.8147 41.1729 35.7725C41.6094 35.5557 42.1341 35.5568 42.5996 35.6726C42.947 35.7942 43.2792 35.9424 43.6115 36.0999C43.7036 36.1428 43.7036 36.1428 43.7975 36.1866C43.9195 36.2438 44.0408 36.3024 44.1613 36.3626C44.5826 36.5612 44.8424 36.6008 45.2976 36.4841C45.7035 36.28 45.857 36.062 46.0447 35.654C46.0677 35.6057 46.0907 35.5573 46.1144 35.5075C46.2175 35.2905 46.316 35.0716 46.4127 34.8517C46.6545 34.3236 46.9497 33.9273 47.4879 33.6753C47.8156 33.5666 48.1522 33.5069 48.491 33.4433C48.5598 33.4302 48.6287 33.4171 48.6996 33.4036C48.838 33.3776 48.9766 33.3529 49.1154 33.3294C49.6285 33.2358 49.9734 33.0804 50.3269 32.6804C50.5825 32.1594 50.4516 31.6827 50.3367 31.1374C50.1729 30.3523 50.103 29.6956 50.532 28.9841C50.7686 28.6944 51.0212 28.4256 51.2828 28.1586C51.4442 27.9921 51.5986 27.8195 51.7527 27.6462C51.802 27.5912 51.8514 27.5362 51.9022 27.4796C52.0895 27.2563 52.1107 27.1027 52.1189 26.8161C52.1218 26.7505 52.1247 26.6848 52.1278 26.6172C52.0308 26.0015 51.4338 25.6044 50.9885 25.2208C50.5297 24.8086 50.2652 24.4084 50.1835 23.7894C50.1857 23.7022 50.1879 23.615 50.1902 23.5251C50.1925 23.4254 50.1948 23.3257 50.1972 23.223C50.2104 22.982 50.2348 22.7436 50.2637 22.504C50.2716 22.4384 50.2794 22.3728 50.2875 22.3053C50.3036 22.1774 50.3213 22.0498 50.3407 21.9224C50.3979 21.4903 50.3499 21.2439 50.1414 20.8591C49.821 20.4472 49.4586 20.3566 48.9618 20.2904C48.7969 20.2736 48.6318 20.2587 48.4666 20.2439C47.7519 20.1686 47.1797 20.0315 46.7039 19.4528C46.4623 19.1303 46.256 18.7919 46.0654 18.4372C46.0354 18.3818 46.0054 18.3264 45.9744 18.2693C45.915 18.1588 45.8566 18.0477 45.7994 17.936C45.6094 17.582 45.4413 17.359 45.0632 17.1872C44.4336 17.0674 43.9991 17.2899 43.4714 17.612C43.3359 17.692 43.2002 17.7716 43.0643 17.851C43.0055 17.8866 42.9466 17.9222 42.886 17.9588C42.3926 18.2189 41.7594 18.2124 41.2354 18.0539C40.9965 17.9549 40.7644 17.8475 40.532 17.7341C40.3532 17.6491 40.1741 17.5644 39.9949 17.4802C39.9145 17.4411 39.8342 17.402 39.7514 17.3618C39.401 17.218 39.0932 17.1338 38.7302 17.2702Z" fill="#EEEEEE"/>
<path d="M46.6135 21.0505C48.1095 22.2877 49.1548 24.0674 49.359 26.0153C49.4758 28.2709 48.931 30.2527 47.4058 31.9528C47.361 32.0032 47.3162 32.0535 47.27 32.1054C46.1852 33.255 44.4775 34.134 42.8849 34.2323C40.7496 34.2739 39.0433 33.9838 37.3277 32.656C37.2342 32.584 37.2342 32.584 37.1388 32.5107C35.6707 31.2947 34.8181 29.4889 34.6153 27.6169C34.4545 25.6157 34.9992 23.6979 36.2956 22.1481C36.9428 21.4163 37.5811 20.8776 38.4215 20.3903C38.5187 20.3326 38.5187 20.3326 38.618 20.2737C41.1033 18.9127 44.4153 19.3342 46.6135 21.0505ZM37.8746 22.0309C37.8297 22.0648 37.7848 22.0986 37.7385 22.1335C36.5396 23.0617 35.822 24.6752 35.6285 26.1472C35.6203 26.2594 35.6138 26.3717 35.609 26.4841C35.6049 26.5467 35.6009 26.6094 35.5968 26.6739C35.5372 28.3461 36.2102 30 37.3192 31.2332C38.5002 32.4859 40.0872 33.2039 41.812 33.2837C43.6656 33.2656 45.2493 32.5749 46.6002 31.3132C47.7985 30.067 48.4014 28.3896 48.3799 26.6757C48.3158 24.9313 47.5384 23.3335 46.2816 22.1243C43.8542 20.0821 40.3078 19.9133 37.8746 22.0309Z" fill="#EEEEEE"/>
<path d="M44.3195 24.3437C44.3862 24.3434 44.4529 24.3431 44.5216 24.3428C44.6252 24.3441 44.6252 24.3441 44.7309 24.3455C44.8327 24.3442 44.8327 24.3442 44.9366 24.3428C45.4795 24.3452 45.9321 24.4152 46.3517 24.7776C46.4018 24.8381 46.4518 24.8985 46.5034 24.9608C46.5548 25.0212 46.6063 25.0816 46.6593 25.1439C46.9462 25.5387 46.9019 26.0172 46.8598 26.4842C46.7272 26.948 46.4717 27.2325 46.0786 27.4998C45.6364 27.7209 45.1548 27.6701 44.6723 27.6561C44.675 27.7418 44.6778 27.8275 44.6806 27.9158C44.6828 28.0294 44.6849 28.143 44.687 28.2567C44.6899 28.3412 44.6899 28.3412 44.6929 28.4274C44.6978 28.7847 44.6668 29.017 44.438 29.2967C44.2085 29.3748 44.2085 29.3748 43.9692 29.3748C43.8005 29.2851 43.8005 29.2851 43.6567 29.1404C43.617 28.9418 43.617 28.9418 43.6163 28.7016C43.6153 28.6117 43.6143 28.5217 43.6133 28.429C43.6142 28.2833 43.6142 28.2833 43.6152 28.1346C43.6149 28.0349 43.6146 27.9352 43.6143 27.8325C43.6141 27.6215 43.6145 27.4106 43.616 27.1997C43.6177 26.9293 43.6167 26.6591 43.6148 26.3887C43.6134 26.1308 43.6144 25.8729 43.6152 25.6151C43.6146 25.5179 43.6139 25.4207 43.6133 25.3206C43.6143 25.2306 43.6153 25.1407 43.6163 25.048C43.6165 24.9688 43.6168 24.8895 43.617 24.8078C43.6567 24.6092 43.6567 24.6092 43.8049 24.4665C43.9924 24.3619 44.106 24.3446 44.3195 24.3437ZM44.6723 25.3904C44.6723 25.8029 44.6723 26.2154 44.6723 26.6404C45.2193 26.692 45.2193 26.692 45.6977 26.4744C45.8703 26.2098 45.9035 26.0906 45.8442 25.7811C45.6983 25.6012 45.582 25.4937 45.3755 25.3904C45.1407 25.3798 44.9074 25.3871 44.6723 25.3904Z" fill="#EEEEEE"/>
<path d="M37.7241 24.3555C38.0586 24.4978 38.1318 24.7584 38.2661 25.0781C38.3973 25.4272 38.518 25.7795 38.6372 26.1328C38.6693 26.2269 38.7015 26.3209 38.7346 26.4178C38.8132 26.6482 38.8914 26.8787 38.9692 27.1094C39.1304 26.8676 39.2078 26.6591 39.3007 26.3846C39.334 26.2881 39.3673 26.1915 39.4017 26.0921C39.4542 25.9391 39.5064 25.7861 39.558 25.6328C39.6081 25.4844 39.6595 25.3363 39.7108 25.1883C39.7409 25.0998 39.771 25.0113 39.802 24.9201C39.9116 24.6768 40.0102 24.5393 40.2192 24.375C40.4909 24.375 40.6304 24.4048 40.8394 24.5801C41.0568 25.066 40.7224 25.7077 40.5571 26.1752C40.5284 26.257 40.4998 26.3387 40.4703 26.4229C40.4098 26.5949 40.3491 26.7669 40.2881 26.9388C40.195 27.2017 40.1034 27.4652 40.0119 27.7287C39.9528 27.8962 39.8937 28.0635 39.8344 28.2309C39.8072 28.3096 39.78 28.3883 39.752 28.4694C39.7257 28.5427 39.6994 28.616 39.6723 28.6915C39.6383 28.7879 39.6383 28.7879 39.6036 28.8862C39.4989 29.0972 39.3854 29.2258 39.2036 29.375C38.9302 29.3945 38.9302 29.3945 38.6567 29.2969C38.3888 28.8342 38.2151 28.3423 38.0403 27.8384C38.013 27.7605 37.9857 27.6825 37.9576 27.6022C37.9004 27.4385 37.8434 27.2747 37.7866 27.1108C37.6996 26.86 37.6115 26.6097 37.5233 26.3594C37.4677 26.1998 37.4122 26.0401 37.3567 25.8804C37.3303 25.8058 37.304 25.7312 37.2768 25.6543C37.2528 25.5844 37.2288 25.5145 37.204 25.4424C37.1828 25.3814 37.1615 25.3203 37.1396 25.2573C37.0889 25.0569 37.075 24.8934 37.0942 24.6875C37.2996 24.458 37.4156 24.3807 37.7241 24.3555Z" fill="#EEEEEE"/>
<path d="M42.4065 24.4531C42.5812 24.7152 42.583 24.8042 42.5854 25.1108C42.5869 25.2406 42.5869 25.2406 42.5884 25.3731C42.5886 25.4666 42.5888 25.5601 42.589 25.6565C42.5895 25.7525 42.59 25.8485 42.5905 25.9475C42.5913 26.1507 42.5917 26.354 42.5917 26.5572C42.5917 26.8686 42.5949 27.18 42.5978 27.4913C42.5983 27.6886 42.5986 27.8859 42.5987 28.0832C42.5999 28.1766 42.601 28.2699 42.6021 28.3661C42.6017 28.4529 42.6012 28.5397 42.6007 28.6292C42.6009 28.7055 42.6011 28.7818 42.6014 28.8604C42.5513 29.1222 42.4613 29.2165 42.2502 29.375C41.967 29.3701 41.967 29.3701 41.7034 29.2969C41.528 29.0338 41.5274 28.9458 41.5269 28.638C41.5264 28.5512 41.5259 28.4644 41.5254 28.3749C41.5257 28.2812 41.526 28.1874 41.5263 28.0908C41.5262 27.9946 41.5261 27.8984 41.5259 27.7993C41.5258 27.5435 41.5264 27.2878 41.5273 27.032C41.5276 26.8752 41.5273 26.7184 41.5267 26.5615C41.5258 26.2607 41.5259 25.96 41.5263 25.6592C41.526 25.5654 41.5257 25.4717 41.5254 25.3751C41.5259 25.2883 41.5264 25.2015 41.5269 25.112C41.527 25.0355 41.5271 24.959 41.5273 24.8802C41.5471 24.6875 41.5471 24.6875 41.7034 24.4531C41.9795 24.3611 42.1268 24.3817 42.4065 24.4531Z" fill="#EEEEEE"/>
<defs>
<linearGradient id="paint0_linear_41_4145" x1="35.5" y1="70" x2="35.5" y2="0" gradientUnits="userSpaceOnUse">
<stop stop-color="#280659"/>
<stop offset="1" stop-color="#764895"/>
</linearGradient>
</defs>
</svg>
