<svg width="91" height="81" viewBox="0 0 91 81" fill="none" xmlns="http://www.w3.org/2000/svg">
<path d="M45.7 33.7C50.5 29.5 56.8 26.9 63.7 26.9C67.1 26.9 70.3 27.5 73.3 28.6C73.3 28.2 73.3 27.8 73.3 27.4C73.3 12.4 61.2 0.299988 46.2 0.299988C31.2 0.299988 19.1 12.4 19.1 27.4C19.1 27.7 19.1 28 19.1 28.3C21.8 27.4 24.7 26.9 27.7 26.9C34.7 26.9 41 29.4 45.7 33.7Z" fill="#764895"/>
<path d="M73.3 28.6C72.8 40 65.2 49.6 54.8 53C54.8 53.3 54.8 53.6 54.8 53.9C54.8 62 51.3 69.2 45.7 74.1C50.5 78.3 56.8 80.9 63.7 80.9C78.7 80.9 90.8 68.8 90.8 53.8C90.8 42.4 83.5 32.5 73.3 28.6Z" fill="#280659"/>
<path d="M36.6 53.9C36.6 53.5 36.6 53.1 36.6 52.7C26.6 48.9 19.5 39.5 19.1 28.3C8.4 31.9 0.699997 42 0.699997 53.9C0.699997 68.9 12.8 81 27.8 81C34.7 81 41 78.4 45.8 74.2C40.2 69.2 36.6 62 36.6 53.9Z" fill="url(#paint0_linear_1_67)"/>
<path d="M63.7 26.9C67.1 26.9 70.3 27.5 73.3 28.6C72.8 40 65.2 49.6 54.8 53C54.5 45.3 51.1 38.4 45.7 33.7C50.5 29.4 56.8 26.9 63.7 26.9ZM36.7 52.7C37 45.1 40.5 38.4 45.8 33.7C41 29.5 34.7 26.9 27.8 26.9C24.8 26.9 21.9 27.4 19.2 28.3C19.6 39.5 26.7 48.9 36.7 52.7ZM54.9 53.9C54.9 53.6 54.9 53.3 54.9 53C52.2 53.9 49.3 54.4 46.3 54.4C42.9 54.4 39.7 53.8 36.7 52.7C36.7 53.1 36.7 53.5 36.7 53.9C36.7 62 40.2 69.2 45.8 74.1C51.3 69.2 54.9 62 54.9 53.9Z" fill="url(#paint1_linear_1_67)"/>
<path d="M45.7 33.7C40.4 38.4 37 45.1 36.6 52.7C39.6 53.8 42.8 54.4 46.2 54.4C49.2 54.4 52.1 53.9 54.8 53C54.6 45.3 51.1 38.5 45.7 33.7Z" fill="white"/>
<defs>
<linearGradient id="paint0_linear_1_67" x1="0.699197" y1="54.6371" x2="45.7479" y2="54.6371" gradientUnits="userSpaceOnUse">
<stop offset="0.236" stop-color="#9A9A9A"/>
<stop offset="1" stop-color="#3D3D3D"/>
</linearGradient>
<linearGradient id="paint1_linear_1_67" x1="64.2017" y1="19.5196" x2="27.6082" y2="56.1131" gradientUnits="userSpaceOnUse">
<stop offset="0.00561798" stop-color="#9CA6AA"/>
<stop offset="0.2753" stop-color="white"/>
<stop offset="0.6742" stop-color="#CBD0D2"/>
<stop offset="1" stop-color="#B7BEC1"/>
</linearGradient>
</defs>
</svg>
